<?xml version="1.0" encoding="utf-8"?>
<!-- Generator: Adobe Illustrator 18.0.0, SVG Export Plug-In . SVG Version: 6.00 Build 0)  -->
<!DOCTYPE svg PUBLIC "-//W3C//DTD SVG 1.1//EN" "http://www.w3.org/Graphics/SVG/1.1/DTD/svg11.dtd">
<svg version="1.1" id="Layer_1" xmlns="http://www.w3.org/2000/svg" xmlns:xlink="http://www.w3.org/1999/xlink" x="0px" y="0px"
	 viewBox="0 0 50 50" enable-background="new 0 0 50 50" xml:space="preserve">
<g>
	<g>
		<g>
			<g enable-background="new    ">
				<g>
					<path fill="#E8E8E8" d="M49.5084,14.1636c-0.0023,1.1629-0.4134,1.9806-1.0744,2.3668L14.6112,35.9096
						c0.661-0.3862,1.0721-1.2039,1.0744-2.3669c0.0068-2.3418-1.6377-5.1901-3.6751-6.3666
						c-1.0244-0.5906-1.9534-0.6474-2.6234-0.2566L43.2099,7.5403c0.67-0.3884,1.599-0.3339,2.6234,0.2566
						C47.8708,8.9735,49.5152,11.8241,49.5084,14.1636z"/>
				</g>
				<g>
					<path fill="#F9A62B" d="M12.0108,27.1762c2.0375,1.1764,3.6825,4.0256,3.6758,6.3668
						c-0.0066,2.3396-1.6623,3.2848-3.6999,2.1085c-2.0361-1.1755-3.6825-4.0273-3.6758-6.3668
						C8.3175,26.9434,9.9747,26.0007,12.0108,27.1762z"/>
				</g>
			</g>
		</g>
		<g>
			<g enable-background="new    ">
				<g>
					<path fill="#E8E8E8" d="M49.5082,14.1675c0,1.1602-0.41,1.98-1.0699,2.3604l-33.77,19.3398c0.47-0.29,0.8-0.8203,0.94-1.5303
						c0.03-0.0996,0.04-0.21,0.05-0.3301c0.01-0.0498,0.01-0.0996,0.02-0.1499v-0.0098c0.92-0.8599,1.94-1.6201,3-2.3101
						c2.57-1.6802,5.38-3.0498,7.68-5.0898c1.29-1.1401,2.44-2.5,3.97-3.3003c1.39-0.73,3.08-0.9897,4.18-2.1299
						c0.91-0.9399,1.25-2.3501,2.27-3.1699c1.13-0.9302,2.76-0.8501,4.14-1.3501c1.6-0.5801,2.79-1.8901,4.1-2.98
						c1.14-0.9502,2.57-1.79,4.02-1.71C49.3382,12.5977,49.5082,13.4077,49.5082,14.1675z"/>
				</g>
			</g>
		</g>
		<g>
			<g enable-background="new    ">
				<g>
					<path fill="#BFBFBF" d="M12.0108,27.1762c2.0375,1.1764,3.6825,4.0256,3.6758,6.3668
						c-0.0066,2.3396-1.6623,3.2848-3.6999,2.1085c-2.0361-1.1755-3.6825-4.0273-3.6758-6.3668
						C8.3175,26.9434,9.9747,26.0007,12.0108,27.1762z"/>
				</g>
			</g>
		</g>
		<g>
			<g enable-background="new    ">
				<g>
					<path fill="#66C5B9" d="M15.1157,33.6444c-0.0021,1.0616-0.3774,1.8081-0.9808,2.1606l-7.8918,4.5867
						c0.6034-0.3525,0.9787-1.099,0.9808-2.1607c0.0062-2.1378-1.495-4.738-3.355-5.812c-0.9352-0.5391-1.7832-0.591-2.3949-0.2343
						l7.8918-4.5867c0.6117-0.3546,1.4598-0.3049,2.3949,0.2343C13.6207,28.9063,15.1219,31.5086,15.1157,33.6444z"/>
				</g>
				<g>
					<path fill="#3CBCA1" d="M3.8692,32.4189c1.86,1.0739,3.3617,3.6749,3.3556,5.8123c-0.0061,2.1358-1.5175,2.9987-3.3776,1.9248
						c-1.8587-1.0731-3.3617-3.6765-3.3556-5.8123C0.4976,32.2064,2.0104,31.3458,3.8692,32.4189z"/>
				</g>
			</g>
		</g>
		<g>
			<g>
				<g enable-background="new    ">
					<g>
						<path fill="#E02426" d="M14.7451,25.0069l0.0088,0.2191c0.0008,0.2796,0.1846,0.5589,0.5518,0.7723
							c0.7389,0.4294,1.9418,0.4294,2.6855,0c0.3745-0.2162,0.5614-0.4999,0.5606-0.7832l-0.0088-0.2191
							c0.0008,0.2833-0.1861,0.567-0.5606,0.7832c-0.7438,0.4294-1.9466,0.4294-2.6855,0
							C14.9297,25.5657,14.7459,25.2865,14.7451,25.0069z"/>
					</g>
					<g>
						<path fill="#EE4541" d="M15.3057,24.2236c-0.7438,0.4294-0.7482,1.1258-0.0087,1.5556c0.7389,0.4294,1.9418,0.4294,2.6855,0
							c0.7443-0.4297,0.7477-1.1262,0.0087-1.5556C17.2518,23.7939,16.05,23.7939,15.3057,24.2236z"/>
					</g>
					<g>
						<path fill="#B0AFB0" d="M15.7657,24.3828c-0.4882,0.2818-0.4911,0.739-0.0057,1.021c0.485,0.2818,1.2745,0.2819,1.7627,0
							c0.4885-0.282,0.4907-0.7392,0.0057-1.021C17.043,24.1008,16.2542,24.1008,15.7657,24.3828z"/>
					</g>
				</g>
			</g>
			<g>
				<g>
					<g>
						<g enable-background="new    ">
							<g>
								<path fill="#EE4541" d="M15.4515,22.7684c-0.663,0.3828-0.667,1.0036-0.0078,1.3867c0.6587,0.3828,1.731,0.3828,2.3941,0
									c0.6635-0.3831,0.6665-1.0039,0.0078-1.3867C17.1863,22.3854,16.115,22.3854,15.4515,22.7684z"/>
							</g>
						</g>
					</g>
				</g>
				<g>
					<path fill="#E02426" d="M18.3456,24.8652c0.0027,0.2502-0.165,0.503-0.5004,0.6947c-0.6627,0.3831-1.7352,0.3831-2.3953,0
						c-0.3247-0.1864-0.4897-0.4365-0.4897-0.6867l-0.0107-1.4065c0,0.0213,0.0053,0.0399,0.008,0.0612
						c0.0239,0.2262,0.1836,0.4525,0.487,0.6281c0.6574,0.3834,1.7299,0.3834,2.3953,0c0.33-0.1943,0.4977-0.447,0.4977-0.6999
						L18.3456,24.8652z"/>
				</g>
			</g>
		</g>
		<g>
			<path fill="#66C5B9" d="M49.5084,14.1636c-0.0023,1.1629-0.4134,1.9806-1.0744,2.3668l-2.4859,1.4243
				c0.661-0.3862,1.0721-1.2039,1.0744-2.3669c0.0068-2.3418-1.6377-5.1901-3.6751-6.3666
				C42.323,8.6307,41.394,8.5739,40.724,8.9646l2.4859-1.4243c0.67-0.3884,1.599-0.3339,2.6234,0.2566
				C47.8708,8.9735,49.5152,11.8241,49.5084,14.1636z"/>
		</g>
		<g>
			<path fill="#66C5B9" d="M17.6058,32.4347c-0.0023,1.1629-0.4134,1.9806-1.0744,2.3668l-0.9486,0.5435
				c0.661-0.3862,1.0721-1.2039,1.0744-2.3669c0.0068-2.3418-1.6377-5.1901-3.6751-6.3666
				c-1.0244-0.5906-1.9534-0.6474-2.6234-0.2566l0.9486-0.5435c0.67-0.3884,1.599-0.3339,2.6234,0.2566
				C15.9681,27.2446,17.6126,30.0951,17.6058,32.4347z"/>
		</g>
		<polygon fill="#2F8B7A" points="5.8937,36.6815 5.8893,38.2413 1.8227,35.8934 1.8271,34.3336 		"/>
		<path opacity="0.1" fill="#686868" d="M49.5082,14.1675c0,1.1602-0.41,1.98-1.0699,2.3604l-33.77,19.3398
			c0.47-0.29,0.8-0.8203,0.94-1.5303c0.03-0.0996,0.04-0.21,0.05-0.3301c0.01-0.0498,0.01-0.0996,0.02-0.1499v-0.0098
			c0.92-0.8599,1.94-1.6201,3-2.3101c2.57-1.6802,5.38-3.0498,7.68-5.0898c1.29-1.1401,2.44-2.5,3.97-3.3003
			c1.39-0.73,3.08-0.9897,4.18-2.1299c0.91-0.9399,1.25-2.3501,2.27-3.1699c1.13-0.9302,2.76-0.8501,4.14-1.3501
			c1.6-0.5801,2.79-1.8901,4.1-2.98c1.14-0.9502,2.57-1.79,4.02-1.71C49.3382,12.5977,49.5082,13.4077,49.5082,14.1675z"/>
	</g>
	<g>
		<g>
			<g>
				<g enable-background="new    ">
					<g>
						<polygon fill="#D7D7D7" points="47.1695,35.647 47.1684,36.0546 40.1462,40.1354 40.1474,39.7279 						"/>
					</g>
					<g>
						<polygon fill="#383838" points="40.1474,39.7279 40.1462,40.1354 37.3944,38.5467 37.3956,38.1391 						"/>
					</g>
					<g>
						<polygon fill="#E8E8E8" points="47.1695,35.647 40.1474,39.7279 37.3956,38.1391 44.4177,34.0583 						"/>
					</g>
				</g>
				<g enable-background="new    ">
					<g>
						<polygon fill="#3CBCA1" points="40.1474,39.7279 40.1462,40.1354 37.7741,41.514 37.7752,41.1064 						"/>
					</g>
					<g>
						<polygon fill="#383838" points="37.7752,41.1064 37.7741,41.514 35.0223,39.9252 35.0234,39.5176 						"/>
					</g>
					<g>
						<polygon fill="#66C5B9" points="40.1474,39.7279 37.7752,41.1064 35.0234,39.5176 37.3956,38.1391 						"/>
					</g>
				</g>
				<g enable-background="new    ">
					<g>
						<polygon fill="#3D3D3D" points="37.7752,41.1064 37.774,41.514 35.6135,42.1113 35.6146,41.7037 						"/>
					</g>
					<g>
						<polygon fill="#4F4D4D" points="35.6146,41.7037 35.6135,42.1113 33.9918,41.175 33.9929,40.7674 						"/>
					</g>
					<g>
						<polygon fill="#686868" points="35.0234,39.5176 37.7752,41.1064 35.6146,41.7037 33.9929,40.7674 						"/>
					</g>
				</g>
			</g>
			<g>
				<polygon fill="#66C5B9" points="44.9061,34.5496 42.534,35.9281 42.119,35.6885 44.4912,34.31 				"/>
			</g>
		</g>
		<g>
			<polygon fill="#66C5B9" points="45.4974,34.8945 43.1253,36.273 42.7103,36.0334 45.0824,34.6549 			"/>
		</g>
		<g>
			<polygon fill="#66C5B9" points="46.0887,35.2394 43.7165,36.6179 43.3015,36.3783 45.6737,34.9998 			"/>
		</g>
		<g>
			<polygon fill="#66C5B9" points="46.6799,35.5843 44.3078,36.9628 43.8928,36.7232 46.2649,35.3447 			"/>
		</g>
	</g>
	<g>
		<g>
			<g>
				<g enable-background="new    ">
					<g>
						<polygon fill="#D7D7D7" points="36.6943,36.2436 36.6932,36.6512 29.671,40.732 29.6722,40.3245 						"/>
					</g>
					<g>
						<polygon fill="#383838" points="29.6722,40.3245 29.671,40.732 26.9192,39.1433 26.9204,38.7357 						"/>
					</g>
					<g>
						<polygon fill="#E8E8E8" points="36.6943,36.2436 29.6722,40.3245 26.9204,38.7357 33.9425,34.6549 						"/>
					</g>
				</g>
				<g enable-background="new    ">
					<g>
						<polygon fill="#3CBCA1" points="29.6722,40.3245 29.671,40.732 27.2989,42.1106 27.3,41.703 						"/>
					</g>
					<g>
						<polygon fill="#383838" points="27.3,41.703 27.2989,42.1106 24.5471,40.5218 24.5482,40.1143 						"/>
					</g>
					<g>
						<polygon fill="#66C5B9" points="29.6722,40.3245 27.3,41.703 24.5482,40.1143 26.9204,38.7357 						"/>
					</g>
				</g>
				<g enable-background="new    ">
					<g>
						<polygon fill="#3D3D3D" points="27.3,41.703 27.2989,42.1106 25.1383,42.7079 25.1394,42.3003 						"/>
					</g>
					<g>
						<polygon fill="#4F4D4D" points="25.1394,42.3003 25.1383,42.7079 23.5166,41.7716 23.5177,41.364 						"/>
					</g>
					<g>
						<polygon fill="#686868" points="24.5482,40.1143 27.3,41.703 25.1394,42.3003 23.5177,41.364 						"/>
					</g>
				</g>
			</g>
			<g>
				<polygon fill="#66C5B9" points="34.431,35.1462 32.0588,36.5247 31.6438,36.2851 34.016,34.9066 				"/>
			</g>
		</g>
		<g>
			<polygon fill="#66C5B9" points="35.0222,35.4911 32.6501,36.8696 32.2351,36.63 34.6073,35.2515 			"/>
		</g>
		<g>
			<polygon fill="#66C5B9" points="35.6135,35.836 33.2413,37.2145 32.8264,36.9749 35.1985,35.5964 			"/>
		</g>
		<g>
			<polygon fill="#66C5B9" points="36.2047,36.1809 33.8326,37.5594 33.4176,37.3198 35.7898,35.9413 			"/>
		</g>
	</g>
	<g>
		<g>
			<g>
				<g enable-background="new    ">
					<g>
						<polygon fill="#D7D7D7" points="41.0198,28.0164 41.0187,28.424 33.9965,32.5048 33.9977,32.0972 						"/>
					</g>
					<g>
						<polygon fill="#383838" points="33.9977,32.0972 33.9965,32.5048 31.2447,30.916 31.2459,30.5085 						"/>
					</g>
					<g>
						<polygon fill="#E8E8E8" points="41.0198,28.0164 33.9977,32.0972 31.2459,30.5085 38.268,26.4276 						"/>
					</g>
				</g>
				<g enable-background="new    ">
					<g>
						<polygon fill="#3CBCA1" points="33.9977,32.0972 33.9965,32.5048 31.6244,33.8833 31.6255,33.4758 						"/>
					</g>
					<g>
						<polygon fill="#383838" points="31.6255,33.4758 31.6244,33.8833 28.8726,32.2946 28.8737,31.887 						"/>
					</g>
					<g>
						<polygon fill="#66C5B9" points="33.9977,32.0972 31.6255,33.4758 28.8737,31.887 31.2459,30.5085 						"/>
					</g>
				</g>
				<g enable-background="new    ">
					<g>
						<polygon fill="#3D3D3D" points="31.6255,33.4758 31.6244,33.8833 29.4638,34.4806 29.4649,34.073 						"/>
					</g>
					<g>
						<polygon fill="#4F4D4D" points="29.4649,34.073 29.4638,34.4806 27.8421,33.5443 27.8432,33.1367 						"/>
					</g>
					<g>
						<polygon fill="#686868" points="28.8737,31.887 31.6255,33.4758 29.4649,34.073 27.8432,33.1367 						"/>
					</g>
				</g>
			</g>
			<g>
				<polygon fill="#66C5B9" points="38.7565,26.9189 36.3843,28.2975 35.9694,28.0579 38.3415,26.6793 				"/>
			</g>
		</g>
		<g>
			<polygon fill="#66C5B9" points="39.3477,27.2638 36.9756,28.6424 36.5606,28.4028 38.9328,27.0242 			"/>
		</g>
		<g>
			<polygon fill="#66C5B9" points="39.939,27.6087 37.5668,28.9873 37.1519,28.7477 39.524,27.3691 			"/>
		</g>
		<g>
			<polygon fill="#66C5B9" points="40.5302,27.9536 38.1581,29.3322 37.7431,29.0926 40.1153,27.714 			"/>
		</g>
	</g>
</g>
</svg>
