<?xml version="1.0" encoding="utf-8"?>
<!-- Generator: Adobe Illustrator 18.0.0, SVG Export Plug-In . SVG Version: 6.00 Build 0)  -->
<!DOCTYPE svg PUBLIC "-//W3C//DTD SVG 1.1//EN" "http://www.w3.org/Graphics/SVG/1.1/DTD/svg11.dtd">
<svg version="1.1" id="Layer_1" xmlns="http://www.w3.org/2000/svg" xmlns:xlink="http://www.w3.org/1999/xlink" x="0px" y="0px"
	 viewBox="0 0 50 50" enable-background="new 0 0 50 50" xml:space="preserve">
<g>
	<g>
		<g>
			<g>
				<g>
					<g enable-background="new    ">
						<g>
							<polygon fill="#3D3D3D" points="48.2696,33.8586 48.2673,34.6737 23.5605,49.0317 23.5629,48.2165 							"/>
						</g>
						<g>
							<polygon fill="#4F4D4D" points="23.5629,48.2165 23.5605,49.0317 1.7304,36.4281 1.7327,35.6129 							"/>
						</g>
						<g>
							<polygon fill="#686868" points="48.2696,33.8586 23.5629,48.2165 1.7327,35.6129 26.4395,21.2549 							"/>
						</g>
					</g>
				</g>
				<g>
					<g enable-background="new    ">
						<g>
							<path fill="#E8E8E8" d="M44.7843,11.5072L26.7391,1.0891c-0.2507-0.1453-0.4772-0.1536-0.639-0.0565L4.4394,13.6182
								c0.1618-0.0972,0.3882-0.081,0.639,0.0648l18.0452,10.4178c0.2848,0.1635,0.5284,0.4672,0.6917,0.8013l21.6624-12.5864
								C45.3127,11.9808,45.0689,11.6751,44.7843,11.5072z"/>
							<path fill="#BFBFBF" d="M23.8152,24.9021c0.1197,0.2449,0.2015,0.5043,0.1981,0.7437l-0.0566,20.2936
								c0,0.2832-0.0971,0.4771-0.2588,0.5742L45.3586,33.928c0.1617-0.0968,0.2588-0.299,0.2669-0.5821l0.0566-20.2857
								c0-0.2397-0.0836-0.4992-0.2045-0.7445L23.8152,24.9021z"/>
						</g>
						<g>
							<path fill="#D7D7D7" d="M23.1211,24.0977c0.4958,0.2862,0.8973,0.9817,0.8956,1.5513l-0.0575,20.2884
								c-0.0016,0.5698-0.4057,0.7999-0.9015,0.5137L5.0142,36.0335c-0.4958-0.2862-0.8973-0.9814-0.8956-1.5513l0.0575-20.2884
								c0.0016-0.5695,0.4057-0.7999,0.9015-0.5137L23.1211,24.0977z"/>
							<polygon fill="#3D3D3D" points="6.1189,32.6731 6.1697,16.6201 22.0163,25.7692 21.9665,41.8229 							"/>
						</g>
					</g>
				</g>
			</g>
			<g>
				<polygon fill="#E02426" points="13.3901,24.6526 13.4088,24.8471 13.5632,26.7587 14.1314,27.0868 14.3242,26.7571 
					14.3561,26.805 14.7379,27.4736 16.2064,28.3214 16.7313,28.1178 17.0941,28.7458 18.3582,29.4757 18.5119,29.3954 
					18.8752,29.8403 19.0325,28.4835 19.1688,30.0318 21.3268,31.2777 21.3266,31.3438 19.1176,30.0684 19.0309,29.0483 
					18.9196,29.9688 18.8814,29.9248 18.5245,29.4835 18.3772,29.5528 17.0747,28.8008 16.7311,28.2057 16.2317,28.4022 
					14.7185,27.5286 14.3431,26.8784 14.1696,27.1749 13.5119,26.7953 13.3635,25.0196 12.9947,26.5114 12.5998,25.9672 
					12.3116,26.1023 10.5878,25.107 10.4948,24.0761 10.3707,24.9817 10.1153,24.8342 10.0137,24.5699 9.8982,24.7089 
					8.5128,23.909 8.2395,23.2955 7.4979,23.2055 6.8084,22.8074 6.8086,22.7413 7.4853,23.132 8.2589,23.2334 8.5449,23.8613 
					9.8665,24.6244 10.0204,24.4561 10.1474,24.7866 10.3198,24.8861 10.5026,23.5588 10.6327,25.0667 12.2863,26.0214 
					12.5936,25.8831 12.9567,26.3866 				"/>
			</g>
			<g>
				<polygon fill="#FDE34B" points="13.3901,30.2487 13.4088,30.4433 13.5632,32.3548 14.1314,32.6829 14.3242,32.3533 
					14.3561,32.4011 14.7379,33.0697 16.2064,33.9175 16.7313,33.7139 17.0941,34.3419 18.3582,35.0718 18.5119,34.9915 
					18.8752,35.4364 19.0325,34.0797 19.1688,35.6279 21.3268,36.8738 21.3266,36.9399 19.1176,35.6645 19.0309,34.6445 
					18.9196,35.5649 18.8814,35.5209 18.5245,35.0797 18.3772,35.1489 17.0747,34.3969 16.7311,33.8019 16.2317,33.9983 
					14.7185,33.1247 14.3431,32.4746 14.1696,32.7711 13.5119,32.3914 13.3635,30.6157 12.9947,32.1075 12.5998,31.5634 
					12.3116,31.6984 10.5878,30.7031 10.4948,29.6723 10.3707,30.5778 10.1153,30.4304 10.0137,30.166 9.8982,30.305 
					8.5128,29.5051 8.2395,28.8917 7.4979,28.8016 6.8084,28.4035 6.8086,28.3374 7.4853,28.7281 8.2589,28.8295 8.5449,29.4575 
					9.8665,30.2205 10.0204,30.0523 10.1474,30.3827 10.3198,30.4822 10.5026,29.1549 10.6327,30.6629 12.2863,31.6176 
					12.5936,31.4793 12.9567,31.9827 				"/>
			</g>
			<g>
				<polygon fill="#FDE34B" points="13.3901,30.2487 13.4088,30.4433 13.5632,32.3548 14.1314,32.6829 14.3242,32.3533 
					14.3561,32.4011 14.7379,33.0697 16.2064,33.9175 16.7313,33.7139 17.0941,34.3419 18.3582,35.0718 18.5119,34.9915 
					18.8752,35.4364 19.0325,34.0797 19.1688,35.6279 21.3268,36.8738 21.3266,36.9399 19.1176,35.6645 19.0309,34.6445 
					18.9196,35.5649 18.8814,35.5209 18.5245,35.0797 18.3772,35.1489 17.0747,34.3969 16.7311,33.8019 16.2317,33.9983 
					14.7185,33.1247 14.3431,32.4746 14.1696,32.7711 13.5119,32.3914 13.3635,30.6157 12.9947,32.1075 12.5998,31.5634 
					12.3116,31.6984 10.5878,30.7031 10.4948,29.6723 10.3707,30.5778 10.1153,30.4304 10.0137,30.166 9.8982,30.305 
					8.5128,29.5051 8.2395,28.8917 7.4979,28.8016 6.8084,28.4035 6.8086,28.3374 7.4853,28.7281 8.2589,28.8295 8.5449,29.4575 
					9.8665,30.2205 10.0204,30.0523 10.1474,30.3827 10.3198,30.4822 10.5026,29.1549 10.6327,30.6629 12.2863,31.6176 
					12.5936,31.4793 12.9567,31.9827 				"/>
			</g>
			<g>
				<g>
					<path fill="#EE4541" d="M18.8872,26.6523c-0.0013,0.4679-0.3045,0.579-0.69,0.3564c-0.5518-0.3186-0.7657-0.9679-0.764-1.5733
						c0.0025-0.889,0.3651-1.0248,0.7964-0.7758c0.2164,0.125,0.4134,0.3151,0.5865,0.5729l-0.168,0.1891
						c-0.0785-0.123-0.2452-0.3142-0.3702-0.3864c-0.3742-0.216-0.5176,0.0279-0.5229,0.4651
						c0.0935-0.0679,0.2893-0.0869,0.5022,0.036C18.6024,25.7357,18.8885,26.179,18.8872,26.6523z M18.4792,26.7202
						c0.0731-0.0344,0.1119-0.1081,0.1123-0.2262c0.0006-0.225-0.1396-0.5024-0.3781-0.6401
						c-0.3965-0.2289-0.5207,0.1372-0.2956,0.5273c0.0748,0.1271,0.1668,0.2245,0.2804,0.2901
						C18.3096,26.7356,18.4039,26.7508,18.4792,26.7202"/>
				</g>
				<g>
					<path fill="#EE4541" d="M20.8321,27.3387c-0.0019,0.6716-0.2406,1.0524-0.8177,0.7192
						c-0.5841-0.3372-0.8128-0.9904-0.8109-1.6595c0.0019-0.6741,0.2384-1.0512,0.8177-0.7167
						C20.6,26.0159,20.8339,26.6729,20.8321,27.3387z M20.3824,27.703c0.0776-0.113,0.1167-0.2976,0.1175-0.5561
						c0.0012-0.433-0.1065-0.9197-0.4797-1.1353c-0.3765-0.2174-0.4898,0.1415-0.491,0.5748
						c-0.0012,0.4344,0.1102,0.9219,0.4862,1.1389C20.1824,27.8219,20.3048,27.8137,20.3824,27.703"/>
				</g>
			</g>
			<g>
				<g>
					<path fill="#FDE34B" d="M18.7506,31.1912c0.1426,0.4749,0.1155,1.0043,0.0351,1.2509
						c-0.1258,0.3646-0.4077,0.4084-0.7304,0.2221c-0.2164-0.125-0.4112-0.3164-0.5865-0.5729l0.1701-0.1879
						c0.0733,0.1185,0.2507,0.3174,0.3702,0.3864c0.1779,0.1027,0.3088,0.1092,0.3928,0.0196
						c0.084-0.0897,0.1274-0.252,0.1302-0.4847c-0.0935,0.0676-0.2882,0.0876-0.5043-0.0372
						c-0.3436-0.1984-0.6292-0.6428-0.6279-1.1148c0.0013-0.4733,0.3096-0.576,0.69-0.3563
						C18.4091,30.5007,18.6294,30.7932,18.7506,31.1912z M18.3633,31.5275c0.0774-0.0293,0.1162-0.1007,0.1165-0.2188
						c0.0006-0.2148-0.1522-0.5171-0.3909-0.655c-0.2088-0.1206-0.384-0.0655-0.3847,0.1824
						c-0.0007,0.2353,0.1343,0.4993,0.3695,0.6351C18.1894,31.538,18.2859,31.5568,18.3633,31.5275"/>
				</g>
				<g>
					<path fill="#FDE34B" d="M20.4127,31.6969l-0.001,0.3522l-0.8443-0.4875l-0.0016,0.5639
						c0.0859-0.0022,0.1802,0.0251,0.2874,0.087c0.3626,0.2093,0.685,0.6611,0.6837,1.1149
						c-0.0006,0.2216-0.0719,0.363-0.2137,0.4266c-0.1418,0.0637-0.3156,0.0374-0.5214-0.0814
						c-0.2679-0.1547-0.4819-0.3818-0.642-0.679l0.183-0.1781c0.1093,0.1892,0.29,0.387,0.4815,0.4976
						c0.1789,0.1033,0.3775,0.0917,0.3782-0.1665c0.0008-0.2704-0.204-0.5148-0.4382-0.65
						c-0.1264-0.073-0.2465-0.1054-0.3603-0.0995l-0.1431-0.2602l0.0031-1.1032L20.4127,31.6969z"/>
				</g>
			</g>
		</g>
		<g>
			<g>
				<g enable-background="new    ">
					<g>
						<path fill="#686868" d="M21.2955,43.1108c-0.0005,0.281-0.0999,0.4786-0.2596,0.5719l-0.3776,0.2195
							c0.1597-0.0933,0.2591-0.2909,0.2596-0.5719c0.0016-0.5659-0.3957-1.2542-0.8881-1.5385
							c-0.2475-0.1427-0.472-0.1564-0.6339-0.062l0.3776-0.2195c0.1619-0.0939,0.3864-0.0807,0.6339,0.062
							C20.8998,41.8566,21.2972,42.5454,21.2955,43.1108z"/>
					</g>
					<g>
						<path fill="#4F4D4D" d="M20.0299,41.7918c0.4924,0.2843,0.8898,0.9728,0.8882,1.5385
							c-0.0016,0.5653-0.4017,0.7938-0.8941,0.5095c-0.492-0.2841-0.8898-0.9732-0.8882-1.5385
							C19.1375,41.7355,19.5379,41.5077,20.0299,41.7918z"/>
					</g>
				</g>
			</g>
			<g>
				<g enable-background="new    ">
					<g>
						<path fill="#EE4541" d="M20.6477,43.3199c-0.0004,0.2269-0.0807,0.3865-0.2097,0.4619l-0.4067,0.2364
							c0.129-0.0754,0.2092-0.2349,0.2097-0.4619c0.0013-0.457-0.3196-1.0129-0.7172-1.2424
							c-0.1999-0.1153-0.3812-0.1263-0.512-0.0501l0.4067-0.2364c0.1308-0.0758,0.3121-0.0652,0.512,0.0501
							C20.3281,42.307,20.649,42.8633,20.6477,43.3199z"/>
					</g>
					<g>
						<path fill="#E02426" d="M19.5238,42.3138c0.3976,0.2296,0.7186,0.7856,0.7173,1.2425
							c-0.0013,0.4566-0.3244,0.641-0.722,0.4115c-0.3973-0.2294-0.7186-0.7859-0.7173-1.2425
							C18.8031,42.2684,19.1265,42.0844,19.5238,42.3138z"/>
					</g>
				</g>
			</g>
		</g>
		<g>
			<g>
				<g enable-background="new    ">
					<g>
						<path fill="#686868" d="M18.3061,41.45c-0.0005,0.281-0.0999,0.4786-0.2596,0.5719l-0.3776,0.2195
							c0.1597-0.0933,0.2591-0.2909,0.2596-0.5719c0.0016-0.5659-0.3957-1.2542-0.8881-1.5385
							c-0.2475-0.1427-0.472-0.1564-0.6339-0.062l0.3776-0.2195c0.1619-0.0939,0.3864-0.0807,0.6339,0.062
							C17.9104,40.1958,18.3077,40.8847,18.3061,41.45z"/>
					</g>
					<g>
						<path fill="#4F4D4D" d="M17.0405,40.131c0.4924,0.2843,0.8899,0.9728,0.8882,1.5385
							c-0.0016,0.5653-0.4017,0.7938-0.8941,0.5095c-0.492-0.2841-0.8898-0.9732-0.8882-1.5385
							C16.148,40.0747,16.5485,39.8469,17.0405,40.131z"/>
					</g>
				</g>
			</g>
			<g>
				<g enable-background="new    ">
					<g>
						<path fill="#EE4541" d="M17.7502,41.6887c-0.0005,0.2495-0.0887,0.425-0.2305,0.5079l-0.4472,0.2599
							c0.1418-0.0829,0.2301-0.2583,0.2305-0.5079c0.0015-0.5025-0.3514-1.1137-0.7886-1.3662
							c-0.2198-0.1267-0.4192-0.1389-0.563-0.0551l0.4472-0.2599c0.1438-0.0833,0.3431-0.0717,0.563,0.0551
							C17.3987,40.5749,17.7516,41.1866,17.7502,41.6887z"/>
					</g>
					<g>
						<path fill="#E02426" d="M16.5144,40.5824c0.4372,0.2524,0.7902,0.8638,0.7888,1.3663
							c-0.0014,0.502-0.3567,0.7049-0.794,0.4525c-0.4369-0.2523-0.7902-0.8642-0.7888-1.3663
							C15.7218,40.5324,16.0774,40.3301,16.5144,40.5824z"/>
					</g>
				</g>
			</g>
		</g>
		<g>
			<g>
				<g enable-background="new    ">
					<g>
						<path fill="#686868" d="M7.6515,35.1608c-0.0005,0.281-0.0999,0.4786-0.2596,0.5719l-0.3776,0.2195
							c0.1597-0.0933,0.2591-0.2909,0.2596-0.5719c0.0016-0.5659-0.3957-1.2542-0.8881-1.5385
							c-0.2475-0.1427-0.472-0.1564-0.6339-0.062l0.3776-0.2195c0.1619-0.0939,0.3864-0.0807,0.6339,0.062
							C7.2558,33.9066,7.6532,34.5954,7.6515,35.1608z"/>
					</g>
					<g>
						<path fill="#4F4D4D" d="M6.3859,33.8418c0.4924,0.2843,0.8898,0.9728,0.8882,1.5385
							c-0.0016,0.5653-0.4017,0.7938-0.8941,0.5095c-0.492-0.2841-0.8898-0.9732-0.8882-1.5385
							C5.4934,33.7855,5.8939,33.5577,6.3859,33.8418z"/>
					</g>
				</g>
			</g>
			<g>
				<g enable-background="new    ">
					<g>
						<path fill="#FDE34B" d="M7.0956,35.3994c-0.0005,0.2495-0.0887,0.425-0.2305,0.5079l-0.4472,0.2599
							c0.1418-0.0829,0.2301-0.2583,0.2305-0.5079c0.0015-0.5025-0.3514-1.1137-0.7886-1.3662
							c-0.2198-0.1267-0.4192-0.1389-0.563-0.0551l0.4472-0.2599c0.1438-0.0833,0.3431-0.0717,0.563,0.0551
							C6.7442,34.2857,7.097,34.8974,7.0956,35.3994z"/>
					</g>
					<g>
						<path fill="#F8C814" d="M5.8598,34.2931C6.297,34.5456,6.65,35.157,6.6486,35.6594c-0.0014,0.502-0.3567,0.7049-0.794,0.4525
							c-0.4369-0.2523-0.7902-0.8642-0.7888-1.3663C5.0673,34.2432,5.4229,34.0409,5.8598,34.2931z"/>
					</g>
				</g>
			</g>
		</g>
	</g>
</g>
</svg>
