<?xml version="1.0" encoding="utf-8"?>
<!-- Generator: Adobe Illustrator 18.0.0, SVG Export Plug-In . SVG Version: 6.00 Build 0)  -->
<!DOCTYPE svg PUBLIC "-//W3C//DTD SVG 1.1//EN" "http://www.w3.org/Graphics/SVG/1.1/DTD/svg11.dtd">
<svg version="1.1" id="Layer_1" xmlns="http://www.w3.org/2000/svg" xmlns:xlink="http://www.w3.org/1999/xlink" x="0px" y="0px"
	 viewBox="0 0 50 50" enable-background="new 0 0 50 50" xml:space="preserve">
<g>
	<g>
		<g>
			<g enable-background="new    ">
				<g>
					<path fill="#4F4D4D" d="M45.6453,31.4739L20.3631,46.1632c-1.8881,1.0953-4.7959,0.8311-8.0341-1.0478
						C6.6646,41.849,2.0764,34.9197,2.0858,29.6706c0.0094-2.2468,0.8497-3.8233,2.2658-4.6448L29.6338,10.336
						c-1.4067,0.8118-2.2563,2.398-2.2657,4.6351c-0.0095,5.2588,4.5787,12.1881,10.2432,15.4546
						C40.8494,32.2949,43.7572,32.5687,45.6453,31.4739z"/>
				</g>
				<g>
					<path fill="#686868" d="M12.329,45.1157c3.2382,1.8789,6.1459,2.1426,8.0341,1.0474l10.4346-6.0625
						c-2.4346-3.1509-4.0079-6.7935-4.0023-9.8687c0.0094-2.2368,0.8591-3.8232,2.2657-4.6348L5.7753,39.1269
						C7.5514,41.5288,9.8352,43.6772,12.329,45.1157z"/>
				</g>
				<g>
					<path fill="#D7D7D7" d="M48.5813,27.2159c0.0094-5.6737-4.8808-13.1317-10.9135-16.6158
						c-3.427-1.973-6.4952-2.256-8.5061-1.0856l-0.4397,0.2558c2.0029-0.62,4.692-0.1641,7.6512,1.5396
						c6.1557,3.555,11.1458,11.1657,11.1362,16.955c-0.0059,1.5443-0.3693,2.8009-1.0114,3.7509
						C47.7952,31.0747,48.5728,29.4562,48.5813,27.2159z"/>
					<path fill="#E7E7E7" d="M36.3733,11.31c-2.9592-1.7038-5.6482-2.1597-7.6512-1.5396L3.8795,24.2136
						c2.0109-1.1704,5.0791-0.8966,8.5061,1.0861c6.0326,3.4836,10.9229,10.9324,10.904,16.6153
						c0,2.4455-0.9252,4.1732-2.4546,5.0606L46.1173,32.276c0.1337-0.0774,0.2565-0.1696,0.3808-0.26
						c0.6421-0.9501,1.0054-2.2067,1.0114-3.7509C47.5191,22.4757,42.529,14.865,36.3733,11.31z"/>
					<path fill="#D7D7D7" d="M24.3093,41.4526c0,1.8692-0.5287,3.3421-1.4539,4.3428l-2.0203,1.1801
						c1.5294-0.8874,2.4546-2.6151,2.4546-5.0606c0.0189-5.6829-4.8714-13.1317-10.904-16.6153
						c-3.427-1.9826-6.4952-2.2565-8.5061-1.0861l2.9927-1.7369c1.7749-0.0756,3.9085,0.5098,6.1837,1.8314
						C19.2868,27.8958,24.3281,35.5899,24.3093,41.4526z"/>
				</g>
				<g>
					<path fill="#929393" d="M12.3819,25.2961c6.0336,3.4835,10.927,10.9359,10.9109,16.6153
						c-0.0161,5.6726-4.9356,7.4595-10.9692,3.976c-6.0276-3.48-10.9209-10.9325-10.9049-16.605
						C1.4348,23.603,6.3543,21.8161,12.3819,25.2961z M12.3257,45.1186c5.6599,3.2678,10.2831,1.6567,10.298-3.5935
						c0.0149-5.257-4.5841-12.1857-10.244-15.4534s-10.277-1.66-10.292,3.597C2.0729,34.9189,6.6658,41.8508,12.3257,45.1186"/>
				</g>
			</g>
		</g>
		<g>
			<g>
				<g enable-background="new    ">
					<line fill="#D7D7D7" x1="46.0211" y1="13.076" x2="46.0098" y2="16.7796"/>
					<g>
						<path fill="#E7E7E7" d="M45.113,11.8011c1.2112,0.6993,1.2103,1.8342,0.007,2.5334L25.0161,26.0176
							c-1.2033,0.6993-3.1551,0.6992-4.3663-0.0001L5.1577,17.0732c-1.2112-0.6993-1.225-1.834-0.0217-2.5333L25.2399,2.8568
							c1.2033-0.6993,3.1698-0.6993,4.381,0L45.113,11.8011z"/>
					</g>
				</g>
			</g>
			<g>
				<g>
					<path fill="#A2DDF4" d="M39.8409,11.7465c0.2684,0.1549,0.27,0.4145,0.0034,0.5694l-14.4619,8.4043
						c-0.2666,0.1549-0.7147,0.1549-0.983-0.0001l-10.9373-6.3147c-0.2756-0.1591-0.27-0.4145-0.0034-0.5694l14.4619-8.4043
						c0.2666-0.1549,0.7074-0.159,0.983,0.0001L39.8409,11.7465z"/>
				</g>
				<g>
					<path fill="#4F4D4D" d="M40.6407,11.2817c0.718,0.4146,0.722,1.0844,0.0086,1.4991l-14.4618,8.4043
						c-0.7135,0.4146-1.87,0.4145-2.588-0.0001l-10.9372-6.3146c-0.718-0.4146-0.722-1.0844-0.0086-1.4991L27.1154,4.967
						c0.7135-0.4146,1.87-0.4145,2.588,0.0001L40.6407,11.2817z M25.3824,20.7203l14.4618-8.4043
						c0.2666-0.155,0.265-0.4145-0.0034-0.5695L28.9036,5.4319c-0.2756-0.1591-0.7165-0.1551-0.9831-0.0001l-14.4618,8.4043
						c-0.2666,0.155-0.2723,0.4103,0.0034,0.5695l10.9372,6.3146C24.6677,20.8751,25.1158,20.8752,25.3824,20.7203"/>
				</g>
			</g>
			<g>
				<path fill="#D7D7D7" d="M20.6546,26.015L5.1599,17.0747c-0.6135-0.3522-0.9201-0.8176-0.9201-1.2835l-0.0114,3.703
					c0,0.4659,0.3067,0.9319,0.9201,1.2835l15.4948,8.9403c0.6178,0.3617,1.4328,0.5342,2.2428,0.5247l0.0114-3.703
					C22.0875,26.5492,21.2726,26.3767,20.6546,26.015z"/>
				<path fill="#BFBFBF" d="M45.1237,14.3368L25.0168,26.015c-0.5863,0.3428-1.3506,0.5159-2.1193,0.5247l-0.0114,3.703
					c0.7687-0.0089,1.533-0.1819,2.1193-0.5247l20.1069-11.6776c0.6021-0.3522,0.8974-0.8065,0.8974-1.2608l0.0114-3.7036
					C46.0211,13.5303,45.7145,13.9852,45.1237,14.3368z"/>
			</g>
		</g>
		<g>
			<g>
				<g enable-background="new    ">
					<g>
						<path fill="#EE4541" d="M13.8577,16.036c0.6836,0.3947,0.6873,1.0313,0.0136,1.4227c-0.6793,0.3948-1.7783,0.3947-2.4619,0
							l-1.7476-1.009c-0.6781-0.3915-0.6817-1.0281-0.0024-1.4228c0.6737-0.3915,1.7726-0.3915,2.4507,0L13.8577,16.036z"/>
					</g>
				</g>
				<g enable-background="new    ">
					<g>
						<path fill="#E02426" d="M14.3711,18.1601c0,0.2593-0.1727,0.5097-0.5008,0.7083c-0.6822,0.3972-1.7788,0.3972-2.461,0
							l-1.7528-1.0102c-0.3368-0.199-0.5095-0.4579-0.5095-0.7168l0.0086-1.3905c0,0.2504,0.1727,0.5097,0.5094,0.6995
							l1.7443,1.0106c0.6821,0.3883,1.7788,0.3883,2.461,0c0.3367-0.199,0.5008-0.4495,0.5008-0.7083V18.1601z"/>
					</g>
				</g>
			</g>
			<g>
				<path fill="#4F4D4D" d="M22.6237,21.5822l-0.0086,1.4074c0,0.2504-0.1641,0.5097-0.5008,0.6995
					c-0.6822,0.3972-1.7788,0.3972-2.461,0.0089l-1.7442-1.0102c-0.3454-0.199-0.5181-0.4579-0.5181-0.7168l0.0086-1.4074
					c0,0.2589,0.1727,0.5178,0.5181,0.7163l1.7443,1.0106c0.6735,0.3883,1.7788,0.3883,2.4523-0.0089
					C22.451,22.0916,22.6237,21.8327,22.6237,21.5822z"/>
				<g>
					<path fill="#686868" d="M22.1095,20.864c0.6781,0.3915,0.6817,1.0281,0.0081,1.4196
						c-0.6793,0.3948-1.7783,0.3947-2.4564,0.0032l-1.7476-1.009c-0.6836-0.3947-0.6873-1.0313-0.008-1.426
						c0.6737-0.3915,1.7726-0.3915,2.4563,0.0032L22.1095,20.864z"/>
				</g>
			</g>
		</g>
	</g>
	<g>
		<g>
			<polygon fill="#4F4D4D" points="26.1906,9.5991 22.5163,11.7344 21.925,11.393 25.0475,9.5784 24.2935,9.1431 24.8454,8.8224 			
				"/>
		</g>
		<g enable-background="new    ">
			<g>
				<path fill="#4F4D4D" d="M28.8785,11.3839c0.0749,0.5038-0.6316,0.8095-1.1381,0.8959
					c-0.6466,0.0991-1.7715,0.0604-2.9542,0.0756l1.6786,0.9692l-0.5953,0.3459l-2.5279-1.4595l0.5243-0.3047
					c1.563-0.0092,2.6975,0.0196,3.3699-0.0413c0.32-0.0266,0.8323-0.1591,0.8003-0.4789c-0.0287-0.4097-0.8461-0.5857-1.4902-0.504
					l-0.2161-0.4583c0.4072-0.0481,0.7669-0.0503,1.0837-0.0092C27.9601,10.489,28.7867,10.8296,28.8785,11.3839z"/>
			</g>
			<g>
				<path fill="#4F4D4D" d="M31.3415,14.674c-1.0629,0.6177-2.3424,0.8535-3.4121,0.2359
					c-1.0743-0.6203-0.6748-1.3549,0.3961-1.9772c1.073-0.6235,2.3392-0.8556,3.4123-0.236
					C32.8054,13.3131,32.4077,14.0544,31.3415,14.674z M29.5147,14.7748c0.3953-0.0642,0.7978-0.2154,1.2117-0.4559
					c0.6927-0.4026,1.1768-0.9102,0.4793-1.3129c-0.6964-0.402-1.5817-0.129-2.2769,0.275
					c-0.6931,0.4028-1.1645,0.9171-0.4672,1.3197C28.771,14.7794,29.1234,14.8366,29.5147,14.7748"/>
			</g>
		</g>
	</g>
</g>
</svg>
