<?xml version="1.0" encoding="utf-8"?>
<!-- Generator: Adobe Illustrator 18.0.0, SVG Export Plug-In . SVG Version: 6.00 Build 0)  -->
<!DOCTYPE svg PUBLIC "-//W3C//DTD SVG 1.1//EN" "http://www.w3.org/Graphics/SVG/1.1/DTD/svg11.dtd">
<svg version="1.1" id="Layer_1" xmlns="http://www.w3.org/2000/svg" xmlns:xlink="http://www.w3.org/1999/xlink" x="0px" y="0px"
	 viewBox="0 0 50 50" enable-background="new 0 0 50 50" xml:space="preserve">
<g>
	<g>
		<g>
			<path fill="#4F4D4D" d="M47.8207,25.3542c0,0.1664,0,0.3329-0.0096,0.4993c0,0.0441,0,0.0792-0.0096,0.1228
				C47.4459,37.3323,37.2405,49,24.7,49C12.1306,49,1.906,37.2887,1.5985,25.8976c-0.0096-0.0702-0.0192-0.1403-0.0096-0.2105
				c-0.0096-0.1138-0.0096-0.2191-0.0096-0.3329c0-11.3001,25.4234-16.0063,39.4283-8.6396
				c4.2571,2.2432,6.5249,5.1436,6.7939,8.0876c0.0096,0.0702,0.0192,0.1313,0.0096,0.2015
				C47.8207,25.1176,47.8207,25.2404,47.8207,25.3542z"/>
			<g>
				<path fill="#686868" d="M47.8128,24.9992c0.0103-0.0619,0-0.1237-0.0103-0.1962c-0.2678-2.9461-2.5342-5.8409-6.799-8.0863
					c-14.501-7.638-40.4179-2.099-39.4136,8.9726c-0.0103,0.0719,0,0.1338,0.0102,0.2057c0.2678,2.9466,2.5445,5.8514,6.8094,8.0974
					c9.0447,4.7695,23.7037,4.7695,32.6867,0c4.203-2.2253,6.4488-5.11,6.7063-8.0149c0.0103-0.0412,0.0103-0.0825,0.0103-0.1232
					c0.0103-0.165,0.0103-0.33,0.0103-0.505C47.823,25.2361,47.823,25.1224,47.8128,24.9992z M46.7846,25.7919
					c0,0.005-0.008,0.0946-0.008,0.0946c-0.2354,2.6609-2.4245,5.2162-6.1618,7.1955c-4.2001,2.2298-9.8247,3.4571-15.8386,3.4571
					c-6.0149,0-11.6566-1.2278-15.8859-3.4577c-3.7947-1.9984-6.0189-4.5834-6.2644-7.28c-0.003-0.0211-0.005-0.0347-0.006-0.0417
					c0.063-0.1603-0.8821-4.4187,6.1457-8.1215c4.2132-2.2364,9.8478-3.4672,15.8688-3.4672c6.0139,0,11.6556,1.2278,15.8889,3.4571
					c3.7876,1.9939,6.0089,4.5753,6.2533,7.2684c0.002,0.0131,0.003,0.0231,0.004,0.0302l-0.005,0.0312l0.0101,0.1247
					c0.008,0.0941,0.007,0.1806,0.007,0.2666C46.7926,25.5027,46.7936,25.6471,46.7846,25.7919z"/>
			</g>
		</g>
		<path fill="#3D3D3D" d="M46.7964,25.3493c0,0.1544,0,0.2988-0.0103,0.4426l-0.0103,0.0931
			c-0.2369,2.6579-2.4209,5.2227-6.1603,7.2005c-1.0714,0.5669-2.2355,1.0613-3.4717,1.504
			c-0.6078-0.5563-1.3495-1.0714-2.2354-1.5347c-6.6346-3.4785-17.7704-2.8079-22.653,1.4834
			c-1.1949-0.4225-2.3282-0.9064-3.3686-1.4527c-8.3756-4.4153-8.7672-11.5685,1.195-16.1012
			c0.5151-0.2264,1.0507-0.4426,1.5967-0.6489c3.7498-1.4114,8.2309-2.1634,12.9593-2.1634c5.3602,0,11.1723,0.984,15.8849,3.4511
			c3.791,1.9984,6.0058,4.5844,6.253,7.2729v0.0619l0.0103,0.1237C46.7964,25.1742,46.7964,25.2668,46.7964,25.3493z"/>
	</g>
	<g>
		<path fill="#E02426" d="M16.0878,18.3754c0.3023,0.3739,0.6021,0.8141,0.8968,1.3173c1.5939,2.7456,3.1277,7.8583,1.2683,9.8586
			c-1.8652,1.9997-2.3599,0.9286-2.3599,0.9286c-0.0879,0.1-0.933,4.2248-5.1952,2.2726c-4.2749-1.9555-3.3522-2.8695-5.9618-4.6218
			c-2.6129-1.7498-2.9038-4.567-0.3915-6.6736c0.0031-0.0026,0.0031-0.0026,0.0062-0.0053c0,0-0.0231-0.0712-0.0479-0.1945
			c-0.596-3.13,3.1447-5.7331,6.1471-3.8372c0,0,0.502-1.2135,1.844-1.1953C13.3875,16.2401,14.7599,16.7088,16.0878,18.3754z"/>
		<path fill="#CF2027" d="M16.0878,18.3754c0.3023,0.3739,0.6021,0.8141,0.8968,1.3173c1.5939,2.7456,3.1277,7.8583,1.2683,9.8586
			c-1.8652,1.9997-2.3599,0.9286-2.3599,0.9286s-0.201,0.9199-0.8504,1.7028c0.688-1.4127,0.6333-2.7593-2.5923-8.6243
			c1.4012,1.6899,2.9634,3.2485,4.6511,4.6466c0.4195-1.5554,0.3991-3.2067,0.1576-4.8036
			c-0.2358-1.5964-0.6886-3.1524-1.1186-4.7067C16.1105,18.5969,16.0879,18.4824,16.0878,18.3754z"/>
		<path fill="#CF2027" d="M9.7923,19.6006c-0.2217,0.7448-0.2486,1.5488-0.0724,2.3025c-1.5348-0.0659-2.6492,0.7725-2.9393,1.8125
			c-0.0271-1.2671-1.0944-2.3219-2.4362-2.2585c0.0031-0.0026,0.0031-0.0026,0.0062-0.0053c0,0-0.0231-0.0712-0.0479-0.1945
			C6.9846,21.5747,8.0959,20.0152,9.7923,19.6006z"/>
		<path fill="#EE4541" d="M3.4583,25.2346c-0.2623-0.8505,0.053-1.7601,0.3648-2.5937c0.3421,1.997,1.401,3.8636,2.9396,5.1819
			c1.3492,1.156,3.0201,1.8794,4.4022,2.9958c0.3329,0.2689,0.6774,0.8756-0.032,0.8731
			C10.167,31.6882,4.0719,27.2244,3.4583,25.2346z"/>
		<path fill="#73AE43" d="M6.9952,22.9573c0.8835-0.5877,1.9393-0.9131,3.0004-0.9247c-0.6185-0.5661-0.1987-1.8424-1.0144-2.2129
			c-0.2597,0.7488-1.6432,0.6264-1.7374-0.7855c-0.0507-0.7593,0.6272-2.7039-0.2259-3.0634
			c-0.127-0.0535-0.2704-0.0438-0.4075-0.0582c-0.63-0.0661-1.3287-0.7303-1.8992-0.2724
			c-0.1814,0.1456-0.2645,0.3876-0.2669,0.6202c-0.0024,0.2326,0.066,0.4597,0.1411,0.6799
			c1.1986,3.5136,3.4867,4.3854,2.3848,4.5607c-0.3461,0.055-1.0737-0.1039-0.5248,0.385
			C6.5498,21.9789,7.2079,22.8158,6.9952,22.9573z"/>
		<path fill="#80BC41" d="M7.2459,22.0854c0.4441-0.0303,0.822-0.5685,1.651-0.2624c0.6815-2.8176-1.3772,0.674-2.1666-3.3774
			C6.6913,18.2448,6.63,18.019,6.4481,17.9253c-0.5118-0.2635-1.4828,0.8165,0.2179,2.202c1.8744,1.527,0.6232,2.1381-0.1302,1.6727
			C6.766,21.928,6.9611,22.1049,7.2459,22.0854z"/>
	</g>
	<g>
		<path fill="#A9C838" d="M47.8163,18.8173c-0.2976-0.5155-0.7094-0.9473-1.2402-1.245c-1.2997-0.7191-2.8972-0.4365-4.3457-0.1387
			c-10.0584,2.0639-9.8502,3.6724-14.0045,6.0966c-1.141,0.6698-2.3763,1.1858-3.4379,1.9745
			c-3.082,2.2793-1.7654,4.4002-1.9446,5.9283c-0.0794,0.65-0.372,1.2549-0.5258,1.895c-0.2927,1.2356,0.2232,2.039,1.4139,2.3616
			c0.0247,0.0047,0.0496,0.0145,0.0744,0.0197c0.4068,0.119,0.6648,0.2281,0.8632,0.3767c0.2851,0.2104,0.4467,0.503,0.7294,0.9831
			h5.6571c0.0489-0.0416,0.1-0.0826,0.1469-0.1247c1.2105-1.0865,2.3217-2.4505,3.9042-2.808
			c0.7143-0.1585,1.4783-0.0941,2.153-0.372c1.4386-0.5851,1.9942-2.465,3.4131-3.0901c1.0119-0.4515,2.2423-0.1491,3.2543-0.6002
			c1.0071-0.4417,1.5627-1.4934,2.0736-2.4806c0.0297-0.0696,0.0645-0.1341,0.0992-0.1985c0.8384-1.6274,1.8702-3.205,2.2274-4.9955
			C48.5704,21.2039,48.4215,19.8493,47.8163,18.8173z"/>
		<path fill="#80BC41" d="M44.2445,17.8751c-0.0198,0.9425-0.9773,1.5578-1.8157,1.9894c-1.3593,0.7044-2.7136,1.404-4.0679,2.1033
			c-3.9708,2.0573-6.0336,3.2736-9.5596,7.6496c-1.6123,1.9943-3.0906,4.1324-4.1324,6.469
			c-0.1984-0.1487-0.4564-0.258-0.8632-0.3769C26.0166,26.2998,34.7679,21.8291,44.2445,17.8751z"/>
		<path fill="#80BC41" d="M35.2451,33.3558c-0.3977-0.0255-7.1248-0.4921-7.5251-0.449c0.3226,0.8595,2.3267,0.4845,3.022,0.4798
			C32.243,33.3763,33.744,33.366,35.2451,33.3558z"/>
		<path fill="#80BC41" d="M29.1805,31.6687c1.6028,0.3155,3.3826,0.0709,5.0084,0.0581c0.6915-0.0055,1.2397-0.2477,1.9028-0.4108
			c0.6257-0.1539,1.4496-0.1415,2.0141-0.3649c-0.3271-1.0824-1.3582,0.1537-4.2654,0.1918
			C28.7635,31.2094,30.8786,31.246,29.1805,31.6687z"/>
		<path fill="#80BC41" d="M48.3273,22.3994c-0.3572,1.7908-1.389,3.3684-2.2274,4.9955c-0.0347,0.0644-0.0695,0.1291-0.0992,0.1986
			c-0.0496,0.0196-0.1092,0.0395-0.1637,0.0593c-0.9922,0.3224-2.0935,0.2679-3.0906,0.5704
			c-3.6224,1.1165-1.7686,1.8702-8.1457,1.8702c3.8192-2.4542,2.7668,0.1001,7.6893-4.1424
			c0.9475-0.8185,2.0985-1.5873,2.8327-2.6044c0.7987-1.1012,1.3097-2.3661,2.0339-3.5072c0.2183-0.3423,0.4366-0.6845,0.6598-1.022
			C48.4215,19.8495,48.5704,21.2038,48.3273,22.3994z"/>
	</g>
	<g>
		<path fill="#589441" d="M32.8829,16.7504c0.7604-0.4642,1.8008-0.4666,2.3891-1.1355c0.6709-0.7628,0.4124-2.0118,0.9945-2.8444
			c-1.2531-0.1073-1.241,1.8998-2.2726,2.32c-0.0505-0.8631,0.8348-1.6774,0.6986-3.5724c-1.445,0.4878-1.0373,2.523-1.9923,3.5306
			c-0.37-0.4104,0.0834-1.1446,0.7321-2.6957c-2.3334,2.0444-2.2329,3.766-3.0516,4.7034
			c-0.6425,0.7356-1.5753,0.7626-2.5427,0.8962c0.0495-0.0068,0.6817,1.1969,0.7896,1.3068
			C31.3594,22.0403,30.8907,17.9666,32.8829,16.7504z"/>
		<path fill="#73AE43" d="M35.2427,15.946c1.1219,1.0471,2.4307,0.6815,2.4233-0.0548c-0.0039-0.3911-0.4124-0.7187-0.3397-1.103
			c0.1336-0.7064,1.672-0.6435,1.1969-1.5214c-0.2487-0.4596-0.8549-0.5554-1.3758-0.5983
			c0.5847-0.4319,1.1694-0.8638,1.7541-1.2957c-0.4728-0.1433-0.9456-0.2865-1.4183-0.4298
			c0.0564-0.4017,0.4343-0.6637,0.7586-0.9074s0.6567-0.6034,0.5655-0.9987c-0.1-0.434-0.6323-0.5991-0.9034-0.9525
			c-0.3305-0.4307-0.215-1.0392-0.2906-1.5767c-0.2432-1.7299-4.043-4.2825-5.4223-4.9041
			c-1.3139-0.5922-2.8488-0.8313-4.2023-0.3363c0.0374,0.365,0.2903,0.6789,0.5934,0.8856c0.3032,0.2067,0.6562,0.3246,1,0.4527
			c1.4152,0.5273,2.7509,1.2675,3.9482,2.1881c-0.9491-0.0277-1.8981-0.0554-2.8472-0.0831
			c0.3374,0.7054,1.0349,1.2266,1.807,1.3503c-1.0604,0.1263-2.1099,0.3447-3.1327,0.652c0.7714,0.2595,1.5427,0.5189,2.3141,0.7784
			c-2.2862,2.3246-4.7018,1.043-5.1169,2.4058c-0.2676,0.8783,1.0589,1.9135,2.6156,1.7275c0.3708-0.0443,0.8013-0.14,1.0748,0.1142
			c0.4145,0.3853,0.029,1.1392,0.3273,1.62c0.1819,0.2931,0.5786,0.3911,0.9166,0.3226c0.3802-0.0771,0.6496-0.4082,1.0048-0.4859
			C33.7059,12.9303,34.2176,14.9892,35.2427,15.946z"/>
		<g>
			<g>
				<path fill="#EE4541" d="M13.423,35.3543l-0.098,0.3965c0.397-0.157,0.718-0.4494,1.0566-0.7263
					c0.3828-0.305,1.3386-0.3084,1.3863-0.6617c-0.0054-0.0286-0.0231-0.04-0.0425-0.0658
					c0.1906,0.0523,0.3993-0.1872,0.6183-0.2565l0.2146-0.0428c0.1805-0.0653,0.3296-0.214,0.3674-0.3998
					c0.4632,0.0102,2.2911-1.0419,2.4208-1.5215c0.2639-0.019,0.6165-0.0517,0.7757-0.2878
					c0.0487-0.0543,0.095-0.1229,0.0804-0.1945c0.3446-0.0679,0.8467-0.1842,0.731-0.5168
					c0.7289,0.1516,1.4463-0.6216,1.1116-0.8451c0.1853,0.0506,0.4862-0.1169,0.3891-0.2856
					c0.1784,0.1194,1.1261-0.1928,1.1061-0.6506c0.208-0.0416,0.5596-0.2014,0.5535-0.4369
					c-0.0091-0.0432-0.0146-0.0718,0.0055-0.1204c0.4317,0.1651,1.2325-0.459,1.1518-0.8679
					c0.2946,0.0707,0.6517-0.2338,1.0598-0.5078c0.1547-0.1008,0.2476-0.1491,0.2641-0.4688
					c0.2426,0.1326,0.3823-0.173,0.4524-0.3428c0.1721-0.034,0.3326-0.1253,0.4955-0.2022c0.0255-0.0201,0.0517-0.04,0.0772-0.06
					c0.0378-0.0373,0.0549-0.1002,0.075-0.1489c0.0054-0.0456,0.0425-0.0827,0.0633-0.1315
					c0.3619-0.0409,1.1523-0.6802,1.0029-0.9427c0.0139-0.0028,0.0286-0.0057,0.0401-0.0226l0.0147-0.003
					c0.8958-0.284,1.2349-0.8957,1.3726-1.0308c0.6-0.3918,0.3686-0.3712,0.6595-0.8748c0.3178-0.603,1.8184-1.2385-0.244-2.9567
					c-0.1015-0.0883-1.2733-1.1041-1.569-1.3849c-0.6542-0.5992-1.3091-1.1983-1.9516-1.8148
					c-0.2777-0.2722-0.7377-0.1956-1.0789-0.0388c-1.1485,0.4664-4.0474,4.4112-4.9168,5.4379
					c-0.197-0.0415-0.29,0.1809-0.3274,0.3774l-0.0116,0.0171c0.0741,0.3493-0.6461,0.8576-0.8942,1.1147
					c-0.3011,0.3572-0.4333,0.8149-0.54,1.2526c-0.1004,0.0943-0.2578,0.0512-0.3643,0.1167c-0.1724,0.0648-0.657,0.8214-0.635,1.45
					c-0.0309,0.0062-0.0564,0.0089-0.0795,0.0456c-0.1015,0.0783-0.2775,0.7263-0.3083,0.8494
					c-0.8178-0.053-0.9985,1.5771-1.3909,2.0612c-0.1537,0.1947-0.2818,0.188-0.4046,0.4372l-0.0108,0.0171
					c-0.4321,0.3288-0.516,1.7273-1.0597,2.0101c0.0031,0.0143-0.0062,0.0457-0.017,0.063
					c-0.0042,0.4044-0.3622,0.8394-0.4944,1.0352c-0.2866,0.2181,0.2283,0.9127-0.8274,1.9047
					C13.6052,35.2053,13.5195,35.2787,13.423,35.3543z"/>
				<g>
					<path fill="#CF2027" d="M25.0124,18.2213c1.252,1.132,3.2858,3.5214,4.2404,5.0317c-0.8186-0.7362-1.5356-1.5716-2.2596-2.3985
						C26.3015,20.0004,25.6001,19.1518,25.0124,18.2213z"/>
					<path fill="#CF2027" d="M28.8033,25.0567c-0.8686-0.4348-1.9265-1.5507-2.3102-2.4558
						C27.1277,23.0772,28.3725,24.4051,28.8033,25.0567z"/>
					<path fill="#CF2027" d="M27.7483,25.9641c-1.3874-0.3209-2.405-1.9189-3.5319-3.1293
						C25.4964,23.4415,26.3029,24.9667,27.7483,25.9641z"/>
					<path fill="#CF2027" d="M26.9767,26.5495c-0.8517-0.2678-2.2726-1.1485-2.9132-1.8405
						C24.941,24.9887,26.3247,25.8555,26.9767,26.5495z"/>
					<path fill="#CF2027" d="M21.0626,22.3935c0.9349,0.673,2.3594,2.196,2.98,3.2214
						C23.0686,24.9228,21.6375,23.3494,21.0626,22.3935z"/>
					<path fill="#CF2027" d="M24.927,27.7265c-1.2699-0.3874-3.6312-0.7643-3.8256-2.4599
						C21.8283,26.7362,23.8553,26.8742,24.927,27.7265z"/>
					<path fill="#CF2027" d="M24.1157,28.7162c-1.6868-0.0226-3.404-0.4582-4.8248-1.3993
						C19.3914,27.3442,23.9808,28.6649,24.1157,28.7162z"/>
					<path fill="#CF2027" d="M18.3071,26.7022c0.3876,1.068,1.3841,1.7377,2.6927,3.0183
						C19.9121,29.3324,18.2184,27.9636,18.3071,26.7022z"/>
					<path fill="#CF2027" d="M21.9861,30.3404c-1.9023,0.4482-4.2274-0.36-4.8227-1.1395
						C18.1344,29.8619,21.242,30.2487,21.9861,30.3404z"/>
					<path fill="#CF2027" d="M20.8822,31.052c-1.1401,0.2032-2.817-0.1429-3.7859-0.7942
						C17.6691,30.3336,20.3686,30.9043,20.8822,31.052z"/>
					<path fill="#CF2027" d="M20.2198,31.5253c-1.358,0.0981-3.1521-0.5294-4.1392-1.4296c0.7072,0.2436,1.3644,0.5358,2.0561,0.753
						C18.8152,31.1051,19.5127,31.2817,20.2198,31.5253z"/>
					<path fill="#CF2027" d="M19.3108,32.1906c-0.8228,0.2371-2.1395,0.0578-2.8668-0.3938
						C17.1205,31.7617,18.6848,31.9816,19.3108,32.1906z"/>
					<path fill="#CF2027" d="M17.0232,33.5636c-0.8156-0.0615-1.5707-0.4919-2.0389-1.128
						c0.0145-0.0773,0.0401-0.1717,0.0405-0.2461C15.6989,32.6658,16.3197,33.0932,17.0232,33.5636z"/>
					<path fill="#CF2027" d="M15.708,34.3599c-0.4981,0.0152-0.9608-0.3208-1.2952-0.7548c0.0072-0.087,0.0488-0.3269,0.1178-0.3804
						C15.0246,33.8052,15.2052,33.9495,15.708,34.3599z"/>
				</g>
			</g>
			<g>
				<path fill="#80BC41" d="M34.4983,6.4937c0.3214-0.0503,0.633-0.1617,0.9135-0.3265c-0.2339,0.2999-0.4171,0.6393-0.5392,0.9995
					c0.2417,0.0472,0.4953,0.0326,0.73-0.0421c-0.0615,0.193-0.1567,0.3751-0.2799,0.5358c0.3404,0.11,0.7033,0.1501,1.0595,0.1171
					c-0.1953,0.2075-0.3906,0.415-0.5859,0.6225c0.3027-0.1463,0.5964-0.3112,0.8789-0.4934
					c-0.224,0.2876-0.4479,0.5751-0.6719,0.8627c0.3482,0.1068,0.7116,0.1642,1.0758,0.1699
					c-0.1558,0.3326-0.364,0.6406-0.6146,0.9092c0.1835,0.033,0.367,0.0661,0.5505,0.0991
					c-0.1344,0.3136-0.3363,0.5982-0.5878,0.8287c0.1812-0.0178,0.3624-0.0356,0.5436-0.0533
					c-0.2258,0.2633-0.4515,0.5266-0.6773,0.7899c0.1882,0.0407,0.3763,0.0814,0.5645,0.1221
					c-0.499,0.8142-0.5737,0.8973-0.5586,1.051c0.0113,0.1154,0.1376,0.2233,0.2409,0.1708c-0.22,0.474-0.44,0.9481-0.66,1.4221
					c0.1203,0.0279,0.2405,0.0558,0.3608,0.0837c-0.2637,0.365-0.5274,0.73-0.7911,1.095c0.0594-0.0138,0.113-0.0514,0.1463-0.1025
					c-0.5722-0.2291-0.9044-0.1619-0.2739-1.0784c-0.1436,0.0042-0.2866,0.0325-0.4209,0.0835
					c0.0889-0.1586,0.1779-0.3172,0.2668-0.4757c-0.4549-0.0284-0.8836,0.1095-0.2118-0.8821
					c-0.4307,0.3623-0.9426-0.5196-0.2622-0.7611c-0.2372-0.2828-1.2216-0.2423-0.4707-1.4053
					c-0.1931-0.0166-0.3832-0.0684-0.558-0.1522c0.228-0.2659,0.4376-0.5475,0.6267-0.8424
					c-0.1667,0.0429-0.3396,0.0613-0.5116,0.0544c-0.0724-0.0029-0.161-0.0231-0.1797-0.0932
					c-0.014-0.0523,0.0202-0.1041,0.0525-0.1475c0.1272-0.1707,0.2545-0.3413,0.3817-0.512
					c-0.255-0.3776-0.826,0.0659,0.0392-1.1459c-0.1931,0.1065-0.5684-0.0619-0.3578-0.5021
					c0.1173-0.2451,0.2346-0.4903,0.3519-0.7354c-0.2425,0.046-0.498,0.0216-0.7275-0.0695
					c0.9352-1.2113,0.9257-1.5312,2.0035-1.7062C35.1589,5.5086,34.7987,6.0264,34.4983,6.4937z"/>
				<path fill="none" d="M34.7667,15.8495c0.6795,0.4749,1.4667,0.7947,2.2849,0.928c-0.0975-0.1441-0.1949-0.2882-0.2924-0.4323
					c0.1562-0.0148,0.3094-0.0599,0.4486-0.1323c-0.5278-0.5142-0.5277-0.3887-0.1193-0.6581
					c-0.0734-0.111-0.1779-0.2011-0.2985-0.2575c0.1758-0.1157,0.3515-0.2313,0.5273-0.347
					c-0.0747-0.1541-0.1495-0.3081-0.2242-0.4622c0.215-0.131,0.4291-0.3332,0.273-0.5313
					c-0.0425-0.0539-0.1142-0.0894-0.1297-0.1564c-0.0146-0.0634,0.0321-0.128,0.0908-0.1559
					c0.0587-0.028,0.1263-0.0281,0.1914-0.0276c0.3784,0.0026,1.1832,0.0701,0.9385-0.2212
					c-0.0579,0.0065-0.1158,0.013-0.1736,0.0195c0.151-0.3496,0.3945-0.6745,0.7368-0.8414
					c-0.2885,0.0191-0.5784,0.0165-0.8665-0.0079c0.0445-0.1608,0.1502-0.3039,0.2907-0.3938
					c-0.1723,0.0516-0.3528,0.0755-0.5325,0.0705c0.1328-0.4078,0.568-0.6196,0.8735-0.9206
					c0.0512-0.0504,0.1029-0.1183,0.0828-0.1872c-0.0312-0.1071-0.1858-0.0985-0.2907-0.0606
					c-0.3281,0.1183-0.6342,0.2973-0.8983,0.5251c-0.1237-0.2551,0.2342-0.4622,1.1712-1.2295
					c-0.1217,0.0338-0.2433,0.0677-0.365,0.1015c0.088-0.2365,0.176-0.4731,0.2641-0.7096
					c-0.1811,0.0599-0.3622,0.1198-0.5434,0.1797c0.1641-0.3516,0.3825-0.6777,0.6451-0.9634
					c-0.3665,0.1618-0.718,0.3575-1.0486,0.5837"/>
				<path fill="#80BC41" d="M31.5138,8.9132c-0.4436-0.1034-0.8873-0.2069-1.3309-0.3103c0.1287,0.1259,0.2573,0.2519,0.386,0.3778
					c-0.2498,0.0598-0.5069,0.0888-0.7637,0.0862c0.0942,0.1635,0.2064,0.3165,0.3339,0.4556
					c-0.2003,0.1546-0.4845,0.0767-0.735,0.0413c-0.5892-0.0833-1.21,0.1125-1.7749-0.0743
					c0.1284,0.0731,0.2568,0.1461,0.3852,0.2192c-0.3418,0.1171-0.7069,0.166-1.0675,0.143
					c0.6792-0.0287,1.3662,0.1786,1.9163,0.5781c-0.1661,0.0603-0.3323,0.1207-0.4984,0.181
					c0.4466-0.0324,0.8953-0.0358,1.3424-0.0102c-0.1392,0.1358-0.2783,0.2716-0.4175,0.4074
					c1.214,0.7178,1.0863,0.5432,0.4828,1.1572c0.3444-0.027,0.6889-0.054,1.0333-0.081c-0.067,0.1062-0.175,0.1859-0.2962,0.2185
					c0.2091-0.1482,0.4032-0.3177,0.5782-0.505c-0.234,0.0459-0.4681,0.0919-0.7021,0.1378
					c0.4518-0.3639,0.9367-0.6868,1.4466-0.9634c-0.1897,0.0595-0.3794,0.119-0.5691,0.1785
					c0.2527-0.1888,0.5053-0.3775,0.758-0.5663c-0.2337-0.0006-0.4673-0.0012-0.701-0.0018
					c0.2303-0.2511,0.4605-0.5022,0.6908-0.7533c-0.1821,0.0086-0.3642,0.0172-0.5463,0.0259
					c0.2093-0.2624,0.4347-0.512,0.6745-0.7468c-0.0101-0.0507-0.2615-0.0877-0.3028-0.0946
					c0.0491-0.1274,0.126-0.2463,0.1741-0.3741c-0.3466-0.1492-0.3869-0.359-0.8085-0.261
					C31.2271,8.576,31.3713,8.777,31.5138,8.9132z"/>
			</g>
		</g>
	</g>
	<g>
		<g>
			<path fill="#F2961F" d="M15.3587,35.3679c2.5936,2.5112,7.2597,1.9442,8.8528-1.6394c0,0,1.2234-2.8911-1.0406-5.3497
				c-2.2106-2.3963-6.0552-2.1201-8.0553,0.7267C13.1264,31.9013,15.0644,35.1288,15.3587,35.3679z"/>
			<path fill="#E88B24" d="M18.1789,27.9294c-0.7611,0.0581-0.9128,0.719-0.5656,0.9474
				C18.1806,29.25,19.6286,27.8186,18.1789,27.9294z"/>
			<path fill="#E88B24" d="M16.2023,35.9528c3.2511,2.063,6.7797,0.5415,8.0092-2.2242c0,0,1.2234-2.8911-1.0406-5.3497
				c-0.8191-0.8879-1.8575-1.417-2.9497-1.5723c1.094,0.9651,2.4941,5.0931,1.208,6.6093c-0.4305,0.5042-1.0902,0.751-1.6234,1.1436
				c-0.6087,0.4712-1.0778,1.183-1.8338,1.2898C17.4309,35.9249,16.6848,35.6204,16.2023,35.9528z"/>
			<path fill="#F9A62B" d="M16.5304,28.3591c0.0788,1.5303-1.0095,1.5017-0.824,6.2279c0.0075,0.1907,0.0251,0.3773,0.07,0.5631
				C15.386,34.8306,13.6386,30.2174,16.5304,28.3591z"/>
		</g>
	</g>
	<g>
		<path fill="#686868" d="M45.6331,28.9113c-1.0348,1.5334-2.7331,2.9602-5.0183,4.1704
			c-4.2001,2.2302-9.8247,3.4575-15.8386,3.4575c-6.0149,0-11.6566-1.2278-15.8858-3.4575
			c-2.2969-1.2097-4.0072-2.6365-5.0628-4.1704H2.6156c1.0827,1.8597,3.0048,3.6123,5.7939,5.0813
			c9.0448,4.7695,23.7038,4.7695,32.6867,0c2.7715-1.4674,4.6735-3.2237,5.734-5.0813H45.6331z"/>
	</g>
</g>
</svg>
