<?xml version="1.0" encoding="utf-8"?>
<!-- Generator: Adobe Illustrator 18.0.0, SVG Export Plug-In . SVG Version: 6.00 Build 0)  -->
<!DOCTYPE svg PUBLIC "-//W3C//DTD SVG 1.1//EN" "http://www.w3.org/Graphics/SVG/1.1/DTD/svg11.dtd">
<svg version="1.1" id="Layer_1" xmlns="http://www.w3.org/2000/svg" xmlns:xlink="http://www.w3.org/1999/xlink" x="0px" y="0px"
	 viewBox="0 0 50 50" enable-background="new 0 0 50 50" xml:space="preserve">
<g>
	<g>
		<g enable-background="new    ">
			<g>
				<polygon fill="#3D3D3D" points="47.4658,38.5404 47.4615,40.0244 32.0167,49 32.0209,47.516 				"/>
			</g>
			<g>
				<polygon fill="#4F4D4D" points="32.0209,47.516 32.0167,49 2.5342,31.9783 2.5384,30.4943 				"/>
			</g>
			<g>
				<polygon fill="#686868" points="47.4658,38.5404 32.0209,47.516 2.5384,30.4943 17.9833,21.5187 				"/>
			</g>
		</g>
	</g>
	<g>
		<path fill="#D7D7D7" d="M44.9803,22.0679c0.4049,0.2338,0.4045,0.6112,0.0048,0.8434c-0.4023,0.2338-1.0512,0.2338-1.4561,0
			c-0.4023-0.2323-0.4071-0.6097-0.0048-0.8434C43.9239,21.8356,44.578,21.8356,44.9803,22.0679z"/>
		<path fill="#D7D7D7" d="M45.2825,22.4907l-0.0414,15.8847c-0.0042,0.1492-0.1036,0.3026-0.3026,0.4186
			c-0.4021,0.2322-1.0488,0.2322-1.455,0c-0.2031-0.1202-0.3026-0.2737-0.3026-0.4269l0.0456-15.8721
			c0,0.1492,0.1036,0.3026,0.3026,0.4145c0.4062,0.2362,1.0529,0.2362,1.455,0C45.1831,22.7976,45.2825,22.6442,45.2825,22.4907z"/>
	</g>
	<g>
		<path fill="#D7D7D7" d="M18.6134,6.9441c0.4023,0.2323,0.4045,0.6112,0.0048,0.8434c-0.4023,0.2338-1.0539,0.2322-1.4561,0
			c-0.4049-0.2338-0.4071-0.6097-0.0048-0.8434C17.557,6.7118,18.2085,6.7103,18.6134,6.9441z"/>
		<path fill="#D7D7D7" d="M18.9169,7.3704l-0.0456,15.8802c0,0.1534-0.0995,0.3028-0.2985,0.4188
			c-0.4021,0.2322-1.0529,0.2322-1.455,0c-0.2031-0.116-0.3068-0.2736-0.3068-0.4269l0.0456-15.8804
			c0,0.1532,0.1036,0.3066,0.3067,0.4269c0.4021,0.2322,1.0529,0.2322,1.455,0C18.8174,7.673,18.9169,7.5196,18.9169,7.3704z"/>
	</g>
	<g>
		<path fill="#D7D7D7" d="M32.7283,29.2428c0.4049,0.2338,0.4045,0.6112,0.0048,0.8434c-0.3997,0.2323-1.0512,0.2338-1.4561,0
			c-0.4023-0.2323-0.4045-0.6112-0.0048-0.8435C31.6718,29.0105,32.326,29.0105,32.7283,29.2428z"/>
	</g>
	<g>
		<path fill="#D7D7D7" d="M6.6631,14.5417L6.6175,30.4261c0,0.1494-0.0995,0.3026-0.2984,0.4188
			c-0.398,0.2322-1.0529,0.2322-1.455,0c-0.2031-0.1202-0.3026-0.2736-0.3026-0.4271l0.0456-15.8802
			c0,0.1532,0.0995,0.3066,0.3026,0.4269c0.4021,0.2322,1.057,0.2322,1.455,0C6.5636,14.8485,6.6631,14.6951,6.6631,14.5417z"/>
		<path fill="#D7D7D7" d="M6.3614,14.119c0.4023,0.2323,0.4045,0.6112,0.0048,0.8434c-0.3997,0.2323-1.0539,0.2322-1.4561,0
			c-0.4049-0.2338-0.4045-0.6112-0.0048-0.8434C5.305,13.8867,5.9565,13.8852,6.3614,14.119z"/>
	</g>
	<path fill="none" d="M39.2888,24.8185c-0.1092-0.2093-0.2571-0.4142-0.4481-0.6071c-0.1912-0.192-0.4263-0.3733-0.7111-0.5378
		c-1.387-0.8009-3.4224-0.992-5.12-0.5774l5.038,2.9085c0.0328-0.0178,0.0712-0.0298,0.1033-0.0484
		C38.7062,25.6288,39.0795,25.2283,39.2888,24.8185z"/>
	<path fill="none" d="M29.4581,19.1383l-0.0008-0.0013c-0.0009,0.0018-0.0012,0.0036-0.0021,0.0053
		c-0.2161-0.4191-0.5897-0.8174-1.1636-1.1485c-1.3872-0.8009-3.4202-0.9907-5.1166-0.5756l5.034,2.9063
		c0.0324-0.0178,0.0704-0.0298,0.1021-0.0484C28.8755,19.9486,29.2397,19.557,29.4581,19.1383z"/>
	<path fill="none" d="M11.8539,12.3208c-0.1726,0.0973-0.3204,0.2036-0.4568,0.3129c-0.3073,0.2498-0.5332,0.5227-0.6806,0.8071
		c0.2185,0.4276,0.5916,0.8187,1.1648,1.1556c1.7889,1.0378,4.6708,1.0498,6.4891,0.048l-5.0301-2.9041
		C12.8004,11.8728,12.293,12.0639,11.8539,12.3208z"/>
	<path fill="none" d="M19.6171,13.4604c-0.1897-0.3668-0.5875-0.8106-1.1549-1.1396c-1.3883-0.8014-3.4243-0.9965-5.1221-0.5805
		l5.0301,2.9041c0.0321-0.0173,0.0697-0.0298,0.1011-0.048C19.0349,14.2693,19.4075,13.8786,19.6171,13.4604z"/>
	<polygon fill="#3D3D3D" points="47.4658,22.3833 39.8702,26.7977 39.6463,26.9279 40.9251,27.6662 47.4615,23.8674 	"/>
	<path fill="#686868" d="M11.8515,10.7701c1.8206-1.0578,4.7784-1.0556,6.6065,0c1.2629,0.7289,1.6366,1.7681,1.1599,2.6916
		c0,0-0.0005-0.0009-0.0007-0.0013c-0.2096,0.4182-0.5823,0.8089-1.1458,1.136c-0.0314,0.0182-0.069,0.0307-0.1011,0.048
		l3.2305,1.8654c0.0312-0.0196,0.0563-0.0409,0.0887-0.0596c1.8206-1.0583,4.7741-1.0583,6.6022-0.0027
		c1.264,0.7298,1.6388,1.7672,1.1657,2.6894l0.0008,0.0013c-0.2185,0.4187-0.5826,0.8102-1.1469,1.1378
		c-0.0317,0.0187-0.0697,0.0307-0.1021,0.0484l3.2255,1.8623c0.0312-0.0191,0.0561-0.0404,0.0884-0.0591
		c1.8206-1.0583,4.7784-1.0556,6.6065-0.0004c1.263,0.7294,1.6367,1.7685,1.1599,2.6916c-0.1082-0.2098-0.2562-0.4142-0.4488-0.6076
		c0.1911,0.1929,0.339,0.3978,0.4481,0.6071c-0.2093,0.4098-0.5826,0.8102-1.1378,1.1378
		c-0.0322,0.0187-0.0705,0.0307-0.1033,0.0484l1.5985,0.9231l0.2241-0.1302l7.5926-4.4188L17.9799,5.3575l-7.8165,4.549
		l1.5992,0.9231C11.7939,10.8101,11.819,10.7888,11.8515,10.7701z"/>
	<path fill="#686868" d="M18.458,12.3164c-1.3872-0.8009-3.4228-0.9925-5.1205-0.5774l0.0027,0.0013
		c1.6978-0.416,3.7338-0.2209,5.1221,0.5805c0.3626,0.2102,0.6385,0.4493,0.853,0.7027
		C19.1013,12.7688,18.8246,12.5279,18.458,12.3164z"/>
	<path fill="#686868" d="M11.8515,12.3164c-0.1713,0.0996-0.3185,0.2067-0.4545,0.3173c0.1364-0.1093,0.2843-0.2156,0.4568-0.3129
		c0.4391-0.2569,0.9466-0.448,1.4863-0.5805l-0.0027-0.0013C12.7979,11.871,12.2906,12.0612,11.8515,12.3164z"/>
	<polygon fill="#686868" points="39.6463,26.9279 39.8702,26.7977 39.6461,26.9279 	"/>
	<polygon fill="#686868" points="32.0209,31.3592 32.0209,31.3609 32.025,31.3632 39.6463,26.9279 39.6461,26.9279 	"/>
	<path fill="#4F4D4D" d="M28.293,17.9916c-1.39-0.8022-3.424-0.9916-5.1206-0.5747l0.0027,0.0013
		c1.6964-0.4151,3.7294-0.2253,5.1166,0.5756c0.5739,0.3311,0.9475,0.7294,1.1636,1.1485c0.0009-0.0018,0.0012-0.0036,0.0021-0.0053
		C29.2388,18.7188,28.8658,18.3281,28.293,17.9916z"/>
	<path fill="#4F4D4D" d="M28.293,17.9916c0.5729,0.3365,0.9458,0.7271,1.1644,1.1454c0.4731-0.9223,0.0983-1.9596-1.1657-2.6894
		c-1.8281-1.0556-4.7816-1.0556-6.6022,0.0027c-0.0324,0.0187-0.0574,0.04-0.0887,0.0596l1.5716,0.9071
		C24.8689,17.0001,26.9029,17.1894,28.293,17.9916z"/>
	<path fill="#4F4D4D" d="M21.6937,17.9916c0.4374-0.2538,0.9422-0.4431,1.4787-0.5747l-1.5716-0.9071
		c-1.1701,0.7209-1.5109,1.7201-1.0508,2.6143C20.7688,18.7077,21.1317,18.3179,21.6937,17.9916z"/>
	<path fill="#4F4D4D" d="M19.3152,13.0235c0.1194,0.1422,0.2247,0.2876,0.3019,0.4369c0.0003-0.0004,0.0008-0.0013,0.0012-0.0018
		C19.5402,13.3088,19.4346,13.1648,19.3152,13.0235z"/>
	<path fill="#4F4D4D" d="M11.397,12.6337c-0.3097,0.2485-0.5356,0.5222-0.681,0.8067l0.0004,0.0004
		C10.8638,13.1564,11.0897,12.8835,11.397,12.6337z"/>
	<path fill="#4F4D4D" d="M18.458,12.3164c0.5707,0.3294,0.9744,0.7857,1.1603,1.1423c-0.0003,0.0004-0.0008,0.0013-0.0012,0.0018
		c0.0002,0.0004,0.0005,0.0009,0.0005,0.0009c0.477-0.9231,0.1033-1.9623-1.1596-2.6912c-1.8281-1.0556-4.7859-1.0578-6.6065,0
		c-0.0325,0.0187-0.0576,0.04-0.0889,0.0596l1.575,0.9094C15.0352,11.3239,17.0708,11.5154,18.458,12.3164z"/>
	<path fill="#4F4D4D" d="M11.397,12.6337c0.136-0.1107,0.2831-0.2178,0.4545-0.3173c0.4391-0.2551,0.9465-0.4453,1.486-0.5774
		l-1.575-0.9094c-1.169,0.7209-1.5083,1.7201-1.0482,2.6147c0.0006-0.0013,0.0015-0.0022,0.0021-0.0036l-0.0004-0.0004
		C10.8614,13.1559,11.0873,12.8822,11.397,12.6337z"/>
	<path fill="#4F4D4D" d="M38.1328,23.6718c-1.3888-0.8018-3.4258-0.9916-5.124-0.576l0.0008,0.0004
		c1.6976-0.4147,3.7329-0.2236,5.12,0.5774c0.2848,0.1644,0.5199,0.3458,0.7111,0.5378
		C38.6495,24.0176,38.415,23.8358,38.1328,23.6718z"/>
	<path fill="#4F4D4D" d="M38.1328,23.6718c0.4734,0.2751,0.9038,0.6569,1.1567,1.1471c0.4768-0.9231,0.1031-1.9623-1.1599-2.6916
		c-1.8281-1.0551-4.7859-1.0578-6.6065,0.0004c-0.0323,0.0187-0.0573,0.04-0.0884,0.0591l1.5742,0.9089
		C34.7069,22.6802,36.7439,22.87,38.1328,23.6718z"/>
	<path fill="#4F4D4D" d="M33.0088,23.0958l-1.5742-0.9089c-1.1694,0.7205-1.5088,1.7205-1.0487,2.6152
		c0.0002-0.0004,0.0006-0.0009,0.0006-0.0009v-0.0009C30.8664,23.8622,31.9841,23.3459,33.0088,23.0958z"/>
	<g>
		<path fill="#E02426" d="M12.4893,8.1367L12.437,29.7468c-0.0013,0.3454,0.2544,0.6839,0.7198,0.9525
			c0.5152,0.2973,1.2079,0.461,1.9498,0.461c0.7438,0,1.4365-0.1644,1.9504-0.4629c0.4528-0.2632,0.7022-0.5954,0.7035-0.9362
			l0.0524-21.6246H12.4893z"/>
		<path fill="#EE4541" d="M17.0297,7.0468c1.0393,0.6001,1.0448,1.5797,0.0123,2.1797c-1.0363,0.6022-2.7275,0.6023-3.7669,0.0022
			c-1.043-0.6022-1.0485-1.5818-0.0122-2.184C14.2954,6.4446,15.9867,6.4446,17.0297,7.0468z"/>
		<path fill="#E02426" d="M12.4893,8.1367L12.437,29.7468c-0.0013,0.3454,0.2544,0.6839,0.7198,0.9525
			c0.5152,0.2973,1.2079,0.461,1.9498,0.461c0.7438,0,1.4365-0.1644,1.9504-0.4629c0.4528-0.2632,0.7022-0.5954,0.7035-0.9362
			l0.0524-21.6246H12.4893z"/>
		<path fill="#EE4541" d="M17.0297,7.0468c1.0393,0.6001,1.0448,1.5797,0.0123,2.1797c-1.0363,0.6022-2.7275,0.6023-3.7669,0.0022
			c-1.043-0.6022-1.0485-1.5818-0.0122-2.184C14.2954,6.4446,15.9867,6.4446,17.0297,7.0468z"/>
		<g>
			<g enable-background="new    ">
				<g opacity="0.5">
					<path fill="#E8E8E8" d="M18.1576,3.1518l-0.0745,26.611c-0.0012,0.4399-0.2891,0.8791-0.8642,1.2133
						c-1.1618,0.6752-3.0579,0.6752-4.2231,0.0025c-0.5884-0.3397-0.8823-0.7866-0.881-1.2328l0.0745-26.611
						c-0.0013,0.4462,0.2926,0.893,0.881,1.2328c1.1652,0.6727,3.0613,0.6727,4.2231-0.0025
						C17.8685,4.0309,18.1563,3.5917,18.1576,3.1518z"/>
				</g>
				<g>
					<path fill="#A2DDF4" d="M17.2796,1.9213c1.1652,0.6727,1.1714,1.771,0.0138,2.4437c-1.1618,0.6752-3.0579,0.6752-4.2231,0.0025
						c-1.1693-0.6751-1.1755-1.7734-0.0137-2.4486C14.2142,1.2463,16.1103,1.2462,17.2796,1.9213z"/>
				</g>
			</g>
		</g>
		<g>
			<g enable-background="new    ">
				<g>
					<path fill="#55B8E8" d="M18.782,3.0746l-0.089,0.969c-0.0015,0.5254-0.3453,1.0499-1.0321,1.4491
						c-1.3876,0.8064-3.6521,0.8064-5.0437,0.0029c-0.7027-0.4057-1.0537-0.9394-1.0522-1.4723l0.089-0.969
						c-0.0015,0.5329,0.3495,1.0666,1.0522,1.4723c1.3916,0.8035,3.6562,0.8034,5.0437-0.0029
						C18.4367,4.1245,18.7805,3.6,18.782,3.0746z"/>
				</g>
				<g>
					<path fill="#A2DDF4" d="M17.7334,1.6051c1.3916,0.8035,1.399,2.1152,0.0164,2.9186c-1.3876,0.8064-3.6521,0.8064-5.0437,0.0029
						c-1.3966-0.8063-1.4039-2.118-0.0163-2.9244C14.0723,0.7988,16.3369,0.7988,17.7334,1.6051z"/>
					<g>
						<path fill="#7BD3F7" d="M15.2042,2.3277c1.0723,0,2.5737,0.3453,3.0978,1.246c0.0954-0.1631,0.1577-0.3313,0.1575-0.5035
							c-0.0017-1.1994-2.027-1.7476-3.2553-1.7476c-1.2201,0-3.2293,0.5456-3.2276,1.7363c0,0.1716,0.0627,0.3391,0.1576,0.5019
							C12.6605,2.6608,14.1435,2.3277,15.2042,2.3277z"/>
						<path fill="#69C4EF" d="M15.2268,4.8065c1.0752,0,2.5533-0.3411,3.0751-1.2328c-0.5243-0.901-2.0179-1.246-3.0978-1.246
							c-1.065,0-2.5449,0.3351-3.07,1.2331C12.6569,4.4579,14.1375,4.8065,15.2268,4.8065z"/>
					</g>
				</g>
			</g>
		</g>
	</g>
	<g>
		<path fill="#E02426" d="M22.2277,12.8324l-0.0523,21.6101c-0.0013,0.3454,0.2544,0.6839,0.7198,0.9525
			c0.5152,0.2972,1.2079,0.461,1.9498,0.461c0.7438,0,1.4365-0.1644,1.9504-0.4629c0.4528-0.2632,0.7022-0.5954,0.7035-0.9361
			l0.0524-21.6246H22.2277z"/>
		<path fill="#EE4541" d="M26.7681,11.7425c1.0393,0.6001,1.0448,1.5797,0.0123,2.1797c-1.0363,0.6022-2.7275,0.6023-3.7669,0.0022
			c-1.043-0.6022-1.0485-1.5818-0.0122-2.184C24.0339,11.1404,25.7251,11.1403,26.7681,11.7425z"/>
		<path fill="#73AE43" d="M22.2277,12.8324l-0.0523,21.6101c-0.0013,0.3454,0.2544,0.6839,0.7198,0.9525
			c0.5152,0.2972,1.2079,0.461,1.9498,0.461c0.7438,0,1.4365-0.1644,1.9504-0.4629c0.4528-0.2632,0.7022-0.5954,0.7035-0.9361
			l0.0524-21.6246H22.2277z"/>
		<path fill="#A9C838" d="M26.7681,11.7425c1.0393,0.6001,1.0448,1.5797,0.0123,2.1797c-1.0363,0.6022-2.7275,0.6023-3.7669,0.0022
			c-1.043-0.6022-1.0485-1.5818-0.0122-2.184C24.0339,11.1404,25.7251,11.1403,26.7681,11.7425z"/>
		<g opacity="0.5">
			<path fill="#E8E8E8" d="M27.896,7.8475l-0.0745,26.611c-0.0012,0.4399-0.2891,0.8791-0.8642,1.2133
				c-1.1618,0.6752-3.0579,0.6752-4.2231,0.0025c-0.5884-0.3397-0.8823-0.7866-0.881-1.2328l0.0745-26.611
				c-0.0013,0.4462,0.2926,0.893,0.881,1.2328C23.9739,9.736,25.87,9.736,27.0318,9.0608
				C27.6069,8.7266,27.8948,8.2874,27.896,7.8475z"/>
		</g>
		<g>
			<g enable-background="new    ">
				<g>
					<path fill="#A2DDF4" d="M27.0181,6.6171c1.1652,0.6727,1.1714,1.771,0.0138,2.4437C25.87,9.736,23.9739,9.736,22.8087,9.0633
						c-1.1693-0.6751-1.1755-1.7734-0.0137-2.4486C23.9526,5.942,25.8487,5.9419,27.0181,6.6171z"/>
				</g>
			</g>
		</g>
		<g>
			<g enable-background="new    ">
				<g>
					<path fill="#55B8E8" d="M28.5204,7.7703l-0.089,0.969c-0.0015,0.5254-0.3453,1.0499-1.0321,1.4491
						c-1.3876,0.8064-3.6521,0.8064-5.0437,0.0029c-0.7027-0.4057-1.0537-0.9394-1.0522-1.4723l0.089-0.969
						c-0.0015,0.5329,0.3495,1.0666,1.0522,1.4723c1.3916,0.8035,3.6562,0.8034,5.0437-0.0029
						C28.1751,8.8203,28.5189,8.2957,28.5204,7.7703z"/>
				</g>
				<g>
					<path fill="#A2DDF4" d="M27.4718,6.3008c1.3916,0.8035,1.399,2.1152,0.0164,2.9186c-1.3876,0.8064-3.6521,0.8064-5.0437,0.0029
						c-1.3966-0.8063-1.4039-2.118-0.0163-2.9244C23.8108,5.4945,26.0753,5.4945,27.4718,6.3008z"/>
					<g>
						<path fill="#7BD3F7" d="M22.5904,7.582c0.6197-0.3602,1.4554-0.5586,2.3522-0.5586c0.8993,0,1.7407,0.1996,2.3679,0.5618
							c0.3461,0.2,0.5847,0.4349,0.7299,0.6842c0.0954-0.1631,0.1577-0.3313,0.1575-0.5035
							c-0.0006-0.4349-0.3155-0.8559-0.8873-1.1859c-0.6272-0.3624-1.4686-0.5618-2.3679-0.5618
							c-0.8968,0-1.7325,0.1984-2.3522,0.5586c-0.5649,0.3281-0.876,0.7466-0.8754,1.1777c0,0.1716,0.0627,0.3391,0.1576,0.5019
							C22.0162,8.0109,22.2509,7.7795,22.5904,7.582z"/>
						<path fill="#69C4EF" d="M24.9652,9.5022c1.0752,0,2.5533-0.3411,3.0751-1.2328c-0.5243-0.901-2.0179-1.246-3.0978-1.246
							c-1.065,0-2.5449,0.3351-3.07,1.2331C22.3953,9.1537,23.876,9.5022,24.9652,9.5022z"/>
					</g>
				</g>
			</g>
		</g>
	</g>
	<g>
		<path fill="#E02426" d="M31.9661,17.5281l-0.0523,21.6101c-0.0013,0.3454,0.2544,0.6839,0.7198,0.9525
			c0.5152,0.2973,1.2079,0.461,1.9498,0.461c0.7438,0,1.4365-0.1644,1.9504-0.4629c0.4528-0.2632,0.7022-0.5954,0.7035-0.9361
			l0.0524-21.6246H31.9661z"/>
		<path fill="#EE4541" d="M36.5065,16.4382c1.0393,0.6001,1.0448,1.5797,0.0123,2.1797c-1.0363,0.6022-2.7275,0.6023-3.7669,0.0022
			c-1.043-0.6022-1.0485-1.5818-0.0122-2.184C33.7723,15.8361,35.4635,15.8361,36.5065,16.4382z"/>
		<path fill="#E02426" d="M31.9661,17.5281l-0.0523,21.6101c-0.0013,0.3454,0.2544,0.6839,0.7198,0.9525
			c0.5152,0.2973,1.2079,0.461,1.9498,0.461c0.7438,0,1.4365-0.1644,1.9504-0.4629c0.4528-0.2632,0.7022-0.5954,0.7035-0.9361
			l0.0524-21.6246H31.9661z"/>
		<path fill="#EE4541" d="M36.5065,16.4382c1.0393,0.6001,1.0448,1.5797,0.0123,2.1797c-1.0363,0.6022-2.7275,0.6023-3.7669,0.0022
			c-1.043-0.6022-1.0485-1.5818-0.0122-2.184C33.7723,15.8361,35.4635,15.8361,36.5065,16.4382z"/>
		<g>
			<g enable-background="new    ">
				<g opacity="0.5">
					<path fill="#E8E8E8" d="M37.6344,12.5432l-0.0745,26.611c-0.0012,0.4399-0.2891,0.8791-0.8642,1.2133
						c-1.1618,0.6752-3.0579,0.6752-4.2231,0.0025c-0.5884-0.3397-0.8823-0.7866-0.881-1.2328l0.0745-26.611
						c-0.0013,0.4462,0.2926,0.893,0.881,1.2328c1.1652,0.6727,3.0613,0.6727,4.2231-0.0025
						C37.3453,13.4223,37.6332,12.9831,37.6344,12.5432z"/>
				</g>
				<path fill="#D7D7D7" d="M33.033,29.6663l-0.0456,15.8804c0,0.1534-0.0995,0.3068-0.2985,0.4228
					c-0.4021,0.2322-1.0529,0.2322-1.455,0c-0.2031-0.1202-0.3067-0.2736-0.3067-0.4269l0.0456-15.8804
					c0,0.1532,0.1036,0.3066,0.3026,0.4228c0.4062,0.2362,1.057,0.232,1.4591,0C32.9335,29.9689,33.033,29.8197,33.033,29.6663z"/>
				<g>
					<path fill="#A2DDF4" d="M36.7565,11.3128c1.1652,0.6727,1.1714,1.771,0.0138,2.4437
						c-1.1618,0.6752-3.0579,0.6752-4.2231,0.0025c-1.1693-0.6751-1.1755-1.7734-0.0137-2.4486
						C33.6911,10.6377,35.5871,10.6377,36.7565,11.3128z"/>
				</g>
			</g>
		</g>
		<g>
			<g enable-background="new    ">
				<g>
					<path fill="#55B8E8" d="M38.2588,12.4661l-0.089,0.969c-0.0015,0.5254-0.3453,1.0499-1.0321,1.4491
						c-1.3876,0.8064-3.6521,0.8064-5.0437,0.0029c-0.7027-0.4057-1.0537-0.9394-1.0522-1.4723l0.089-0.969
						c-0.0015,0.5329,0.3495,1.0666,1.0522,1.4723c1.3916,0.8035,3.6562,0.8034,5.0437-0.0029
						C37.9135,13.516,38.2573,12.9914,38.2588,12.4661z"/>
				</g>
				<g>
					<path fill="#A2DDF4" d="M37.2102,10.9965c1.3916,0.8035,1.399,2.1152,0.0164,2.9186
						c-1.3876,0.8064-3.6521,0.8064-5.0437,0.0029c-1.3966-0.8063-1.4039-2.118-0.0163-2.9244
						C33.5492,10.1903,35.8137,10.1902,37.2102,10.9965z"/>
					<g>
						<path fill="#7BD3F7" d="M32.3288,12.2778c0.6197-0.3602,1.4554-0.5586,2.3522-0.5586c0.8993,0,1.7407,0.1996,2.3679,0.5618
							c0.3461,0.2,0.5847,0.4349,0.7299,0.6842c0.0954-0.1631,0.1577-0.3313,0.1575-0.5035
							c-0.0006-0.4349-0.3155-0.8559-0.8873-1.1859c-0.6273-0.3624-1.4686-0.5618-2.3679-0.5618
							c-0.8968,0-1.7325,0.1984-2.3522,0.5586c-0.5649,0.3281-0.876,0.7466-0.8754,1.1777c0,0.1716,0.0627,0.3391,0.1576,0.5019
							C31.7547,12.7066,31.9894,12.4752,32.3288,12.2778z"/>
						<path fill="#69C4EF" d="M34.7037,14.1979c1.0752,0,2.5533-0.3411,3.0751-1.2328c-0.5243-0.901-2.0179-1.246-3.0978-1.246
							c-1.0649,0-2.5449,0.3351-3.07,1.2331C32.1338,13.8494,33.6144,14.1979,34.7037,14.1979z"/>
					</g>
				</g>
			</g>
		</g>
	</g>
	<g>
		<g>
			<polygon fill="#3D3D3D" points="32.025,31.3632 32.0209,31.3609 32.0167,32.8432 40.9251,27.6662 39.6463,26.9279 			"/>
			<polygon fill="#4F4D4D" points="2.542,14.3418 2.544,14.3404 2.5385,14.3373 2.5342,15.8214 32.0167,32.8432 32.0209,31.3609 			
				"/>
			<g>
				<path fill="#686868" d="M39.6461,26.9279l-1.5985-0.9231c-1.8268,0.992-4.6987,0.9796-6.496-0.0484
					c-0.5733-0.3369-0.9464-0.7369-1.1649-1.1556c0,0-0.0006,0.0009-0.0008,0.0013c-0.4601-0.8947-0.1207-1.8947,1.0487-2.6152
					l-3.2255-1.8623c-1.8184,1.0014-4.6996,0.9889-6.4972-0.0573c-0.5735-0.3276-0.9466-0.7191-1.1651-1.1378
					c0.0009-0.0018,0.0023-0.0036,0.0033-0.0053c-0.4601-0.8942-0.1193-1.8934,1.0508-2.6143l-3.2305-1.8654
					c-1.8183,1.0018-4.7001,0.9898-6.4891-0.048c-0.5732-0.3369-0.9463-0.728-1.1648-1.1556
					c-0.0006,0.0013-0.0015,0.0022-0.0021,0.0036c-0.4601-0.8947-0.1208-1.8938,1.0482-2.6147l-1.5992-0.9231L2.544,14.3404
					l29.4768,17.0187L39.6461,26.9279z"/>
				<rect x="17.2816" y="5.8322" fill="#686868" width="0.0018" height="34.0371"/>
			</g>
		</g>
	</g>
</g>
</svg>
