<?xml version="1.0" encoding="utf-8"?>
<!-- Generator: Adobe Illustrator 18.0.0, SVG Export Plug-In . SVG Version: 6.00 Build 0)  -->
<!DOCTYPE svg PUBLIC "-//W3C//DTD SVG 1.1//EN" "http://www.w3.org/Graphics/SVG/1.1/DTD/svg11.dtd">
<svg version="1.1" id="Layer_1" xmlns="http://www.w3.org/2000/svg" xmlns:xlink="http://www.w3.org/1999/xlink" x="0px" y="0px"
	 viewBox="0 0 50 50" enable-background="new 0 0 50 50" xml:space="preserve">
<g>
	<g>
		<path fill="#EE4541" d="M39.104,21.0317l-0.0398,16.337c-0.0003,0.1-0.0213,7.3201-0.0199,6.8594
			c0,2.7695-3.4473,4.0018-4.1912,4.5796c-0.3385,0.1891-0.8462,0.2387-1.4734,0.1492c-3.6154-0.4265-11.608-5.0703-11.608-6.9887
			l0.01-4.0522l0.0099-2.5083l0.0399-16.6457c0,2.081,8.1174,6.4469,11.389,6.9489c1.8003,0.316,1.7591-0.3398,3.2753-1.0354
			C38.2379,23.6703,39.104,22.3461,39.104,21.0317z"/>
	</g>
	<g>
		<g enable-background="new    ">
			<g>
				<path fill="#F9A62B" d="M38.1239,29.2215c3.9363,2.2726,3.9597,5.9584,0.0463,8.2326
					c-3.9106,2.2726-10.2766,2.2727-14.2129,0.0001c-3.9391-2.2742-3.9569-5.96-0.0463-8.2326
					C27.8245,26.9474,34.1848,26.9473,38.1239,29.2215z"/>
			</g>
		</g>
	</g>
	<g>
		<g enable-background="new    ">
			<g>
				<path fill="#D7D7D7" d="M41.1666,9.8717L41.087,38.0259c0,3.2524-4.0948,4.7323-4.898,5.3559
					c-0.3982,0.229-0.9955,0.279-1.7322,0.1794c-2.0707-0.2489-5.2166-1.6129-7.9643-3.1956
					c-3.0663-1.7723-5.6248-3.8329-5.6248-4.9879l0.0797-28.1639c0,1.1647,2.5685,3.2258,5.6248,4.9879
					c2.6381,1.5332,5.6447,2.8374,7.7055,3.1558c0.8561,0.1492,1.553,0.1196,1.9911-0.1395l1.8417-1.0753
					C40.1413,12.9682,41.1666,11.4151,41.1666,9.8717z"/>
			</g>
			<g>
				<path fill="#E8E8E8" d="M38.0608,5.5255c4.1253,2.3817,4.1471,6.2401,0.0486,8.6219l-1.8418,1.0704
					c-1.4874,0.8644-5.9634-0.8582-9.6956-3.013c-3.7322-2.1548-6.7207-4.7418-5.2333-5.6062l1.8418-1.0704
					C27.2791,3.1464,33.9403,3.1465,38.0608,5.5255z"/>
			</g>
		</g>
	</g>
	<path fill="#BFBFBF" d="M41.1666,9.8717L41.087,38.0259c0,3.2524-4.0948,4.7323-4.898,5.3559
		c-0.3982,0.229-0.9955,0.279-1.7322,0.1794c0.01-0.1794,0.0597-0.3787,0.1394-0.5877c0.2389-0.5673,0.6272-1.085,0.7665-1.6824
		c0.4082-1.6824-1.1548-3.2355-1.2345-4.9578c-0.0597-1.4632,0.9557-2.7577,1.1947-4.2009c0.3683-2.1107-0.9159-4.1217-1.344-6.2221
		c-0.5974-2.957,0.5575-5.9932,0.4281-9.0197c-0.0199-0.508-0.0797-1.0257-0.1294-1.5332c0.8561,0.1492,1.553,0.1196,1.9911-0.1395
		l1.8417-1.0753C40.1413,12.9682,41.1666,11.4151,41.1666,9.8717z"/>
	<g>
		<g enable-background="new    ">
			<g>
				<path fill="#929393" d="M41.1691,5.764l-0.0171,8.4222c-0.0057,1.2064-0.8005,2.4129-2.3845,3.3337l-10.9273,6.3469
					l0.0172-8.4219l10.933-6.3472C40.3743,8.1772,41.1634,6.9705,41.1691,5.764z"/>
			</g>
			<g>
				<path fill="#B0AFB0" d="M27.8599,15.4459l-0.0185,8.4233l-11.6133-6.7049l0.0185-8.4232
					C20.1634,9.9928,24.0312,12.2979,27.8599,15.4459z"/>
			</g>
			<g>
				<path fill="#D7D7D7" d="M38.7506,2.3878c3.2091,1.8528,3.2261,4.8542,0.0378,6.7071l-10.9285,6.351
					c-3.9825-3.2243-7.8651-5.562-11.6133-6.7048l10.9285-6.3511C30.3634,0.5371,35.5452,0.5371,38.7506,2.3878z"/>
			</g>
		</g>
	</g>
	<g>
		<g enable-background="new    ">
			<g>
				<path fill="#BFBFBF" d="M16.8856,11.0391c-0.0907,0.0586-0.1493,0.176-0.1493,0.3359l-0.0107,3.3865l-7.5194,4.3676
					l0.0106-3.3865c0-0.1599,0.0587-0.2771,0.1493-0.3304L16.8856,11.0391z"/>
			</g>
			<g>
				<path fill="#E8E8E8" d="M27.0291,21.1428l-7.5172,4.3685c-0.0514,0.0298-0.1141,0.0405-0.1853,0.0285
					c-1.5828-0.2798-3.1948-0.8933-4.8254-1.8347c-1.6354-0.9442-3.2895-2.2185-4.95-3.817
					c-0.2041-0.1963-0.343-0.4997-0.3423-0.7581l7.5172-4.3685c-0.0007,0.2583,0.1382,0.5618,0.3423,0.7581
					c1.6605,1.5984,3.3146,2.8728,4.95,3.817C23.5575,20.2252,26.6125,21.3849,27.0291,21.1428z"/>
			</g>
			<g>
				<path fill="#E8E8E8" d="M21.8986,12.4095c-1.6745-0.965-3.3277-1.5944-4.949-1.8824c-0.128-0.0214-0.24,0-0.3306,0.0534
					l-7.5141,4.3676c0.0907-0.0534,0.2027-0.0747,0.3253-0.0534c1.6265,0.288,3.2798,0.9174,4.9489,1.8827
					c1.6799,0.9705,3.3704,2.2717,5.0716,3.9091c0.1788,0.1734,0.3295,0.3924,0.4355,0.6231l7.5189-4.3674
					C26.8976,15.8296,23.4756,13.3187,21.8986,12.4095z"/>
				<path fill="#BFBFBF" d="M19.8863,21.3096c0.1058,0.2304,0.1671,0.4729,0.1671,0.694l-0.0106,3.3917
					c0,0.2773-0.096,0.4799-0.2613,0.576c7.8195-4.6896,7.7807-4.184,7.7807-4.9436c-0.0459-3.4055,0.1238-3.4694-0.157-4.0854
					L19.8863,21.3096z"/>
			</g>
			<g>
				<path fill="#D7D7D7" d="M19.4528,20.6867c0.3571,0.3471,0.6012,0.8761,0.5999,1.3182l-0.0096,3.3922
					c-0.0012,0.4343-0.2407,0.6839-0.5918,0.6223c-1.626-0.2843-3.2783-0.913-4.9501-1.8782
					c-1.6752-0.9672-3.3699-2.2709-5.0705-3.9072c-0.3605-0.3493-0.6012-0.8801-0.5999-1.3222l0.0096-3.3882
					c0.0012-0.4343,0.2407-0.6879,0.5918-0.6263c1.6234,0.2858,3.2768,0.9153,4.9481,1.88
					C16.0568,17.7453,17.7512,19.0508,19.4528,20.6867z M19.6618,25.177l0.0096-3.3922c0.0007-0.2543-0.1348-0.556-0.3423-0.754
					c-1.6598-1.601-3.3136-2.8733-4.948-3.8169c-1.6309-0.9416-3.2423-1.5545-4.824-1.8329
					c-0.2011-0.0338-0.3379,0.1106-0.3386,0.3609l-0.0096,3.3882c-0.0007,0.2583,0.1382,0.5618,0.3423,0.7581
					c1.6605,1.5984,3.3146,2.8728,4.95,3.817c1.6306,0.9414,3.2427,1.5549,4.8254,1.8347
					C19.5277,25.5737,19.6611,25.4273,19.6618,25.177"/>
			</g>
		</g>
	</g>
	<g>
		<g>
			<polygon fill="#B0AFB0" points="26.3257,4.2543 34.9814,9.2844 36.6693,8.3099 28.0136,3.2798 			"/>
		</g>
		<g>
			<polygon fill="#B0AFB0" points="25.4486,4.8776 34.1927,9.9591 25.4486,10.519 			"/>
		</g>
	</g>
</g>
</svg>
