<?xml version="1.0" encoding="utf-8"?>
<!-- Generator: Adobe Illustrator 18.0.0, SVG Export Plug-In . SVG Version: 6.00 Build 0)  -->
<!DOCTYPE svg PUBLIC "-//W3C//DTD SVG 1.1//EN" "http://www.w3.org/Graphics/SVG/1.1/DTD/svg11.dtd">
<svg version="1.1" id="Layer_1" xmlns="http://www.w3.org/2000/svg" xmlns:xlink="http://www.w3.org/1999/xlink" x="0px" y="0px"
	 viewBox="0 0 50 50" enable-background="new 0 0 50 50" xml:space="preserve">
<g>
	<g>
		<g>
			<g>
				<g enable-background="new    ">
					<path fill="#B0AFB0" d="M42.048,36.5773c-9.3562,5.4372-24.5653,5.4372-33.9826,0c-4.7359-2.7344-7.1027-6.3251-7.0926-9.911
						l-0.0057,1.3899c-0.0102,3.5859,2.3566,7.1766,7.0925,9.911c9.4174,5.4372,24.6264,5.4372,33.9826,0
						c4.6481-2.7016,6.9748-6.2352,6.9849-9.7737l0.0058-1.3899C49.0229,30.3428,46.6962,33.8764,42.048,36.5773z"/>
					<g>
						<path fill="#E8E8E8" d="M41.9374,16.8932c9.4174,5.4371,9.4669,14.2468,0.1106,19.684s-24.5653,5.4374-33.9827,0.0002
							c-9.4094-5.4325-9.4668-14.2468-0.1106-19.684S32.528,11.4606,41.9374,16.8932z"/>
					</g>
					<g>
						<path fill="#D7D7D7" d="M36.9448,19.7951c6.641,3.8342,6.6758,10.0466,0.078,13.8808s-17.323,3.8343-23.9639,0.0002
							c-6.6353-3.8309-6.6758-10.0466-0.078-13.8808S30.3094,15.9642,36.9448,19.7951z"/>
					</g>
					<g>
						<path fill="#B0AFB0" d="M36.9448,21.0141c3.0698,1.7725,4.7096,4.0533,4.9535,6.3723
							c0.2958-2.7241-1.3458-5.5085-4.9535-7.5915C26.108,13.5388,7.1529,18.2168,8.1074,27.3028
							C8.3561,25.013,26.7736,15.1422,36.9448,21.0141z"/>
					</g>
				</g>
			</g>
		</g>
	</g>
	<g>
		<g>
			<path fill="#FDDB00" d="M39.1305,21.9471c-1.2328,2.2279-4.0239,7.9783-11.8046,9.3427
				c-5.959,1.0462-8.4465,0.4499-11.0181-1.1851c-2.2878-1.4629-3.7764-4.31-3.8556-4.5837v-0.0036
				c-0.2398-0.8333,0.0463-1.8465,1.145-1.6097c0,0-0.4792-0.2999-1.0462-0.8633c-2.1316-2.1096-1.5845-3.6597-2.2131-4.5542
				c-0.1061-0.1536-0.1573-1.1194,0.3512-1.4304c0.6496-0.3952,1.0654,0.4173,2.6741,0.7316c0,0-2.4253-2.0266-2.2936-3.724
				c0.1317-1.6936-0.2012-3.124,1.3974-2.6923c0,0,0.1317,0.1207,0.3658,0.3183c1.0974,0.9401,4.4702,3.6616,7.2137,4.0714
				c3.3252,0.4974,3.5556,1.0646,7.5795-1.2985c0,0,2.5607-2.7912,4.0239-3.0911c1.4632-0.2999,2.0595,0.3658,2.0266,0.9658
				c0,0,1.4632-1.1633,2.1619,0.4646c0,0,0.6219-1.0646,1.7376-0.15c0.2487,0.2049,0.5231,0.5085,0.8231,0.9474
				C40.0268,15.9954,40.3596,19.7193,39.1305,21.9471z"/>
			<path fill="#F8C814" d="M39.1305,21.9471c-1.2328,2.2279-4.0239,7.9783-11.8046,9.3427
				c-5.959,1.0462-8.4465,0.4499-11.0181-1.1851c-2.2878-1.4629-3.7764-4.31-3.8556-4.5837v-0.0036
				c0.0878-0.1793,0.1866-0.3622,0.3036-0.5598c0.45,0.3987,1.0791,0.5451,1.6096,0.7756c1.5522,0.68,2.2042,0.7226,3.8629,1.0828
				c1.1889,0.2561,2.407,0.3183,3.6288,0.3183c3.6619,0,2.9229,0.4424,8.1941-2.2716c1.3242-0.6877,1.8693-1.9351,2.7216-3.1094
				c3.4286-4.725,1.297-9.045,4.8031-9.0977c0.2487,0.2049,0.5231,0.5085,0.8231,0.9474
				C40.0268,15.9954,40.3596,19.7193,39.1305,21.9471z"/>
			<path fill="#F8C814" d="M35.3042,13.4969c-0.0402,0.3365-0.289,0.6475-0.4719,0.9256c-1.2784,1.9453-1.0041,2.1363-2.5643,5.2567
				c-0.6219,1.2584-1.1523,2.8898-2.4838,3.3909c-2.1209,0.7978-1.4111,0.836-3.7715,1.5072c-3.2804,0.964-5.249,0.4887-9.511-0.234
				c-0.6914-0.1172-1.4267,0.0255-2.118-0.1061c-0.5959-0.118-1.015-0.551-1.8327-1.1926
				c-2.1316-2.1096-1.5845-3.6597-2.2131-4.5542c-0.1061-0.1536-0.1573-1.1194,0.3512-1.4304
				c0.1061,0.0439,0.2012,0.1023,0.2744,0.1793c0.2268,0.234,0.3256,0.5925,0.4499,0.8888
				c0.1646,0.3769,0.4243,0.5707,0.7023,0.8743c1.9148,2.0906,4.9312,2.3553,7.1479,3.1129
				c1.0411,0.3553,4.7143,0.1335,5.4761,0.0366c0.5597-0.0732,1.1377-0.1134,1.6535-0.3585
				c1.3132-0.6255,2.6119-1.3864,3.5959-2.4692c0.7536-0.8268,1.5766-1.423,1.99-2.4947c0.1792-0.4719,0.1975-0.9365,0.5048-1.3718
				c0.6103-0.8517,1.1055-2.3505,1.7961-2.6303C34.8213,12.6116,35.3847,12.8349,35.3042,13.4969z"/>
			<path fill="#F8C814" d="M33.3947,12.6409c-0.1573,1.1303-0.8158,2.2206-1.6791,2.9959
				c-2.8491,2.5598-4.1181,4.0632-11.3007,4.0632c-2.0888,0-5.513-0.3449-7.103-1.9196c0.0146,0.0038,0.0329,0.0075,0.0512,0.0111
				c0,0-2.4253-2.0266-2.2936-3.724c0.1317-1.6936-0.2012-3.124,1.3974-2.6923c0,0,0.1317,0.1207,0.3658,0.3183
				c0.128,1.0937,0.0439,2.2497,0.5158,3.2885c1.3491,2.9776,4.9797,2.9411,8.3002,2.9411c2.2461,0,4.5872-0.1645,6.5955-1.2437
				C29.9727,15.748,32.3044,14.2663,33.3947,12.6409z"/>
		</g>
		<path fill="#80BC41" d="M31.9767,12.1436c0.8721,0.4352,0.4248,0.5694,0.6217,0.8033c0.1558-0.2355,0.2146-0.6465,0.5511-0.7388
			c0.294-0.0807,0.4239,0.118,0.4783-0.2532c0.2051-1.3995,2.1845-2.9868-0.0691-3.5595c-1.2492-0.3174-1.2189,2.3387-1.3685,2.7309
			C32.1022,11.3569,31.7848,11.4133,31.9767,12.1436z"/>
		<path fill="#73AE43" d="M33.4485,12.6744c0.1682-0.106,0.2172-0.3848,0.3376-0.5183c0.0932-0.1033,0.1379-0.1008,0.2013-0.2453
			c1.6294-3.7138,0.8464-2.8848,2.1614-3.6691c0.1267-0.0756,0.3329-0.2873,0.4705-0.2866
			c0.2429,0.0012,0.2689,0.3215,0.2317,0.4959c-0.0839,0.3944-0.4751,0.7212-0.586,1.1214c-0.1175,0.4239-0.043,0.9391-0.043,1.3782
			c0,0.9026-0.0682,1.4266-0.3757,2.2926c-0.1136,0-0.1976-0.2442-0.3327-0.2968c-0.4834-0.1881-0.7393-0.0234-0.9169,0.3875
			c-0.1391-0.4737-0.0836-0.8278-0.6778-0.7216c-0.173,0.0309-0.3129,0.1412-0.4716,0.2039
			C33.4272,12.7568,33.4309,12.6916,33.4485,12.6744z"/>
		<path fill="#80BC41" d="M35.8155,13.5761c-0.0003-1.6766,0.1103-1.955-0.0679-2.2447c-0.1227-0.1995-0.3011-0.3381-0.4047-0.556
			c-0.7879-1.657,0.5076-2.8922,1.2291-2.1477c0.2581,0.2663,0.4626,0.5575,0.7547,0.7955c0.256,0.2086,0.7722,0.4049,0.6267,0.8293
			c-0.112,0.3267-0.3686,0.4548-0.3924,0.8384c-0.0305,0.4919,0.0136,0.889,0.1784,1.3468c0.143,0.3972,0.2887,0.7947,0.387,1.2051
			c-0.2817-0.2024-0.4581-0.9304-0.7793-0.3823c-0.1308,0.2233-0.192,0.6253-0.1624,0.868
			C37.0146,13.9846,36.0231,12.669,35.8155,13.5761z"/>
	</g>
	<g>
		<g>
			<path fill="#EE4541" d="M25.9777,28.4695c-0.825,4.1382-4.2296,6.9272-7.595,6.2725c-0.4666-0.1284-0.445-0.119-0.8773,0
				c-3.4861,0.6468-6.8117-2.2729-7.6081-6.2725c-0.825-4.1382,1.2047-8.0142,4.5308-8.7214
				c0.0262-0.0128,0.0393-0.0128,0.0524-0.0128c1.0476-0.2225,2.082-0.0921,3.051,0.2877c0.821,0.3688,1.6158-0.7433,3.863-0.2877
				c0.0131,0,0.0393,0,0.0524,0.0128C24.512,20.364,26.8715,24.0328,25.9777,28.4695z"/>
			<path fill="#E02426" d="M18.3814,34.743c-1.0251-0.2455-1.5718,0.4831-3.5725-0.1944c1.0594-0.559,2.4775-0.1667,3.4268-0.9155
				c0.326-0.2567,0.548-0.6175,0.8185-0.9298c1.0197-1.1929,2.7608-1.7549,3.406-3.1839c0.4578-1.0195,0.2289-2.1989,0.4023-3.3017
				c0.0832-0.5067,0.2497-0.9921,0.3052-1.4985c0.1755-1.5403-0.6621-2.9878-0.4301-4.5089
				C29.325,23.5845,25.647,36.1503,18.3814,34.743z"/>
			<path fill="#E02426" d="M21.4683,19.9329c0,2.6977-7.0547,2.6964-7.0547,0c0-0.0627,0.0069-0.125,0.0208-0.1873
				c0.0138-0.0071,0.0347-0.0139,0.0486-0.0139c0.9515-0.1936,2.0209-0.1189,3.0522,0.2981
				c0.7474,0.315,1.1173-0.3953,2.7747-0.3953c0.3607-0.0068,0.7214,0.021,1.0891,0.0972c0.0139,0,0.0347,0.0068,0.0486,0.0139
				C21.4614,19.8079,21.4683,19.8702,21.4683,19.9329z"/>
			<path opacity="0.2" fill="#FFFFFF" d="M12.6361,22.2905c0.5245-0.3582,2.2093-0.4504,2.5703,0.0235
				c0.237,0.3112,0.1235,0.8629-0.1251,1.1744c-0.4667,0.5849-2.6367,1.1367-2.7155,4.8729
				c-0.0343,1.6253,0.4496,3.0076,0.9133,4.4654C10.097,30.2334,10.3164,23.8746,12.6361,22.2905z"/>
		</g>
		<path fill="#C02126" d="M16.9971,20.5421c0,0,0.8162-0.4408,1.9097,0.0507C18.9068,20.5927,17.8392,20.9346,16.9971,20.5421z"/>
		<g>
			<path fill="#589441" d="M21.7367,15.9474c-0.0485-0.127-0.1911-0.1892-0.3179-0.1405c-3.3721,1.3054-3.669,4.0336-3.6907,4.6852
				c0,0.0751,0.4897,0.0751,0.4896,0c0.0105-0.5618,0.239-3.0113,3.3788-4.2266C21.7232,16.2163,21.7861,16.074,21.7367,15.9474z"/>
		</g>
	</g>
</g>
</svg>
