<?xml version="1.0" encoding="utf-8"?>
<!-- Generator: Adobe Illustrator 18.0.0, SVG Export Plug-In . SVG Version: 6.00 Build 0)  -->
<!DOCTYPE svg PUBLIC "-//W3C//DTD SVG 1.1//EN" "http://www.w3.org/Graphics/SVG/1.1/DTD/svg11.dtd">
<svg version="1.1" id="Layer_1" xmlns="http://www.w3.org/2000/svg" xmlns:xlink="http://www.w3.org/1999/xlink" x="0px" y="0px"
	 viewBox="0 0 50 50" enable-background="new 0 0 50 50" xml:space="preserve">
<g>
	<g>
		<g>
			<g>
				<g>
					<g enable-background="new    ">
						<g>
							<path fill="#D7D7D7" d="M31.5488,18.9394l-0.0233,8.5925l-0.0465,13.6445c0,2.3918-1.8244,4.293-3.9351,5.5188
								c-5.2856,3.0732-13.8777,3.0732-19.1982,0c-2.1459-1.2341-4.005-3.1453-4.005-5.6l0.0349-13.5632l0.0233-8.6624
								c0,2.026,1.3389,4.0521,4.005,5.5887c5.3206,3.0737,13.9126,3.0737,19.1982,0
								C30.2215,22.9329,31.5371,20.9421,31.5488,18.9394z"/>
						</g>
						<g>
							<path fill="#A9C838" d="M31.5782,22.4321c-0.0071,1.5595,0.0259-5.6493-0.0699,15.2516
								C31.5084,48.14,4.37,47.804,4.37,37.6024c0.0798-20.8853,0.0522-13.6819,0.0582-15.2402
								C4.4282,32.4509,31.5169,32.9685,31.5782,22.4321z"/>
						</g>
						<g>
							<path fill="#E8E8E8" d="M27.5389,13.3458c5.3152,3.0688,5.347,8.0457,0.0625,11.1167
								c-5.2806,3.0687-13.8768,3.0689-19.192,0.0001c-5.319-3.0709-5.3431-8.048-0.0625-11.1167
								C13.6313,10.275,22.2198,10.2749,27.5389,13.3458z"/>
						</g>
					</g>
				</g>
			</g>
			<g>
				<g enable-background="new    ">
					<g>
						<path fill="#BFBFBF" d="M27.7011,12.1522l-0.0452,4.8907c-0.0041,1.4337-0.9462,2.8653-2.8292,3.9597
							c-3.7883,2.2015-9.9553,2.2017-13.7685,0.0001c-1.9199-1.1084-2.8782-2.563-2.874-4.0152l0.0452-4.8907
							c-0.0041,1.4522,0.9542,2.9068,2.874,4.0152c3.8132,2.2015,9.9802,2.2014,13.7685-0.0001
							C26.7549,15.0175,27.697,13.5858,27.7011,12.1522z"/>
					</g>
					<g>
						<path fill="#F9A62B" d="M24.827,8.1366c3.8132,2.2016,3.8359,5.7721,0.0448,7.9752
							c-3.7883,2.2015-9.9553,2.2017-13.7685,0.0001c-3.8159-2.2031-3.8332-5.7737-0.0448-7.9752
							C14.8496,5.9335,21.0111,5.9335,24.827,8.1366z"/>
					</g>
				</g>
			</g>
			<g>
				<g enable-background="new    ">
					<g>
						<path fill="#D7D7D7" d="M28.7476,7.2757l-0.0501,5.4152c-0.0045,1.5874-1.0476,3.1726-3.1326,4.3843
							c-4.1946,2.4376-11.0229,2.4377-15.245,0.0001c-2.1257-1.2273-3.1868-2.8378-3.1822-4.4458l0.0501-5.4152
							c-0.0046,1.6079,1.0565,3.2185,3.1823,4.4458c4.2221,2.4376,11.0504,2.4375,15.245-0.0001
							C27.6999,10.4483,28.7431,8.8631,28.7476,7.2757z"/>
					</g>
					<g>
						<path fill="#E8E8E8" d="M25.5653,2.8295c4.2221,2.4376,4.2473,6.3911,0.0496,8.8305
							c-4.1946,2.4376-11.0229,2.4377-15.245,0.0001c-4.2251-2.4394-4.2442-6.3928-0.0496-8.8305
							C14.518,0.3902,21.3402,0.3901,25.5653,2.8295z"/>
						<g>
							<path fill="#BFBFBF" d="M10.5781,3.9725C14.6117,1.6272,21.2316,1.6192,25.309,3.973
								c1.7383,1.0037,2.7461,2.2869,2.8955,3.6437c0.0132-0.1182,0.0306-0.2364,0.0304-0.3556
								c-0.002-1.4835-1.0413-2.8989-2.9259-3.9872c-4.0732-2.3514-10.6926-2.3485-14.7309-0.0005
								C8.72,4.3527,7.6982,5.7576,7.7002,7.229c0.0001,0.1152,0.0178,0.2289,0.0304,0.3431
								C7.8805,6.2319,8.8708,4.9642,10.5781,3.9725z"/>
							<path fill="#D7D7D7" d="M10.6262,11.2158c1.9653,1.1349,4.5848,1.76,7.3765,1.76c2.7912,0,5.4031-0.6251,7.3544-1.759
								c1.7073-0.9922,2.6976-2.2593,2.8474-3.6001c-0.1494-1.3568-1.1572-2.64-2.8955-3.6437
								c-4.0732-2.3514-10.6926-2.3485-14.7309-0.0005C8.8708,4.9642,7.8805,6.2319,7.7307,7.5721
								C7.8801,8.9289,8.8879,10.2121,10.6262,11.2158z"/>
						</g>
					</g>
				</g>
			</g>
		</g>
	</g>
	<g>
		<path fill="#E8E8E8" d="M42.8441,44.223l-3.7064-0.8275l0.9251-4.1435l3.7064,0.8275c1.1439,0.2554,1.8636,1.3889,1.6082,2.5327
			C45.1245,43.7448,43.9989,44.4808,42.8441,44.223z"/>
		<path fill="#E02426" d="M36.5944,38.4776l3.4683,0.7744l-0.9251,4.1435l-3.4683-0.7744
			c-1.1439-0.2554-1.8636-1.3889-1.6082-2.5327C34.3139,38.9558,35.4395,38.2198,36.5944,38.4776z"/>
		<g>
			<path fill="#EE4541" d="M40.1227,42.9733c-0.6499,0.7071-1.4106,0.5417-1.6992-0.3693
				c-0.2886-0.9111,0.0043-2.2229,0.6541-2.9299c0.6499-0.7071,1.4107-0.5416,1.6993,0.3694
				C41.0654,40.9545,40.7726,42.2663,40.1227,42.9733z"/>
		</g>
	</g>
	<g>
		<path fill="#E8E8E8" d="M42.3474,38.3326l-3.1455-2.1279l2.3789-3.5165l3.1455,2.1279c0.9708,0.6567,1.2252,1.9751,0.5685,2.9458
			C44.6445,38.7232,43.3274,38.9956,42.3474,38.3326z"/>
		<path fill="#E02426" d="M38.6373,30.6969l2.9435,1.9912l-2.3789,3.5165l-2.9435-1.9912
			c-0.9708-0.6567-1.2252-1.9751-0.5685-2.9458C36.3402,30.3063,37.6572,30.0339,38.6373,30.6969z"/>
		<g>
			<path fill="#EE4541" d="M40.2731,36.1728c-0.8637,0.4198-1.511-0.0128-1.4458-0.9662s0.8184-2.0668,1.6821-2.4866
				s1.511,0.0128,1.4458,0.9663S41.1368,35.7529,40.2731,36.1728z"/>
		</g>
	</g>
</g>
</svg>
