<?xml version="1.0" encoding="utf-8"?>
<!-- Generator: Adobe Illustrator 18.0.0, SVG Export Plug-In . SVG Version: 6.00 Build 0)  -->
<!DOCTYPE svg PUBLIC "-//W3C//DTD SVG 1.1//EN" "http://www.w3.org/Graphics/SVG/1.1/DTD/svg11.dtd">
<svg version="1.1" id="Layer_1" xmlns="http://www.w3.org/2000/svg" xmlns:xlink="http://www.w3.org/1999/xlink" x="0px" y="0px"
	 viewBox="0 0 50 50" enable-background="new 0 0 50 50" xml:space="preserve">
<g>
	<g>
		<g>
			<g>
				<g>
					<polygon fill="#686868" points="39.3892,12.9583 39.3011,44.016 17.5056,31.4323 17.5937,0.3746 					"/>
				</g>
				<g>
					<g enable-background="new    ">
						<g>
							<polygon fill="#E8E8E8" points="10.519,36.2976 18.247,31.8066 39.3892,44.013 31.6612,48.504 							"/>
						</g>
						<g>
							<polygon fill="#BFBFBF" points="10.605,5.9905 18.333,1.4995 18.247,31.8066 10.519,36.2976 							"/>
						</g>
						<g>
							<g>
								<polygon fill="#E8E8E8" points="10.582,15.6732 18.31,11.1822 40.1306,23.7804 33.0251,28.6308 								"/>
							</g>
							<g>
								<g enable-background="new    ">
									<g>
										<polygon fill="#D7D7D7" points="33.0251,28.6308 33.0228,29.4459 10.5811,16.4873 10.5834,15.6722 										"/>
									</g>
								</g>
							</g>
						</g>
						<g>
							<g>
								<polygon fill="#E8E8E8" points="10.582,26.0253 18.31,21.5343 40.1306,34.1325 33.0251,38.9828 								"/>
							</g>
							<g>
								<g enable-background="new    ">
									<g>
										<polygon fill="#D7D7D7" points="33.0251,38.9828 33.0228,39.798 10.5811,26.8394 10.5834,26.0243 										"/>
									</g>
								</g>
							</g>
						</g>
						<g>
							<polygon fill="#BFBFBF" points="32.4026,17.8232 40.1306,13.3321 40.0405,45.1343 32.3125,49.6254 							"/>
						</g>
						<g>
							<polygon fill="#E8E8E8" points="9.9595,4.8656 17.6875,0.3746 40.1306,13.3321 32.4026,17.8232 							"/>
						</g>
						<g>
							<path fill="#D7D7D7" d="M9.9595,4.8656l22.4431,12.9575l-0.0902,31.8022L9.8694,36.6679L9.9595,4.8656z M31.6612,48.504
								l0.0859-30.307L10.605,5.9905L10.519,36.2976L31.6612,48.504"/>
						</g>
					</g>
				</g>
			</g>
		</g>
		<g>
			<g>
				<g>
					<g enable-background="new    ">
						<g>
							<path fill="#66C5B9" d="M16.1456,25.9838c0.0014,0.2176-0.1423,0.4339-0.4282,0.6003c-0.5676,0.3272-1.4894,0.3272-2.0528,0
								c-0.0128-0.0071-0.0256-0.0142-0.037-0.0227c-0.2575-0.1608-0.3841-0.3656-0.3855-0.569l-0.0014-2.3416
								c0.0014-0.4666,0.1095-0.929,0.3187-1.3472l0.3827-0.7653c0.0683-0.138,0.1038-0.2902,0.1038-0.4439v-0.5875h1.2946v0.589
								c0,0.1522,0.0356,0.303,0.1038,0.4424l0.0569,0.1138l0.3272,0.6586c0.2049,0.414,0.3144,0.8706,0.3144,1.333L16.1456,25.9838
								z"/>
						</g>
					</g>
				</g>
				<g>
					<path fill="#1FB498" d="M13.2403,25.9341l0.0067,0.0616c0.0006,0.2131,0.1406,0.4258,0.4205,0.5885
						c0.563,0.3272,1.4796,0.3272,2.0463,0c0.2853-0.1647,0.4278-0.3809,0.4271-0.5967l-0.0067-0.0616
						c0.0006,0.2158-0.1418,0.432-0.4271,0.5967c-0.5667,0.3272-1.4833,0.3272-2.0463,0
						C13.3809,26.36,13.2409,26.1472,13.2403,25.9341z"/>
				</g>
				<g>
					<g>
						<g enable-background="new    ">
							<g>
								<path fill="#F9A62B" d="M14.2374,20.2425c-0.2536,0.1464-0.2551,0.3838-0.003,0.5303c0.2519,0.1464,0.662,0.1464,0.9155,0
									c0.2537-0.1465,0.2549-0.3839,0.003-0.5303C14.9009,20.096,14.4912,20.096,14.2374,20.2425z"/>
							</g>
						</g>
					</g>
					<g>
						<g enable-background="new    ">
							<g>
								<path fill="#686868" d="M13.8967,20.3709l0.0037,0.537c0.0003,0.1175,0.0775,0.2348,0.2318,0.3244
									c0.3104,0.1804,0.8157,0.1804,1.1281,0c0.1573-0.0908,0.2358-0.21,0.2355-0.329l-0.0037-0.537
									c0.0003,0.119-0.0782,0.2382-0.2355,0.329c-0.3124,0.1804-0.8177,0.1804-1.1281,0
									C13.9743,20.6056,13.8971,20.4883,13.8967,20.3709z"/>
							</g>
							<g>
								<path fill="#787677" d="M14.1322,20.0419c-0.3124,0.1804-0.3143,0.4729-0.0037,0.6534c0.3104,0.1804,0.8157,0.1804,1.1281,0
									c0.3127-0.1805,0.3141-0.4731,0.0037-0.6534C14.9497,19.8614,14.4449,19.8614,14.1322,20.0419z"/>
								<g>
									<path fill="#686868" d="M14.1643,20.1372c0.1416-0.0818,0.3309-0.1268,0.5328-0.1268s0.3905,0.045,0.5311,0.1267
										c0.1202,0.0699,0.1892,0.1579,0.1981,0.2498c0.0006-0.0065,0.0018-0.013,0.0018-0.0195
										c0.0001-0.0992-0.0708-0.1951-0.1999-0.2701c-0.1406-0.0817-0.3292-0.1267-0.5311-0.1267s-0.3911,0.045-0.5328,0.1268
										c-0.131,0.0757-0.2033,0.1724-0.2034,0.2724c0,0.0068,0.0011,0.0135,0.0018,0.0202
										C13.9716,20.297,14.0418,20.2079,14.1643,20.1372z"/>
									<path fill="#929393" d="M14.1608,20.6399c0.1404,0.0816,0.329,0.1266,0.5311,0.1266s0.3912-0.045,0.5327-0.1267
										c0.1225-0.0707,0.1928-0.1599,0.2017-0.2529c-0.0089-0.0919-0.0779-0.1799-0.1981-0.2498
										c-0.1406-0.0817-0.3292-0.1267-0.5311-0.1267s-0.3911,0.045-0.5328,0.1268c-0.1225,0.0707-0.1927,0.1599-0.2016,0.2529
										C13.9715,20.4819,14.0405,20.57,14.1608,20.6399z"/>
								</g>
							</g>
						</g>
					</g>
				</g>
			</g>
			<path opacity="0.5" fill="#3CBCA1" d="M16.1456,25.9838c0.0052,0.788-1.6112,1.1055-2.481,0.6003
				c-0.0128-0.0071-0.0256-0.0142-0.037-0.0227c0.1238-0.0299,0.2191-0.1124,0.3514-0.1707c0.336-0.1497,1.1134,0.236,1.0897-0.7184
				c-0.0207-1.1189,0.2168-0.79,0.4723-1.3501c0.3887-0.8355-0.6937-1.4697-0.0398-2.6702l0.3272,0.6586
				c0.2049,0.414,0.3144,0.8706,0.3144,1.333L16.1456,25.9838z"/>
		</g>
		<g>
			<g>
				<g>
					<g enable-background="new    ">
						<g>
							<path fill="#FDDB00" d="M21.1068,28.8919c0.0014,0.2176-0.1423,0.4339-0.4282,0.6003c-0.5676,0.3272-1.4894,0.3272-2.0528,0
								c-0.0128-0.0071-0.0256-0.0142-0.037-0.0227c-0.2575-0.1608-0.3841-0.3656-0.3855-0.569l-0.0014-2.3416
								c0.0014-0.4666,0.1095-0.929,0.3187-1.3472l0.3827-0.7653c0.0683-0.138,0.1038-0.2902,0.1038-0.4439V23.415h1.2946v0.589
								c0,0.1522,0.0356,0.303,0.1038,0.4424l0.0569,0.1138l0.3272,0.6586c0.2049,0.414,0.3144,0.8706,0.3144,1.333L21.1068,28.8919
								z"/>
						</g>
					</g>
				</g>
				<g>
					<path fill="#F9A62B" d="M18.2015,28.8422l0.0067,0.0616c0.0006,0.2131,0.1406,0.4258,0.4205,0.5885
						c0.563,0.3272,1.4796,0.3272,2.0463,0c0.2853-0.1647,0.4278-0.3809,0.4271-0.5967l-0.0067-0.0616
						c0.0006,0.2158-0.1418,0.432-0.4271,0.5967c-0.5667,0.3272-1.4833,0.3272-2.0463,0
						C18.3421,29.2681,18.2021,29.0553,18.2015,28.8422z"/>
				</g>
				<g>
					<g>
						<g enable-background="new    ">
							<g>
								<path fill="#F9A62B" d="M19.1986,23.1506c-0.2536,0.1464-0.2551,0.3838-0.003,0.5303c0.2519,0.1464,0.662,0.1464,0.9155,0
									c0.2537-0.1465,0.2549-0.3839,0.003-0.5303C19.862,23.0041,19.4523,23.0041,19.1986,23.1506z"/>
							</g>
						</g>
					</g>
					<g>
						<g enable-background="new    ">
							<g>
								<path fill="#BFBFBF" d="M18.8579,23.279l0.0037,0.537c0.0003,0.1175,0.0775,0.2348,0.2318,0.3244
									c0.3104,0.1804,0.8157,0.1804,1.1281,0c0.1573-0.0908,0.2358-0.21,0.2355-0.329l-0.0037-0.537
									c0.0003,0.119-0.0782,0.2382-0.2355,0.329c-0.3124,0.1804-0.8177,0.1804-1.1281,0
									C18.9354,23.5137,18.8582,23.3964,18.8579,23.279z"/>
							</g>
							<g>
								<path fill="#E8E8E8" d="M19.0934,22.95c-0.3124,0.1804-0.3143,0.4729-0.0037,0.6534c0.3104,0.1804,0.8157,0.1804,1.1281,0
									c0.3127-0.1805,0.3141-0.4731,0.0037-0.6534C19.9109,22.7694,19.406,22.7694,19.0934,22.95z"/>
								<g>
									<path fill="#BFBFBF" d="M19.1254,23.0453c0.1416-0.0818,0.3309-0.1268,0.5328-0.1268c0.2019,0,0.3905,0.045,0.5311,0.1267
										c0.1202,0.0699,0.1892,0.1579,0.1981,0.2498c0.0006-0.0065,0.0018-0.013,0.0018-0.0195
										c0.0001-0.0992-0.0708-0.1951-0.1999-0.2701c-0.1406-0.0817-0.3292-0.1267-0.5311-0.1267
										c-0.2019,0-0.3911,0.045-0.5328,0.1268c-0.131,0.0757-0.2033,0.1724-0.2034,0.2724c0,0.0068,0.0011,0.0135,0.0018,0.0202
										C18.9327,23.2051,19.003,23.116,19.1254,23.0453z"/>
									<path fill="#D7D7D7" d="M19.122,23.5479c0.1404,0.0816,0.329,0.1266,0.5311,0.1266s0.3912-0.045,0.5327-0.1267
										c0.1225-0.0707,0.1928-0.1599,0.2017-0.2529c-0.0089-0.0919-0.0779-0.1799-0.1981-0.2498
										c-0.1406-0.0817-0.3292-0.1267-0.5311-0.1267c-0.2019,0-0.3911,0.045-0.5328,0.1268
										c-0.1225,0.0707-0.1927,0.1599-0.2016,0.2529C18.9327,23.39,19.0017,23.4781,19.122,23.5479z"/>
								</g>
							</g>
						</g>
					</g>
				</g>
			</g>
			<path opacity="0.5" fill="#EBB41F" d="M21.1068,28.8919c0.0014,0.2176-0.1423,0.4339-0.4282,0.6003
				c-0.5676,0.3272-1.4894,0.3272-2.0528,0c-0.0128-0.0071-0.0256-0.0142-0.037-0.0227c0.1238-0.0299,0.2191-0.1124,0.3514-0.1707
				c0.336-0.1497,1.1134,0.236,1.0897-0.7184c-0.0207-1.1189,0.2168-0.79,0.4723-1.3501c0.3887-0.8355-0.6937-1.4697-0.0398-2.6702
				l0.3272,0.6586c0.2049,0.414,0.3144,0.8706,0.3144,1.333L21.1068,28.8919z"/>
		</g>
		<g>
			<g>
				<g>
					<g enable-background="new    ">
						<g>
							<path fill="#A9C838" d="M26.0679,31.8c0.0014,0.2176-0.1423,0.4339-0.4282,0.6003c-0.5676,0.3272-1.4894,0.3272-2.0528,0
								c-0.0128-0.0071-0.0256-0.0142-0.037-0.0227c-0.2575-0.1608-0.3841-0.3656-0.3855-0.569L23.163,29.467
								c0.0014-0.4666,0.1095-0.929,0.3187-1.3472l0.3827-0.7653c0.0683-0.138,0.1038-0.2902,0.1038-0.4439V26.323h1.2946v0.589
								c0,0.1522,0.0356,0.303,0.1038,0.4424l0.0569,0.1138l0.3272,0.6586c0.2049,0.414,0.3144,0.8706,0.3144,1.333L26.0679,31.8z"
								/>
						</g>
					</g>
				</g>
				<g>
					<path fill="#73AE43" d="M23.1626,31.7503l0.0067,0.0616c0.0006,0.2131,0.1406,0.4258,0.4205,0.5885
						c0.563,0.3272,1.4796,0.3272,2.0463,0c0.2853-0.1647,0.4278-0.3809,0.4271-0.5967l-0.0067-0.0616
						c0.0006,0.2158-0.1418,0.432-0.4271,0.5967c-0.5667,0.3272-1.4833,0.3272-2.0463,0
						C23.3032,32.1762,23.1632,31.9634,23.1626,31.7503z"/>
				</g>
				<g>
					<g>
						<g enable-background="new    ">
							<g>
								<path fill="#F9A62B" d="M24.1597,26.0587c-0.2536,0.1464-0.2551,0.3838-0.003,0.5303c0.2519,0.1464,0.662,0.1464,0.9155,0
									c0.2537-0.1465,0.2549-0.3839,0.003-0.5303C24.8232,25.9122,24.4135,25.9122,24.1597,26.0587z"/>
							</g>
						</g>
					</g>
					<g>
						<g enable-background="new    ">
							<g>
								<path fill="#BFBFBF" d="M23.819,26.1871l0.0037,0.537c0.0003,0.1175,0.0775,0.2348,0.2318,0.3244
									c0.3104,0.1804,0.8157,0.1804,1.1281,0c0.1573-0.0908,0.2358-0.21,0.2355-0.329l-0.0037-0.537
									c0.0003,0.119-0.0782,0.2382-0.2355,0.329c-0.3124,0.1804-0.8177,0.1804-1.1281,0
									C23.8966,26.4218,23.8194,26.3045,23.819,26.1871z"/>
							</g>
							<g>
								<path fill="#E8E8E8" d="M24.0545,25.858c-0.3124,0.1804-0.3143,0.4729-0.0037,0.6534c0.3104,0.1804,0.8157,0.1804,1.1281,0
									c0.3127-0.1805,0.3141-0.4731,0.0037-0.6534C24.872,25.6775,24.3672,25.6775,24.0545,25.858z"/>
								<g>
									<path fill="#BFBFBF" d="M24.0866,25.9534c0.1416-0.0818,0.3309-0.1268,0.5328-0.1268s0.3905,0.045,0.5311,0.1267
										c0.1202,0.0699,0.1892,0.1579,0.1981,0.2498c0.0006-0.0065,0.0018-0.013,0.0018-0.0195
										c0.0001-0.0992-0.0708-0.1951-0.1999-0.2701c-0.1406-0.0817-0.3292-0.1267-0.5311-0.1267s-0.3911,0.045-0.5328,0.1268
										c-0.131,0.0757-0.2033,0.1724-0.2034,0.2724c0,0.0068,0.0011,0.0135,0.0018,0.0202
										C23.8939,26.1132,23.9641,26.024,24.0866,25.9534z"/>
									<path fill="#D7D7D7" d="M24.0831,26.456c0.1404,0.0816,0.329,0.1266,0.5311,0.1266s0.3912-0.045,0.5327-0.1267
										c0.1225-0.0707,0.1928-0.1599,0.2017-0.2529c-0.0089-0.0919-0.0779-0.1799-0.1981-0.2498
										c-0.1406-0.0817-0.3292-0.1267-0.5311-0.1267s-0.3911,0.045-0.5328,0.1268c-0.1225,0.0707-0.1927,0.1599-0.2016,0.2529
										C23.8938,26.2981,23.9628,26.3862,24.0831,26.456z"/>
								</g>
							</g>
						</g>
					</g>
				</g>
			</g>
			<path opacity="0.5" fill="#80BC41" d="M26.0679,31.8c0.0014,0.2176-0.1423,0.4339-0.4282,0.6003
				c-0.5676,0.3272-1.4894,0.3272-2.0528,0c-0.0128-0.0071-0.0256-0.0142-0.037-0.0227c0.1238-0.0299,0.2191-0.1124,0.3514-0.1707
				c0.336-0.1497,1.1134,0.236,1.0897-0.7184c-0.0207-1.1189,0.2168-0.79,0.4723-1.3501c0.3887-0.8355-0.6937-1.4697-0.0398-2.6702
				l0.3272,0.6586c0.2049,0.414,0.3144,0.8706,0.3144,1.333L26.0679,31.8z"/>
		</g>
		<g>
			<g>
				<g>
					<g enable-background="new    ">
						<g>
							<path fill="#F2961F" d="M31.0291,34.7081c0.0014,0.2176-0.1423,0.4339-0.4282,0.6003c-0.5676,0.3272-1.4894,0.3272-2.0528,0
								c-0.0128-0.0071-0.0256-0.0142-0.037-0.0227c-0.2575-0.1608-0.3841-0.3656-0.3855-0.569l-0.0014-2.3416
								c0.0014-0.4666,0.1095-0.929,0.3187-1.3472l0.3827-0.7653c0.0683-0.138,0.1038-0.2902,0.1038-0.4439v-0.5875h1.2946v0.589
								c0,0.3685,0.1654,0.5123,0.4879,1.2148c0.2049,0.414,0.3144,0.8706,0.3144,1.333L31.0291,34.7081z"/>
						</g>
					</g>
				</g>
				<g>
					<path fill="#D34A27" d="M28.1238,34.6584l0.0067,0.0616c0.0006,0.2131,0.1406,0.4258,0.4205,0.5885
						c0.563,0.3272,1.4796,0.3272,2.0463,0c0.2853-0.1647,0.4278-0.3809,0.4271-0.5967l-0.0067-0.0616
						c0.0006,0.2158-0.1418,0.432-0.4271,0.5967c-0.5667,0.3272-1.4833,0.3272-2.0463,0
						C28.2644,35.0843,28.1244,34.8715,28.1238,34.6584z"/>
				</g>
				<g>
					<g>
						<g enable-background="new    ">
							<g>
								<path fill="#F9A62B" d="M29.1209,28.9668c-0.2536,0.1464-0.2551,0.3838-0.003,0.5303c0.2519,0.1464,0.662,0.1464,0.9155,0
									c0.2537-0.1465,0.2549-0.3839,0.003-0.5303C29.7843,28.8203,29.3746,28.8203,29.1209,28.9668z"/>
							</g>
						</g>
					</g>
					<g>
						<g enable-background="new    ">
							<g>
								<path fill="#BFBFBF" d="M28.7802,29.0951l0.0037,0.537c0.0003,0.1175,0.0775,0.2348,0.2318,0.3244
									c0.3104,0.1804,0.8157,0.1804,1.1281,0c0.1573-0.0908,0.2358-0.21,0.2355-0.329l-0.0037-0.537
									c0.0003,0.119-0.0782,0.2382-0.2355,0.329c-0.3124,0.1804-0.8177,0.1804-1.1281,0
									C28.8577,29.3299,28.7805,29.2126,28.7802,29.0951z"/>
							</g>
							<g>
								<path fill="#E8E8E8" d="M29.0157,28.7661c-0.3124,0.1804-0.3143,0.4729-0.0037,0.6534c0.3104,0.1804,0.8157,0.1804,1.1281,0
									c0.3127-0.1805,0.3141-0.4731,0.0037-0.6534C29.8332,28.5856,29.3283,28.5856,29.0157,28.7661z"/>
								<g>
									<path fill="#BFBFBF" d="M29.0477,28.8614c0.1416-0.0818,0.3309-0.1268,0.5327-0.1268c0.2019,0,0.3905,0.045,0.5311,0.1267
										c0.1202,0.0699,0.1892,0.1579,0.1981,0.2498c0.0006-0.0065,0.0018-0.013,0.0018-0.0195
										c0.0001-0.0992-0.0708-0.1951-0.1999-0.2701c-0.1406-0.0817-0.3292-0.1267-0.5311-0.1267
										c-0.2019,0-0.3911,0.045-0.5327,0.1268c-0.131,0.0757-0.2033,0.1724-0.2034,0.2724c0,0.0068,0.0011,0.0135,0.0018,0.0202
										C28.855,29.0213,28.9253,28.9321,29.0477,28.8614z"/>
									<path fill="#D7D7D7" d="M29.0443,29.3641c0.1404,0.0816,0.329,0.1266,0.5311,0.1266s0.3912-0.045,0.5327-0.1267
										c0.1225-0.0707,0.1928-0.1599,0.2017-0.2529c-0.0089-0.0919-0.0779-0.1799-0.1981-0.2498
										c-0.1406-0.0817-0.3292-0.1267-0.5311-0.1267c-0.2019,0-0.3911,0.045-0.5327,0.1268
										c-0.1225,0.0707-0.1927,0.1599-0.2016,0.2529C28.855,29.2062,28.924,29.2943,29.0443,29.3641z"/>
								</g>
							</g>
						</g>
					</g>
				</g>
			</g>
			<path opacity="0.5" fill="#E66C24" d="M31.0291,34.7081c0.0014,0.2176-0.1423,0.4339-0.4282,0.6003
				c-0.5676,0.3272-1.4894,0.3272-2.0528,0c-0.0128-0.0071-0.0256-0.0142-0.037-0.0227c0.1238-0.0299,0.2191-0.1124,0.3514-0.1707
				c0.336-0.1497,1.1134,0.236,1.0897-0.7184c-0.0259-1.3987,0.7973-0.9993,0.4837-2.141c-0.1247-0.4476-0.488-1.0774-0.0512-1.8792
				l0.3272,0.6586c0.2049,0.414,0.3144,0.8706,0.3144,1.333L31.0291,34.7081z"/>
		</g>
	</g>
	<g>
		<g>
			<g>
				<g enable-background="new    ">
					<g>
						<path fill="#929393" d="M25.4528,16.5799v0.1954c0,0.0458-0.0289,0.0893-0.0868,0.1231l-3.9894,2.3179
							c-0.1182,0.0675-0.3087,0.0675-0.4269,0l-6.462-3.7312c-0.0603-0.0337-0.0892-0.0796-0.0892-0.1254v-0.1954
							c0,0.0435,0.0289,0.0893,0.0892,0.1231l6.4645,3.7335c0.1158,0.0676,0.3087,0.0676,0.4245,0l3.9894-2.3179
							C25.4238,16.6692,25.4528,16.6234,25.4528,16.5799z"/>
					</g>
					<g>
						<path fill="#B0AFB0" d="M25.3648,16.4548c0.117,0.0676,0.1192,0.1787,0.0014,0.2472l-3.9886,2.3179
							c-0.1178,0.0685-0.3097,0.0676-0.4267,0l-6.4636-3.7318c-0.1186-0.0685-0.1192-0.1787-0.0014-0.2472l3.9886-2.3179
							c0.1178-0.0684,0.3081-0.0685,0.4267,0L25.3648,16.4548z"/>
					</g>
				</g>
				<path fill="#BFBFBF" d="M22.7444,17.5803c-0.0408,0-0.0803-0.0092-0.1081-0.0253l-5.4006-3.1181
					c-0.0205-0.0118-0.0278-0.0233-0.028-0.0282c0-0.0047,0.0073-0.0159,0.0273-0.0275c0.0273-0.016,0.0667-0.0252,0.1074-0.0252
					c0.041,0,0.0806,0.0092,0.1084,0.0253l5.4006,3.1181c0.0205,0.0118,0.0278,0.0233,0.028,0.0282
					c0,0.0047-0.0073,0.0159-0.0271,0.0275C22.8245,17.5712,22.7854,17.5803,22.7444,17.5803z"/>
			</g>
			<g>
				<g>
					<g>
						<path fill="#73AE43" d="M16.6341,14.3208l-0.4977,0.2847L16.4765,15.2l0.4977-0.2847c0.1641-0.0939,0.221-0.3029,0.1271-0.467
							C17.0083,14.2857,16.7998,14.226,16.6341,14.3208z"/>
						<g>
							<path fill="#A9C838" d="M16.3046,15.1819c0.1339,0.078,0.2432,0.0162,0.2443-0.1379s-0.1066-0.3424-0.2405-0.4204
								c-0.1339-0.078-0.2432-0.0162-0.2443,0.1379S16.1707,15.1039,16.3046,15.1819z"/>
						</g>
					</g>
					<g opacity="0.5">
						<path fill="#FFFFFF" d="M15.9447,15.5042l0.5318-0.3042c0.0445-0.025,0.0719-0.079,0.0723-0.156
							c0.0011-0.1541-0.1066-0.3423-0.2404-0.4203c-0.0667-0.0391-0.1278-0.043-0.172-0.0183c0,0-0.0004,0.0002-0.0008,0.0004
							l-0.531,0.3038c-0.1641,0.0939-0.221,0.3029-0.1271,0.467C15.5704,15.5392,15.779,15.599,15.9447,15.5042z"/>
					</g>
				</g>
				<g>
					<g>
						<path fill="#73AE43" d="M17.8807,15.0318l-0.4977,0.2847l0.3401,0.5945l0.4977-0.2847
							c0.1641-0.0939,0.221-0.3029,0.1271-0.467C18.255,14.9967,18.0464,14.937,17.8807,15.0318z"/>
						<g>
							<path fill="#A9C838" d="M17.5512,15.8929c0.1339,0.078,0.2432,0.0162,0.2443-0.1379
								c0.001-0.1542-0.1066-0.3424-0.2405-0.4204c-0.1339-0.078-0.2432-0.0162-0.2443,0.1379S17.4173,15.8149,17.5512,15.8929z"/>
						</g>
					</g>
					<g opacity="0.5">
						<path fill="#FFFFFF" d="M17.1913,16.2152l0.5318-0.3042c0.0445-0.025,0.0719-0.079,0.0723-0.156
							c0.0011-0.1541-0.1066-0.3423-0.2404-0.4203c-0.0667-0.0391-0.1278-0.043-0.172-0.0183c0,0-0.0004,0.0002-0.0008,0.0004
							l-0.531,0.3038c-0.1641,0.0939-0.221,0.3029-0.1271,0.467C16.817,16.2502,17.0256,16.31,17.1913,16.2152z"/>
					</g>
				</g>
				<g>
					<g>
						<path fill="#73AE43" d="M19.1273,15.7427l-0.4977,0.2847l0.3401,0.5945l0.4977-0.2847
							c0.1641-0.0939,0.221-0.3029,0.1271-0.467C19.5016,15.7077,19.293,15.6479,19.1273,15.7427z"/>
						<g>
							<path fill="#A9C838" d="M18.7978,16.6039c0.1339,0.078,0.2432,0.0162,0.2443-0.1379
								c0.001-0.1542-0.1066-0.3424-0.2405-0.4204c-0.1339-0.078-0.2432-0.0162-0.2443,0.1379
								C18.5562,16.3377,18.6639,16.5259,18.7978,16.6039z"/>
						</g>
					</g>
					<g opacity="0.5">
						<path fill="#FFFFFF" d="M18.4379,16.9262l0.5318-0.3042c0.0445-0.025,0.0719-0.079,0.0723-0.156
							c0.0011-0.1541-0.1066-0.3423-0.2404-0.4203c-0.0667-0.0391-0.1278-0.043-0.172-0.0183c0,0-0.0004,0.0002-0.0008,0.0004
							l-0.531,0.3038c-0.1641,0.0939-0.221,0.3029-0.1271,0.467C18.0636,16.9612,18.2722,17.021,18.4379,16.9262z"/>
					</g>
				</g>
				<g>
					<g>
						<path fill="#73AE43" d="M20.3739,16.4537l-0.4977,0.2847l0.3401,0.5945l0.4977-0.2847
							c0.1641-0.0939,0.221-0.3029,0.1271-0.467C20.7482,16.4187,20.5396,16.3589,20.3739,16.4537z"/>
						<g>
							<path fill="#A9C838" d="M20.0444,17.3149c0.1339,0.078,0.2432,0.0162,0.2443-0.1379
								c0.001-0.1542-0.1066-0.3424-0.2405-0.4204c-0.1339-0.078-0.2432-0.0162-0.2443,0.1379
								C19.8029,17.0486,19.9105,17.2369,20.0444,17.3149z"/>
						</g>
					</g>
					<g opacity="0.5">
						<path fill="#FFFFFF" d="M19.6845,17.6371l0.5318-0.3042c0.0445-0.025,0.0719-0.079,0.0723-0.156
							c0.0011-0.1541-0.1066-0.3423-0.2404-0.4203c-0.0667-0.0391-0.1278-0.043-0.172-0.0183c0,0-0.0004,0.0002-0.0008,0.0004
							l-0.531,0.3038c-0.1641,0.0939-0.221,0.3029-0.1271,0.467C19.3102,17.6722,19.5188,17.7319,19.6845,17.6371z"/>
					</g>
				</g>
				<g>
					<g>
						<path fill="#73AE43" d="M21.6205,17.1647l-0.4977,0.2847l0.3401,0.5945l0.4977-0.2847
							c0.1641-0.0939,0.221-0.3029,0.1271-0.467C21.9948,17.1297,21.7862,17.0699,21.6205,17.1647z"/>
						<g>
							<path fill="#A9C838" d="M21.291,18.0258c0.1339,0.078,0.2432,0.0162,0.2443-0.1379c0.001-0.1542-0.1066-0.3424-0.2405-0.4204
								c-0.1339-0.078-0.2432-0.0162-0.2443,0.1379C21.0495,17.7596,21.1571,17.9478,21.291,18.0258z"/>
						</g>
					</g>
					<g opacity="0.5">
						<path fill="#FFFFFF" d="M20.9311,18.3481l0.5318-0.3042c0.0445-0.025,0.0719-0.079,0.0723-0.156
							c0.0011-0.1541-0.1066-0.3423-0.2404-0.4203c-0.0667-0.0391-0.1278-0.043-0.172-0.0183c0,0-0.0004,0.0002-0.0008,0.0004
							l-0.531,0.3038c-0.1641,0.0939-0.221,0.3029-0.1271,0.467C20.5568,18.3832,20.7654,18.4429,20.9311,18.3481z"/>
					</g>
				</g>
			</g>
			<g>
				<g>
					<g>
						<path fill="#73AE43" d="M18.8284,13.056l-0.4977,0.2847l0.3401,0.5945l0.4977-0.2847c0.1641-0.0939,0.221-0.3029,0.1271-0.467
							C19.2027,13.0209,18.9941,12.9612,18.8284,13.056z"/>
						<g>
							<path fill="#A9C838" d="M18.4989,13.9171c0.1339,0.078,0.2432,0.0162,0.2443-0.1379
								c0.001-0.1542-0.1066-0.3424-0.2405-0.4204c-0.1339-0.078-0.2432-0.0162-0.2443,0.1379
								C18.2573,13.6509,18.365,13.8391,18.4989,13.9171z"/>
						</g>
					</g>
				</g>
				<g>
					<g>
						<path fill="#73AE43" d="M20.075,13.7669l-0.4977,0.2847l0.3401,0.5945l0.4977-0.2847c0.1641-0.0939,0.221-0.3029,0.1271-0.467
							C20.4493,13.7319,20.2407,13.6722,20.075,13.7669z"/>
						<g>
							<path fill="#A9C838" d="M19.7455,14.6281c0.1339,0.078,0.2432,0.0162,0.2443-0.1379
								c0.001-0.1542-0.1066-0.3424-0.2405-0.4204c-0.1339-0.078-0.2432-0.0162-0.2443,0.1379
								C19.504,14.3619,19.6116,14.5501,19.7455,14.6281z"/>
						</g>
					</g>
					<g opacity="0.5">
						<path fill="#FFFFFF" d="M19.3856,14.9504l0.5318-0.3042c0.0445-0.025,0.0719-0.079,0.0723-0.156
							c0.0011-0.1541-0.1066-0.3423-0.2404-0.4203c-0.0667-0.0391-0.1278-0.043-0.172-0.0183
							c-0.0004,0.0002-0.0004,0.0002-0.0004,0.0002l-0.5314,0.304c-0.1641,0.0939-0.221,0.3029-0.1271,0.467
							C19.0113,14.9854,19.2199,15.0452,19.3856,14.9504z"/>
					</g>
				</g>
				<g>
					<g>
						<path fill="#73AE43" d="M21.3216,14.4779l-0.4977,0.2847l0.3401,0.5945l0.4977-0.2847
							c0.1641-0.0939,0.221-0.3029,0.1271-0.467C21.6959,14.4429,21.4873,14.3831,21.3216,14.4779z"/>
						<g>
							<path fill="#A9C838" d="M20.9921,15.3391c0.1339,0.078,0.2432,0.0162,0.2443-0.1379
								c0.001-0.1542-0.1066-0.3424-0.2405-0.4204c-0.1339-0.078-0.2432-0.0162-0.2443,0.1379
								C20.7506,15.0728,20.8582,15.2611,20.9921,15.3391z"/>
						</g>
					</g>
					<g opacity="0.5">
						<path fill="#FFFFFF" d="M20.6322,15.6614l0.5318-0.3042c0.0445-0.025,0.0719-0.079,0.0723-0.156
							c0.0011-0.1541-0.1066-0.3423-0.2404-0.4203c-0.0667-0.0391-0.1278-0.043-0.172-0.0183l-0.0004,0.0002l-0.5314,0.304
							c-0.1641,0.0939-0.221,0.3029-0.1271,0.467C20.2579,15.6964,20.4665,15.7561,20.6322,15.6614z"/>
					</g>
				</g>
				<g>
					<g>
						<path fill="#73AE43" d="M22.5682,15.1889l-0.4977,0.2847l0.3401,0.5945l0.4977-0.2847
							c0.1641-0.0939,0.221-0.3029,0.1271-0.467C22.9425,15.1539,22.7339,15.0941,22.5682,15.1889z"/>
						<g>
							<path fill="#A9C838" d="M22.2387,16.0501c0.1339,0.078,0.2432,0.0162,0.2443-0.1379
								c0.001-0.1542-0.1066-0.3424-0.2405-0.4204c-0.1339-0.078-0.2432-0.0162-0.2443,0.1379
								C21.9972,15.7838,22.1049,15.9721,22.2387,16.0501z"/>
						</g>
					</g>
					<g opacity="0.5">
						<path fill="#FFFFFF" d="M21.8788,16.3723l0.5318-0.3042c0.0445-0.025,0.0719-0.079,0.0723-0.156
							c0.0011-0.1541-0.1066-0.3423-0.2404-0.4203c-0.0667-0.0391-0.1278-0.043-0.172-0.0183
							c-0.0004,0.0002-0.0004,0.0002-0.0004,0.0002l-0.5314,0.304c-0.1641,0.0939-0.221,0.3029-0.1271,0.467
							C21.5045,16.4074,21.7131,16.4671,21.8788,16.3723z"/>
					</g>
				</g>
				<g>
					<g>
						<path fill="#73AE43" d="M23.8148,15.8999l-0.4977,0.2847l0.3401,0.5945l0.4977-0.2847
							c0.1641-0.0939,0.221-0.3029,0.1271-0.467C24.1891,15.8649,23.9805,15.8051,23.8148,15.8999z"/>
						<g>
							<path fill="#A9C838" d="M23.4853,16.761c0.1339,0.078,0.2432,0.0162,0.2443-0.1379c0.001-0.1542-0.1066-0.3424-0.2405-0.4204
								s-0.2432-0.0162-0.2443,0.1379C23.2438,16.4948,23.3515,16.683,23.4853,16.761z"/>
						</g>
					</g>
					<g opacity="0.5">
						<path fill="#FFFFFF" d="M23.1254,17.0833l0.5318-0.3042c0.0445-0.025,0.0719-0.079,0.0723-0.156
							c0.0011-0.1541-0.1066-0.3423-0.2404-0.4203c-0.0667-0.0391-0.1278-0.043-0.172-0.0183l-0.0004,0.0002l-0.5314,0.304
							c-0.1641,0.0939-0.221,0.3029-0.1271,0.467C22.7512,17.1183,22.9597,17.1781,23.1254,17.0833z"/>
					</g>
				</g>
			</g>
		</g>
		<g opacity="0.5">
			<path fill="#FFFFFF" d="M18.139,14.2394l0.5318-0.3042c0.0445-0.025,0.0719-0.079,0.0723-0.156
				c0.0011-0.1541-0.1066-0.3423-0.2404-0.4203c-0.0667-0.0391-0.1278-0.043-0.172-0.0183
				c-0.0004,0.0002-0.0004,0.0002-0.0004,0.0002l-0.5314,0.304c-0.1641,0.0939-0.221,0.3029-0.1271,0.467
				C17.7647,14.2744,17.9733,14.3342,18.139,14.2394z"/>
		</g>
	</g>
</g>
</svg>
