<?xml version="1.0" encoding="utf-8"?>
<!-- Generator: Adobe Illustrator 18.0.0, SVG Export Plug-In . SVG Version: 6.00 Build 0)  -->
<!DOCTYPE svg PUBLIC "-//W3C//DTD SVG 1.1//EN" "http://www.w3.org/Graphics/SVG/1.1/DTD/svg11.dtd">
<svg version="1.1" id="Layer_1" xmlns="http://www.w3.org/2000/svg" xmlns:xlink="http://www.w3.org/1999/xlink" x="0px" y="0px"
	 viewBox="0 0 50 50" enable-background="new 0 0 50 50" xml:space="preserve">
<g>
	<g>
		<g enable-background="new    ">
			<g>
				<path fill="#D7D7D7" d="M28.9302,19.7834l-0.0283,24.7068c-0.0025,0.8968-0.5919,1.7924-1.7698,2.4769
					c-2.3697,1.3771-6.2274,1.3772-8.6127,0.0001c-1.2009-0.6934-1.8004-1.6032-1.7978-2.5117l0.0283-24.7068
					c-0.0026,0.9084,0.5969,1.8183,1.7978,2.5117c2.3853,1.3771,6.243,1.3771,8.6127-0.0001
					C28.3383,21.5758,28.9277,20.6802,28.9302,19.7834z"/>
			</g>
			<g>
				<path fill="#E8E8E8" d="M27.1324,17.2715c2.3853,1.3771,2.3995,3.6106,0.028,4.9888c-2.3697,1.3771-6.2274,1.3772-8.6127,0.0001
					c-2.387-1.3781-2.3978-3.6117-0.028-4.9888C20.8912,15.8934,24.7454,15.8934,27.1324,17.2715z"/>
			</g>
		</g>
	</g>
	<g>
		<g enable-background="new    ">
			<g>
				<path fill="#929393" d="M26.8984,16.8426l-0.0189,2.1438c-0.0017,0.5983-0.3949,1.1958-1.1807,1.6525
					c-1.581,0.9188-4.1547,0.9188-5.746,0c-0.8012-0.4626-1.2011-1.0696-1.1994-1.6757l0.0189-2.1438
					c-0.0017,0.606,0.3982,1.2131,1.1994,1.6757c1.5914,0.9188,4.165,0.9187,5.746,0
					C26.5036,18.0384,26.8967,17.4409,26.8984,16.8426z"/>
			</g>
			<g>
				<path fill="#B0AFB0" d="M25.699,15.1668c1.5914,0.9188,1.6009,2.4089,0.0187,3.3283c-1.581,0.9188-4.1547,0.9188-5.746,0
					c-1.5925-0.9194-1.5997-2.4095-0.0187-3.3283C21.5351,14.2474,24.1065,14.2473,25.699,15.1668z"/>
			</g>
		</g>
	</g>
	<g>
		<g enable-background="new    ">
			<g>
				<path fill="#BFBFBF" d="M24.8369,8.2921l-0.0093,9.0223c-0.0044,1.5623-4.0169,1.4835-4.0127-0.0114l0.0093-9.0223
					c-0.0008,0.2993,0.1966,0.599,0.5923,0.8274c0.7858,0.4537,2.0567,0.4537,2.8374,0
					C24.6419,8.8826,24.8361,8.5876,24.8369,8.2921z"/>
			</g>
			<g>
				<path fill="#E8E8E8" d="M23.7917,7.7252c0.5349,0.3088,0.5381,0.8097,0.0063,1.1188c-0.5314,0.3088-1.3966,0.3089-1.9315,0
					c-0.5353-0.3091-0.5377-0.81-0.0063-1.1188C22.392,7.4161,23.2564,7.4161,23.7917,7.7252z"/>
			</g>
		</g>
	</g>
	<g>
		<g enable-background="new    ">
			<g>
				<path fill="#BFBFBF" d="M28.9302,19.8002l-0.0283,2.7825c-0.0025,0.8968-0.5919,1.7924-1.7698,2.4769
					c-2.3697,1.3771-6.2274,1.3772-8.6127,0.0001c-1.2009-0.6934-1.8004-1.6032-1.7978-2.5117l0.0283-2.7825
					c-0.0026,0.9084,0.5969,1.8183,1.7978,2.5117c2.3853,1.3771,6.243,1.3771,8.6127-0.0001
					C28.3383,21.5926,28.9277,20.6971,28.9302,19.8002z"/>
			</g>
		</g>
	</g>
	<g>
		<g enable-background="new    ">
			<g>
				<path fill="#BFBFBF" d="M28.9444,41.7077l-0.0283,2.7825c-0.0025,0.8968-0.5919,1.7924-1.7698,2.4769
					c-2.3697,1.3771-6.2274,1.3772-8.6127,0.0001c-1.2009-0.6934-1.8004-1.6032-1.7978-2.5117l0.0283-2.7825
					c-0.0026,0.9084,0.5969,1.8183,1.7978,2.5117c2.3853,1.3771,6.243,1.3771,8.6127-0.0001
					C28.3525,43.5,28.9418,42.6045,28.9444,41.7077z"/>
			</g>
		</g>
	</g>
	<g>
		<g>
			<g enable-background="new    ">
				<g>
					<polygon fill="#BFBFBF" points="18.6448,11.2529 19.7673,13.9934 19.1896,13.6549 18.0588,10.9148 					"/>
					<path fill="#BFBFBF" d="M22.2187,2.5704c-0.6356-0.3635-1.5105-0.3139-2.4844,0.2475
						c-1.9149,1.1059-3.4666,3.8049-3.4666,6.009c0.0083,1.0974,0.3962,1.8652,1.0152,2.2283l-0.5778-0.3385
						C16.0779,10.3534,15.69,9.5861,15.69,8.4882c-0.0082-2.2037,1.5435-4.9027,3.4666-6.009
						c0.9657-0.561,1.8488-0.6106,2.4761-0.2475L22.2187,2.5704z"/>
				</g>
				<g>
					<path fill="#D7D7D7" d="M19.7372,2.8182c1.9287-1.1136,3.4884-0.2187,3.4947,1.9913c0.005,1.7563-0.971,3.8176-2.3501,5.1476
						l-1.1129,4.0332l-1.1268-2.7401c-1.3716,0.2582-2.3666-0.6653-2.3716-2.4216C16.2643,6.6187,17.8191,3.9257,19.7372,2.8182z"/>
				</g>
			</g>
		</g>
		<g>
			<g enable-background="new    ">
				<g>
					<path fill="#E8E8E8" d="M17.0592,8.7361c0.0018,0.939,0.3338,1.5993,0.8675,1.9111l6.9806,4.057
						c-0.5337-0.3118-0.8657-0.9721-0.8675-1.9112c-0.0055-1.891,1.3224-4.1909,2.9676-5.1409
						c0.8272-0.4769,1.5773-0.5227,2.1184-0.2072l-6.9806-4.057c-0.5411-0.3136-1.2912-0.2697-2.1184,0.2072
						C18.3816,4.5452,17.0537,6.8469,17.0592,8.7361z"/>
				</g>
				<g>
					<path fill="#D7D7D7" d="M27.0071,7.6521c-1.6453,0.9499-2.9735,3.2506-2.9682,5.1411
						c0.0054,1.8892,1.3423,2.6525,2.9876,1.7026c1.6441-0.9492,2.9735-3.252,2.9682-5.1411
						C29.9893,7.4641,28.6512,6.7029,27.0071,7.6521z"/>
				</g>
			</g>
		</g>
	</g>
	<g>
		<g enable-background="new    ">
			<g>
				<path fill="#686868" d="M34.1362,14.2392c-3.2108-2.1787-3.7022-4.405-4.8854-6.2015
					c-0.3119-0.4736-1.1706-0.2445-1.9205,0.1878c-1.4915,0.8616-2.6953,2.948-2.6903,4.6607
					c0.0016,0.8517,0.229,1.6763,0.7864,1.733c2.1159,0.2153,4.3901-0.44,7.8344,1.1812L34.1362,14.2392z"/>
			</g>
			<g>
				<path fill="#4F4D4D" d="M33.6652,14.2673c-0.3551,0.205-0.6418,0.7016-0.6406,1.1096c0.0012,0.4077,0.2897,0.5725,0.6448,0.3675
					c0.3549-0.2049,0.6418-0.7019,0.6406-1.1096C34.3089,14.2267,34.0201,14.0624,33.6652,14.2673z"/>
			</g>
			<g>
				<path fill="#3D3D3D" d="M33.788,14.3827c0.0095,0.0386,0.0239,0.0728,0.024,0.1206c0.0009,0.3208-0.2248,0.7114-0.504,0.8726
					c-0.0434,0.0254-0.0822,0.0313-0.1224,0.0425c0.0546,0.2231,0.2454,0.3057,0.4833,0.1685
					c0.2791-0.1611,0.5048-0.5522,0.5039-0.873C34.1721,14.4427,34.0066,14.3207,33.788,14.3827z"/>
				<path fill="#282828" d="M33.812,14.5033c-0.0001-0.0479-0.0145-0.082-0.024-0.1206c-0.0402,0.0112-0.079,0.0171-0.1223,0.042
					c-0.2794,0.1616-0.5049,0.5522-0.504,0.873c0.0001,0.0474,0.0144,0.0815,0.0239,0.1206
					c0.0402-0.0112,0.079-0.0171,0.1224-0.0425C33.5872,15.2147,33.8129,14.8241,33.812,14.5033z"/>
			</g>
		</g>
	</g>
</g>
</svg>
