<?xml version="1.0" encoding="utf-8"?>
<!-- Generator: Adobe Illustrator 18.0.0, SVG Export Plug-In . SVG Version: 6.00 Build 0)  -->
<!DOCTYPE svg PUBLIC "-//W3C//DTD SVG 1.1//EN" "http://www.w3.org/Graphics/SVG/1.1/DTD/svg11.dtd">
<svg version="1.1" id="Layer_1" xmlns="http://www.w3.org/2000/svg" xmlns:xlink="http://www.w3.org/1999/xlink" x="0px" y="0px"
	 viewBox="0 0 50 50" enable-background="new 0 0 50 50" xml:space="preserve">
<g>
	<g>
		<g>
			<g>
				<g enable-background="new    ">
					<g>
						<path fill="#929393" d="M25.4803,26.2867l-0.0106,20.8798c-0.001,0.3368-0.2223,0.6732-0.6647,0.9303
							c-0.89,0.5172-2.3389,0.5173-3.2348,0c-0.451-0.2604-0.6762-0.6021-0.6752-0.9433l0.0106-20.8798
							c-0.001,0.3412,0.2242,0.6829,0.6752,0.9433c0.8959,0.5172,2.3447,0.5172,3.2348,0
							C25.258,26.9598,25.4793,26.6235,25.4803,26.2867z"/>
					</g>
					<g>
						<path fill="#E8E8E8" d="M24.805,25.3432c0.8959,0.5172,0.9012,1.3561,0.0105,1.8737c-0.89,0.5172-2.3389,0.5173-3.2348,0
							c-0.8965-0.5176-0.9006-1.3565-0.0105-1.8737C22.4609,24.8257,23.9085,24.8256,24.805,25.3432z"/>
					</g>
				</g>
			</g>
			<g>
				<g enable-background="new    ">
					<g>
						<path fill="#787677" d="M25.4856,46.1214l-0.0106,1.0451c-0.001,0.3368-0.2223,0.6732-0.6647,0.9303
							c-0.89,0.5172-2.3389,0.5173-3.2348,0c-0.451-0.2604-0.6762-0.6021-0.6752-0.9433l0.0106-1.0451
							c-0.001,0.3412,0.2242,0.6829,0.6752,0.9433c0.8959,0.5172,2.3447,0.5172,3.2348,0
							C25.2633,46.7946,25.4846,46.4583,25.4856,46.1214z"/>
					</g>
				</g>
			</g>
		</g>
		<g>
			<g>
				<g>
					<g enable-background="new    ">
						<g>
							<polygon fill="#D7D7D7" points="28.9989,35.1715 6.3342,22.0002 20.9979,13.5341 43.6626,26.7054 							"/>
						</g>
						<g>
							<polygon fill="#929393" points="43.6626,26.7054 43.6973,29.3189 29.0336,37.785 28.9989,35.1715 							"/>
						</g>
					</g>
				</g>
				<g>
					<g enable-background="new    ">
						<g>
							<polygon fill="#E8E8E8" points="28.9674,32.5608 6.3027,19.3895 7.1384,18.907 29.8031,32.0783 							"/>
						</g>
						<g>
							<polygon fill="#929393" points="29.8031,32.0783 29.8378,34.6919 29.0021,35.1743 28.9674,32.5608 							"/>
						</g>
					</g>
				</g>
				<g>
					<polygon fill="#BFBFBF" points="29.0336,37.785 6.3688,24.6137 6.3027,19.3895 28.9674,32.5608 					"/>
				</g>
			</g>
			<g>
				<g enable-background="new    ">
					<g>
						<path fill="#4F4D4D" d="M12.1873,27.0584l0.0049-0.7899c0-0.3926,0.2569-0.7852,0.7754-1.0858l-0.0049,0.7899
							C12.449,26.2732,12.1873,26.6658,12.1873,27.0584z"/>
						<path fill="#4F4D4D" d="M23.0147,30.9839l-0.0049,0.7902c-1.4152,0.8238-3.7271,0.8238-5.1568,0l-5.564-3.2135
							c-0.7173-0.4167-1.0759-0.9594-1.0759-1.5072l0.0049-0.7899c0,0.5476,0.3586,1.0905,1.0759,1.5072l5.5639,3.2133
							C19.2828,31.8032,21.5946,31.8032,23.0147,30.9839z"/>
					</g>
					<g>
						<path fill="#686868" d="M23.0133,30.9819c-1.4172,0.8236-3.7305,0.8236-5.157,0l-5.5637-3.2122
							c-1.4265-0.8236-1.4341-2.1635-0.0168-2.9871l0.6901,0.3984c-1.0391,0.6039-1.0336,1.5865,0.0123,2.1904l5.5637,3.2122
							c1.0459,0.6039,2.7454,0.6056,3.7845,0.0018L23.0133,30.9819z"/>
					</g>
				</g>
			</g>
		</g>
	</g>
	<g>
		<g>
			<path fill="#4F4D4D" d="M30.0154,14.0066c0.6165,0.356,1.1082,1.2073,1.1062,1.9161l-0.0394,13.9004
				c-0.002,0.708-0.4969,0.9906-1.1134,0.6346l-15.8949-9.1769c-0.6165-0.356-1.1082-1.2081-1.1062-1.9161L13.007,5.4643
				c0.002-0.7088,0.4969-0.9906,1.1134-0.6346L30.0154,14.0066z"/>
		</g>
		<g>
			<path fill="#686868" d="M35.464,10.8399l-15.8952-9.174c-0.309-0.1745-0.5987-0.1933-0.7918-0.0773l-5.4465,3.1677
				c0.1931-0.1169,0.4828-0.0971,0.7918,0.0764l15.8953,9.174c0.3882,0.2188,0.7066,0.6403,0.9019,1.0968l5.428-3.197
				C36.1498,11.4689,35.84,11.0634,35.464,10.8399z"/>
			<path fill="#3D3D3D" d="M30.9195,15.1035c0.1156,0.2707,0.1989,0.5498,0.1989,0.8157l-0.0385,13.9054
				c0,0.348-0.1159,0.5988-0.3284,0.7148l5.4465-3.1668c0.2125-0.116,0.3284-0.3678,0.3284-0.7148l0.0385-13.9063
				c0-0.2725-0.0902-0.5639-0.2174-0.845L30.9195,15.1035z"/>
		</g>
	</g>
	<polygon fill="#FFFFFF" points="15.4506,7.907 15.4189,19.2273 29.0897,27.1208 29.1214,15.8 	"/>
	<g>
		<polygon fill="#3D3D3D" points="15.4189,19.2273 15.4506,7.907 15.0013,7.6477 14.9681,19.4875 15.4189,19.2273 		"/>
		<polygon fill="#686868" points="15.4189,19.2273 14.9681,19.4875 14.9681,19.4875 29.0882,27.6403 29.0897,27.1208 		"/>
	</g>
	<g>
		<g>
			<polygon fill="#E02426" points="21.3667,15.2655 21.3829,15.4356 21.518,17.1065 22.0147,17.3933 22.1832,17.1052 22.211,17.147 
				22.5448,17.7314 23.8284,18.4726 24.2873,18.2946 24.6044,18.8436 25.7095,19.4816 25.8438,19.4114 26.1614,19.8003 
				26.2989,18.6143 26.4181,19.9677 28.3045,21.0568 28.3043,21.1145 26.3733,19.9997 26.2975,19.108 26.2002,19.9126 
				26.1668,19.8742 25.8548,19.4884 25.7261,19.549 24.5875,18.8916 24.2871,18.3715 23.8506,18.5432 22.5279,17.7795 
				22.1997,17.2112 22.048,17.4704 21.4731,17.1385 21.3434,15.5863 21.021,16.8904 20.6758,16.4147 20.4239,16.5327 
				18.917,15.6627 18.8357,14.7616 18.7273,15.5532 18.504,15.4243 18.4152,15.1932 18.3143,15.3147 17.1032,14.6155 
				16.8643,14.0793 16.2161,14.0005 15.6133,13.6525 15.6135,13.5948 16.2051,13.9363 16.8812,14.0249 17.1312,14.5739 
				18.2865,15.2409 18.4211,15.0938 18.5321,15.3826 18.6828,15.4696 18.8426,14.3094 18.9562,15.6275 20.4017,16.4621 
				20.6704,16.3412 20.9878,16.7813 			"/>
		</g>
		<g>
			<polygon fill="#4BA0D8" points="21.3667,20.1573 21.3829,20.3274 21.518,21.9983 22.0147,22.2851 22.1832,21.997 22.211,22.0388 
				22.5448,22.6232 23.8284,23.3644 24.2873,23.1864 24.6044,23.7354 25.7095,24.3734 25.8438,24.3032 26.1614,24.6921 
				26.2989,23.5061 26.4181,24.8595 28.3045,25.9486 28.3043,26.0063 26.3733,24.8915 26.2975,23.9998 26.2002,24.8044 
				26.1668,24.766 25.8548,24.3802 25.7261,24.4408 24.5875,23.7834 24.2871,23.2633 23.8506,23.435 22.5279,22.6713 
				22.1997,22.103 22.048,22.3622 21.4731,22.0303 21.3434,20.4781 21.021,21.7822 20.6758,21.3065 20.4239,21.4245 18.917,20.5545 
				18.8357,19.6534 18.7273,20.445 18.504,20.3161 18.4152,20.085 18.3143,20.2065 17.1032,19.5073 16.8643,18.9711 
				16.2161,18.8923 15.6133,18.5443 15.6135,18.4866 16.2051,18.8281 16.8812,18.9167 17.1312,19.4657 18.2865,20.1327 
				18.4211,19.9856 18.5321,20.2745 18.6828,20.3614 18.8426,19.2012 18.9562,20.5193 20.4017,21.3539 20.6704,21.233 
				20.9878,21.6731 			"/>
		</g>
		<g>
			<g>
				<path fill="#EE4541" d="M26.1719,17.0135c-0.0012,0.409-0.2661,0.5062-0.6032,0.3116c-0.281-0.1622-0.4735-0.4179-0.5776-0.7648
					c-0.0595-0.2003-0.0908-0.4038-0.0902-0.6105c0.0022-0.7866,0.3271-0.8912,0.6961-0.6782
					c0.1892,0.1092,0.3613,0.2754,0.5127,0.5008l-0.1468,0.1653c-0.0686-0.1075-0.2143-0.2746-0.3236-0.3377
					c-0.3271-0.1888-0.4525,0.0244-0.4571,0.4066c0.0817-0.0593,0.2529-0.076,0.439,0.0314
					C25.9229,16.2123,26.173,16.5998,26.1719,17.0135z M25.8152,17.0729c0.0639-0.03,0.0978-0.0945,0.0981-0.1977
					c0.0006-0.1967-0.122-0.4391-0.3305-0.5595c-0.1868-0.1079-0.3544-0.0792-0.355,0.1421
					c-0.0005,0.1941,0.1374,0.4545,0.3417,0.5724C25.6669,17.0864,25.7494,17.0996,25.8152,17.0729"/>
			</g>
			<g>
				<path fill="#EE4541" d="M27.872,17.6135c-0.0017,0.5871-0.2103,0.92-0.7148,0.6287c-0.5106-0.2948-0.7105-0.8657-0.7089-1.4506
					c0.0017-0.5893,0.2084-0.9189,0.7148-0.6265C27.6691,16.4572,27.8736,17.0315,27.872,17.6135z M27.4789,17.932
					c0.1813-0.264,0.1665-1.1995-0.3167-1.4785c-0.3291-0.19-0.4281,0.1237-0.4292,0.5025
					c-0.0011,0.3797,0.0963,0.8058,0.425,0.9956C27.3041,18.0359,27.4111,18.0288,27.4789,17.932"/>
			</g>
		</g>
		<g>
			<g>
				<path fill="#55B8E8" d="M26.0525,20.9812c0.1076,0.3583,0.1665,1.1331-0.1276,1.3299c-0.1316,0.0793-0.291,0.067-0.4802-0.0423
					s-0.3595-0.2765-0.5127-0.5008l0.1487-0.1642c0.0641,0.1036,0.2192,0.2774,0.3236,0.3378
					c0.1555,0.0898,0.2699,0.0955,0.3433,0.0172c0.0734-0.0784,0.1113-0.2203,0.1138-0.4237
					c-0.0817,0.0591-0.2519,0.0766-0.4408-0.0325c-0.3004-0.1734-0.55-0.5619-0.5489-0.9745
					c0.0012-0.4137,0.2706-0.5035,0.6032-0.3115C25.754,20.3776,25.9465,20.6332,26.0525,20.9812z M25.7139,21.2752
					c0.0676-0.0256,0.1016-0.088,0.1019-0.1913c0.0005-0.1878-0.133-0.452-0.3417-0.5725
					c-0.1826-0.1054-0.3357-0.0572-0.3363,0.1594c-0.0006,0.2057,0.1174,0.4365,0.323,0.5552
					C25.5619,21.2844,25.6463,21.3008,25.7139,21.2752"/>
			</g>
			<g>
				<path fill="#55B8E8" d="M27.5054,21.4233l-0.0009,0.3078l-0.7381-0.4261l-0.0014,0.4929
					c0.0751-0.0019,0.1575,0.0219,0.2512,0.076c0.3169,0.183,0.5988,0.5779,0.5977,0.9746
					c-0.0011,0.4024-0.2965,0.5015-0.6425,0.3017c-0.2342-0.1352-0.4212-0.3337-0.5612-0.5935l0.1599-0.1556
					c0.0955,0.1654,0.2535,0.3383,0.4209,0.435c0.1564,0.0903,0.33,0.0801,0.3306-0.1455c0.0007-0.2364-0.1784-0.45-0.383-0.5682
					c-0.1105-0.0638-0.2155-0.0921-0.315-0.087l-0.1251-0.2274l0.0027-0.9644L27.5054,21.4233z"/>
			</g>
		</g>
	</g>
	<g>
		<g>
			<path fill="#BFBFBF" d="M17.2131,10.2395c0.2853,0.1647,0.5098,0.5536,0.5089,0.8813c-0.0009,0.3192-0.2269,0.4569-0.5122,0.2922
				c-0.2778-0.1604-0.5098-0.5625-0.5089-0.8817C16.7018,10.2035,16.9353,10.0791,17.2131,10.2395z"/>
		</g>
		<g>
			<path fill="#BFBFBF" d="M19.6984,11.6743c0.2853,0.1647,0.5098,0.5536,0.5089,0.8813c-0.0009,0.3192-0.2269,0.4569-0.5122,0.2922
				c-0.2778-0.1604-0.5098-0.5625-0.5089-0.8817C19.1871,11.6384,19.4206,11.5139,19.6984,11.6743z"/>
		</g>
		<g>
			<path fill="#BFBFBF" d="M18.2801,12.1188c-0.0454-0.0103-0.0906-0.0186-0.1398-0.0474
				C18.2179,12.1164,18.2584,12.1266,18.2801,12.1188z"/>
			<path fill="#BFBFBF" d="M17.9443,10.8288c-0.2064-0.0209-0.3124,0.152-0.3129,0.3594l0.0002,0.001l-0.0002,0.0005l0.0004,0.0005
				c0.0002,0.3442,0.2827,0.8411,0.6487,0.9277c-0.0004,0,0.0001,0.001-0.0004,0.001
				C18.9601,12.2894,18.611,10.8816,17.9443,10.8288z"/>
		</g>
	</g>
</g>
</svg>
