<?xml version="1.0" encoding="utf-8"?>
<!-- Generator: Adobe Illustrator 18.0.0, SVG Export Plug-In . SVG Version: 6.00 Build 0)  -->
<!DOCTYPE svg PUBLIC "-//W3C//DTD SVG 1.1//EN" "http://www.w3.org/Graphics/SVG/1.1/DTD/svg11.dtd">
<svg version="1.1" id="Layer_1" xmlns="http://www.w3.org/2000/svg" xmlns:xlink="http://www.w3.org/1999/xlink" x="0px" y="0px"
	 viewBox="0 0 50 50" enable-background="new 0 0 50 50" xml:space="preserve">
<g>
	<g>
		<g>
			<g enable-background="new    ">
				<g>
					<path fill="#929393" d="M27.1238,4.641l-0.0107,42.3957c-0.001,0.3383-0.2233,0.6761-0.6676,0.9343
						c-0.8939,0.5195-2.3491,0.5195-3.2489,0c-0.453-0.2615-0.6791-0.6048-0.6782-0.9474l0.0107-42.3957
						c-0.001,0.3427,0.2252,0.6859,0.6782,0.9474c0.8998,0.5195,2.3549,0.5195,3.2489,0
						C26.9006,5.3171,27.1229,4.9793,27.1238,4.641z"/>
				</g>
				<g>
					<path fill="#BFBFBF" d="M26.4457,3.6935c0.8998,0.5195,0.9051,1.362,0.0106,1.8819c-0.8939,0.5195-2.3491,0.5195-3.2489,0
						c-0.9004-0.5199-0.9045-1.3624-0.0106-1.8819C24.0914,3.1737,25.5452,3.1736,26.4457,3.6935z"/>
				</g>
			</g>
		</g>
		<g>
			<g enable-background="new    ">
				<g>
					<path fill="#787677" d="M27.1292,45.9871l-0.0107,1.0496c-0.001,0.3383-0.2233,0.6761-0.6676,0.9343
						c-0.8939,0.5195-2.3491,0.5195-3.2489,0c-0.453-0.2615-0.6791-0.6048-0.6782-0.9474l0.0107-1.0496
						c-0.001,0.3427,0.2252,0.6859,0.6782,0.9474c0.8998,0.5195,2.3549,0.5195,3.2489,0
						C26.9059,46.6632,27.1282,46.3254,27.1292,45.9871z"/>
				</g>
			</g>
		</g>
	</g>
	<g>
		<g>
			<g enable-background="new    ">
				<g>
					<path fill="#3D3D3D" d="M27.8586,3.404l-0.0141,25.3544c-0.0013,0.4464-0.2946,0.8921-0.8809,1.2328
						c-1.1795,0.6854-3.0995,0.6855-4.2868,0c-0.5977-0.3451-0.8961-0.798-0.8948-1.2501l0.0141-25.3544
						c-0.0013,0.4521,0.2971,0.905,0.8948,1.2501c1.1872,0.6854,3.1073,0.6854,4.2868,0C27.564,4.2961,27.8573,3.8503,27.8586,3.404
						z"/>
				</g>
				<g>
					<path fill="#686868" d="M26.9638,2.1537c1.1872,0.6854,1.1943,1.7971,0.014,2.4831c-1.1795,0.6854-3.0995,0.6855-4.2868,0
						c-1.1881-0.6859-1.1934-1.7976-0.014-2.4831C23.8573,1.4678,25.7757,1.4678,26.9638,2.1537z"/>
				</g>
			</g>
		</g>
		<g>
			<g enable-background="new    ">
				<g>
					<path fill="#4F4D4D" d="M27.8656,27.3734l-0.0141,1.3849c-0.0013,0.4464-0.2946,0.8921-0.8809,1.2328
						c-1.1795,0.6854-3.0995,0.6855-4.2868,0c-0.5977-0.3451-0.8961-0.798-0.8948-1.2501l0.0141-1.3849
						c-0.0013,0.4521,0.2971,0.905,0.8948,1.2501c1.1872,0.6854,3.1073,0.6854,4.2868,0
						C27.5711,28.2655,27.8644,27.8198,27.8656,27.3734z"/>
				</g>
			</g>
		</g>
	</g>
	<g>
		<g>
			<g enable-background="new    ">
				<g>
					<polygon fill="#3D3D3D" points="26.864,9.9389 29.0005,8.6973 28.9647,21.319 26.8282,22.5606 					"/>
				</g>
				<g>
					<polygon fill="#686868" points="26.8282,22.5606 28.9647,21.319 47.7195,32.147 45.583,33.3887 					"/>
				</g>
				<g>
					<polygon fill="#69C3EE" points="45.6188,20.767 47.7553,19.5254 47.7196,32.147 45.583,33.3887 					"/>
				</g>
				<g>
					<polygon fill="#69C3EE" points="26.864,9.9389 29.0005,8.6973 47.7553,19.5254 45.6188,20.767 					"/>
				</g>
				<g>
					<polygon fill="#69C3EE" points="45.9008,20.6017 45.865,33.2234 27.1102,22.3953 27.146,9.7736 					"/>
				</g>
				<g>
					<path fill="#686868" d="M47.7886,18.7281L28.2662,7.4512c-0.1971-0.1058-0.3639-0.1214-0.5002-0.0451l-1.7785,1.034
						c0.1365-0.0755,0.3032-0.0607,0.5002,0.0459l19.5226,11.2769c0.204,0.1147,0.3809,0.3227,0.5055,0.5573l1.7782-1.0348
						C48.1693,19.0508,47.9925,18.8421,47.7886,18.7281z"/>
					<path fill="#3D3D3D" d="M46.5157,20.3202c0.1069,0.2013,0.1766,0.4219,0.1766,0.6246L46.662,34.4502
						c0,0.2117-0.0909,0.3634-0.2122,0.4396l1.7785-1.0348c0.1213-0.0607,0.2122-0.2117,0.2122-0.4396l0.0303-13.5046
						c0-0.2028-0.0698-0.4241-0.1768-0.6254L46.5157,20.3202z"/>
				</g>
			</g>
		</g>
		<g>
			<path fill="#4F4D4D" d="M46.0093,19.7567c0.3774,0.2179,0.6861,0.752,0.6849,1.1858l-0.0383,13.5109
				c-0.0012,0.4338-0.3119,0.6109-0.6893,0.393L26.4473,23.577c-0.3871-0.2235-0.6958-0.7582-0.6945-1.192L25.791,8.8741
				c0.0012-0.4338,0.3119-0.6103,0.699-0.3868L46.0093,19.7567z M45.583,33.3887l0.0358-12.6217L26.864,9.9389l-0.0358,12.6217
				L45.583,33.3887"/>
		</g>
	</g>
	<g>
		<g>
			<g enable-background="new    ">
				<g>
					<polygon fill="#3D3D3D" points="23.136,10.0293 20.9995,8.7877 21.0353,21.4094 23.1718,22.651 					"/>
				</g>
				<g>
					<polygon fill="#686868" points="23.1718,22.651 21.0353,21.4094 2.2805,32.2375 4.417,33.4791 					"/>
				</g>
				<g>
					<polygon fill="#69C3EE" points="4.3812,20.8574 2.2447,19.6158 2.2804,32.2375 4.417,33.4791 					"/>
				</g>
				<g>
					<polygon fill="#69C3EE" points="23.136,10.0293 20.9995,8.7877 2.2447,19.6158 4.3812,20.8574 					"/>
				</g>
				<g>
					<polygon fill="#69C3EE" points="4.0992,20.6922 4.135,33.3138 22.8898,22.4858 22.854,9.8641 					"/>
				</g>
				<g>
					<path fill="#686868" d="M2.2114,18.8185L21.7338,7.5416c0.1971-0.1058,0.3639-0.1214,0.5002-0.0451l1.7785,1.034
						c-0.1365-0.0755-0.3032-0.0607-0.5002,0.0459L3.9898,19.8533c-0.204,0.1147-0.3809,0.3227-0.5055,0.5573l-1.7782-1.0348
						C1.8307,19.1412,2.0075,18.9325,2.2114,18.8185z"/>
					<path fill="#3D3D3D" d="M3.4843,20.4106c-0.1069,0.2013-0.1766,0.4219-0.1766,0.6246L3.338,34.5406
						c0,0.2117,0.0909,0.3634,0.2122,0.4396l-1.7785-1.0348c-0.1213-0.0607-0.2122-0.2117-0.2122-0.4396L1.5293,20.0012
						c0-0.2028,0.0698-0.4241,0.1768-0.6254L3.4843,20.4106z"/>
				</g>
			</g>
		</g>
		<g>
			<path fill="#4F4D4D" d="M23.51,8.5777c0.3871-0.2235,0.6978-0.0469,0.699,0.3868l0.0383,13.5109
				c0.0012,0.4338-0.3074,0.9685-0.6945,1.192L4.0334,34.9369c-0.3774,0.2179-0.6881,0.0407-0.6893-0.393L3.3058,21.0329
				c-0.0012-0.4338,0.3074-0.9679,0.6849-1.1858L23.51,8.5777z M4.417,33.4791L23.1718,22.651L23.136,10.0293L4.3812,20.8574
				L4.417,33.4791"/>
		</g>
	</g>
</g>
</svg>
