<?xml version="1.0" encoding="utf-8"?>
<!-- Generator: Adobe Illustrator 18.0.0, SVG Export Plug-In . SVG Version: 6.00 Build 0)  -->
<!DOCTYPE svg PUBLIC "-//W3C//DTD SVG 1.1//EN" "http://www.w3.org/Graphics/SVG/1.1/DTD/svg11.dtd">
<svg version="1.1" id="Layer_1" xmlns="http://www.w3.org/2000/svg" xmlns:xlink="http://www.w3.org/1999/xlink" x="0px" y="0px"
	 viewBox="0 0 50 50" enable-background="new 0 0 50 50" xml:space="preserve">
<g>
	<g>
		<g enable-background="new    ">
			<g>
				<path fill="#4F4D4D" d="M33.2309,40.202l-0.0384,4.3291c-0.0034,1.2187-0.8043,2.4356-2.4049,3.3658
					c-3.2202,1.8714-8.4622,1.8715-11.7035,0.0001c-1.6319-0.9422-2.4465-2.1786-2.443-3.413l0.0384-4.3291
					c-0.0123,4.3307,9.017,6.3939,14.1466,3.4129C32.4266,42.6376,33.2275,41.4207,33.2309,40.202z"/>
			</g>
			<g>
				<path fill="#3D3D3D" d="M30.7879,36.7887c3.2413,1.8714,3.2606,4.9064,0.0381,6.7791
					c-3.2202,1.8714-8.4622,1.8715-11.7035,0.0001c-3.2436-1.8727-3.2583-4.9078-0.0381-6.7791
					C22.3069,34.916,27.5443,34.916,30.7879,36.7887z"/>
			</g>
		</g>
	</g>
	<g>
		<path fill="#D7D7D7" d="M33.2166,15.2098L33.191,39.5436c0,1.2198-0.802,2.44-2.406,3.3699
			c-0.0682,0.0342-0.128,0.0767-0.1962,0.1025c-5.2538,2.8722-13.9499,0.6786-13.9499-3.5153
			c-0.3669-4.4539-0.5375-10.4347-0.5461-16.3988c0.0085-6.6548,0.2133-13.2072,0.5716-17.4565l10.4262,6.0237L33.2166,15.2098z"/>
	</g>
	<g>
		<g enable-background="new    ">
			<g>
				<polygon fill="#BFBFBF" points="34.0851,11.5384 34.3858,11.3637 33.5177,15.0378 33.2171,15.2125 				"/>
			</g>
			<g>
				<polygon fill="#E8E8E8" points="15.6142,0.8742 15.9149,0.6995 34.3858,11.3637 34.0851,11.5384 				"/>
			</g>
			<g>
				<polygon fill="#D7D7D7" points="34.0851,11.5384 33.2171,15.2125 16.641,5.6423 15.6142,0.8742 				"/>
			</g>
			<g>
				<polygon fill="#BFBFBF" points="33.2183,14.7706 33.2171,15.2125 16.641,5.6423 16.6422,5.2004 				"/>
			</g>
		</g>
	</g>
	<path fill="#BFBFBF" d="M33.5152,15.0394c0,0-0.3071,12.414-0.3157,12.4398L33.191,39.5436c0,1.2198-0.802,2.44-2.406,3.3699
		c-0.0682,0.0342-0.128,0.0767-0.1962,0.1025c-1.4505-15.9634,2.6279-27.8062,2.6279-27.8062l-0.0085,5.7508
		c0.0045-3.0277,0.0087-5.8731,0.0085-5.7508L33.5152,15.0394z"/>
	<path fill="#E8E8E8" d="M25.6573,23.8189c-0.4096,2.0218-1.6808,3.7711-2.2013,5.7591c-0.7376,2.7995,0.0554,8.9688-0.4437,10.3405
		c-0.5115,1.3926-2.0117,1.9181-2.9436,3.4728c-1.7031-0.682-3.4298-2.0633-3.4298-3.8907
		c-0.3669-4.4539-0.5375-10.4347-0.5461-16.3988c0.0085-6.6548,0.2133-13.2072,0.5716-17.4565l10.4262,6.0237
		c-0.5887,0.7936-1.0921,1.6298-1.3822,2.5513C24.7443,17.2919,26.2972,20.6618,25.6573,23.8189z"/>
</g>
</svg>
