<?xml version="1.0" encoding="utf-8"?>
<!-- Generator: Adobe Illustrator 18.0.0, SVG Export Plug-In . SVG Version: 6.00 Build 0)  -->
<!DOCTYPE svg PUBLIC "-//W3C//DTD SVG 1.1//EN" "http://www.w3.org/Graphics/SVG/1.1/DTD/svg11.dtd">
<svg version="1.1" id="Layer_1" xmlns="http://www.w3.org/2000/svg" xmlns:xlink="http://www.w3.org/1999/xlink" x="0px" y="0px"
	 viewBox="0 0 50 50" enable-background="new 0 0 50 50" xml:space="preserve">
<g>
	<g>
		<g>
			<g>
				<g>
					<g enable-background="new    ">
						<g>
							<path fill="#686868" d="M3.9265,26.039l0.0474,3.2102c3.5152,2.0428,9.6214,5.5914,13.9464,8.1048l-0.0474-3.2101
								C13.548,31.6303,7.4417,28.0817,3.9265,26.039z"/>
						</g>
						<g>
							<path fill="#686868" d="M3.9265,26.039c3.5152,2.0428,9.6214,5.5914,13.9464,8.1048l3.5113-4.0019l24.678-14.2482
								c1.9402-1.1202,2.9072-2.5886,2.9235-4.0524c0.0084-1.4683-0.9586-2.937-2.8779-4.0523
								c-3.8553-2.2404-10.1117-2.2404-13.992-0.0001L3.9265,26.039z"/>
						</g>
					</g>
					<g enable-background="new    ">
						<g>
							<path fill="#686868" d="M3.9591,26.0201c-1.9646,1.1343-2.9477,2.6028-2.9561,4.0712
								c-0.0082,1.459,0.9503,2.9321,2.8779,4.0523c3.8469,2.2356,10.1198,2.2357,13.992,0.0001
								C13.5806,31.6115,7.4743,28.0629,3.9591,26.0201z"/>
						</g>
					</g>
				</g>
				<g>
					<path fill="#4F4D4D" d="M7.4378,22.0365l-3.5113,4.0025c3.5152,2.043,9.6215,5.5916,13.9464,8.1047l3.5113-4.0019
						C21.2752,30.0784,8.7863,22.8205,7.4378,22.0365z"/>
					<path fill="#686868" d="M46.1079,7.7891c-3.8553-2.2406-10.1117-2.2406-13.992,0L7.4378,22.0365
						c0.1184,0.0688,8.049,4.6789,13.9464,8.1047l24.678-14.2474c1.9401-1.1203,2.9072-2.5885,2.9235-4.0523
						C48.9942,10.3726,48.0271,8.9044,46.1079,7.7891z"/>
					<path fill="#686868" d="M7.4378,22.0365L7.4378,22.0365C12.1806,24.7938,12.1815,24.7944,7.4378,22.0365z"/>
					<path fill="#686868" d="M21.3843,30.1418v-0.0006C19.2921,28.9259,19.3253,28.9433,21.3843,30.1418z"/>
				</g>
				<g>
					<path fill="#3D3D3D" d="M12.9924,21.7566l20.9904-12.119c0.8766-0.5056,2.288-0.5006,3.1494,0l7.1015,4.1271
						c0.3141,0.1827,0.5114,0.4059,0.5994,0.6403c0.1563-0.4158-0.0421-0.8666-0.5994-1.1908l-7.1015-4.1265
						c-0.8614-0.5006-2.2728-0.5062-3.1494,0L12.9924,21.2061c-0.5616,0.3248-0.7569,0.7762-0.6015,1.1908
						C12.4789,22.1624,12.6763,21.9392,12.9924,21.7566z"/>
					<path fill="#7BD3F7" d="M12.9822,23.0309l7.1015,4.1265c0.8708,0.5062,2.2822,0.5118,3.1588,0.0056L44.233,15.044
						c0.3155-0.182,0.5124-0.4052,0.6002-0.639c-0.0881-0.2344-0.2854-0.4576-0.5994-0.6403l-7.1015-4.1271
						c-0.8614-0.5006-2.2728-0.5056-3.1494,0l-20.9904,12.119c-0.3162,0.1827-0.5135,0.4059-0.6015,0.6403
						C12.4782,22.6294,12.6727,22.8507,12.9822,23.0309z"/>
				</g>
			</g>
			<g>
				<g enable-background="new    ">
					<g>
						<polygon fill="#B0AFB0" points="44.1506,7.8423 44.1486,8.5485 40.9559,10.4039 40.9579,9.6977 						"/>
					</g>
					<g>
						<polygon fill="#D7D7D7" points="40.9579,9.6977 40.9559,10.4039 37.3607,8.3282 37.3627,7.622 						"/>
					</g>
					<g>
						<path fill="#FFFFFF" d="M44.1506,7.8423l-3.1927,1.8554L37.3627,7.622c0.8849-0.5142,2.0412-0.7633,3.199-0.7697
							c1.1632,0.0033,2.3279,0.2619,3.2129,0.7729L44.1506,7.8423z"/>
					</g>
				</g>
				<g enable-background="new    ">
					<g>
						<path fill="#B0AFB0" d="M46.8657,10.5058l-0.002,0.7062c-0.0019,0.6671-0.4405,1.3332-1.3169,1.8425l0.002-0.7062
							C46.4251,11.839,46.8638,11.1729,46.8657,10.5058z"/>
					</g>
					<g>
						<polygon fill="#D7D7D7" points="45.5488,12.3483 45.5468,13.0545 41.8741,10.934 41.8761,10.2278 						"/>
					</g>
					<g>
						<path fill="#FFFFFF" d="M45.5279,8.6375c1.7755,1.0251,1.7849,2.6856,0.0209,3.7108l-3.6727-2.1204l3.1927-1.8554
							L45.5279,8.6375z"/>
					</g>
				</g>
			</g>
		</g>
		<g>
			<g>
				<path fill="#1FB498" d="M38.7548,15.4386c-0.0364,0.021-0.0547,0.0451-0.0549,0.0736s0.0179,0.0541,0.0527,0.0743
					c0.0362,0.021,0.0789,0.0308,0.1295,0.0316c0.0493,0,0.0921-0.0097,0.1286-0.0308c0.0351-0.0203,0.0534-0.0458,0.0535-0.0744
					c0.0001-0.0301-0.0166-0.0548-0.0528-0.0759c-0.0348-0.0202-0.0789-0.0308-0.1295-0.03
					C38.8327,15.4071,38.7899,15.4183,38.7548,15.4386z"/>
			</g>
			<g>
				<path fill="#1FB498" d="M36.9286,15.3447c-0.3367,0.1944-0.3768,0.5119-0.0041,0.7284c0.3664,0.2129,0.897,0.2008,1.2512-0.0037
					c0.2133-0.1232,0.3152-0.2538,0.3043-0.3928l-0.4122-0.2396l-0.2055,0.1187l0.3308,0.1923
					c-0.0277,0.0728-0.098,0.1434-0.2138,0.2103c-0.2221,0.1282-0.5733,0.1475-0.8401-0.0075
					c-0.264-0.1534-0.233-0.361,0.0054-0.4986c0.1374-0.0793,0.2596-0.1111,0.4168-0.1179l-0.0458-0.1532
					C37.2989,15.1893,37.1042,15.2434,36.9286,15.3447z"/>
			</g>
			<g>
				<polygon fill="#1FB498" points="34.7003,16.6657 35.9046,17.3656 36.1101,17.2469 35.1694,16.7002 36.4256,16.942 
					36.5401,16.876 36.128,16.1468 37.0687,16.6935 37.2729,16.5756 36.0686,15.8757 35.7512,16.0589 36.1417,16.7092 
					35.0202,16.481 				"/>
			</g>
			<g>
				<polygon fill="#1FB498" points="39.5597,13.8601 40.764,14.56 41.5224,14.1222 41.3285,14.0095 40.7757,14.3287 
					39.7652,13.7414 				"/>
			</g>
			<g>
				<path fill="#1FB498" d="M39.279,14.2048c0.2217-0.0068,0.4263,0.0443,0.6137,0.1532c0.3732,0.2169,0.3852,0.4827-0.0821,0.7525
					l-0.4019,0.232l-1.2043-0.6999l0.4162-0.2403C38.8378,14.2769,39.056,14.2108,39.279,14.2048z M39.4217,15.1134l0.2276-0.1314
					c0.2821-0.1629,0.3224-0.3385,0.0418-0.5016c-0.2753-0.16-0.5723-0.1487-0.8909,0.0353l-0.2042,0.1179L39.4217,15.1134"/>
			</g>
		</g>
		<g>
			<g>
				<polygon fill="#686868" points="24.2858,17.9893 25.0087,18.4094 25.9908,17.8424 30.0796,20.2185 30.8591,19.7685 
					26.0474,16.9722 				"/>
			</g>
			<g>
				<path fill="#686868" d="M21.5844,19.4114c1.4122-0.8153,3.0784-0.4987,4.4683,0.3091c1.3956,0.811,1.9175,1.7757,0.5137,2.5861
					c-1.4044,0.8108-3.0492,0.5156-4.463-0.306C20.7005,21.1853,20.1679,20.2292,21.5844,19.4114z M24.4801,22.1356
					c0.5225,0.0809,0.9892,0.0029,1.3945-0.2311c0.9081-0.5243,0.2747-1.1948-0.6273-1.7191
					c-0.9075-0.5274-2.0529-0.896-2.9657-0.369c-0.9135,0.5274-0.2961,1.2005,0.6117,1.7281
					C23.4302,21.8566,23.9573,22.0546,24.4801,22.1356"/>
			</g>
			<g>
				<polygon fill="#686868" points="16.8808,22.2645 17.6038,22.6847 18.5859,22.1176 22.6747,24.4938 23.449,24.0468 
					18.6372,21.2505 				"/>
			</g>
			<g>
				<path fill="#686868" d="M31.5359,18.2534c-0.3074,0.1775-0.2758,0.4357-0.0086,0.591c0.2795,0.1624,0.7366,0.1728,1.0307,0.003
					c0.2928-0.1691,0.2903-0.4333,0.0034-0.6C32.283,18.0856,31.8378,18.0791,31.5359,18.2534z"/>
			</g>
		</g>
		<g>
			<polygon fill="#4F4D4D" points="5.6873,29.4228 11.8868,33.0021 5.7073,32.9985 			"/>
		</g>
		<g>
			<path fill="#3D3D3D" d="M49,17.0472c-0.01,1.46-0.98,2.9302-2.92,4.0498l-28.15,16.25c-3.88,2.2402-10.19,2.2603-14.03,0.0303
				c-1.93-1.1201-2.89-2.6001-2.88-4.0601L1,30.1072c0,1.46,0.96,2.9302,2.88,4.04c3.85,2.23,10.12,2.23,13.99,0l3.51-4.0103
				l24.69-14.2397c1.94-1.1201,2.89-2.5903,2.92-4.0601L49,17.0472z"/>
		</g>
	</g>
	<g>
		<g>
			<g>
				<g enable-background="new    ">
					<g>
						<polygon fill="#D7D7D7" points="46.7884,30.934 46.7861,31.7509 32.7103,39.9309 32.7126,39.1139 						"/>
					</g>
					<g>
						<polygon fill="#383838" points="32.7126,39.1139 32.7103,39.9309 27.1944,36.7463 27.1967,35.9293 						"/>
					</g>
					<g>
						<polygon fill="#E8E8E8" points="46.7884,30.934 32.7126,39.1139 27.1967,35.9293 41.2725,27.7493 						"/>
					</g>
				</g>
				<g enable-background="new    ">
					<g>
						<polygon fill="#3CBCA1" points="32.7126,39.1139 32.7103,39.9309 27.9554,42.6942 27.9577,41.8772 						"/>
					</g>
					<g>
						<polygon fill="#383838" points="27.9577,41.8772 27.9554,42.6942 22.4394,39.5095 22.4417,38.6925 						"/>
					</g>
					<g>
						<polygon fill="#66C5B9" points="32.7126,39.1139 27.9577,41.8772 22.4417,38.6925 27.1967,35.9293 						"/>
					</g>
				</g>
				<g enable-background="new    ">
					<g>
						<polygon fill="#3D3D3D" points="27.9577,41.8772 27.9553,42.6942 23.6245,43.8914 23.6268,43.0744 						"/>
					</g>
					<g>
						<polygon fill="#4F4D4D" points="23.6268,43.0744 23.6245,43.8914 20.3738,42.0146 20.3761,41.1976 						"/>
					</g>
					<g>
						<polygon fill="#686868" points="22.4417,38.6925 27.9577,41.8772 23.6268,43.0744 20.3761,41.1976 						"/>
					</g>
				</g>
			</g>
			<g>
				<polygon fill="#66C5B9" points="42.2515,28.7341 37.4966,31.4974 36.6648,31.0171 41.4198,28.2539 				"/>
			</g>
		</g>
		<g>
			<polygon fill="#66C5B9" points="43.4367,29.4254 38.6818,32.1887 37.85,31.7085 42.6049,28.9452 			"/>
		</g>
		<g>
			<polygon fill="#66C5B9" points="44.6219,30.1168 39.8669,32.8801 39.0351,32.3998 43.7901,29.6365 			"/>
		</g>
		<g>
			<polygon fill="#66C5B9" points="45.807,30.8081 41.0521,33.5714 40.2203,33.0912 44.9752,30.3279 			"/>
		</g>
	</g>
</g>
</svg>
