<?xml version="1.0" encoding="utf-8"?>
<!-- Generator: Adobe Illustrator 18.0.0, SVG Export Plug-In . SVG Version: 6.00 Build 0)  -->
<!DOCTYPE svg PUBLIC "-//W3C//DTD SVG 1.1//EN" "http://www.w3.org/Graphics/SVG/1.1/DTD/svg11.dtd">
<svg version="1.1" id="Layer_1" xmlns="http://www.w3.org/2000/svg" xmlns:xlink="http://www.w3.org/1999/xlink" x="0px" y="0px"
	 viewBox="0 0 50 50" enable-background="new 0 0 50 50" xml:space="preserve">
<g>
	<g>
		<g>
			<g enable-background="new    ">
				<g>
					<path fill="#D7D7D7" d="M49,28.8575c0,0.4095-0.2773,0.8184-0.8057,1.1228l-26.7471,15.44
						c-1.0699,0.6211-2.8134,0.6211-3.8833,0L1.8194,36.2802c-0.5284-0.3167-0.7925-0.7133-0.7925-1.1093L1.0005,24.3926
						c0,0.4095,0.2642,0.8062,0.7925,1.1099l15.7445,9.153c1.0699,0.6211,2.8133,0.6211,3.8832,0l26.734-15.4406
						c0.5415-0.3038,0.8057-0.7133,0.8057-1.1222L49,28.8575z"/>
				</g>
				<g>
					<path fill="#E8E8E8" d="M1.8111,23.2633c-1.071,0.6183-1.0849,1.6263-0.0207,2.2447l15.743,9.1488
						c1.0723,0.6231,2.8121,0.6182,3.8831-0.0002L48.158,19.2175c1.071-0.6184,1.0769-1.6212,0.0046-2.2444l-15.743-9.1488
						c-1.0641-0.6184-2.7959-0.6185-3.8669-0.0002L1.8111,23.2633z"/>
				</g>
			</g>
		</g>
		<g>
			<path fill="#929393" d="M49,27.14c0,0.4095-0.2773,0.8191-0.8057,1.1228L21.4472,43.7035c-1.0699,0.6211-2.8134,0.6211-3.8833,0
				L1.8194,34.5633C1.2911,34.246,1.027,33.85,1.027,33.454l-0.0264-5.5412c0,0.4095,0.2642,0.8055,0.7925,1.1093l15.7445,9.1537
				c1.0699,0.6204,2.8133,0.6204,3.8832,0l26.734-15.4406c0.5415-0.3044,0.8057-0.7133,0.8057-1.1228L49,27.14z"/>
		</g>
		<g>
			<path fill="#4F4D4D" d="M49,25.57c0,0.4095-0.2773,0.8184-0.8057,1.1228l-26.7471,15.44c-1.0699,0.6211-2.8134,0.6211-3.8833,0
				L1.8194,32.9927C1.2911,32.676,1.027,32.2794,1.027,31.8834l-0.0264-0.8747c0,0.4095,0.2642,0.8062,0.7925,1.1099l15.7445,9.153
				c1.0699,0.6211,2.8133,0.6211,3.8832,0l26.734-15.4406c0.5415-0.3038,0.8057-0.7133,0.8057-1.1222L49,25.57z"/>
		</g>
		<g>
			<path fill="#4F4D4D" d="M9.4311,32.8526c3.5419,2.0449,6.4133,5.2461,6.4079,7.1356c-0.0054,1.8995-2.8855,1.7796-6.4274-0.2653
				c-3.5504-2.0498-6.4217-5.2505-6.4163-7.15C3.0007,30.6834,5.8808,30.8028,9.4311,32.8526z"/>
		</g>
	</g>
	<g>
		<g enable-background="new    ">
			<g>
				<path fill="#BFBFBF" d="M48.9635,18.1086c0.0133,0.4136-0.2668,0.8266-0.8138,1.1471l-8.7643,5.0689
					c-2.4678,1.4278-5.6561,2.3612-9.0977,2.6817c-3.8163,0.3598-8.3425-0.2546-11.6324-2.1879
					c-2.0974-1.204-3.8826-3.0829-3.9219-5.4825l-0.0134-3.169c0,2.9203,0.8861,4.898,3.9499,6.6985
					c3.3378,1.9146,7.7996,2.5346,11.6458,2.1742c3.4284-0.3198,6.5886-2.4562,9.0565-3.8839l8.7643-5.0689
					c0.547-0.3068,0.8138-0.7204,0.8138-1.134L48.9635,18.1086z"/>
			</g>
			<g>
				<path fill="#D7D7D7" d="M19.5677,9.6503c-2.47,1.426-4.1104,3.265-4.6651,5.2515c-0.3547,1.2344-0.134,3.6856,0.5135,4.8413
					c0.6302,1.1556,1.736,2.2323,3.2592,3.1175s3.3702,1.5244,5.3714,1.898c1.9844,0.3737,4.1403,0.482,6.2721,0.2803
					c3.4317-0.3145,6.5789-2.4562,9.0489-3.8823l8.7726-5.0649c1.0817-0.6245,1.0874-1.6473,0.0044-2.2767l-15.891-9.2348
					c-1.0747-0.6245-2.8318-0.6195-3.905,0.0001L19.5677,9.6503z"/>
			</g>
		</g>
	</g>
	<g>
		<path fill="#686868" d="M45.6765,15.6863l-10.85,6.2998c-0.34,0.2002-0.7599,0.2002-1.11,0l-15.2-8.77
			c-0.5-0.29-0.5-1.0098,0-1.2998l10.84-6.3003c0.35-0.1997,0.77-0.1997,1.12-0.0098l15.2,8.7798
			C46.1765,14.676,46.1765,15.3963,45.6765,15.6863z"/>
	</g>
	<g>
		<g enable-background="new    ">
			<g>
				<path fill="#5ABC71" d="M25.7476,19.9415l-0.0046,1.6303c-0.0011,0.3756-0.1948,0.7037-0.6003,0.9394
					c-1.199,0.6968-3.7784,0.3318-5.764-0.8146c-1.3087-0.7556-2.0322-1.6617-2.0301-2.3911l0.0046-1.6303
					c-0.0021,0.7295,0.7214,1.6356,2.0301,2.3911c1.9856,1.1464,4.565,1.5113,5.764,0.8146
					C25.5528,20.6452,25.7465,20.317,25.7476,19.9415z"/>
			</g>
			<g>
				<path fill="#75C376" d="M23.7156,17.5486c1.9856,1.1464,2.6241,2.6393,1.4316,3.3323c-1.199,0.6968-3.7784,0.3318-5.764-0.8146
					c-1.9856-1.1464-2.6241-2.6393-1.4251-3.3361C19.1506,16.0373,21.73,16.4022,23.7156,17.5486z"/>
			</g>
		</g>
	</g>
	<g>
		<g>
			<path fill="#3D3D3D" d="M31.8156,13.182c-1.9306,1.122-4.2545,1.5503-6.1975,0.4285c-1.9433-1.122-1.2106-2.4696,0.7195-3.5912
				c1.9357-1.1249,4.2581-1.5487,6.1979-0.4287C34.4747,10.7101,33.7522,12.0566,31.8156,13.182z M28.4976,13.365
				c0.7179-0.1166,1.4491-0.3912,2.2008-0.8281c1.2581-0.7311,2.1374-1.6533,0.8705-2.3847
				c-1.2648-0.7303-2.8732-0.2341-4.1357,0.4995c-1.2585,0.7314-2.1158,1.6653-0.8485,2.3969
				C27.147,13.3734,27.787,13.4773,28.4976,13.365"/>
		</g>
		<g>
			<path fill="#3D3D3D" d="M38.4252,16.998c-1.9439,1.1297-4.2452,1.5557-6.1975,0.4285c-1.9434-1.122-1.2106-2.4696,0.7195-3.5912
				c1.9357-1.1249,4.2581-1.5487,6.1979-0.4288C41.0938,14.5317,40.3747,15.8651,38.4252,16.998z M35.1144,17.1852
				c0.7179-0.1166,1.4491-0.3912,2.2008-0.8281c1.2717-0.739,2.1329-1.6559,0.8633-2.3888
				c-1.2557-0.725-2.8897-0.2245-4.1357,0.4995c-1.2535,0.7284-2.1005,1.6741-0.8485,2.3969
				C33.7638,17.1936,34.4038,17.2976,35.1144,17.1852"/>
		</g>
	</g>
</g>
</svg>
