<?xml version="1.0" encoding="utf-8"?>
<!-- Generator: Adobe Illustrator 18.0.0, SVG Export Plug-In . SVG Version: 6.00 Build 0)  -->
<!DOCTYPE svg PUBLIC "-//W3C//DTD SVG 1.1//EN" "http://www.w3.org/Graphics/SVG/1.1/DTD/svg11.dtd">
<svg version="1.1" id="Layer_1" xmlns="http://www.w3.org/2000/svg" xmlns:xlink="http://www.w3.org/1999/xlink" x="0px" y="0px"
	 viewBox="0 0 50 50" enable-background="new 0 0 50 50" xml:space="preserve">
<g>
	<g>
		<g>
			<g enable-background="new    ">
				<g>
					<path fill="#A2DDF4" d="M37.2559,8.1184l-0.0568,33.8348c-0.0051,1.8006-1.1883,3.5987-3.5533,4.973
						c-4.7579,2.765-12.5031,2.7651-17.2922,0.0001c-2.4112-1.3921-3.6147-3.2189-3.6096-5.0428l0.0568-33.8348
						c-0.0052,1.8238,1.1984,3.6507,3.6096,5.0428c4.7891,2.765,12.5343,2.7648,17.2922-0.0001
						C36.0676,11.7171,37.2508,9.919,37.2559,8.1184z"/>
					<path fill="#55B8E8" d="M13.6349,26.9847l-0.0281,14.9011c-0.0114,4.2932,7.071,6.2514,11.4042,6.2514
						c4.3262,0,11.3144-1.9427,11.3259-6.1856l0.0282-14.9668H13.6349z"/>
					<g>
						<path fill="#69C4EF" d="M33.0185,22.3421c4.4402,2.5635,4.4667,6.7211,0.0522,9.2865
							c-4.4112,2.5635-11.5922,2.5636-16.0323,0.0001c-4.4433-2.5654-4.4634-6.723-0.0522-9.2865
							C21.4006,19.7768,28.5751,19.7767,33.0185,22.3421z"/>
					</g>
				</g>
				<g>
					<path fill="#F9A62B" d="M33.6463,3.0752c4.7891,2.765,4.8176,7.2493,0.0563,10.0163
						c-4.7579,2.765-12.5031,2.7651-17.2922,0.0001c-4.7925-2.7669-4.8142-7.2513-0.0563-10.0163
						C21.1155,0.3083,28.8538,0.3082,33.6463,3.0752z"/>
				</g>
			</g>
		</g>
		<g>
			<g enable-background="new    ">
				<g>
					<path fill="#3D3D3D" d="M37.2559,8.1184l-0.0568,6.2315c-0.0051,1.8006-1.1883,3.5986-3.5533,4.973
						c-7.6791,4.4626-20.9196,1.2504-20.9017-5.0426l0.0568-6.2314c-0.0179,6.3112,13.2514,9.4885,20.9017,5.0426
						C36.0676,11.7171,37.2508,9.919,37.2559,8.1184z"/>
				</g>
				<g>
					<path fill="#4F4D4D" d="M33.6463,3.0752c4.7891,2.765,4.8176,7.2493,0.0563,10.0163
						c-4.7579,2.765-12.5031,2.7651-17.2922,0.0001c-4.7925-2.7669-4.8142-7.2513-0.0563-10.0163
						C21.1155,0.3083,28.8538,0.3082,33.6463,3.0752z"/>
				</g>
			</g>
		</g>
	</g>
	<g>
		<path fill="#3D3D3D" d="M28.9634,5.7962c2.1868,1.2625,2.1998,3.3101,0.0257,4.5736c-2.1725,1.2625-5.7091,1.2626-7.8958,0.0001
			c-2.1883-1.2634-2.1982-3.311-0.0257-4.5736C23.2417,4.5328,26.7751,4.5327,28.9634,5.7962z"/>
		<g>
			<path fill="#282828" d="M25.0099,6.6953c1.7736,0,4.2742,0.6032,5.0488,2.1489c0.1231-0.2451,0.2083-0.4953,0.2076-0.7531
				c-0.0023-1.9908-3.2516-2.8978-5.2565-2.8978c-1.9986,0-5.224,0.9027-5.2194,2.881c0.0003,0.2569,0.0853,0.5063,0.2076,0.7497
				C20.7656,7.2977,23.2168,6.6953,25.0099,6.6953z"/>
			<path fill="#686868" d="M25.047,10.9721c1.7578,0,4.2383-0.5895,5.0118-2.1279c-0.7787-1.5538-3.2852-2.1489-5.0488-2.1489
				c-1.7723,0-4.2418,0.5973-5.0118,2.1287C20.7769,10.3751,23.273,10.9721,25.047,10.9721z"/>
		</g>
	</g>
</g>
</svg>
