<?xml version="1.0" encoding="utf-8"?>
<!-- Generator: Adobe Illustrator 18.0.0, SVG Export Plug-In . SVG Version: 6.00 Build 0)  -->
<!DOCTYPE svg PUBLIC "-//W3C//DTD SVG 1.1//EN" "http://www.w3.org/Graphics/SVG/1.1/DTD/svg11.dtd">
<svg version="1.1" id="Layer_1" xmlns="http://www.w3.org/2000/svg" xmlns:xlink="http://www.w3.org/1999/xlink" x="0px" y="0px"
	 viewBox="0 0 50 50" enable-background="new 0 0 50 50" xml:space="preserve">
<g>
	<g>
		<g>
			<g>
				<g enable-background="new    ">
					<g>
						<path fill="#F9A62B" d="M49,16.8769c-0.0049,2.5247-0.8975,4.3-2.3325,5.1385L27.8985,32.9237
							c1.435-0.8384,2.3276-2.6138,2.3325-5.1387c0.0237-8.1443-8.6222-17.3261-13.6748-14.3798L35.3252,2.4969
							c1.4547-0.8432,3.4717-0.725,5.6958,0.5572C45.4444,5.6086,49.0147,11.7974,49,16.8769z"/>
					</g>
					<g>
						<path fill="#F7E28E" d="M36.8419,5.4829c-2.2241-1.2822-4.241-1.4004-5.6958-0.5571l-10.2574,5.9614
							c1.4548-0.8481,3.4717-0.7246,5.6958,0.5576c3.8441,2.2197,7.0408,7.1802,7.8033,11.7783l10.2571-5.9614
							C43.8819,12.6665,40.6856,7.7027,36.8419,5.4829z"/>
					</g>
					<g>
						<path fill="#F9A62B" d="M22.2527,13.9624c4.4237,2.554,7.995,8.7399,7.9806,13.8231
							c-0.0144,5.0794-3.6091,7.1317-8.0328,4.5777c-4.4205-2.5522-7.995-8.7437-7.9806-13.8231
							C14.2344,13.457,17.8322,11.4102,22.2527,13.9624z"/>
					</g>
				</g>
			</g>
			<g>
				<g enable-background="new    ">
					<g>
						<path fill="#F2961F" d="M31.6099,27.7083c-0.0054,2.7391-0.9737,4.6652-2.5306,5.5748l-3.1837,1.8503
							c1.5569-0.9096,2.5253-2.8358,2.5306-5.5751c0.0257-8.8359-9.3544-18.7974-14.836-15.6009l3.1837-1.8503
							C22.2659,8.9236,31.6356,18.8745,31.6099,27.7083z"/>
					</g>
					<g>
						<path fill="#F9A62B" d="M19.7704,14.562c4.7993,2.7709,8.674,9.4821,8.6583,14.9969
							c-0.0156,5.5108-3.9156,7.7374-8.7149,4.9665c-4.7959-2.7689-8.674-9.4862-8.6583-14.9969
							C11.0711,14.0137,14.9745,11.7931,19.7704,14.562z"/>
						<path fill="#F2961F" d="M27.9414,29.5583c-0.0097,1.4912-0.3002,2.7303-0.8521,3.6697
							c-0.7456,1.2874-1.9462,2.0041-3.4761,2.0041c-1.1135,0-2.3819-0.3872-3.66-1.1233
							c-4.6573-2.6916-8.4336-9.2273-8.4142-14.5816c0.0096-3.2149,1.4136-5.316,3.7181-5.6257
							c0.1937-0.0388,0.4067-0.0487,0.6197-0.0487C21.2425,13.8529,27.9678,22.2546,27.9414,29.5583z"/>
						<path fill="#E66C24" d="M27.9414,29.5583c-0.0097,1.4912-0.3002,2.7303-0.8521,3.6697
							c-0.1937,0.0388-0.4067,0.0482-0.6197,0.0482c-1.1135,0-2.3819-0.3872-3.6601-1.1229
							c-3.4082-1.9753-6.3518-6.0327-7.6783-10.1573c-0.4744-1.4912-0.7359-2.9918-0.7359-4.4153
							c0-1.4912,0.3099-2.7403,0.8618-3.6792c0.1937-0.0388,0.4067-0.0487,0.6197-0.0487c2.5081,0,5.1424,1.9023,6.8746,3.718
							C25.8015,20.7952,27.9607,25.5108,27.9414,29.5583z"/>
					</g>
				</g>
			</g>
			<g>
				<path fill="#D34A27" d="M27.9414,29.5583c-0.0097,1.4912-0.3002,2.7303-0.8521,3.6697
					c-0.1937,0.0388-0.4067,0.0482-0.6197,0.0482c-1.1135,0-2.3819-0.3872-3.6601-1.1229
					c-3.4082-1.9753-6.3518-6.0327-7.6783-10.1573l7.6202-4.4253C25.8015,20.7952,27.9607,25.5108,27.9414,29.5583z"/>
			</g>
		</g>
		<g>
			<g>
				<path fill="#E66C24" d="M31.0963,28.0697c0,2.3927-0.3388,3.9119-1.5608,4.9287c0.7804-1.068,1.2322-2.5671,1.2322-4.4564
					c0.0307-8.4033-8.4721-18.1317-14.2425-16.2346l0,0C21.1835,9.5852,31.1323,18.4093,31.0963,28.0697z"/>
			</g>
			<g>
				<path fill="#E66C24" d="M30.1438,28.6405c0,2.3927-0.3388,3.9119-1.5608,4.9287c0.7804-1.068,1.2322-2.5671,1.2322-4.4564
					c0.0307-8.4033-8.4721-18.1317-14.2425-16.2346l0,0C20.231,10.156,30.1798,18.9801,30.1438,28.6405z"/>
			</g>
			<g>
				<path fill="#E66C24" d="M29.1913,29.2113c0,2.3927-0.3388,3.9119-1.5608,4.9287c0.7804-1.068,1.2322-2.5671,1.2322-4.4564
					c0.0307-8.4033-8.4721-18.1317-14.2425-16.2346l0,0C19.2786,10.7268,29.2273,19.5509,29.1913,29.2113z"/>
			</g>
		</g>
	</g>
	<g>
		<g>
			<g enable-background="new    ">
				<g>
					<path fill="#DCC55E" d="M26.1975,27.055l0.391,0.5015c0.2324,0.2981,0.2837,0.669,0.1141,1.0947
						c-0.5509,1.3822-3.2243,2.821-5.9687,3.2118c-1.8993,0.2705-3.3363-0.0316-3.8586-0.7015l-0.391-0.5015
						c0.5223,0.6698,1.9593,0.972,3.8586,0.7015c2.7444-0.3908,5.4178-1.8296,5.9687-3.2118
						C26.4812,27.724,26.4299,27.3531,26.1975,27.055z"/>
				</g>
				<g>
					<path fill="#EFD874" d="M22.3391,26.3534c2.7444-0.3908,4.5234,0.4141,3.9725,1.7963
						c-0.5509,1.3822-3.2243,2.821-5.9687,3.2118c-2.7444,0.3908-4.5235-0.4138-3.9726-1.796
						C16.9212,28.1833,19.5947,26.7442,22.3391,26.3534z"/>
				</g>
			</g>
		</g>
		<path fill="#F7E28E" d="M18.9286,27.8816c0.8486-0.4523,1.814-0.6243,2.7612-0.7902c-1.0321,0.2967-2.0113,0.7761-2.8787,1.4092
			c-0.758,0.5532-1.2744,1.1126-1.3963,2.0396C16.7449,29.7853,18.0161,28.368,18.9286,27.8816z"/>
	</g>
	<g>
		<g>
			<g enable-background="new    ">
				<g>
					<path fill="#DCC55E" d="M14.4906,40.3764l0.0341,0.635c0.0203,0.3775-0.1496,0.7111-0.5322,0.9634
						c-1.2422,0.8191-4.2582,0.4714-6.7333-0.7768c-1.713-0.8638-2.7193-1.9332-2.7649-2.7813l-0.0341-0.635
						c0.0456,0.8482,1.0519,1.9175,2.7649,2.7813c2.4752,1.2482,5.4912,1.5959,6.7333,0.7768
						C14.341,41.0876,14.5109,40.7539,14.4906,40.3764z"/>
				</g>
				<g>
					<path fill="#EFD874" d="M11.7259,37.5951c2.4752,1.2482,3.4747,2.9256,2.2325,3.7447
						c-1.2422,0.8191-4.2582,0.4714-6.7333-0.7768c-2.4752-1.2482-3.475-2.9255-2.2328-3.7446
						C6.2345,35.9993,9.2507,36.3469,11.7259,37.5951z"/>
				</g>
			</g>
		</g>
		<path fill="#F7E28E" d="M8.054,36.8994c0.9548,0.114,1.8453,0.5247,2.7173,0.9301c-1.0164-0.3465-2.094-0.513-3.1676-0.4894
			c-0.9382,0.0206-1.6817,0.1843-2.3116,0.8753C5.1741,37.213,7.0272,36.7768,8.054,36.8994z"/>
	</g>
	<g>
		<g>
			<g enable-background="new    ">
				<g>
					<path fill="#DCC55E" d="M19.9886,43.1352l0.391,0.5015c0.2324,0.2981,0.2837,0.669,0.1141,1.0947
						c-0.5509,1.3822-3.2243,2.821-5.9687,3.2118c-1.8993,0.2705-3.3363-0.0316-3.8586-0.7015l-0.391-0.5015
						c0.5223,0.6699,1.9593,0.972,3.8586,0.7015c2.7444-0.3908,5.4178-1.8296,5.9687-3.2118
						C20.2723,43.8042,20.221,43.4333,19.9886,43.1352z"/>
				</g>
				<g>
					<path fill="#EFD874" d="M16.1301,42.4335c2.7444-0.3908,4.5234,0.4141,3.9725,1.7963
						c-0.5509,1.3822-3.2243,2.821-5.9687,3.2118c-2.7444,0.3908-4.5235-0.4138-3.9726-1.796
						C10.7122,44.2634,13.3857,42.8244,16.1301,42.4335z"/>
				</g>
			</g>
		</g>
		<path fill="#F7E28E" d="M12.7197,43.9618c0.8486-0.4523,1.814-0.6243,2.7612-0.7902c-1.0321,0.2967-2.0113,0.7761-2.8787,1.4092
			c-0.758,0.5532-1.2744,1.1126-1.3963,2.0396C10.536,45.8654,11.8071,44.4482,12.7197,43.9618z"/>
	</g>
	<g>
		<g>
			<g enable-background="new    ">
				<g>
					<path fill="#DCC55E" d="M29.8342,41.017l0.1687,0.6131c0.1003,0.3645,0.0054,0.7267-0.3146,1.0547
						c-1.039,1.0651-4.0598,1.3681-6.7442,0.6762c-1.8577-0.4789-3.0689-1.3091-3.2942-2.1281l-0.1687-0.6131
						c0.2253,0.819,1.4365,1.6492,3.2942,2.1281c2.6843,0.6919,5.7051,0.3888,6.7442-0.6762
						C29.8396,41.7437,29.9345,41.3815,29.8342,41.017z"/>
				</g>
				<g>
					<path fill="#EFD874" d="M26.5402,38.8889c2.6843,0.6919,4.0184,2.1178,2.9794,3.1828
						c-1.039,1.0651-4.0598,1.3681-6.7442,0.6762c-2.6843-0.6919-4.0187-2.1176-2.9796-3.1826
						C20.8348,38.5002,23.8558,38.1969,26.5402,38.8889z"/>
				</g>
			</g>
		</g>
		<path fill="#F7E28E" d="M22.8044,38.9918c0.9572-0.0922,1.9147,0.1194,2.8531,0.3295c-1.0669-0.1219-2.1552-0.0549-3.1991,0.197
			c-0.9122,0.2201-1.6037,0.5385-2.0719,1.3479C20.0575,39.9121,21.775,39.0909,22.8044,38.9918z"/>
	</g>
	<g>
		<g>
			<g enable-background="new    ">
				<g>
					<path fill="#DCC55E" d="M8.9385,28.7272l0.5621,0.2974c0.3341,0.1768,0.5329,0.4941,0.5524,0.9519
						c0.0635,1.4866-1.7861,3.8941-4.1296,5.3747c-1.6219,1.0247-3.0566,1.3376-3.8074,0.9404l-0.5621-0.2973
						c0.7508,0.3972,2.1855,0.0842,3.8074-0.9404c2.3436-1.4806,4.1931-3.8881,4.1296-5.3747
						C9.4714,29.2213,9.2727,28.904,8.9385,28.7272z"/>
				</g>
				<g>
					<path fill="#EFD874" d="M5.1312,29.6674c2.3436-1.4806,4.2962-1.4749,4.3597,0.0117c0.0635,1.4866-1.7861,3.8941-4.1296,5.3747
						c-2.3436,1.4806-4.2962,1.4752-4.3597-0.0114C0.9381,33.5559,2.7877,31.148,5.1312,29.6674z"/>
				</g>
			</g>
		</g>
		<path fill="#F7E28E" d="M2.6459,32.4585c0.5889-0.7602,1.3991-1.3125,2.1953-1.8518c-0.82,0.6934-1.517,1.5318-2.049,2.4646
			c-0.4649,0.8151-0.7069,1.5369-0.4384,2.4326C1.4334,35.0895,2.0126,33.276,2.6459,32.4585z"/>
	</g>
	<g>
		<g>
			<g enable-background="new    ">
				<g>
					<path fill="#DCC55E" d="M27.5359,29.1141l-0.1686,0.6132c-0.1002,0.3645-0.367,0.6272-0.8097,0.7454
						c-1.4376,0.3839-4.1884-0.9006-6.1413-2.868c-1.3515-1.3616-1.9677-2.6945-1.7425-3.5135l0.1686-0.6132
						c-0.2252,0.819,0.391,2.1519,1.7425,3.5135c1.9529,1.9674,4.7037,3.2519,6.1413,2.868
						C27.1689,29.7413,27.4357,29.4786,27.5359,29.1141z"/>
				</g>
				<g>
					<path fill="#EFD874" d="M25.7937,25.6007c1.9529,1.9674,2.3701,3.875,0.9325,4.2588c-1.4376,0.3839-4.1884-0.9006-6.1413-2.868
						c-1.9529-1.9674-2.3704-3.8749-0.9328-4.2588C21.0896,22.3489,23.8408,23.6333,25.7937,25.6007z"/>
				</g>
			</g>
		</g>
		<path fill="#F7E28E" d="M22.5308,23.7786c0.8697,0.4103,1.5843,1.0818,2.2832,1.7423c-0.8545-0.6504-1.8239-1.1494-2.8498-1.4668
			c-0.4085-0.1264-0.8301-0.2248-1.2577-0.2276c-0.4436,0.0067-0.8268,0.1109-1.2121,0.3262
			c0.1148-0.5525,0.6743-0.6591,1.1755-0.716C21.3044,23.3646,21.9568,23.5078,22.5308,23.7786z"/>
	</g>
	<g>
		<g>
			<g enable-background="new    ">
				<g>
					<path fill="#DCC55E" d="M23.8845,34.8924l0.1847,0.6085c0.1098,0.3617,0.0244,0.7263-0.2869,1.0625
						c-1.0108,1.0919-4.0227,1.4738-6.7242,0.8523c-1.8696-0.4301-3.1021-1.2284-3.3487-2.0412l-0.1847-0.6085
						c0.2467,0.8128,1.4791,1.6111,3.3487,2.0412c2.7015,0.6215,5.7134,0.2395,6.7242-0.8523
						C23.9088,35.6187,23.9943,35.2541,23.8845,34.8924z"/>
				</g>
				<g>
					<path fill="#EFD874" d="M20.536,32.8511c2.7015,0.6215,4.0724,2.012,3.0616,3.1039c-1.0108,1.0919-4.0227,1.4738-6.7242,0.8523
						c-2.7015-0.6215-4.0726-2.0118-3.0618-3.1036C14.8224,32.6117,17.8344,32.2296,20.536,32.8511z"/>
				</g>
			</g>
		</g>
		<path fill="#F7E28E" d="M16.8041,33.0516c0.9545-0.1172,1.9172,0.0692,2.8607,0.2548c-1.0698-0.094-2.1559,0.0015-3.1929,0.2806
			c-0.9061,0.2439-1.5891,0.5803-2.036,1.4016C14.0822,34.0434,15.7777,33.1776,16.8041,33.0516z"/>
	</g>
	<g>
		<g>
			<g enable-background="new    ">
				<g>
					<path fill="#DCC55E" d="M16.8306,24.384l0.616,0.1581c0.3661,0.094,0.6334,0.3562,0.7592,0.7969
						c0.4084,1.4308-0.8288,4.2032-2.7625,6.1895c-1.3383,1.3746-2.6604,2.0135-3.4831,1.8023l-0.6159-0.1581
						c0.8227,0.2112,2.1449-0.4277,3.4831-1.8023c1.9337-1.9862,3.1709-4.7587,2.7625-6.1895
						C17.464,24.7403,17.1967,24.478,16.8306,24.384z"/>
				</g>
				<g>
					<path fill="#EFD874" d="M13.3475,26.1861c1.9337-1.9862,3.8339-2.436,4.2423-1.0052c0.4084,1.4308-0.8288,4.2032-2.7625,6.1895
						c-1.9337,1.9863-3.8338,2.4363-4.2422,1.0055C10.1767,30.9451,11.4138,28.1724,13.3475,26.1861z"/>
				</g>
			</g>
		</g>
		<path fill="#F7E28E" d="M11.5815,29.4798c0.3954-0.8766,1.0545-1.6026,1.703-2.3127c-0.6357,0.8655-1.118,1.8433-1.4178,2.8745
			c-0.262,0.9011-0.3291,1.6594,0.1409,2.4678C11.016,32.321,11.1563,30.4224,11.5815,29.4798z"/>
	</g>
	<g>
		<g>
			<g enable-background="new    ">
				<g>
					<path fill="#DCC55E" d="M25.4921,22.5804l0.0711,0.6319c0.0423,0.3756-0.1079,0.7186-0.4751,0.9928
						c-1.1923,0.8901-4.2234,0.7188-6.7672-0.3829c-1.7604-0.7625-2.8274-1.7713-2.9224-2.6154l-0.0711-0.6319
						c0.095,0.8441,1.1619,1.8529,2.9224,2.6154c2.5437,1.1017,5.5749,1.2731,6.7672,0.3829
						C25.3842,23.299,25.5344,22.956,25.4921,22.5804z"/>
				</g>
				<g>
					<path fill="#EFD874" d="M22.57,19.9649c2.5437,1.1017,3.6393,2.7181,2.447,3.6082c-1.1923,0.8901-4.2234,0.7188-6.7672-0.3829
						c-2.5437-1.1017-3.6396-2.7179-2.4473-3.608C16.9949,18.692,20.0262,18.8632,22.57,19.9649z"/>
				</g>
			</g>
		</g>
		<path fill="#F7E28E" d="M18.8638,19.4845c0.9599,0.0581,1.8727,0.4162,2.7669,0.7701c-1.0349-0.2867-2.1203-0.39-3.1907-0.3039
			c-0.9354,0.0753-1.6681,0.282-2.2566,1.0086C16.007,19.9655,17.8316,19.422,18.8638,19.4845z"/>
	</g>
</g>
</svg>
