<?xml version="1.0" encoding="utf-8"?>
<!-- Generator: Adobe Illustrator 18.0.0, SVG Export Plug-In . SVG Version: 6.00 Build 0)  -->
<!DOCTYPE svg PUBLIC "-//W3C//DTD SVG 1.1//EN" "http://www.w3.org/Graphics/SVG/1.1/DTD/svg11.dtd">
<svg version="1.1" id="Layer_1" xmlns="http://www.w3.org/2000/svg" xmlns:xlink="http://www.w3.org/1999/xlink" x="0px" y="0px"
	 viewBox="0 0 50 50" enable-background="new 0 0 50 50" xml:space="preserve">
<g>
	<g>
		<g>
			<g enable-background="new    ">
				<g>
					<path fill="#F2961F" d="M13.3164,18.479l0.0541,24.0976c0.0049,1.7165,1.1328,3.4306,3.3874,4.7408
						c4.5357,2.6358,11.9192,2.636,16.4847,0.0001c2.2986-1.3271,3.4459-3.0686,3.441-4.8073l-0.0541-24.0976
						c0.0049,1.7387-1.1424,3.4802-3.441,4.8073c-4.5654,2.6359-11.949,2.6357-16.4847-0.0001
						C14.4493,21.9096,13.3213,20.1955,13.3164,18.479z"/>
				</g>
				<g>
					<path fill="#F9A62B" d="M16.7575,13.6713c-4.5654,2.6359-4.5927,6.9107-0.0537,9.5485
						c4.5357,2.6358,11.9192,2.636,16.4847,0.0001c4.5687-2.6377,4.5893-6.9127,0.0537-9.5485
						C28.7031,11.0336,21.3261,11.0336,16.7575,13.6713z"/>
				</g>
			</g>
		</g>
		<g>
			<g>
				<g enable-background="new    ">
					<g>
						<path fill="#D34A27" d="M11.4036,17.4451l0.063,0.5774c0.0057,1.9975,1.3183,3.9922,3.9419,5.5169
							c5.2782,3.0674,13.8706,3.0675,19.1834,0.0001c2.6749-1.5444,4.0101-3.571,4.0044-5.5943l-0.063-0.5774
							c0.0057,2.0233-1.3295,4.05-4.0044,5.5943c-5.3129,3.0674-13.9052,3.0672-19.1834-0.0001
							C12.7219,21.4374,11.4093,19.4427,11.4036,17.4451z"/>
					</g>
					<g>
						<path fill="#F9A62B" d="M15.408,11.8503c-5.3129,3.0674-5.3446,8.0421-0.0625,11.1118
							c5.2782,3.0674,13.8706,3.0675,19.1834,0.0001c5.3167-3.0696,5.3407-8.0444,0.0625-11.1118
							C29.3094,8.7808,20.7247,8.7807,15.408,11.8503z"/>
					</g>
				</g>
			</g>
			<g>
				<g enable-background="new    ">
					<g>
						<path fill="#BFBFBF" d="M11.4036,16.8677l0.063,0.5774c0.0057,1.9975,1.3183,3.9922,3.9419,5.5169
							c5.2782,3.0674,13.8706,3.0675,19.1834,0.0001c2.6749-1.5444,4.0101-3.571,4.0044-5.5943l-0.063-0.5774
							c0.0057,2.0233-1.3295,4.05-4.0044,5.5943c-5.3129,3.0674-13.9052,3.0672-19.1834-0.0001
							C12.7219,20.86,11.4093,18.8653,11.4036,16.8677z"/>
					</g>
					<g>
						<path fill="#E8E8E8" d="M15.408,11.2729c-5.3129,3.0674-5.3446,8.0421-0.0625,11.1118
							c5.2782,3.0674,13.8706,3.0675,19.1834,0.0001c5.3167-3.0696,5.3407-8.0444,0.0625-11.1118
							C29.3094,8.2034,20.7247,8.2033,15.408,11.2729z"/>
					</g>
				</g>
			</g>
		</g>
		<g>
			<g>
				<g enable-background="new    ">
					<g>
						<path fill="#D34A27" d="M11.4036,17.4451l0.063,0.5774c0.0057,1.9975,1.3183,3.9922,3.9419,5.5169
							c5.2782,3.0674,13.8706,3.0675,19.1834,0.0001c2.6749-1.5444,4.0101-3.571,4.0044-5.5943l-0.063-0.5774
							c0.0057,2.0233-1.3295,4.05-4.0044,5.5943c-5.3129,3.0674-13.9052,3.0672-19.1834-0.0001
							C12.7219,21.4374,11.4093,19.4427,11.4036,17.4451z"/>
					</g>
					<g>
						<path fill="#F9A62B" d="M15.408,11.8503c-5.3129,3.0674-5.3446,8.0421-0.0625,11.1118
							c5.2782,3.0674,13.8706,3.0675,19.1834,0.0001c5.3167-3.0696,5.3407-8.0444,0.0625-11.1118
							C29.3094,8.7808,20.7247,8.7807,15.408,11.8503z"/>
					</g>
				</g>
			</g>
			<g>
				<g enable-background="new    ">
					<g>
						<path fill="#D34A27" d="M11.4036,16.8677l0.063,0.5774c0.0057,1.9975,1.3183,3.9922,3.9419,5.5169
							c5.2782,3.0674,13.8706,3.0675,19.1834,0.0001c2.6749-1.5444,4.0101-3.571,4.0044-5.5943l-0.063-0.5774
							c0.0057,2.0233-1.3295,4.05-4.0044,5.5943c-5.3129,3.0674-13.9052,3.0672-19.1834-0.0001
							C12.7219,20.86,11.4093,18.8653,11.4036,16.8677z"/>
					</g>
					<g>
						<path fill="#E8E8E8" d="M15.408,11.2729c-5.3129,3.0674-5.3446,8.0421-0.0625,11.1118
							c5.2782,3.0674,13.8706,3.0675,19.1834,0.0001c5.3167-3.0696,5.3407-8.0444,0.0625-11.1118
							C29.3094,8.2034,20.7247,8.2033,15.408,11.2729z"/>
					</g>
				</g>
			</g>
		</g>
		<g>
			<g>
				<g enable-background="new    ">
					<g opacity="0.5">
						<path fill="#E66C24" d="M16.7876,37.3167c-4.5488,2.6262-4.5759,6.8855-0.0535,9.5136
							c4.5191,2.6262,11.8757,2.6264,16.4244,0.0001c4.552-2.6281,4.5726-6.8874,0.0535-9.5137
							C28.6896,34.6886,21.3396,34.6886,16.7876,37.3167z"/>
					</g>
				</g>
			</g>
		</g>
		<g>
			<g enable-background="new    ">
				<g>
					<path fill="#BFBFBF" d="M11.5264,12.9169l0.0624,3.5722c0.0056,1.9795,1.3064,3.9562,3.9063,5.4671
						c5.2306,3.0397,13.7453,3.0398,19.0102,0.0001c2.6507-1.5304,3.9739-3.5387,3.9682-5.5438l-0.0624-3.5722
						c0.0057,2.0051-1.3175,4.0134-3.9682,5.5438c-5.2649,3.0397-13.7796,3.0395-19.0102-0.0001
						C12.8328,16.8731,11.5321,14.8964,11.5264,12.9169z"/>
				</g>
				<g>
					<path fill="#E8E8E8" d="M15.4947,7.3726c-5.2649,3.0397-5.2963,7.9695-0.0619,11.0114
						c5.2305,3.0397,13.7453,3.0398,19.0102,0.0001c5.2686-3.0418,5.2924-7.9717,0.0619-11.0114
						C29.2704,4.3309,20.7633,4.3308,15.4947,7.3726z"/>
				</g>
			</g>
		</g>
		<g>
			<g enable-background="new    ">
				<g>
					<path fill="#BFBFBF" d="M12.5348,7.9456l0.0578,4.3718c0.0052,1.8313,1.2086,3.6601,3.614,5.058
						c4.8391,2.8122,12.7166,2.8123,17.5875,0.0001c2.4524-1.4159,3.6765-3.2739,3.6712-5.1289l-0.0578-4.3718
						c0.0053,1.855-1.2189,3.713-3.6712,5.1289c-4.8709,2.8122-12.7484,2.8121-17.5875-0.0001
						C13.7434,11.6057,12.54,9.777,12.5348,7.9456z"/>
				</g>
				<g>
					<path fill="#E8E8E8" d="M16.206,2.8163c-4.8709,2.8122-4.8999,7.3731-0.0573,10.1873
						c4.8391,2.8122,12.7166,2.8123,17.5875,0.0001c4.8743-2.8142,4.8964-7.3751,0.0573-10.1873
						C28.9508,0.0021,21.0804,0.0021,16.206,2.8163z"/>
					<g>
						<path fill="#B0AFB0" d="M16.7056,4.3022c2.208-1.2749,5.1582-1.9766,8.3057-1.9766s6.0879,0.7012,8.2803,1.9751
							c1.8739,1.0894,2.9496,2.4624,3.0884,3.8945c0.0097-0.1011,0.0276-0.2021,0.0278-0.3037
							c0.002-1.5459-1.1045-3.0415-3.1162-4.2104c-2.1924-1.2739-5.1328-1.9756-8.2803-1.9756s-6.0977,0.7021-8.3057,1.9766
							c-2.043,1.1797-3.1689,2.688-3.1709,4.2471c-0.0001,0.1055,0.0176,0.21,0.0278,0.3154
							C13.701,6.7943,14.7963,5.4042,16.7056,4.3022z"/>
						<path fill="#D7D7D7" d="M16.6519,12.1391c2.1895,1.2725,5.1299,1.9736,8.2793,1.9736s6.0986-0.7012,8.3047-1.9751
							c1.9096-1.1025,3.0051-2.4927,3.144-3.9424c-0.1387-1.4321-1.2145-2.8052-3.0884-3.8945
							c-2.1924-1.2739-5.1328-1.9751-8.2803-1.9751s-6.0977,0.7017-8.3057,1.9766c-1.9092,1.1021-3.0046,2.4922-3.1431,3.9424
							C13.7007,9.6767,14.7766,11.0497,16.6519,12.1391z"/>
					</g>
				</g>
			</g>
		</g>
		<g>
			<path fill="#D34A27" d="M13.3591,42.1068l0.054,0.4944c0.0048,1.7102,1.1287,3.4181,3.375,4.7235
				c4.5191,2.6262,11.8757,2.6264,16.4244,0.0001c2.2902-1.3222,3.4334-3.0574,3.4284-4.7897l-0.0539-0.4944
				c0.0049,1.7323-1.1383,3.4675-3.4285,4.7897c-4.5488,2.6262-11.9053,2.6261-16.4244-0.0001
				C14.4878,45.5249,13.3639,43.8171,13.3591,42.1068z"/>
		</g>
	</g>
</g>
</svg>
