<?xml version="1.0" encoding="utf-8"?>
<!-- Generator: Adobe Illustrator 18.0.0, SVG Export Plug-In . SVG Version: 6.00 Build 0)  -->
<!DOCTYPE svg PUBLIC "-//W3C//DTD SVG 1.1//EN" "http://www.w3.org/Graphics/SVG/1.1/DTD/svg11.dtd">
<svg version="1.1" id="Layer_1" xmlns="http://www.w3.org/2000/svg" xmlns:xlink="http://www.w3.org/1999/xlink" x="0px" y="0px"
	 viewBox="0 0 50 50" enable-background="new 0 0 50 50" xml:space="preserve">
<g>
	<g>
		<g>
			<g enable-background="new    ">
				<g>
					<path fill="#E8E8E8" d="M42.7742,15.7214L17.9874,1.413c-0.8286-0.485-1.5763-0.5255-2.122-0.2122L5.1847,7.4151
						c0.5355-0.3232,1.2934-0.2728,2.122,0.2023l24.7767,14.3084c0.9205,0.5309,1.7358,1.492,2.2835,2.5627l10.683-6.2059
						C44.5034,17.212,43.6898,16.2528,42.7742,15.7214z"/>
					<g>
						<polygon fill="#BFBFBF" points="32.2548,15.1558 29.8811,16.5352 28.4258,15.695 30.7995,14.3155 						"/>
						<polygon fill="#BFBFBF" points="19.637,7.8511 17.2633,9.2306 15.8079,8.3903 18.1817,7.0109 						"/>
					</g>
					<path fill="#BFBFBF" d="M34.367,24.4885c0.4323,0.8447,0.7018,1.7565,0.6973,2.5903l-0.0506,19.8053
						c-0.0101,0.9399-0.3435,1.5966-0.8791,1.9099l10.6807-6.2044c0.5356-0.3133,0.869-0.97,0.8791-1.9099l0.0505-19.8048
						c0.0044-0.8373-0.2644-1.7486-0.695-2.5923L34.367,24.4885z"/>
				</g>
				<g>
					<path fill="#BFBFBF" d="M35.3891,20.0211L10.6023,5.7127c-0.8286-0.485-1.5763-0.5255-2.122-0.2122L8.0658,5.7472
						c0.5355-0.3232,1.2934-0.2728,2.122,0.2023l24.7767,14.3084c0.9205,0.5309,1.7358,1.492,2.2835,2.5627l0.4168-0.2383
						C37.1183,21.5116,36.3047,20.5525,35.3891,20.0211z"/>
					<path fill="#B0AFB0" d="M37.248,22.8206c0.4323,0.8447,0.7018,1.7565,0.6973,2.5903l-0.0506,19.8053
						c-0.0101,0.9399-0.3435,1.5966-0.8791,1.9099l0.4145-0.2368c0.5356-0.3133,0.869-0.97,0.8791-1.9099l0.0505-19.8048
						c0.0044-0.8373-0.2644-1.7486-0.695-2.5923L37.248,22.8206z"/>
				</g>
				<g>
					<path fill="#D7D7D7" d="M32.0881,21.9268c1.6452,0.9498,2.9827,3.2593,2.9773,5.1569l-0.0561,19.8009
						c-0.0054,1.8903-1.3516,2.6576-2.9968,1.7078L7.2323,34.2855C5.5807,33.332,4.2496,31.019,4.255,29.1286L4.3111,9.3277
						C4.3165,7.4302,5.6563,6.6664,7.3079,7.62L32.0881,21.9268z"/>
				</g>
			</g>
		</g>
		<g>
			<g enable-background="new    ">
				<g>
					<path fill="#686868" d="M19.4969,3.9329c-0.2268,0.1335-0.3735,0.4136-0.3735,0.8135l-0.0067,3.0949l-1.8809,1.0939
						l0.0067-3.0949c0-0.4003,0.1467-0.6868,0.3735-0.8135L19.4969,3.9329z"/>
				</g>
				<g>
					<path fill="#686868" d="M31.7561,12.0366l-0.0067,3.1014l-1.8809,1.0939l0.0134-3.1014c0-1.4007-0.9938-3.1216-2.2144-3.8286
						l-9.1377-5.2756c-0.6203-0.3602-1.1806-0.3869-1.5807-0.1534l1.8809-1.0939c0.4002-0.2335,0.9605-0.2003,1.5807,0.1534
						l9.1377,5.2759C30.7689,8.915,31.7627,10.6359,31.7561,12.0366z"/>
				</g>
				<g>
					<path fill="#4F4D4D" d="M27.6673,9.3022c1.2222,0.7056,2.2154,2.426,2.2114,3.8303L29.87,16.2301l-0.9454-0.5458l0.0088-3.0976
						c0.0023-0.8073-0.5665-1.7925-1.2691-2.1982l-9.1386-5.2762c-0.7027-0.4057-1.2794-0.0819-1.2817,0.7255l-0.0088,3.0976
						l-0.9454-0.5458l0.0088-3.0976c0.004-1.4044,1.0037-1.9741,2.2301-1.266L27.6673,9.3022z"/>
				</g>
			</g>
		</g>
		<g>
			<g enable-background="new    ">
				<g>
					<polygon fill="#4F4D4D" points="35.2036,18.4503 35.2021,18.7514 32.3767,20.3934 32.3782,20.0922 					"/>
				</g>
				<g>
					<polygon fill="#4F4D4D" points="32.3782,20.0922 32.3767,20.3934 30.7557,19.4575 30.7572,19.1563 					"/>
				</g>
				<g>
					<polygon fill="#686868" points="35.2036,18.4503 32.3782,20.0922 30.7572,19.1563 33.5826,17.5144 					"/>
				</g>
			</g>
		</g>
		<g>
			<g enable-background="new    ">
				<g>
					<polygon fill="#4F4D4D" points="14.6869,6.2356 14.6854,6.5368 11.86,8.1787 11.8615,7.8775 					"/>
				</g>
				<g>
					<polygon fill="#4F4D4D" points="11.8615,7.8775 11.86,8.1787 10.239,7.2428 10.2405,6.9417 					"/>
				</g>
				<g>
					<polygon fill="#686868" points="14.6869,6.2356 11.8615,7.8775 10.2405,6.9417 13.0659,5.2997 					"/>
				</g>
			</g>
		</g>
	</g>
	<g>
		<polygon fill="#B0AFB0" points="12.0753,16.8778 11.7838,16.7092 11.7408,31.8743 24.9489,39.5001 24.9499,39.1684 
			12.0332,31.7112 		"/>
		<polygon fill="#BFBFBF" points="12.0753,16.8778 12.0332,31.7112 24.9499,39.1684 24.9919,24.335 		"/>
	</g>
	<g>
		<g enable-background="new    ">
			<g>
				<polygon fill="#CF2027" points="19.2711,30.4953 19.4522,30.3901 19.4419,34.0461 19.2607,34.1514 				"/>
			</g>
			<g>
				<polygon fill="#EE4541" points="13.6899,24.4965 13.871,24.3912 17.0527,26.2282 16.8716,26.3335 				"/>
			</g>
			<g>
				<polygon fill="#CF2027" points="22.4607,29.5603 22.6418,29.4551 22.634,32.227 22.4528,32.3323 				"/>
			</g>
			<g>
				<polygon fill="#EE4541" points="19.279,27.7234 19.4601,27.6181 22.6418,29.4551 22.4607,29.5603 				"/>
			</g>
			<g>
				<polygon fill="#CF2027" points="19.2893,24.0673 19.4705,23.962 19.4601,27.6181 19.279,27.7234 				"/>
			</g>
			<g>
				<polygon fill="#EE4541" points="16.882,22.6774 17.0631,22.5721 19.4705,23.962 19.2893,24.0673 				"/>
			</g>
			<g>
				<polygon fill="#E02426" points="19.2893,24.0673 19.279,27.7234 22.4607,29.5603 22.4528,32.3323 19.2711,30.4953 
					19.2607,34.1514 16.8534,32.7615 16.8637,29.1054 13.6821,27.2685 13.6899,24.4965 16.8716,26.3335 16.882,22.6774 				"/>
			</g>
		</g>
	</g>
</g>
</svg>
