<?xml version="1.0" encoding="utf-8"?>
<!-- Generator: Adobe Illustrator 18.0.0, SVG Export Plug-In . SVG Version: 6.00 Build 0)  -->
<!DOCTYPE svg PUBLIC "-//W3C//DTD SVG 1.1//EN" "http://www.w3.org/Graphics/SVG/1.1/DTD/svg11.dtd">
<svg version="1.1" id="Layer_1" xmlns="http://www.w3.org/2000/svg" xmlns:xlink="http://www.w3.org/1999/xlink" x="0px" y="0px"
	 viewBox="0 0 50 50" enable-background="new 0 0 50 50" xml:space="preserve">
<g>
	<g>
		<g enable-background="new    ">
			<g>
				<path fill="#55B8E8" d="M49,12.2042l-0.0167,2.7241c0,0.719-0.5014,1.438-1.4206,1.9725l-2.8747,1.6885v-2.7249l2.8914-1.6877
					C48.4986,13.6422,48.9833,12.9232,49,12.2042z"/>
			</g>
			<g>
				<polygon fill="#EE4541" points="44.6898,15.8566 44.6821,18.5814 38.3862,14.9465 38.3939,12.2216 				"/>
			</g>
			<g>
				<path fill="#7BD3F7" d="M47.7335,10.4367c0.0507,0.0292,0.1006,0.0594,0.1496,0.0904c1.6438,1.035,1.3973,2.6618-0.3093,3.6535
					l-2.8839,1.676l-6.2959-3.6349l3.064-1.7806C43.1886,9.4353,45.9897,9.43,47.7335,10.4367z"/>
			</g>
		</g>
		<g enable-background="new    ">
			<g>
				<polygon fill="#D7D7D7" points="39.0021,18.1853 38.9943,20.9102 34.3951,18.2548 34.4028,15.53 				"/>
			</g>
			<g>
				<polygon fill="#686868" points="30.3192,23.2313 30.3115,25.9561 25.7122,23.3007 25.72,20.5759 				"/>
			</g>
			<g>
				<polygon fill="#BFBFBF" points="34.4028,15.53 34.3951,18.2548 25.7122,23.3007 25.72,20.5759 				"/>
			</g>
			<g>
				<polygon fill="#686868" points="39.0021,19.021 30.3192,24.067 25.72,21.4116 34.4028,16.3657 				"/>
			</g>
			<g>
				<path fill="#E8E8E8" d="M38.3939,12.2216l6.2959,3.635L21.2624,29.4711c-0.2226,0.1294-0.4769,0.2524-0.7638,0.3573
					l-5.8168,2.0823c-3.6835,1.3123-7.068,2.8712-10.1316,4.6393l-1.1039-1.3845c3.0318-1.7865,5.0764-3.3718,7.3406-5.5035
					l3.5759-3.3761c0.1801-0.1665,7.2851-4.3326,0.6037-0.4498L38.3939,12.2216z M30.3192,23.2313l8.6829-5.0459L34.4028,15.53
					L25.72,20.5759L30.3192,23.2313"/>
			</g>
			<g>
				<polygon fill="#EE4541" points="5.1857,36.1698 5.178,38.8946 2.803,38.2706 3.4463,35.1655 				"/>
			</g>
			<g>
				<path fill="#BFBFBF" d="M44.688,15.8644v2.7249l-23.4312,13.604c-0.2173,0.133-0.4847,0.2505-0.7689,0.3672l-5.8163,2.0729
					c-3.677,1.3204-6.4343,2.494-9.4929,4.2657l-0.6355-2.3438c3.0753-1.7717,6.4514-3.3264,10.1451-4.6468l5.8163-2.0721
					c0.2841-0.1175,0.5348-0.2342,0.7521-0.3681L44.688,15.8644z"/>
			</g>
			<g>
				<polygon fill="#BFBEBE" points="5.1857,36.1698 5.178,38.8946 2.803,38.2706 3.4463,35.1655 				"/>
			</g>
			<g>
				<path fill="#E02426" d="M5.1788,36.1751v2.7241L5.112,38.9326l-2.0061,1.1825c-0.4848,0.2677-1.2702,0.2677-1.7549,0
					C1.117,39.9813,1,39.7976,1,39.614v-2.7249c0,0.1844,0.117,0.3681,0.3676,0.5019c0.4848,0.2669,1.2702,0.2669,1.7383,0
					l1.3705-0.8022L5.1788,36.1751z"/>
			</g>
			<g>
				<path fill="#EE4541" d="M5.1857,36.1698L4.476,36.5932L3.1082,37.388c-0.4768,0.2771-1.2639,0.2771-1.7442-0.0002
					c-0.4802-0.2772-0.4721-0.727,0.0047-1.0041l1.3678-0.7949l0.0636-0.0493l0.6462-0.3741L5.1857,36.1698z"/>
			</g>
		</g>
	</g>
	<g>
		<g>
			<path fill="#E8E8E8" d="M29.1421,20.6152l0.2682,0.1559l0.6558-0.3786l0.0669,0.5224l0.23,0.1337
				c0.042-0.0446,0.0983-0.0892,0.1649-0.1276c0.2196-0.1268,0.5093-0.1997,0.7274-0.0729c0.1978,0.115,0.1188,0.2625-0.0754,0.3746
				c-0.1613,0.0931-0.368,0.1518-0.6233,0.1781l0.1178,0.2147c0.3112-0.0345,0.5668-0.1094,0.7632-0.2227
				c0.3698-0.2135,0.4647-0.5018,0.0809-0.7249c-0.2765-0.1607-0.6904-0.1822-1.0347,0.0081l-0.0459-0.5345l-0.2368-0.1376
				L29.1421,20.6152z"/>
		</g>
		<g enable-background="new    ">
			<g>
				<path fill="#E8E8E8" d="M33.8317,19.5664c-0.0526,0.0304-0.0806,0.0669-0.081,0.1114c-0.0001,0.0406,0.024,0.079,0.0764,0.1094
					c0.0522,0.0303,0.1186,0.0445,0.192,0.0466c0.0768-0.0001,0.1397-0.0163,0.1923-0.0467
					c0.0526-0.0304,0.0808-0.0668,0.0812-0.1113c0.0002-0.0446-0.0276-0.0811-0.0798-0.1114
					c-0.0524-0.0304-0.1151-0.0466-0.1886-0.0446C33.9475,19.5199,33.8843,19.536,33.8317,19.5664z"/>
			</g>
			<g>
				<path fill="#E8E8E8" d="M30.9925,19.7527c-0.0096-0.16,0.0854-0.2957,0.2818-0.409c0.1964-0.1134,0.4345-0.1781,0.7142-0.1984
					l0.0722,0.2167c-0.0769,0.0041-0.1608,0.0162-0.2555,0.0384c-0.0909,0.0203-0.1645,0.0466-0.2171,0.0769
					c-0.1613,0.0931-0.2213,0.1924-0.1905,0.2996c0.0345,0.1054,0.1353,0.2127,0.3198,0.3199
					c-0.0127-0.1,0.0556-0.2621,0.2574-0.3785c0.3118-0.18,0.7852-0.2018,1.1533,0.0121c0.3673,0.2135,0.3209,0.4969-0.0319,0.7005
					c-0.2911,0.1681-0.6163,0.2106-0.9828,0.1236c-0.2094-0.0486-0.4048-0.1296-0.5894-0.2369
					C31.3219,20.2,30.9909,19.9857,30.9925,19.7527z M32.4817,20.3662c0.1328,0,0.2517-0.0284,0.3534-0.0871
					c0.1939-0.112,0.2264-0.2788,0.0372-0.3887c-0.1702-0.0989-0.4492-0.1201-0.6712,0.0081
					c-0.1985,0.1146-0.2511,0.2766-0.0545,0.3908C32.2371,20.3419,32.3487,20.3661,32.4817,20.3662"/>
			</g>
		</g>
		<g>
			<path fill="#E8E8E8" d="M32.961,18.4104l0.2682,0.1559l0.6523-0.3766l0.0669,0.5224l0.23,0.1337
				c0.042-0.0446,0.0983-0.0892,0.1649-0.1276c0.219-0.1264,0.5089-0.1999,0.7274-0.0729c0.1971,0.1146,0.1209,0.2613-0.0754,0.3746
				c-0.1613,0.0931-0.368,0.1518-0.6233,0.1781l0.1178,0.2147c0.3112-0.0345,0.5668-0.1094,0.7632-0.2227
				c0.3784-0.2185,0.4589-0.5052,0.0809-0.7249c-0.2771-0.161-0.6911-0.1818-1.0347,0.0081l-0.0459-0.5345l-0.2368-0.1376
				L32.961,18.4104z"/>
		</g>
	</g>
</g>
</svg>
