<?xml version="1.0" encoding="utf-8"?>
<!-- Generator: Adobe Illustrator 18.0.0, SVG Export Plug-In . SVG Version: 6.00 Build 0)  -->
<!DOCTYPE svg PUBLIC "-//W3C//DTD SVG 1.1//EN" "http://www.w3.org/Graphics/SVG/1.1/DTD/svg11.dtd">
<svg version="1.1" id="Layer_1" xmlns="http://www.w3.org/2000/svg" xmlns:xlink="http://www.w3.org/1999/xlink" x="0px" y="0px"
	 viewBox="0 0 50 50" enable-background="new 0 0 50 50" xml:space="preserve">
<g>
	<g enable-background="new    ">
		<g>
			<polygon fill="#515050" points="22.3351,4.4596 22.3334,5.043 21.8296,5.3358 21.8312,4.7524 			"/>
		</g>
		<g>
			<polygon fill="#383838" points="21.8312,4.7524 21.8296,5.3358 19.7049,4.1092 19.7066,3.5258 			"/>
		</g>
		<g>
			<polygon fill="#515050" points="19.7066,3.5258 19.7049,4.1092 12.4735,8.3116 12.4752,7.7282 			"/>
		</g>
		<g>
			<polygon fill="#515050" points="14.5998,8.9549 14.5981,9.5383 14.0943,9.8311 14.0959,9.2477 			"/>
		</g>
		<g>
			<polygon fill="#383838" points="14.0959,9.2477 14.0943,9.8311 11.4625,8.3116 11.4641,7.7283 			"/>
		</g>
		<g>
			<polygon fill="#5A5B5B" points="22.3351,4.4596 21.8312,4.7524 19.7066,3.5258 12.4752,7.7282 14.5998,8.9549 14.0959,9.2477 
				11.4641,7.7283 19.7033,2.9402 			"/>
		</g>
	</g>
	<g>
		<g>
			<g enable-background="new    ">
				<g>
					<path fill="#686868" d="M23.1962,47.0936c0.0011,0.5644,0.2007,0.9613,0.5215,1.1488l1.0966,0.6374
						c-0.3208-0.1874-0.5204-0.5844-0.5215-1.1488c-0.0033-1.1367,0.7949-2.5192,1.7838-3.0902
						c0.4972-0.2867,0.9481-0.3142,1.2734-0.1246l-1.0966-0.6374c-0.3252-0.1885-0.7761-0.1621-1.2734,0.1246
						C23.9911,44.5744,23.1929,45.958,23.1962,47.0936z"/>
				</g>
				<g>
					<path fill="#4F4D4D" d="M26.0765,44.6407c-0.989,0.571-1.7874,1.9539-1.7842,3.0903c0.0032,1.1356,0.8069,1.5944,1.7958,1.0234
						c0.9883-0.5706,1.7874-1.9548,1.7842-3.0903C27.8691,44.5277,27.0648,44.0701,26.0765,44.6407z"/>
				</g>
				<g>
					<path fill="#686868" d="M26.0793,45.6207c-0.5178,0.2989-0.9358,1.0229-0.9341,1.6179
						c0.0017,0.5945,0.4224,0.8347,0.9402,0.5358c0.5174-0.2987,0.9358-1.0234,0.9341-1.6179
						C27.0178,45.5616,26.5967,45.322,26.0793,45.6207z"/>
				</g>
			</g>
		</g>
		<g>
			<g enable-background="new    ">
				<g>
					<path fill="#686868" d="M37.65,38.494c0.0011,0.5644,0.2007,0.9613,0.5215,1.1488l1.0966,0.6374
						c-0.3208-0.1874-0.5204-0.5844-0.5215-1.1488c-0.0033-1.1367,0.7949-2.5192,1.7838-3.0902
						c0.4972-0.2867,0.9481-0.3142,1.2734-0.1246l-1.0966-0.6374c-0.3252-0.1885-0.7761-0.1621-1.2734,0.1246
						C38.4449,35.9748,37.6467,37.3584,37.65,38.494z"/>
				</g>
				<g>
					<path fill="#4F4D4D" d="M40.5303,36.0411c-0.989,0.571-1.7874,1.9539-1.7842,3.0903c0.0032,1.1356,0.8069,1.5944,1.7958,1.0234
						c0.9883-0.5706,1.7874-1.9548,1.7842-3.0903C42.3229,35.9281,41.5186,35.4705,40.5303,36.0411z"/>
				</g>
				<g>
					<path fill="#686868" d="M40.5331,37.0211c-0.5178,0.2989-0.9358,1.0229-0.9341,1.6179
						c0.0017,0.5945,0.4224,0.8347,0.9402,0.5358c0.5174-0.2987,0.9358-1.0234,0.9341-1.6179
						C41.4715,36.962,41.0504,36.7224,40.5331,37.0211z"/>
				</g>
			</g>
		</g>
		<g>
			<g enable-background="new    ">
				<g>
					<path fill="#686868" d="M8.0422,38.1756c0.0011,0.5644,0.2007,0.9613,0.5215,1.1488l1.0966,0.6374
						c-0.3208-0.1874-0.5204-0.5844-0.5215-1.1488c-0.0033-1.1367,0.7949-2.5192,1.7838-3.0902
						c0.4972-0.2867,0.9481-0.3142,1.2734-0.1246l-1.0966-0.6374c-0.3252-0.1885-0.7761-0.1621-1.2734,0.1246
						C8.8371,35.6564,8.0389,37.04,8.0422,38.1756z"/>
				</g>
				<g>
					<path fill="#4F4D4D" d="M10.9225,35.7227c-0.989,0.571-1.7874,1.9539-1.7842,3.0903c0.0032,1.1356,0.8069,1.5944,1.7958,1.0234
						c0.9883-0.5706,1.7874-1.9548,1.7842-3.0903C12.7151,35.6097,11.9108,35.1521,10.9225,35.7227z"/>
				</g>
				<g>
					<path fill="#686868" d="M10.9253,36.7027c-0.5178,0.2989-0.9358,1.0229-0.9341,1.6179
						c0.0017,0.5945,0.4224,0.8347,0.9402,0.5358c0.5174-0.2987,0.9358-1.0234,0.9341-1.6179
						C11.8638,36.6435,11.4427,36.404,10.9253,36.7027z"/>
				</g>
			</g>
		</g>
		<g>
			<g enable-background="new    ">
				<g>
					<polygon fill="#BFBFBF" points="42.4509,36.1308 42.4481,37.1118 25.0556,47.2192 25.0583,46.2383 					"/>
				</g>
				<g>
					<polygon fill="#D7D7D7" points="25.0583,46.2383 25.0556,47.2192 7.5491,37.1119 7.5519,36.1309 					"/>
				</g>
				<g>
					<polygon fill="#E8E8E8" points="42.4509,36.1308 25.0583,46.2383 7.5519,36.1309 24.9444,26.0235 					"/>
				</g>
			</g>
		</g>
		<g>
			<g enable-background="new    ">
				<g>
					<polygon fill="#D7D7D7" points="25.145,19.5097 25.0727,45.0149 10.1286,36.3869 10.2009,10.8818 					"/>
					<polygon fill="#BFBFBF" points="12.1226,19.9449 12.1388,14.2497 23.1943,20.6324 23.1781,26.3277 					"/>
				</g>
				<g>
					<polygon fill="#E8E8E8" points="39.988,10.8838 25.145,19.5097 10.2009,10.8818 25.044,2.2559 					"/>
				</g>
			</g>
		</g>
	</g>
	<g enable-background="new    ">
		<g>
			<polygon fill="#4F4D4D" points="15.4127,17.8135 15.4133,18.1973 16.2272,17.7274 16.2266,17.3436 			"/>
		</g>
		<g>
			<polygon fill="#4F4D4D" points="18.1858,19.6527 18.1865,20.0365 19.1968,19.4532 19.1962,19.0694 			"/>
		</g>
		<g>
			<polygon fill="#4F4D4D" points="15.0228,17.8145 15.0234,18.1983 18.1865,20.0365 18.1858,19.6527 			"/>
		</g>
		<g>
			<polygon fill="#686868" points="15.0228,17.8145 18.1858,19.6527 19.1962,19.0694 19.0027,18.9569 18.1888,19.4268 
				15.4127,17.8135 16.2266,17.3436 16.0331,17.2312 			"/>
		</g>
	</g>
	<polygon fill="#BFBFBF" points="12.1226,26.6916 12.1388,20.9964 23.1943,27.3791 23.1781,33.0743 	"/>
	<g enable-background="new    ">
		<g>
			<polygon fill="#4F4D4D" points="15.4127,24.5602 15.4133,24.944 16.2272,24.4741 16.2266,24.0903 			"/>
		</g>
		<g>
			<polygon fill="#4F4D4D" points="18.1858,26.3993 18.1865,26.7831 19.1968,26.1998 19.1962,25.816 			"/>
		</g>
		<g>
			<polygon fill="#4F4D4D" points="15.0228,24.5612 15.0234,24.945 18.1865,26.7831 18.1858,26.3993 			"/>
		</g>
		<g>
			<polygon fill="#686868" points="15.0228,24.5612 18.1858,26.3993 19.1962,25.816 19.0027,25.7036 18.1888,26.1735 
				15.4127,24.5602 16.2266,24.0903 16.0331,23.9779 			"/>
		</g>
	</g>
	<polygon fill="#BFBFBF" points="12.1226,33.4383 12.1388,27.743 23.1943,34.1257 23.1781,39.821 	"/>
	<g enable-background="new    ">
		<g>
			<polygon fill="#4F4D4D" points="15.4127,31.3068 15.4133,31.6906 16.2272,31.2207 16.2266,30.8369 			"/>
		</g>
		<g>
			<polygon fill="#4F4D4D" points="18.1858,33.146 18.1865,33.5298 19.1968,32.9465 19.1962,32.5627 			"/>
		</g>
		<g>
			<polygon fill="#4F4D4D" points="15.0228,31.3079 15.0234,31.6917 18.1865,33.5298 18.1858,33.146 			"/>
		</g>
		<g>
			<polygon fill="#686868" points="15.0228,31.3079 18.1858,33.146 19.1962,32.5627 19.0027,32.4503 18.1888,32.9202 
				15.4127,31.3068 16.2266,30.8369 16.0331,30.7245 			"/>
		</g>
	</g>
	<g>
		<g enable-background="new    ">
			<g>
				<polygon fill="#D7D7D7" points="27.474,18.1562 12.5918,9.4923 13.25,7.8571 28.1061,16.4916 				"/>
			</g>
			<g>
				<polygon fill="#E8E8E8" points="28.1061,16.4916 13.25,7.8571 25.1269,1 39.983,9.6344 				"/>
			</g>
			<g>
				<polygon fill="#BFBFBF" points="39.9876,9.6328 39.9876,10.8891 39.9195,36.3842 25.0685,45.0123 25.1464,19.5076 
					27.4738,18.1538 28.1069,16.4886 				"/>
			</g>
		</g>
	</g>
	<g enable-background="new    ">
		<g>
			<polygon fill="#383838" points="38.9724,15.6223 38.9708,16.2056 36.8507,14.9816 36.8524,14.3983 			"/>
		</g>
		<g>
			<polygon fill="#383838" points="31.7489,20.413 31.7472,20.9964 29.1154,19.4769 29.1171,18.8935 			"/>
		</g>
		<g>
			<polygon fill="#515050" points="39.988,15.6249 39.9864,16.2083 31.7472,20.9964 31.7489,20.413 			"/>
		</g>
		<g>
			<polygon fill="#5A5B5B" points="39.988,15.6249 31.7489,20.413 29.1171,18.8935 29.6209,18.6007 31.741,19.8247 38.9724,15.6223 
				36.8524,14.3983 37.3563,14.1054 			"/>
		</g>
	</g>
</g>
</svg>
