<?xml version="1.0" encoding="utf-8"?>
<!-- Generator: Adobe Illustrator 18.0.0, SVG Export Plug-In . SVG Version: 6.00 Build 0)  -->
<!DOCTYPE svg PUBLIC "-//W3C//DTD SVG 1.1//EN" "http://www.w3.org/Graphics/SVG/1.1/DTD/svg11.dtd">
<svg version="1.1" id="Layer_1" xmlns="http://www.w3.org/2000/svg" xmlns:xlink="http://www.w3.org/1999/xlink" x="0px" y="0px"
	 viewBox="0 0 50 50" enable-background="new 0 0 50 50" xml:space="preserve">
<g>
	<g>
		<g>
			<g enable-background="new    ">
				<g>
					<path fill="#33383D" d="M30.1168,22.8984c0.0225-0.1859,0.034-0.37,0.0335-0.5504c5.1211,2.976,10.2418,5.952,15.3629,8.928
						c0.0005,0.1804-0.011,0.3645-0.0335,0.5504C40.8708,29.148,34.7256,25.5768,30.1168,22.8984z"/>
				</g>
				<g>
					<polygon fill="#33383D" points="44.8613,29.5027 29.4984,20.5747 32.7445,18.7005 48.1075,27.6285 					"/>
				</g>
				<g>
					<path fill="#464C56" d="M27.1305,25.9545c5.1208,2.9764,10.2417,5.9523,15.3629,8.928
						c-0.4452,0.257-0.8503,0.2804-1.1436,0.1099l-15.3629-8.928C26.2802,26.2349,26.6853,26.2115,27.1305,25.9545z"/>
				</g>
				<g>
					<path fill="#464C56" d="M28.7439,23.16c-0.0014-0.5101-0.1817-0.869-0.4722-1.0379l15.3629,8.928
						c0.2906,0.1689,0.4708,0.5278,0.4722,1.0379c0.0029,1.027-0.7199,2.2786-1.6135,2.7945l-15.3629-8.928
						C28.0241,25.4386,28.7469,24.187,28.7439,23.16z"/>
				</g>
				<g>
					<path fill="#D7D7D7" d="M29.4984,20.5747c-0.072-0.0634-0.1491-0.1189-0.2308-0.1664l15.3629,8.928
						c0.0818,0.0475,0.1589,0.1031,0.2308,0.1664C40.2524,26.8243,33.8239,23.69,29.4984,20.5747z"/>
				</g>
				<g>
					<polygon fill="#33383D" points="26.3895,40.1674 11.0265,31.2394 24.7465,23.3182 40.1095,32.2462 					"/>
				</g>
				<g>
					<path fill="#616976" d="M41.3498,34.9923l-15.3629-8.9279c-0.2907-0.169-0.4717-0.5283-0.4731-1.0395
						c-0.0029-1.027,0.7199-2.2786,1.6062-2.7903l15.3629,8.928c-0.8863,0.5117-1.6091,1.7633-1.6062,2.7903
						C40.8781,34.464,41.0591,34.8234,41.3498,34.9923z"/>
				</g>
				<g>
					<path fill="#33383D" d="M30.1503,22.348c-0.0023-0.8096-0.2458-1.416-0.6519-1.7733l15.3629,8.928
						c0.4062,0.3573,0.6497,0.9637,0.652,1.7733C40.3921,28.3,35.2714,25.324,30.1503,22.348z"/>
				</g>
				<g>
					<path fill="#616976" d="M28.2717,22.122l15.3629,8.928c-0.2944-0.1711-0.702-0.147-1.1518,0.1126l-15.3629-8.928
						C27.5697,21.975,27.9773,21.9509,28.2717,22.122z"/>
				</g>
				<g>
					<path fill="#282828" d="M40.3503,36.7001l-15.3629-8.9279c-0.4387-0.255-0.7427-0.7425-0.8435-1.4253
						c-0.0235-0.1593-0.036-0.3295-0.0365-0.51c-0.0023-0.8096,0.2369-1.6946,0.6392-2.5187
						c0.5509-1.129,1.4078-2.1447,2.3688-2.6996c0.8404-0.4852,1.6021-0.53,2.1522-0.2103l15.3629,8.928
						c-0.5501-0.3197-1.3118-0.2749-2.1522,0.2103c-0.9611,0.5549-1.8179,1.5706-2.3688,2.6996
						c-0.4023,0.8241-0.6415,1.7091-0.6392,2.5187c0.0005,0.1804,0.013,0.3506,0.0365,0.5099
						C39.6076,35.9576,39.9116,36.4451,40.3503,36.7001z"/>
				</g>
				<g>
					<path fill="#D7D7D7" d="M27.1199,22.2346c0.4498-0.2596,0.8574-0.2837,1.1518-0.1126l12.4482,7.2342l0.7473-0.4315
						c-3.7722-2.1922-7.5446-4.3844-11.317-6.5767h0.0001c-0.0023-0.8096-0.2458-1.4159-0.652-1.7733l13.1725,7.655l5.4295-3.1346
						l-15.363-8.928L11.0193,28.706l15.3629,8.928l13.6627-7.8882L27.1199,22.2346z"/>
				</g>
				<g>
					<path fill="#3D3D3D" d="M48.9077,27.3702c-0.11-0.0601-0.31-0.0303-0.54,0.1001l-0.26,0.1597l-15.36-8.9297l0.25-0.1602
						c0.24-0.1299,0.44-0.1602,0.55-0.1001L48.9077,27.3702z"/>
				</g>
				<g>
					<path fill="#4F4D4D" d="M48.3638,27.4718c0.3516-0.203,0.6305-0.1701,0.6311,0.0656l0.0052,1.8265
						c0.0007,0.2356-0.2771,0.5899-0.6287,0.7929L45.61,31.7511l-0.1303,0.0752c0.0225-0.1859,0.034-0.37,0.0335-0.5504
						c-0.0023-0.8096-0.2458-1.416-0.6519-1.7733l3.2462-1.8742L48.3638,27.4718z"/>
				</g>
				<g>
					<path fill="#B0AFB0" d="M42.4829,31.1626c0.8936-0.5159,1.6211-0.1017,1.624,0.9253c0.0029,1.027-0.7199,2.2785-1.6135,2.7945
						c-0.8863,0.5117-1.6138,0.0975-1.6168-0.9295S41.5966,31.6743,42.4829,31.1626z"/>
				</g>
				<g>
					<path fill="#3D3D3D" d="M44.8613,29.5027c0.4062,0.3573,0.6496,0.9637,0.6519,1.7733c0.0005,0.1804-0.011,0.3645-0.0335,0.5504
						c-0.2178,1.7947-1.4686,3.7903-2.9817,4.6639c-1.5065,0.8698-2.764,0.3224-2.9912-1.2154
						c-0.0235-0.1593-0.036-0.3295-0.0365-0.5099c-0.0023-0.8096,0.2369-1.6946,0.6392-2.5187
						c0.5509-1.129,1.4078-2.1447,2.3688-2.6996C43.4436,28.9893,44.305,29.0129,44.8613,29.5027z M42.4934,34.8824
						c0.8936-0.5159,1.6164-1.7675,1.6135-2.7945c-0.0029-1.0269-0.7304-1.4412-1.624-0.9253
						c-0.8863,0.5117-1.6091,1.7633-1.6062,2.7903C40.8796,34.9799,41.6071,35.3941,42.4934,34.8824"/>
				</g>
				<g>
					<path fill="#D7D7D7" d="M32.349,1.6415l15.3629,8.928c-0.218-0.1267-0.5205-0.108-0.8558,0.0857l-15.3629-8.928
						C31.8285,1.5336,32.131,1.5148,32.349,1.6415z"/>
				</g>
				<g>
					<polygon fill="#E02426" points="26.3748,34.9827 11.0119,26.0547 32.7299,13.5158 48.0928,22.4438 					"/>
				</g>
				<g>
					<polygon fill="#D7D7D7" points="37.6766,25.7513 22.3136,16.8233 22.4377,16.5998 37.8007,25.5278 					"/>
				</g>
				<g>
					<polygon fill="#D7D7D7" points="39.3923,22.7798 24.0293,13.8518 24.1535,13.6283 39.5164,22.5562 					"/>
				</g>
				<g>
					<polygon fill="#D7D7D7" points="36.7829,26.2672 21.42,17.3393 22.3136,16.8233 37.6766,25.7513 					"/>
				</g>
				<g>
					<polygon fill="#D7D7D7" points="39.5164,22.5562 24.1535,13.6283 24.1506,12.6013 39.5135,21.5293 					"/>
				</g>
				<g>
					<polygon fill="#D7D7D7" points="36.6507,26.1917 21.2877,17.2638 21.42,17.3393 36.7829,26.2672 					"/>
				</g>
				<g>
					<polygon fill="#D7D7D7" points="37.7955,23.7017 22.4325,14.7737 24.0293,13.8518 39.3923,22.7798 					"/>
				</g>
				<g>
					<polygon fill="#E02426" points="37.7918,22.3714 22.4288,13.4435 24.0256,12.5216 39.3885,21.4495 					"/>
				</g>
				<g>
					<polygon fill="#D7D7D7" points="39.5135,21.5293 24.1506,12.6013 24.0256,12.5216 39.3885,21.4496 					"/>
				</g>
				<g>
					<polygon fill="#D7D7D7" points="37.8007,25.5278 22.4377,16.5998 22.4325,14.7737 37.7955,23.7017 					"/>
				</g>
				<g>
					<polygon fill="#E02426" points="36.6507,26.1917 21.2878,17.2637 21.2826,15.4376 36.6455,24.3656 					"/>
				</g>
				<g>
					<path fill="#33383D" d="M10.142,34.4308c0.0226-0.1859,0.0341-0.37,0.0336-0.5504c5.1211,2.976,10.2418,5.952,15.3629,8.928
						c0.0005,0.1804-0.011,0.3645-0.0336,0.5504C20.8961,40.6804,14.7509,37.1092,10.142,34.4308z"/>
				</g>
				<g>
					<polygon fill="#D7D7D7" points="35.056,25.2833 19.6931,16.3554 21.2825,15.4377 36.6455,24.3656 					"/>
				</g>
				<g>
					<polygon fill="#D7D7D7" points="37.7917,22.3715 22.4288,13.4435 22.4236,11.6174 37.7865,20.5454 					"/>
				</g>
				<g>
					<polygon fill="#D7D7D7" points="34.9237,25.2078 19.5608,16.2798 19.6931,16.3554 35.056,25.2833 					"/>
				</g>
				<g>
					<polygon fill="#E02426" points="36.768,20.9816 21.405,12.0536 22.2987,11.5377 37.6616,20.4656 					"/>
				</g>
				<g>
					<polygon fill="#D7D7D7" points="37.7865,20.5454 22.4236,11.6174 22.2986,11.5377 37.6616,20.4657 					"/>
				</g>
				<g>
					<polygon fill="#E02426" points="34.9238,25.2078 19.5608,16.2798 19.5579,15.2528 34.9209,24.1808 					"/>
				</g>
				<g>
					
						<rect x="18.4207" y="19.4715" transform="matrix(0.8646 0.5025 -0.5025 0.8646 13.5466 -11.0654)" fill="#E02426" width="17.7687" height="0.2629"/>
				</g>
				<g>
					<polygon fill="#E02426" points="35.0523,23.9531 19.6893,15.0251 21.2788,14.1074 36.6418,23.0354 					"/>
				</g>
				<g>
					<polygon fill="#E02426" points="36.6418,23.0354 21.2788,14.1074 21.2736,12.2813 36.6366,21.2093 					"/>
				</g>
				<g>
					<polygon fill="#E02426" points="37.6616,20.4656 37.7866,20.5453 37.7918,22.3714 39.3885,21.4495 39.5135,21.5292 
						39.5164,22.5562 39.3923,22.7797 37.7955,23.7016 37.8007,25.5277 37.6766,25.7512 36.783,26.2672 36.6507,26.1917 
						36.6455,24.3656 35.056,25.2833 34.9238,25.2078 34.9209,24.1808 35.0523,23.9531 36.6418,23.0354 36.6366,21.2093 
						36.768,20.9816 					"/>
				</g>
				<g>
					
						<rect x="20.1364" y="16.5" transform="matrix(0.8646 0.5025 -0.5025 0.8646 12.2858 -12.3298)" fill="#E02426" width="17.7687" height="0.2629"/>
				</g>
				<g>
					<path fill="#4F4D4D" d="M26.3895,40.1674l13.72-7.9212c-0.4023,0.8241-0.6415,1.7091-0.6392,2.5187
						c0.0005,0.1804,0.013,0.3506,0.0365,0.5099l-14.0018,8.084c0.0226-0.1859,0.0341-0.37,0.0336-0.5504
						c-0.0023-0.8096-0.2458-1.4159-0.6519-1.7733L26.3895,40.1674z"/>
				</g>
				<g>
					<polygon fill="#33383D" points="24.8866,41.0351 9.5237,32.1071 11.0265,31.2394 26.3895,40.1674 					"/>
				</g>
				<g>
					<path fill="#33383D" d="M10.1756,33.8804c-0.0023-0.8096-0.2458-1.4159-0.6519-1.7733l15.3629,8.928
						c0.4061,0.3574,0.6497,0.9637,0.652,1.7733C20.4175,39.8323,15.2967,36.8564,10.1756,33.8804z"/>
				</g>
				<g>
					<path fill="#464C56" d="M8.7693,34.6923c-0.0014-0.5101-0.1817-0.869-0.4722-1.0379l15.3629,8.928
						c0.2906,0.1688,0.4708,0.5278,0.4722,1.0379c0.0029,1.027-0.7199,2.2786-1.6135,2.7945l-15.3629-8.928
						C8.0494,36.9709,8.7722,35.7193,8.7693,34.6923z"/>
				</g>
				<g>
					<path fill="#E7E7E7" d="M9.5237,32.1071c-0.072-0.0634-0.1491-0.1189-0.2308-0.1664l15.3629,8.928
						c0.0818,0.0475,0.1589,0.1031,0.2308,0.1664C20.2777,38.3567,13.8492,35.2224,9.5237,32.1071z"/>
				</g>
				<g>
					<path fill="#464C56" d="M7.1557,37.4869c5.1209,2.9764,10.2417,5.9523,15.3629,8.928
						c-0.4497,0.2596-0.8574,0.2837-1.1518,0.1126L6.0039,37.5995C6.2983,37.7706,6.706,37.7465,7.1557,37.4869z"/>
				</g>
				<g>
					<path fill="#B0AFB0" d="M26.3895,40.1674l-0.0072-3.6026l21.718-12.5389l0.0072,3.5939l-3.2462,1.8829
						c-0.5563-0.4898-1.4177-0.5134-2.383,0.0439c-0.9611,0.5549-1.8179,1.5706-2.3688,2.6996L26.3895,40.1674z"/>
				</g>
				<g>
					<polygon fill="#D7D7D7" points="26.3895,40.1674 11.0265,31.2394 11.0194,28.706 26.3823,37.634 					"/>
				</g>
				<g>
					<path fill="#616976" d="M8.2971,33.6544l15.3629,8.928c-0.2944-0.1711-0.7021-0.147-1.1518,0.1126L7.1452,33.767
						C7.595,33.5074,8.0027,33.4833,8.2971,33.6544z"/>
				</g>
				<g>
					<polygon fill="#33383D" points="16.9771,45.5933 1.6142,36.6654 4.765,34.8545 20.1279,43.7825 					"/>
				</g>
				<g>
					<path fill="#616976" d="M21.3669,46.5274l-15.3629-8.928c-0.2906-0.1689-0.4708-0.5278-0.4722-1.0379
						c-0.0029-1.027,0.7199-2.2786,1.6135-2.7945l15.3629,8.928c-0.8936,0.5159-1.6164,1.7675-1.6135,2.7945
						C20.8961,45.9996,21.0763,46.3585,21.3669,46.5274z"/>
				</g>
				<g>
					<path fill="#B0AFB0" d="M22.5082,42.695c0.8936-0.5159,1.6211-0.1017,1.6241,0.9253c0.0029,1.027-0.7199,2.2785-1.6135,2.7945
						c-0.8936,0.5159-1.6212,0.1017-1.6241-0.9253C20.8917,44.4625,21.6146,43.2109,22.5082,42.695z"/>
				</g>
				<g>
					<polygon fill="#E02426" points="26.3823,37.6339 11.0194,28.7059 11.0119,26.0547 26.3748,34.9827 					"/>
				</g>
				<g>
					<polygon fill="#E02426" points="48.0928,22.4438 48.1003,24.0258 26.3823,36.5647 26.3748,34.9827 					"/>
				</g>
				<g>
					<path fill="#282828" d="M20.3674,48.2352l-15.3629-8.928c-0.4385-0.2548-0.7419-0.7419-0.8426-1.4238
						c-0.0236-0.1593-0.036-0.3295-0.0365-0.5099c-0.0023-0.8096,0.2368-1.6946,0.6397-2.519
						c0.5517-1.1295,1.4103-2.1462,2.3756-2.7035c0.8404-0.4852,1.6021-0.5301,2.1522-0.2104l15.3629,8.928
						c-0.5501-0.3197-1.3118-0.2749-2.1522,0.2104c-0.9653,0.5573-1.8239,1.574-2.3756,2.7035
						c-0.4028,0.8244-0.6419,1.7094-0.6397,2.519c0.0005,0.1804,0.0129,0.3507,0.0365,0.5099
						C19.6255,47.4933,19.929,47.9804,20.3674,48.2352z"/>
				</g>
				<g>
					<path fill="#3D3D3D" d="M24.8866,41.0351c0.4061,0.3574,0.6496,0.9637,0.6519,1.7733c0.0005,0.1804-0.011,0.3645-0.0336,0.5504
						c-0.2177,1.7947-1.4686,3.7903-2.9817,4.6639s-2.7713,0.3266-2.9984-1.2113c-0.0236-0.1593-0.036-0.3295-0.0365-0.5099
						c-0.0023-0.8096,0.2368-1.6946,0.6397-2.519c0.5517-1.1295,1.4103-2.1462,2.3756-2.7035
						C23.4689,40.5216,24.3303,40.5453,24.8866,41.0351z M22.5187,46.4148c0.8936-0.5159,1.6164-1.7675,1.6135-2.7945
						c-0.0029-1.0269-0.7304-1.4412-1.6241-0.9252c-0.8936,0.5159-1.6164,1.7675-1.6135,2.7945
						C20.8975,46.5165,21.6251,46.9308,22.5187,46.4148"/>
				</g>
				<g>
					<polygon fill="#E7E7E7" points="16.9699,43.0682 1.607,34.1402 11.0194,28.706 26.3823,37.634 					"/>
				</g>
				<g>
					<polygon fill="#EE4541" points="16.9625,40.4169 1.5995,31.4889 11.0119,26.0547 26.3748,34.9827 					"/>
				</g>
				<g>
					<polygon fill="#D7D7D7" points="26.3748,34.9827 11.0118,26.0547 11.0054,23.799 26.3684,32.7269 					"/>
				</g>
				<g>
					<polygon fill="#E7E7E7" points="23.7562,35.2048 8.3932,26.2768 9.3674,25.7143 24.7304,34.6423 					"/>
				</g>
				<g>
					<path fill="#E7E7E7" d="M8.1871,26.2989c0.0516,0.03,0.1242,0.0252,0.2062-0.0221l15.3629,8.928
						c-0.082,0.0473-0.1545,0.0521-0.2062,0.0221C18.9411,32.5485,12.7959,28.9773,8.1871,26.2989z"/>
				</g>
				<g>
					<path fill="#464C56" d="M23.55,35.2268l-15.3629-8.928c-0.0499-0.029-0.0802-0.0904-0.0804-0.1772
						c-0.0005-0.1849,0.1236-0.4002,0.2847-0.4933l15.3629,8.928c-0.1611,0.093-0.2853,0.3083-0.2847,0.4933
						C23.4699,35.1364,23.5001,35.1978,23.55,35.2268z"/>
				</g>
				<g>
					<polygon fill="#D7D7D7" points="19.5088,35.4313 4.1459,26.5033 9.9105,23.1751 25.2734,32.1031 					"/>
				</g>
				<g>
					<path fill="#E7E7E7" d="M9.6449,25.2335c-0.0003-0.093-0.032-0.1573-0.083-0.1869l15.3629,8.928
						c0.051,0.0296,0.0828,0.0939,0.083,0.1869C19.8867,31.1854,14.766,28.2095,9.6449,25.2335z"/>
				</g>
				<g>
					<path fill="#E7E7E7" d="M21.7126,34.159l-2.2038,1.2724L5.23,27.1334l-2.8606,1.6515l15.3629,8.928l5.0644-2.9239
						L21.7126,34.159z M25.2734,32.1032l-2.8796,1.6625l1.0842,0.6301l2.8903-1.6687l-15.3629-8.928l-0.0108,0.0062L25.2734,32.1032
						z"/>
				</g>
				<g>
					<path fill="#464C56" d="M23.3634,33.2059l-0.9696,0.5598l1.3605,0.7907l0.9696-0.5598
						C24.2704,33.733,23.8169,33.4694,23.3634,33.2059z"/>
				</g>
				<g>
					<path fill="#E7E7E7" d="M23.8933,34.156c0.2839,0.165,0.5633,0.3274,0.837,0.4864c0.1538-0.0888,0.278-0.3042,0.2775-0.4809
						c-0.1868-0.1085-0.3734-0.217-0.5602-0.3256L23.8933,34.156z"/>
				</g>
				<g>
					<path fill="#464C56" d="M9.5619,25.0465l15.3629,8.928c-0.0504-0.0293-0.1198-0.0248-0.1962,0.0193l-15.3629-8.928
						C9.4421,25.0217,9.5114,25.0172,9.5619,25.0465z"/>
				</g>
				<g>
					<path fill="#464C56" d="M24.7286,33.9938c0.1538-0.0888,0.2787-0.0173,0.2793,0.1676c0.0005,0.1767-0.1236,0.392-0.2774,0.4808
						l-0.9742,0.5625c-0.1611,0.093-0.2861,0.0216-0.2866-0.1552c-0.0005-0.1849,0.1236-0.4002,0.2847-0.4933L24.7286,33.9938z"/>
				</g>
				<g>
					<path fill="#686868" d="M16.3599,46.3791l0.01,1.8203c0,0.0801,0.03,0.1396,0.09,0.1699l-15.37-8.9302
						c-0.05-0.0298-0.08-0.0801-0.08-0.1597l-0.01-1.8301c0-0.2305,0.27-0.5801,0.61-0.7803l15.37,8.9199
						C16.6299,45.799,16.3599,46.1491,16.3599,46.3791z"/>
				</g>
				<g>
					<path fill="#4F4D4D" d="M16.9771,45.5933l3.1508-1.8109c-0.4028,0.8244-0.6419,1.7094-0.6397,2.519
						c0.0005,0.1804,0.0129,0.3507,0.0365,0.5099l-2.5255,1.4581c-0.3516,0.203-0.6305,0.1701-0.6311-0.0656l-0.0052-1.8265
						C16.3624,46.1454,16.6325,45.7978,16.9771,45.5933z"/>
				</g>
				<g>
					<polygon fill="#D7D7D7" points="16.9771,45.6016 1.6142,36.6736 1.607,33.071 16.9699,41.999 					"/>
				</g>
				<g>
					<path fill="#BFBFBF" d="M16.9771,45.6016l-0.0072-3.6026l9.4123-5.4342l0.0072,3.6026l-1.5029,0.8677
						c-0.5563-0.4898-1.4177-0.5134-2.3831,0.0439c-0.9653,0.5573-1.8239,1.574-2.3756,2.7035L16.9771,45.6016z"/>
				</g>
				<g>
					<polygon fill="#D7D7D7" points="26.3684,32.7269 11.0054,23.799 10.9838,16.1818 26.3468,25.1098 					"/>
				</g>
				<g>
					<polygon fill="#D7D7D7" points="25.2734,32.1031 9.9105,23.1751 9.896,18.0658 25.2589,26.9938 					"/>
				</g>
				<g>
					<polygon fill="#EE4541" points="16.97,41.9989 1.607,33.071 1.5995,30.4197 16.9625,39.3477 					"/>
				</g>
				<g>
					<polygon fill="#E02426" points="26.3748,34.9827 26.3823,36.5647 16.97,41.9989 16.9625,40.4169 					"/>
				</g>
				<g>
					<polygon fill="#D7D7D7" points="26.3468,25.1098 10.9838,16.1818 10.9804,14.953 26.3433,23.8809 					"/>
				</g>
				<g>
					<polygon fill="#D7D7D7" points="27.548,21.8027 12.1851,12.8748 31.4932,1.7272 46.8561,10.6552 					"/>
				</g>
				<g>
					<path fill="#D7D7D7" d="M26.3433,23.8809l-15.3629-8.928c-0.0022-0.7658,0.5381-1.6934,1.2047-2.0782l15.3629,8.928
						C26.8814,22.1876,26.3411,23.1152,26.3433,23.8809z"/>
				</g>
				<g>
					<path fill="#B0AFB0" d="M46.8561,10.6552c0.6666-0.3848,1.203-0.0789,1.2052,0.6869l0.0315,11.1017l-21.718,12.5389
						l-0.0064-2.2557l-0.0216-7.6172l-0.0035-1.2288c-0.0022-0.7658,0.5381-1.6934,1.2047-2.0782L46.8561,10.6552z M39.5164,22.5562
						l-0.0029-1.0269l-0.125-0.0797l-1.5968,0.9219l-0.0052-1.8261l-0.1249-0.0797l-0.8936,0.5159l-0.1314,0.2277l0.0052,1.8261
						l-1.5895,0.9177l-0.1314,0.2277l0.0029,1.0269l0.1323,0.0755l1.5895-0.9177l0.0052,1.8261l0.1323,0.0755l0.8936-0.5159
						l0.1241-0.2235l-0.0052-1.8261l1.5968-0.9219L39.5164,22.5562"/>
				</g>
				<g>
					<polygon fill="#D7D7D7" points="16.9675,40.4202 1.5944,31.4943 1.5944,29.9684 16.956,38.9055 					"/>
				</g>
				<g>
					<path fill="#BFBFBF" d="M17.7324,37.7129l8.636-4.986l0.0064,2.2557l-9.4123,5.4342l-0.0043-1.5151
						c-0.0012-0.4123,0.2836-0.9056,0.6424-1.1128L17.7324,37.7129z M24.7304,34.6423c0.1538-0.0888,0.278-0.3041,0.2775-0.4809
						c-0.0005-0.1849-0.1255-0.2563-0.2793-0.1676l-0.9742,0.5625c-0.1612,0.093-0.2853,0.3083-0.2848,0.4932
						c0.0005,0.1767,0.1254,0.2482,0.2866,0.1552L24.7304,34.6423"/>
				</g>
				<g>
					<path fill="#D7D7D7" d="M17.7362,37.7123l-0.1377,0.0807c-0.3556,0.2061-0.6425,0.6997-0.6425,1.1125L1.5944,29.9684
						c0-0.4011,0.2868-0.8946,0.6425-1.1125l0.1377-0.0689L17.7362,37.7123z"/>
				</g>
				<g>
					<path fill="#464C56" d="M25.259,26.9937l0.0145,5.1093l-5.7646,3.3282c0.7355-1.9422,1.8795-4.7273,2.7104-6.6825
						L25.259,26.9937z"/>
				</g>
				<g>
					<path fill="#464C56" d="M19.5088,35.4313l-15.3629-8.928c0.7355-1.9423,1.8795-4.7273,2.7104-6.6825l15.3629,8.928
						C21.3883,30.704,20.2443,33.489,19.5088,35.4313z"/>
				</g>
				<g>
					<polygon fill="#464C56" points="22.2192,28.7488 6.8563,19.8208 9.896,18.0658 25.259,26.9937 					"/>
				</g>
				<g>
					<polygon fill="#E8E8E8" points="22.0178,27.6091 6.6549,18.6811 10.9838,16.1818 26.3468,25.1098 					"/>
				</g>
				<g>
					<path fill="#E8E8E8" d="M17.7324,37.7129L2.3695,28.785c0.5228-1.9375,3.5415-9.0461,3.7004-9.4203l15.3629,8.928
						C21.2739,28.6668,18.2552,35.7754,17.7324,37.7129z"/>
					<path fill="#464C56" d="M6.834,20.4722c-0.827,1.9718-2.5049,6.0281-3.0804,7.8151l13.83,8.0369
						c0.8361-2.3382,2.5143-6.3463,3.1242-7.7899L6.834,20.4722z"/>
				</g>
				<g>
					<path fill="#E8E8E8" d="M21.4328,28.2926l-15.3629-8.928c0.1312-0.2953,0.3506-0.5482,0.585-0.6836l15.3629,8.928
						C21.7834,27.7444,21.564,27.9974,21.4328,28.2926z"/>
				</g>
				<g>
					<path fill="#D7D7D7" d="M22.0178,27.6091l4.329-2.4993l0.0216,7.6172l-8.636,4.986c0.5228-1.9375,3.5415-9.0461,3.7004-9.4203
						C21.564,27.9974,21.7834,27.7444,22.0178,27.6091z M25.2734,32.1031l-0.0145-5.1093l-3.0398,1.755
						c-0.8308,1.9552-1.9748,4.7402-2.7103,6.6825L25.2734,32.1031"/>
				</g>
			</g>
		</g>
		<g>
			<path fill="#D7D7D7" d="M3.7535,28.2873c0.5755-1.787,2.2535-5.8432,3.0804-7.8151l-0.4892-0.2846
				c-0.7022,1.666-2.6375,6.3037-3.2817,8.2856l0.7409-0.1569L3.7535,28.2873z"/>
			<path fill="#FFFFFF" d="M3.8039,28.3164L3.063,28.4733c-0.0044,0.0134-0.0102,0.0297-0.0144,0.0431l14.3496,8.3388
				c0.0552-0.1636,0.1184-0.3434,0.1853-0.5311L3.8039,28.3164z"/>
		</g>
		<g>
			<g>
				<g enable-background="new    ">
					<g>
						<path fill="#4F4D4D" d="M17.0349,22.192l-0.0081,0.2452c-0.0007,0.2391-0.1576,0.4774-0.472,0.6606
							c-0.6316,0.367-1.6606,0.367-2.2969,0c-0.3199-0.1852-0.4801-0.4276-0.4794-0.67l0.0081-0.2439
							c0,0.2424,0.1596,0.4842,0.4794,0.6687c0.6363,0.367,1.6646,0.367,2.2969,0C16.8766,22.6701,17.0342,22.431,17.0349,22.192z"
							/>
					</g>
					<g>
						<path fill="#787677" d="M16.5628,22.8526c-0.6323,0.367-1.6606,0.367-2.2969,0c-0.6363-0.3677-0.6397-0.9636-0.0074-1.3306
							c0.6323-0.3677,1.6606-0.3677,2.2969,0C17.1918,21.889,17.1951,22.4849,16.5628,22.8526z"/>
					</g>
				</g>
			</g>
			<g>
				<path fill="#EE4541" d="M16.8611,20.5016v1.6167c0.0021,0.2162-0.1396,0.4325-0.422,0.5973
					c-0.4672,0.2708-1.1737,0.3181-1.7269,0.1428c-0.1186-0.0378-0.2299-0.085-0.3307-0.1428
					c-0.2866-0.167-0.4294-0.3811-0.4294-0.5973v-1.6167c0-0.8031,0.6498-1.4561,1.454-1.4561c0.3485,0,0.6677,0.1229,0.9186,0.3275
					C16.6522,19.6387,16.8611,20.046,16.8611,20.5016z"/>
				<g opacity="0.5">
					<g>
						<path fill="#E02426" d="M16.4391,22.711c-0.5666,0.3288-1.488,0.3288-2.0582,0c-0.5702-0.3295-0.5732-0.8635-0.0066-1.1924
							c0.5666-0.3295,1.488-0.3295,2.0582,0C17.0027,21.8475,17.0057,22.3816,16.4391,22.711z"/>
					</g>
				</g>
			</g>
			<path fill="#E02426" d="M16.8611,20.5016v1.6167c0.0021,0.2162-0.1396,0.4325-0.422,0.5973
				c-0.4672,0.2708-1.1737,0.3181-1.7269,0.1428c0.0682-0.0431,0.1302-0.0987,0.2047-0.1322
				c0.1228-0.0557,0.2635-0.0473,0.3979-0.062c0.1344-0.0136,0.2813-0.0619,0.3433-0.1826c0.0483-0.0945,0.0315-0.211,0.0745-0.3076
				c0.0672-0.1543,0.2541-0.2079,0.4042-0.2866c0.189-0.0987,0.3517-0.2887,0.3338-0.5018c-0.0084-0.1081-0.063-0.2068-0.106-0.3065
				c-0.147-0.3391-0.1711-0.718-0.1638-1.0876c0.0042-0.2047,0.0199-0.4157,0.1123-0.5973c0.0032-0.0074,0.0073-0.0147,0.0115-0.021
				C16.6522,19.6387,16.8611,20.046,16.8611,20.5016z"/>
		</g>
	</g>
	<g>
		<g>
			<path fill="#FDE34B" d="M14.6204,41.7401c-0.3256-0.188-0.5946-0.0419-0.5957,0.3394c-0.0011,0.3741,0.2662,0.837,0.5918,1.025
				c0.332,0.1917,0.5946,0.0347,0.5957-0.3394C15.2134,42.3838,14.9524,41.9318,14.6204,41.7401z"/>
		</g>
		<g>
			<path fill="#FFFFFF" d="M15.7073,41.8386c0.3128,0.1806,0.5738,0.6327,0.5727,0.9993l-0.0031,1.0787
				c-0.001,0.3666-0.2637,0.5164-0.5765,0.3357l-2.158-1.2459c-0.3256-0.188-0.5802-0.6364-0.5791-1.0029l0.0031-1.0787
				c0.001-0.3666,0.2573-0.5201,0.5829-0.3321L15.7073,41.8386z M14.6166,43.1046c0.332,0.1917,0.5946,0.0347,0.5957-0.3394
				c0.0011-0.3813-0.2598-0.8334-0.5918-1.025c-0.3256-0.188-0.5946-0.0419-0.5957,0.3394
				C14.0237,42.4537,14.291,42.9166,14.6166,43.1046"/>
		</g>
		<g>
			<path fill="#FFFFFF" d="M5.0194,35.6679c0.3192,0.1843,0.5802,0.6364,0.5791,1.0029l-0.0031,1.0787
				c-0.001,0.3666-0.2637,0.5163-0.5829,0.3321l-2.158-1.2459c-0.3192-0.1843-0.5738-0.6327-0.5727-0.9993l0.0031-1.0787
				c0.001-0.3666,0.2573-0.52,0.5765-0.3357L5.0194,35.6679z M3.9351,36.9376c0.332,0.1917,0.5946,0.0347,0.5957-0.3394
				c0.0011-0.3813-0.2598-0.8334-0.5918-1.025c-0.3256-0.188-0.5946-0.0419-0.5957,0.3394
				C3.3421,36.2867,3.6094,36.7496,3.9351,36.9376"/>
		</g>
		<g>
			<path fill="#FDE34B" d="M3.9389,35.5731c-0.3256-0.188-0.5946-0.0419-0.5957,0.3394c-0.0011,0.3741,0.2662,0.837,0.5918,1.025
				c0.332,0.1917,0.5947,0.0347,0.5957-0.3394C4.5318,36.2169,4.2709,35.7648,3.9389,35.5731z"/>
		</g>
	</g>
</g>
</svg>
