<?xml version="1.0" encoding="utf-8"?>
<!-- Generator: Adobe Illustrator 18.0.0, SVG Export Plug-In . SVG Version: 6.00 Build 0)  -->
<!DOCTYPE svg PUBLIC "-//W3C//DTD SVG 1.1//EN" "http://www.w3.org/Graphics/SVG/1.1/DTD/svg11.dtd">
<svg version="1.1" id="Layer_1" xmlns="http://www.w3.org/2000/svg" xmlns:xlink="http://www.w3.org/1999/xlink" x="0px" y="0px"
	 viewBox="0 0 50 50" enable-background="new 0 0 50 50" xml:space="preserve">
<g>
	<g>
		<g>
			<g enable-background="new    ">
				<g>
					<polygon fill="#3D3D3D" points="10.1621,21.2775 12.2675,20.0541 12.2322,32.4914 10.1269,33.7149 					"/>
				</g>
				<g>
					<polygon fill="#686868" points="10.1269,33.7149 12.2322,32.4914 31.7938,42.5495 28.6078,44.3849 					"/>
				</g>
				<g>
					<polygon fill="#69C3EE" points="28.6431,31.9475 31.8291,30.1121 31.7938,42.5495 28.6078,44.3849 					"/>
				</g>
				<g>
					<polygon fill="#69C3EE" points="10.1621,21.2775 13.1166,19.4864 31.8291,30.1121 28.6431,31.9475 					"/>
				</g>
				<g>
					<polygon fill="#69C3EE" points="28.9189,31.7827 28.8894,44.2186 16.562,37.1038 13.596,35.3991 12.5908,34.8178 
						11.3493,34.1081 10.4033,33.5562 10.4427,21.1108 16.9956,24.8946 18.2273,25.6043 19.2325,26.1855 22.1985,27.9003 					"/>
				</g>
				<g>
					<polygon fill="#7BD3F7" points="18.2273,25.6043 12.5908,34.8178 11.3493,34.1081 16.9956,24.8946 					"/>
					<polygon fill="#7BD3F7" points="22.1985,27.9003 16.562,37.1038 13.596,35.3991 19.2325,26.1855 					"/>
				</g>
				<g>
					<path fill="#686868" d="M31.8619,29.3265L12.6245,18.2143c-0.1942-0.1043-0.3585-0.1196-0.4929-0.0445l-2.8332,1.6308
						c0.1345-0.0744,0.2987-0.0598,0.4929,0.0452l19.2375,11.1123c0.201,0.113,0.3753,0.318,0.4981,0.5492l2.8329-1.6316
						C32.237,29.6445,32.0628,29.4388,31.8619,29.3265z"/>
					<path fill="#3D3D3D" d="M29.5269,31.5072c0.1053,0.1984,0.174,0.4157,0.174,0.6155l-0.0299,13.3082
						c0,0.2086-0.0896,0.3581-0.2091,0.4332l2.8332-1.6316c0.1195-0.0598,0.2091-0.2086,0.2091-0.4332l0.0298-13.3074
						c0-0.1998-0.0687-0.4179-0.1742-0.6163L29.5269,31.5072z"/>
				</g>
			</g>
		</g>
		<g>
			<path fill="#4F4D4D" d="M29.0279,30.952c0.3719,0.2147,0.6761,0.7411,0.6749,1.1685l-0.0377,13.3137
				c-0.0012,0.4274-0.3074,0.602-0.6793,0.3873L9.7515,34.7165c-0.3814-0.2202-0.6856-0.7472-0.6844-1.1746l0.0377-13.3137
				c0.0012-0.4274,0.3074-0.6014,0.6888-0.3812L29.0279,30.952z M28.6078,44.3849l0.0353-12.4374l-18.4809-10.67l-0.0353,12.4374
				L28.6078,44.3849"/>
		</g>
	</g>
	<g>
		<g>
			<g>
				<g enable-background="new    ">
					<g>
						<polygon fill="#3D3D3D" points="40.047,8.4006 40.9329,7.8858 40.8957,20.596 40.0098,21.1108 						"/>
					</g>
					<g>
						<polygon fill="#686868" points="33.4667,4.6014 34.3526,4.0866 40.9329,7.8858 40.047,8.4006 						"/>
					</g>
					<g>
						<polygon fill="#4F4D4D" points="40.047,8.4006 40.0098,21.1108 33.4295,17.3116 33.4667,4.6014 						"/>
					</g>
				</g>
			</g>
			<g>
				<g enable-background="new    ">
					<g>
						<polygon fill="#969595" points="20.5117,17.2977 19.1227,16.4905 20.5194,15.6841 21.9084,16.4913 						"/>
					</g>
				</g>
			</g>
			<g>
				<g>
					<g enable-background="new    ">
						<g>
							<polygon fill="#D7D7D7" points="38.2076,16.6515 35.3771,15.0066 33.4667,11.7921 34.8656,10.9845 							"/>
						</g>
						<g>
							<polygon fill="#D7D7D7" points="23.6313,17.4706 20.8008,15.8257 20.794,13.4183 23.6245,15.0632 							"/>
						</g>
						<g>
							<polygon fill="#E8E8E8" points="23.6245,15.0632 20.794,13.4183 33.3181,6.1875 36.1486,7.8324 							"/>
						</g>
						<g>
							<polygon fill="#BFBFBF" points="38.2076,11.3174 36.1485,7.8324 23.6245,15.063 23.6313,17.4706 34.8656,10.9845 
								38.2076,16.6515 							"/>
						</g>
					</g>
				</g>
				<g>
					<g enable-background="new    ">
						<g>
							<path fill="#787677" d="M22.1987,17.1467l-0.0065,7.2066c-0.0006,0.2054-0.1356,0.4105-0.4054,0.5673
								c-0.5428,0.3154-1.4264,0.3154-1.9727,0c-0.2751-0.1588-0.4124-0.3672-0.4118-0.5753l0.0065-7.2066
								c-0.0006,0.2081,0.1367,0.4165,0.4118,0.5753c0.5463,0.3154,1.4299,0.3154,1.9727,0
								C22.0632,17.5572,22.1982,17.3521,22.1987,17.1467z"/>
						</g>
						<g>
							<path fill="#B0AFB0" d="M23.6352,13.5873l-0.0132,4.6441c-0.0012,0.4174-0.2755,0.8342-0.8237,1.1528
								c-1.103,0.641-2.8985,0.641-4.0087,0c-0.559-0.3227-0.838-0.7462-0.8368-1.169l0.0132-4.6441
								c-0.0012,0.4228,0.2778,0.8463,0.8368,1.169c1.1102,0.641,2.9057,0.6409,4.0087,0
								C23.3597,14.4216,23.634,14.0048,23.6352,13.5873z"/>
						</g>
						<g>
							<path fill="#D7D7D7" d="M22.7984,12.4182c1.1102,0.641,1.1168,1.6805,0.0131,2.322c-1.103,0.641-2.8985,0.641-4.0087,0
								c-1.111-0.6414-1.116-1.681-0.0131-2.322C19.8935,11.7768,21.6874,11.7768,22.7984,12.4182z"/>
						</g>
					</g>
				</g>
			</g>
		</g>
	</g>
</g>
</svg>
