<?xml version="1.0" encoding="utf-8"?>
<!-- Generator: Adobe Illustrator 18.0.0, SVG Export Plug-In . SVG Version: 6.00 Build 0)  -->
<!DOCTYPE svg PUBLIC "-//W3C//DTD SVG 1.1//EN" "http://www.w3.org/Graphics/SVG/1.1/DTD/svg11.dtd">
<svg version="1.1" id="Layer_1" xmlns="http://www.w3.org/2000/svg" xmlns:xlink="http://www.w3.org/1999/xlink" x="0px" y="0px"
	 viewBox="0 0 50 50" enable-background="new 0 0 50 50" xml:space="preserve">
<g>
	<g>
		<g>
			<g enable-background="new    ">
				<g>
					<path fill="#BFBEBE" d="M47.0229,8.7177l-0.0032,1.112c-0.0414,0-0.0825,0.0007-0.1237,0.0015l0.0031-1.112
						C46.9404,8.7185,46.9816,8.7177,47.0229,8.7177z"/>
				</g>
				<g>
					<polygon fill="#BFBEBE" points="47.6045,8.7228 47.6013,9.8348 47.0198,9.8297 47.0229,8.7177 					"/>
				</g>
				<g>
					<path fill="#BFBEBE" d="M49.0837,8.4327l-0.0032,1.112c-0.0004,0.1558-0.0383,0.3126-0.1149,0.4659l0.0032-1.112
						C49.0454,8.7452,49.0833,8.5885,49.0837,8.4327z"/>
				</g>
				<g>
					<polygon fill="#D7D7D7" points="47.6045,8.7228 47.6013,9.8348 41.6241,21.8319 41.6272,20.7199 					"/>
				</g>
				<g>
					<polygon fill="#D7D7D7" points="41.6272,20.7199 41.6241,21.8319 41.4809,22.1197 41.4841,21.0076 					"/>
				</g>
				<g>
					<polygon fill="#BFBFBF" points="33.3653,23.8692 33.3621,24.9812 32.2472,24.3375 32.2504,23.2255 					"/>
				</g>
				<g>
					<polygon fill="#BFBFBF" points="32.2504,23.2255 32.2472,24.3375 30.6553,25.2627 30.6584,24.1506 					"/>
				</g>
				<g>
					<polygon fill="#D7D7D7" points="30.6584,24.1506 30.6553,25.2627 29.2356,24.443 29.2387,23.331 					"/>
				</g>
				<g>
					<polygon fill="#D7D7D7" points="33.3759,25.7196 33.3728,26.8316 31.7702,25.9063 31.7733,24.7943 					"/>
				</g>
				<g>
					<polygon fill="#BFBFBF" points="41.4841,21.0076 41.4809,22.1197 33.3728,26.8316 33.3759,25.7196 					"/>
				</g>
				<g>
					<path fill="#E8E8E8" d="M47.6045,8.7228l-5.9772,11.9971l-0.1432,0.2877l-8.1081,4.7119l-1.6026-0.9253l1.592-0.9251
						l-1.1149-0.6437l-1.592,0.9251l-1.4197-0.8197l8.5926-4.9935l5.1725-8.0107c0.6139-0.9482,2.157-1.579,3.8953-1.6076
						c0.0411-0.0007,0.0823-0.0014,0.1237-0.0015L47.6045,8.7228z"/>
				</g>
			</g>
			<g enable-background="new    ">
				<g>
					<path fill="#4F4D4D" d="M30.7612,24.1295l-0.0032,1.112c-0.21,0.1251-4.1994,2.5019-8.3219,4.9067l0.0032-1.112
						C26.5619,26.6313,30.5513,24.2546,30.7612,24.1295z"/>
				</g>
				<g>
					<path fill="#4F4D4D" d="M15.8949,29.0688v1.1044c0-0.8047-0.6411-1.5274-1.6097-2.0729
						c-1.3096-0.764-3.1785-1.201-4.7337-1.0644c-2.8648,0.6548-4.4609,1.3369-6.0024,3.0694
						c-0.3137,0.341-0.4365,0.6821-0.4502,1.0231L3.1126,30.01c0-0.3277,0.1228-0.6688,0.4365-1.0098
						c1.5552-1.7459,3.1376-2.4279,6.0024-3.0827c1.5552-0.1232,3.4377,0.3137,4.7473,1.0638
						C15.2538,27.5408,15.9085,28.2635,15.8949,29.0688z"/>
				</g>
				<g>
					<path fill="#4F4D4D" d="M22.4362,30.1482c-0.6448,0.3734-1.2862,0.746-1.906,1.1077c0.001-0.3706,0.0021-0.7414,0.0031-1.112
						c0.6198-0.3618,1.2612-0.7344,1.906-1.1077C22.4384,29.3698,22.4371,29.8146,22.4362,30.1482z"/>
				</g>
				<g>
					<path fill="#4F4D4D" d="M34.1188,26.0977v1.1051l-7.2301,4.5155c-0.4638,0.4636-0.6002,0.8593-0.6002,1.173v-1.1051
						c0-0.3137,0.15-0.7094,0.6002-1.1863L34.1188,26.0977z"/>
				</g>
				<g>
					<path fill="#4F4D4D" d="M20.5331,30.1466v1.1044c-1.8553,1.0778-3.5468,2.0463-4.6518,2.6331
						c-2.2782,1.2276-7.1074,3.547-12.1957,0.6141c-0.382-0.2185-0.7504-0.4643-1.1323-0.7367
						c-1.1732-0.8599-1.637-1.7052-1.637-2.4826v-1.1191c0,0.7913,0.4639,1.6233,1.637,2.4832
						c0.3819,0.2864,0.7639,0.5316,1.1323,0.736c5.0884,2.9468,9.9175,0.6141,12.1957-0.6002
						C16.9863,32.1788,18.6779,31.2243,20.5331,30.1466z"/>
				</g>
				<g>
					<path fill="#686868" d="M22.4394,29.0362c-0.6448,0.3734-1.2862,0.746-1.906,1.1077
						c-1.8551,1.0734-3.5495,2.0384-4.6556,2.6349c-2.2737,1.2179-7.1021,3.5443-12.1921,0.6055
						c-5.4774-3.1624-1.984-6.349,3.9356-8.3697c0.1899-0.0632,3.7986-1.2637,8.9079,1.6861
						c0.9035,0.5217,1.9747,0.8381,3.977,0.1897l7.7554-4.2042l2.4997,1.4432C30.5513,24.2546,26.5619,26.6313,22.4394,29.0362z
						 M6.5964,32.6935c0.1892,0.0576,3.7832,1.1514,7.8478-1.5941c2.313-1.5623,1.5762-3.1195-0.1516-4.1171
						c-1.309-0.7557-3.1867-1.1904-4.7389-1.0625c-2.87,0.6588-4.455,1.3378-6.0076,3.0775
						c-1.0248,1.1482-0.0877,2.294,1.1425,3.0042C5.3227,32.3677,6.0352,32.6181,6.5964,32.6935"/>
				</g>
				<g>
					<path fill="#4F4D4D" d="M28.6348,36.6294v1.1184c0-0.832-0.7231-1.7598-1.8962-2.4279
						c-1.7189-1.0098-4.4199-1.4188-7.1074-0.0819c-2.5783,1.2956-3.1786,2.4965-3.1921,3.3418l0.0136-1.1044
						c0-0.8459,0.6002-2.0603,3.1922-3.3425c2.6875-1.3509,5.3749-0.9279,7.1074,0.0679
						C27.9118,34.8696,28.6348,35.7968,28.6348,36.6294z"/>
				</g>
				<g>
					<path fill="#686868" d="M30.1658,38.0596c-0.3095,0.3065-6.1901,6.1299-13.1619,2.9569
						c-0.4776-0.217-0.9001-0.4337-1.2746-0.65c-5.0891-2.9382-1.0896-5.7431,1.0056-7.0641
						c1.0262-0.6426,2.6865-1.6273,4.5337-2.7053c0.6198-0.3617,1.2612-0.7343,1.906-1.1077
						c4.1383-2.3957,8.2285-4.7143,8.4438-4.8363l2.4997,1.4432l-7.2328,4.506c-1.2424,1.2972-0.1748,2.0091-0.1187,2.0466
						C29.1396,33.93,31.93,36.2657,30.1658,38.0596z M23.3034,40.4331c2.9984-0.905,4.1654-1.8253,5.2934-3.4899
						c0.2157-0.8996-0.5402-1.9859-1.8498-2.7415c-1.7277-0.9975-4.419-1.419-7.1082-0.0744
						c-4.7266,2.3633-2.8348,4.4368-2.7352,4.5459c0.1351,0.3266,0.5715,0.7395,1.2071,1.1064
						C19.3434,40.4914,21.3246,41.0305,23.3034,40.4331"/>
				</g>
				<g>
					<path fill="#4F4D4D" d="M30.6675,36.7933v1.1184c0,0.75-0.4502,1.2143-0.5047,1.2549
						c-0.3138,0.3137-6.1934,6.1388-13.1643,2.9602c-0.4774-0.2178-0.9003-0.4363-1.2687-0.6548
						c-1.828-1.0504-2.4828-2.0736-2.4828-3.0281v-1.1191c0,0.9552,0.6548,1.9916,2.4828,3.0421
						c0.3684,0.2185,0.7912,0.437,1.2687,0.6548c6.9709,3.1653,12.8642-2.6597,13.1643-2.9602
						C30.2173,38.0069,30.6675,37.5566,30.6675,36.7933z"/>
				</g>
			</g>
		</g>
		<g>
			<path fill="#D7D7D7" d="M47.8812,6.9274l0.6541,0.5179c0.5229,0.4226,0.6822,0.9557,0.4335,1.4533L43.619,19.4138
				c-0.306,0.6-1.0501,1.0699-1.9918,1.3061l5.9772-11.9971l-0.5815-0.0051c-0.0414,0-0.0825,0.0008-0.1237,0.0015L47.8812,6.9274z"
				/>
		</g>
		<g>
			<path fill="#BFBFBF" d="M48.9663,8.8946v1.1191l-5.3475,10.5178c-0.3137,0.6002-1.0504,1.0644-1.9916,1.2962v-1.1051
				c0.9413-0.2325,1.6916-0.7094,1.9916-1.3096L48.9663,8.8946z"/>
		</g>
	</g>
	<g>
		<g enable-background="new    ">
			<g>
				<path fill="#4F4D4D" d="M35.8585,22.0399l-0.0045,0.5878c-0.0004,0.1427-0.0942,0.2852-0.2816,0.3942
					c-0.3771,0.2191-0.991,0.2192-1.3705,0c-0.1911-0.1103-0.2865-0.2551-0.2861-0.3997l0.0045-0.5878
					c-0.0004,0.1446,0.095,0.2893,0.2861,0.3997c0.3796,0.2191,0.9934,0.2191,1.3705,0
					C35.7643,22.3251,35.8581,22.1826,35.8585,22.0399z"/>
			</g>
			<g>
				<path fill="#686868" d="M35.5724,21.6402c0.3796,0.2191,0.3818,0.5746,0.0045,0.7939c-0.3771,0.2191-0.991,0.2192-1.3705,0
					c-0.3798-0.2193-0.3816-0.5747-0.0045-0.7939C34.5792,21.4209,35.1926,21.4209,35.5724,21.6402z"/>
			</g>
		</g>
	</g>
</g>
</svg>
