<?xml version="1.0" encoding="utf-8"?>
<!-- Generator: Adobe Illustrator 18.0.0, SVG Export Plug-In . SVG Version: 6.00 Build 0)  -->
<!DOCTYPE svg PUBLIC "-//W3C//DTD SVG 1.1//EN" "http://www.w3.org/Graphics/SVG/1.1/DTD/svg11.dtd">
<svg version="1.1" id="Layer_1" xmlns="http://www.w3.org/2000/svg" xmlns:xlink="http://www.w3.org/1999/xlink" x="0px" y="0px"
	 viewBox="0 0 50 50" enable-background="new 0 0 50 50" xml:space="preserve">
<g>
	<g>
		<g>
			<g enable-background="new    ">
				<path fill="#B0AFB0" d="M42.4117,35.2363c-8.8249,5.1284-23.1703,5.1284-32.0528,0c-4.467-2.5791-6.6994-5.9659-6.6898-9.3482
					l-0.0054,1.311c-0.0096,3.3822,2.2228,6.7691,6.6898,9.3482c8.8826,5.1284,23.2279,5.1284,32.0528,0
					c4.3842-2.5482,6.5788-5.8811,6.5882-9.2186L49,26.0177C48.9905,29.3558,46.7959,32.6887,42.4117,35.2363z"/>
				<g>
					<path fill="#E8E8E8" d="M42.3074,16.67c8.8826,5.1284,8.9292,13.4377,0.1044,18.5662s-23.1703,5.1286-32.0529,0.0002
						c-8.8751-5.124-8.9292-13.4377-0.1044-18.5662S33.4323,11.546,42.3074,16.67z"/>
				</g>
				<g>
					<path fill="#D7D7D7" d="M37.5983,19.4071c6.2638,3.6164,6.2967,9.476,0.0736,13.0925s-16.3392,3.6166-22.6031,0.0002
						c-6.2585-3.6134-6.2967-9.476-0.0736-13.0925S31.3398,15.7937,37.5983,19.4071z"/>
				</g>
				<g>
					<path fill="#B0AFB0" d="M14.9952,20.5574c6.2232-3.6166,16.3445-3.6136,22.6031-0.0005
						c2.8955,1.6719,4.4421,3.8232,4.6722,6.0104c0.279-2.5694-1.2694-5.1957-4.6722-7.1604
						c-6.2585-3.6131-16.3799-3.6161-22.6031,0.0005c-3.3455,1.9438-4.8639,4.5371-4.5967,7.0811
						C10.6331,24.3287,12.1537,22.2083,14.9952,20.5574z"/>
				</g>
			</g>
		</g>
	</g>
	<g>
		<path fill="#589441" d="M36.8858,23.5696c0.5699-0.2698,1.1869-0.5098,1.8137-0.442c0.785,0.085,1.5172,0.6457,2.292,0.4938
			c0.8836-0.1732,1.3772-1.1902,2.2361-1.4604c-0.8223-0.7527-1.8987,0.6636-2.8504,0.4012c0.431-0.6336,1.4931-0.727,2.4218-2.1317
			c-0.5857-0.2008-1.2178,0.1199-1.7142,0.49c-0.4964,0.3701-0.9821,0.8167-1.5937,0.9131
			c-0.0243-0.3127,0.2861-0.5356,0.5585-0.6911c0.471-0.2689,0.942-0.5378,1.413-0.8067c-1.1578,0.0737-2.2976,0.4163-3.3043,0.993
			c-0.4453,0.2551-0.8784,0.5608-1.3817,0.6612c-0.8489,0.1694-1.5187-0.3158-2.2705-0.745
			c0.0384,0.0219-0.1681,1.2092-0.1517,1.3447c0.0495,0.4085,0.1037,0.9214,0.3563,1.2624
			C35.3055,24.6552,36.2314,23.8794,36.8858,23.5696z"/>
		<path fill="#73AE43" d="M40.8683,21.2642c0.0625,0.3766,0.0006,0.7612-0.0491,1.1397c-0.0625,0.4759-0.1055,0.9608-0.0271,1.4344
			c0.222,1.3419,1.339,1.7926,1.7318,1.2715c0.2087-0.2768,0.0988-0.7277,0.3576-0.9584c0.4757-0.4239,1.5223,0.4518,1.6632-0.4217
			c0.0738-0.4573-0.3003-0.8523-0.6429-1.164c0.6442,0.0127,1.2883,0.0254,1.9325,0.0381
			c-0.2547-0.3562-0.5093-0.7124-0.7639-1.0686c0.513-0.5028,1.6331,0.0918,1.9604-0.6231
			c0.1643-0.3589-0.1203-0.7626-0.1197-1.1574c0.0007-0.4811,0.4107-0.8462,0.6482-1.2646c0.4637-0.817,0.2592-1.8342,0.0419-2.7482
			c-0.2955-1.2428-0.5969-2.5014-1.1997-3.6276s-1.5517-2.1238-2.77-2.5078c-0.171,0.2766-0.1631,0.6338-0.0618,0.9428
			c0.1012,0.309,0.2855,0.5827,0.4578,0.8585c0.7091,1.1354,1.2471,2.3774,1.5905,3.6712c-0.6517-0.5325-1.3033-1.065-1.955-1.5974
			c-0.1443,0.6779,0.0639,1.421,0.5394,1.9252c-0.8131-0.4845-1.6684-0.8984-2.5529-1.2354
			c0.4016,0.5992,0.8031,1.1984,1.2047,1.7976c-2.1941,0.3043-3.365-0.9052-3.9763-1.1345
			c-0.2991-0.1122-0.6583-0.127-0.9185,0.0584c-0.4071,0.2902-0.387,0.9122-0.1917,1.3724c0.579,1.3647,1.6838,1.2922,1.7884,1.9161
			c0.0829,0.4947-0.5955,0.8159-0.6458,1.3149c-0.0307,0.3041,0.195,0.5875,0.4695,0.7221c0.3088,0.1514,0.677,0.0644,0.9685,0.2019
			C40.6474,20.5614,40.8176,20.9591,40.8683,21.2642z"/>
		<g>
			<g>
				<path fill="#EE4541" d="M35.2323,24.293c-0.0711-0.3528-0.1475-0.6941-0.2062-1.0404c-0.0473-0.2547-0.1056-0.514-0.1474-0.7806
					c-0.1356-0.7742-0.2718-1.5493-0.3899-2.3295c-0.0479-0.3413-0.4124-0.5361-0.7368-0.6107
					c-0.3302-0.0912-0.6766-0.0608-1.0183-0.0138c-0.1096,0.018-0.2138,0.0239-0.3295,0.053
					c-0.6472,0.0838-1.2946,0.2248-1.9306,0.3712c-0.1732,0.0299-0.3406,0.0769-0.5144,0.1064
					c-0.8782,0.1999-1.7276,0.4573-2.6003,0.6452c-0.1163-0.1354-0.3018-0.0293-0.434,0.0884l-0.0174,0.0055
					c-0.1367,0.2861-0.9055,0.2516-1.2307,0.2998c-0.4047,0.088-0.7449,0.338-1.0564,0.5877
					c-0.1848,0.0182-0.2165-0.1984-0.5326-0.0907c-0.3933,0.1225-0.7799,0.3205-1.0163,0.6512
					c-0.0252-0.0124-0.0454-0.0244-0.0805-0.0111c-0.1137,0-0.5867,0.3596-0.6757,0.4302
					c-0.5447-0.4786-1.5548,0.5677-2.0911,0.6959c-0.1156,0.029-0.2256,0.018-0.347,0.0299
					c-0.0636,0.012-0.1152,0.0299-0.1735,0.0585l-0.0169,0.006c-0.4438,0-1.324,0.9294-1.8309,0.8391
					c-0.0056,0.012-0.0291,0.029-0.046,0.035c-0.1873,0.2391-0.5594,0.3538-0.7709,0.4191v1.5576
					c0.0438-0.0069,0.091-0.0216,0.118-0.0484c0.0117-0.023,0.0054-0.0405,0.0058-0.0691c0.0522,0.0691,0.1564,0.0917,0.2369,0.1027
					c0.6284,0.0656,0.6694,0.3276,0.9841,0.0548c0.3394,0.2739,1.7769,0.3598,2.101,0.3629
					c0.2358-0.0009,0.3271-0.0507,0.4219-0.123c0.1846,0.1222,0.4563,0.2992,0.7005,0.2174c0.0635-0.012,0.1331-0.035,0.1616-0.0935
					c0.2791,0.1391,0.6948,0.3281,0.7928,0.0322c0.4364,0.5082,1.3492,0.3376,1.2377,0.0074
					c0.0258,0.0339,0.1601,0.1188,0.2545,0.1257c0.0759-0.0055,0.1623-0.0345,0.1733-0.1161
					c0.0608,0.181,0.8976,0.4697,1.1286,0.1409c0.1134,0.0556,0.3246,0.0985,0.4168,0.0912
					c0.2245-0.0012,0.1797-0.1239,0.2771-0.1805c0.1516,0.2474,0.4469,0.2492,0.6657,0.2579
					c0.2264-0.0009,0.5189-0.0561,0.6124-0.245c0.1872,0.232,1.1266,0.2334,1.2215,0.2155
					c0.0926-0.0405,0.1671-0.1045,0.2364-0.1856c0.0405,0.0921,0.1391,0.1267,0.2431,0.1202c0.0927-0.0115,0.1791-0.07,0.26-0.1165
					c0.1392,0.0691,0.3014,0.0917,0.4573,0.1257c0.0288-0.0005,0.058,0,0.0867-0.0005c0.0467-0.0055,0.0927-0.0405,0.1332-0.064
					c0.0284-0.029,0.0746-0.035,0.1155-0.058c0.2663,0.1607,0.6076,0.1133,0.9196,0.0659c0.1215-0.012,0.2775-0.0645,0.2945-0.1861
					c0.0113,0.0055,0.0231,0.0115,0.0404,0.006l0.0119,0.0055c0.4398,0.1603,0.9204,0.1819,1.3764,0.047
					c0.0466-0.0055,0.0984-0.0235,0.145-0.029c0.0693,0.0055,0.1331,0.0226,0.191,0.0226c0.2662,0.0451,0.4909-0.1755,0.7452-0.2805
					c0.3177-0.1455,0.6993-0.1009,1.0113-0.2639c0.3057-0.1805,0.4839-0.5393,0.5234-0.881
					C35.3736,24.9985,35.3087,24.6342,35.2323,24.293z"/>
				<g>
					<path fill="#CF2027" d="M32.376,19.9065c0.2675,1.4719,0.4045,4.2497,0.2586,5.8266
						C32.3639,24.2658,32.2324,21.4536,32.376,19.9065z"/>
					<path fill="#CF2027" d="M31.3439,26.757c-0.3751-0.775-0.515-2.1306-0.2953-2.9738
						C31.237,24.4608,31.3936,26.0664,31.3439,26.757z"/>
					<path fill="#CF2027" d="M30.1124,26.8241c-0.8011-0.9753-0.652-2.6479-0.7894-4.1073
						C29.8942,23.8349,29.6362,25.3421,30.1124,26.8241z"/>
					<path fill="#CF2027" d="M29.254,26.8182c-0.4535-0.6485-0.9755-2.0352-1.0514-2.8675
						C28.6677,24.6215,29.1711,25.9783,29.254,26.8182z"/>
					<path fill="#CF2027" d="M27.3462,20.702c0.2929,0.9781,0.4703,2.8179,0.3519,3.8736
						C27.3882,23.563,27.2334,21.6842,27.3462,20.702z"/>
					<path fill="#CF2027" d="M27.178,26.537c-0.6789-0.9535-1.4357-1.7279-1.5521-2.7448c-0.0467-0.3623,0.0108-0.7456,0.1946-1.051
						c-0.0691,0.3471-0.0308,0.6864,0.0504,1.0061c0.0853,0.3199,0.2082,0.6323,0.3783,0.9219
						C26.5498,25.2686,27.0048,25.8383,27.178,26.537z"/>
					<path fill="#CF2027" d="M26.0731,26.7936c-1.1727-0.9277-2.1434-2.1619-2.6326-3.591
						C23.5121,23.297,26.0085,26.6887,26.0731,26.7936z"/>
					<path fill="#CF2027" d="M23.0817,22.2391c-0.3051,0.9599,0.0331,1.9697,0.2599,3.5757
						C22.7704,24.9279,22.3567,23.0556,23.0817,22.2391z"/>
					<path fill="#CF2027" d="M23.6993,26.7834c-1.5022-0.679-2.7751-2.4781-2.7716-3.4073
						C21.2498,24.3573,23.0115,26.105,23.6993,26.7834z"/>
					<path fill="#CF2027" d="M22.5392,26.6864c-0.9106-0.4736-1.9015-1.6231-2.23-2.6043
						C20.6705,24.445,22.2583,26.3051,22.5392,26.6864z"/>
					<path fill="#CF2027" d="M21.8181,26.6609c-1.0069-0.6652-1.9279-2.0757-2.1347-3.2416
						C19.7947,23.588,19.1118,22.5584,21.8181,26.6609z"/>
					<path fill="#CF2027" d="M20.82,26.6368c-0.7062-0.2782-1.5341-1.1159-1.8008-1.8262
						C19.5132,25.1516,20.4932,26.1517,20.82,26.6368z"/>
					<path fill="#CF2027" d="M18.4709,26.3647c-0.5397-0.4841-0.8374-1.1945-0.8225-1.8945
						c0.0519-0.0465,0.1209-0.0989,0.1615-0.151C18.026,25.0182,18.231,25.654,18.4709,26.3647z"/>
					<path fill="#CF2027" d="M17.1166,26.2131c-0.3581-0.2585-0.5015-0.7447-0.5018-1.2303
						c0.0521-0.0572,0.211-0.2032,0.2884-0.2035C16.9364,25.454,16.9853,25.653,17.1166,26.2131z"/>
				</g>
			</g>
			<g>
				<path fill="#80BC41" d="M45.3785,16.7963c0.2529,0.1384,0.5321,0.2286,0.8182,0.2644c-0.3264,0.0842-0.6385,0.2236-0.919,0.4106
					c0.1443,0.1639,0.3303,0.2906,0.5355,0.365c-0.1475,0.1023-0.3128,0.1788-0.4862,0.225c0.1797,0.2613,0.4129,0.4856,0.681,0.655
					c-0.2493,0.0402-0.4987,0.0804-0.748,0.1206c0.2917,0.0608,0.5871,0.1038,0.8841,0.1285
					c-0.3128,0.0809-0.6255,0.1619-0.9383,0.2428c0.1869,0.2633,0.4111,0.5,0.6639,0.7008
					c-0.2892,0.1494-0.602,0.2532-0.9232,0.3064c0.111,0.1224,0.2221,0.2448,0.3331,0.3672
					c-0.264,0.1476-0.5595,0.2384-0.8609,0.2644c0.1369,0.0855,0.2738,0.1709,0.4107,0.2564
					c-0.3009,0.0629-0.6018,0.1258-0.9027,0.1888c0.1102,0.1303,0.2203,0.2606,0.3305,0.3909
					c-0.2358,0.0901-0.4716,0.1803-0.7074,0.2704c-0.096,0.0367-0.1986,0.0787-0.253,0.1659
					c-0.0544,0.0872-0.0241,0.2312,0.0769,0.2502c-0.4108,0.2141-0.8216,0.4281-1.2324,0.6422
					c0.0694,0.0846,0.1388,0.1692,0.2082,0.2538c-0.3825,0.1139-0.765,0.2277-1.1476,0.3416
					c0.0492,0.0224,0.1072,0.025,0.1582,0.007c-0.0747-0.1263-0.1494-0.2526-0.224-0.3788
					c-0.0245-0.0415-0.0499-0.0869-0.0444-0.1347c0.0073-0.063,0.0648-0.1066,0.1185-0.1403
					c0.1688-0.1057,0.3508-0.1905,0.5404-0.2517c-0.1032-0.0747-0.2189-0.132-0.3408-0.1689
					c0.1482-0.0633,0.2964-0.1266,0.4446-0.1899c-0.2753-0.2406-0.689-0.3977,0.3281-0.7341
					c-0.4984,0.0216-0.3813-0.8745,0.2273-0.6763c-0.0136-0.3237-0.7291-0.8299,0.429-1.2416
					c-0.1267-0.1161-0.2322-0.2552-0.3097-0.4085c0.3039-0.0635,0.6034-0.1481,0.8956-0.2529
					c-0.3031-0.1296-0.6653-0.3869-0.348-0.4762c0.1816-0.0511,0.3633-0.1022,0.5449-0.1533
					c0.0101-0.1634-0.1861-0.315-0.1143-0.462c0.0317-0.0649,0.1049-0.0963,0.1725-0.1217c0.194-0.073,0.3904-0.1397,0.5888-0.1999
					c-0.1774-0.0272-0.2754-0.2729-0.1655-0.4147c0.0468-0.0604,0.1174-0.0968,0.1856-0.1314
					c0.2149-0.1088,0.4298-0.2176,0.6447-0.3264c-0.1952-0.0988-0.3615-0.254-0.4734-0.442c0.4377-0.1152,0.8769-0.2659,1.32-0.3568
					c0.3525-0.0723,0.7033,0.076,1.0096,0.2413C46.3751,16.4615,45.8421,16.6304,45.3785,16.7963z"/>
				<path fill="none" d="M40.5098,23.5132c0.2205,0.7009,0.6007,1.351,1.1033,1.887c0.0094-0.1539,0.0189-0.3078,0.0283-0.4617
					c0.1177,0.0741,0.2497,0.1251,0.3866,0.1496c-0.0928-0.6465-0.1606-0.5583,0.272-0.5268
					c0.0084-0.1176-0.0163-0.2375-0.0704-0.3422c0.186,0.0138,0.3719,0.0275,0.5579,0.0413
					c0.0308-0.1486,0.0616-0.2972,0.0924-0.4458c0.6515,0.0712,0.4289-0.3104,0.4724-0.4055
					c0.1299-0.2841,0.713,0.459,0.9411,0.4804c0.0644,0.0061,0.1379-0.0403,0.1352-0.1049
					c-0.0442-0.0267-0.0884-0.0534-0.1325-0.0801c0.295-0.1639,0.6417-0.2606,0.9724-0.1928
					c-0.213-0.1425-0.4152-0.3011-0.6044-0.4739c0.1182-0.0889,0.2697-0.1323,0.4171-0.1194
					c-0.1489-0.0569-0.2886-0.1377-0.4122-0.2383c0.4171-0.2854,1.1879-0.0497,1.2705-0.2612
					c0.1014-0.2597-0.8077-0.3321-1.0863-0.3165c0.051-0.2461,0.4143-0.1981,1.4873-0.2306c-0.1037-0.042-0.2075-0.084-0.3112-0.126
					c0.1897-0.1186,0.3794-0.2372,0.5691-0.3557c-0.1596-0.0558-0.3192-0.1117-0.4788-0.1675
					c0.3053-0.1582,0.6351-0.2693,0.9739-0.328c-0.3449-0.0844-0.6976-0.137-1.0521-0.1568"/>
				<path fill="#80BC41" d="M41.9743,16.8826c-0.2557-0.3125-0.5114-0.6249-0.7671-0.9374c0.0223,0.158,0.0446,0.316,0.0669,0.474
					c-0.2078-0.093-0.404-0.2116-0.583-0.3523c-0.0222,0.1657-0.0261,0.3339-0.0117,0.5005
					c-0.2243,0.0003-0.3818-0.208-0.5386-0.3683c-0.3689-0.377-0.9107-0.5751-1.2066-1.0116
					c0.0507,0.1207,0.1014,0.2415,0.1521,0.3622c-0.3034-0.1025-0.5863-0.2655-0.8272-0.4766
					c0.4926,0.347,0.8631,0.864,1.0335,1.4419c-0.1493-0.0474-0.2986-0.0949-0.448-0.1423
					c0.3312,0.2186,0.6483,0.4588,0.9484,0.7185c-0.1711,0.0202-0.3423,0.0403-0.5134,0.0605
					c0.4647,1.1604,0.4694,0.9688-0.2864,1.0739c0.2565,0.1672,0.5131,0.3345,0.7696,0.5017
					c-0.1045,0.0384-0.2234,0.036-0.3262-0.0066c0.227,0.0089,0.455-0.0052,0.6791-0.0422
					c-0.1892-0.0942-0.3784-0.1885-0.5677-0.2827c0.5141-0.0114,1.0292,0.0239,1.5369,0.1053
					c-0.1654-0.0607-0.3309-0.1215-0.4963-0.1822c0.2795,0.004,0.559,0.008,0.8385,0.012
					c-0.1638-0.1267-0.3276-0.2535-0.4915-0.3802c0.2975-0.0519,0.595-0.1038,0.8924-0.1557
					c-0.1326-0.0924-0.2652-0.1848-0.3977-0.2772c0.2889-0.0712,0.5821-0.1247,0.8775-0.16
					c0.0204-0.0411-0.1363-0.203-0.1616-0.2301c0.1033-0.063,0.2217-0.1049,0.3245-0.1686
					c-0.1628-0.2922-0.0777-0.4613-0.4268-0.6204C41.9552,16.4908,41.9478,16.7099,41.9743,16.8826z"/>
			</g>
		</g>
	</g>
	<g>
		<path fill="#589441" d="M15.686,22.0279c-0.6138-0.144-1.246-0.3407-1.694-0.7843c-0.5611-0.5555-0.7844-1.4503-1.4851-1.8143
			c-0.7991-0.4151-1.8188,0.0729-2.659-0.2509c0.0788,0.4983,0.6373,0.7533,1.1299,0.8622c0.4926,0.109,1.0527,0.192,1.3496,0.5999
			c-0.409,0.1268-0.8478,0.0176-1.273-0.0329c-0.6534-0.0776-1.3235-0.0118-1.9494,0.1915c0.333,0.522,1.0272,0.665,1.6461,0.6848
			c0.6189,0.0198,1.277-0.0269,1.8155,0.2788c-0.1758,0.2597-0.5575,0.2407-0.8674,0.1926
			c-0.5359-0.0831-1.0719-0.1663-1.6078-0.2494c0.9515,0.6637,2.0565,1.1059,3.2032,1.282
			c0.5073,0.0779,1.0365,0.1087,1.4927,0.3437c0.7695,0.3964,0.9912,1.1933,1.3118,1.9973
			c-0.0164-0.0411,0.8849-0.8411,0.9565-0.9573C18.2995,22.3521,17.0739,22.3536,15.686,22.0279z"/>
		<path fill="#73AE43" d="M11.1345,21.35c0.1857-0.3335,0.4738-0.5957,0.7485-0.8608c0.3454-0.3333,0.6811-0.6858,0.9149-1.105
			c0.2338-0.4192,0.3589-0.9159,0.2577-1.3851c-0.0842-0.3904-0.4334-0.7881-0.8201-0.6884
			c-0.3357,0.0865-0.5307,0.5077-0.8768,0.5268c-0.5422,0.03-0.7749-0.9258-1.3107-0.8374c-0.095,0.0157-0.1817,0.0662-0.2529,0.131
			c-0.3426,0.3117-0.2961,0.8537-0.2223,1.311c-0.4959-0.4113-0.9919-0.8225-1.4878-1.2338
			c-0.0227,0.4373-0.0455,0.8745-0.0682,1.3118c-0.3576,0.0369-0.6634-0.2326-0.9421-0.4598
			c-0.2786-0.2272-0.6589-0.4367-0.9796-0.2743c-0.3522,0.1784-0.3811,0.6714-0.6275,0.9799
			c-0.7552,0.9454-1.612-0.3307-3.0399,2.7088c-0.5432,1.1562-1.0916,2.3285-1.3218,3.585s-0.1095,2.628,0.6043,3.6874
			c0.3061-0.1098,0.5224-0.3941,0.6358-0.6989s0.1397-0.6337,0.1768-0.9567c0.1528-1.3299,0.5057-2.6366,1.0432-3.8625
			c0.178,0.8225,0.3559,1.645,0.5339,2.4675c0.5352-0.4403,0.8354-1.1513,0.7776-1.842c0.3342,0.8856,0.7453,1.7422,1.2271,2.5569
			c0.0592-0.7189,0.1185-1.4378,0.1777-2.1566c0.9404,0.5571,1.6783,1.448,2.0505,2.4757c0.1088,0.3004,0.1888,0.615,0.3529,0.8891
			s0.4358,0.5094,0.7548,0.5265c0.4992,0.0267,0.8711-0.4724,1.0051-0.954c0.1513-0.5439,0.1247-1.1357-0.0748-1.6639
			c-0.1169-0.3096-0.2909-0.6597-0.1303-0.9491c0.2434-0.4386,0.9741-0.2672,1.3243-0.6261
			c0.2135-0.2188,0.2135-0.581,0.0827-0.8573c-0.1472-0.3108-0.4894-0.4722-0.6318-0.7613
			C10.8695,22.0373,10.9841,21.6202,11.1345,21.35z"/>
		<g>
			<g>
				<path fill="#EE4541" d="M34.1377,34.0319h0.362c-0.2195-0.3082-0.5393-0.5223-0.8496-0.7547
					c-0.3438-0.2646-0.55-1.0862-0.8641-1.0522c-0.0234,0.0107-0.0295,0.0284-0.0476,0.0505
					c0.0045-0.1751-0.246-0.3038-0.3522-0.4774c-0.0771-0.0947-0.1207-0.4226-0.5046-0.4067
					c-0.0912-0.4075-1.393-1.75-1.8239-1.7595c-0.0644-0.1983-0.1286-0.3966-0.2928-0.5337c-0.089-0.0548-0.21-0.1452-0.3043-0.1004
					c-0.1273-0.2725-0.34-0.6884-0.6001-0.5191c-0.0246-0.6594-0.8424-1.1123-0.9636-0.7768
					c0.0039-0.1582-0.1967-0.4005-0.3285-0.2741c0.065-0.1793-0.4099-0.9267-0.795-0.8134
					c-0.0276-0.0587-0.0666-0.1118-0.1057-0.1642c-0.3609-0.3807-0.3424-0.1757-0.4927-0.1983
					c0.0558-0.4513-0.6906-0.9472-0.9917-0.8065c-0.0013-0.1857-0.1591-0.3398-0.2945-0.4762
					c-0.5228-0.4444-0.4739-0.5235-0.8273-0.4553c0.0625-0.2369-0.2302-0.2922-0.3912-0.3164
					c-0.0702-0.1502-0.2557-0.4344-0.4915-0.4699c-0.0404,0.0051-0.0802-0.0189-0.1266-0.0265
					c-0.1121-0.3027-0.8303-0.8469-1.0244-0.6625c-0.0054-0.0114-0.011-0.0234-0.0279-0.0297l-0.0057-0.012
					c-0.4349-0.7104-1.0333-0.8721-1.1789-0.9618c-0.0508-0.0474-0.0902-0.1004-0.1355-0.1364
					c-0.1798-0.2015-0.4932-0.1686-0.7575-0.245c-0.5101-0.1263-1.0844-0.8864-1.9137-0.0606
					c-0.2496,0.2596-0.4257,0.5848-0.5786,0.8993c-1.9835,3.8698-2.4453,3.8477-1.8085,4.6463
					c0.2013,0.2772,0.4912,0.4692,0.7877,0.6454c0.0969,0.0543,0.1823,0.1143,0.2909,0.1636
					c1.3531,0.8189,3.869,1.8801,4.646,2.2654c0.0061,0.1783,0.2173,0.2111,0.3943,0.2015l0.0171,0.0063
					c0.1374-0.0666,0.4414,0.0499,0.6488,0.1958c0.4815,0.317,0.5965,0.5384,1.6931,0.5349
					c0.1727,0.1118,0.0392,0.2877,0.3599,0.4029c0.3841,0.149,0.81,0.2349,1.2007,0.1238c0.0119,0.0252,0.0196,0.0466,0.0561,0.0587
					c0.0889,0.0707,0.6838,0.0843,0.7965,0.0846c0.1265,0.705,1.5429,0.5114,2.0693,0.7585
					c0.1085,0.0493,0.1877,0.1263,0.2902,0.1926c0.0571,0.0303,0.1085,0.0486,0.172,0.0625l0.0171,0.0057
					c0.3591,0.2893,1.6176,0.1012,1.955,0.4844c0.0117-0.0057,0.0407-0.0044,0.0578,0.0013
					c0.3603-0.0851,0.8468,0.1506,0.9959,0.2053C32.3628,33.7677,32.8391,33.0161,34.1377,34.0319z"/>
				<g>
					<path fill="#CF2027" d="M16.9311,27.703c0.7078-1.318,2.3313-3.5761,3.4279-4.7186
						C19.6567,24.3007,18.0075,26.5823,16.9311,27.703z"/>
					<path fill="#CF2027" d="M22.0066,22.9876c-0.1894,0.8399-0.9246,1.9874-1.6219,2.5101
						C20.6597,24.8503,21.5376,23.4969,22.0066,22.9876z"/>
					<path fill="#CF2027" d="M23.0118,23.7024c0.0189,1.262-1.1397,2.4774-1.9416,3.7045
						C21.32,26.1765,22.4608,25.1583,23.0118,23.7024z"/>
					<path fill="#CF2027" d="M23.6795,24.2419c-0.0493,0.7898-0.505,2.1997-0.9642,2.898
						C22.7694,26.3254,23.221,24.9505,23.6795,24.2419z"/>
					<path fill="#CF2027" d="M21.3611,30.2145c0.3803-0.9476,1.3878-2.4971,2.1382-3.2491
						C23.1108,27.9505,22.0613,29.5165,21.3611,30.2145z"/>
					<path fill="#CF2027" d="M25.1281,25.7553c-0.0572,1.0606,0.1204,3.2848-1.3031,3.8148
						C24.9349,28.6321,24.6226,26.8586,25.1281,25.7553z"/>
					<path fill="#CF2027" d="M26.1522,26.2429c0.3393,1.4562,0.3295,3.0264-0.1781,4.4491
						C25.9763,30.5968,26.137,26.3685,26.1522,26.2429z"/>
					<path fill="#CF2027" d="M25.6544,31.6692c0.8367-0.5607,1.2013-1.5613,2.0245-2.9588
						C27.5763,29.7289,26.7587,31.4773,25.6544,31.6692z"/>
					<path fill="#CF2027" d="M28.0026,27.7299c0.752,1.4671,0.6267,3.6673,0.045,4.392
						C28.4071,31.1537,28.1179,28.6891,28.0026,27.7299z"/>
					<path fill="#CF2027" d="M28.8496,28.5285c0.4173,0.9378,0.476,2.4543,0.1217,3.4265
						C28.9148,31.446,28.8317,29.0019,28.8496,28.5285z"/>
					<path fill="#CF2027" d="M29.3977,28.9978c0.3731,1.1476,0.2148,2.8248-0.3499,3.8656
						c0.0592-0.6603,0.1709-1.2879,0.2107-1.9293C29.3348,30.2958,29.3385,29.6581,29.3977,28.9978z"/>
					<path fill="#CF2027" d="M30.1635,29.6385c0.379,0.6576,0.5047,1.8286,0.2708,2.5504
						C30.2602,31.6144,30.1168,30.2216,30.1635,29.6385z"/>
					<path fill="#CF2027" d="M31.8314,31.3149c0.1205,0.7149-0.0892,1.4561-0.537,1.9943c-0.0696,0.004-0.1562,0.002-0.2204,0.0174
						C31.3405,32.6453,31.5762,32.0202,31.8314,31.3149z"/>
					<path fill="#CF2027" d="M32.7962,32.2773c0.119,0.4253-0.0717,0.8949-0.374,1.275c-0.0764,0.0123-0.2917,0.0275-0.3524-0.0205
						c0.0779-0.1083,0.1506-0.2274,0.2284-0.3357C32.4964,32.9178,32.6311,32.6259,32.7962,32.2773z"/>
				</g>
			</g>
			<g>
				<path fill="#80BC41" d="M4.823,22.0346c-0.1116-0.2658-0.2738-0.5103-0.4752-0.7166c0.3078,0.1375,0.6388,0.2229,0.9747,0.2514
					c-0.0108-0.218-0.0773-0.4331-0.1915-0.6192c0.1791,0.0119,0.3561,0.055,0.5205,0.127
					c0.0222-0.3163-0.0204-0.6371-0.1246-0.9366c0.2201,0.1239,0.4402,0.2478,0.6602,0.3717
					c-0.1903-0.2293-0.3946-0.447-0.6115-0.6513c0.2951,0.1316,0.5901,0.2631,0.8852,0.3947
					c0.0179-0.3224-0.01-0.6472-0.0826-0.9618c0.3193,0.0633,0.6286,0.177,0.913,0.3355c-0.0106-0.1649-0.0212-0.3299-0.0318-0.4948
					c0.2984,0.049,0.5862,0.1621,0.8381,0.3296C8.0437,19.3121,7.9899,19.16,7.936,19.0078
					c0.2746,0.1383,0.5491,0.2765,0.8237,0.4148c-0.005-0.1706-0.01-0.3411-0.0149-0.5117
					c0.2406,0.0764,0.4812,0.1528,0.7218,0.2292c0.0979,0.0311,0.2044,0.0622,0.3013,0.0279
					c0.0969-0.0343,0.1629-0.1659,0.0957-0.2436c0.4547,0.0885,0.9094,0.177,1.364,0.2655
					c-0.0016-0.1094-0.0031-0.2188-0.0047-0.3282c0.3701,0.1493,0.7403,0.2985,1.1104,0.4478
					c-0.0245-0.0482-0.0683-0.0863-0.1193-0.1041c-0.0203,0.1453-0.0405,0.2906-0.0608,0.4359
					c-0.0067,0.0477-0.0151,0.0991-0.0492,0.133c-0.045,0.0447-0.1171,0.043-0.1801,0.0359
					c-0.1979-0.0225-0.3931-0.0695-0.5795-0.1398c0.0342,0.1227,0.0889,0.2396,0.1613,0.3444
					c-0.1554-0.0428-0.3107-0.0856-0.4661-0.1284c0.0219,0.1205,0.0438,0.2409,0.0658,0.3614
					c0.0065,0.0356,0.012,0.0758-0.0094,0.1049c-0.0199,0.0271-0.0563,0.0353-0.0897,0.0392
					c-0.232,0.0272-0.4614-0.0549-0.6807-0.1358c0.171,0.1245,0.1371,0.4258-0.044,0.5351s-0.4386,0.0289-0.5551-0.1477
					c-0.1262,0.1729-0.076,0.4269-0.1918,0.6069c-0.0901,0.14-0.2659,0.2054-0.4324,0.2056
					c-0.1665,0.0002-0.3275-0.0545-0.4849-0.1086c0.0268,0.1697,0.0226,0.3443-0.0123,0.5125
					C8.3279,21.7205,8.0409,21.6,7.7471,21.5c0.0723,0.1343,0.1249,0.2792,0.1556,0.4286c0.0129,0.0629,0.0143,0.1435-0.0419,0.1745
					c-0.042,0.0232-0.0939,0.0048-0.1381-0.0138c-0.1739-0.0732-0.3478-0.1464-0.5217-0.2195
					c-0.1097,0.1215-0.0507,0.3623-0.1985,0.4326c-0.0652,0.031-0.1421,0.01-0.2107-0.0122
					c-0.1973-0.0638-0.3924-0.134-0.5851-0.2105c0.1218,0.1318,0.0454,0.3851-0.129,0.4275
					c-0.0743,0.0181-0.1521,0.0026-0.227-0.0129c-0.2359-0.0488-0.4717-0.0976-0.7076-0.1464
					c0.0912,0.1989,0.1245,0.4239,0.0949,0.6407c-0.4141-0.1825-0.8516-0.3384-1.2548-0.5433
					c-0.3208-0.163-0.5028-0.4977-0.6394-0.8178C3.8349,21.6757,4.357,21.8756,4.823,22.0346z"/>
				<path fill="none" d="M12.8161,19.8142c0.2642-0.6856,0.3719-1.431,0.3126-2.1634c-0.1033,0.1145-0.2066,0.229-0.3098,0.3435
					c-0.0459-0.1312-0.1174-0.2535-0.2092-0.3579c-0.0781,0.1333-0.1562,0.2665-0.2343,0.3998
					c-0.012,0.0204-0.0266,0.0428-0.0498,0.0476c-0.0262,0.0054-0.0504-0.0141-0.0701-0.0323
					c-0.0623-0.0575-0.1246-0.115-0.1868-0.1725c-0.0799,0.0868-0.1352,0.1959-0.1581,0.3116
					c-0.1369-0.1266-0.2738-0.2533-0.4107-0.3799c-0.1167,0.0971-0.2333,0.1941-0.35,0.2912
					c-0.0713-0.0707-0.1456-0.1434-0.2396-0.1787c-0.094-0.0353-0.2139-0.0225-0.2756,0.0567
					c-0.0374,0.048-0.0527,0.1173-0.107,0.1448c-0.0514,0.0261-0.117-0.0004-0.1535-0.045
					c-0.0365-0.0446-0.051-0.1027-0.0644-0.1588c-0.0467-0.1947-0.0934-0.3894-0.1401-0.5841
					c-0.0151-0.0629-0.0322-0.1294-0.0788-0.1742c-0.0466-0.0448-0.133-0.0544-0.1711-0.0022
					c0.0179,0.0484,0.0358,0.0968,0.0537,0.1453c-0.3329-0.0556-0.6643-0.196-0.8807-0.455
					c0.0778,0.2442,0.1372,0.4942,0.1775,0.7473c-0.1478-0.0041-0.2934-0.0646-0.4006-0.1664
					c0.081,0.1372,0.14,0.2875,0.1739,0.4432c-0.3791-0.0276-0.6539-0.357-0.9778-0.5558
					c-0.0543-0.0333-0.1237-0.0634-0.1787-0.0314c-0.0855,0.0496-0.0452,0.1808,0.0096,0.2631
					c0.1716,0.2572,0.3907,0.4825,0.6429,0.6613c-0.1932,0.1607-0.4475-0.1032-1.307-0.7463c0.055,0.0975,0.11,0.195,0.1649,0.2925
					c-0.2223-0.0254-0.4445-0.0509-0.6668-0.0763c0.09,0.1431,0.1801,0.2862,0.2701,0.4293
					c-0.3374-0.0665-0.6645-0.185-0.9661-0.3502c0.2172,0.2809,0.4603,0.5417,0.7252,0.7781"/>
				<path fill="#80BC41" d="M7.5395,24.0882c0.0053,0.4037,0.0107,0.8074,0.016,1.2112c0.081-0.1375,0.162-0.275,0.243-0.4125
					c0.1045,0.2022,0.1842,0.4173,0.2365,0.6388c0.1206-0.1158,0.2285-0.2449,0.321-0.3842
					c0.1756,0.1394,0.169,0.4005,0.1918,0.6236c0.0536,0.5247,0.3541,1.0172,0.3135,1.5431c0.0356-0.126,0.0711-0.252,0.1067-0.3781
					c0.1734,0.2692,0.2932,0.5729,0.3501,0.8881c-0.1691-0.5784-0.1368-1.2135,0.09-1.7718
					c0.0872,0.1301,0.1745,0.2603,0.2617,0.3904c-0.1229-0.3774-0.2212-0.7628-0.2942-1.1529
					c0.1464,0.0909,0.2929,0.1817,0.4393,0.2726c0.0859-0.2859,0.1801-0.5693,0.2825-0.8497
					c0.0127-0.0347,0.0285-0.0727,0.062-0.0883c0.0416-0.0193,0.0894,0.0047,0.1288,0.028
					c0.1399,0.0828,0.2798,0.1657,0.4198,0.2485c-0.0965-0.2906-0.1929-0.5813-0.2894-0.8719
					c0.1056,0.0351,0.1971,0.111,0.251,0.2084c-0.172-0.1484-0.3591-0.2794-0.5575-0.3901
					c0.0893,0.1916,0.1786,0.3832,0.2679,0.5748c-0.4092-0.3114-0.7901-0.6599-1.1366-1.0399
					c0.0916,0.1506,0.1831,0.3012,0.2747,0.4518c-0.2161-0.1773-0.4323-0.3545-0.6484-0.5318
					c0.0492,0.2012,0.0984,0.4024,0.1475,0.6036c-0.265-0.1447-0.53-0.2895-0.7951-0.4342
					c0.0461,0.1549,0.0923,0.3097,0.1384,0.4646c-0.2703-0.1243-0.533-0.2651-0.7861-0.4216
					c-0.0415,0.0194-0.0199,0.2437-0.017,0.2806c-0.1201-0.0151-0.2388-0.0561-0.3589-0.0703
					c-0.0547,0.3299-0.2266,0.4092-0.0527,0.7512C7.3104,24.4066,7.4526,24.2398,7.5395,24.0882z"/>
			</g>
		</g>
	</g>
	<g>
		<path fill="#F2961F" d="M31.1535,30.2547c0.0691,0.0669,0.356,0.2833,0.7477,0.5184c0.8165,0.5181,2.1748,1.122,3.5295,0.7868
			c2.013-0.5137,2.9654-1.3997,3.5693-2.7583c0,0,1.0844-2.5625-0.9223-4.7417c-0.726-0.787-1.6464-1.2559-2.6145-1.3936
			c-0.1054-0.0194-0.1997-0.0229-0.2945-0.0272c-0.0261-0.0045-0.0261-0.0045-0.0261-0.0045
			c-1.5713-0.1126-3.172,0.5995-4.2047,2.0694C29.1749,27.1821,30.8927,30.0428,31.1535,30.2547z"/>
		<path fill="#E88B24" d="M33.6531,23.6617c-0.9516,0.0727-0.7603,1.1144-0.1082,0.8598c0.1908-0.0745,0.6148-0.3407,0.6613-0.5602
			C34.2658,23.6796,33.8402,23.6474,33.6531,23.6617z"/>
		<path fill="#E88B24" d="M31.9012,30.7731c0.8165,0.5181,2.1748,1.122,3.5295,0.7868c2.013-0.5137,2.9654-1.3997,3.5693-2.7583
			c0,0,1.0844-2.5625-0.9223-4.7417c-0.726-0.787-1.6464-1.2559-2.6145-1.3936c0.3514,0.31,0.6459,0.7041,0.8258,1.1322
			c0.1951,0.4166,0.2912,0.8564,0.3979,1.3114c0.0237,0.1677,0.0623,0.324,0.1126,0.497c0.0969,0.5078,0.2095,1.0047,0.2115,1.5082
			c-0.0129,0.5149-0.1473,1.0205-0.4771,1.4092c-0.3816,0.4469-0.9663,0.6656-1.4389,1.0136
			c-0.5395,0.4177-0.9553,1.0485-1.6254,1.1432c-0.4192,0.0587-0.8628-0.1182-1.276-0.0176
			C32.0837,30.6709,31.9947,30.7087,31.9012,30.7731z"/>
		<path fill="#F9A62B" d="M30.7226,27.0035c0.0135-1.1481,0.5035-2.3402,1.4694-2.961c0.0351,0.6818-0.2867,1.3233-0.4814,1.9777
			c-0.3392,1.14-0.2956,2.3539-0.2489,3.5424c0.0066,0.169,0.0222,0.3345,0.0621,0.4991c-0.1508-0.1234-0.2224-0.4311-0.2937-0.6139
			c-0.1037-0.2657-0.1968-0.5358-0.274-0.8104C30.8067,28.1061,30.7161,27.5563,30.7226,27.0035z"/>
	</g>
</g>
</svg>
