<?xml version="1.0" encoding="utf-8"?>
<!-- Generator: Adobe Illustrator 18.0.0, SVG Export Plug-In . SVG Version: 6.00 Build 0)  -->
<!DOCTYPE svg PUBLIC "-//W3C//DTD SVG 1.1//EN" "http://www.w3.org/Graphics/SVG/1.1/DTD/svg11.dtd">
<svg version="1.1" id="Layer_1" xmlns="http://www.w3.org/2000/svg" xmlns:xlink="http://www.w3.org/1999/xlink" x="0px" y="0px"
	 viewBox="0 0 50 50" enable-background="new 0 0 50 50" xml:space="preserve">
<g>
	<g>
		<g enable-background="new    ">
			<g>
				<polygon fill="#91684B" points="49,31.3082 48.9959,34.5205 25.458,48.1992 25.4622,44.9869 				"/>
			</g>
			<g>
				<polygon fill="#A57859" points="25.4622,44.9869 25.458,48.1992 1,34.0784 1.0041,30.866 				"/>
			</g>
		</g>
	</g>
	<g>
		<g>
			<g enable-background="new    ">
				<g>
					<polygon fill="#BFBFBF" points="49,29.3614 48.9959,31.3406 25.458,45.0193 25.4622,43.0401 					"/>
				</g>
				<g>
					<polygon fill="#D7D7D7" points="25.4622,43.0401 25.458,45.0193 1,30.8984 1.0041,28.9192 					"/>
				</g>
				<g>
					<polygon fill="#E8E8E8" points="49,29.3614 25.4622,43.0401 1.0041,28.9192 24.542,15.2405 					"/>
				</g>
			</g>
		</g>
		<g>
			<g enable-background="new    ">
				<g>
					<polygon fill="#BFBFBF" points="46.7347,14.2506 46.6926,29.1095 32.5615,37.3216 32.6037,22.4627 					"/>
				</g>
				<g>
					<polygon fill="#D7D7D7" points="32.6037,22.4627 32.5615,37.3216 10.9979,24.8718 11.04,10.0129 					"/>
				</g>
				<g>
					<g enable-background="new    ">
						<g>
							<polygon fill="#55B8E8" points="14.6743,21.5384 14.6623,26.0208 12.7123,24.8982 11.692,24.3086 11.4823,24.1896 
								11.4823,23.2035 11.4943,19.7072 12.9454,20.5406 13.3195,20.756 13.5859,20.909 14.6119,21.4986 							"/>
						</g>
						<g>
							<polygon fill="#69C4EF" points="13.3195,20.756 11.4823,24.0537 11.4823,23.2035 12.9454,20.5406 							"/>
							<polygon fill="#69C4EF" points="14.6119,21.4986 12.7123,24.8982 11.692,24.3086 13.5859,20.909 							"/>
						</g>
						<g>
							<polygon fill="#55B8E8" points="14.6807,18.873 14.6776,19.9919 13.1756,19.1247 13.1788,18.0059 							"/>
						</g>
						<g>
							<polygon fill="#55B8E8" points="13.005,19.2176 13.0018,20.3322 11.4963,19.463 11.4994,18.3484 							"/>
						</g>
						<g>
							<polygon fill="#55B8E8" points="13.0087,17.9077 13.0055,19.0265 11.5,18.1573 11.5032,17.0384 							"/>
						</g>
						<g>
							<polygon fill="#55B8E8" points="14.677,20.183 14.6739,21.2975 13.1719,20.4304 13.1751,19.3158 							"/>
						</g>
						<g>
							<polygon fill="#686868" points="11.4829,24.1872 11.6826,24.0711 14.8602,25.9057 14.6605,26.0218 							"/>
						</g>
						<g>
							<polygon fill="#3D3D3D" points="11.4956,19.7059 11.6953,19.5899 11.6826,24.0711 11.4829,24.1872 							"/>
						</g>
						<g>
							<polygon fill="#3D3D3D" points="11.4994,18.3443 11.6992,18.2282 11.696,19.3469 11.4963,19.463 							"/>
						</g>
						<g>
							<polygon fill="#686868" points="11.4963,19.463 11.696,19.3469 13.2016,20.2161 13.0018,20.3322 							"/>
						</g>
						<g>
							<polygon fill="#3D3D3D" points="11.5031,17.0384 11.7029,16.9224 11.6997,18.0412 11.5,18.1573 							"/>
						</g>
						<g>
							<polygon fill="#5A5B5B" points="11.4994,18.3484 11.6992,18.2323 13.2047,19.1015 13.005,19.2176 							"/>
						</g>
						<g>
							<polygon fill="#515050" points="13.005,19.2176 13.2047,19.1015 13.2016,20.2161 13.0018,20.3322 							"/>
						</g>
						<g>
							<polygon fill="#686868" points="11.5,18.1573 11.6997,18.0412 13.2053,18.9104 13.0055,19.0265 							"/>
						</g>
						<g>
							<polygon fill="#3D3D3D" points="13.1751,19.3118 13.3749,19.1957 13.3717,20.3143 13.1719,20.4304 							"/>
						</g>
						<g>
							<polygon fill="#515050" points="14.6725,21.7716 14.8723,21.6555 14.8602,25.9057 14.6605,26.0218 							"/>
						</g>
						<g>
							<polygon fill="#5A5B5B" points="11.4956,19.7059 11.6953,19.5898 14.8729,21.4244 14.6732,21.5405 							"/>
						</g>
						<g>
							<polygon fill="#686868" points="13.1719,20.4304 13.3717,20.3143 14.8736,21.1814 14.6739,21.2975 							"/>
						</g>
						<g>
							<polygon fill="#5A5B5B" points="11.5032,17.0384 11.7029,16.9224 13.2084,17.7916 13.0087,17.9077 							"/>
						</g>
						<g>
							<polygon fill="#515050" points="13.0087,17.9077 13.2084,17.7916 13.2053,18.9104 13.0055,19.0265 							"/>
						</g>
						<g>
							<polygon fill="#3D3D3D" points="13.1788,18.0059 13.3786,17.8898 13.3754,19.0086 13.1756,19.1247 							"/>
						</g>
						<g>
							<polygon fill="#515050" points="14.677,20.183 14.8768,20.0669 14.8736,21.1814 14.6739,21.2975 							"/>
						</g>
						<g>
							<polygon fill="#5A5B5B" points="13.1751,19.3158 13.3748,19.1997 14.8768,20.0669 14.677,20.183 							"/>
						</g>
						<g>
							<polygon fill="#686868" points="13.1756,19.1247 13.3754,19.0086 14.8773,19.8758 14.6776,19.9919 							"/>
						</g>
						<g>
							<polygon fill="#515050" points="14.6807,18.873 14.8805,18.7569 14.8773,19.8758 14.6776,19.9919 							"/>
						</g>
						<g>
							<polygon fill="#5A5B5B" points="13.1788,18.0059 13.3786,17.8898 14.8805,18.7569 14.6807,18.873 							"/>
						</g>
						<g>
							<path fill="#4F4D4D" d="M11.3067,16.7105l-0.0223,7.5821l3.6594,2.1128l0.0223-7.5821L11.3067,16.7105z M11.5031,17.0385
								l1.5055,0.8692l-0.0032,1.1189L11.5,18.1573L11.5031,17.0385 M11.4994,18.3443l1.5055,0.8692l-0.0032,1.1186l-1.5055-0.8692
								L11.4994,18.3443 M14.6605,26.0218l-3.1776-1.8346l0.0127-4.4693l0-0.012l3.1776,1.8346L14.6605,26.0218 M14.6738,21.2975
								l-1.5019-0.8671l0.0032-1.1186l1.5019,0.8712L14.6738,21.2975 M14.6775,19.9919l-1.5019-0.8671l0.0032-1.1189l1.5019,0.8671
								L14.6775,19.9919"/>
						</g>
						<g>
							<polygon fill="#686868" points="11.3067,16.7105 11.5065,16.5944 15.1659,18.7072 14.9662,18.8232 							"/>
						</g>
						<g>
							<polygon fill="#3D3D3D" points="14.9662,18.8232 15.1659,18.7072 15.1436,26.2893 14.9439,26.4054 							"/>
						</g>
					</g>
				</g>
				<g>
					<polygon fill="#E8E8E8" points="46.7347,14.2506 32.6037,22.4627 11.04,10.0129 25.1711,1.8008 					"/>
					<polygon fill="#686868" points="44.5492,14.8012 25.1721,3.6133 13.2252,10.5561 32.6032,21.7436 					"/>
				</g>
			</g>
		</g>
		<g>
			<g enable-background="new    ">
				<g>
					<polygon fill="#BFBFBF" points="26.456,24.8755 26.4358,33.7915 19.6398,37.7409 19.6601,28.8249 					"/>
				</g>
				<g>
					<polygon fill="#D7D7D7" points="19.6601,28.8249 19.6398,37.7409 9.2694,31.7535 9.2897,22.8375 					"/>
					<polygon fill="#686868" points="10.6041,32.4802 10.618,26.6393 18.3251,31.0892 18.3121,36.9301 					"/>
					<polygon fill="#7BD3F7" points="18.1033,31.2206 18.1033,32.9185 18.0944,36.8028 15.9612,35.5672 15.0456,35.0429 
						14.7612,34.8828 14.3968,34.6697 14.299,34.6163 11.4547,32.9718 10.8236,32.6077 10.8236,31.5765 10.8325,30.741 
						10.8414,27.0255 12.8768,28.1986 13.3302,28.4655 13.6235,28.6343 14.2279,28.9811 14.4057,29.0875 14.5301,29.1586 
						17.3833,30.8031 17.8366,31.0696 					"/>
				</g>
				<g>
					<polygon fill="#E8E8E8" points="26.456,24.8755 19.6601,28.8249 9.2897,22.8375 16.0856,18.8882 					"/>
					<polygon fill="#686868" points="24.594,25.2382 16.0865,20.3261 11.1518,23.194 19.6593,28.1062 					"/>
				</g>
			</g>
		</g>
		<g>
			<polygon fill="#BFBFBF" points="12.2811,10.0114 13.2252,10.5561 25.1721,3.6133 25.1721,2.5196 			"/>
			<polygon fill="#D7D7D7" points="25.1721,2.5196 25.1721,3.6133 44.5492,14.8012 45.4932,14.2526 			"/>
		</g>
		<g>
			<polygon fill="#BFBFBF" points="10.5312,22.8355 11.1518,23.194 16.0865,20.3261 16.0865,19.6074 			"/>
			<polygon fill="#D7D7D7" points="16.0865,19.6074 16.0865,20.3261 24.594,25.2382 25.2146,24.8771 			"/>
		</g>
		<g>
			<polygon fill="#69C4EF" points="13.3302,28.4655 10.8236,31.5765 10.8325,30.741 12.8768,28.1986 			"/>
			<polygon fill="#69C4EF" points="14.5301,29.1586 11.4547,32.9718 10.8236,32.6077 10.8236,32.1008 13.6235,28.6343 			"/>
		</g>
		<g>
			<polygon fill="#69C4EF" points="17.8366,31.0696 14.7612,34.8828 14.299,34.6163 17.3833,30.8031 			"/>
			<polygon fill="#69C4EF" points="18.1033,31.2562 18.1033,32.9185 15.9612,35.5672 15.0456,35.0429 			"/>
		</g>
		<polygon fill="#686868" points="14.2166,34.565 14.2296,28.9805 14.4081,29.0835 14.396,34.6681 		"/>
		<g>
			<g enable-background="new    ">
				<g>
					<polygon fill="#CF2027" points="21.5303,19.8858 21.7216,19.7746 21.7169,21.4297 21.5256,21.5408 					"/>
				</g>
				<g>
					<polygon fill="#EE4541" points="19.0037,17.1701 19.195,17.059 20.6353,17.8905 20.444,18.0017 					"/>
				</g>
				<g>
					<polygon fill="#CF2027" points="22.9742,19.4625 23.1655,19.3513 23.1619,20.6062 22.9706,20.7173 					"/>
				</g>
				<g>
					<polygon fill="#EE4541" points="21.5338,18.6309 21.7251,18.5197 23.1655,19.3513 22.9742,19.4625 					"/>
				</g>
				<g>
					<polygon fill="#CF2027" points="21.5385,16.9758 21.7298,16.8647 21.7251,18.5197 21.5338,18.6309 					"/>
				</g>
				<g>
					<polygon fill="#EE4541" points="20.4487,16.3466 20.64,16.2355 21.7298,16.8647 21.5385,16.9758 					"/>
				</g>
				<g>
					<polygon fill="#E02426" points="21.5385,16.9758 21.5338,18.6309 22.9742,19.4625 22.9706,20.7173 21.5303,19.8858 
						21.5256,21.5408 20.4358,20.9116 20.4405,19.2566 19.0002,18.425 19.0037,17.1701 20.444,18.0017 20.4487,16.3466 					"/>
				</g>
			</g>
		</g>
		<g>
			<g enable-background="new    ">
				<g>
					<polygon fill="#55B8E8" points="24.7189,30.5613 24.7189,32.9632 21.6278,34.7451 21.6278,33.6131 21.618,32.4316 
						21.618,31.7524 21.6081,29.9215 24.7091,28.1396 24.7091,29.3803 					"/>
				</g>
				<g>
					<polygon fill="#7BD3F7" points="24.7091,28.7006 24.7091,28.9371 21.618,31.9889 21.618,31.7524 					"/>
					<polygon fill="#7BD3F7" points="24.7189,30.7483 24.7189,31.2506 21.6278,34.2923 21.6278,33.8102 					"/>
					<polygon fill="#7BD3F7" points="24.7189,30.5613 21.6278,33.6131 21.618,32.4316 24.7091,29.3803 					"/>
				</g>
				<g>
					<polygon fill="#7BD3F7" points="24.7091,28.7006 24.7091,28.9371 21.618,31.9889 21.618,31.7524 					"/>
					<polygon fill="#7BD3F7" points="24.7189,30.7483 24.7189,31.2506 21.6278,34.2923 21.6278,33.8102 					"/>
					<polygon fill="#7BD3F7" points="24.7189,30.5613 21.6278,33.6131 21.618,32.4316 24.7091,29.3803 					"/>
				</g>
				<g>
					<polygon fill="#BFBFBF" points="24.7191,32.9588 24.4163,32.7828 21.3229,34.5688 21.6257,34.7447 					"/>
				</g>
				<g>
					<polygon fill="#E8E8E8" points="24.7054,28.1373 24.4026,27.9614 24.4163,32.7828 24.7191,32.9588 					"/>
				</g>
				<g>
					<polygon fill="#8B6E59" points="21.612,29.9233 21.3092,29.7474 21.3229,34.5688 21.6256,34.7447 					"/>
				</g>
				<g>
					<polygon fill="#9B7B64" points="24.7054,28.1373 24.4026,27.9614 21.3092,29.7474 21.612,29.9233 					"/>
				</g>
				<g>
					<path fill="#FFFFFF" d="M25.0217,33.1317L21.325,35.266l-0.0156-5.5156l3.6967-2.1343L25.0217,33.1317z M21.6257,34.7447
						l3.0934-1.786l-0.0137-4.8214l-3.0934,1.786L21.6257,34.7447"/>
				</g>
			</g>
		</g>
		<g>
			<g>
				<g enable-background="new    ">
					<g>
						<polygon fill="#55B8E8" points="35.667,23.2129 35.667,24.7278 33.7175,25.8516 33.7175,25.1377 33.7112,24.3925 
							33.7112,23.9641 33.705,22.8094 35.6608,21.6856 35.6608,22.468 						"/>
					</g>
					<g>
						<polygon fill="#7BD3F7" points="35.6608,22.0394 35.6608,22.1885 33.7112,24.1133 33.7112,23.9641 						"/>
						<polygon fill="#7BD3F7" points="35.667,23.3308 35.667,23.6476 33.7175,25.566 33.7175,25.262 						"/>
						<polygon fill="#7BD3F7" points="35.667,23.2129 33.7175,25.1377 33.7112,24.3925 35.6608,22.468 						"/>
					</g>
					<g>
						<polygon fill="#7BD3F7" points="35.6608,22.0394 35.6608,22.1885 33.7112,24.1133 33.7112,23.9641 						"/>
						<polygon fill="#7BD3F7" points="35.667,23.3308 35.667,23.6476 33.7175,25.566 33.7175,25.262 						"/>
						<polygon fill="#7BD3F7" points="35.667,23.2129 33.7175,25.1377 33.7112,24.3925 35.6608,22.468 						"/>
					</g>
					<g>
						<polygon fill="#E8E8E8" points="35.6671,24.725 35.4762,24.614 33.5252,25.7404 33.7161,25.8514 						"/>
					</g>
					<g>
						<polygon fill="#D7D7D7" points="35.6585,21.6841 35.4675,21.5732 35.4762,24.614 35.6671,24.725 						"/>
					</g>
					<g>
						<polygon fill="#8B6E59" points="33.7075,22.8105 33.5165,22.6996 33.5252,25.7404 33.7161,25.8514 						"/>
					</g>
					<g>
						<polygon fill="#9B7B64" points="35.6584,21.6841 35.4675,21.5732 33.5165,22.6996 33.7075,22.8105 						"/>
					</g>
					<g>
						<path fill="#929393" d="M35.858,24.834l-2.3315,1.3461l-0.0099-3.4787l2.3315-1.3461L35.858,24.834z M33.7161,25.8514
							l1.951-1.1264l-0.0086-3.0408l-1.951,1.1264L33.7161,25.8514"/>
					</g>
				</g>
			</g>
			<g>
				<g enable-background="new    ">
					<g>
						<polygon fill="#55B8E8" points="38.2711,21.6851 38.2711,23.2 36.3216,24.3238 36.3216,23.6099 36.3154,22.8647 
							36.3154,22.4364 36.3092,21.2816 38.2649,20.1578 38.2649,20.9403 						"/>
					</g>
					<g>
						<polygon fill="#7BD3F7" points="38.2649,20.5116 38.2649,20.6608 36.3154,22.5855 36.3154,22.4364 						"/>
						<polygon fill="#7BD3F7" points="38.2711,21.8031 38.2711,22.1199 36.3216,24.0383 36.3216,23.7342 						"/>
						<polygon fill="#7BD3F7" points="38.2711,21.6851 36.3216,23.6099 36.3154,22.8647 38.2649,20.9403 						"/>
					</g>
					<g>
						<polygon fill="#7BD3F7" points="38.2649,20.5116 38.2649,20.6608 36.3154,22.5855 36.3154,22.4364 						"/>
						<polygon fill="#7BD3F7" points="38.2711,21.8031 38.2711,22.1199 36.3216,24.0383 36.3216,23.7342 						"/>
						<polygon fill="#7BD3F7" points="38.2711,21.6851 36.3216,23.6099 36.3154,22.8647 38.2649,20.9403 						"/>
					</g>
					<g>
						<polygon fill="#E8E8E8" points="38.2712,23.1972 38.0803,23.0862 36.1293,24.2126 36.3203,24.3236 						"/>
					</g>
					<g>
						<polygon fill="#D7D7D7" points="38.2626,20.1564 38.0717,20.0454 38.0803,23.0862 38.2712,23.1972 						"/>
					</g>
					<g>
						<polygon fill="#8B6E59" points="36.3116,21.2828 36.1207,21.1718 36.1293,24.2127 36.3202,24.3236 						"/>
					</g>
					<g>
						<polygon fill="#9B7B64" points="38.2626,20.1564 38.0717,20.0454 36.1207,21.1718 36.3116,21.2828 						"/>
					</g>
					<g>
						<path fill="#929393" d="M38.4621,23.3063l-2.3315,1.3461l-0.0099-3.4787l2.3315-1.3461L38.4621,23.3063z M36.3203,24.3236
							l1.951-1.1264l-0.0086-3.0408l-1.951,1.1264L36.3203,24.3236"/>
					</g>
				</g>
			</g>
			<g>
				<g enable-background="new    ">
					<g>
						<polygon fill="#55B8E8" points="40.8753,20.1574 40.8753,21.6723 38.9257,22.7961 38.9257,22.0821 38.9195,21.337 
							38.9195,20.9086 38.9133,19.7539 40.8691,18.63 40.8691,19.4125 						"/>
					</g>
					<g>
						<polygon fill="#7BD3F7" points="40.8691,18.9838 40.8691,19.133 38.9195,21.0578 38.9195,20.9086 						"/>
						<polygon fill="#7BD3F7" points="40.8753,20.2753 40.8753,20.5921 38.9257,22.5105 38.9257,22.2064 						"/>
						<polygon fill="#7BD3F7" points="40.8753,20.1574 38.9257,22.0821 38.9195,21.337 40.8691,19.4125 						"/>
					</g>
					<g>
						<polygon fill="#7BD3F7" points="40.8691,18.9838 40.8691,19.133 38.9195,21.0578 38.9195,20.9086 						"/>
						<polygon fill="#7BD3F7" points="40.8753,20.2753 40.8753,20.5921 38.9257,22.5105 38.9257,22.2064 						"/>
						<polygon fill="#7BD3F7" points="40.8753,20.1574 38.9257,22.0821 38.9195,21.337 40.8691,19.4125 						"/>
					</g>
					<g>
						<polygon fill="#E8E8E8" points="40.8754,21.6694 40.6844,21.5585 38.7335,22.6849 38.9244,22.7958 						"/>
					</g>
					<g>
						<polygon fill="#D7D7D7" points="40.8668,18.6286 40.6758,18.5176 40.6844,21.5585 40.8754,21.6694 						"/>
					</g>
					<g>
						<polygon fill="#8B6E59" points="38.9158,19.755 38.7248,19.644 38.7334,22.6849 38.9244,22.7958 						"/>
					</g>
					<g>
						<polygon fill="#9B7B64" points="40.8667,18.6286 40.6758,18.5176 38.7248,19.644 38.9158,19.755 						"/>
					</g>
					<g>
						<path fill="#929393" d="M41.0663,21.7785l-2.3315,1.3461l-0.0099-3.4787l2.3315-1.3461L41.0663,21.7785z M38.9244,22.7958
							l1.951-1.1264l-0.0086-3.0408l-1.951,1.1264L38.9244,22.7958"/>
					</g>
				</g>
			</g>
			<g>
				<g enable-background="new    ">
					<g>
						<polygon fill="#55B8E8" points="43.4794,18.6296 43.4794,20.1445 41.5299,21.2683 41.5299,20.5544 41.5237,19.8092 
							41.5237,19.3808 41.5175,18.2261 43.4732,17.1023 43.4732,17.8847 						"/>
					</g>
					<g>
						<polygon fill="#7BD3F7" points="43.4732,17.4561 43.4732,17.6052 41.5237,19.53 41.5237,19.3808 						"/>
						<polygon fill="#7BD3F7" points="43.4794,18.7475 43.4794,19.0643 41.5299,20.9827 41.5299,20.6787 						"/>
						<polygon fill="#7BD3F7" points="43.4794,18.6296 41.5299,20.5544 41.5237,19.8092 43.4732,17.8847 						"/>
					</g>
					<g>
						<polygon fill="#7BD3F7" points="43.4732,17.4561 43.4732,17.6052 41.5237,19.53 41.5237,19.3808 						"/>
						<polygon fill="#7BD3F7" points="43.4794,18.7475 43.4794,19.0643 41.5299,20.9827 41.5299,20.6787 						"/>
						<polygon fill="#7BD3F7" points="43.4794,18.6296 41.5299,20.5544 41.5237,19.8092 43.4732,17.8847 						"/>
					</g>
					<g>
						<polygon fill="#E8E8E8" points="43.4795,20.1417 43.2886,20.0307 41.3376,21.1571 41.5285,21.2681 						"/>
					</g>
					<g>
						<polygon fill="#D7D7D7" points="43.4709,17.1008 43.28,16.9899 43.2886,20.0307 43.4795,20.1417 						"/>
					</g>
					<g>
						<polygon fill="#8B6E59" points="41.5199,18.2272 41.329,18.1163 41.3376,21.1571 41.5285,21.2681 						"/>
					</g>
					<g>
						<polygon fill="#9B7B64" points="43.4709,17.1008 43.2799,16.9899 41.329,18.1163 41.5199,18.2272 						"/>
					</g>
					<g>
						<path fill="#929393" d="M43.6704,20.2507l-2.3315,1.3461l-0.0099-3.4787l2.3315-1.3461L43.6704,20.2507z M41.5285,21.2681
							l1.951-1.1264l-0.0086-3.0408l-1.951,1.1264L41.5285,21.2681"/>
					</g>
				</g>
			</g>
			<g>
				<g enable-background="new    ">
					<g>
						<polygon fill="#55B8E8" points="46.0836,17.1018 46.0836,18.6167 44.134,19.7406 44.134,19.0266 44.1278,18.2814 
							44.1278,17.8531 44.1216,16.6983 46.0774,15.5745 46.0774,16.357 						"/>
					</g>
					<g>
						<polygon fill="#7BD3F7" points="46.0774,15.9283 46.0774,16.0775 44.1278,18.0022 44.1278,17.8531 						"/>
						<polygon fill="#7BD3F7" points="46.0836,17.2198 46.0836,17.5366 44.134,19.455 44.134,19.1509 						"/>
						<polygon fill="#7BD3F7" points="46.0836,17.1018 44.134,19.0266 44.1278,18.2814 46.0774,16.357 						"/>
					</g>
					<g>
						<polygon fill="#7BD3F7" points="46.0774,15.9283 46.0774,16.0775 44.1278,18.0022 44.1278,17.8531 						"/>
						<polygon fill="#7BD3F7" points="46.0836,17.2198 46.0836,17.5366 44.134,19.455 44.134,19.1509 						"/>
						<polygon fill="#7BD3F7" points="46.0836,17.1018 44.134,19.0266 44.1278,18.2814 46.0774,16.357 						"/>
					</g>
					<g>
						<polygon fill="#E8E8E8" points="46.0837,18.6139 45.8927,18.503 43.9417,19.6294 44.1327,19.7403 						"/>
					</g>
					<g>
						<polygon fill="#D7D7D7" points="46.075,15.5731 45.8841,15.4621 45.8927,18.503 46.0837,18.6139 						"/>
					</g>
					<g>
						<polygon fill="#8B6E59" points="44.124,16.6995 43.9331,16.5885 43.9417,19.6294 44.1327,19.7403 						"/>
					</g>
					<g>
						<polygon fill="#9B7B64" points="46.075,15.5731 45.8841,15.4621 43.9331,16.5885 44.124,16.6995 						"/>
					</g>
					<g>
						<path fill="#929393" d="M46.2745,18.723l-2.3315,1.3461l-0.0099-3.4787l2.3315-1.3461L46.2745,18.723z M44.1327,19.7403
							l1.951-1.1264l-0.0086-3.0408l-1.951,1.1264L44.1327,19.7403"/>
					</g>
				</g>
			</g>
		</g>
		<g>
			<g>
				<g enable-background="new    ">
					<g>
						<polygon fill="#55B8E8" points="35.667,27.7266 35.667,29.2415 33.7175,30.3653 33.7175,29.6514 33.7112,28.9062 
							33.7112,28.4779 33.705,27.3231 35.6608,26.1993 35.6608,26.9818 						"/>
					</g>
					<g>
						<polygon fill="#7BD3F7" points="35.6608,26.5531 35.6608,26.7022 33.7112,28.627 33.7112,28.4779 						"/>
						<polygon fill="#7BD3F7" points="35.667,27.8446 35.667,28.1614 33.7175,30.0798 33.7175,29.7757 						"/>
						<polygon fill="#7BD3F7" points="35.667,27.7266 33.7175,29.6514 33.7112,28.9062 35.6608,26.9818 						"/>
					</g>
					<g>
						<polygon fill="#7BD3F7" points="35.6608,26.5531 35.6608,26.7022 33.7112,28.627 33.7112,28.4779 						"/>
						<polygon fill="#7BD3F7" points="35.667,27.8446 35.667,28.1614 33.7175,30.0798 33.7175,29.7757 						"/>
						<polygon fill="#7BD3F7" points="35.667,27.7266 33.7175,29.6514 33.7112,28.9062 35.6608,26.9818 						"/>
					</g>
					<g>
						<polygon fill="#E8E8E8" points="35.6671,29.2387 35.4762,29.1277 33.5252,30.2541 33.7161,30.3651 						"/>
					</g>
					<g>
						<polygon fill="#D7D7D7" points="35.6585,26.1979 35.4675,26.0869 35.4762,29.1277 35.6671,29.2387 						"/>
					</g>
					<g>
						<polygon fill="#8B6E59" points="33.7075,27.3243 33.5165,27.2133 33.5252,30.2541 33.7161,30.3651 						"/>
					</g>
					<g>
						<polygon fill="#9B7B64" points="35.6584,26.1979 35.4675,26.0869 33.5165,27.2133 33.7075,27.3243 						"/>
					</g>
					<g>
						<path fill="#929393" d="M35.858,29.3478l-2.3315,1.3461l-0.0099-3.4787l2.3315-1.3461L35.858,29.3478z M33.7161,30.3651
							l1.951-1.1264l-0.0086-3.0408l-1.951,1.1264L33.7161,30.3651"/>
					</g>
				</g>
			</g>
			<g>
				<g enable-background="new    ">
					<g>
						<polygon fill="#55B8E8" points="38.2711,26.1989 38.2711,27.7138 36.3216,28.8376 36.3216,28.1236 36.3154,27.3785 
							36.3154,26.9501 36.3092,25.7954 38.2649,24.6715 38.2649,25.454 						"/>
					</g>
					<g>
						<polygon fill="#7BD3F7" points="38.2649,25.0253 38.2649,25.1745 36.3154,27.0992 36.3154,26.9501 						"/>
						<polygon fill="#7BD3F7" points="38.2711,26.3168 38.2711,26.6336 36.3216,28.552 36.3216,28.2479 						"/>
						<polygon fill="#7BD3F7" points="38.2711,26.1989 36.3216,28.1236 36.3154,27.3785 38.2649,25.454 						"/>
					</g>
					<g>
						<polygon fill="#7BD3F7" points="38.2649,25.0253 38.2649,25.1745 36.3154,27.0992 36.3154,26.9501 						"/>
						<polygon fill="#7BD3F7" points="38.2711,26.3168 38.2711,26.6336 36.3216,28.552 36.3216,28.2479 						"/>
						<polygon fill="#7BD3F7" points="38.2711,26.1989 36.3216,28.1236 36.3154,27.3785 38.2649,25.454 						"/>
					</g>
					<g>
						<polygon fill="#E8E8E8" points="38.2712,27.7109 38.0803,27.6 36.1293,28.7264 36.3203,28.8373 						"/>
					</g>
					<g>
						<polygon fill="#D7D7D7" points="38.2626,24.6701 38.0717,24.5591 38.0803,27.6 38.2712,27.7109 						"/>
					</g>
					<g>
						<polygon fill="#8B6E59" points="36.3116,25.7965 36.1207,25.6855 36.1293,28.7264 36.3202,28.8373 						"/>
					</g>
					<g>
						<polygon fill="#9B7B64" points="38.2626,24.6701 38.0717,24.5591 36.1207,25.6855 36.3116,25.7965 						"/>
					</g>
					<g>
						<path fill="#929393" d="M38.4621,27.82l-2.3315,1.3461l-0.0099-3.4787l2.3315-1.3461L38.4621,27.82z M36.3203,28.8373
							l1.951-1.1264l-0.0086-3.0408l-1.951,1.1264L36.3203,28.8373"/>
					</g>
				</g>
			</g>
			<g>
				<g enable-background="new    ">
					<g>
						<polygon fill="#55B8E8" points="40.8753,24.6711 40.8753,26.186 38.9257,27.3098 38.9257,26.5959 38.9195,25.8507 
							38.9195,25.4223 38.9133,24.2676 40.8691,23.1438 40.8691,23.9262 						"/>
					</g>
					<g>
						<polygon fill="#7BD3F7" points="40.8691,23.4976 40.8691,23.6467 38.9195,25.5715 38.9195,25.4223 						"/>
						<polygon fill="#7BD3F7" points="40.8753,24.789 40.8753,25.1058 38.9257,27.0242 38.9257,26.7202 						"/>
						<polygon fill="#7BD3F7" points="40.8753,24.6711 38.9257,26.5959 38.9195,25.8507 40.8691,23.9262 						"/>
					</g>
					<g>
						<polygon fill="#7BD3F7" points="40.8691,23.4976 40.8691,23.6467 38.9195,25.5715 38.9195,25.4223 						"/>
						<polygon fill="#7BD3F7" points="40.8753,24.789 40.8753,25.1058 38.9257,27.0242 38.9257,26.7202 						"/>
						<polygon fill="#7BD3F7" points="40.8753,24.6711 38.9257,26.5959 38.9195,25.8507 40.8691,23.9262 						"/>
					</g>
					<g>
						<polygon fill="#E8E8E8" points="40.8754,26.1832 40.6844,26.0722 38.7335,27.1986 38.9244,27.3096 						"/>
					</g>
					<g>
						<polygon fill="#D7D7D7" points="40.8668,23.1423 40.6758,23.0314 40.6844,26.0722 40.8754,26.1832 						"/>
					</g>
					<g>
						<polygon fill="#8B6E59" points="38.9158,24.2687 38.7248,24.1578 38.7334,27.1986 38.9244,27.3096 						"/>
					</g>
					<g>
						<polygon fill="#9B7B64" points="40.8667,23.1423 40.6758,23.0314 38.7248,24.1578 38.9158,24.2687 						"/>
					</g>
					<g>
						<path fill="#929393" d="M41.0663,26.2922l-2.3315,1.3461l-0.0099-3.4787l2.3315-1.3461L41.0663,26.2922z M38.9244,27.3096
							l1.951-1.1264l-0.0086-3.0408l-1.951,1.1264L38.9244,27.3096"/>
					</g>
				</g>
			</g>
			<g>
				<g enable-background="new    ">
					<g>
						<polygon fill="#55B8E8" points="43.4794,23.1433 43.4794,24.6582 41.5299,25.782 41.5299,25.0681 41.5237,24.3229 
							41.5237,23.8946 41.5175,22.7398 43.4732,21.616 43.4732,22.3985 						"/>
					</g>
					<g>
						<polygon fill="#7BD3F7" points="43.4732,21.9698 43.4732,22.119 41.5237,24.0437 41.5237,23.8946 						"/>
						<polygon fill="#7BD3F7" points="43.4794,23.2613 43.4794,23.5781 41.5299,25.4965 41.5299,25.1924 						"/>
						<polygon fill="#7BD3F7" points="43.4794,23.1433 41.5299,25.0681 41.5237,24.3229 43.4732,22.3985 						"/>
					</g>
					<g>
						<polygon fill="#7BD3F7" points="43.4732,21.9698 43.4732,22.119 41.5237,24.0437 41.5237,23.8946 						"/>
						<polygon fill="#7BD3F7" points="43.4794,23.2613 43.4794,23.5781 41.5299,25.4965 41.5299,25.1924 						"/>
						<polygon fill="#7BD3F7" points="43.4794,23.1433 41.5299,25.0681 41.5237,24.3229 43.4732,22.3985 						"/>
					</g>
					<g>
						<polygon fill="#E8E8E8" points="43.4795,24.6554 43.2886,24.5444 41.3376,25.6708 41.5285,25.7818 						"/>
					</g>
					<g>
						<polygon fill="#D7D7D7" points="43.4709,21.6146 43.28,21.5036 43.2886,24.5444 43.4795,24.6554 						"/>
					</g>
					<g>
						<polygon fill="#8B6E59" points="41.5199,22.741 41.329,22.63 41.3376,25.6708 41.5285,25.7818 						"/>
					</g>
					<g>
						<polygon fill="#9B7B64" points="43.4709,21.6146 43.2799,21.5036 41.329,22.63 41.5199,22.741 						"/>
					</g>
					<g>
						<path fill="#929393" d="M43.6704,24.7645l-2.3315,1.3461l-0.0099-3.4787l2.3315-1.3461L43.6704,24.7645z M41.5285,25.7818
							l1.951-1.1264l-0.0086-3.0408l-1.951,1.1264L41.5285,25.7818"/>
					</g>
				</g>
			</g>
			<g>
				<g enable-background="new    ">
					<g>
						<polygon fill="#55B8E8" points="46.0836,21.6156 46.0836,23.1305 44.134,24.2543 44.134,23.5403 44.1278,22.7952 
							44.1278,22.3668 44.1216,21.2121 46.0774,20.0882 46.0774,20.8707 						"/>
					</g>
					<g>
						<polygon fill="#7BD3F7" points="46.0774,20.442 46.0774,20.5912 44.1278,22.516 44.1278,22.3668 						"/>
						<polygon fill="#7BD3F7" points="46.0836,21.7335 46.0836,22.0503 44.134,23.9687 44.134,23.6646 						"/>
						<polygon fill="#7BD3F7" points="46.0836,21.6156 44.134,23.5403 44.1278,22.7952 46.0774,20.8707 						"/>
					</g>
					<g>
						<polygon fill="#7BD3F7" points="46.0774,20.442 46.0774,20.5912 44.1278,22.516 44.1278,22.3668 						"/>
						<polygon fill="#7BD3F7" points="46.0836,21.7335 46.0836,22.0503 44.134,23.9687 44.134,23.6646 						"/>
						<polygon fill="#7BD3F7" points="46.0836,21.6156 44.134,23.5403 44.1278,22.7952 46.0774,20.8707 						"/>
					</g>
					<g>
						<polygon fill="#E8E8E8" points="46.0837,23.1276 45.8927,23.0167 43.9417,24.1431 44.1327,24.254 						"/>
					</g>
					<g>
						<polygon fill="#D7D7D7" points="46.075,20.0868 45.8841,19.9758 45.8927,23.0167 46.0837,23.1276 						"/>
					</g>
					<g>
						<polygon fill="#8B6E59" points="44.124,21.2132 43.9331,21.1022 43.9417,24.1431 44.1327,24.254 						"/>
					</g>
					<g>
						<polygon fill="#9B7B64" points="46.075,20.0868 45.8841,19.9758 43.9331,21.1022 44.124,21.2132 						"/>
					</g>
					<g>
						<path fill="#929393" d="M46.2745,23.2367l-2.3315,1.3461l-0.0099-3.4787l2.3315-1.3461L46.2745,23.2367z M44.1327,24.254
							l1.951-1.1264l-0.0086-3.0408l-1.951,1.1264L44.1327,24.254"/>
					</g>
				</g>
			</g>
		</g>
		<g>
			<g enable-background="new    ">
				<g>
					<polygon fill="#55B8E8" points="31.0022,30.6823 30.9902,35.1646 29.0402,34.042 28.0199,33.4525 27.8102,33.3335 
						27.8102,32.3473 27.8221,28.8511 29.2733,29.6845 29.6474,29.8998 29.9138,30.0529 30.9398,30.6424 					"/>
				</g>
				<g>
					<polygon fill="#69C4EF" points="29.6474,29.8998 27.8102,33.1976 27.8102,32.3473 29.2733,29.6845 					"/>
					<polygon fill="#69C4EF" points="30.9398,30.6424 29.0402,34.042 28.0199,33.4525 29.9138,30.0529 					"/>
				</g>
				<g>
					<polygon fill="#55B8E8" points="31.0086,28.0169 31.0054,29.1357 29.5035,28.2686 29.5067,27.1497 					"/>
				</g>
				<g>
					<polygon fill="#55B8E8" points="29.3328,28.3615 29.3297,29.476 27.8241,28.6068 27.8273,27.4922 					"/>
				</g>
				<g>
					<polygon fill="#55B8E8" points="29.3366,27.0515 29.3334,28.1704 27.8278,27.3011 27.831,26.1823 					"/>
				</g>
				<g>
					<polygon fill="#55B8E8" points="31.0049,29.3268 31.0017,30.4414 29.4998,29.5742 29.503,28.4597 					"/>
				</g>
				<g>
					<polygon fill="#686868" points="27.8107,33.3311 28.0105,33.215 31.1881,35.0496 30.9883,35.1656 					"/>
				</g>
				<g>
					<polygon fill="#3D3D3D" points="27.8234,28.8498 28.0232,28.7337 28.0105,33.215 27.8107,33.3311 					"/>
				</g>
				<g>
					<polygon fill="#3D3D3D" points="27.8273,27.4882 28.0271,27.3721 28.0239,28.4907 27.8241,28.6068 					"/>
				</g>
				<g>
					<polygon fill="#686868" points="27.8241,28.6068 28.0239,28.4907 29.5294,29.3599 29.3297,29.476 					"/>
				</g>
				<g>
					<polygon fill="#3D3D3D" points="27.831,26.1823 28.0308,26.0662 28.0276,27.1851 27.8278,27.3011 					"/>
				</g>
				<g>
					<polygon fill="#5A5B5B" points="27.8273,27.4922 28.0271,27.3762 29.5326,28.2454 29.3328,28.3615 					"/>
				</g>
				<g>
					<polygon fill="#515050" points="29.3328,28.3615 29.5326,28.2454 29.5294,29.3599 29.3297,29.476 					"/>
				</g>
				<g>
					<polygon fill="#686868" points="27.8278,27.3011 28.0276,27.1851 29.5331,28.0543 29.3334,28.1704 					"/>
				</g>
				<g>
					<polygon fill="#3D3D3D" points="29.503,28.4556 29.7027,28.3395 29.6995,29.4582 29.4998,29.5742 					"/>
				</g>
				<g>
					<polygon fill="#515050" points="31.0004,30.9154 31.2001,30.7993 31.1881,35.0496 30.9883,35.1656 					"/>
				</g>
				<g>
					<polygon fill="#5A5B5B" points="27.8234,28.8498 28.0232,28.7337 31.2008,30.5683 31.001,30.6844 					"/>
				</g>
				<g>
					<polygon fill="#686868" points="29.4998,29.5742 29.6995,29.4582 31.2015,30.3253 31.0017,30.4414 					"/>
				</g>
				<g>
					<polygon fill="#5A5B5B" points="27.831,26.1823 28.0308,26.0662 29.5363,26.9354 29.3366,27.0515 					"/>
				</g>
				<g>
					<polygon fill="#515050" points="29.3366,27.0515 29.5363,26.9354 29.5331,28.0543 29.3334,28.1704 					"/>
				</g>
				<g>
					<polygon fill="#3D3D3D" points="29.5067,27.1497 29.7064,27.0336 29.7032,28.1525 29.5035,28.2686 					"/>
				</g>
				<g>
					<polygon fill="#515050" points="31.0049,29.3268 31.2046,29.2107 31.2015,30.3253 31.0017,30.4414 					"/>
				</g>
				<g>
					<polygon fill="#5A5B5B" points="29.503,28.4597 29.7027,28.3436 31.2046,29.2107 31.0049,29.3268 					"/>
				</g>
				<g>
					<polygon fill="#686868" points="29.5035,28.2686 29.7032,28.1525 31.2052,29.0196 31.0054,29.1357 					"/>
				</g>
				<g>
					<polygon fill="#515050" points="31.0086,28.0169 31.2083,27.9008 31.2052,29.0196 31.0054,29.1357 					"/>
				</g>
				<g>
					<polygon fill="#5A5B5B" points="29.5067,27.1497 29.7064,27.0336 31.2083,27.9008 31.0086,28.0169 					"/>
				</g>
				<g>
					<path fill="#4F4D4D" d="M27.6346,25.8543l-0.0223,7.5821l3.6594,2.1128l0.0223-7.5821L27.6346,25.8543z M27.831,26.1823
						l1.5055,0.8692l-0.0032,1.1189l-1.5055-0.8692L27.831,26.1823 M27.8273,27.4882l1.5055,0.8692l-0.0032,1.1186l-1.5055-0.8692
						L27.8273,27.4882 M30.9883,35.1656l-3.1776-1.8346l0.0127-4.4693l0-0.012l3.1776,1.8346L30.9883,35.1656 M31.0017,30.4414
						l-1.5019-0.8671l0.0032-1.1186l1.5019,0.8712L31.0017,30.4414 M31.0054,29.1357l-1.5019-0.8671l0.0032-1.1189l1.5019,0.8671
						L31.0054,29.1357"/>
				</g>
				<g>
					<polygon fill="#686868" points="27.6346,25.8543 27.8344,25.7382 31.4938,27.851 31.294,27.9671 					"/>
				</g>
				<g>
					<polygon fill="#3D3D3D" points="31.294,27.9671 31.4938,27.851 31.4715,35.4331 31.2717,35.5492 					"/>
				</g>
			</g>
		</g>
	</g>
</g>
</svg>
