<?xml version="1.0" encoding="utf-8"?>
<!-- Generator: Adobe Illustrator 18.0.0, SVG Export Plug-In . SVG Version: 6.00 Build 0)  -->
<!DOCTYPE svg PUBLIC "-//W3C//DTD SVG 1.1//EN" "http://www.w3.org/Graphics/SVG/1.1/DTD/svg11.dtd">
<svg version="1.1" id="Layer_1" xmlns="http://www.w3.org/2000/svg" xmlns:xlink="http://www.w3.org/1999/xlink" x="0px" y="0px"
	 viewBox="0 0 50 50" enable-background="new 0 0 50 50" xml:space="preserve">
<g>
	<g>
		<g>
			<g>
				<g>
					<g enable-background="new    ">
						<g>
							<polygon fill="#4F4D4D" points="44.7295,21.6885 44.7277,40.4271 29.9758,49 29.9776,30.2614 							"/>
						</g>
						<g>
							<polygon fill="#686868" points="29.9776,30.2614 29.9758,49 4.2884,34.1694 4.2902,15.4307 							"/>
						</g>
						<g>
							<polygon fill="#E8E8E8" points="45.9581,22.0688 30.3099,31.1625 3.0616,15.4307 18.7098,6.337 							"/>
						</g>
					</g>
				</g>
				<g>
					<g enable-background="new    ">
						<g>
							<polygon fill="#CC8B4F" points="48.1434,21.4941 48.1414,23.1677 31.2571,32.9798 31.2592,31.3062 							"/>
						</g>
						<g>
							<polygon fill="#D89C60" points="31.2592,31.3062 31.2571,32.9798 1.8566,16.0054 1.8586,14.3318 							"/>
						</g>
						<g>
							<polygon fill="#E5AE70" points="48.1434,21.4941 31.2592,31.3062 1.8586,14.3318 18.7429,4.5197 							"/>
						</g>
					</g>
				</g>
			</g>
			<g>
				<g>
					<g enable-background="new    ">
						<g>
							<path fill="#CF2027" d="M31.1217,18.654l-0.0089,4.0464c-0.0014,0.4552,0.3203,0.8919,0.905,1.2296
								c0.6159,0.3557,1.4378,0.5515,2.3142,0.5515s1.6957-0.1957,2.3074-0.5512c0.5725-0.3327,0.8887-0.7629,0.8899-1.2116
								l0.0087-4.0647H31.1217z"/>
							<path fill="#EE4541" d="M36.5961,17.3414c1.2554,0.7248,1.2628,1.9002,0.0148,2.6256c-1.2472,0.7248-3.2774,0.7248-4.5328,0
								c-1.2563-0.7253-1.2619-1.9008-0.0148-2.6256C33.3114,16.6161,35.3398,16.6161,36.5961,17.3414z"/>
							<path fill="#E02426" d="M36.8635,23.1033c0.1541,0.0889,0.155,0.2332,0.0018,0.3222c-0.153,0.0889-0.4022,0.0889-0.5562,0
								c-0.1542-0.089-0.1549-0.2333-0.0018-0.3222C36.4604,23.0143,36.7093,23.0143,36.8635,23.1033z"/>
							<path fill="#E02426" d="M33.7077,22.3129c0.1541,0.0889,0.155,0.2332,0.0018,0.3222c-0.153,0.0889-0.4022,0.0889-0.5562,0
								c-0.1542-0.089-0.1549-0.2333-0.0018-0.3222C33.3046,22.2239,33.5535,22.2239,33.7077,22.3129z"/>
							<path fill="#E02426" d="M35.4953,20.9638c0.154,0.0889,0.155,0.2332,0.0018,0.3222c-0.153,0.0889-0.4022,0.0889-0.5562,0
								c-0.1542-0.089-0.1549-0.2333-0.0018-0.3222C35.0923,20.8748,35.3412,20.8748,35.4953,20.9638z"/>
							<path fill="#EF5253" d="M32.8625,19.3647c0.154,0.0889,0.155,0.2332,0.0018,0.3222c-0.153,0.0889-0.4022,0.0889-0.5562,0
								c-0.1542-0.089-0.1549-0.2333-0.0018-0.3222C32.4594,19.2757,32.7083,19.2757,32.8625,19.3647z"/>
							<path fill="#E02426" d="M33.3976,17.4837c0.154,0.0889,0.155,0.2332,0.0018,0.3222c-0.153,0.0889-0.4022,0.0889-0.5562,0
								c-0.1542-0.089-0.1549-0.2333-0.0018-0.3222C32.9945,17.3947,33.2434,17.3947,33.3976,17.4837z"/>
						</g>
						<g>
							<path fill="#E8E8E8" d="M36.7429,15.7156c-1.3348-0.768-3.4954-0.768-4.8302,0c-1.3252,0.7779-1.3156,2.0261,0.0192,2.8039
								c1.3348,0.768,3.4954,0.768,4.8302,0C38.0873,17.7416,38.0777,16.4934,36.7429,15.7156z M36.6853,18.3849
								c-0.6242,0.3653-1.45,0.5669-2.3335,0.5669c-0.8931,0-1.7189-0.2016-2.3431-0.5669
								c-0.2689-0.1533-0.4801-0.3263-0.6434-0.5186c-0.192-0.2302-0.2977-0.4895-0.2977-0.7582
								c0-0.4708,0.3265-0.9125,0.9219-1.2585c0.6242-0.3648,1.45-0.5664,2.3335-0.5664c0.8931,0,1.7189,0.2016,2.3431,0.5664
								c0.605,0.346,0.9411,0.7971,0.9411,1.2772c0,0.2593-0.1056,0.5186-0.2977,0.7493
								C37.1558,18.0684,36.9445,18.241,36.6853,18.3849z"/>
							<g>
								<path opacity="0.3" fill="#69C4EF" d="M31.9893,17.3569c0.6208-0.3607,1.4506-0.5595,2.3365-0.5595
									c0.8865,0,1.7186,0.1987,2.3437,0.5598c0.2685,0.1548,0.4798,0.3317,0.6354,0.5214c0.194-0.2358,0.2995-0.492,0.2991-0.7561
									c-0.0009-0.4755-0.3326-0.9288-0.9345-1.2762c-0.6251-0.361-1.4572-0.5598-2.3437-0.5598
									c-0.8859,0-1.7157,0.1986-2.3365,0.5595c-0.5934,0.3449-0.9196,0.7947-0.9191,1.2665
									c0.0003,0.2634,0.1058,0.5191,0.2991,0.7546C31.5219,17.6817,31.728,17.5087,31.9893,17.3569z"/>
								<path fill="#E02426" d="M34.3482,18.9478c1.0261,0,2.3236-0.3003,2.9567-1.0692c-0.6368-0.7766-1.9487-1.0812-2.979-1.0812
									c-1.0251,0-2.3239,0.301-2.9565,1.0698C32.0088,18.6469,33.3242,18.9478,34.3482,18.9478z"/>
							</g>
						</g>
					</g>
				</g>
				<path fill="#CF2027" d="M33.7909,17.3946c0.1541,0.0889,0.155,0.2332,0.0018,0.3222c-0.153,0.0889-0.4022,0.0889-0.5562,0
					c-0.1542-0.089-0.1549-0.2333-0.0018-0.3222C33.3878,17.3056,33.6367,17.3056,33.7909,17.3946z"/>
			</g>
		</g>
		<g>
			<g>
				<polygon fill="#E8E8E8" points="16.8704,15.8652 12.2035,18.5538 6.2594,15.1065 10.9263,12.4081 				"/>
			</g>
			<g>
				<g enable-background="new    ">
					<g>
						<polygon fill="#E8E8E8" points="14.6857,13.6825 14.439,13.8259 10.834,11.7446 11.0807,11.6012 						"/>
					</g>
					<g>
						<path fill="#FFFFFF" d="M12.5154,10.1098l4.66,2.6904l-5.9458,3.4553l-4.66-2.6904L12.5154,10.1098z M15.7715,13.0515
							l0.2491-0.1448l-3.605-2.0813l-0.2491,0.1448L15.7715,13.0515 M15.104,13.4394l0.2491-0.1448l-3.605-2.0813l-0.2491,0.1448
							L15.104,13.4394 M14.439,13.8259l0.2467-0.1434l-3.605-2.0813l-0.2467,0.1434L14.439,13.8259"/>
					</g>
					<g>
						<polygon fill="#E8E8E8" points="16.0206,12.9068 15.7715,13.0515 12.1665,10.9702 12.4157,10.8254 						"/>
					</g>
					<g>
						<polygon fill="#E8E8E8" points="15.3532,13.2946 15.104,13.4394 11.4991,11.3581 11.7482,11.2133 						"/>
					</g>
				</g>
			</g>
		</g>
		<g>
			<g>
				<g>
					<g enable-background="new    ">
						<g>
							<polygon fill="#929393" points="23.5902,15.6132 23.5882,15.9821 21.775,17.0359 21.777,16.667 							"/>
						</g>
						<g>
							<polygon fill="#B0AFB0" points="21.777,16.667 21.775,17.0359 18.0941,14.9107 18.0961,14.5418 							"/>
						</g>
						<g>
							<polygon fill="#D7D7D7" points="23.5902,15.6132 21.777,16.667 18.0961,14.5418 19.9094,13.4881 							"/>
						</g>
					</g>
				</g>
				<g>
					<g enable-background="new    ">
						<g>
							<polygon fill="#929393" points="22.4198,13.8612 22.4181,15.632 22.1497,15.7879 22.1514,14.0171 							"/>
						</g>
						<g>
							<polygon fill="#B0AFB0" points="22.1514,14.0171 22.1497,15.7879 19.7,14.3735 19.7016,12.6027 							"/>
						</g>
						<g>
							<polygon fill="#B0AFB0" points="22.9493,14.0945 22.5581,14.3218 18.9873,12.2602 19.3785,12.0329 							"/>
						</g>
					</g>
				</g>
				<g>
					<g enable-background="new    ">
						<g enable-background="new    ">
							<defs>
								<path id="SVGID_1_" enable-background="new    " d="M15.6302,10.2873l1.0392-0.6039
									c0.0556,0.357,0.3044,0.7418,0.6033,0.9144l-1.0392,0.6039C15.9346,11.0291,15.6858,10.6443,15.6302,10.2873z"/>
							</defs>
							<clipPath id="SVGID_2_">
								<use xlink:href="#SVGID_1_"  overflow="visible"/>
							</clipPath>
							<g clip-path="url(#SVGID_2_)" enable-background="new    ">
								<polyline fill="#C0C0C1" points="15.6302,10.2873 16.6695,9.6833 16.6698,9.6852 15.6305,10.2892 15.6303,10.2879 								
									"/>
								<path fill="#C6C5C5" d="M15.6305,10.2892l1.0392-0.6039c0.0016,0.0104,0.0035,0.0209,0.0054,0.0313l-1.0392,0.6039
									C15.634,10.31,15.6322,10.2996,15.6305,10.2892"/>
								<path fill="#C9C9CA" d="M15.6359,10.3205l1.0392-0.6039c0.002,0.0105,0.0041,0.0211,0.0064,0.0317l-1.0392,0.6039
									C15.6401,10.3416,15.6379,10.3311,15.6359,10.3205"/>
								<path fill="#CECECF" d="M15.6424,10.3522l1.0392-0.6039c0.0023,0.0107,0.0048,0.0215,0.0075,0.0322l-1.0392,0.6039
									C15.6472,10.3737,15.6447,10.3629,15.6424,10.3522"/>
								<path fill="#D3D3D4" d="M15.6499,10.3844l1.0392-0.6039c0.0027,0.0108,0.0055,0.0216,0.0085,0.0323l-1.0393,0.6039
									C15.6554,10.406,15.6526,10.3952,15.6499,10.3844"/>
								<path fill="#D8D8D9" d="M15.6584,10.4168l1.0393-0.6039c0.003,0.0108,0.0061,0.0216,0.0095,0.0324l-1.0393,0.6039
									C15.6645,10.4384,15.6614,10.4276,15.6584,10.4168"/>
								<path fill="#DEDEDE" d="M15.6678,10.4492l1.0393-0.6039c0.0032,0.0105,0.0066,0.021,0.0101,0.0315l-1.0392,0.6039
									C15.6744,10.4702,15.6711,10.4597,15.6678,10.4492"/>
								<path fill="#E2E2E2" d="M15.6779,10.4807l1.0392-0.6039c0.0035,0.0104,0.0071,0.0207,0.0108,0.031l-1.0392,0.6039
									C15.685,10.5014,15.6814,10.491,15.6779,10.4807"/>
								<path fill="#E7E6E7" d="M15.6888,10.5117l1.0392-0.6039c0.0036,0.01,0.0074,0.02,0.0112,0.0299L15.7,10.5416
									C15.6961,10.5317,15.6924,10.5217,15.6888,10.5117"/>
								<path fill="#EBEBEC" d="M15.7,10.5416l1.0392-0.6039c0.0038,0.0098,0.0078,0.0197,0.0119,0.0295l-1.0392,0.6039
									C15.7078,10.5613,15.7038,10.5515,15.7,10.5416"/>
								<path fill="#F1F1F1" d="M15.7119,10.5711l1.0392-0.6039c0.004,0.0097,0.0082,0.0193,0.0124,0.029L15.7243,10.6
									C15.72,10.5904,15.7159,10.5808,15.7119,10.5711"/>
								<path fill="#F2F2F3" d="M15.7243,10.6l1.0393-0.6039c0.0044,0.01,0.009,0.02,0.0137,0.03L15.7379,10.63
									C15.7333,10.6201,15.7287,10.6101,15.7243,10.6"/>
								<path fill="#F2F2F3" d="M15.7379,10.63l1.0392-0.6039c0.0048,0.0102,0.0097,0.0203,0.0147,0.0304l-1.0393,0.6039
									C15.7476,10.6503,15.7427,10.6402,15.7379,10.63"/>
								<path fill="#F3F3F4" d="M15.7526,10.6604l1.0393-0.6039c0.0062,0.0124,0.0126,0.0248,0.0191,0.0371l-1.0393,0.6039
									C15.7652,10.6852,15.7588,10.6728,15.7526,10.6604"/>
								<path fill="#F3F3F4" d="M15.7717,10.6975l1.0393-0.6039c0.0097,0.0182,0.0197,0.0361,0.0302,0.0539l-1.0393,0.6039
									C15.7915,10.7336,15.7814,10.7156,15.7717,10.6975"/>
								<path fill="#F4F5F5" d="M15.8019,10.7513l1.0393-0.6039c0.0153,0.0261,0.0315,0.0518,0.0483,0.0768l-1.0393,0.6039
									C15.8334,10.8031,15.8172,10.7774,15.8019,10.7513"/>
								<path fill="#F3F3F4" d="M15.8502,10.8282l1.0393-0.6039c0.012,0.0178,0.0243,0.0353,0.037,0.0524l-1.0393,0.6039
									C15.8745,10.8634,15.8622,10.8459,15.8502,10.8282"/>
								<path fill="#F3F3F4" d="M15.8872,10.8806l1.0393-0.6039c0.0088,0.0119,0.0177,0.0236,0.0269,0.0352l-1.0393,0.6039
									C15.9049,10.9042,15.896,10.8925,15.8872,10.8806"/>
								<path fill="#F2F2F3" d="M15.9141,10.9158l1.0393-0.6039c0.0078,0.0099,0.0157,0.0197,0.0238,0.0294l-1.0392,0.6039
									C15.9298,10.9355,15.9219,10.9257,15.9141,10.9158"/>
								<path fill="#F2F2F3" d="M15.9378,10.9452l1.0392-0.6039c0.0078,0.0093,0.0157,0.0186,0.0236,0.0277l-1.0393,0.6039
									C15.9535,10.9638,15.9456,10.9545,15.9378,10.9452"/>
								<path fill="#F1F1F1" d="M15.9615,10.9729l1.0393-0.6039c0.0079,0.009,0.0159,0.0179,0.024,0.0267l-1.0393,0.6039
									C15.9774,10.9908,15.9694,10.9819,15.9615,10.9729"/>
								<path fill="#EBEBEC" d="M15.9855,10.9995l1.0393-0.6039c0.0083,0.009,0.0168,0.0178,0.0253,0.0265l-1.0392,0.6039
									C16.0023,11.0173,15.9939,11.0085,15.9855,10.9995"/>
								<path fill="#E7E6E7" d="M16.0108,11.026l1.0392-0.6039c0.0087,0.0088,0.0175,0.0175,0.0263,0.026l-1.0392,0.6039
									C16.0283,11.0435,16.0195,11.0349,16.0108,11.026"/>
								<path fill="#E2E2E2" d="M16.0372,11.052l1.0392-0.6039c0.009,0.0086,0.0181,0.0171,0.0272,0.0253l-1.0392,0.6039
									C16.0552,11.0691,16.0461,11.0607,16.0372,11.052"/>
								<path fill="#DEDEDE" d="M16.0644,11.0774l1.0392-0.6039c0.0092,0.0083,0.0184,0.0163,0.0277,0.0242l-1.0393,0.6039
									C16.0828,11.0937,16.0735,11.0856,16.0644,11.0774"/>
								<path fill="#D8D8D9" d="M16.0921,11.1016l1.0393-0.6039c0.0091,0.0077,0.0184,0.0152,0.0277,0.0226l-1.0393,0.6039
									C16.1105,11.1168,16.1013,11.1093,16.0921,11.1016"/>
								<path fill="#D3D3D4" d="M16.1198,11.1241l1.0393-0.6039c0.0091,0.0072,0.0184,0.0143,0.0277,0.0211l-1.0392,0.6039
									C16.1381,11.1384,16.1289,11.1314,16.1198,11.1241"/>
								<path fill="#CECECF" d="M16.1474,11.1452l1.0392-0.6039c0.0089,0.0065,0.0178,0.0129,0.0269,0.0191l-1.0393,0.6039
									C16.1653,11.1581,16.1563,11.1518,16.1474,11.1452"/>
								<path fill="#C9C9CA" d="M16.1743,11.1643l1.0393-0.6039c0.0088,0.0061,0.0177,0.0119,0.0267,0.0176L16.201,11.182
									C16.192,11.1763,16.1831,11.1704,16.1743,11.1643"/>
								<path fill="#C6C5C5" d="M16.201,11.182l1.0393-0.6039c0.0087,0.0056,0.0175,0.011,0.0264,0.0162l-1.0392,0.6039
									C16.2185,11.1929,16.2097,11.1875,16.201,11.182"/>
								<polyline fill="#C0C0C1" points="16.2274,11.1981 17.2666,10.5942 17.2727,10.5977 16.2335,11.2017 16.2274,11.1981 
																	"/>
							</g>
						</g>
						<g enable-background="new    ">
							<defs>
								<path id="SVGID_3_" enable-background="new    " d="M15.6189,10.1371l1.0392-0.6039
									c-0.0001,0.0514,0.0044,0.1,0.0114,0.1501l-1.0393,0.604C15.6233,10.2371,15.6187,10.1885,15.6189,10.1371z"/>
							</defs>
							<clipPath id="SVGID_4_">
								<use xlink:href="#SVGID_3_"  overflow="visible"/>
							</clipPath>
							<g clip-path="url(#SVGID_4_)" enable-background="new    ">
								<path fill="#AEAEAE" d="M15.6189,10.1371l1.0392-0.6039c0,0.0095,0.0001,0.0188,0.0004,0.0282l-1.0393,0.6039
									C15.619,10.156,15.6188,10.1466,15.6189,10.1371"/>
								<path fill="#B2B2B2" d="M15.6192,10.1653l1.0393-0.6039c0.0003,0.0103,0.0008,0.0205,0.0014,0.0306l-1.0392,0.6039
									C15.62,10.1857,15.6196,10.1756,15.6192,10.1653"/>
								<path fill="#B7B7B7" d="M15.6207,10.1959l1.0392-0.6039c0.0007,0.0111,0.0016,0.0222,0.0027,0.0333l-1.0392,0.6039
									C15.6223,10.2181,15.6214,10.207,15.6207,10.1959"/>
								<path fill="#BBBBBC" d="M15.6233,10.2292l1.0392-0.6039c0.0013,0.0132,0.0028,0.0265,0.0045,0.0398l-1.0393,0.6039
									C15.6261,10.2557,15.6246,10.2424,15.6233,10.2292"/>
								<path fill="#C0C0C1" d="M15.6278,10.269L16.667,9.665c0.0008,0.0061,0.0016,0.0122,0.0024,0.0183l-1.0393,0.6039
									C15.6294,10.2811,15.6286,10.2751,15.6278,10.269"/>
							</g>
						</g>
						<g>
							<polygon fill="#B9B9BA" points="15.6216,9.1852 16.6608,8.5812 27.8546,15.4149 27.1354,15.8327 							"/>
						</g>
						<g>
							<polygon fill="#929393" points="16.1649,2.1496 17.2041,1.5456 17.185,8.2825 16.1458,8.8864 							"/>
						</g>
						<g>
							<path fill="#D7D7D7" d="M27.1354,15.8327l-0.0027,0.952c-0.0001,0.0514-0.005,0.0946-0.0145,0.1352
								c-0.0574,0.2918-0.3076,0.3885-0.6041,0.2173l-10.2806-5.9355c-0.2989-0.1726-0.5477-0.5574-0.6033-0.9144
								c-0.0069-0.0501-0.0115-0.0988-0.0114-0.1501l0.0027-0.952L27.1354,15.8327z"/>
						</g>
						<g>
							<polygon fill="#B0AFB0" points="16.1458,8.8864 17.185,8.2825 27.6539,14.3267 26.6146,14.9306 							"/>
						</g>
						<g>
							<polygon fill="#FFFFFF" points="26.6337,8.1938 26.5956,14.9196 16.1453,8.8861 16.1649,2.1496 							"/>
						</g>
						<g>
							<path fill="#BFBFBF" d="M27.8556,15.4167l-0.0037,0.9511c0,0.0517-0.0037,0.0922-0.0147,0.1327
								c-0.0258,0.1255-0.0848,0.2138-0.1659,0.2617l-0.7195,0.4184c0.0848-0.0479,0.1438-0.1363,0.1659-0.2617
								c0.011-0.0405,0.0147-0.0812,0.0147-0.1327l0.0037-0.9547L27.8556,15.4167z"/>
						</g>
					</g>
				</g>
				<g>
					<path fill="#4F4D4D" d="M26.7696,7.6708c0.2142,0.1237,0.3878,0.4216,0.3871,0.6678l-0.0212,7.4941L15.6216,9.1852
						l0.0212-7.4941c0.0007-0.2462,0.1754-0.343,0.3896-0.2193L26.7696,7.6708z M26.6146,14.9306l0.0191-6.7368L16.1649,2.1496
						l-0.0191,6.7368L26.6146,14.9306"/>
				</g>
				<path fill="#3C3C3C" d="M27.0379,7.9514"/>
				<path fill="#3C3C3C" d="M28.0127,7.5032"/>
				<g>
					<path fill="#686868" d="M27.4869,7.2515L16.7523,1.0547c-0.1106-0.0626-0.2064-0.07-0.2765-0.0295l-0.7195,0.4184
						c0.07-0.0405,0.1659-0.0331,0.2765,0.0295l10.7383,6.1968c0.1039,0.0608,0.1973,0.1634,0.2668,0.2801l0.7274-0.404
						C27.6952,7.4228,27.597,7.3148,27.4869,7.2515z"/>
					<path fill="#3D3D3D" d="M27.7654,7.5459L27.038,7.95c0.0735,0.1233,0.1202,0.2621,0.1202,0.3872l-0.0221,7.4944l0.7195-0.4148
						l0.0184-7.4942C27.8758,7.8004,27.8339,7.666,27.7654,7.5459z"/>
				</g>
			</g>
			<g>
				<path fill="#929393" d="M20.928,12.6893c0.0422,0.0244,0.085,0.0577,0.1267,0.0996c0.1849,0.1881,0.2775,0.4806,0.2062,0.6541
					c-0.0551,0.1329-0.1919,0.1555-0.3366,0.0719c-0.0425-0.0245-0.0856-0.0581-0.1275-0.1008
					c-0.1849-0.1881-0.2775-0.4806-0.2062-0.6525C20.6457,12.6273,20.783,12.6056,20.928,12.6893z"/>
			</g>
		</g>
	</g>
	<path opacity="0.3" fill="#69C4EF" d="M37.7503,17.1272l-0.0159,5.5921c-0.0014,0.5026-0.3317,1.0045-0.9919,1.3882
		c-1.3281,0.7718-3.4902,0.7719-4.827,0c-0.6731-0.3886-1.009-0.8985-1.0076-1.4077l0.0159-5.5921
		c-0.0014,0.5091,0.3345,1.0191,1.0076,1.4077c1.3368,0.7718,3.4989,0.7718,4.827,0
		C37.4186,18.1318,37.7489,17.6298,37.7503,17.1272z"/>
</g>
</svg>
