<?xml version="1.0" encoding="utf-8"?>
<!-- Generator: Adobe Illustrator 18.0.0, SVG Export Plug-In . SVG Version: 6.00 Build 0)  -->
<!DOCTYPE svg PUBLIC "-//W3C//DTD SVG 1.1//EN" "http://www.w3.org/Graphics/SVG/1.1/DTD/svg11.dtd">
<svg version="1.1" id="Layer_1" xmlns="http://www.w3.org/2000/svg" xmlns:xlink="http://www.w3.org/1999/xlink" x="0px" y="0px"
	 viewBox="0 0 50 50" enable-background="new 0 0 50 50" xml:space="preserve">
<g>
	<g>
		<g>
			<g enable-background="new    ">
				<g>
					<path fill="#BFBFBF" d="M35.8558,36.3046l-0.0523,4.9241c-0.0047,1.6581-1.0943,3.3138-3.2721,4.5794
						c-4.3813,2.5461-11.5135,2.5462-15.9235,0.0001c-2.2203-1.2819-3.3286-2.9641-3.3239-4.6437l0.0523-4.9241
						c-0.0048,1.6795,1.1035,3.3617,3.3239,4.6436c4.41,2.5461,11.5422,2.546,15.9235-0.0001
						C34.7615,39.6184,35.8511,37.9627,35.8558,36.3046z"/>
				</g>
				<g>
					<path fill="#E8E8E8" d="M32.5318,31.6605c4.41,2.5461,4.4363,6.6755,0.0518,9.2235
						c-4.3813,2.5461-11.5135,2.5462-15.9235,0.0001c-4.4132-2.5479-4.4331-6.6774-0.0518-9.2235
						C20.9928,29.1126,28.1187,29.1125,32.5318,31.6605z"/>
				</g>
			</g>
		</g>
		<g>
			<path fill="#BFBFBF" d="M34.9367,33.7072c-3.1973,1.256-6.3028,3.2069-9.6064,4.0186
				c-3.3229,0.7631-7.7813,0.6157-11.2008,0.9346c3.1973-1.256,6.531-3.0105,9.8345-3.8223
				C27.2773,34.0656,31.5173,34.0166,34.9367,33.7072z"/>
			<path fill="#B0AFB0" d="M34.9367,33.7072c-3.1973,1.256-6.7232,2.8733-10.0268,3.685
				c-3.3229,0.7631-7.3609,0.9493-10.7804,1.2682L34.9367,33.7072z"/>
		</g>
	</g>
	<g>
		<g>
			<g enable-background="new    ">
				<g>
					<path fill="#EA2E91" d="M24.0949,21.66l0.9096,1.1667c0.5407,0.6935,0.6601,1.5564,0.2654,2.5467
						c-1.2817,3.2155-7.5011,6.5627-13.8856,7.4719c-4.4185,0.6293-7.7615-0.0736-8.9766-1.6319l-0.9096-1.1667
						c1.215,1.5583,4.558,2.2612,8.9766,1.6319c6.3845-0.9092,12.6039-4.2564,13.8856-7.4719
						C24.755,23.2165,24.6356,22.3536,24.0949,21.66z"/>
				</g>
				<g>
					<path fill="#E75FA2" d="M15.1187,20.0278c6.3845-0.9092,10.5233,0.9634,9.2416,4.1789
						c-1.2817,3.2155-7.5011,6.5627-13.8856,7.4719c-6.3846,0.9092-10.5235-0.9627-9.2418-4.1783S8.7342,20.937,15.1187,20.0278z"/>
				</g>
			</g>
		</g>
		<path fill="#E679B0" d="M7.1847,23.5831c1.9742-1.0523,4.22-1.4524,6.4236-1.8384c-2.401,0.6904-4.6791,1.8056-6.6971,3.2784
			c-1.7634,1.287-2.9648,2.5883-3.2483,4.745C2.1045,28.0117,5.0617,24.7147,7.1847,23.5831z"/>
	</g>
	<g>
		<path fill="#E66C24" d="M49,25.0043c0,4.1875-4.2237,7.5834-9.4435,7.5834c-3.2998,0-6.2157-1.3675-7.9076-3.444
			c-0.9719-1.1876-1.536-2.6155-1.536-4.1394c0-4.1881,4.2358-7.5834,9.4435-7.5834c2.3999,0,4.5838,0.7195,6.2517,1.9077
			C47.7641,20.7084,49,22.7362,49,25.0043z"/>
		<path fill="#F2961F" d="M47.3081,23.4323c0,4.1881-4.2238,7.5834-9.4435,7.5834c-2.3879,0-4.5598-0.7078-6.2157-1.872
			c-0.9719-1.1876-1.536-2.6155-1.536-4.1394c0-4.1881,4.2358-7.5834,9.4435-7.5834c2.3999,0,4.5838,0.7195,6.2517,1.9077
			C46.7561,20.5045,47.3081,21.9207,47.3081,23.4323z"/>
		<path fill="#F9A62B" d="M40.7697,18.6443c2.4211,0.3885,4.7305,2.0019,5.4829,4.3357c-1.7041-1.6725-4.0191-2.6479-6.3859-2.9638
			c-2.3966-0.3351-4.7327,0.0688-7.0565,0.6312C35.0475,19.0581,38.0358,18.2056,40.7697,18.6443z"/>
	</g>
	<g>
		<g>
			<path fill="#E02426" d="M13.4731,2.9619l7.4794,4.2788l-5.1118,8.9354l-7.4794-4.2788
				c-2.4668-1.4112-3.3219-4.5525-1.9107-7.0192C7.8479,2.4356,10.9828,1.5373,13.4731,2.9619z"/>
			<g>
				<path fill="#EE4541" d="M18.4252,15.9041c-2.012,1.1723-3.6558,0.2442-3.6716-2.073s1.6025-5.1462,3.6145-6.3184
					s3.6558-0.244,3.6716,2.0732C22.0555,11.9031,20.4372,14.7319,18.4252,15.9041z"/>
			</g>
		</g>
		<g opacity="0.5">
			<path fill="#E8E8E8" d="M23.8342,20.748l-7.9929-4.5726c-0.6691-0.3753-1.0809-1.1877-1.086-2.3444
				c-0.0158-2.3166,1.602-5.1445,3.6134-6.3164c1.003-0.5875,1.9207-0.6468,2.5843-0.2747
				c0.0058,0.0033,0.0058,0.0033,0.0116,0.0066l7.9813,4.5659c2.4668,1.4112,3.3219,4.5525,1.9107,7.0192
				C29.4594,21.2743,26.3246,22.1727,23.8342,20.748z"/>
		</g>
	</g>
</g>
</svg>
