<?xml version="1.0" encoding="utf-8"?>
<!-- Generator: Adobe Illustrator 18.0.0, SVG Export Plug-In . SVG Version: 6.00 Build 0)  -->
<!DOCTYPE svg PUBLIC "-//W3C//DTD SVG 1.1//EN" "http://www.w3.org/Graphics/SVG/1.1/DTD/svg11.dtd">
<svg version="1.1" id="Layer_1" xmlns="http://www.w3.org/2000/svg" xmlns:xlink="http://www.w3.org/1999/xlink" x="0px" y="0px"
	 viewBox="0 0 50 50" enable-background="new 0 0 50 50" xml:space="preserve">
<g>
	<g>
		<g>
			<g enable-background="new    ">
				<g>
					<polygon fill="#D7D7D7" points="21.7702,27.1021 20.9703,26.6372 20.9615,23.5561 21.7615,24.021 					"/>
				</g>
				<g>
					<polygon fill="#E8E8E8" points="21.7615,24.021 20.9615,23.5561 21.3601,23.326 22.1601,23.7908 					"/>
				</g>
				<g>
					<polygon fill="#D7D7D7" points="22.1601,23.7908 21.3601,23.326 21.3575,22.4016 22.1575,22.8665 					"/>
				</g>
				<g>
					<polygon fill="#E8E8E8" points="21.7589,23.0967 20.9589,22.6318 21.3575,22.4016 22.1575,22.8665 					"/>
				</g>
				<g>
					<polygon fill="#D7D7D7" points="21.7589,23.0967 20.9589,22.6318 20.9131,6.4606 21.713,6.9255 					"/>
				</g>
				<g>
					<polygon fill="#E8E8E8" points="21.713,6.9255 20.9131,6.4606 21.3117,6.2304 22.1116,6.6953 					"/>
				</g>
				<g>
					<polygon fill="#E8E8E8" points="6.5144,32.8239 5.7144,32.359 6.1202,32.1247 6.9202,32.5896 					"/>
				</g>
				<g>
					<polygon fill="#D7D7D7" points="22.1116,6.6953 21.3117,6.2304 21.309,5.3061 22.109,5.771 					"/>
				</g>
				<g>
					<polygon fill="#E8E8E8" points="6.9176,31.6653 6.1176,31.2004 20.9589,22.6318 21.7589,23.0967 					"/>
				</g>
				<g>
					<polygon fill="#E8E8E8" points="21.7104,6.0011 20.9105,5.5362 21.309,5.3061 22.109,5.771 					"/>
				</g>
				<g>
					<polygon fill="#E8E8E8" points="6.5117,31.8996 5.7118,31.4347 6.1176,31.2004 6.9176,31.6653 					"/>
				</g>
				<g>
					<polygon fill="#D7D7D7" points="6.5144,32.8239 5.7144,32.359 5.7118,31.4347 6.5117,31.8996 					"/>
				</g>
				<g>
					<polygon fill="#BFBFBF" points="22.1575,22.8665 22.1601,23.7908 21.7615,24.021 6.9202,32.5896 6.5144,32.8239 
						6.5117,31.8996 6.9176,31.6653 21.7589,23.0967 					"/>
				</g>
				<g>
					<polygon fill="#D7D7D7" points="21.7104,6.0011 20.9105,5.5362 20.9015,2.3888 21.7015,2.8536 					"/>
				</g>
				<g>
					<polygon fill="#E8E8E8" points="6.4659,15.7284 5.6659,15.2635 6.0718,15.0292 6.8717,15.4941 					"/>
				</g>
				<g>
					<polygon fill="#E8E8E8" points="6.8691,14.5698 6.0691,14.1049 20.9105,5.5362 21.7104,6.0011 					"/>
				</g>
				<g>
					<polygon fill="#D7D7D7" points="6.4659,15.7284 5.6659,15.2635 5.6633,14.3392 6.4633,14.8041 					"/>
				</g>
				<g>
					<polygon fill="#BFBFBF" points="22.109,5.771 22.1116,6.6953 21.713,6.9255 6.8717,15.4941 6.4659,15.7284 6.4633,14.8041 
						6.8691,14.5698 21.7104,6.0011 					"/>
				</g>
				<g>
					<polygon fill="#E8E8E8" points="6.4633,14.8041 5.6633,14.3392 6.0691,14.1049 6.8691,14.5698 					"/>
				</g>
				<g>
					<polygon fill="#D7D7D7" points="6.1245,36.1351 5.3245,35.6702 5.2532,10.4975 6.0531,10.9624 					"/>
				</g>
				<g>
					<polygon fill="#E8E8E8" points="6.0531,10.9624 5.2532,10.4975 21.7033,1 22.5033,1.4649 					"/>
				</g>
				<g>
					<polygon fill="#BFBFBF" points="22.5033,1.4649 22.5746,26.6376 21.7702,27.1021 21.7615,24.021 22.1601,23.7908 
						22.1575,22.8665 21.7589,23.0967 21.713,6.9255 22.1116,6.6953 22.109,5.771 21.7104,6.0011 21.7015,2.8536 6.8602,11.4223 
						6.8691,14.5698 6.4633,14.8041 6.4659,15.7284 6.8717,15.4941 6.9176,31.6653 6.5117,31.8996 6.5144,32.8239 6.9202,32.5896 
						6.9289,35.6707 6.1245,36.1351 6.0531,10.9624 					"/>
				</g>
			</g>
		</g>
		<g>
			<g enable-background="new    ">
				<g>
					<polygon fill="#D7D7D7" points="6.1374,32.0829 6.14,33.0081 27.4829,45.5246 27.4802,44.5993 					"/>
				</g>
				<g>
					<polygon fill="#6F6F6F" points="27.4802,44.5993 27.4829,45.5246 43.1286,36.4915 43.126,35.5663 					"/>
				</g>
				<g>
					<path fill="#E8E8E8" d="M22.5805,22.6041L6.1374,32.0828l21.3428,12.5163l17.2608-9.9193L22.5805,22.6041z M8.0628,32.6586
						l14.4904-8.3664l20.1777,10.888L27.4813,43.944L8.0628,32.6586z"/>
					<polygon fill="#BFBFBF" points="7.2515,32.1694 8.0628,32.641 22.5532,24.2747 22.5532,23.3347 					"/>
					<polygon fill="#E8E8E8" points="22.5532,24.2923 8.0628,32.6586 27.4813,43.944 42.7309,35.1803 					"/>
					<polygon opacity="0.5" fill="#4BA0D8" points="42.7277,35.1769 27.4777,43.9469 11.5876,34.7072 8.9276,33.1569 
						8.0676,32.6569 22.5576,24.297 38.9876,33.1569 41.8577,34.7072 					"/>
					<polygon fill="#69C4EF" points="41.8577,34.7072 11.5876,34.7072 8.9276,33.1569 38.9876,33.1569 					"/>
				</g>
			</g>
		</g>
		<g>
			<g enable-background="new    ">
				<g>
					<polygon fill="#D7D7D7" points="6.0718,15.0292 6.0744,15.9544 27.4398,28.458 27.4372,27.5327 					"/>
				</g>
				<g>
					<polygon fill="#6F6F6F" points="27.4372,27.5327 27.4398,28.458 43.063,19.4379 43.0603,18.5126 					"/>
				</g>
				<g>
					<path fill="#E8E8E8" d="M22.5149,5.5505L6.0718,15.0292l21.3654,12.5033l17.2383-9.9063L22.5149,5.5505z M7.9972,15.605
						l14.4904-8.3664l20.1777,10.888l-15.2496,8.7637L7.9972,15.605z"/>
					<polygon fill="#E8E8E8" points="22.4876,7.2386 7.9972,15.605 27.4156,26.8904 42.6653,18.1267 					"/>
					<polygon opacity="0.5" fill="#4BA0D8" points="42.6677,18.1271 27.4177,26.8869 22.3476,23.9469 17.4276,21.0871 
						16.4476,20.5172 14.4777,19.3771 7.9976,15.6071 22.4876,7.237 23.0976,7.567 25.1077,8.6471 26.1077,9.1872 31.1276,11.8971 
											"/>
				</g>
			</g>
		</g>
		<g>
			<g enable-background="new    ">
				<g>
					<polygon fill="#D7D7D7" points="43.9424,39.9669 43.1424,39.502 43.1337,36.421 43.9337,36.8858 					"/>
				</g>
				<g>
					<polygon fill="#E8E8E8" points="43.9337,36.8858 43.1337,36.421 43.5323,36.1908 44.3323,36.6557 					"/>
				</g>
				<g>
					<polygon fill="#D7D7D7" points="44.3323,36.6557 43.5323,36.1908 43.5297,35.2665 44.3296,35.7314 					"/>
				</g>
				<g>
					<polygon fill="#E8E8E8" points="43.9311,35.9615 43.1311,35.4966 43.5297,35.2665 44.3296,35.7314 					"/>
				</g>
				<g>
					<polygon fill="#D7D7D7" points="43.9311,35.9615 43.1311,35.4966 43.0852,19.3254 43.8852,19.7903 					"/>
				</g>
				<g>
					<polygon fill="#E8E8E8" points="43.8852,19.7903 43.0852,19.3254 43.4838,19.0953 44.2838,19.5602 					"/>
				</g>
				<g>
					<polygon fill="#E8E8E8" points="28.6865,45.6888 27.8866,45.2239 28.2924,44.9896 29.0924,45.4545 					"/>
				</g>
				<g>
					<polygon fill="#D7D7D7" points="44.2838,19.5602 43.4838,19.0953 43.4812,18.171 44.2812,18.6359 					"/>
				</g>
				<g>
					<polygon fill="#E8E8E8" points="29.0897,44.5302 28.2898,44.0653 43.1311,35.4966 43.9311,35.9615 					"/>
				</g>
				<g>
					<polygon fill="#E8E8E8" points="43.8826,18.866 43.0826,18.4011 43.4812,18.171 44.2812,18.6359 					"/>
				</g>
				<g>
					<polygon fill="#E8E8E8" points="28.6839,44.7645 27.884,44.2996 28.2898,44.0653 29.0897,44.5302 					"/>
				</g>
				<g>
					<polygon fill="#D7D7D7" points="28.6865,45.6888 27.8866,45.2239 27.884,44.2996 28.6839,44.7645 					"/>
				</g>
				<g>
					<polygon fill="#BFBFBF" points="44.3296,35.7314 44.3323,36.6557 43.9337,36.8858 29.0924,45.4545 28.6865,45.6888 
						28.6839,44.7645 29.0897,44.5302 43.9311,35.9615 					"/>
				</g>
				<g>
					<polygon fill="#E8E8E8" points="28.6381,28.5933 27.8381,28.1284 28.2439,27.8941 29.0439,28.359 					"/>
				</g>
				<g>
					<polygon fill="#E8E8E8" points="29.0413,27.4346 28.2413,26.9698 43.0826,18.4011 43.8826,18.866 					"/>
				</g>
				<g>
					<polygon fill="#D7D7D7" points="28.6381,28.5933 27.8381,28.1284 27.8355,27.2041 28.6355,27.6689 					"/>
				</g>
				<g>
					<polygon fill="#BFBFBF" points="44.2812,18.6359 44.2838,19.5602 43.8852,19.7903 29.0439,28.359 28.6381,28.5933 
						28.6355,27.6689 29.0413,27.4346 43.8826,18.866 					"/>
				</g>
				<g>
					<polygon fill="#E8E8E8" points="28.6355,27.6689 27.8355,27.2041 28.2413,26.9698 29.0413,27.4346 					"/>
				</g>
				<g>
					<polygon fill="#D7D7D7" points="28.2967,49 27.4967,48.5351 27.4254,23.3624 28.2253,23.8272 					"/>
				</g>
			</g>
		</g>
		<g>
			<polygon fill="#BFBFBF" points="7.1858,15.1334 7.9972,15.605 22.4876,7.2386 22.4876,6.2987 			"/>
			<polygon fill="#D7D7D7" points="22.4876,6.2987 22.4876,7.2386 42.6653,18.1267 43.5088,17.6417 			"/>
			<g>
				<polygon fill="#D7D7D7" points="43.8826,18.866 43.0826,18.4011 43.0737,15.2536 43.8737,15.7185 				"/>
			</g>
		</g>
		<g>
			<polygon fill="#BFBFBF" points="44.6754,14.3298 44.7468,39.5025 43.9424,39.9669 43.9337,36.8858 44.3323,36.6557 
				44.3296,35.7314 43.9311,35.9615 43.8852,19.7903 44.2838,19.5602 44.2812,18.6359 43.8826,18.866 43.8737,15.7185 
				29.0323,24.2871 29.0413,27.4346 28.6355,27.6689 28.6381,28.5933 29.0439,28.359 29.0897,44.5302 28.6839,44.7645 
				28.6865,45.6888 29.0924,45.4545 29.1011,48.5356 28.2967,49 28.2253,23.8272 			"/>
		</g>
		<g>
			<polygon fill="#E8E8E8" points="28.2253,23.8272 27.4254,23.3624 43.8755,13.8649 44.6754,14.3298 			"/>
		</g>
	</g>
	<g>
		<polygon opacity="0.5" fill="#4BA0D8" points="25.1077,8.6471 16.4476,20.5172 14.4777,19.3771 23.0976,7.567 		"/>
		<polygon opacity="0.5" fill="#4BA0D8" points="31.1276,11.8971 22.3476,23.9469 17.4276,21.0871 26.1077,9.1872 		"/>
	</g>
</g>
</svg>
