<?xml version="1.0" encoding="utf-8"?>
<!-- Generator: Adobe Illustrator 18.0.0, SVG Export Plug-In . SVG Version: 6.00 Build 0)  -->
<!DOCTYPE svg PUBLIC "-//W3C//DTD SVG 1.1//EN" "http://www.w3.org/Graphics/SVG/1.1/DTD/svg11.dtd">
<svg version="1.1" id="Layer_1" xmlns="http://www.w3.org/2000/svg" xmlns:xlink="http://www.w3.org/1999/xlink" x="0px" y="0px"
	 viewBox="0 0 50 50" enable-background="new 0 0 50 50" xml:space="preserve">
<g>
	<g>
		<g>
			<g enable-background="new    ">
				<g>
					<path fill="#2174BB" d="M46.9335,16.064c-0.0016,0.807-0.2869,1.3745-0.7456,1.6425l-4.3719,2.5366
						c0.4587-0.268,0.744-0.8355,0.7456-1.6426c0.0047-1.6252-1.1365-3.6019-2.5505-4.4184
						c-0.7109-0.4099-1.3557-0.4493-1.8207-0.1781l4.3719-2.5366c0.465-0.2695,1.1097-0.2318,1.8207,0.1781
						C45.797,12.462,46.9382,14.4403,46.9335,16.064z"/>
				</g>
				<g>
					<path fill="#E8E8E8" d="M40.0113,14.1821c1.414,0.8164,2.5556,2.7937,2.551,4.4186c-0.0046,1.6237-1.1537,2.2797-2.5677,1.4633
						c-1.413-0.8158-2.5556-2.7949-2.551-4.4186C37.4482,14.0206,38.5983,13.3663,40.0113,14.1821z"/>
				</g>
			</g>
		</g>
		<g>
			<g enable-background="new    ">
				<g>
					<path fill="#E8E8E8" d="M43.4964,19.7121c-0.0023,1.1829-0.4205,2.0147-1.0929,2.4076l-6.4083,3.7181
						c0.6724-0.3928,1.0906-1.2247,1.0929-2.4077c0.0069-2.3822-1.6659-5.2796-3.7385-6.4764
						c-1.0421-0.6008-1.9871-0.6585-2.6687-0.2611l6.4083-3.7181c0.6816-0.3951,1.6266-0.3397,2.6687,0.2611
						C41.8304,14.4325,43.5033,17.3322,43.4964,19.7121z"/>
				</g>
				<g>
					<path fill="#E8E8E8" d="M33.3499,16.9537c2.0727,1.1967,3.746,4.095,3.7392,6.4767c-0.0067,2.3799-1.691,3.3415-3.7637,2.1448
						c-2.0712-1.1958-3.746-4.0967-3.7392-6.4767C29.593,16.7169,31.2787,15.7579,33.3499,16.9537z"/>
				</g>
			</g>
		</g>
		<g>
			<g enable-background="new    ">
				<g>
					<path fill="#BFBFBF" d="M38.474,23.8897c-0.0032,1.6523-0.5874,2.8142-1.5265,3.3629l-1.032,0.5998
						c0.9392-0.5487,1.5233-1.7106,1.5265-3.363c0.0097-3.3274-2.3269-7.3745-5.2219-9.0462
						c-1.4555-0.8391-2.7755-0.9198-3.7276-0.3647l1.032-0.5998c0.9521-0.5519,2.272-0.4745,3.7276,0.3647
						C36.1471,16.5152,38.4837,20.5654,38.474,23.8897z"/>
				</g>
				<g>
					<path fill="#D7D7D7" d="M32.2206,15.4432c2.8951,1.6715,5.2323,5.7198,5.2229,9.0465
						c-0.0094,3.3242-2.362,4.6674-5.2571,2.9959c-2.893-1.6703-5.2323-5.7223-5.2229-9.0465
						C26.973,15.1124,29.3276,13.7729,32.2206,15.4432z"/>
				</g>
			</g>
		</g>
		<g>
			<g enable-background="new    ">
				<g>
					<path fill="#E8E8E8" d="M34.7268,23.7009c-0.0021,1.0528-0.3743,1.7932-0.9727,2.1428L11.9743,38.4806
						c0.5984-0.3496,0.9706-1.09,0.9727-2.1429c0.0062-2.1202-1.4827-4.699-3.3274-5.7642
						c-0.9275-0.5347-1.7686-0.5861-2.3752-0.2324l21.7798-12.6368c0.6066-0.3516,1.4477-0.3023,2.3752,0.2324
						C33.2441,19.0019,34.733,21.5827,34.7268,23.7009z"/>
				</g>
				<g>
					<path fill="#D7D7D7" d="M9.62,30.5734c1.8447,1.0651,3.334,3.6447,3.328,5.7644c-0.006,2.1182-1.5051,2.974-3.3498,1.909
						c-1.8434-1.0643-3.334-3.6462-3.328-5.7644C6.2762,30.3627,7.7765,29.5091,9.62,30.5734z"/>
				</g>
			</g>
		</g>
	</g>
	<g>
		<g enable-background="new    ">
			<g>
				<path fill="#E8E8E8" d="M10.7222,35.5232c-0.001,0.5123-0.1821,0.8726-0.4733,1.0427l-3.2219,1.8694
					c0.2912-0.1701,0.4723-0.5304,0.4733-1.0427c0.003-1.0317-0.7215-2.2865-1.6191-2.8049
					c-0.4513-0.2602-0.8606-0.2852-1.1558-0.1131l3.2219-1.8694c0.2952-0.1711,0.7045-0.1471,1.1558,0.1131
					C10.0007,33.2366,10.7252,34.4924,10.7222,35.5232z"/>
			</g>
			<g>
				<path fill="#D7D7D7" d="M5.8813,34.5877c0.8976,0.5183,1.6223,1.7735,1.6194,2.805c-0.0029,1.0307-0.7324,1.4472-1.63,0.9289
					c-0.897-0.5179-1.6223-1.7742-1.6194-2.805C4.2542,34.4851,4.9843,34.0698,5.8813,34.5877z"/>
			</g>
		</g>
	</g>
	<g>
		<g enable-background="new    ">
			<g>
				<path fill="#E8E8E8" d="M6.5761,37.0662c-0.0005,0.2779-0.0988,0.4733-0.2567,0.5655l-1.7475,1.0139
					c0.1579-0.0923,0.2562-0.2877,0.2567-0.5656c0.0016-0.5596-0.3913-1.2402-0.8781-1.5213
					c-0.2448-0.1411-0.4668-0.1547-0.6269-0.0613l1.7475-1.0139c0.1601-0.0928,0.3821-0.0798,0.6269,0.0613
					C6.1848,35.8261,6.5777,36.5072,6.5761,37.0662z"/>
			</g>
			<g>
				<path fill="#D7D7D7" d="M3.9506,36.5589c0.4869,0.2811,0.8799,0.9619,0.8783,1.5213c-0.0016,0.559-0.3972,0.7849-0.8841,0.5038
					c-0.4865-0.2809-0.8799-0.9623-0.8783-1.5213C3.0681,36.5032,3.464,36.278,3.9506,36.5589z"/>
			</g>
		</g>
	</g>
</g>
</svg>
