<?xml version="1.0" encoding="utf-8"?>
<!-- Generator: Adobe Illustrator 18.0.0, SVG Export Plug-In . SVG Version: 6.00 Build 0)  -->
<!DOCTYPE svg PUBLIC "-//W3C//DTD SVG 1.1//EN" "http://www.w3.org/Graphics/SVG/1.1/DTD/svg11.dtd">
<svg version="1.1" id="Layer_1" xmlns="http://www.w3.org/2000/svg" xmlns:xlink="http://www.w3.org/1999/xlink" x="0px" y="0px"
	 viewBox="0 0 50 50" enable-background="new 0 0 50 50" xml:space="preserve">
<g>
	<g>
		<g>
			<g enable-background="new    ">
				<g>
					<polygon fill="#FFFFFF" points="32.4806,14.756 34.9864,13.2998 34.8983,44.3923 32.3924,45.8485 					"/>
				</g>
				<g>
					<polygon fill="#4F4D4D" points="15.0116,35.8137 17.5175,34.3575 34.8983,44.3923 32.3924,45.8485 					"/>
				</g>
				<g>
					<polygon fill="#4F4D4D" points="15.0998,4.7213 17.6056,3.265 17.5175,34.3575 15.0116,35.8137 					"/>
				</g>
				<g>
					<polygon fill="#4F4D4D" points="21.9647,8.0317 24.4705,6.5755 28.1328,8.6899 25.627,10.1462 					"/>
				</g>
				<g>
					<path fill="#4F4D4D" d="M28.4382,8.7222l-2.5059,1.4563c-0.0772,0.0449-0.1854,0.037-0.3054-0.0323l2.5058-1.4562
						C28.2527,8.7592,28.3609,8.7671,28.4382,8.7222z"/>
				</g>
				<g>
					<path fill="#4F4D4D" d="M25.6297,9.181c0.2346,0.1354,0.4231,0.4621,0.4224,0.7315c-0.0008,0.2698-0.1905,0.3691-0.4251,0.2337
						l-3.6623-2.1144c-0.2346-0.1354-0.4307-0.4575-0.4299-0.7273c0.0008-0.2694,0.1981-0.3732,0.4327-0.2378L25.6297,9.181z"/>
				</g>
				<g>
					<path fill="#686868" d="M28.4382,8.7221l-2.5059,1.4562c0.0738-0.0429,0.1194-0.1341,0.1197-0.2659
						c0.0008-0.2694-0.1878-0.596-0.4224-0.7315l2.5058-1.4562c0.2346,0.1354,0.4231,0.4621,0.4224,0.7315
						C28.5576,8.5881,28.512,8.6792,28.4382,8.7221z"/>
				</g>
				<g>
					<path fill="#686868" d="M21.6581,7.0366l2.5058-1.4562c0.0792-0.046,0.1894-0.0393,0.3093,0.0299l-2.5058,1.4562
						C21.8475,6.9973,21.7373,6.9906,21.6581,7.0366z"/>
				</g>
				<g>
					<polygon fill="#686868" points="21.9674,7.0666 24.4733,5.6103 28.1356,7.7247 25.6297,9.181 					"/>
				</g>
				<g>
					<path fill="#686868" d="M31.9199,12.0288c0.7794,0.45,1.4053,1.5343,1.4028,2.4301l-0.0951,33.5355
						c-0.0025,0.8953-0.6326,1.2634-1.412,0.8135l-16.2458-9.3795c-0.7718-0.4456-1.4053-1.5433-1.4028-2.4386l0.0951-33.5355
						c0.0025-0.8958,0.6402-1.2506,1.412-0.805L31.9199,12.0288z M32.3924,45.8485l0.0882-31.0925L15.0998,4.7213l-0.0881,31.0925
						L32.3924,45.8485 M21.9674,7.0666c-0.2346-0.1354-0.4319-0.0316-0.4327,0.2378c-0.0008,0.2698,0.1954,0.592,0.43,0.7274
						l3.6623,2.1144c0.2346,0.1354,0.4243,0.0361,0.4251-0.2337c0.0008-0.2693-0.1878-0.596-0.4224-0.7314L21.9674,7.0666"/>
				</g>
				<g>
					<polygon fill="#FFFFFF" points="32.4806,14.756 32.3924,45.8485 15.0117,35.8137 15.0998,4.7212 					"/>
				</g>
				<g>
					<path fill="#4F4D4D" d="M35.833,13.0043l-0.0948,33.5393c-0.0118,0.4386-0.1659,0.7587-0.4148,0.901l-2.5125,1.4571
						c0.2607-0.1418,0.4148-0.4618,0.4148-0.912l0.0948-33.5277c0-0.901-0.6163-1.9791-1.3985-2.4299L15.6737,2.6459
						c-0.391-0.2251-0.7466-0.2367-0.9955-0.0949l2.5006-1.4577c0.2607-0.1424,0.6163-0.1302,0.9956,0.0949l16.2482,9.3862
						C35.2049,11.0246,35.833,12.1033,35.833,13.0043z"/>
				</g>
			</g>
		</g>
		<g>
			<g>
				<path fill="#D7D7D7" d="M23.5048,12.5674l-0.0025,0.8789c0.0901-0.1538,0.2872-0.1368,0.4448-0.0458
					c0.285,0.1646,0.5049,0.4928,0.5037,0.908l-0.0027,0.9419l-0.28-0.1617l0.0024-0.8438
					c0.0008-0.2825-0.1013-0.4831-0.3062-0.6014c-0.184-0.1062-0.3624-0.0584-0.3632,0.2266l-0.0024,0.832l-0.28-0.1617
					l0.0061-2.1348L23.5048,12.5674z"/>
			</g>
			<g>
				<path fill="#EF5A5A" d="M26.0352,18.3167c1.9746,1.14,3.0008,4.5066,1.5739,5.3071c-0.1034,0.0591-4.0543,2.3189-3.8032,2.1753
					c-0.0584-0.1012-4.0309-6.9862-3.7819-6.5546c-1.3814-2.3802-0.4211-4.6415,1.5941-3.478
					c1.2771,0.7373,1.816,2.1711,2.205,2.7471C24.1787,18.399,24.7515,17.5756,26.0352,18.3167z"/>
			</g>
			<g>
				<polygon fill="#EBB41F" points="20.2955,24.8572 20.777,29.9503 21.9989,28.5136 22.699,28.9178 23.3185,29.9948 
					24.4625,28.2811 25.117,30.3138 27.3676,31.6132 27.998,30.059 29.0593,33.3564 30.1783,33.236 31.1789,33.8137 
					31.1782,34.0609 30.239,33.5187 28.9627,33.6544 28.0166,30.7104 27.5137,31.9452 24.9797,30.4822 24.4439,28.8167 
					23.3686,30.4285 22.6095,29.1138 22.1143,28.8278 20.6282,30.5641 20.1633,25.6416 19.046,27.591 18.606,25.9297 
					18.3102,26.5019 16.4079,25.4036 16.4086,25.1562 18.1743,26.1756 18.6283,25.29 19.0785,26.9806 				"/>
			</g>
			<g>
				<polygon fill="#D7D7D7" points="18.0231,9.5243 18.0174,11.5376 17.7202,11.366 17.7226,10.5419 16.8517,10.0391 
					16.8494,10.8632 16.5523,10.6917 16.558,8.6784 16.8551,8.85 16.8526,9.7212 17.7235,10.224 17.726,9.3528 				"/>
			</g>
			<g>
				<path fill="#D7D7D7" d="M19.7069,11.6638l-0.0006,0.2197l-1.0485-0.6053c0.0136,0.2464,0.2135,0.4967,0.4122,0.6114
					c0.1673,0.0966,0.2973,0.1128,0.383,0.0405l0.1599,0.2928c-0.1439,0.0898-0.332,0.0676-0.5608-0.0645
					c-0.3531-0.2039-0.6754-0.6738-0.6739-1.183c0.0014-0.4893,0.322-0.6042,0.675-0.4004
					C19.4019,10.7764,19.7082,11.2036,19.7069,11.6638z M18.6585,11.0272l0.765,0.4417c0.0008-0.2662-0.165-0.4962-0.3609-0.6093
					C18.8549,10.7397,18.6592,10.7738,18.6585,11.0272"/>
			</g>
			<g>
				<path fill="#D7D7D7" d="M21.0938,12.3232l-0.0028,0.989l-0.2561-0.1479l0.0006-0.2042
					c-0.1097,0.0861-0.2568,0.0797-0.4446-0.0287c-0.2574-0.1486-0.4776-0.4568-0.4767-0.7745
					c0.0004-0.149,0.0485-0.2353,0.1444-0.2546c0.0958-0.0193,0.2291,0.0184,0.393,0.113l0.3654,0.211l0.0002-0.059
					c0.0006-0.2001-0.0982-0.3593-0.2963-0.4737c-0.1229-0.071-0.2529-0.095-0.3863-0.0697l-0.1258-0.2731
					c0.1644-0.0546,0.349-0.0226,0.5539,0.0957C20.8922,11.6368,21.0949,11.9415,21.0938,12.3232z M20.8126,12.5773l0.0004-0.1294
					l-0.3142-0.1814c-0.4317-0.2492-0.3884,0.2279-0.0218,0.4395C20.6532,12.8078,20.812,12.7818,20.8126,12.5773"/>
			</g>
			<g>
				<polygon fill="#D7D7D7" points="21.7699,11.5617 21.7638,13.7006 21.4838,13.5389 21.4898,11.4 				"/>
			</g>
			<g>
				<path fill="#D7D7D7" d="M22.5243,12.1231l-0.0014,0.4788l0.3518,0.2031l-0.0007,0.2589l-0.3518-0.2031L22.52,13.6418
					c-0.0004,0.1465,0.0631,0.2723,0.1906,0.3459c0.0581,0.0335,0.1162,0.0357,0.171,0.0004l0.1155,0.2946
					c-0.0993,0.045-0.2088,0.0328-0.3283-0.0362c-0.232-0.1339-0.4332-0.4534-0.4322-0.7801l0.0022-0.7692l-0.1673-0.0966
					l0.0007-0.2589l0.1673,0.0966l0.0014-0.4788L22.5243,12.1231z"/>
			</g>
			<g>
				<path fill="#D7D7D7" d="M26.4007,14.3099c0.2732,0.1577,0.4983,0.4018,0.6821,0.7397l-0.1885,0.127
					c-0.1379-0.2261-0.2636-0.3998-0.4979-0.5351c-0.3345-0.1931-0.6292-0.0936-0.6304,0.3396
					c-0.0012,0.4259,0.278,0.8798,0.6025,1.0671c0.1757,0.1015,0.3134,0.1301,0.4925,0.0367l0.1906,0.3342
					c-0.1851,0.1328-0.4108,0.1204-0.6772-0.0334c-0.5221-0.3014-0.9175-0.9515-0.9157-1.5702
					C25.4602,14.229,25.8404,13.9865,26.4007,14.3099z"/>
			</g>
			<g>
				<path fill="#D7D7D7" d="M28.4541,17.5633l-0.2561-0.1479l0.0006-0.2042c-0.1097,0.0861-0.2602,0.0777-0.4446-0.0288
					c-0.2633-0.152-0.481-0.461-0.4801-0.7764c0.001-0.3356,0.2528-0.3059,0.5409-0.1396l0.362,0.209l0.0002-0.059
					c0.0006-0.2001-0.0982-0.3593-0.2928-0.4717c-0.123-0.071-0.2529-0.095-0.3864-0.0697l-0.1258-0.2731
					c0.1609-0.0566,0.3456-0.0246,0.5505,0.0937C28.7259,16.1595,28.3753,16.9289,28.4541,17.5633z M28.1757,16.8284l0.0004-0.1294
					l-0.3176-0.1834c-0.2015-0.1163-0.3042-0.101-0.3046,0.0442c-0.0005,0.1726,0.1343,0.3096,0.2828,0.3953
					C28.0125,17.0566,28.1751,17.0327,28.1757,16.8284"/>
			</g>
			<g>
				<path fill="#D7D7D7" d="M29.5617,16.6421l0.0025,0.3277c-0.1003-0.0367-0.2189-0.1321-0.3283-0.0324
					c-0.072,0.0606-0.1066,0.1822-0.107,0.3549l-0.0019,0.6594l-0.2835-0.1637l0.0044-1.5344l0.2835,0.1637l-0.0009,0.31
					c0.0447-0.0725,0.1064-0.1156,0.1851-0.129C29.3942,16.5808,29.4763,16.5966,29.5617,16.6421z"/>
			</g>
			<g>
				<path fill="#D7D7D7" d="M30.844,16.8007l0.28,0.1617l-0.0061,2.1389l-0.28-0.1617l0.0007-0.2317
					c-0.1029,0.1097-0.2569,0.1072-0.4549-0.0072c-0.3152-0.182-0.6276-0.6523-0.6261-1.1595
					c0.0014-0.4857,0.3108-0.6066,0.6545-0.4082c0.1776,0.1025,0.3208,0.2718,0.4296,0.5075L30.844,16.8007z M30.7298,18.4721
					c0.0754-0.0469,0.1167-0.1448,0.1171-0.29c0.0008-0.2742-0.1643-0.6099-0.3981-0.7449
					c-0.2142-0.1237-0.4104-0.0215-0.4113,0.2775c-0.0009,0.3069,0.1955,0.6121,0.4118,0.737
					C30.5586,18.5149,30.651,18.5209,30.7298,18.4721"/>
			</g>
		</g>
		<g>
			<g>
				<polygon fill="#D7D7D7" points="22.7634,31.5373 22.7585,33.2602 22.5195,33.1222 22.5236,31.6584 22.2163,31.481 
					22.217,31.2219 				"/>
			</g>
			<g>
				<path fill="#D7D7D7" d="M23.6071,31.9814c0.3729,0.2153,0.7473,0.8629,0.1848,1.1836l-0.3529,0.2089l0.683,0.3943
					l-0.0008,0.2787l-1.028-0.5935l0.0007-0.2472l0.4557-0.2598c0.1458-0.0885,0.2844-0.1607,0.2848-0.3228
					c0.0004-0.1358-0.0965-0.3033-0.2418-0.3872c-0.1229-0.071-0.2256-0.0597-0.308,0.0382l-0.2045-0.2516
					C23.2384,31.8376,23.402,31.8629,23.6071,31.9814z"/>
			</g>
			<g>
				<path fill="#D7D7D7" d="M25.2838,32.9925l-0.0006,0.2278l-0.3667,0.2521c0.2952,0.1866,0.4399,0.4929,0.4392,0.7449
					c-0.0017,0.6007-0.6301,0.3435-1.0359-0.2129l0.1065-0.1743c0.1226,0.173,0.2523,0.2949,0.3855,0.3718
					c0.1598,0.0923,0.3008,0.089,0.3013-0.0971c0.0006-0.2116-0.1699-0.3889-0.3544-0.4955
					c-0.0581-0.0335-0.1093-0.0554-0.1606-0.0652l0.0006-0.2238l0.3497-0.262l-0.5464-0.3155l0.0007-0.2591L25.2838,32.9925z"/>
			</g>
			<g>
				<polygon fill="#D7D7D7" points="24.1211,35.285 24.1162,37.0117 23.8771,36.8737 23.8813,35.4061 23.5739,35.2286 
					23.5747,34.9695 				"/>
			</g>
			<g>
				<path fill="#D7D7D7" d="M23.1729,35.516c0.1904,0.2509,0.3382,0.7392,0.0591,0.8556c-0.1027,0.039-0.2395,0.011-0.4068-0.0856
					c-0.3643-0.2103-0.5594-0.5739-0.5586-0.8452c0.0005-0.1923,0.0727-0.3001,0.2164-0.3231
					c-0.3292-0.5085-0.1234-0.881,0.3472-0.6093c0.2622,0.1514,0.505,0.4573,0.5041,0.7508
					C23.334,35.3927,23.279,35.4751,23.1729,35.516z M23.0379,36.0827c0.1613-0.0243,0.1457-0.4072-0.2103-0.6128
					c-0.0786-0.0454-0.1504-0.0633-0.2154-0.0497c-0.0616,0.0116-0.0926,0.0645-0.0928,0.1548
					c-0.0005,0.1903,0.1699,0.3811,0.3066,0.46C22.9011,36.0783,22.9694,36.0941,23.0379,36.0827 M22.6381,34.6963
					c-0.0513,0.0213-0.0788,0.0645-0.0791,0.1391c-0.0004,0.1568,0.1296,0.3341,0.2691,0.4147
					c0.1378,0.0796,0.2701,0.0548,0.2705-0.1031c0.0005-0.1585-0.1337-0.3368-0.2691-0.4149
					C22.7579,34.6905,22.6929,34.6805,22.6381,34.6963"/>
			</g>
			<g>
				<path fill="#D7D7D7" d="M23.358,38.9914c-0.0021,0.7315-1.0953,0.2495-1.092-0.9135c0.0019-0.6751,0.2767-0.7679,0.5969-0.5831
					c0.1639,0.0946,0.3106,0.2382,0.4435,0.429l-0.1304,0.141c-0.0724-0.1164-0.1996-0.2451-0.2763-0.2894
					c-0.2815-0.1625-0.3871,0.0252-0.3944,0.3502c0.0377-0.0253,0.089-0.039,0.1575-0.0387
					c0.065-0.0019,0.1402,0.0218,0.2222,0.0692C23.1425,38.3049,23.359,38.6361,23.358,38.9914z M23.05,39.0416
					c0.141-0.0603,0.0827-0.3045,0.0081-0.4396c-0.244-0.4221-0.7161-0.3092-0.4281,0.1891
					C22.7097,38.9292,22.9056,39.1032,23.05,39.0416"/>
			</g>
			<g>
				<polygon fill="#D7D7D7" points="24.625,38.5436 24.6243,38.8027 23.9849,39.8997 23.7048,39.738 24.3305,38.637 
					23.7978,38.3294 23.7971,38.561 23.5683,38.4289 23.5697,37.9343 				"/>
			</g>
		</g>
	</g>
	<g>
		<g enable-background="new    ">
			<g>
				<polygon fill="#787677" points="34.5449,17.9642 34.0805,17.6918 34.0921,21.8237 34.5565,22.096 				"/>
			</g>
			<g>
				<polygon fill="#929393" points="35.3568,17.4911 34.8924,17.2188 34.0805,17.6918 34.5449,17.9642 				"/>
			</g>
			<g>
				<polygon fill="#686868" points="34.5449,17.9642 34.5565,22.096 35.3685,21.623 35.3568,17.4911 				"/>
			</g>
		</g>
	</g>
</g>
</svg>
