<?xml version="1.0" encoding="utf-8"?>
<!-- Generator: Adobe Illustrator 18.0.0, SVG Export Plug-In . SVG Version: 6.00 Build 0)  -->
<!DOCTYPE svg PUBLIC "-//W3C//DTD SVG 1.1//EN" "http://www.w3.org/Graphics/SVG/1.1/DTD/svg11.dtd">
<svg version="1.1" id="Layer_1" xmlns="http://www.w3.org/2000/svg" xmlns:xlink="http://www.w3.org/1999/xlink" x="0px" y="0px"
	 viewBox="0 0 50 50" enable-background="new 0 0 50 50" xml:space="preserve">
<g>
	<g>
		<g enable-background="new    ">
			<g>
				<path fill="#D7D7D7" d="M48.9965,27.6513v0.8483c0,0.1989-0.1257,0.3876-0.377,0.5343L31.2987,39.0975
					c-0.5131,0.293-1.3405,0.293-1.8536,0L1.389,22.8979c-0.2618-0.1462-0.3875-0.3457-0.3875-0.5446V21.505
					c0,0.1887,0.1257,0.3876,0.3875,0.5343l28.0666,16.2098c0.5026,0.2935,1.3404,0.2935,1.8431,0l17.3208-10.0635
					C48.8708,28.0389,48.9965,27.84,48.9965,27.6513z"/>
			</g>
			<g>
				<path fill="#E8E8E8" d="M48.6146,27.1079c0.5081,0.2934,0.5174,0.7759,0.006,1.0731L31.3035,38.2447
					c-0.5114,0.2972-1.3445,0.2934-1.8527,0L1.3879,22.0426c-0.5148-0.2972-0.5174-0.776-0.0061-1.0731L18.699,10.9058
					c0.5114-0.2972,1.3379-0.2972,1.8527,0L48.6146,27.1079z"/>
			</g>
		</g>
		<path fill="#D7D7D7" d="M37.2375,31.9947c-0.1769,0-0.3487-0.04-0.4694-0.1098L13.3204,18.3473
			c-0.089-0.0513-0.1207-0.1012-0.1217-0.1223c0-0.0206,0.0317-0.0692,0.1186-0.1194c0.1186-0.0695,0.2894-0.1093,0.4663-0.1093
			c0.1779,0,0.3498,0.04,0.4704,0.1097l23.4476,13.5376c0.089,0.0513,0.1207,0.1012,0.1217,0.1225
			c0,0.0205-0.0317,0.0692-0.1176,0.1193C37.5852,31.9548,37.4154,31.9947,37.2375,31.9947z"/>
	</g>
	<g>
		<g>
			<g>
				<path fill="#E02426" d="M10.7085,17.8426l-2.1607,1.2361l1.4767,2.5813l2.1607-1.2361c0.7126-0.4077,0.9596-1.3151,0.552-2.0277
					C12.3335,17.6906,11.4279,17.4311,10.7085,17.8426z"/>
				<g>
					<path fill="#EE4541" d="M9.2779,21.5814c0.5812,0.3386,1.0561,0.0705,1.0606-0.5989c0.0046-0.6694-0.4629-1.4866-1.0442-1.8253
						c-0.5812-0.3386-1.0561-0.0705-1.0606,0.5989C8.2292,20.4256,8.6967,21.2427,9.2779,21.5814z"/>
				</g>
			</g>
			<g opacity="0.5">
				<path fill="#69C4EF" d="M7.7154,22.9807l2.309-1.3209c0.1933-0.1084,0.3122-0.3431,0.3137-0.6773
					c0.0046-0.6692-0.4628-1.4862-1.0438-1.8247c-0.2897-0.1697-0.5549-0.1868-0.7466-0.0793
					c-0.0017,0.001-0.0017,0.001-0.0033,0.0019l-2.3056,1.319c-0.7126,0.4077-0.9596,1.3151-0.552,2.0277
					C6.0904,23.1327,6.9959,23.3922,7.7154,22.9807z"/>
			</g>
		</g>
		<g>
			<g>
				<path fill="#E02426" d="M16.1209,20.9295l-2.1607,1.2361l1.4767,2.5813l2.1607-1.2361c0.7126-0.4077,0.9596-1.3151,0.552-2.0277
					C17.7459,20.7775,16.8403,20.518,16.1209,20.9295z"/>
				<g>
					<path fill="#EE4541" d="M14.6903,24.6683c0.5812,0.3386,1.0561,0.0705,1.0606-0.5989
						c0.0046-0.6694-0.4629-1.4866-1.0442-1.8253c-0.5812-0.3386-1.0561-0.0705-1.0606,0.5989S14.1091,24.3296,14.6903,24.6683z"/>
				</g>
			</g>
			<g opacity="0.5">
				<path fill="#69C4EF" d="M13.1278,26.0675l2.309-1.3209c0.1933-0.1084,0.3122-0.3431,0.3137-0.6773
					c0.0046-0.6692-0.4628-1.4862-1.0438-1.8247c-0.2897-0.1697-0.5549-0.1868-0.7466-0.0793
					c-0.0017,0.001-0.0017,0.001-0.0033,0.0019l-2.3056,1.319c-0.7126,0.4077-0.9596,1.3151-0.552,2.0277
					C11.5028,26.2196,12.4083,26.4791,13.1278,26.0675z"/>
			</g>
		</g>
		<g>
			<g>
				<path fill="#E02426" d="M21.5333,24.0164l-2.1607,1.2361l1.4767,2.5813l2.1607-1.2361c0.7126-0.4077,0.9596-1.3151,0.552-2.0277
					C23.1583,23.8644,22.2527,23.6048,21.5333,24.0164z"/>
				<g>
					<path fill="#EE4541" d="M20.1027,27.7552c0.5812,0.3386,1.0561,0.0705,1.0606-0.5989s-0.4629-1.4866-1.0442-1.8253
						c-0.5812-0.3386-1.0561-0.0705-1.0606,0.5989C19.054,26.5993,19.5215,27.4165,20.1027,27.7552z"/>
				</g>
			</g>
			<g opacity="0.5">
				<path fill="#69C4EF" d="M18.5402,29.1544l2.309-1.3209c0.1933-0.1084,0.3122-0.3431,0.3137-0.6773
					c0.0046-0.6692-0.4628-1.4862-1.0438-1.8247c-0.2897-0.1697-0.5549-0.1868-0.7466-0.0793
					c-0.0017,0.001-0.0017,0.001-0.0033,0.0019l-2.3056,1.319c-0.7126,0.4077-0.9596,1.3151-0.552,2.0277
					C16.9152,29.3065,17.8207,29.566,18.5402,29.1544z"/>
			</g>
		</g>
		<g>
			<g>
				<path fill="#E02426" d="M26.9456,27.1033l-2.1607,1.2361l1.4767,2.5813l2.1607-1.2361c0.7126-0.4077,0.9596-1.3151,0.552-2.0277
					C28.5706,26.9513,27.6651,26.6917,26.9456,27.1033z"/>
				<g>
					<path fill="#EE4541" d="M25.5151,30.842c0.5812,0.3386,1.0561,0.0705,1.0606-0.5989c0.0046-0.6694-0.4629-1.4866-1.0442-1.8253
						c-0.5812-0.3386-1.0561-0.0705-1.0606,0.5989S24.9339,30.5034,25.5151,30.842z"/>
				</g>
			</g>
			<g opacity="0.5">
				<path fill="#69C4EF" d="M23.9525,32.2413l2.309-1.3209c0.1933-0.1084,0.3122-0.3431,0.3137-0.6773
					c0.0046-0.6692-0.4628-1.4862-1.0438-1.8247c-0.2897-0.1697-0.5549-0.1868-0.7466-0.0793
					c-0.0017,0.001-0.0017,0.001-0.0033,0.0019l-2.3056,1.319c-0.7126,0.4077-0.9596,1.3151-0.552,2.0277
					C22.3275,32.3934,23.2331,32.6529,23.9525,32.2413z"/>
			</g>
		</g>
		<g>
			<g>
				<path fill="#E02426" d="M32.358,30.1902l-2.1607,1.2361l1.4767,2.5813l2.1607-1.2361c0.7126-0.4077,0.9596-1.3151,0.552-2.0277
					C33.983,30.0381,33.0774,29.7786,32.358,30.1902z"/>
				<g>
					<path fill="#EE4541" d="M30.9275,33.9289c0.5812,0.3386,1.0561,0.0705,1.0606-0.5989
						c0.0046-0.6694-0.4629-1.4866-1.0442-1.8253c-0.5812-0.3386-1.0561-0.0705-1.0606,0.5989
						C29.8788,32.7731,30.3463,33.5903,30.9275,33.9289z"/>
				</g>
			</g>
			<g opacity="0.5">
				<path fill="#69C4EF" d="M29.3649,35.3282l2.309-1.3209c0.1933-0.1084,0.3122-0.3431,0.3137-0.6773
					c0.0046-0.6692-0.4628-1.4861-1.0438-1.8247c-0.2897-0.1697-0.5549-0.1868-0.7466-0.0793
					c-0.0017,0.001-0.0017,0.001-0.0033,0.0019l-2.3056,1.319c-0.7126,0.4077-0.9596,1.3151-0.552,2.0277
					C27.7399,35.4802,28.6455,35.7398,29.3649,35.3282z"/>
			</g>
		</g>
	</g>
	<g>
		<g>
			<g>
				<path fill="#E02426" d="M20.2355,12.3513l-2.1607,1.2361l1.4767,2.5813l2.1607-1.2361c0.7126-0.4077,0.9596-1.3151,0.552-2.0277
					C21.8605,12.1992,20.9549,11.9397,20.2355,12.3513z"/>
				<g>
					<path fill="#EE4541" d="M18.8049,16.09c0.5812,0.3386,1.0561,0.0705,1.0606-0.5989c0.0046-0.6694-0.4629-1.4866-1.0442-1.8253
						s-1.0561-0.0705-1.0606,0.5989C17.7562,14.9342,18.2237,15.7514,18.8049,16.09z"/>
				</g>
			</g>
			<g opacity="0.5">
				<path fill="#69C4EF" d="M17.2424,17.4893l2.309-1.3209c0.1933-0.1084,0.3122-0.3431,0.3137-0.6773
					c0.0046-0.6692-0.4628-1.4862-1.0438-1.8247c-0.2897-0.1697-0.5549-0.1868-0.7466-0.0793
					c-0.0017,0.001-0.0017,0.001-0.0033,0.0019l-2.3056,1.319c-0.7126,0.4077-0.9596,1.3151-0.552,2.0277
					C15.6174,17.6413,16.523,17.9009,17.2424,17.4893z"/>
			</g>
		</g>
		<g>
			<g>
				<path fill="#E02426" d="M25.6479,15.4381l-2.1607,1.2361l1.4767,2.5813l2.1607-1.2361c0.7126-0.4077,0.9596-1.3151,0.552-2.0277
					C27.2729,15.2861,26.3673,15.0266,25.6479,15.4381z"/>
				<g>
					<path fill="#EE4541" d="M24.2173,19.1769c0.5812,0.3386,1.0561,0.0705,1.0606-0.5989
						c0.0046-0.6694-0.4629-1.4866-1.0442-1.8253c-0.5812-0.3386-1.0561-0.0705-1.0606,0.5989S23.6361,18.8382,24.2173,19.1769z"/>
				</g>
			</g>
			<g opacity="0.5">
				<path fill="#69C4EF" d="M22.6548,20.5762l2.309-1.3209c0.1933-0.1084,0.3122-0.3431,0.3137-0.6773
					c0.0046-0.6692-0.4628-1.4862-1.0438-1.8247c-0.2897-0.1697-0.5549-0.1868-0.7466-0.0793
					c-0.0017,0.001-0.0017,0.001-0.0033,0.0019l-2.3056,1.319c-0.7126,0.4077-0.9596,1.3151-0.552,2.0277
					C21.0298,20.7282,21.9354,20.9877,22.6548,20.5762z"/>
			</g>
		</g>
		<g>
			<g>
				<path fill="#E02426" d="M31.0603,18.525l-2.1607,1.2361l1.4767,2.5813l2.1607-1.2361c0.7126-0.4077,0.9596-1.3151,0.552-2.0277
					C32.6853,18.373,31.7797,18.1135,31.0603,18.525z"/>
				<g>
					<path fill="#EE4541" d="M29.6297,22.2638c0.5812,0.3386,1.0561,0.0705,1.0606-0.5989s-0.4629-1.4866-1.0442-1.8253
						c-0.5812-0.3386-1.0561-0.0705-1.0606,0.5989C28.581,21.108,29.0485,21.9251,29.6297,22.2638z"/>
				</g>
			</g>
			<g opacity="0.5">
				<path fill="#69C4EF" d="M28.0672,23.6631l2.309-1.3209c0.1933-0.1084,0.3122-0.3431,0.3137-0.6773
					c0.0046-0.6692-0.4628-1.4862-1.0438-1.8247c-0.2897-0.1697-0.5549-0.1868-0.7466-0.0793
					c-0.0017,0.001-0.0017,0.001-0.0033,0.0019l-2.3056,1.319c-0.7126,0.4077-0.9596,1.3151-0.552,2.0277
					C26.4422,23.8151,27.3477,24.0746,28.0672,23.6631z"/>
			</g>
		</g>
		<g>
			<g>
				<path fill="#E02426" d="M36.4727,21.6119L34.312,22.848l1.4767,2.5813l2.1607-1.2361c0.7126-0.4077,0.9596-1.3151,0.552-2.0277
					C38.0977,21.4599,37.1921,21.2004,36.4727,21.6119z"/>
				<g>
					<path fill="#EE4541" d="M35.0421,25.3507c0.5812,0.3386,1.0561,0.0705,1.0606-0.5989
						c0.0046-0.6694-0.4629-1.4866-1.0442-1.8253c-0.5812-0.3386-1.0561-0.0705-1.0606,0.5989
						C33.9934,24.1948,34.4609,25.012,35.0421,25.3507z"/>
				</g>
			</g>
			<g opacity="0.5">
				<path fill="#69C4EF" d="M33.4796,26.7499l2.309-1.3209c0.1933-0.1084,0.3122-0.3431,0.3137-0.6773
					c0.0046-0.6692-0.4628-1.4862-1.0438-1.8247c-0.2897-0.1697-0.5549-0.1868-0.7466-0.0793
					c-0.0017,0.001-0.0017,0.001-0.0033,0.0019l-2.3056,1.319c-0.7126,0.4077-0.9596,1.3151-0.552,2.0277
					C31.8546,26.902,32.7601,27.1615,33.4796,26.7499z"/>
			</g>
		</g>
		<g>
			<g>
				<path fill="#E02426" d="M41.8851,24.6988l-2.1607,1.2361l1.4767,2.5813l2.1607-1.2361c0.7126-0.4077,0.9596-1.3151,0.552-2.0277
					C43.5101,24.5468,42.6045,24.2872,41.8851,24.6988z"/>
				<g>
					<path fill="#EE4541" d="M40.4545,28.4375c0.5812,0.3386,1.0561,0.0705,1.0606-0.5989
						c0.0046-0.6694-0.4629-1.4866-1.0442-1.8253c-0.5812-0.3386-1.0561-0.0705-1.0606,0.5989
						C39.4058,27.2817,39.8733,28.0989,40.4545,28.4375z"/>
				</g>
			</g>
			<g opacity="0.5">
				<path fill="#69C4EF" d="M38.892,29.8368l2.309-1.3209c0.1933-0.1084,0.3122-0.3431,0.3137-0.6773
					c0.0046-0.6692-0.4628-1.4862-1.0438-1.8247c-0.2897-0.1697-0.5549-0.1868-0.7466-0.0793
					c-0.0017,0.001-0.0017,0.001-0.0033,0.0019l-2.3056,1.319c-0.7126,0.4077-0.9596,1.3151-0.552,2.0277
					C37.267,29.9889,38.1725,30.2484,38.892,29.8368z"/>
			</g>
		</g>
	</g>
</g>
</svg>
