<?xml version="1.0" encoding="utf-8"?>
<!-- Generator: Adobe Illustrator 18.0.0, SVG Export Plug-In . SVG Version: 6.00 Build 0)  -->
<!DOCTYPE svg PUBLIC "-//W3C//DTD SVG 1.1//EN" "http://www.w3.org/Graphics/SVG/1.1/DTD/svg11.dtd">
<svg version="1.1" id="Layer_1" xmlns="http://www.w3.org/2000/svg" xmlns:xlink="http://www.w3.org/1999/xlink" x="0px" y="0px"
	 viewBox="0 0 50 50" enable-background="new 0 0 50 50" xml:space="preserve">
<g>
	<g>
		<g enable-background="new    ">
			<g>
				<path fill="#BFBFBF" d="M49,15.0942c-0.0016,0.7969-0.2866,1.3573-0.7448,1.622l-0.5024,0.2887
					c0.4582-0.2647,0.7432-0.825,0.7448-1.622c0.0047-1.6049-1.1353-3.5568-2.5477-4.3631
					c-0.7102-0.4047-1.3542-0.4436-1.8187-0.1759l0.5024-0.2887c0.4645-0.2662,1.1085-0.2289,1.8187,0.1759
					C47.8647,11.5374,49.0047,13.4909,49,15.0942z"/>
			</g>
			<g>
				<path fill="#D7D7D7" d="M45.9501,11.0197c1.4125,0.8062,2.5528,2.7588,2.5482,4.3633c-0.0046,1.6033-1.1524,2.2511-2.5649,1.445
					c-1.4115-0.8056-2.5528-2.7599-2.5482-4.3633C43.3898,10.8601,44.5386,10.2141,45.9501,11.0197z"/>
			</g>
		</g>
	</g>
	<g>
		<g enable-background="new    ">
			<g>
				<polygon fill="#B0AFB0" points="35.693,20.0158 45.4926,14.3209 45.4894,15.4533 35.6898,21.1482 				"/>
			</g>
			<g>
				<polygon fill="#D7D7D7" points="34.3056,18.7451 44.1052,13.0502 45.0909,13.6193 35.2913,19.3142 				"/>
			</g>
			<g>
				<polygon fill="#929393" points="36.6849,20.1188 46.4845,14.4239 46.4831,14.8928 36.6835,20.5877 				"/>
			</g>
			<g>
				<polygon fill="#BFBFBF" points="35.6943,19.5469 45.4939,13.852 46.4845,14.4239 36.6849,20.1188 				"/>
			</g>
			<g>
				<polygon fill="#929393" points="35.6975,18.4144 45.4971,12.7195 45.4939,13.852 35.6943,19.5469 				"/>
			</g>
			<g>
				<polygon fill="#BFBFBF" points="35.2945,18.1818 45.0941,12.4869 45.4971,12.7195 35.6975,18.4144 				"/>
			</g>
			<g>
				<polygon fill="#BFBFBF" points="35.6975,18.4144 35.6943,19.5469 36.6849,20.1188 36.6835,20.5877 35.693,20.0158 
					35.6898,21.1482 35.2868,20.9156 35.29,19.7831 34.3043,19.214 34.3056,18.7451 35.2913,19.3142 35.2945,18.1818 				"/>
			</g>
		</g>
	</g>
	<g>
		<g enable-background="new    ">
			<g>
				<path fill="#BFBFBF" d="M40.7196,20.8628c-0.0022,1.088-0.3912,1.853-1.0168,2.2143l-0.6859,0.3941
					c0.6256-0.3613,1.0146-1.1264,1.0168-2.2144c0.0064-2.191-1.5499-4.8559-3.4782-5.9566
					c-0.9695-0.5525-1.8487-0.6057-2.4829-0.2401l0.6859-0.3941c0.6341-0.3634,1.5134-0.3124,2.4829,0.2401
					C39.1696,16.007,40.726,18.6739,40.7196,20.8628z"/>
			</g>
			<g>
				<path fill="#D7D7D7" d="M36.5558,15.3002c1.9284,1.1006,3.4852,3.7663,3.4789,5.9568
					c-0.0063,2.1889-1.5733,3.0733-3.5016,1.9727c-1.927-1.0998-3.4852-3.7679-3.4789-5.9568
					C33.0604,15.0824,34.6288,14.2004,36.5558,15.3002z"/>
			</g>
		</g>
	</g>
	<g>
		<g enable-background="new    ">
			<g>
				<polygon fill="#B0AFB0" points="26.512,25.4078 36.3116,19.7129 36.3084,20.8453 26.5088,26.5402 				"/>
			</g>
			<g>
				<polygon fill="#D7D7D7" points="25.1246,24.1371 34.9242,18.4422 35.9099,19.0113 26.1103,24.7062 				"/>
			</g>
			<g>
				<polygon fill="#929393" points="27.5039,25.5108 37.3035,19.8159 37.3021,20.2848 27.5025,25.9797 				"/>
			</g>
			<g>
				<polygon fill="#BFBFBF" points="26.5133,24.9389 36.3129,19.244 37.3035,19.8159 27.5039,25.5108 				"/>
			</g>
			<g>
				<polygon fill="#929393" points="26.5165,23.8065 36.3161,18.1116 36.3129,19.244 26.5133,24.9389 				"/>
			</g>
			<g>
				<polygon fill="#BFBFBF" points="26.1135,23.5738 35.9131,17.8789 36.3161,18.1116 26.5165,23.8065 				"/>
			</g>
			<g>
				<polygon fill="#BFBFBF" points="26.5165,23.8065 26.5133,24.9389 27.5039,25.5108 27.5025,25.9797 26.512,25.4078 
					26.5088,26.5402 26.1058,26.3076 26.109,25.1751 25.1233,24.606 25.1246,24.1371 26.1103,24.7062 26.1135,23.5738 				"/>
			</g>
		</g>
	</g>
	<g>
		<g>
			<g enable-background="new    ">
				<g>
					<path fill="#686868" d="M31.0332,25.6643c-0.0017,0.882-0.3172,1.5023-0.8243,1.7952l-0.5561,0.3195
						c0.5071-0.2929,0.8226-0.9132,0.8243-1.7953c0.0052-1.7763-1.2565-3.9367-2.8198-4.8291
						c-0.786-0.448-1.4988-0.491-2.0129-0.1947l0.5561-0.3195c0.5141-0.2946,1.2269-0.2533,2.0129,0.1947
						C29.7767,21.7276,31.0384,23.8897,31.0332,25.6643z"/>
				</g>
				<g>
					<path fill="#4F4D4D" d="M27.6576,21.1546c1.5633,0.8923,2.8255,3.0534,2.8204,4.8292
						c-0.0051,1.7746-1.2755,2.4916-2.8388,1.5993c-1.5622-0.8916-2.8255-3.0547-2.8204-4.8292
						C24.8238,20.9781,26.0953,20.263,27.6576,21.1546z"/>
				</g>
			</g>
		</g>
		<g>
			<g enable-background="new    ">
				<g>
					<path fill="#686868" d="M29.9666,26.2501c-0.0017,0.882-0.3172,1.5023-0.8243,1.7952l-0.5561,0.3195
						c0.5071-0.2929,0.8226-0.9132,0.8243-1.7953c0.0052-1.7763-1.2565-3.9367-2.8198-4.8291
						c-0.786-0.448-1.4988-0.491-2.0129-0.1947l0.5561-0.3195c0.5141-0.2946,1.2269-0.2533,2.0129,0.1947
						C28.7101,22.3134,29.9719,24.4755,29.9666,26.2501z"/>
				</g>
				<g>
					<path fill="#4F4D4D" d="M26.591,21.7404c1.5633,0.8923,2.8255,3.0534,2.8204,4.8292
						c-0.0051,1.7746-1.2755,2.4916-2.8388,1.5993c-1.5622-0.8916-2.8255-3.0547-2.8204-4.8292
						C23.7573,21.5638,25.0288,20.8488,26.591,21.7404z"/>
				</g>
			</g>
		</g>
		<g>
			<g enable-background="new    ">
				<g>
					<path fill="#686868" d="M28.8412,26.8358c-0.0017,0.882-0.3136,1.5023-0.8149,1.7952l-0.5497,0.3195
						c0.5013-0.2929,0.8132-0.9132,0.8149-1.7953c0.0052-1.7763-1.2422-3.9367-2.7876-4.8291
						c-0.777-0.448-1.4816-0.491-1.9899-0.1947l0.5497-0.3195c0.5082-0.2946,1.2129-0.2533,1.9899,0.1947
						C27.599,22.8991,28.8463,25.0613,28.8412,26.8358z"/>
				</g>
				<g>
					<path fill="#4F4D4D" d="M25.5042,22.3262c1.5455,0.8923,2.7932,3.0534,2.7881,4.8292
						c-0.005,1.7746-1.2609,2.4916-2.8063,1.5993c-1.5444-0.8916-2.7932-3.0547-2.7881-4.8292
						C22.7028,22.1496,23.9598,21.4345,25.5042,22.3262z"/>
				</g>
			</g>
		</g>
		<g>
			<g enable-background="new    ">
				<g>
					<path fill="#686868" d="M27.7868,27.4216c-0.0017,0.882-0.3136,1.5023-0.8149,1.7952l-0.5497,0.3195
						c0.5013-0.2929,0.8132-0.9132,0.8149-1.7953c0.0052-1.7763-1.2422-3.9367-2.7876-4.8291
						c-0.777-0.448-1.4816-0.491-1.9899-0.1947l0.5497-0.3195c0.5082-0.2946,1.2129-0.2533,1.9899,0.1947
						C26.5446,23.4849,27.792,25.647,27.7868,27.4216z"/>
				</g>
				<g>
					<path fill="#4F4D4D" d="M24.4498,22.9119c1.5455,0.8923,2.7932,3.0534,2.7881,4.8292
						c-0.005,1.7746-1.2609,2.4916-2.8063,1.5993c-1.5444-0.8916-2.7932-3.0547-2.7881-4.8292
						C21.6485,22.7353,22.9054,22.0203,24.4498,22.9119z"/>
				</g>
			</g>
		</g>
	</g>
	<path fill="#D7D7D7" d="M15.3234,27.4999c1.72,0.9931,3.1087,3.3983,3.1031,5.3748c-0.0056,1.975-1.4033,2.773-3.1234,1.7799
		c-1.7188-0.9924-3.1087-3.3997-3.1031-5.3748C12.2057,27.3034,13.6046,26.5076,15.3234,27.4999z"/>
	<g>
		<g>
			<g enable-background="new    ">
				<g>
					<path fill="#E8E8E8" d="M16.6884,32.014c-0.001,0.5184-0.1843,0.883-0.479,1.0552L13.4894,34.65
						c0.2947-0.1722,0.478-0.5367,0.479-1.0552c0.003-1.044-0.7301-2.3139-1.6385-2.8384
						c-0.4567-0.2633-0.8709-0.2886-1.1696-0.1144l2.7199-1.5808c0.2987-0.1732,0.7129-0.1489,1.1696,0.1144
						C15.9582,29.7001,16.6914,30.9709,16.6884,32.014z"/>
				</g>
				<g>
					<path fill="#BFBFBF" d="M12.3301,30.7563c0.9084,0.5245,1.6417,1.7947,1.6388,2.8385c-0.003,1.043-0.7411,1.4645-1.6495,0.94
						c-0.9077-0.5241-1.6417-1.7955-1.6388-2.8385C10.6836,30.6526,11.4224,30.2323,12.3301,30.7563z"/>
				</g>
			</g>
		</g>
		<g>
			<g enable-background="new    ">
				<g>
					<path fill="#686868" d="M12.8524,33.1223c-0.0005,0.2498-0.0888,0.4254-0.2308,0.5084l-1.3105,0.7616
						c0.142-0.083,0.2303-0.2586,0.2308-0.5084c0.0015-0.503-0.3518-1.1148-0.7894-1.3675c-0.22-0.1269-0.4196-0.1391-0.5635-0.0551
						l1.3105-0.7616c0.1439-0.0834,0.3435-0.0717,0.5635,0.0551C12.5007,32.0075,12.8539,32.6198,12.8524,33.1223z"/>
				</g>
				<g>
					<path fill="#4F4D4D" d="M10.7526,32.5164c0.4377,0.2527,0.791,0.8647,0.7896,1.3676
						c-0.0014,0.5025-0.3571,0.7056-0.7947,0.4529c-0.4373-0.2525-0.791-0.8651-0.7896-1.3676
						C9.9593,32.4664,10.3153,32.2639,10.7526,32.5164z"/>
				</g>
			</g>
		</g>
		<g>
			<g enable-background="new    ">
				<g>
					<path fill="#BFBFBF" d="M10.8792,33.6247c-0.0001,0.0648-0.023,0.1104-0.0599,0.1319l-9.4681,5.8444
						c0.0368-0.0215,0.0598-0.0671,0.0599-0.132c0.0004-0.1306-0.0913-0.2894-0.2049-0.3549
						c-0.0571-0.0329-0.1089-0.0361-0.1463-0.0143l9.4681-5.8444c0.0374-0.0217,0.0891-0.0186,0.1463,0.0143
						C10.7879,33.3353,10.8796,33.4943,10.8792,33.6247z"/>
				</g>
				<g>
					<path fill="#929393" d="M1.2063,39.1142c0.1136,0.0656,0.2053,0.2244,0.2049,0.355c-0.0004,0.1304-0.0927,0.1831-0.2063,0.1175
						C1.0914,39.5212,0.9996,39.3622,1,39.2317C1.0004,39.1012,1.0928,39.0487,1.2063,39.1142z"/>
				</g>
			</g>
		</g>
	</g>
	<path opacity="0.5" fill="#E8E8E8" d="M39.3974,21.2541c-0.0019,0.9817-0.349,1.672-0.907,1.998L17.5186,34.8725
		c0.558-0.326,0.905-1.0163,0.9069-1.9981c0.0057-1.9769-1.3825-4.3814-3.1024-5.3746c-0.8648-0.4986-1.649-0.5465-2.2147-0.2166
		l20.9719-11.6205c0.5656-0.3279,1.3499-0.2819,2.2147,0.2167C38.0149,16.8727,39.4032,19.279,39.3974,21.2541z"/>
	<path opacity="0.5" fill="#A2DDF4" d="M27.2243,27.6759c0,0.7381-0.2191,1.2685-0.6226,1.4988l-8.2791,4.6123
		c0-0.0462,0.0115-0.0805,0.0115-0.1267c0.0577-0.2308,0.0923-0.496,0.0923-0.7843c0-1.983-1.3837-4.3815-3.1018-5.373
		c-0.2652-0.1503-0.5304-0.2657-0.7725-0.3344l8.2099-4.578c0.1614-0.0923,0.3459-0.1385,0.542-0.1385
		c0.3344,0,0.7149,0.1272,1.1069,0.3463C25.9444,23.6863,27.2359,25.9232,27.2243,27.6759z"/>
</g>
</svg>
