<?xml version="1.0" encoding="utf-8"?>
<!-- Generator: Adobe Illustrator 18.0.0, SVG Export Plug-In . SVG Version: 6.00 Build 0)  -->
<!DOCTYPE svg PUBLIC "-//W3C//DTD SVG 1.1//EN" "http://www.w3.org/Graphics/SVG/1.1/DTD/svg11.dtd">
<svg version="1.1" id="Layer_1" xmlns="http://www.w3.org/2000/svg" xmlns:xlink="http://www.w3.org/1999/xlink" x="0px" y="0px"
	 viewBox="0 0 50 50" enable-background="new 0 0 50 50" xml:space="preserve">
<g>
	<g>
		<g>
			<g>
				<g>
					<g>
						<g>
							<g enable-background="new    ">
								<path fill="#EE4541" d="M34.6499,20.815c-1.985,16.3461-1.0155,8.3999-2.98,24.6504c-0.1299,1.0098-0.97,1.9897-2.49,2.71
									c-2.85,1.3896-7.3,1.4199-10.24,0.0898c-0.07-0.0303-0.14-0.0601-0.21-0.0898c-1.54-0.73-2.4-1.7202-2.52-2.75
									c-0.0133-0.1109-2.9635-24.7929-2.95-24.6802c0.24,1.9502,1.48,3.8398,3.61,5.2002c4.03,2.6001,10.22,2.6001,14.24,0
									C33.1999,24.5952,34.4099,22.7451,34.6499,20.815z"/>
							</g>
						</g>
						<path fill="#E02426" d="M34.0099,26.1353l-0.36,2.9199c-0.45,0.4297-0.99,0.8198-1.62,1.1899
							c-4.43,2.5898-11.67,2.5898-16.13,0c-0.64-0.3701-1.2-0.7798-1.65-1.21l-0.36-2.9897c0.53,0.5796,1.21,1.1196,2.04,1.5996
							c4.46,2.5703,11.7,2.5703,16.14,0C32.8598,27.1851,33.4999,26.6753,34.0099,26.1353z"/>
						<g>
							<g enable-background="new    ">
								<path fill="#D7D7D7" d="M35.3901,21.3675l-0.0302,2.6161c-0.0151,1.6881-1.1152,3.3608-3.3307,4.642
									c-4.4308,2.5925-11.6649,2.5925-16.1258,0c-2.2456-1.2959-3.3759-2.9987-3.3759-4.7023l0.0301-2.6161
									c0,1.7028,1.1303,3.4211,3.3759,4.717c4.461,2.5771,11.6951,2.5771,16.141,0
									C34.2748,24.7431,35.375,23.0549,35.3901,21.3675z"/>
								<g>
									<path fill="#E8E8E8" d="M32.0081,16.6718c4.4647,2.5777,4.4882,6.7666,0.0429,9.3499
										c-4.4355,2.5776-11.6672,2.5777-16.1319,0c-4.4744-2.5833-4.4979-6.7721-0.0624-9.3498
										C20.3021,14.0886,27.5338,14.0885,32.0081,16.6718z"/>
								</g>
							</g>
						</g>
						<g>
							<g enable-background="new    ">
								<path fill="#D7D7D7" d="M34.4045,18.5485l-0.0276,2.3905c-0.0138,1.5426-1.0191,3.071-3.0435,4.2417
									c-4.0488,2.369-10.6592,2.369-14.7355,0c-2.0519-1.1842-3.0848-2.7402-3.0848-4.2969l0.0275-2.3905
									c0,1.556,1.0329,3.1262,3.0848,4.3103c4.0764,2.3549,10.6867,2.3549,14.7493,0
									C33.3854,21.6329,34.3907,20.0904,34.4045,18.5485z"/>
								<g>
									<path fill="#E8E8E8" d="M31.3141,14.2576c4.0798,2.3555,4.1013,6.1832,0.0392,8.5438
										c-4.0531,2.3554-10.6612,2.3555-14.741,0c-4.0886-2.3605-4.1101-6.1882-0.057-8.5436
										C20.6173,11.8971,27.2255,11.897,31.3141,14.2576z"/>
									<path fill="#E8E8E8" d="M31.3141,14.2576c4.0798,2.3555,4.1013,6.1832,0.0392,8.5438
										c-4.0531,2.3554-10.6612,2.3555-14.741,0c-4.0886-2.3605-4.1101-6.1882-0.057-8.5436
										C20.6173,11.8971,27.2255,11.897,31.3141,14.2576z"/>
									<g>
										<path fill="#D7D7D7" d="M17.0577,15.8897c1.8145-1.0547,4.2534-1.6353,6.8672-1.6353
											c2.6147,0,5.0615,0.5811,6.8892,1.6362c1.4894,0.8599,2.3721,1.9277,2.538,3.0405
											c0.0197-0.1299,0.035-0.2598,0.0348-0.3901c-0.0015-1.2471-0.9155-2.4604-2.5728-3.4175
											c-1.8276-1.0552-4.2744-1.6367-6.8892-1.6367c-2.6138,0-5.0527,0.5811-6.8672,1.6357
											c-1.6313,0.9478-2.5288,2.1504-2.5273,3.3862c0.0002,0.126,0.0162,0.2515,0.0349,0.3765
											C14.7325,17.7886,15.599,16.7373,17.0577,15.8897z"/>
										<path opacity="0.5" fill="#FFFFFF" d="M23.9928,23.5679c3.4492,0,8.8731-1.4345,9.3593-4.6367
											c-0.4802-3.2221-5.9227-4.6768-9.4271-4.6768c-3.4434,0-8.8723,1.4342-9.3596,4.6309
											C15.0454,22.1072,20.4745,23.5679,23.9928,23.5679z"/>
									</g>
								</g>
							</g>
						</g>
					</g>
				</g>
			</g>
		</g>
		<g>
			<path fill="#929393" d="M22.915,19.0289c0.7072-0.417,1.8547-0.4111,2.5677-0.0054c0.1674,0.0972,0.2926,0.2095,0.3817,0.3286
				c0.29-0.3857,0.1611-0.8511-0.3817-1.167c-0.713-0.4058-1.8605-0.4111-2.5677,0.0059c-0.5408,0.3105-0.6611,0.7725-0.3731,1.1572
				C22.6293,19.2326,22.7509,19.1232,22.915,19.0289z"/>
			<path fill="#686868" d="M25.8601,19.348c-0.5441,0.8135-2.665,0.871-3.32,0C23.1965,18.4716,25.2852,18.5585,25.8601,19.348z"/>
		</g>
		<g>
			<path fill="#BFBFBF" d="M37.3501,10.118c-0.18,0.21-0.5,0.23-0.71,0.0498l-9.52-8.2998l-2.26,16.9297l-0.15,1.1401
				c-0.33,0.0601-0.68,0.0601-1.01,0c0-0.02,0.01-0.0498,0.01-0.0801l0.15-1.1196l2.3-17.2104c0.04-0.3198,0.26-0.5898,0.57-0.71
				c0.3-0.1196,0.65-0.0498,0.89,0.1602l9.68,8.4399C37.5101,9.598,37.5301,9.9081,37.3501,10.118z"/>
		</g>
		<g>
			<path fill="#FDDB00" d="M24.8089,11.639c-0.0141,0.1044-1.1088,8.1795-1.1088,8.2988c0.33,0.0601,0.68,0.0601,1.01,0
				c0.0134-0.1004,1.1796-8.8536,1.1057-8.2988H24.8089z"/>
		</g>
	</g>
	<path fill="#FDE34B" d="M25.6655,11.4301c0.1996,0.1152,0.2006,0.3025,0.0019,0.4179c-0.1983,0.1152-0.5215,0.1152-0.7211,0
		c-0.2-0.1155-0.2011-0.3027-0.0028-0.4179C25.1422,11.3147,25.4655,11.3147,25.6655,11.4301z"/>
</g>
</svg>
