<?xml version="1.0" encoding="utf-8"?>
<!-- Generator: Adobe Illustrator 18.0.0, SVG Export Plug-In . SVG Version: 6.00 Build 0)  -->
<!DOCTYPE svg PUBLIC "-//W3C//DTD SVG 1.1//EN" "http://www.w3.org/Graphics/SVG/1.1/DTD/svg11.dtd">
<svg version="1.1" id="Layer_1" xmlns="http://www.w3.org/2000/svg" xmlns:xlink="http://www.w3.org/1999/xlink" x="0px" y="0px"
	 viewBox="0 0 50 50" enable-background="new 0 0 50 50" xml:space="preserve">
<g>
	<g>
		<g>
			<g>
				<g enable-background="new    ">
					<g>
						<path fill="#E66C24" d="M23.9834,23.9474v2.25l-0.02,19.2598c-0.1427,2.2129-2.6138,3.0097-4.79,2.9399
							c-1.9525,0-4.6-0.8739-4.6-2.6997l0.02-16.7402h-0.01l0.01-4.9697v-0.0303h-0.01v-0.0698c0-1.23,1.55-1.98,1.88-2.8599
							c0.39-0.8901-1.28-2.54-0.83-3.8999c0.38-1.4004,1.1-6.3604,1.1-8.2705c0-1.5552,1.034-2.2896,2.54-2.2896
							c0.98,0,2.54,0.3501,2.54,2.2896c0,1.9102,0.67,6.8701,1.11,8.2705c0.3799,1.3599-1.22,3.0098-0.89,3.8999
							c0.3781,0.8542,1.93,1.6444,1.93,2.8296C23.9734,23.8874,23.9834,23.9176,23.9834,23.9474z"/>
					</g>
				</g>
			</g>
			<g>
				<g enable-background="new    ">
					<g>
						<path fill="#F2961F" d="M14.5934,23.9875l-0.0098,4.8379h9.397l0.0027-2.6279v-2.25c0-0.0298-0.01-0.0601-0.02-0.0903
							c0-1.1838-1.5538-1.9797-1.93-2.8296c-0.33-0.8901,1.27-2.54,0.89-3.8999c-0.44-1.4004-1.11-6.3604-1.11-8.2705
							c0-1.9395-1.56-2.2896-2.54-2.2896c-1.5148,0-2.54,0.7417-2.54,2.2896c0,1.9102-0.72,6.8701-1.1,8.2705
							c-0.45,1.3599,1.22,3.0098,0.83,3.8999c-0.33,0.8799-1.88,1.6299-1.88,2.8599v0.0698h0.01V23.9875z"/>
					</g>
				</g>
			</g>
			<g>
				<g enable-background="new    ">
					<g>
						<path fill="#F9A62B" d="M22.5943,27.1559c1.8385,1.0615,1.8495,2.783,0.0216,3.8453c-1.8266,1.0615-4.8,1.0615-6.6385,0
							c-1.8399-1.0622-1.8482-2.7838-0.0216-3.8453C17.7836,26.0937,20.7544,26.0936,22.5943,27.1559z"/>
					</g>
				</g>
			</g>
		</g>
	</g>
	<g>
		<g>
			<g>
				<g enable-background="new    ">
					<g>
						<path fill="#69C4EF" d="M35.4266,18.9786v2.25l-0.02,19.2598c-0.1437,2.2354-2.6028,3.01-4.79,2.9399
							c-1.961,0-4.6-0.8746-4.6-2.6997l0.02-16.7402h-0.01l0.01-4.9697v-0.0303h-0.01v-0.0698c0-1.23,1.55-1.98,1.88-2.8599
							c0.39-0.8901-1.28-2.54-0.83-3.8999c0.38-1.4004,1.1-6.3604,1.1-8.2705c0-1.5552,1.034-2.2896,2.54-2.2896
							c0.98,0,2.54,0.3501,2.54,2.2896c0,1.9102,0.67,6.8701,1.11,8.2705c0.3799,1.3599-1.22,3.0098-0.89,3.8999
							c0.3781,0.8542,1.93,1.6444,1.93,2.8296C35.4166,18.9186,35.4266,18.9489,35.4266,18.9786z"/>
					</g>
				</g>
			</g>
			<g>
				<g enable-background="new    ">
					<g>
						<path fill="#7BD3F7" d="M26.0366,19.0187l-0.0098,4.8379h9.397l0.0027-2.6279v-2.25c0-0.0298-0.01-0.0601-0.02-0.0903
							c0-1.1838-1.5538-1.9797-1.93-2.8296c-0.33-0.8901,1.27-2.54,0.89-3.8999c-0.44-1.4004-1.11-6.3604-1.11-8.2705
							c0-1.6634-1.2293-2.4161-2.83-2.2598c-1.522,0.0846-2.25,0.9582-2.25,2.2598c0,1.9102-0.72,6.8701-1.1,8.2705
							c-0.45,1.3599,1.22,3.0098,0.83,3.8999c-0.33,0.8799-1.88,1.6299-1.88,2.8599v0.0698h0.01V19.0187z"/>
					</g>
				</g>
			</g>
			<g>
				<g enable-background="new    ">
					<g>
						<path fill="#A2DDF4" d="M34.0375,22.1871c1.8385,1.0615,1.8495,2.783,0.0216,3.8453c-1.8266,1.0615-4.8,1.0615-6.6385,0
							c-1.8399-1.0622-1.8482-2.7838-0.0216-3.8453C29.2269,21.1249,32.1976,21.1249,34.0375,22.1871z"/>
					</g>
				</g>
			</g>
		</g>
	</g>
</g>
</svg>
