<?xml version="1.0" encoding="utf-8"?>
<!-- Generator: Adobe Illustrator 18.0.0, SVG Export Plug-In . SVG Version: 6.00 Build 0)  -->
<!DOCTYPE svg PUBLIC "-//W3C//DTD SVG 1.1//EN" "http://www.w3.org/Graphics/SVG/1.1/DTD/svg11.dtd">
<svg version="1.1" id="Layer_1" xmlns="http://www.w3.org/2000/svg" xmlns:xlink="http://www.w3.org/1999/xlink" x="0px" y="0px"
	 viewBox="0 0 50 50" enable-background="new 0 0 50 50" xml:space="preserve">
<g>
	<g>
		<g>
			<g>
				<g>
					<g enable-background="new    ">
						<g>
							<polygon fill="#E8E8E8" points="19.9918,6.4678 19.6864,6.2903 15.9728,8.4647 16.2782,8.6421 							"/>
						</g>
						<g>
							<polygon fill="#BFBFBF" points="16.2782,8.6421 15.6746,14.6906 21.5407,11.2736 19.9918,6.4678 							"/>
						</g>
					</g>
				</g>
			</g>
			<g>
				<polygon fill="#BFBFBF" points="16.2782,8.6421 15.6746,14.6906 21.5407,11.2736 19.9918,6.4678 				"/>
			</g>
		</g>
		<g>
			<polygon fill="#D7D7D7" points="21.5592,5.143 21.5259,11.2724 34.3867,18.6952 34.4117,12.5746 34.4117,12.5746 			"/>
			<g>
				<polygon fill="#B0AFB0" points="34.713,12.4017 34.6822,18.5244 34.385,18.6949 34.4159,12.5722 				"/>
			</g>
			<g>
				<polygon fill="#BFBFBF" points="32.7851,5.7084 33.079,5.5376 34.713,12.4014 34.4191,12.5722 				"/>
			</g>
			<polygon fill="#E8E8E8" points="34.4201,12.5746 32.7853,5.7104 23.2273,0.1889 21.5592,5.143 21.5592,5.143 34.4117,12.5746 			
				"/>
		</g>
		<g>
			<polygon fill="#929393" points="21.5313,11.2749 21.4523,39.1498 15.8763,42.3902 15.9553,14.5153 			"/>
		</g>
		<g>
			<polygon fill="#B0AFB0" points="34.093,18.5274 34.014,46.4023 21.4523,39.1498 21.5313,11.2749 			"/>
		</g>
		<g>
			<g>
				<g enable-background="new    ">
					<g>
						<path fill="#7BD3F7" d="M33.4722,15.4428l-0.068,22.4266c0,0.1614-0.051,0.2718-0.1445,0.3228l-0.5949,0.3486
							c0.085-0.0515,0.1445-0.1701,0.1445-0.3232l0.0595-22.4266c0.0085-0.3141-0.221-0.7137-0.5014-0.8751l-11.243-6.4839
							c-0.1359-0.0851-0.2634-0.0851-0.3484-0.034l0.5948-0.3486c0.0935-0.051,0.221-0.051,0.357,0.034l11.243,6.4927
							C33.2428,14.7287,33.4722,15.1283,33.4722,15.4428z"/>
					</g>
					<g>
						<path fill="#A2DDF4" d="M32.3698,14.92c0.2767,0.1598,0.5039,0.5531,0.503,0.8711l-0.0636,22.4258
							c-0.0009,0.318-0.2295,0.4482-0.5062,0.2884l-11.2421-6.4907c-0.2767-0.1598-0.4984-0.55-0.4975-0.868l0.0636-22.4258
							c0.0009-0.318,0.2241-0.4513,0.5008-0.2916L32.3698,14.92z"/>
					</g>
				</g>
			</g>
			<g>
				<g>
					<g enable-background="new    ">
						<g>
							<path fill="#69C4EF" d="M25.6659,14.0378c-0.0009,0.4746-0.1687,0.8083-0.4384,0.9659l-0.9233,0.5357
								c0.2697-0.1576,0.4375-0.4913,0.4384-0.9659c0.0028-0.9557-0.6683-2.1181-1.4998-2.5982
								c-0.4181-0.241-0.7972-0.2642-1.0706-0.1047l0.9233-0.5357c0.2734-0.1585,0.6526-0.1363,1.0706,0.1047
								C24.9976,11.9197,25.6687,13.083,25.6659,14.0378z"/>
						</g>
						<g>
							<path fill="#7BD3F7" d="M23.243,11.9752c0.8315,0.4801,1.5028,1.6428,1.5001,2.5983
								c-0.0027,0.9548-0.6784,1.3405-1.5099,0.8605c-0.8309-0.4797-1.5028-1.6435-1.5001-2.5983
								C21.7357,11.8802,22.412,11.4955,23.243,11.9752z"/>
						</g>
					</g>
				</g>
				<g>
					<g enable-background="new    ">
						<g>
							<path fill="#69C4EF" d="M30.9062,17.084c-0.0009,0.4746-0.1687,0.8083-0.4384,0.9659l-0.9233,0.5357
								c0.2697-0.1576,0.4375-0.4913,0.4384-0.9659c0.0028-0.9557-0.6683-2.1181-1.4998-2.5982
								c-0.4181-0.241-0.7972-0.2642-1.0706-0.1047l0.9233-0.5357c0.2734-0.1585,0.6526-0.1363,1.0706,0.1047
								C30.2378,14.9659,30.9089,16.1292,30.9062,17.084z"/>
						</g>
						<g>
							<path fill="#7BD3F7" d="M28.4832,15.0214c0.8315,0.4801,1.5028,1.6428,1.5001,2.5983
								c-0.0027,0.9548-0.6784,1.3405-1.5099,0.8605c-0.8309-0.4797-1.5028-1.6435-1.5001-2.5983
								C26.976,14.9264,27.6523,14.5417,28.4832,15.0214z"/>
						</g>
					</g>
				</g>
			</g>
			<g>
				<g>
					<g enable-background="new    ">
						<g>
							<path fill="#69C4EF" d="M25.6659,19.5551c-0.0009,0.4746-0.1687,0.8083-0.4384,0.9659l-0.9233,0.5357
								c0.2697-0.1576,0.4375-0.4913,0.4384-0.9659c0.0028-0.9557-0.6683-2.1181-1.4998-2.5982
								c-0.4181-0.241-0.7972-0.2642-1.0706-0.1047l0.9233-0.5357c0.2734-0.1585,0.6526-0.1363,1.0706,0.1047
								C24.9976,17.437,25.6687,18.6003,25.6659,19.5551z"/>
						</g>
						<g>
							<path fill="#7BD3F7" d="M23.243,17.4925c0.8315,0.4801,1.5028,1.6428,1.5001,2.5983
								c-0.0027,0.9548-0.6784,1.3405-1.5099,0.8605c-0.8309-0.4797-1.5028-1.6435-1.5001-2.5983
								C21.7357,17.3975,22.412,17.0128,23.243,17.4925z"/>
						</g>
					</g>
				</g>
				<g>
					<g enable-background="new    ">
						<g>
							<path fill="#69C4EF" d="M30.9062,22.6013c-0.0009,0.4746-0.1687,0.8083-0.4384,0.9659l-0.9233,0.5357
								c0.2697-0.1576,0.4375-0.4913,0.4384-0.9659c0.0028-0.9557-0.6683-2.1181-1.4998-2.5982
								c-0.4181-0.241-0.7972-0.2642-1.0706-0.1047l0.9233-0.5357c0.2734-0.1585,0.6526-0.1363,1.0706,0.1047
								C30.2378,20.4832,30.9089,21.6465,30.9062,22.6013z"/>
						</g>
						<g>
							<path fill="#7BD3F7" d="M28.4832,20.5387c0.8315,0.4801,1.5028,1.6428,1.5001,2.5983
								c-0.0027,0.9548-0.6784,1.3405-1.5099,0.8605c-0.8309-0.4797-1.5028-1.6435-1.5001-2.5983
								C26.976,20.4437,27.6523,20.059,28.4832,20.5387z"/>
						</g>
					</g>
				</g>
			</g>
			<g>
				<g>
					<g enable-background="new    ">
						<g>
							<path fill="#69C4EF" d="M25.6659,25.0724c-0.0009,0.4746-0.1687,0.8083-0.4384,0.9659l-0.9233,0.5357
								c0.2697-0.1576,0.4375-0.4913,0.4384-0.9659c0.0028-0.9557-0.6683-2.1181-1.4998-2.5982
								c-0.4181-0.241-0.7972-0.2642-1.0706-0.1047l0.9233-0.5357c0.2734-0.1585,0.6526-0.1363,1.0706,0.1047
								C24.9976,22.9543,25.6687,24.1176,25.6659,25.0724z"/>
						</g>
						<g>
							<path fill="#7BD3F7" d="M23.243,23.0098c0.8315,0.4801,1.5028,1.6428,1.5001,2.5983
								c-0.0027,0.9548-0.6784,1.3405-1.5099,0.8605c-0.8309-0.4797-1.5028-1.6435-1.5001-2.5983
								C21.7357,22.9148,22.412,22.5301,23.243,23.0098z"/>
						</g>
					</g>
				</g>
				<g>
					<g enable-background="new    ">
						<g>
							<path fill="#69C4EF" d="M30.9062,28.1186c-0.0009,0.4746-0.1687,0.8083-0.4384,0.9659l-0.9233,0.5357
								c0.2697-0.1576,0.4375-0.4913,0.4384-0.9659c0.0028-0.9557-0.6683-2.1181-1.4998-2.5982
								c-0.4181-0.241-0.7972-0.2642-1.0706-0.1047l0.9233-0.5357c0.2734-0.1585,0.6526-0.1363,1.0706,0.1047
								C30.2378,26.0005,30.9089,27.1638,30.9062,28.1186z"/>
						</g>
						<g>
							<path fill="#7BD3F7" d="M28.4832,26.056c0.8315,0.4801,1.5028,1.6428,1.5001,2.5983
								c-0.0027,0.9548-0.6784,1.3405-1.5099,0.8605c-0.8309-0.4797-1.5028-1.6435-1.5001-2.5983
								C26.976,25.961,27.6523,25.5763,28.4832,26.056z"/>
						</g>
					</g>
				</g>
			</g>
			<g>
				<g>
					<g enable-background="new    ">
						<g>
							<path fill="#69C4EF" d="M25.6659,30.5897c-0.0009,0.4746-0.1687,0.8083-0.4384,0.9659l-0.9233,0.5357
								c0.2697-0.1576,0.4375-0.4913,0.4384-0.9659c0.0028-0.9557-0.6683-2.1181-1.4998-2.5982
								c-0.4181-0.241-0.7972-0.2642-1.0706-0.1047l0.9233-0.5357c0.2734-0.1585,0.6526-0.1363,1.0706,0.1047
								C24.9976,28.4716,25.6687,29.6349,25.6659,30.5897z"/>
						</g>
						<g>
							<path fill="#7BD3F7" d="M23.243,28.5271c0.8315,0.4801,1.5028,1.6428,1.5001,2.5983
								c-0.0027,0.9548-0.6784,1.3405-1.5099,0.8605c-0.8309-0.4797-1.5028-1.6435-1.5001-2.5983
								C21.7357,28.4321,22.412,28.0474,23.243,28.5271z"/>
						</g>
					</g>
				</g>
				<g>
					<g enable-background="new    ">
						<g>
							<path fill="#69C4EF" d="M30.9062,33.6359c-0.0009,0.4746-0.1687,0.8083-0.4384,0.9659l-0.9233,0.5357
								c0.2697-0.1576,0.4375-0.4913,0.4384-0.9659c0.0028-0.9557-0.6683-2.1181-1.4998-2.5982
								c-0.4181-0.241-0.7972-0.2642-1.0706-0.1047l0.9233-0.5357c0.2734-0.1585,0.6526-0.1363,1.0706,0.1047
								C30.2378,31.5178,30.9089,32.6811,30.9062,33.6359z"/>
						</g>
						<g>
							<path fill="#7BD3F7" d="M28.4832,31.5734c0.8315,0.4801,1.5028,1.6428,1.5001,2.5983
								c-0.0027,0.9548-0.6784,1.3405-1.5099,0.8605c-0.8309-0.4797-1.5028-1.6435-1.5001-2.5983
								C26.976,31.4784,27.6523,31.0936,28.4832,31.5734z"/>
						</g>
					</g>
				</g>
			</g>
		</g>
		<g>
			<g>
				<g enable-background="new    ">
					<g>
						<path fill="#7BD3F7" d="M31.4519,17.2896l-0.068,22.4266c0,0.1614-0.051,0.2718-0.1445,0.3228l-0.5949,0.3486
							c0.085-0.0515,0.1445-0.1701,0.1445-0.3232l0.0595-22.4266c0.0085-0.3141-0.221-0.7137-0.5014-0.8751l-11.243-6.4839
							c-0.1359-0.0851-0.2634-0.0851-0.3484-0.034l0.5948-0.3486c0.0935-0.051,0.221-0.051,0.357,0.034l11.243,6.4927
							C31.2225,16.5755,31.4519,16.9751,31.4519,17.2896z"/>
					</g>
					<g>
						<path fill="#A2DDF4" d="M30.3495,16.7667c0.2767,0.1598,0.5039,0.5531,0.503,0.8711l-0.0636,22.4258
							c-0.0009,0.318-0.2295,0.4482-0.5062,0.2884l-11.2421-6.4907c-0.2767-0.1598-0.4984-0.55-0.4975-0.868l0.0636-22.4259
							c0.0009-0.318,0.2241-0.4513,0.5008-0.2916L30.3495,16.7667z"/>
					</g>
				</g>
			</g>
			<g>
				<g>
					<g enable-background="new    ">
						<g>
							<path fill="#69C4EF" d="M23.6456,15.8845c-0.0009,0.4746-0.1687,0.8083-0.4384,0.9659l-0.9233,0.5357
								c0.2697-0.1576,0.4375-0.4913,0.4384-0.9659c0.0028-0.9557-0.6683-2.1181-1.4998-2.5982
								c-0.4181-0.241-0.7972-0.2642-1.0706-0.1047l0.9233-0.5357c0.2734-0.1585,0.6526-0.1363,1.0706,0.1047
								C22.9773,13.7664,23.6484,14.9297,23.6456,15.8845z"/>
						</g>
						<g>
							<path fill="#7BD3F7" d="M21.2227,13.822c0.8315,0.4801,1.5028,1.6428,1.5001,2.5983
								c-0.0027,0.9548-0.6784,1.3405-1.5099,0.8605c-0.8309-0.4797-1.5028-1.6435-1.5001-2.5983
								C19.7155,13.727,20.3917,13.3422,21.2227,13.822z"/>
						</g>
					</g>
				</g>
				<g>
					<g enable-background="new    ">
						<g>
							<path fill="#69C4EF" d="M28.8859,18.9308c-0.0009,0.4746-0.1687,0.8083-0.4384,0.9659l-0.9233,0.5357
								c0.2697-0.1576,0.4375-0.4913,0.4384-0.9659c0.0028-0.9557-0.6683-2.1181-1.4998-2.5982
								c-0.4181-0.241-0.7972-0.2642-1.0706-0.1047l0.9233-0.5357c0.2734-0.1585,0.6526-0.1363,1.0706,0.1047
								C28.2175,16.8127,28.8886,17.976,28.8859,18.9308z"/>
						</g>
						<g>
							<path fill="#7BD3F7" d="M26.4629,16.8682c0.8315,0.4801,1.5028,1.6428,1.5001,2.5983
								c-0.0027,0.9548-0.6784,1.3405-1.5099,0.8605c-0.8309-0.4797-1.5028-1.6435-1.5001-2.5983
								C24.9557,16.7732,25.632,16.3885,26.4629,16.8682z"/>
						</g>
					</g>
				</g>
			</g>
			<g>
				<g>
					<g enable-background="new    ">
						<g>
							<path fill="#69C4EF" d="M23.6456,21.4018c-0.0009,0.4746-0.1687,0.8083-0.4384,0.9659l-0.9233,0.5357
								c0.2697-0.1576,0.4375-0.4913,0.4384-0.9659c0.0028-0.9557-0.6683-2.1181-1.4998-2.5982
								c-0.4181-0.241-0.7972-0.2642-1.0706-0.1047l0.9233-0.5357c0.2734-0.1585,0.6526-0.1363,1.0706,0.1047
								C22.9773,19.2838,23.6484,20.4471,23.6456,21.4018z"/>
						</g>
						<g>
							<path fill="#7BD3F7" d="M21.2227,19.3393c0.8315,0.4801,1.5028,1.6428,1.5001,2.5983
								c-0.0027,0.9548-0.6784,1.3405-1.5099,0.8605c-0.8309-0.4797-1.5028-1.6435-1.5001-2.5983
								C19.7155,19.2443,20.3917,18.8595,21.2227,19.3393z"/>
						</g>
					</g>
				</g>
				<g>
					<g enable-background="new    ">
						<g>
							<path fill="#69C4EF" d="M28.8859,24.4481c-0.0009,0.4746-0.1687,0.8083-0.4384,0.9659l-0.9233,0.5357
								c0.2697-0.1576,0.4375-0.4913,0.4384-0.9659c0.0028-0.9557-0.6683-2.1181-1.4998-2.5982
								c-0.4181-0.241-0.7972-0.2642-1.0706-0.1047l0.9233-0.5357c0.2734-0.1585,0.6526-0.1363,1.0706,0.1047
								C28.2175,22.33,28.8886,23.4933,28.8859,24.4481z"/>
						</g>
						<g>
							<path fill="#7BD3F7" d="M26.4629,22.3855c0.8315,0.4801,1.5028,1.6428,1.5001,2.5983
								c-0.0027,0.9548-0.6784,1.3405-1.5099,0.8605c-0.8309-0.4797-1.5028-1.6435-1.5001-2.5983
								C24.9557,22.2905,25.632,21.9058,26.4629,22.3855z"/>
						</g>
					</g>
				</g>
			</g>
			<g>
				<g>
					<g enable-background="new    ">
						<g>
							<path fill="#69C4EF" d="M23.6456,26.9192c-0.0009,0.4746-0.1687,0.8083-0.4384,0.9659l-0.9233,0.5357
								c0.2697-0.1576,0.4375-0.4913,0.4384-0.9659c0.0028-0.9557-0.6683-2.1181-1.4998-2.5982
								c-0.4181-0.241-0.7972-0.2642-1.0706-0.1047l0.9233-0.5357c0.2734-0.1585,0.6526-0.1363,1.0706,0.1047
								C22.9773,24.8011,23.6484,25.9644,23.6456,26.9192z"/>
						</g>
						<g>
							<path fill="#7BD3F7" d="M21.2227,24.8566c0.8315,0.4801,1.5028,1.6428,1.5001,2.5983
								c-0.0027,0.9548-0.6784,1.3405-1.5099,0.8605c-0.8309-0.4797-1.5028-1.6435-1.5001-2.5983
								C19.7155,24.7616,20.3917,24.3769,21.2227,24.8566z"/>
						</g>
					</g>
				</g>
				<g>
					<g enable-background="new    ">
						<g>
							<path fill="#69C4EF" d="M28.8859,29.9654c-0.0009,0.4746-0.1687,0.8083-0.4384,0.9659l-0.9233,0.5357
								c0.2697-0.1576,0.4375-0.4913,0.4384-0.9659c0.0028-0.9557-0.6683-2.1181-1.4998-2.5982
								c-0.4181-0.241-0.7972-0.2642-1.0706-0.1047l0.9233-0.5357c0.2734-0.1585,0.6526-0.1363,1.0706,0.1047
								C28.2175,27.8473,28.8886,29.0106,28.8859,29.9654z"/>
						</g>
						<g>
							<path fill="#7BD3F7" d="M26.4629,27.9028c0.8315,0.4801,1.5028,1.6428,1.5001,2.5983
								c-0.0027,0.9548-0.6784,1.3405-1.5099,0.8605c-0.8309-0.4797-1.5028-1.6435-1.5001-2.5983
								C24.9557,27.8078,25.632,27.4231,26.4629,27.9028z"/>
						</g>
					</g>
				</g>
			</g>
			<g>
				<g>
					<g enable-background="new    ">
						<g>
							<path fill="#69C4EF" d="M23.6456,32.4365c-0.0009,0.4746-0.1687,0.8083-0.4384,0.9659l-0.9233,0.5357
								c0.2697-0.1576,0.4375-0.4913,0.4384-0.9659c0.0028-0.9557-0.6683-2.1181-1.4998-2.5982
								c-0.4181-0.241-0.7972-0.2642-1.0706-0.1047l0.9233-0.5357c0.2734-0.1585,0.6526-0.1363,1.0706,0.1047
								C22.9773,30.3184,23.6484,31.4817,23.6456,32.4365z"/>
						</g>
						<g>
							<path fill="#7BD3F7" d="M21.2227,30.3739c0.8315,0.4801,1.5028,1.6428,1.5001,2.5983
								c-0.0027,0.9548-0.6784,1.3405-1.5099,0.8605c-0.8309-0.4797-1.5028-1.6435-1.5001-2.5983
								C19.7155,30.2789,20.3917,29.8942,21.2227,30.3739z"/>
						</g>
					</g>
				</g>
				<g>
					<g enable-background="new    ">
						<g>
							<path fill="#69C4EF" d="M28.8859,35.4827c-0.0009,0.4746-0.1687,0.8083-0.4384,0.9659l-0.9233,0.5357
								c0.2697-0.1576,0.4375-0.4913,0.4384-0.9659c0.0028-0.9557-0.6683-2.1181-1.4998-2.5982
								c-0.4181-0.241-0.7972-0.2642-1.0706-0.1047l0.9233-0.5357c0.2734-0.1585,0.6526-0.1363,1.0706,0.1047
								C28.2175,33.3646,28.8886,34.5279,28.8859,35.4827z"/>
						</g>
						<g>
							<path fill="#7BD3F7" d="M26.4629,33.4201c0.8315,0.4801,1.5028,1.6428,1.5001,2.5983
								c-0.0027,0.9548-0.6784,1.3405-1.5099,0.8605c-0.8309-0.4797-1.5028-1.6435-1.5001-2.5983
								C24.9557,33.3251,25.632,32.9404,26.4629,33.4201z"/>
						</g>
					</g>
				</g>
			</g>
		</g>
		<g>
			<g>
				<g enable-background="new    ">
					<g>
						<path fill="#7BD3F7" d="M29.4317,19.1364l-0.068,22.4266c0,0.1614-0.051,0.2718-0.1445,0.3228l-0.5949,0.3486
							c0.085-0.0515,0.1445-0.1701,0.1445-0.3232l0.0595-22.4266c0.0085-0.3141-0.221-0.7137-0.5014-0.8751l-11.243-6.4839
							c-0.1359-0.0851-0.2634-0.0851-0.3484-0.034l0.5948-0.3486c0.0935-0.051,0.221-0.051,0.357,0.034l11.243,6.4927
							C29.2022,18.4222,29.4317,18.8218,29.4317,19.1364z"/>
					</g>
					<g>
						<path fill="#A2DDF4" d="M28.3292,18.6135c0.2767,0.1598,0.5039,0.5531,0.503,0.8711l-0.0636,22.4259
							c-0.0009,0.318-0.2295,0.4482-0.5062,0.2884l-11.2421-6.4907c-0.2767-0.1598-0.4984-0.55-0.4975-0.868l0.0636-22.4258
							c0.0009-0.318,0.2241-0.4513,0.5008-0.2916L28.3292,18.6135z"/>
					</g>
				</g>
			</g>
			<g>
				<g>
					<g enable-background="new    ">
						<g>
							<path fill="#69C4EF" d="M21.6253,17.7313c-0.0009,0.4746-0.1687,0.8083-0.4384,0.9659l-0.9233,0.5357
								c0.2697-0.1576,0.4375-0.4913,0.4384-0.9659c0.0028-0.9557-0.6683-2.1181-1.4998-2.5982
								c-0.4181-0.241-0.7972-0.2642-1.0706-0.1047l0.9233-0.5357c0.2734-0.1585,0.6526-0.1363,1.0706,0.1047
								C20.957,15.6132,21.6281,16.7765,21.6253,17.7313z"/>
						</g>
						<g>
							<path fill="#7BD3F7" d="M19.2024,15.6687c0.8315,0.4801,1.5028,1.6428,1.5001,2.5983
								c-0.0027,0.9548-0.6784,1.3405-1.5099,0.8605c-0.8309-0.4797-1.5028-1.6435-1.5001-2.5983
								C17.6952,15.5737,18.3714,15.189,19.2024,15.6687z"/>
						</g>
					</g>
				</g>
				<g>
					<g enable-background="new    ">
						<g>
							<path fill="#69C4EF" d="M26.8656,20.7775c-0.0009,0.4746-0.1687,0.8083-0.4384,0.9659l-0.9233,0.5357
								c0.2697-0.1576,0.4375-0.4913,0.4384-0.9659c0.0028-0.9557-0.6683-2.1181-1.4998-2.5982
								c-0.4181-0.241-0.7972-0.2642-1.0706-0.1047l0.9233-0.5357c0.2734-0.1585,0.6526-0.1363,1.0706,0.1047
								C26.1972,18.6594,26.8684,19.8227,26.8656,20.7775z"/>
						</g>
						<g>
							<path fill="#7BD3F7" d="M24.4426,18.7149c0.8315,0.4801,1.5028,1.6428,1.5001,2.5983
								c-0.0027,0.9548-0.6784,1.3405-1.5099,0.8605c-0.8309-0.4797-1.5028-1.6435-1.5001-2.5983
								C22.9354,18.6199,23.6117,18.2352,24.4426,18.7149z"/>
						</g>
					</g>
				</g>
			</g>
			<g>
				<g>
					<g enable-background="new    ">
						<g>
							<path fill="#69C4EF" d="M21.6253,23.2486c-0.0009,0.4746-0.1687,0.8083-0.4384,0.9659l-0.9233,0.5357
								c0.2697-0.1576,0.4375-0.4913,0.4384-0.9659c0.0028-0.9557-0.6683-2.1181-1.4998-2.5982
								c-0.4181-0.241-0.7972-0.2642-1.0706-0.1047l0.9233-0.5357c0.2734-0.1585,0.6526-0.1363,1.0706,0.1047
								C20.957,21.1305,21.6281,22.2938,21.6253,23.2486z"/>
						</g>
						<g>
							<path fill="#7BD3F7" d="M19.2024,21.186c0.8315,0.4801,1.5028,1.6428,1.5001,2.5983
								c-0.0027,0.9548-0.6784,1.3405-1.5099,0.8605c-0.8309-0.4797-1.5028-1.6435-1.5001-2.5983
								C17.6952,21.091,18.3714,20.7063,19.2024,21.186z"/>
						</g>
					</g>
				</g>
				<g>
					<g enable-background="new    ">
						<g>
							<path fill="#69C4EF" d="M26.8656,26.2948c-0.0009,0.4746-0.1687,0.8083-0.4384,0.9659l-0.9233,0.5357
								c0.2697-0.1576,0.4375-0.4913,0.4384-0.9659c0.0028-0.9557-0.6683-2.1181-1.4998-2.5982
								c-0.4181-0.241-0.7972-0.2642-1.0706-0.1047l0.9233-0.5357c0.2734-0.1585,0.6526-0.1363,1.0706,0.1047
								C26.1972,24.1767,26.8684,25.34,26.8656,26.2948z"/>
						</g>
						<g>
							<path fill="#7BD3F7" d="M24.4426,24.2323c0.8315,0.4801,1.5028,1.6428,1.5001,2.5983
								c-0.0027,0.9548-0.6784,1.3405-1.5099,0.8605c-0.8309-0.4797-1.5028-1.6435-1.5001-2.5983
								C22.9354,24.1373,23.6117,23.7525,24.4426,24.2323z"/>
						</g>
					</g>
				</g>
			</g>
			<g>
				<g>
					<g enable-background="new    ">
						<g>
							<path fill="#69C4EF" d="M21.6253,28.7659c-0.0009,0.4746-0.1687,0.8083-0.4384,0.9659l-0.9233,0.5357
								c0.2697-0.1576,0.4375-0.4913,0.4384-0.9659c0.0028-0.9557-0.6683-2.1181-1.4998-2.5982
								c-0.4181-0.241-0.7972-0.2642-1.0706-0.1047l0.9233-0.5357c0.2734-0.1585,0.6526-0.1363,1.0706,0.1047
								C20.957,26.6478,21.6281,27.8111,21.6253,28.7659z"/>
						</g>
						<g>
							<path fill="#7BD3F7" d="M19.2024,26.7034c0.8315,0.4801,1.5028,1.6428,1.5001,2.5983
								c-0.0027,0.9548-0.6784,1.3405-1.5099,0.8605c-0.8309-0.4797-1.5028-1.6435-1.5001-2.5983
								C17.6952,26.6083,18.3714,26.2236,19.2024,26.7034z"/>
						</g>
					</g>
				</g>
				<g>
					<g enable-background="new    ">
						<g>
							<path fill="#69C4EF" d="M26.8656,31.8121c-0.0009,0.4746-0.1687,0.8083-0.4384,0.9659l-0.9233,0.5357
								c0.2697-0.1576,0.4375-0.4913,0.4384-0.9659c0.0028-0.9557-0.6683-2.1181-1.4998-2.5982
								c-0.4181-0.241-0.7972-0.2642-1.0706-0.1047l0.9233-0.5357c0.2734-0.1585,0.6526-0.1363,1.0706,0.1047
								C26.1972,29.6941,26.8684,30.8574,26.8656,31.8121z"/>
						</g>
						<g>
							<path fill="#7BD3F7" d="M24.4426,29.7496c0.8315,0.4801,1.5028,1.6428,1.5001,2.5983
								c-0.0027,0.9548-0.6784,1.3405-1.5099,0.8605c-0.8309-0.4797-1.5028-1.6435-1.5001-2.5983
								C22.9354,29.6546,23.6117,29.2698,24.4426,29.7496z"/>
						</g>
					</g>
				</g>
			</g>
			<g>
				<g>
					<g enable-background="new    ">
						<g>
							<path fill="#69C4EF" d="M21.6253,34.2832c-0.0009,0.4746-0.1687,0.8083-0.4384,0.9659l-0.9233,0.5357
								c0.2697-0.1576,0.4375-0.4913,0.4384-0.9659c0.0028-0.9557-0.6683-2.1181-1.4998-2.5982
								c-0.4181-0.241-0.7972-0.2642-1.0706-0.1047l0.9233-0.5357c0.2734-0.1585,0.6526-0.1363,1.0706,0.1047
								C20.957,32.1651,21.6281,33.3284,21.6253,34.2832z"/>
						</g>
						<g>
							<path fill="#7BD3F7" d="M19.2024,32.2207c0.8315,0.4801,1.5028,1.6428,1.5001,2.5983
								c-0.0027,0.9548-0.6784,1.3405-1.5099,0.8605c-0.8309-0.4797-1.5028-1.6435-1.5001-2.5983
								C17.6952,32.1257,18.3714,31.7409,19.2024,32.2207z"/>
						</g>
					</g>
				</g>
				<g>
					<g enable-background="new    ">
						<g>
							<path fill="#69C4EF" d="M26.8656,37.3295c-0.0009,0.4746-0.1687,0.8083-0.4384,0.9659l-0.9233,0.5357
								c0.2697-0.1576,0.4375-0.4913,0.4384-0.9659c0.0028-0.9557-0.6683-2.1181-1.4998-2.5982
								c-0.4181-0.241-0.7972-0.2642-1.0706-0.1047l0.9233-0.5357c0.2734-0.1585,0.6526-0.1363,1.0706,0.1047
								C26.1972,35.2114,26.8684,36.3747,26.8656,37.3295z"/>
						</g>
						<g>
							<path fill="#7BD3F7" d="M24.4426,35.2669c0.8315,0.4801,1.5028,1.6428,1.5001,2.5983
								c-0.0027,0.9548-0.6784,1.3405-1.5099,0.8605c-0.8309-0.4797-1.5028-1.6435-1.5001-2.5983
								C22.9354,35.1719,23.6117,34.7872,24.4426,35.2669z"/>
						</g>
					</g>
				</g>
			</g>
		</g>
		<g>
			<polygon fill="#D7D7D7" points="28.5189,22.1061 28.4399,49.981 15.287,42.3872 15.366,14.5123 			"/>
		</g>
		<g>
			<polygon fill="#B0AFB0" points="34.6822,18.5244 34.6031,46.3993 28.4399,49.981 28.5189,22.1061 			"/>
		</g>
		<g>
			<polygon fill="#E8E8E8" points="23.2266,0.1898 23.5205,0.019 33.079,5.5376 32.7851,5.7084 			"/>
		</g>
		<g>
			<g enable-background="new    ">
				<g>
					<polygon fill="#D7D7D7" points="29.1225,16.0576 28.8171,15.8801 28.2135,21.9286 28.5189,22.1061 					"/>
				</g>
				<g>
					<polygon fill="#E8E8E8" points="32.8362,13.8833 32.5308,13.7058 28.8171,15.8801 29.1225,16.0576 					"/>
				</g>
				<g>
					<polygon fill="#B0AFB0" points="29.1225,16.0576 28.5189,22.1061 34.385,18.6891 32.8362,13.8833 					"/>
				</g>
			</g>
		</g>
		<polygon fill="#E8E8E8" points="34.6376,18.4984 34.0435,18.4984 34.093,18.5273 28.517,21.768 15.9553,14.5155 15.9553,14.5155 
			15.9553,14.5155 15.6693,14.692 28.5189,22.1064 34.6821,18.5243 		"/>
		<g>
			<polygon fill="#D7D7D7" points="16.2782,8.6421 15.9728,8.4647 15.3692,14.5131 15.6746,14.6906 			"/>
		</g>
	</g>
	<g>
		<path fill="#2174BB" d="M28.5184,22.2854c-0.0222,1.7324-0.5964,15.606-13.2314,20.1016l13.1528,7.5938L28.5184,22.2854z"/>
	</g>
	<polygon fill="#B0AFB0" points="17.2899,29.0275 17.3563,17.9708 18.6084,18.6942 18.543,29.7509 	"/>
	<polygon fill="#B0AFB0" points="19.2192,24.6448 19.2856,18.9613 20.5377,19.6846 20.4723,25.3682 	"/>
</g>
</svg>
