<?xml version="1.0" encoding="utf-8"?>
<!-- Generator: Adobe Illustrator 18.0.0, SVG Export Plug-In . SVG Version: 6.00 Build 0)  -->
<!DOCTYPE svg PUBLIC "-//W3C//DTD SVG 1.1//EN" "http://www.w3.org/Graphics/SVG/1.1/DTD/svg11.dtd">
<svg version="1.1" id="Layer_1" xmlns="http://www.w3.org/2000/svg" xmlns:xlink="http://www.w3.org/1999/xlink" x="0px" y="0px"
	 viewBox="0 0 50 50" enable-background="new 0 0 50 50" xml:space="preserve">
<g>
	<g>
		<g enable-background="new    ">
			<path fill="#BFBFBF" d="M42.0247,37.3817c-9.3434,5.4297-24.5316,5.4297-33.9361,0c-4.7295-2.7306-7.093-6.3165-7.0829-9.8974
				L1,28.8722c-0.0102,3.581,2.3533,7.1668,7.0828,9.8974c9.4044,5.4297,24.5927,5.4297,33.9361,0
				c4.6418-2.6979,6.9653-6.2266,6.9753-9.7603L49,27.6214C48.9899,31.1557,46.6664,34.6844,42.0247,37.3817z"/>
			<g>
				<path fill="#E8E8E8" d="M41.9142,17.7245c9.4045,5.4297,9.4539,14.2273,0.1105,19.6571s-24.5316,5.4299-33.9361,0.0002
					c-9.3965-5.4251-9.4539-14.2273-0.1105-19.657S32.5176,12.2994,41.9142,17.7245z"/>
			</g>
			<g>
				<path fill="#D7D7D7" d="M36.9284,20.6225c6.6319,3.8289,6.6667,10.0328,0.0779,13.8618s-17.2992,3.8291-23.9311,0.0002
					c-6.6263-3.8257-6.6667-10.0328-0.0779-13.8618S30.3021,16.7968,36.9284,20.6225z"/>
			</g>
			<g>
				<path fill="#BFBFBF" d="M12.9973,21.8404c10.0473-5.839,27.9752-2.2166,28.8778,6.363
					c0.2954-2.7204-1.3439-5.5009-4.9468-7.5811c-6.6262-3.8254-17.3423-3.8286-23.9311,0.0005
					c-3.5421,2.058-5.1497,4.8037-4.8668,7.4971C8.3789,25.8332,9.9888,23.5883,12.9973,21.8404z"/>
			</g>
		</g>
	</g>
	<g>
		<g>
			<g>
				<g enable-background="new    ">
					<path fill="#A45826" d="M39.8741,22.2283l-0.0384,4.4904c-0.0192,2.1496-1.4201,4.2796-4.2412,5.911
						c-5.642,3.3013-14.8538,3.3013-20.5343,0c-2.8594-1.6502-4.2988-3.8185-4.2988-5.9878l0.0383-4.4904
						c0,2.1684,1.4393,4.3564,4.2988,6.0066c5.6806,3.2816,14.8922,3.2816,20.5536,0
						C38.454,26.5266,39.8549,24.3769,39.8741,22.2283z"/>
					<g>
						<path fill="#D89C60" d="M35.5676,16.2488c5.6853,3.2824,5.7152,8.6164,0.0546,11.906c-5.648,3.2823-14.8567,3.2824-20.542,0
							c-5.6975-3.2895-5.7275-8.6235-0.0794-11.9058C20.6614,12.9594,29.87,12.9593,35.5676,16.2488z"/>
					</g>
					<path fill="#D1B954" d="M10.7105,22.6862c-0.1104,0.6912-0.0886,1.4182-0.0884,2.1188
						c0.0001,0.2841-0.0188,0.5307,0.0744,0.7935c0.186,0.5244,0.344,0.3646,0.783,0.4885
						c0.9849,0.2779,0.8634,1.9151,1.7511,2.4942c0.3593,0.2344,0.5074,0.0765,0.8843,0.1038
						c0.6156,0.0446,0.8475,0.5752,1.1763,1.0718c0.3092,0.4671,0.7371,1.184,1.3046,1.3656
						c0.5588,0.1788,0.8208-0.2654,1.3714-0.3563c0.8219-0.1357,1.3119,0.5043,1.9086,0.9427
						c0.6025,0.4426,1.9716,1.4103,2.7263,1.0744c0.513-0.2283,0.5772-0.9101,1.2235-1.06c1.369-0.3176,2.6855,0.9769,4.0425,1.0786
						c1.9417,0.1454,1.9414-0.5809,3.2712-1.2943c1.3203-0.7084,2.2208-0.5572,3.6188-0.351
						c1.1062,0.1631,1.9118-1.1174,2.1802-2.0349c0.3151-1.077,1.0605-1.2014,2.021-1.6644
						c0.5949-0.2868,0.5832-0.428,0.6642-1.0657c0.0927-0.7294,0.2257-1.4351,0.25-2.1742
						c0.0286-0.8708,0.0926-1.8373-0.0027-2.6889c-1.5893,0.2163-1.6849,2.2925-2.3244,2.7497
						c-0.4071,0.2911-2.6906,0.0491-3.0793-0.0003c-2.3675-0.301-4.6304,1.8772-6.4521,2.342
						c-1.4468,0.3691-3.2177,0.2832-4.6883,0.1097c-1.5934-0.188-3.0515-0.9994-4.5161-1.6111
						c-1.4846-0.62-3.1298-1.1815-4.7505-1.2821c-0.6666-0.0414-2.0493,0.277-2.4922-0.3146
						C11.4559,23.3721,11.2054,21.749,10.7105,22.6862z"/>
					<path fill="#DCC55E" d="M10.5,22.0156c-0.1104,0.6912-0.0886,1.4182-0.0884,2.1188c0.0001,0.2841-0.0188,0.5307,0.0744,0.7935
						c0.186,0.5244,0.344,0.3646,0.783,0.4885c0.9849,0.2779,0.8634,1.9151,1.7511,2.4942
						c0.3593,0.2344,0.5074,0.0765,0.8843,0.1038c0.6156,0.0446,0.8475,0.5752,1.1763,1.0718
						c0.3092,0.4671,0.7371,1.184,1.3046,1.3656c0.5588,0.1788,0.8208-0.2654,1.3714-0.3563
						c0.8219-0.1357,1.3119,0.5043,1.9086,0.9427c0.6025,0.4426,1.9716,1.4103,2.7263,1.0744
						c0.513-0.2283,0.5772-0.9101,1.2235-1.06c1.369-0.3176,2.6855,0.9769,4.0425,1.0786c1.9417,0.1454,1.9414-0.5809,3.2712-1.2943
						c1.3203-0.7084,2.2208-0.5572,3.6188-0.351c1.1062,0.1631,1.9118-1.1174,2.1802-2.0349
						c0.3151-1.077,1.0605-1.2014,2.021-1.6644c0.5949-0.2868,0.5832-0.428,0.6642-1.0657c0.0927-0.7294,0.2257-1.4351,0.25-2.1742
						c0.0286-0.8708,0.0926-1.8373-0.0027-2.6889c-1.5893,0.2163-1.6849,2.2925-2.3244,2.7497
						c-0.2936,0.2099-0.6824,0.1338-1.0314,0.1334c-2.4441-0.0026-2.0851-0.4546-4.1463,0.1579
						c-1.5529,0.4614-2.8058,1.6555-4.3537,2.0504c-1.4468,0.3691-3.2177,0.2832-4.6883,0.1097
						c-1.5934-0.188-3.0515-0.9994-4.5161-1.6111c-1.4846-0.62-3.1298-1.1815-4.7505-1.2821
						c-0.6666-0.0414-2.0493,0.277-2.4922-0.3146C11.2453,22.7015,10.9949,21.0784,10.5,22.0156z"/>
				</g>
			</g>
			<g>
				<path fill="#603F22" d="M39.799,18.8675c-0.5667,1.5716-1.8933,3.0526-3.9798,4.2632c-5.7571,3.3488-15.1334,3.3488-20.942,0
					c-2.1123-1.2238-3.4646-2.7306-4.0442-4.3016c-0.9917,2.7432,0.3606,5.731,4.0442,7.856c5.8086,3.3488,15.1849,3.3488,20.942,0
					C39.4642,24.5601,40.7908,21.6106,39.799,18.8675z"/>
				<path fill="#704E2C" d="M14.8772,23.1306c5.8086,3.3488,15.1849,3.3488,20.942,0c2.0865-1.2106,3.4131-2.6916,3.9798-4.2632
					c-2.4591-6.8196-16.9041-9.016-24.9863-4.3148c-2.0994,1.2106-3.4259,2.7048-3.9797,4.2764
					C11.4126,20.4,12.765,21.9068,14.8772,23.1306z"/>
				<path fill="#E8E8E8" d="M22.0064,22.5631c3.6344,4.9546,3.5102,1.2701,4.4879,4.2436c0.2384,0.725,0.6813,1.3082,1.3215,1.7426
					c0.3769,0.2558,0.7909,0.3548,1.1338-0.0567c0.2366-0.284,0.2251-0.6449,0.5067-0.9171
					c0.2212-0.2138,0.4346-0.3254,0.7212-0.3523c0.3878-0.0363,0.7758,0.158,1.1613,0.1037
					c0.7609-0.1071,0.6354-1.1485,0.5731-1.7118c-0.0878-0.7942-0.835-1.6729-0.6115-2.499
					c0.1367-0.5054,0.4911-0.8491,0.4337-1.4399c-0.055-0.5656-0.4949-1.247-0.9689-1.5529
					c-0.5885-0.3798-1.4359-0.3079-2.0995-0.3073c-2.5763,0.0024-2.5711,1.2136-3.9669,1.6323
					c-1.4147,0.4245-3.466-0.3951-3.7601,0.4733c-0.2377,0.7018,1.0062,0.9704,1.4589,1.0627"/>
			</g>
			<g>
				<g enable-background="new    ">
					<g>
						<polygon fill="#DCC55E" points="32.8778,19.585 32.8762,20.1415 21.7983,26.5793 21.7999,26.0228 						"/>
					</g>
					<g>
						<polygon fill="#EFD874" points="21.7999,26.0228 21.7983,26.5793 10.6481,20.1417 10.6497,19.5852 						"/>
					</g>
					<g>
						<polygon fill="#F7E28E" points="32.8778,19.585 21.7999,26.0228 10.6497,19.5852 21.7276,13.1474 						"/>
					</g>
				</g>
			</g>
			<g>
				<path fill="#73AE43" d="M14.0785,19.8614l0.0023,0.7969c-0.006-2.1109,5.4251-2.0407,5.4309-0.0158l-0.0023-0.7969
					C19.5035,17.79,14.0726,17.7831,14.0785,19.8614z"/>
				<path fill="none" d="M13.5895,19.8633c0.0127,0.7467-0.0245,0.8551,0.0461,1.098l-0.0023-0.7969
					C13.6042,20.0643,13.5897,19.9636,13.5895,19.8633z"/>
				<path fill="none" d="M13.5895,19.8633C13.5953,21.829,13.5889,19.678,13.5895,19.8633"/>
				<path fill="none" d="M13.5899,19.8913c0.0084,0.7092-0.0142,0.7923,0.0229,0.9772
					C13.6126,20.8608,13.6216,20.9773,13.5899,19.8913"/>
				<path fill="none" d="M13.6106,20.0716c0.0154,0.823-0.0204,0.7335,0.0251,0.8898l-0.0023-0.7969
					C13.6244,20.1336,13.6168,20.1026,13.6106,20.0716"/>
				<path fill="none" d="M19.999,20.6418l-0.0023-0.7969c0.0011,0.3987-0.2165,0.7975-0.6535,1.1286l0.0023,0.7969
					C19.7824,21.4394,20.0001,21.0405,19.999,20.6418z"/>
				<path fill="#80BC41" d="M19.3432,20.9736l0.0023,0.7969c0.437-0.3311,0.6546-0.73,0.6535-1.1286l-0.0023-0.7969
					C19.9978,20.2436,19.7802,20.6424,19.3432,20.9736L19.3432,20.9736z"/>
				<path fill="#73AE43" d="M10.3673,22.0065l0.0049,0.7969c0-0.4057,0.2688-0.8115,0.8016-1.1194
					c1.3658-0.7953,3.0373-0.3225,3.1576-0.3177l-0.0049-0.7969c-0.2536-0.0101-1.7041-0.5254-3.1528,0.3177
					C10.6361,21.1953,10.3673,21.601,10.3673,22.0065z"/>
				<path fill="#80BC41" d="M18.4081,21.1416l0.0049,0.7967c0.2901,0.0517,1.0992,0.0555,1.833,0.479
					c0.5279,0.3029,0.787,0.7038,0.7919,1.1046l-0.0049-0.7967c0-0.4007-0.2639-0.8017-0.787-1.1048
					C19.5073,21.1944,18.6884,21.1914,18.4081,21.1416z"/>
				<path fill="#73AE43" d="M9.8785,22.0115l0.0049,0.7967c0,0.4692,0.3079,0.9385,0.9238,1.2953
					c1.2318,0.7136,3.2212,0.7284,4.4774,0.0344v-0.7967c-1.2611,0.6941-3.2505,0.6793-4.4774-0.0344
					C10.1913,22.95,9.8834,22.4808,9.8785,22.0115z"/>
				<path fill="#80BC41" d="M21.5239,23.5216l-0.0023-0.7969c0.0014,0.4787-0.314,0.9582-0.9453,1.3228
					c-1.2546,0.7243-3.2889,0.7243-4.5352,0.0001c-0.3442-0.2-0.6011-0.4397-0.7583-0.7046l0.0023,0.7969
					c0.1572,0.2649,0.4141,0.5046,0.7583,0.7046c1.2463,0.7243,3.2807,0.7243,4.5352-0.0001
					C21.21,24.4798,21.5253,24.0003,21.5239,23.5216z"/>
				<path fill="#A9C838" d="M10.8277,20.6852c0.7459-0.4306,1.7891-0.6198,2.8056-0.5207
					c-0.5199-1.7878,3.2705-2.8827,5.4342-1.6252c1.138,0.6613,1.2315,1.7099,0.2756,2.4343
					c2.2962,0.4498,2.8921,2.1161,1.2331,3.0739c-1.2546,0.7243-3.2889,0.7243-4.5352,0.0001
					c-0.3442-0.2-0.6011-0.4397-0.7583-0.7046c-1.2574,0.6901-3.2483,0.6793-4.4761-0.0343
					C9.5634,22.5862,9.5731,21.4095,10.8277,20.6852z M14.998,23.1087c0.0749-0.0432,0.153-0.0919,0.2155-0.1387l0.3342-0.2505
					l0.0978,0.3099c0.1008,0.3117,0.3574,0.5946,0.742,0.818c1.0572,0.6144,2.7806,0.6144,3.8448,0s1.0698-1.6127,0.0125-2.2271
					c-0.7432-0.4319-1.5895-0.4342-1.8358-0.4775l0.3183-0.1874c1.0456-0.6144,1.0418-1.6072-0.0062-2.2163
					c-1.9928-1.1581-5.3381,0.0274-4.5256,1.5748l0.1324,0.2541c-0.2536-0.0099-1.7045-0.5209-3.156,0.3171
					c-1.0611,0.6126-1.073,1.6108-0.0188,2.2235C12.2105,23.7232,13.9369,23.7213,14.998,23.1087L14.998,23.1087z"/>
				<g>
					<g enable-background="new    ">
						<g>
							<path fill="#C2A0CB" d="M32.5684,24.4739l-0.0023,0.8152c0.0133-4.6795-12.0882-4.5655-12.1011-0.0346l0.0023-0.8152
								C20.4803,19.8552,32.5815,19.8379,32.5684,24.4739z"/>
						</g>
						<g>
							<path fill="#EBB41F" d="M33.32,24.4758l-0.0023,0.8152c-0.0028,1.0036-0.6605,2.0053-1.9721,2.7675
								c-2.6454,1.5373-6.9665,1.5411-9.6289,0.0039c-1.3381-0.7726-2.0056-1.7891-2.0028-2.8044l0.0023-0.8152
								c-0.0029,1.0153,0.6646,2.0318,2.0028,2.8044c2.6624,1.5372,6.9835,1.5334,9.6289-0.0039
								C32.6594,26.4811,33.3171,25.4794,33.32,24.4758z"/>
						</g>
						<g>
							<path fill="#F8C814" d="M31.3163,21.6699c2.6624,1.5372,2.6701,4.0401,0.0316,5.5734
								c-2.6454,1.5373-6.9665,1.5411-9.6289,0.0039c-2.6624-1.5371-2.6701-4.0401-0.0247-5.5774
								C24.3328,20.1365,28.6539,20.1327,31.3163,21.6699z M22.2521,26.9374c2.3687,1.3676,6.206,1.364,8.5596-0.0038
								c2.3532-1.3675,2.3407-3.5866-0.028-4.9542c-2.3687-1.3676-6.2061-1.3712-8.5593-0.0037
								C19.8707,23.3435,19.8834,25.5699,22.2521,26.9374"/>
						</g>
					</g>
				</g>
				<g>
					<g enable-background="new    ">
						<g>
							<path fill="#C2A0CB" d="M40.827,22.5688l-0.0023,0.8152c0.0026-0.9024-0.5928-1.8063-1.7848-2.4945
								c-3.7599-2.1708-10.3074-0.6686-10.3163,2.4599l0.0023-0.8152c0.0089-3.13,6.5381-4.6412,10.3163-2.4599
								C40.2342,20.7625,40.8295,21.6664,40.827,22.5688z"/>
						</g>
						<g>
							<path fill="#C2A0CB" d="M41.5786,22.5707l-0.0023,0.8152c-0.0028,1.0036-0.6605,2.0053-1.9721,2.7675
								c-2.6454,1.5373-6.9665,1.5411-9.6289,0.0039c-1.3381-0.7726-2.0056-1.7891-2.0028-2.8044l0.0023-0.8152
								c-0.0029,1.0153,0.6646,2.0318,2.0028,2.8044c2.6624,1.5372,6.9835,1.5334,9.6289-0.0039
								C40.918,24.576,41.5757,23.5743,41.5786,22.5707z"/>
						</g>
						<g>
							<path fill="#DCC2DD" d="M39.5749,19.7647c2.6624,1.5372,2.6701,4.0401,0.0316,5.5734
								c-2.6454,1.5373-6.9665,1.5411-9.6289,0.0039c-2.6624-1.5371-2.6701-4.0401-0.0247-5.5774
								C32.5914,18.2314,36.9125,18.2276,39.5749,19.7647z M30.5106,25.0323c2.3687,1.3676,6.206,1.364,8.5596-0.0038
								c2.3532-1.3675,2.3407-3.5866-0.028-4.9542c-2.3687-1.3676-6.2061-1.3712-8.5593-0.0037
								C28.1293,21.4384,28.142,23.6648,30.5106,25.0323"/>
						</g>
					</g>
				</g>
				<g>
					<g enable-background="new    ">
						<g>
							<path fill="#C2A0CB" d="M36.0283,20.4533l-0.0023,0.8152c0.0133-4.6795-12.0882-4.5655-12.1011-0.0346l0.0023-0.8152
								C23.9403,15.8346,36.0414,15.8173,36.0283,20.4533z"/>
						</g>
						<g>
							<path fill="#C2A0CB" d="M36.7799,20.4552l-0.0023,0.8152c-0.01,3.547-7.3993,5.1973-11.601,2.7714
								c-1.3381-0.7726-2.0056-1.7891-2.0028-2.8044l0.0023-0.8152c-0.0029,1.0153,0.6646,2.0318,2.0028,2.8044
								C29.3782,25.6511,36.7699,23.9985,36.7799,20.4552z"/>
						</g>
						<g>
							<path fill="#DCC2DD" d="M34.7763,17.6493c2.6624,1.5372,2.6701,4.0401,0.0316,5.5734
								c-2.6454,1.5373-6.9665,1.5411-9.6289,0.0039c-2.6624-1.5371-2.6701-4.0401-0.0247-5.5774
								C27.7928,16.1159,32.1139,16.1121,34.7763,17.6493z M25.712,22.9168c2.3687,1.3676,6.206,1.364,8.5596-0.0038
								c2.3532-1.3675,2.3407-3.5866-0.028-4.9542c-2.3687-1.3676-6.2061-1.3712-8.5593-0.0037
								C23.3306,19.3229,23.3433,21.5493,25.712,22.9168"/>
						</g>
					</g>
				</g>
				<g>
					<g enable-background="new    ">
						<g>
							<path fill="#C2A0CB" d="M25.1541,21.3785l-0.0023,0.8152c0.0129-4.54-12.0878-4.7016-12.1011-0.0346l0.0023-0.8152
								C13.0664,16.653,25.1669,16.855,25.1541,21.3785z"/>
						</g>
						<g>
							<path fill="#C2A0CB" d="M25.9057,21.3804c-0.0942,0.4006,0.529,2.1279-1.9744,3.5827
								c-2.6454,1.5373-6.9665,1.5411-9.6289,0.0039c-1.3381-0.7726-2.0056-1.7891-2.0028-2.8044l0.0023-0.8152
								c-0.0029,1.0153,0.6646,2.0318,2.0028,2.8044c2.6624,1.5372,6.9835,1.5334,9.6289-0.0039
								C25.2452,23.3857,25.9029,22.384,25.9057,21.3804z"/>
						</g>
						<g>
							<path fill="#DCC2DD" d="M23.9021,18.5744c2.6624,1.5372,2.6701,4.0401,0.0316,5.5734
								c-2.6454,1.5373-6.9665,1.5411-9.6289,0.0039c-2.6624-1.5371-2.6701-4.0401-0.0247-5.5774
								C16.9186,17.041,21.2397,17.0373,23.9021,18.5744z M14.8378,23.842c2.3687,1.3676,6.206,1.364,8.5596-0.0038
								c2.3532-1.3675,2.3407-3.5866-0.028-4.9542c-2.3687-1.3676-6.2061-1.3712-8.5593-0.0037
								C12.4564,20.2481,12.4691,22.4744,14.8378,23.842"/>
						</g>
					</g>
				</g>
			</g>
			<g>
				<path fill="#FDDB00" d="M33.7752,19.3095v0.7967c1.4965-1.0953,3.2833-1.0311,4.3894-0.3909
					c0.523,0.3029,0.787,0.7038,0.787,1.1046l-0.0049-0.7967c0-0.4007-0.2639-0.8017-0.787-1.1048
					c-1.2343-0.7176-3.2491-0.5249-4.0522,0.1418L33.7752,19.3095z"/>
				<path fill="#F8C814" d="M28.2859,19.2998l0.0049,0.7869c0-1.9002,4.7679-2.1341,5.3817-0.2933l0.1026,0.3129v-0.7967
					c-0.1008-0.1963-0.083-0.6794-0.8456-1.1292c-1.0558-0.611-2.7813-0.611-3.842,0
					C28.5548,18.4883,28.2859,18.894,28.2859,19.2998z"/>
				<path fill="#F8C814" d="M27.7992,19.3032c0.0586,0.3256-0.5191,2.039,2.1777,2.5463l-0.0023-0.7969
					C28.9925,20.8678,27.802,20.2746,27.7992,19.3032z"/>
				<path fill="#F8C814" d="M39.4392,20.8178l-0.0023-0.7969c0.004,1.3973-2.2546,1.989-3.7525,1.8408l0.0023,0.7969
					C37.1445,22.8029,39.4432,22.2253,39.4392,20.8178z"/>
				<path fill="#EEC826" d="M34.9923,21.4602l0.0049,0.7967c0.0709,0.1601,0.2444,0.3787,0.2444,0.7038
					c-0.0231-0.6482,0.0693-0.8967-0.1173-1.2464L34.9923,21.4602z"/>
				<path fill="#F6D341" d="M29.811,22.9803c0-0.7469,0.9969-1.2123,1.1047-1.3001l-0.0049-0.7969l-0.3226,0.1907
					C29.4748,21.7357,29.8857,22.5194,29.811,22.9803z"/>
				<path fill="#FDDB00" d="M29.3211,22.1827c0.0859,0.4774-0.3472,1.3581,0.9314,2.1012c1.9683,1.1439,5.4831,0.35,5.4784-1.3212
					l-0.0023-0.7969C35.7357,24.657,29.3279,24.568,29.3211,22.1827z"/>
				<path fill="#FDE34B" d="M28.7445,17.9805c1.6232-0.9372,4.4982-0.6296,5.2904,0.7063c1.2576-0.69,3.2483-0.6793,4.4731,0.0325
					c2.172,1.2622,0.2628,3.4478-2.8235,3.1424c0.5241,1.8126-3.2927,2.8697-5.4342,1.6252
					c-1.138-0.6613-1.2316-1.7064-0.2756-2.4343C27.7724,20.6383,27.029,18.9709,28.7445,17.9805z M34.4352,23.2869
					c1.3954-0.8056,0.5691-1.7252,0.5578-1.8271c0.1293,0.0051,1.7813,0.4766,3.1529-0.3153
					c1.0642-0.6144,1.0699-1.6126,0.0157-2.2252c-1.2311-0.7154-3.236-0.5324-4.0541,0.1387l-0.3342,0.2505
					c-0.0911-0.1785-0.0886-0.6878-0.8429-1.1262c-1.0572-0.6144-2.7806-0.6144-3.8417-0.0018
					c-1.0642,0.6144-1.0698,1.6127-0.0125,2.2271c0.7549,0.4387,1.5907,0.4342,1.8358,0.4775l-0.3215,0.1892
					c-1.0423,0.6127-1.0387,1.6054,0.0063,2.2127C31.6509,23.8995,33.3741,23.8995,34.4352,23.2869L34.4352,23.2869z"/>
			</g>
			<g>
				<path fill="#CF2027" d="M18.2636,22.8343c-0.1664-1.9112,4.5986-2.5359,5.3356-0.7637l0.1294,0.3028l-0.074-0.7935
					l-0.1245-0.3032c-0.5648-1.3043-3.3015-1.3449-4.6385-0.4155C17.8267,21.6179,18.3018,22.3386,18.2636,22.8343z"/>
				<path fill="#E02426" d="M23.6546,21.5799l0.074,0.7935c2.1574-1.8884,5.1093-0.9956,5.2188,0.262
					c-0.1214-0.4747,0.203-1.2865-0.9489-1.8261c-1.3114-0.6138-3.3011-0.2304-4.0295,0.4931L23.6546,21.5799z"/>
				<path fill="#CF2027" d="M17.7036,22.0932c0.1319,0.4867-0.2355,1.3773,1.1124,2.0129c0.3684,0.174,0.8052,0.2881,1.2803,0.3351
					l-0.074-0.7935C19.0438,23.5494,17.7987,23.0692,17.7036,22.0932z"/>
				<path fill="#E02426" d="M29.4354,22.5908L29.364,21.797c0.1251,1.3917-2.0765,2.1791-3.5816,2.1614l0.0714,0.7937
					c1.0247,0.0121,2.0474-0.2669,2.7531-0.7606C29.2049,23.5731,29.4782,23.0677,29.4354,22.5908z"/>
				<path fill="#CF2027" d="M25.0586,23.6165l0.0691,0.7939c0.0891,0.1601,0.2799,0.3403,0.3098,0.6843
					c-0.087-0.7076-0.0093-0.8942-0.2254-1.2365L25.0586,23.6165z"/>
				<path fill="#CF2027" d="M19.9595,24.7868l0.0731,0.7835c-0.0343-0.3945,0.1938-0.8168,0.6789-1.1631l0.3053-0.2132
					l-0.074-0.7933l-0.3004,0.2125C20.1481,23.9656,19.9248,24.3873,19.9595,24.7868z"/>
				<path fill="#E02426" d="M19.4721,24.83l0.0714,0.7937c0.0424,0.4711,0.3912,0.9149,1.0375,1.2188
					c1.3046,0.6135,3.3279,0.4355,4.515-0.3949c0.5814-0.4067,0.8731-0.9095,0.8294-1.3948l-0.0714-0.7937
					c0.1527,1.6986-3.3035,2.7495-5.3444,1.7897C19.8633,25.7449,19.5144,25.3011,19.4721,24.83z"/>
				<path fill="#EE4541" d="M18.532,20.6937c1.5494-1.0839,4.4391-1.0061,5.3347,0.2428c1.193-0.7965,3.1772-0.9584,4.459-0.3556
					c2.2735,1.0692,0.5579,3.4141-2.5433,3.3775c0.6834,1.7414-3.0161,3.1517-5.2728,2.0904
					c-1.191-0.5601-1.372-1.5952-0.4857-2.4012C17.7348,23.4085,16.9429,21.8054,18.532,20.6937z M24.6643,25.4845
					c0.6762-0.473,0.8877-1.0955,0.5482-1.6248l-0.1539-0.2416c0.2535-0.0121,1.7433,0.3711,3.1166-0.5896
					c1.004-0.7023,0.9261-1.6993-0.1773-2.2182c-1.2885-0.606-3.273-0.2476-4.0297,0.4918l-0.3113,0.2785l-0.1275-0.3018
					c-0.5194-1.2281-3.2107-1.4137-4.6373-0.4157c-1.442,1.0088-0.5609,2.4631,1.6006,2.5248l0.4503,0.0114l-0.301,0.2143
					c-0.9852,0.7008-0.8985,1.6915,0.1952,2.2059C21.9407,26.3384,23.6574,26.1889,24.6643,25.4845L24.6643,25.4845z"/>
			</g>
			<g>
				<g>
					<path fill="#589441" d="M22.7535,23.9392c-0.096,0.3896,0.2813,0.7619,0.676,0.8342c0.5335,0.0977,1.2525-0.2442,1.6604-0.192
						c0.3163,0.0405,0.5776,0.2693,0.8859,0.3505c0.7651,0.2015,1.468-0.5353,2.2568-0.596
						c0.428-0.0329,0.8415,0.1365,1.2565,0.2464c1.1483,0.3043,1.3476-0.2575,1.6571-0.4926
						c0.722-0.5486,1.911,0.1647,2.6201-0.4004c0.3094-0.2466,0.4438-0.6897,0.7993-0.8634
						c0.4856-0.2373,1.1837,0.1303,1.5571-0.2604c0.1264-0.1323,0.1747-0.3218,0.2891-0.4646
						c0.4704-0.5872,1.6113-0.0217,2.0906-0.6016c0.3673-0.4444,0.0198-1.2149,0.4072-1.642
						c0.2988-0.3293,0.8319-0.2385,1.2516-0.3851c0.6397-0.2234,0.9243-0.9512,1.1317-1.5964
						c0.0198-0.0616,0.0398-0.1272,0.0237-0.1899c-0.0411-0.1604-0.258-0.1752-0.4058-0.25
						c-0.705-0.3565,0.3283-1.9109-0.5441-2.0688c-0.1921-0.0348-0.9915,0.1393-0.6059-1.1723
						c0.5652-0.05,1.2782-1.3238-0.8763-2.0349c-2.0181-0.6661-1.2653-1.5968-2.0659-1.938
						c-0.5645-0.2406-1.1827,0.4525-1.7722,0.282c-0.2181-0.0631-0.3851-0.2347-0.5788-0.3532
						c-0.9867-0.6036-1.6102,0.3227-2.01,0.4062c-0.385,0.0804-0.723-0.2353-1.0563-0.444
						c-1.2713-0.7958-2.4089,0.1016-2.6559,0.1791c-0.9209,0.2887-2.5979-1.4068-4.686-0.593
						c-0.7397,0.2883-0.6271,0.254-1.3267,0.1046c-1.2707-0.2714-2.2587,0.6008-2.133,1.5633
						c-0.4509-0.5718-1.3638-0.5643-2.0884-0.4917c-0.0635,0.0064-0.1343,0.0179-0.1721,0.0693
						C18.2983,11,18.314,11.0769,18.3268,11.1447c0.0585,0.3089,0.0176,0.6339-0.1023,0.9246
						c-0.173,0.4193-0.4344,0.6982-1.8543,2.5181c-0.8266,1.0594-1.4068,0.9883-2.1709,2.0001
						c-0.9119,1.2075,0.583,1.1361,0.8855,2.9466c0.1639,0.9808,0.6613,0.6557,1.0614,1.1432
						c0.2192,0.2672,0.188,0.6566,0.3134,0.9787c0.3583,0.9203,1.658,0.8952,2.1699,1.1179
						c0.465,0.2023,0.7982,0.6142,1.1843,0.9431c0.386,0.3289,0.9167,0.5892,1.3892,0.405
						c0.2081-0.0811,0.3753-0.2383,0.5572-0.3678c0.1819-0.1295,0.4024-0.2366,0.6216-0.1939
						C22.6009,23.6028,22.8069,23.7224,22.7535,23.9392z"/>
					<path fill="#80BC41" d="M41.0979,17.7721c0,0.0098-0.0095,0.0289-0.0095,0.0382c-0.4259,1.1541-0.6097,1.3799-1.4394,1.5253
						c-0.3146,0.0382-0.6673,0.0856-0.9151,0.3621c-0.2574,0.2863-0.2669,0.6484-0.2764,0.9821c0,1.716-1.6868,0.1305-2.3831,1.5253
						c-0.101,0.2007-0.1651,0.3707-0.7722,0.3049c-0.1788,0-0.5342-0.0547-0.8388,0.1047
						c-0.4806,0.2312-0.5209,0.6401-0.8484,0.8867c-0.6427,0.5216-1.995-0.3572-2.8407,0.6102
						c-0.0572,0.0666-0.1239,0.1238-0.1906,0.1713c-0.259,0.1994-0.7201,0.1592-1.0295,0.067
						c-0.425-0.1236-0.8373-0.2579-1.2106-0.2579c-0.0381,0-0.0858,0-0.1334,0.0098c-0.6415,0.049-1.4641,0.6293-1.9637,0.6293
						c-0.2043,0-0.378-0.0793-0.5528-0.1811c-0.2456-0.1233-0.4209-0.2099-0.7149-0.2099c-0.143,0-0.286,0.0191-0.4194,0.0573
						l-0.1907,0.0475c-0.2479,0.0573-0.4766,0.1145-0.6958,0.1145c-0.0667,0-0.1335-0.0093-0.2002-0.0191
						c-0.1716-0.0284-0.3432-0.1429-0.429-0.2858c-0.1574-0.237,0.0507-0.3558-0.1144-0.6391
						c-0.1944-0.2833-0.7056-0.4819-1.3059-0.0568l-0.1525,0.1145c-0.1144,0.095-0.2288,0.1806-0.3527,0.2285
						c-0.0763,0.0284-0.1621,0.0475-0.2479,0.0475c-0.2669,0-0.6005-0.1522-0.9056-0.4096c-2.0228-1.841-3.1156-0.8205-3.365-2.3165
						c-0.3013-1.4479-1.1116-0.7191-1.2678-1.6589c-0.3287-1.9166-1.6769-1.8411-0.9437-2.8309
						c0.2097-0.2858,0.4671-0.5339,0.7435-0.7438c1.1979-0.8366,0.8029-0.4617,2.7644-2.9645
						c0.4408-0.5873,0.8243-1.117,0.6672-1.9256c2.0962-0.1204,1.8282,0.6561,2.2115,0.8769l0.1526,0.1908
						c0,0.0093,0.0095,0.0093,0.019,0.0191c0.0044-0.129-0.65-2.1923,1.325-2.1923c0.8941,0,0.705,0.4141,1.8779-0.0763
						c2.1564-0.9038,3.4268,1.2352,5.0807,0.4101c2.1047-0.8715,2.2092,0.6497,3.2792,0.4668
						c0.5518-0.1206,0.9414-1.0316,2.0018-0.324c1.3535,0.9676,1.9627-0.9833,2.6214,0.5525
						c0.6862,1.6702,2.2636,1.0999,2.8597,2.0689c0.1912,0.2864,0.0717,0.8245-0.2479,0.8671l-0.162,0.0098
						c-0.5639,1.9176,0.736,1.5178,0.8483,1.7063c0.3247,0.4685-0.5366,1.6709,0.5434,2.0401
						C41.0122,17.7339,41.0789,17.753,41.0979,17.7721z"/>
					<path fill="#73AE43" d="M24.9023,9.7458c-0.0572,0.1527-0.162,0.2858-0.2383,0.4194c-0.2596,0.423-0.2533,0.4472-0.877,0.4194
						c-0.8004-0.0244-0.7379,0.5282-0.8103,0.6293c-0.1475,0.2212-0.9967-0.1782-1.2297,0.5911
						c-0.1048,0.343-0.2097,0.5432-0.6196,0.4478c-0.0762-0.0186-0.1334-0.0382-0.1811-0.0666
						c0.0119-0.3518-0.6774-2.57,1.8875-2.1164c0.8295,0.1954,0.885-0.0261,1.3155-0.1522
						C24.3876,9.8315,24.6355,9.7747,24.9023,9.7458z"/>
					<path fill="#73AE43" d="M41.0979,17.7721c-0.4351,1.1969-0.6459,1.4227-1.4489,1.5634
						c-0.3146,0.0382-0.6673,0.0856-0.9151,0.3621c-0.2574,0.2863-0.2669,0.6484-0.2764,0.9821c0,1.716-1.6868,0.1305-2.3831,1.5253
						c-0.101,0.2007-0.1651,0.3707-0.7722,0.3049c-0.1788,0-0.5342-0.0547-0.8388,0.1047
						c-0.4806,0.2312-0.5209,0.6401-0.8484,0.8867c-0.6427,0.5216-1.995-0.3572-2.8407,0.6102
						c-0.0572,0.0666-0.1239,0.1238-0.1906,0.1713c-0.259,0.1994-0.7201,0.1592-1.0295,0.067
						c-0.425-0.1236-0.8373-0.2579-1.2106-0.2579c-0.0381,0-0.0858,0-0.1334,0.0098c-0.6415,0.049-1.4641,0.6293-1.9637,0.6293
						c-0.2043,0-0.378-0.0793-0.5528-0.1811c-0.2456-0.1233-0.4209-0.2099-0.7149-0.2099c-0.143,0-0.286,0.0191-0.4194,0.0573
						l-0.1907,0.0475c-0.2479,0.0573-0.4766,0.1145-0.6958,0.1145c-0.0667,0-0.1335-0.0093-0.2002-0.0191
						c-0.1716-0.0284-0.3432-0.1429-0.429-0.2858c-0.1574-0.237,0.0507-0.3558-0.1144-0.6391
						c-0.1389-0.2024-0.4574-0.3049-0.6482-0.3049c-0.4015,0-0.7096,0.3018-0.8102,0.3626
						c-0.1144,0.095-0.2288,0.1806-0.3527,0.2285c-0.0763,0.0284-0.1621,0.0475-0.2479,0.0475
						c-0.2669,0-0.6005-0.1522-0.9056-0.4096c-2.0228-1.841-3.1156-0.8205-3.365-2.3165c-0.3013-1.4479-1.1116-0.7191-1.2678-1.6589
						c-0.3677-2.1439-2.43-2.0204,0.0953-3.7841c0.2955,0.8197,0.2764,1.7254,0.1716,2.5926
						c0.4828,2.119,1.6007,1.7054,2.1639,2.2691c0.2097,0.2095,0.2955,0.5241,0.5243,0.7149
						c0.2669,0.2285,0.6768,0.2192,0.9819,0.3905c0.3527,0.1908,0.5624,0.6009,0.9532,0.7149
						c0.6768,0.2001,1.5061-0.6479,2.0304-0.1713c0.162,0.1429,0.2192,0.3714,0.3432,0.553
						c0.1239,0.1811,0.4099,0.2951,0.5528,0.1331c0.0844-0.1004,0.3282-1.0636,1.611-0.324
						c0.4957,0.2858,1.0677,0.6675,1.5824,0.4291c0.0191-0.4864,0.5147-0.8485,0.9914-0.8867
						c0.4862-0.0475,0.9532,0.1429,1.4108,0.324c0.4453-2.1776,1.7728-0.313,2.5547-0.5432
						c-0.0191-0.3528,0.3241-0.6675,0.6768-0.6195c0.143,0.0191,0.286,0.0954,0.429,0.0856
						c0.4194-0.0093,0.5434-0.5813,0.8865-0.8197c0.4481-0.2858,1.0772,0.0666,1.5633-0.162
						c0.5434-0.2574,0.6577-1.1441,1.2583-1.2106c0.3908-0.0479,0.7245,0.324,1.1153,0.3523
						c0.6864,0.0572,0.9819-0.8006,1.3631-1.3628c0.4194-0.6004,1.1439-0.9532,1.8779-0.9914
						c0.0802,0.2725,0.2699,0.3869,0.5052,0.4673C41.0122,17.7339,41.0789,17.753,41.0979,17.7721z"/>
					<path fill="#73AE43" d="M41.0979,17.7721c0,0.0098-0.0095,0.0289-0.0095,0.0382c-0.8064,0.0414-2.3044,0.056-2.6595-0.667
						c-0.1936-0.3954,0.0086-1.754-0.4099-1.7063c-0.0858,0-0.143,0.0666-0.1907,0.1336c-0.2288,0.3049-0.4575,0.6097-0.6863,0.9244
						c-0.9559-0.7934,0.7962-2.309,0.1239-3.2507c-0.407-0.405-0.9065,0.2707-1.1058,0.7438
						c-0.143,0.3714-0.2383,0.7624-0.4766,1.0771c-0.2383,0.3146-0.6863,0.5148-1.0295,0.324
						c-0.2764-1.0198,0.877-2.0587,0.5338-3.0599c-0.591,0.1718-1.1057,0.553-1.4489,1.0584
						c-0.2479,0.3621-0.4004,0.7908-0.7149,1.0961c-0.3146,0.3049-0.8865,0.4287-1.1725,0.0856
						c0.304-1.3676,0.7361-2.6358-0.2764-2.2304c-1.319,0.5465-2.0031,1.5544-2.345,1.7254
						c-0.2288,0.114-0.5433,0.114-0.7054-0.0861c-0.4624-0.5547,0.731-1.2878,0.0095-2.1732
						c-0.9558-1.2213-3.8095,0.3943-4.0227-1.9921c2.4172-0.5229,3.0494,1.3475,4.7185,0.5148
						c2.1047-0.8715,2.2092,0.6497,3.2792,0.4668c0.5518-0.1206,0.9414-1.0316,2.0018-0.324
						c1.3535,0.9676,1.9627-0.9833,2.6214,0.5525c0.6862,1.6702,2.2636,1.0999,2.8597,2.0689
						c0.1912,0.2864,0.0717,0.8245-0.2479,0.8671l-0.162,0.0098c-0.5639,1.9176,0.736,1.5178,0.8483,1.7063
						c0.3247,0.4685-0.5366,1.6709,0.5434,2.0401C41.0122,17.7339,41.0789,17.753,41.0979,17.7721z"/>
					<path fill="#A9C838" d="M40.0916,15.7603c0.5478,0.2379-0.1278,0.6946-0.0877,1.2894
						c0.0488,0.7248,0.6731,0.4028,0.6538,1.0791c-0.0165,0.579-0.4821,1.0112-1.0021,0.963
						c-0.1041-0.0097-0.21-0.0411-0.2871-0.1116c-0.0771-0.0705-0.1187-0.186-0.0816-0.2838
						c0.1317-0.3469,1.0801-0.117,0.3671-1.1824c-0.1584-0.2367-0.2632-0.5147-0.2657-0.7995
						C39.3856,16.4214,39.6627,15.574,40.0916,15.7603z"/>
					<path fill="#80BC41" d="M23.5041,23.2783c0.3747-0.025,0.7242,0.3348,1.0842,0.2279c-0.0896-0.1557,0.129-0.3897,0.4287-0.1848
						c0.0892,0.061,0.1635,0.1418,0.2519,0.204c0.8313,0.5857,1.4329-0.6002,1.7084,0.489
						c0.0345,0.1363-0.0128,0.1807-0.1349,0.2028c-1.0468,0.1891-0.9842-0.0637-1.4333-0.0773
						c-0.2454-0.0075-0.4732,0.1166-0.7112,0.1771c-0.2266,0.0576-0.4637,0.0575-0.6972,0.0461
						c-0.2227-0.0108-0.5376-0.0626-0.617-0.3128C23.3151,23.8344,23.4605,23.4888,23.5041,23.2783z"/>
					<path fill="#80BC41" d="M28.5121,23.1286c0.0462-0.0875,0.0498-0.1959,0.111-0.2736c0.2525-0.3207,0.9742,0.1746,1.3937-0.0285
						c0.085-0.0412,0.157-0.1059,0.2422-0.1468c0.4499-0.2163,1.0062,0.3045,1.4568,0.0896
						c0.1512-0.0721,0.2544-0.2143,0.3774-0.328c0.5606-0.5184,1.495-0.4102,1.8031-0.5323
						c0.4371-0.1733,0.5796-0.9113,0.7119-0.4663c0.0716,0.2408,0.0908,0.497,0.0559,0.7458
						c-0.0384,0.2741-0.2131,0.2257-0.4751,0.228c-0.7076,0.0062-0.8525,0.8654-1.4932,0.8313
						c-1.7667-0.094-0.7451,0.3891-2.1411,0.25c-0.0627-0.0063-0.1274-0.0107-0.1875,0.0085
						c-0.0827,0.0264-0.1447,0.0934-0.2096,0.1511c-0.782,0.696-2.629,0.1834-2.6464-0.1204
						C27.4917,23.1981,28.362,23.4133,28.5121,23.1286z"/>
					<path fill="#80BC41" d="M35.9717,20.947c0.2721,0.0807,0.6094,0.2143,0.8026,0.0064c0.1533-0.1649,0.1041-0.4599,0.2758-0.6055
						c0.1598-0.1355,0.4023-0.0579,0.6091-0.0916c0.2957-0.0481,0.4986-0.3243,0.6189-0.5986
						c0.1203-0.2743,0.1966-0.5767,0.3912-0.8044c0.087-0.1018,0.2016-0.1876,0.3341-0.2072
						c0.1325-0.0196,0.2821,0.0419,0.3353,0.1648c0.0529,0.1224,0.0004,0.2659-0.0767,0.3748
						c-0.3704,0.5232-1.2585,0.6122-1.4177,1.2332c-0.0368,0.1437-0.025,0.2961-0.0571,0.441
						c-0.0321,0.1449-0.1299,0.2941-0.2773,0.3112c-0.1204,0.014-0.2436-0.0638-0.3591-0.027
						c-0.1707,0.0544-0.1825,0.2974-0.311,0.4222c-0.1697,0.1648-0.4513,0.0629-0.6844,0.1031
						c-0.3228,0.0557-1.0814,0.8315-1.1416,0.1397c-0.0137-0.1577,0.0242-0.6376,0.0933-0.7671
						C35.2525,20.7696,35.7125,20.8701,35.9717,20.947z"/>
					<path fill="#A9C838" d="M16.0651,19.6247c0.1656,0.1079,0.3531,0.1888,0.4877,0.3335c0.2753,0.2962,0.2545,0.772,0.4944,1.0976
						c0.4108,0.5575,1.286,0.3844,1.9183,0.6669c0.7598,0.3394,0.6459,0.8436,2.18,0.8832
						c0.2053,0.0053,0.4351,0.0015,0.5816-0.1425c0.0977-0.0961,0.1366-0.2358,0.1672-0.3694
						c0.102-0.4459,0.1547-0.9032,0.1569-1.3606c-0.6921-0.1711-1.965-0.7409-2.2721-1.2568
						c-0.3344-0.5618,0.1523-1.2483-2.048-2.3863C13.7369,15.0245,15.0313,18.9509,16.0651,19.6247z"/>
				</g>
				<path opacity="0.5" fill="#A9C838" d="M18.3672,13.3728c0.8739-0.1001,1.8773,0.2228,2.5666-0.3237
					c0.3487-0.2764,0.5394-0.734,0.9302-0.9468c0.4675-0.2545,1.0958-0.0437,1.4118,0.3847
					c0.4761,0.6454,0.3047,1.6982,0.0084,1.9448c-0.1746,0.1453-0.4258,0.136-0.6529,0.1308
					c-2.4295-0.0553-2.5297,1.5307-2.6686,1.8037c-0.4581,0.8999-2.4858,1.3478-3.3494,1.0873
					c-0.7876-0.2376-1.463-1.6082-0.321-1.7431c0.4296-0.0508,0.9473,0.1121,1.3328-0.1735
					C18.3003,15.0368,17.6715,13.4525,18.3672,13.3728z"/>
				<path opacity="0.5" fill="#A9C838" d="M24.8421,17.3324c0.0733-0.1142,0.0983-0.2576,0.1876-0.3597
					c0.1305-0.1491,0.3529-0.1652,0.551-0.1693c3.7304-0.0769,2.1801,0.2044,5.3215-0.3441
					c0.7422-0.1296,1.495-0.1894,2.2478-0.2185c0.2599-0.01,0.53-0.0146,0.7679,0.0906c0.529,0.2339,0.6945,0.892,0.7794,1.4641
					c0.1587,1.069-0.1257,1.5692-1.5043,1.563c-4.0261-0.0182-3.198-0.1416-4.7229,0.8211
					c-1.1782,0.7438-2.8975,0.9646-4.9421,0.1371c-0.5236-0.2119-1.4786-0.5512-1.6228-1.1815
					C21.5536,17.5966,24.3537,18.0935,24.8421,17.3324z"/>
			</g>
			<g>
				<g>
					<g enable-background="new    ">
						<g>
							<path fill="#E02426" d="M12.9093,18.2015c2.1402-0.2052,2.1721,0.4264,4.2999-1.8386
								c0.3715-0.3931,0.7614-0.6881,1.1556-0.9157c0.7554-0.4362,1.3954-0.576,2.1577-0.7629
								c4.1734-0.9524,2.9136-2.5243,6.3457-3.5684c2.389-0.707,1.1306-1.2054,2.6343-2.0736
								c0.067-0.0387,0.1339-0.0714,0.1999-0.0971l-0.0312,0.2157c-0.0548,0.0221-0.1103,0.0494-0.1659,0.0815
								c-1.4319,0.8267-0.1738,1.4128-2.6747,2.0925c-3.57,1.0646-1.8214,2.5284-6.3584,3.5686l-0.0827,0.0188
								c-0.6426,0.1483-1.3439,0.3368-2.0255,0.7303c-0.3714,0.2145-0.7371,0.4899-1.0842,0.8527
								c-2.9276,3.1957-3.8921,1.1453-5.2986,2.2397c-0.2542,0.2051-0.5269,0.6115-0.5196,0.9217l-0.178,0.1103
								C11.2719,19.1331,11.8841,18.2969,12.9093,18.2015z"/>
						</g>
						<g>
							<path fill="#F7E28E" d="M29.7059,8.9476c-0.0697,0.0199-0.1394,0.0598-0.1991,0.0895
								c-0.6476,0.3737-0.9219,0.9952-0.9958,1.0955c-0.8568,1.3337-2.2543,0.4393-4.3618,2.6292
								c-2.2521,2.3729-3.6382,1.4482-5.7859,2.689c-0.3884,0.2285-0.7868,0.5174-1.1552,0.9161
								c-1.9295,2.0885-1.9191,1.6618-4.3021,1.8322c-0.9408,0.0819-1.6393,0.896-1.6232,1.5735l-1.4041-0.8067
								c-0.01-0.4284,0.3286-0.9462,0.6672-1.2151c0.0697-0.0593,0.1394-0.0992,0.2091-0.1391
								c0.2589-0.1595,0.5179-0.2091,0.7469-0.229c1.3094-0.0936,2.3176,0.1827,3.4855-0.9263
								c0.8996-0.9006,1.2903-1.9419,4.0531-2.5694l0.0796-0.0199c1.1795-0.2708,2.0883-0.5032,3.0374-1.3445
								c0.1991-0.1692,0.3983-0.3783,0.5875-0.5777c0.249-0.249,0.4979-0.5076,0.7569-0.7265
								c1.483-1.2226,2.8941-0.6617,3.605-1.9022l0.0897-0.1692c0.249-0.3987,0.5775-0.7269,0.9062-0.9161
								c0.0597-0.0399,0.1295-0.0797,0.1992-0.0997L29.7059,8.9476z"/>
						</g>
					</g>
				</g>
				<g>
					<g enable-background="new    ">
						<g>
							<path fill="#E02426" d="M18.2592,17.5704c2.6792-3.0923,4.4497-1.0501,7.287-3.9951
								c1.8407-1.8771,2.7841-1.4283,3.8785-2.0602c0.5816-0.3358,0.611-1.3381,1.6768-1.7546l-0.0312,0.2157
								c-1.6336,0.6593-0.153,1.4436-2.8406,2.174c-1.5296,0.4561-1.7819,0.7392-2.6194,1.5782
								c-2.7477,2.961-4.708,1.0183-7.2743,3.9803c-2.055,2.4204-3.7937,0.9473-4.9558,1.8516
								c-0.2542,0.2051-0.5269,0.6115-0.5196,0.9217l-0.178,0.1103c-0.0076-0.4201,0.3285-0.9436,0.6653-1.2111
								C14.5939,18.3889,16.2682,19.9105,18.2592,17.5704z"/>
						</g>
						<g>
							<path fill="#EE4541" d="M31.105,9.763c-0.9061,0.2591-1.1853,1.4771-1.683,1.7525c-0.0697,0.0399-0.1394,0.07-0.2091,0.0997
								c-0.8952,0.392-1.9431,0.4399-2.9079,1.2351c-0.5329,0.4514-0.9757,0.9914-1.3444,1.3046
								c-2.3318,2.0625-4.0144,0.5064-6.702,3.4154c-1.9725,2.3472-3.7554,0.8227-4.9095,1.8127
								c-0.3386,0.2689-0.6772,0.7868-0.6673,1.2049l-1.4041-0.8067c-0.0152-0.6547,0.6301-1.4968,1.6232-1.5832
								c2.4451-0.1748,2.3717,0.2567,4.3021-1.8327c0.3685-0.3982,0.7668-0.6871,1.1552-0.9161
								c0.7474-0.4317,1.399-0.579,2.161-0.7668c4.2365-0.9727,2.9302-2.5687,6.3436-3.5652
								c2.4552-0.7116,1.0558-1.1598,2.639-2.0709c0.0597-0.0399,0.1295-0.0797,0.1992-0.0997L31.105,9.763z"/>
						</g>
					</g>
				</g>
				<g>
					<g enable-background="new    ">
						<g>
							<path fill="#E02426" d="M15.7076,19.8322c1.0976-0.1052,2.2927,0.2198,3.4809-0.9338
								c0.1588-0.1504,0.3111-0.3261,0.4698-0.5126c0.1143-0.1319,0.2285-0.2637,0.3492-0.3922
								c2.3036-2.4378,4.2335-0.796,6.9379-3.603c1.9058-1.9436,2.6701-1.3625,3.8785-2.0602
								c0.4638-0.2678,0.7091-1.3764,1.6768-1.7546l-0.0312,0.2157c-1.0588,0.4273-0.8821,1.4354-1.8798,1.8536
								c-1.6464,0.6906-1.8976,0.2131-3.5801,1.8986c-2.2689,2.445-3.6972,1.4982-5.8473,2.7395
								c-0.3714,0.2145-0.7371,0.4899-1.0842,0.8527c-0.3613,0.3944-0.5659,0.6714-0.8316,0.9264
								c-1.2958,1.248-2.5753,0.8812-3.6018,0.9968c-0.9056,0.1001-1.3964,0.7421-1.3848,1.2382l-0.178,0.1103
								C14.0701,20.7638,14.6823,19.9276,15.7076,19.8322z"/>
						</g>
						<g>
							<path fill="#F7E28E" d="M32.5042,10.5783c-1.0881,0.3112-0.9925,1.4694-1.8921,1.8521
								c-1.3507,0.5915-2.013,0.2459-3.6647,1.962c-2.6701,2.8133-4.4959,0.9692-7.2896,3.9931
								c-0.1594,0.1896-0.3087,0.3589-0.4681,0.5081c-1.1075,1.1058-2.2876,0.8504-3.4855,0.936
								c-0.9408,0.0819-1.6393,0.896-1.6232,1.5735l-1.4041-0.8067c-0.01-0.4284,0.3286-0.9462,0.6672-1.2151
								c1.1611-0.988,2.9347,0.5325,4.9095-1.8123c2.9192-3.1597,4.4953-1.0494,7.2896-3.9936
								c1.8949-1.8949,2.7671-1.4283,3.8738-2.0612c0.5571-0.3082,0.7234-1.4781,1.683-1.7525L32.5042,10.5783z"/>
						</g>
					</g>
				</g>
				<g>
					<g enable-background="new    ">
						<g>
							<path fill="#E02426" d="M17.1067,20.6475c1.1183-0.1072,2.2993,0.2135,3.4809-0.9338
								c0.2728-0.2585,0.5033-0.5688,0.819-0.9048c2.0747-2.1955,4.2892-1.1898,6.3536-3.0243
								c0.197-0.1721,0.3938-0.381,0.5843-0.5787c0.2477-0.2526,0.4953-0.5055,0.7622-0.7255
								c0.1706-0.1382,0.3408-0.2531,0.5105-0.3511c0.8982-0.5186,2.0162-0.6432,2.6058-0.9835
								c0.5925-0.3421,0.6143-1.3394,1.6768-1.7546l-0.0312,0.2157c-0.8624,0.348-0.9301,1.0288-1.3205,1.4794
								c-0.5464,0.6089-1.8675,0.6319-2.9287,1.2447c-0.16,0.0924-0.3197,0.2001-0.4803,0.3285
								c-0.2478,0.2014-0.4891,0.4579-0.7304,0.6996c-0.1905,0.2053-0.3937,0.4103-0.6033,0.5973
								c-2.293,2.0437-4.2964,0.6423-6.671,3.383c-2.0465,2.4103-3.5222,1.0084-4.7946,1.7431
								c-0.4111,0.2373-0.6877,0.7332-0.6808,1.0303l-0.178,0.1103C15.4692,21.5792,16.0814,20.7429,17.1067,20.6475z"/>
						</g>
						<g>
							<path fill="#EE4541" d="M33.9033,11.3937c-0.9929,0.2839-1.0414,1.4902-1.8921,1.8521
								c-0.7647,0.3349-1.5661,0.3987-2.3901,0.8864c-0.1693,0.0997-0.3485,0.2091-0.5179,0.3486
								c-0.2589,0.2193-0.5078,0.4683-0.7568,0.7269c-0.1892,0.1994-0.3884,0.4085-0.5876,0.5777
								c-2.327,2.0582-3.9934,0.4837-6.702,3.4154c-1.4296,1.7011-2.3723,1.3311-3.9535,1.4442
								c-0.9408,0.0819-1.6393,0.896-1.6232,1.5735l-1.4041-0.8067c-0.0152-0.6547,0.6301-1.4968,1.6232-1.5832
								c1.8351-0.1312,2.5572,0.2137,3.9535-1.4442c0.1195-0.1293,0.2291-0.2592,0.3486-0.3885
								c2.2106-2.3893,4.338-0.8624,6.941-3.6051c1.9593-1.9593,2.6344-1.3524,3.8738-2.0612
								c0.4782-0.2646,0.8104-1.5029,1.683-1.7525L33.9033,11.3937z"/>
						</g>
					</g>
				</g>
			</g>
			<path fill="#C9802A" d="M41.5206,17.231c0,5.5586-7.182,5.8511-15.9208,5.8511c-8.7387,0-15.726-0.2925-15.726-5.8511
				c0-1.9338,0.849-3.7327,2.3245-5.2622c0.1213-0.128,0.2493-0.2494,0.3773-0.3639c1.4755-1.388,3.4766-2.5266,5.8146-3.308
				c0.1347-0.0474,0.2762-0.0944,0.4177-0.1415c2.0819-0.6402,4.4132-0.9975,6.8859-0.9975
				C32.4073,7.1581,41.5206,10.5281,41.5206,17.231z"/>
		</g>
		<g>
			<path fill="#F7E28E" d="M39.6005,19.4953c-0.0908-0.08-0.0995-0.2185-0.0194-0.3092c0.08-0.0908,0.2185-0.0995,0.3092-0.0194
				c0.0908,0.08,0.246,0.509,0.246,0.509S39.6912,19.5753,39.6005,19.4953z"/>
		</g>
		<g>
			<path fill="#F7E28E" d="M38.2777,20.4528c-0.096,0.0736-0.2335,0.0555-0.3072-0.0405s-0.0555-0.2335,0.0405-0.3072
				c0.096-0.0736,0.5469-0.1433,0.5469-0.1433S38.3737,20.3791,38.2777,20.4528z"/>
		</g>
		<g>
			<path fill="#F7E28E" d="M39.7523,18.1408c-0.1205-0.0105-0.2097-0.1168-0.1992-0.2373s0.2636-0.5001,0.2636-0.5001
				C39.8243,17.5034,40.2423,18.1836,39.7523,18.1408z"/>
		</g>
		<g>
			<path fill="#F7E28E" d="M36.865,17.5827c-0.096,0.0736-0.2335,0.0555-0.3072-0.0405c-0.2986-0.3894,0.4871-0.3967,0.5874-0.4505
				C37.1452,17.0917,36.961,17.5091,36.865,17.5827z"/>
		</g>
		<g>
			<path fill="#F7E28E" d="M33.9882,19.6648c-0.0918-0.0788-0.1023-0.2172-0.0234-0.3089c0.0788-0.0918,0.5058-0.2526,0.5058-0.2526
				C34.4095,19.2034,34.3606,19.9848,33.9882,19.6648z"/>
		</g>
		<g>
			<path fill="#F7E28E" d="M35.8153,21.0619c-0.096,0.0736-0.2335,0.0555-0.3072-0.0405c-0.0736-0.096-0.0555-0.2335,0.0405-0.3072
				c0.096-0.0736,0.5469-0.1433,0.5469-0.1433S35.9113,20.9883,35.8153,21.0619z"/>
		</g>
		<g>
			<path fill="#F7E28E" d="M36.9021,18.8317c0.0847,0.0864,0.0833,0.2251-0.0031,0.3098c-0.0864,0.0847-0.2251,0.0833-0.3098-0.0031
				s-0.2083-0.5255-0.2083-0.5255S36.8174,18.7453,36.9021,18.8317z"/>
		</g>
		<g>
			<path fill="#F7E28E" d="M32.8498,17.0807c-0.096,0.0736-0.2335,0.0555-0.3072-0.0405s-0.0555-0.2335,0.0405-0.3072
				c0.096-0.0736,0.5469-0.1433,0.5469-0.1433S32.9458,17.0071,32.8498,17.0807z"/>
		</g>
		<g>
			<path fill="#F7E28E" d="M30.956,20.66c-0.096,0.0736-0.2335,0.0555-0.3072-0.0405c-0.2987-0.3894,0.4871-0.3967,0.5874-0.4505
				C31.2362,20.169,31.052,20.5864,30.956,20.66z"/>
		</g>
		<g>
			<path fill="#F7E28E" d="M26.1,21.197c-0.096,0.0736-0.2335,0.0555-0.3072-0.0405c-0.0736-0.096-0.0555-0.2335,0.0405-0.3072
				s0.5469-0.1433,0.5469-0.1433S26.196,21.1234,26.1,21.197z"/>
		</g>
		<g>
			<path fill="#F7E28E" d="M29.6789,18.7396c0.1115-0.047,0.24,0.0054,0.2869,0.1169s0.0003,0.5653,0.0003,0.5653
				C29.9034,19.3218,29.2257,18.9304,29.6789,18.7396z"/>
		</g>
		<g>
			<path fill="#F7E28E" d="M33.3363,21.3547c-0.2298,0.1763-0.4968-0.1712-0.2666-0.3477c0.096-0.0736,0.5469-0.1433,0.5469-0.1433
				S33.4323,21.2811,33.3363,21.3547z"/>
		</g>
		<g>
			<path fill="#F7E28E" d="M32.2389,19.0009c-0.1106,0.049-0.24-0.0009-0.2891-0.1115c-0.049-0.1106-0.011-0.5652-0.011-0.5652
				C32.0043,18.4242,32.6878,18.8018,32.2389,19.0009z"/>
		</g>
		<g>
			<path fill="#F7E28E" d="M34.4075,17.638c-0.0112-0.1205,0.0774-0.2272,0.1978-0.2384s0.5392,0.1699,0.5392,0.1699
				C35.0445,17.5955,34.453,18.1276,34.4075,17.638z"/>
		</g>
		<g>
			<path fill="#F7E28E" d="M29.7543,17.1878c0.058,0.1062,0.0189,0.2393-0.0873,0.2973c-0.4307,0.2352-0.3196-0.5496-0.3547-0.6497
				C29.3123,16.8354,29.6963,17.0816,29.7543,17.1878z"/>
		</g>
		<g>
			<path fill="#F7E28E" d="M27.8191,14.505c0.1386-0.4718,0.61,0.1606,0.7102,0.2087
				C28.4293,14.7012,27.6804,14.9768,27.8191,14.505z"/>
		</g>
		<g>
			<path fill="#F7E28E" d="M27.3583,16.77c-0.119-0.0221-0.1975-0.1365-0.1754-0.2554c0.0221-0.119,0.3106-0.4724,0.3106-0.4724
				C27.4913,16.1422,27.8423,16.8599,27.3583,16.77z"/>
		</g>
		<g>
			<path fill="#F7E28E" d="M30.0826,15.6093c-0.2298,0.1763-0.4968-0.1712-0.2666-0.3477c0.096-0.0736,0.5469-0.1433,0.5469-0.1433
				S30.1786,15.5357,30.0826,15.6093z"/>
		</g>
		<g>
			<path fill="#F7E28E" d="M23.7376,19.4054c-0.096,0.0736-0.2335,0.0555-0.3072-0.0405c-0.0736-0.096-0.0555-0.2335,0.0405-0.3072
				c0.096-0.0736,0.5469-0.1433,0.5469-0.1433S23.8337,19.3318,23.7376,19.4054z"/>
		</g>
		<g>
			<path fill="#F7E28E" d="M22.0005,16.4775c0.042-0.1135,0.168-0.1714,0.2815-0.1294s0.4127,0.3864,0.4127,0.3864
				C22.5947,16.7149,21.8298,16.9387,22.0005,16.4775z"/>
		</g>
		<g>
			<path fill="#F7E28E" d="M21.7066,18.7587c-0.1133,0.0426-0.2396-0.0147-0.2822-0.128c-0.0426-0.1133,0.0216-0.5649,0.0216-0.5649
				C21.5036,18.1661,22.1662,18.5859,21.7066,18.7587z"/>
		</g>
		<g>
			<path fill="#F7E28E" d="M24.4195,17.3833c0.0646,0.1023,0.0341,0.2376-0.0682,0.3022c-0.1023,0.0646-0.2376,0.0341-0.3022-0.0682
				s-0.0932-0.5576-0.0932-0.5576S24.3548,17.281,24.4195,17.3833z"/>
		</g>
		<g>
			<path fill="#F7E28E" d="M26.553,18.6693c-0.096,0.0736-0.2335,0.0555-0.3072-0.0405c-0.2987-0.3894,0.4871-0.3967,0.5874-0.4505
				C26.8333,18.1783,26.6491,18.5956,26.553,18.6693z"/>
		</g>
		<g>
			<path fill="#F7E28E" d="M21.7088,20.5456c-0.2298,0.1763-0.4968-0.1712-0.2666-0.3477c0.096-0.0736,0.5469-0.1433,0.5469-0.1433
				S21.8048,20.472,21.7088,20.5456z"/>
		</g>
		<g>
			<path fill="#F7E28E" d="M17.6092,20.7142c-0.2298,0.1763-0.4968-0.1712-0.2666-0.3477c0.096-0.0736,0.5469-0.1433,0.5469-0.1433
				S17.7052,20.6406,17.6092,20.7142z"/>
		</g>
		<g>
			<path fill="#F7E28E" d="M19.782,17.2033c-0.1081-0.0544-0.1516-0.1861-0.0973-0.2942c0.0544-0.1081,0.4299-0.3671,0.4299-0.3671
				C20.0833,16.642,20.2214,17.4243,19.782,17.2033z"/>
		</g>
		<g>
			<path fill="#F7E28E" d="M16.3249,16.7608c-0.1332,0.4734-0.6125-0.1539-0.7126-0.2005
				C15.7124,16.5715,16.4581,16.2873,16.3249,16.7608z"/>
		</g>
		<g>
			<path fill="#F7E28E" d="M12.6451,19.3732c-0.1209-0.0042-0.2155-0.1057-0.2113-0.2266c0.0042-0.1209,0.2372-0.5132,0.2372-0.5132
				C12.6837,18.7334,13.1366,19.3903,12.6451,19.3732z"/>
		</g>
		<g>
			<path fill="#F7E28E" d="M10.5127,16.5428c-0.1124-0.0449-0.167-0.1724-0.1221-0.2847c0.0449-0.1124,0.1724-0.167,0.2847-0.1221
				c0.1124,0.0449,0.4026,0.3968,0.4026,0.3968S10.6251,16.5877,10.5127,16.5428z"/>
		</g>
		<g>
			<path fill="#F7E28E" d="M10.9359,18.7727c-0.1202,0.0136-0.2288-0.0727-0.2424-0.193s0.1589-0.5425,0.1589-0.5425
				C10.8807,18.1372,11.4246,18.7172,10.9359,18.7727z"/>
		</g>
		<g>
			<path fill="#F7E28E" d="M12.8267,16.5195c0.0298-0.1173,0.149-0.1882,0.2663-0.1584c0.4766,0.1211-0.1387,0.6171-0.1824,0.7174
				C12.9106,17.0786,12.7969,16.6368,12.8267,16.5195z"/>
		</g>
		<g>
			<path fill="#F7E28E" d="M15.42,19.4054c-0.096,0.0736-0.2335,0.0555-0.3072-0.0405c-0.2986-0.3894,0.4871-0.3967,0.5874-0.4505
				C15.7002,18.9144,15.516,19.3318,15.42,19.4054z"/>
		</g>
		<g>
			<path fill="#F7E28E" d="M18.0831,15.1647c0.1207-0.0085,0.2254,0.0825,0.2339,0.2032s-0.1821,0.5352-0.1821,0.5352
				C18.1112,15.8031,17.5925,15.1991,18.0831,15.1647z"/>
		</g>
		<g>
			<path fill="#F7E28E" d="M13.747,13.9896c0.0892,0.0817,0.0953,0.2203,0.0135,0.3095c-0.0817,0.0892-0.2203,0.0953-0.3095,0.0135
				s-0.2362-0.5136-0.2362-0.5136S13.6578,13.9079,13.747,13.9896z"/>
		</g>
		<g>
			<path fill="#F7E28E" d="M15.7357,11.0682c-0.096,0.0736-0.2335,0.0555-0.3072-0.0405c-0.0736-0.096-0.0555-0.2335,0.0405-0.3072
				s0.5469-0.1433,0.5469-0.1433S15.8317,10.9946,15.7357,11.0682z"/>
		</g>
		<g>
			<path fill="#F7E28E" d="M12.5756,11.605c-0.0067,0.1214-0.0135,0.2563-0.0404,0.3099c-0.0539,0.1079-0.1819,0.1484-0.2898,0.0944
				c-0.0202-0.0135-0.0337-0.0204-0.0471-0.0405C12.3196,11.8409,12.4476,11.7195,12.5756,11.605z"/>
		</g>
		<g>
			<path fill="#F7E28E" d="M18.8225,12.9024c-0.2298,0.1763-0.4968-0.1712-0.2666-0.3477c0.096-0.0736,0.5469-0.1433,0.5469-0.1433
				S18.9185,12.8288,18.8225,12.9024z"/>
		</g>
		<g>
			<path fill="#F7E28E" d="M20.3835,14.8231c-0.096,0.0736-0.2335,0.0555-0.3072-0.0405c-0.0736-0.096-0.0555-0.2335,0.0405-0.3072
				s0.5469-0.1433,0.5469-0.1433S20.4795,14.7494,20.3835,14.8231z"/>
		</g>
		<g>
			<path fill="#F7E28E" d="M21.2274,10.8001c-0.2298,0.1763-0.4968-0.1712-0.2666-0.3477c0.096-0.0736,0.5469-0.1433,0.5469-0.1433
				S21.3234,10.7265,21.2274,10.8001z"/>
		</g>
		<g>
			<path fill="#F7E28E" d="M20.0672,9.0216c-0.096,0.0736-0.2335,0.0555-0.3072-0.0405c-0.0736-0.096-0.0555-0.2335,0.0405-0.3072
				s0.5469-0.1433,0.5469-0.1433S20.1632,8.948,20.0672,9.0216z"/>
		</g>
		<g>
			<path fill="#F7E28E" d="M17.8054,10.9752c-0.096,0.0736-0.2335,0.0555-0.3072-0.0405c-0.0736-0.096-0.0555-0.2335,0.0405-0.3072
				c0.096-0.0736,0.5469-0.1433,0.5469-0.1433S17.9014,10.9016,17.8054,10.9752z"/>
		</g>
		<g>
			<path fill="#F7E28E" d="M20.6999,12.6343c-0.096,0.0736-0.2335,0.0555-0.3072-0.0405c-0.0736-0.096-0.0555-0.2335,0.0405-0.3072
				c0.096-0.0736,0.5469-0.1433,0.5469-0.1433S20.7959,12.5607,20.6999,12.6343z"/>
		</g>
		<g>
			<path fill="#F7E28E" d="M22.2444,8.7535c-0.096,0.0736-0.2335,0.0555-0.3072-0.0405c-0.0736-0.096-0.0555-0.2335,0.0405-0.3072
				s0.5469-0.1433,0.5469-0.1433S22.3404,8.6799,22.2444,8.7535z"/>
		</g>
		<g>
			<path fill="#F7E28E" d="M18.8012,8.4046C18.7608,8.5191,18.6328,8.58,18.525,8.5395c-0.101-0.0405-0.1617-0.1484-0.1347-0.2425
				c0.1347-0.0474,0.2762-0.0944,0.4177-0.1415C18.8214,8.2566,18.8214,8.3576,18.8012,8.4046z"/>
		</g>
		<g>
			<path fill="#F7E28E" d="M23.438,10.6774c-0.2298,0.1763-0.4968-0.1712-0.2666-0.3477c0.096-0.0736,0.5469-0.1433,0.5469-0.1433
				S23.534,10.6038,23.438,10.6774z"/>
		</g>
		<g>
			<path fill="#F7E28E" d="M24.4895,7.8393c-0.096,0.0736-0.2335,0.0555-0.3072-0.0405c-0.0736-0.096-0.0555-0.2335,0.0405-0.3072
				c0.096-0.0736,0.5469-0.1433,0.5469-0.1433S24.5855,7.7657,24.4895,7.8393z"/>
		</g>
		<g>
			<path fill="#F7E28E" d="M25.991,11.8822c-0.2298,0.1763-0.4968-0.1712-0.2666-0.3477c0.096-0.0736,0.5469-0.1433,0.5469-0.1433
				S26.087,11.8085,25.991,11.8822z"/>
		</g>
		<g>
			<path fill="#F7E28E" d="M25.5061,8.6677c0.1085,0.0535,0.1531,0.1848,0.0996,0.2934c-0.0535,0.1085-0.1848,0.1531-0.2934,0.0996
				c-0.1085-0.0535-0.3706-0.4269-0.3706-0.4269S25.3976,8.6142,25.5061,8.6677z"/>
		</g>
		<g>
			<path fill="#F7E28E" d="M27.7584,12.0317c-0.0535,0.1085-0.1848,0.1531-0.2934,0.0996
				c-0.1085-0.0535-0.3706-0.4269-0.3706-0.4269C27.1945,11.7349,27.9759,11.5905,27.7584,12.0317z"/>
		</g>
		<g>
			<path fill="#F7E28E" d="M29.9323,10.4134c-0.0535,0.1085-0.1848,0.1531-0.2934,0.0996s-0.3706-0.4269-0.3706-0.4269
				C29.3684,10.1166,30.1498,9.9722,29.9323,10.4134z"/>
		</g>
		<g>
			<path fill="#F7E28E" d="M31.0975,8.2999c0.1085,0.0535,0.1531,0.1848,0.0996,0.2934c-0.0535,0.1085-0.1848,0.1531-0.2934,0.0996
				c-0.1085-0.0535-0.3706-0.4269-0.3706-0.4269S30.989,8.2464,31.0975,8.2999z"/>
		</g>
		<g>
			<path fill="#F7E28E" d="M34.6533,9.3463c0.1085,0.0535,0.1531,0.1848,0.0996,0.2934c-0.0535,0.1085-0.1848,0.1531-0.2934,0.0996
				S34.089,9.3123,34.089,9.3123S34.5447,9.2928,34.6533,9.3463z"/>
		</g>
		<g>
			<path fill="#F7E28E" d="M29.7672,13.3697c-0.0535,0.1085-0.1848,0.1531-0.2934,0.0996
				c-0.1085-0.0535-0.3706-0.4269-0.3706-0.4269C29.2033,13.0729,29.9847,12.9285,29.7672,13.3697z"/>
		</g>
		<g>
			<path fill="#F7E28E" d="M31.8973,10.4134c-0.0535,0.1085-0.1848,0.1531-0.2934,0.0996
				c-0.1085-0.0535-0.3706-0.4269-0.3706-0.4269C31.3334,10.1166,32.1147,9.9722,31.8973,10.4134z"/>
		</g>
		<g>
			<path fill="#F7E28E" d="M28.6026,8.1686c0.1085,0.0535,0.1531,0.1848,0.0996,0.2934c-0.0535,0.1085-0.1848,0.1531-0.2934,0.0996
				c-0.1085-0.0535-0.3706-0.4269-0.3706-0.4269S28.494,8.1151,28.6026,8.1686z"/>
		</g>
		<g>
			<path fill="#F7E28E" d="M35.2714,11.9648c0.2598,0.1281,0.0664,0.5213-0.1937,0.393c-0.1085-0.0535-0.3706-0.4269-0.3706-0.4269
				S35.1628,11.9113,35.2714,11.9648z"/>
		</g>
		<g>
			<path fill="#F7E28E" d="M33.1344,13.5962c-0.0535,0.1085-0.1848,0.1531-0.2934,0.0996
				c-0.1085-0.0535-0.3706-0.4269-0.3706-0.4269C32.5704,13.2994,33.3518,13.1551,33.1344,13.5962z"/>
		</g>
		<g>
			<path fill="#F7E28E" d="M31.4001,13.0935c-0.0535,0.1085-0.1848,0.1531-0.2934,0.0996s-0.3706-0.4269-0.3706-0.4269
				C30.8361,12.7967,31.6175,12.6524,31.4001,13.0935z"/>
		</g>
		<g>
			<path fill="#F7E28E" d="M33.7467,10.8269c-0.0535,0.1085-0.1848,0.1531-0.2934,0.0996s-0.3706-0.4269-0.3706-0.4269
				C33.1828,10.5301,33.9642,10.3857,33.7467,10.8269z"/>
		</g>
		<g>
			<path fill="#F7E28E" d="M33.8892,10.8269c-0.0535,0.1085-0.1848,0.1531-0.2934,0.0996s-0.3706-0.4269-0.3706-0.4269
				C33.3253,10.5301,34.1067,10.3857,33.8892,10.8269z"/>
		</g>
		<g>
			<path fill="#F7E28E" d="M35.2195,15.3119c-0.0535,0.1085-0.1848,0.1531-0.2934,0.0996s-0.3706-0.4269-0.3706-0.4269
				C34.6556,15.0151,35.437,14.8708,35.2195,15.3119z"/>
		</g>
		<g>
			<path fill="#F7E28E" d="M39.3937,12.867c-0.0535,0.1085-0.1848,0.1531-0.2934,0.0996s-0.3706-0.4269-0.3706-0.4269
				C38.8298,12.5702,39.6112,12.4258,39.3937,12.867z"/>
		</g>
		<g>
			<path fill="#F7E28E" d="M37.6667,10.6414c-0.0539,0.1079-0.1887,0.1484-0.2965,0.1013c-0.1078-0.054-0.3706-0.4313-0.3706-0.4313
				s0.0808-0.0069,0.1819-0.0069C37.35,10.4124,37.5117,10.5269,37.6667,10.6414z"/>
		</g>
		<g>
			<path fill="#F7E28E" d="M38.6016,16.4006c0.1085,0.0535,0.1531,0.1848,0.0996,0.2934c-0.0535,0.1085-0.1848,0.1531-0.2934,0.0996
				c-0.1085-0.0535-0.3706-0.4269-0.3706-0.4269S38.4931,16.3471,38.6016,16.4006z"/>
		</g>
		<g>
			<path fill="#F7E28E" d="M38.6885,14.6109c0.2598,0.1281,0.0664,0.5213-0.1937,0.393c-0.1085-0.0535-0.3706-0.4269-0.3706-0.4269
				S38.58,14.5574,38.6885,14.6109z"/>
		</g>
		<g>
			<path fill="#F7E28E" d="M37.2226,13.0267c0.2598,0.1281,0.0664,0.5213-0.1937,0.393c-0.1085-0.0535-0.3706-0.4269-0.3706-0.4269
				S37.114,12.9732,37.2226,13.0267z"/>
		</g>
		<g>
			<path fill="#F7E28E" d="M16.123,13.4387c-0.096,0.0736-0.2335,0.0555-0.3072-0.0405s-0.0555-0.2335,0.0405-0.3072
				s0.5469-0.1433,0.5469-0.1433S16.219,13.365,16.123,13.4387z"/>
		</g>
		<g>
			<path fill="#F7E28E" d="M11.792,13.4883c-0.096,0.0736-0.2335,0.0555-0.3072-0.0405c-0.0736-0.096-0.0555-0.2335,0.0405-0.3072
				c0.096-0.0736,0.5469-0.1433,0.5469-0.1433S11.888,13.4147,11.792,13.4883z"/>
		</g>
		<g>
			<path fill="#F7E28E" d="M15.0898,15.2324c0.1003,0.0677,0.1267,0.2038,0.0591,0.3041c-0.0677,0.1003-0.4731,0.3095-0.4731,0.3095
				C14.7218,15.746,14.6822,14.9574,15.0898,15.2324z"/>
		</g>
		<g>
			<path fill="#F7E28E" d="M24.8386,15.3931c-0.1193,0.0202-0.2324-0.0602-0.2525-0.1795
				c-0.0202-0.1193,0.1292-0.5504,0.1292-0.5504C24.7495,14.7632,25.3236,15.3112,24.8386,15.3931z"/>
		</g>
		<g>
			<path fill="#F7E28E" d="M23.438,12.7182c-0.2298,0.1763-0.4968-0.1712-0.2666-0.3477c0.096-0.0736,0.5469-0.1433,0.5469-0.1433
				S23.534,12.6446,23.438,12.7182z"/>
		</g>
		<g>
			<path fill="#F7E28E" d="M22.7496,14.5549c-0.096,0.0736-0.2335,0.0555-0.3072-0.0405c-0.2987-0.3894,0.4871-0.3967,0.5874-0.4505
				C23.0298,14.0639,22.8456,14.4813,22.7496,14.5549z"/>
		</g>
		<g>
			<path fill="#F7E28E" d="M25.3584,13.4883c-0.2298,0.1763-0.4968-0.1712-0.2666-0.3477c0.096-0.0736,0.5469-0.1433,0.5469-0.1433
				S25.4544,13.4147,25.3584,13.4883z"/>
		</g>
	</g>
</g>
</svg>
