<?xml version="1.0" encoding="utf-8"?>
<!-- Generator: Adobe Illustrator 18.0.0, SVG Export Plug-In . SVG Version: 6.00 Build 0)  -->
<!DOCTYPE svg PUBLIC "-//W3C//DTD SVG 1.1//EN" "http://www.w3.org/Graphics/SVG/1.1/DTD/svg11.dtd">
<svg version="1.1" id="Layer_1" xmlns="http://www.w3.org/2000/svg" xmlns:xlink="http://www.w3.org/1999/xlink" x="0px" y="0px"
	 viewBox="0 0 50 50" enable-background="new 0 0 50 50" xml:space="preserve">
<g>
	<g>
		<g enable-background="new    ">
			<g>
				<path fill="#B0AFB0" d="M49,13.5506v1.9093c0,0.8729-0.5896,1.7458-1.7216,2.4068L11.1178,38.8874
					c-2.3114,1.3439-6.0376,1.3439-8.3724,0C1.5896,38.2275,1,37.3316,1,36.4587V34.524c0,0.8971,0.5896,1.7688,1.7688,2.4529
					c2.3114,1.3209,6.0376,1.3209,8.3489-0.023l36.1606-20.9988C48.4104,15.2952,49,14.4223,49,13.5506z"/>
			</g>
			<g>
				<path fill="#E7E7E7" d="M47.2599,11.1089c2.3189,1.3388,2.3161,3.5036,0.0127,4.8422L11.1177,36.962
					c-2.3034,1.3386-6.0406,1.3473-8.3595,0.0085c-2.3189-1.3388-2.3311-3.5122-0.0277-4.8508l36.1549-21.0109
					C41.1888,9.7701,44.941,9.7701,47.2599,11.1089z"/>
			</g>
		</g>
	</g>
	<g>
		<g>
			<polygon fill="#686868" points="24.9046,28.4037 24.4858,28.6471 23.1155,27.856 23.5343,27.6126 			"/>
		</g>
		<g>
			<polygon fill="#686868" points="23.6182,29.1513 23.1994,29.3947 22.3711,28.9165 22.7899,28.6731 			"/>
		</g>
		<g>
			<polygon fill="#686868" points="22.3171,29.9074 21.9129,30.1423 20.5427,29.3512 20.9469,29.1163 			"/>
		</g>
		<g>
			<polygon fill="#686868" points="21.0299,30.6555 20.6111,30.8988 19.7829,30.4207 20.2017,30.1773 			"/>
		</g>
		<g>
			<polygon fill="#686868" points="15.2176,27.2997 14.7988,27.5431 13.4285,26.752 13.8473,26.5086 			"/>
		</g>
		<g>
			<polygon fill="#686868" points="15.9778,26.2474 15.5736,26.4823 14.7304,25.9954 15.1345,25.7605 			"/>
		</g>
		<g>
			<polygon fill="#686868" points="17.8058,25.7956 17.387,26.039 16.0168,25.2478 16.4356,25.0045 			"/>
		</g>
		<g>
			<polygon fill="#686868" points="18.5653,24.7437 18.1465,24.9871 17.3032,24.5002 17.722,24.2569 			"/>
		</g>
		<g>
			<polygon fill="#686868" points="20.3795,24.2999 19.9599,24.5438 18.5896,23.7527 19.0093,23.5088 			"/>
		</g>
		<g>
			<path fill="#EE4541" d="M23.2862,26.1868L11.1579,33.235c0.6039,0.6956,0.3992,1.5647-0.5885,2.1387
				c-1.2864,0.7476-3.3578,0.7477-4.6377,0.0087s-1.2865-1.9388-0.0001-2.6864c0.9878-0.574,2.5179-0.6957,3.72-0.3477
				l12.1137-7.0397L23.2862,26.1868z"/>
		</g>
		<g>
			<polygon fill="#686868" points="45.5646,16.3974 45.1458,16.6408 43.7755,15.8497 44.1943,15.6063 			"/>
		</g>
		<g>
			<polygon fill="#686868" points="44.2627,17.154 43.8439,17.3974 43.0157,16.9192 43.4345,16.6758 			"/>
		</g>
		<g>
			<polygon fill="#686868" points="41.6899,18.6492 41.2711,18.8926 40.4428,18.4144 40.8616,18.171 			"/>
		</g>
		<g>
			<polygon fill="#686868" points="39.1016,20.1533 38.6828,20.3967 37.8546,19.9185 38.2734,19.6752 			"/>
		</g>
		<g>
			<polygon fill="#686868" points="37.8152,20.9009 37.3964,21.1443 36.0261,20.3532 36.4449,20.1098 			"/>
		</g>
		<g>
			<polygon fill="#686868" points="36.5287,21.6485 36.1099,21.8919 35.2817,21.4137 35.7005,21.1703 			"/>
		</g>
		<g>
			<polygon fill="#686868" points="35.2269,22.4051 34.8081,22.6484 33.4378,21.8573 33.8566,21.6139 			"/>
		</g>
		<g>
			<polygon fill="#686868" points="33.9404,23.1527 33.5216,23.396 32.6934,22.9179 33.1122,22.6745 			"/>
		</g>
		<g>
			<polygon fill="#686868" points="32.654,23.9002 32.2352,24.1436 30.865,23.3525 31.2838,23.1091 			"/>
		</g>
		<g>
			<polygon fill="#686868" points="30.0657,25.4044 29.6469,25.6478 28.2767,24.8567 28.6955,24.6133 			"/>
		</g>
		<g>
			<polygon fill="#686868" points="27.4929,26.8996 27.0741,27.143 25.7038,26.3518 26.1226,26.1085 			"/>
		</g>
		<g>
			<polygon fill="#686868" points="26.1918,27.6557 25.7722,27.8995 24.944,27.4213 25.3636,27.1775 			"/>
		</g>
		<g>
			<polygon fill="#686868" points="21.1535,23.2396 20.7347,23.4829 19.8915,22.9961 20.3103,22.7527 			"/>
		</g>
		<g>
			<polygon fill="#686868" points="22.967,22.7962 22.5482,23.0396 21.1779,22.2485 21.5967,22.0051 			"/>
		</g>
		<g>
			<polygon fill="#686868" points="23.7264,21.7444 23.3076,21.9878 22.4644,21.5009 22.8832,21.2575 			"/>
		</g>
		<g>
			<polygon fill="#686868" points="25.5407,21.3006 25.1365,21.5355 23.7662,20.7444 24.1704,20.5095 			"/>
		</g>
		<g>
			<polygon fill="#686868" points="26.3147,20.2402 25.8959,20.4836 25.0526,19.9968 25.4714,19.7534 			"/>
		</g>
		<g>
			<polygon fill="#686868" points="28.1281,19.7969 27.7093,20.0403 26.3391,19.2492 26.7579,19.0058 			"/>
		</g>
		<g>
			<polygon fill="#686868" points="28.8875,18.745 28.4687,18.9884 27.6255,18.5016 28.0443,18.2582 			"/>
		</g>
		<g>
			<polygon fill="#686868" points="30.7164,18.2928 30.2976,18.5362 28.9274,17.745 29.3462,17.5017 			"/>
		</g>
		<g>
			<polygon fill="#686868" points="31.4758,17.2409 31.057,17.4843 30.2138,16.9974 30.6326,16.7541 			"/>
		</g>
		<g>
			<polygon fill="#686868" points="33.2893,16.7976 32.8705,17.041 31.5002,16.2499 31.919,16.0065 			"/>
		</g>
		<g>
			<polygon fill="#686868" points="34.0487,15.7457 33.6453,15.9801 32.8021,15.4933 33.2054,15.2589 			"/>
		</g>
		<g>
			<polygon fill="#686868" points="35.8776,15.2934 35.4588,15.5368 34.0885,14.7457 34.5073,14.5023 			"/>
		</g>
		<g>
			<polygon fill="#686868" points="36.637,14.2416 36.2182,14.485 35.3749,13.9981 35.7937,13.7547 			"/>
		</g>
		<g>
			<polygon fill="#686868" points="38.4504,13.7983 38.0316,14.0416 36.6614,13.2505 37.0802,13.0071 			"/>
		</g>
		<g enable-background="new    ">
			<g>
				<polygon fill="#686868" points="31.353,24.6563 30.9488,24.8912 30.1206,24.413 30.5247,24.1782 				"/>
			</g>
			<g>
				<path fill="#BFBFBF" d="M43.3876,13.6155c0.4367,0.2521,0.4385,0.6349,0.0197,0.8783L23.2862,26.1868l-1.5209-0.8781
					L9.6516,32.3484l32.2347-18.7328C42.3052,13.3723,42.966,13.372,43.3876,13.6155z"/>
			</g>
		</g>
		<g>
			<polygon fill="#686868" points="42.9763,17.9016 42.5575,18.145 41.1872,17.3539 41.606,17.1105 			"/>
		</g>
		<g>
			<polygon fill="#686868" points="40.388,19.4057 39.9846,19.6402 38.6144,18.849 39.0178,18.6146 			"/>
		</g>
		<g>
			<polygon fill="#686868" points="28.7793,26.152 28.3605,26.3954 27.5323,25.9172 27.9511,25.6738 			"/>
		</g>
		<g>
			<polygon fill="#686868" points="39.2252,12.7374 38.8064,12.9808 37.9632,12.494 38.382,12.2506 			"/>
		</g>
	</g>
</g>
</svg>
