<?xml version="1.0" encoding="utf-8"?>
<!-- Generator: Adobe Illustrator 18.0.0, SVG Export Plug-In . SVG Version: 6.00 Build 0)  -->
<!DOCTYPE svg PUBLIC "-//W3C//DTD SVG 1.1//EN" "http://www.w3.org/Graphics/SVG/1.1/DTD/svg11.dtd">
<svg version="1.1" id="Layer_1" xmlns="http://www.w3.org/2000/svg" xmlns:xlink="http://www.w3.org/1999/xlink" x="0px" y="0px"
	 viewBox="0 0 50 50" enable-background="new 0 0 50 50" xml:space="preserve">
<g>
	<g>
		<g>
			<g>
				<g enable-background="new    ">
					<g>
						<path fill="#929393" d="M8.9118,30.8512L8.9092,32.229c-0.0002,0.0823-0.0543,0.1645-0.1625,0.2274
							c-0.2175,0.1264-0.5716,0.1264-0.7906,0c-0.1102-0.0636-0.1653-0.1472-0.165-0.2305l0.0026-1.3778
							c-0.0002,0.0834,0.0548,0.1669,0.165,0.2305c0.2189,0.1264,0.573,0.1264,0.7906,0
							C8.8575,31.0157,8.9116,30.9335,8.9118,30.8512z"/>
					</g>
					<g>
						<path fill="#F9A62B" d="M8.7468,30.6206c0.2189,0.1264,0.2203,0.3314,0.0026,0.4579c-0.2175,0.1264-0.5716,0.1264-0.7906,0
							c-0.2191-0.1265-0.2201-0.3315-0.0026-0.4579C8.1739,30.4941,8.5277,30.4941,8.7468,30.6206z"/>
					</g>
				</g>
			</g>
			<g>
				<g enable-background="new    ">
					<g>
						<path fill="#929393" d="M12.3976,33.0227l-0.0026,1.3778c-0.0002,0.0823-0.0543,0.1645-0.1625,0.2274
							c-0.2175,0.1264-0.5716,0.1264-0.7906,0c-0.1102-0.0636-0.1653-0.1472-0.165-0.2305l0.0026-1.3778
							c-0.0002,0.0834,0.0548,0.1669,0.165,0.2305c0.2189,0.1264,0.573,0.1264,0.7906,0
							C12.3432,33.1872,12.3973,33.105,12.3976,33.0227z"/>
					</g>
					<g>
						<path fill="#F9A62B" d="M12.2325,32.7921c0.2189,0.1264,0.2203,0.3314,0.0026,0.4579c-0.2175,0.1264-0.5716,0.1264-0.7906,0
							c-0.2191-0.1265-0.2201-0.3315-0.0026-0.4579C11.6596,32.6656,12.0134,32.6656,12.2325,32.7921z"/>
					</g>
				</g>
			</g>
			<g>
				<g enable-background="new    ">
					<g>
						<path fill="#929393" d="M15.9206,30.8791l-0.0026,1.3778c-0.0002,0.0823-0.0543,0.1645-0.1624,0.2274
							c-0.2175,0.1264-0.5716,0.1264-0.7906,0c-0.1102-0.0636-0.1653-0.1472-0.165-0.2305l0.0026-1.3778
							c-0.0002,0.0834,0.0548,0.1669,0.165,0.2305c0.2189,0.1264,0.573,0.1264,0.7906,0
							C15.8663,31.0436,15.9203,30.9614,15.9206,30.8791z"/>
					</g>
					<g>
						<path fill="#F9A62B" d="M15.7556,30.6486c0.2189,0.1264,0.2203,0.3314,0.0026,0.4579c-0.2175,0.1264-0.5716,0.1264-0.7906,0
							c-0.2191-0.1265-0.2201-0.3315-0.0026-0.4579C15.1827,30.5221,15.5365,30.5221,15.7556,30.6486z"/>
					</g>
				</g>
			</g>
			<g>
				<g enable-background="new    ">
					<g>
						<polygon fill="#BFBFBF" points="16.0231,30.6856 16.0214,31.2774 11.8356,33.7099 11.8372,33.1181 						"/>
					</g>
					<g>
						<polygon fill="#D7D7D7" points="11.8372,33.1181 11.8356,33.7099 7.6224,31.2774 7.6241,30.6857 						"/>
					</g>
					<g>
						<polygon fill="#E8E8E8" points="16.0231,30.6856 11.8372,33.1181 7.6241,30.6857 11.8099,28.2531 						"/>
					</g>
				</g>
			</g>
			<g>
				<g enable-background="new    ">
					<g>
						<path fill="#BFBFBF" d="M12.5404,1.4162l-0.0033,28.7861c-0.0003,0.1053-0.0695,0.2104-0.2078,0.2908
							c-0.2782,0.1617-0.7311,0.1617-1.0111,0c-0.141-0.0814-0.2114-0.1882-0.2111-0.2949l0.0033-28.7861
							c-0.0003,0.1066,0.0701,0.2135,0.2111,0.2949c0.28,0.1617,0.7329,0.1617,1.0111,0
							C12.4709,1.6267,12.5401,1.5215,12.5404,1.4162z"/>
					</g>
					<g>
						<path fill="#E8E8E8" d="M12.3294,1.1213c0.28,0.1617,0.2817,0.4239,0.0033,0.5857c-0.2782,0.1617-0.7311,0.1617-1.0111,0
							c-0.2802-0.1618-0.2815-0.424-0.0033-0.5857C11.5966,0.9596,12.0491,0.9595,12.3294,1.1213z"/>
					</g>
				</g>
			</g>
		</g>
		<g>
			<g enable-background="new    ">
				<g>
					<polygon fill="#3CBCA1" points="13.9448,4.8209 13.8805,27.4996 11.8897,25.3681 11.954,2.6894 					"/>
				</g>
				<g>
					<polygon fill="#21B397" points="16.5531,5.6332 16.4888,28.312 13.8805,27.4996 13.9448,4.8209 					"/>
				</g>
				<g>
					<polygon fill="#3CBCA1" points="17.9641,7.1414 17.8998,29.8202 16.4888,28.312 16.5531,5.6332 					"/>
				</g>
				<g>
					<polygon fill="#21B397" points="20.5724,7.9538 20.5081,30.6325 17.8998,29.8202 17.9641,7.1414 					"/>
				</g>
				<g>
					<polygon fill="#3CBCA1" points="21.9799,9.4599 21.9156,32.1387 20.5081,30.6325 20.5724,7.9538 					"/>
				</g>
				<g>
					<polygon fill="#1FB498" points="24.5952,10.2763 24.5309,32.9551 21.9156,32.1387 21.9799,9.4599 					"/>
				</g>
				<g>
					<polygon fill="#3CBCA1" points="26.0061,11.7845 25.9418,34.4632 24.5309,32.9551 24.5952,10.2763 					"/>
				</g>
				<g>
					<polygon fill="#21B397" points="28.6144,12.5969 28.5501,35.2756 25.9418,34.4632 26.0061,11.7845 					"/>
				</g>
				<g>
					<polygon fill="#3CBCA1" points="30.0219,14.103 29.9576,36.7818 28.5501,35.2756 28.6144,12.5969 					"/>
				</g>
				<g>
					<polygon fill="#21B397" points="32.6302,14.9154 32.5659,37.5941 29.9576,36.7818 30.0219,14.103 					"/>
				</g>
				<g>
					<polygon fill="#3CBCA1" points="34.0412,16.4236 33.9769,39.1023 32.5659,37.5941 32.6302,14.9154 					"/>
				</g>
				<g>
					<polygon fill="#38A08E" points="37.8622,17.435 37.7979,40.1137 37.6702,40.2525 37.7345,17.5737 					"/>
				</g>
				<g>
					<polygon fill="#66C5B9" points="37.8622,17.435 37.7345,17.5737 34.0412,16.4236 32.6302,14.9154 30.0219,14.103 
						28.6144,12.5969 26.0061,11.7845 24.5952,10.2763 21.9799,9.4599 20.5724,7.9538 17.9641,7.1414 16.5531,5.6332 
						13.9448,4.8209 11.954,2.6894 12.1932,2.6149 14.1455,4.7043 16.7538,5.5166 18.1648,7.0248 20.7731,7.8372 22.1806,9.3433 
						24.7958,10.1597 26.2068,11.6679 28.8151,12.4802 30.2226,13.9864 32.8309,14.7987 34.2419,16.3069 					"/>
				</g>
				<g>
					<polygon fill="#21B397" points="37.7345,17.5737 37.6702,40.2525 33.9769,39.1023 34.0412,16.4236 					"/>
				</g>
			</g>
		</g>
		<g>
			<g>
				<g enable-background="new    ">
					<g>
						<path fill="#929393" d="M35.2663,45.1285l-0.0026,1.3778c-0.0002,0.0823-0.0543,0.1645-0.1625,0.2274
							c-0.2175,0.1264-0.5716,0.1264-0.7906,0c-0.1102-0.0636-0.1653-0.1472-0.165-0.2305l0.0026-1.3778
							c-0.0002,0.0834,0.0548,0.1669,0.165,0.2305c0.2189,0.1264,0.573,0.1264,0.7906,0
							C35.212,45.2931,35.2661,45.2109,35.2663,45.1285z"/>
					</g>
					<g>
						<path fill="#F9A62B" d="M35.1013,44.898c0.2189,0.1264,0.2203,0.3314,0.0026,0.4579c-0.2175,0.1264-0.5716,0.1264-0.7906,0
							c-0.2191-0.1265-0.2201-0.3315-0.0026-0.4579C34.5284,44.7715,34.8822,44.7715,35.1013,44.898z"/>
					</g>
				</g>
			</g>
			<g>
				<g enable-background="new    ">
					<g>
						<path fill="#929393" d="M38.7521,47.3l-0.0026,1.3778c-0.0002,0.0823-0.0543,0.1645-0.1624,0.2274
							c-0.2175,0.1264-0.5716,0.1264-0.7906,0c-0.1102-0.0636-0.1653-0.1472-0.165-0.2305l0.0026-1.3778
							c-0.0002,0.0834,0.0548,0.1669,0.165,0.2305c0.2189,0.1264,0.573,0.1264,0.7906,0
							C38.6977,47.4646,38.7518,47.3824,38.7521,47.3z"/>
					</g>
					<g>
						<path fill="#F9A62B" d="M38.587,47.0695c0.2189,0.1264,0.2203,0.3314,0.0026,0.4579c-0.2175,0.1264-0.5716,0.1264-0.7906,0
							c-0.2191-0.1265-0.2201-0.3315-0.0026-0.4579C38.0142,46.943,38.3679,46.943,38.587,47.0695z"/>
					</g>
				</g>
			</g>
			<g>
				<g enable-background="new    ">
					<g>
						<path fill="#929393" d="M42.2751,45.1565l-0.0026,1.3778c-0.0002,0.0823-0.0543,0.1645-0.1624,0.2274
							c-0.2175,0.1264-0.5716,0.1264-0.7906,0c-0.1102-0.0636-0.1653-0.1472-0.165-0.2305l0.0026-1.3778
							c-0.0002,0.0834,0.0548,0.1669,0.165,0.2305c0.2189,0.1264,0.573,0.1264,0.7906,0
							C42.2208,45.321,42.2749,45.2388,42.2751,45.1565z"/>
					</g>
					<g>
						<path fill="#F9A62B" d="M42.1101,44.9259c0.2189,0.1264,0.2203,0.3314,0.0026,0.4579c-0.2175,0.1264-0.5716,0.1264-0.7906,0
							c-0.2191-0.1265-0.2201-0.3315-0.0026-0.4579C41.5372,44.7994,41.891,44.7994,42.1101,44.9259z"/>
					</g>
				</g>
			</g>
			<g>
				<g enable-background="new    ">
					<g>
						<polygon fill="#BFBFBF" points="42.3776,44.963 42.3759,45.5547 38.1901,47.9873 38.1917,47.3955 						"/>
					</g>
					<g>
						<polygon fill="#D7D7D7" points="38.1917,47.3955 38.1901,47.9873 33.9769,45.5548 33.9786,44.9631 						"/>
					</g>
					<g>
						<polygon fill="#E8E8E8" points="42.3776,44.963 38.1917,47.3955 33.9786,44.9631 38.1644,42.5305 						"/>
					</g>
				</g>
			</g>
			<g>
				<g enable-background="new    ">
					<g>
						<path fill="#BFBFBF" d="M38.8949,15.6936l-0.0033,28.7861c-0.0003,0.1053-0.0695,0.2104-0.2078,0.2908
							c-0.2782,0.1617-0.7311,0.1617-1.0111,0c-0.141-0.0814-0.2114-0.1882-0.2111-0.2949l0.0033-28.7861
							c-0.0003,0.1066,0.0701,0.2135,0.2111,0.2949c0.28,0.1617,0.7329,0.1617,1.0111,0
							C38.8255,15.904,38.8946,15.7989,38.8949,15.6936z"/>
					</g>
					<g>
						<path fill="#E8E8E8" d="M38.6839,15.3987c0.28,0.1617,0.2817,0.4239,0.0033,0.5857c-0.2782,0.1617-0.7311,0.1617-1.0111,0
							c-0.2802-0.1618-0.2815-0.424-0.0033-0.5857C37.9512,15.2369,38.4036,15.2369,38.6839,15.3987z"/>
					</g>
				</g>
			</g>
		</g>
	</g>
</g>
</svg>
