<?xml version="1.0" encoding="utf-8"?>
<!-- Generator: Adobe Illustrator 18.0.0, SVG Export Plug-In . SVG Version: 6.00 Build 0)  -->
<!DOCTYPE svg PUBLIC "-//W3C//DTD SVG 1.1//EN" "http://www.w3.org/Graphics/SVG/1.1/DTD/svg11.dtd">
<svg version="1.1" id="Layer_1" xmlns="http://www.w3.org/2000/svg" xmlns:xlink="http://www.w3.org/1999/xlink" x="0px" y="0px"
	 viewBox="0 0 50 50" enable-background="new 0 0 50 50" xml:space="preserve">
<g>
	<g>
		<g>
			<g enable-background="new    ">
				<g>
					<path fill="#BFBFBF" d="M28.9451,23.2555l-0.0193,1.281c-0.0017,0.6112-0.4034,1.2216-1.2062,1.6881
						c-1.6151,0.9386-4.2442,0.9386-5.8698,0c-0.8185-0.4725-1.227-1.0927-1.2253-1.7118l0.0193-1.281
						c-0.0018,0.6191,0.4068,1.2392,1.2253,1.7118c1.6257,0.9386,4.2548,0.9385,5.8698,0
						C28.5417,24.477,28.9434,23.8667,28.9451,23.2555z"/>
				</g>
				<g>
					<path fill="#E8E8E8" d="M27.7198,21.5435c1.6257,0.9386,1.6353,2.4608,0.0191,3.4c-1.6151,0.9386-4.2442,0.9386-5.8698,0
						c-1.6268-0.9392-1.6342-2.4615-0.0191-3.4C23.4662,20.6043,26.093,20.6043,27.7198,21.5435z"/>
				</g>
			</g>
		</g>
		<g>
			<g enable-background="new    ">
				<g>
					<path fill="#D7D7D7" d="M27.9269,18.6567L27.9123,22.99c-0.0013,0.4616-0.3046,0.9226-0.9109,1.2749
						c-1.2198,0.7088-3.2054,0.7089-4.4331,0c-0.6181-0.3569-0.9267-0.8252-0.9254-1.2928l0.0146-4.3332
						c-0.0013,0.4676,0.3072,0.9359,0.9254,1.2928c1.2278,0.7088,3.2134,0.7088,4.4331,0
						C27.6222,19.5793,27.9255,19.1183,27.9269,18.6567z"/>
				</g>
				<g>
					<path fill="#E8E8E8" d="M27.0015,17.3638c1.2278,0.7088,1.2351,1.8585,0.0144,2.5678c-1.2198,0.7088-3.2054,0.7089-4.4331,0
						c-1.2286-0.7094-1.2342-1.859-0.0144-2.5678C23.789,16.6545,25.7728,16.6544,27.0015,17.3638z"/>
				</g>
			</g>
		</g>
		<g>
			<g enable-background="new    ">
				<g>
					<path fill="#D7D7D7" d="M27.1224,15.2267l-0.0108,3.2238c-0.001,0.3434-0.2266,0.6864-0.6777,0.9485
						c-0.9075,0.5274-2.3847,0.5274-3.2981,0c-0.4599-0.2655-0.6894-0.6139-0.6884-0.9618l0.0108-3.2238
						c-0.001,0.3479,0.2286,0.6963,0.6884,0.9618c0.9134,0.5274,2.3906,0.5273,3.2981,0
						C26.8957,15.9131,27.1214,15.5701,27.1224,15.2267z"/>
				</g>
				<g>
					<path fill="#E8E8E8" d="M26.4339,14.2648c0.9134,0.5274,0.9189,1.3826,0.0107,1.9104c-0.9075,0.5274-2.3847,0.5274-3.2981,0
						c-0.9141-0.5277-0.9182-1.383-0.0107-1.9104C24.044,13.7371,25.5199,13.7371,26.4339,14.2648z"/>
				</g>
			</g>
		</g>
		<g>
			<g>
				<g enable-background="new    ">
					<g>
						<path fill="#D7D7D7" d="M25.6124,4.9076l-0.0038,10.0937c-0.0003,0.1216-0.0802,0.243-0.2399,0.3358
							c-0.3213,0.1867-0.8442,0.1867-1.1676,0c-0.1628-0.094-0.2441-0.2174-0.2437-0.3405l0.0038-10.0937
							c-0.0003,0.1232,0.0809,0.2465,0.2437,0.3405c0.3234,0.1867,0.8464,0.1867,1.1676,0
							C25.5322,5.1506,25.6121,5.0292,25.6124,4.9076z"/>
					</g>
					<g>
						<path fill="#E8E8E8" d="M25.3687,4.5671c0.3234,0.1867,0.3253,0.4895,0.0038,0.6763c-0.3213,0.1867-0.8442,0.1867-1.1676,0
							c-0.3236-0.1868-0.3251-0.4896-0.0038-0.6763C24.5225,4.3803,25.0451,4.3803,25.3687,4.5671z"/>
					</g>
				</g>
			</g>
			<g>
				<g enable-background="new    ">
					<g>
						<path fill="#929393" d="M25.7989,3.4056l-0.0047,1.3985c-0.0004,0.149-0.0983,0.2978-0.294,0.4115
							c-0.3937,0.2288-1.0345,0.2288-1.4308,0c-0.1995-0.1152-0.2991-0.2663-0.2987-0.4172l0.0047-1.3985
							c-0.0004,0.1509,0.0992,0.3021,0.2987,0.4172c0.3963,0.2288,1.0371,0.2288,1.4308,0
							C25.7006,3.7034,25.7985,3.5546,25.7989,3.4056z"/>
					</g>
					<g>
						<path fill="#B0AFB0" d="M25.5002,2.9883c0.3963,0.2288,0.3986,0.5998,0.0047,0.8288c-0.3937,0.2288-1.0345,0.2288-1.4308,0
							c-0.3965-0.2289-0.3983-0.6-0.0047-0.8288C24.4634,2.7594,25.1037,2.7594,25.5002,2.9883z"/>
					</g>
				</g>
			</g>
		</g>
	</g>
	<g>
		<g enable-background="new    ">
			<g>
				<polygon fill="#B0AFB0" points="45.3158,32.3679 46.2069,31.85 46.204,32.8797 45.3129,33.3976 				"/>
			</g>
			<g>
				<polygon fill="#E8E8E8" points="26.8083,21.6826 27.6995,21.1648 46.2069,31.85 45.3158,32.3679 				"/>
			</g>
			<g>
				<polygon fill="#BFBFBF" points="45.3158,32.3679 45.3129,33.3976 26.8054,22.7123 26.8083,21.6826 				"/>
			</g>
		</g>
	</g>
	<g>
		<g enable-background="new    ">
			<g>
				<polygon fill="#B0AFB0" points="4.3121,32.3679 3.421,31.85 3.4239,32.8797 4.315,33.3976 				"/>
			</g>
			<g>
				<polygon fill="#E8E8E8" points="22.8196,21.6826 21.9284,21.1648 3.421,31.85 4.3121,32.3679 				"/>
			</g>
			<g>
				<polygon fill="#BFBFBF" points="4.3121,32.3679 4.315,33.3976 22.8225,22.7123 22.8196,21.6826 				"/>
			</g>
		</g>
	</g>
	<g>
		<g>
			<g enable-background="new    ">
				<g>
					<path fill="#D7D7D7" d="M49,30.9968l-0.0091,4.6066c-0.0008,0.2887-0.1905,0.577-0.5697,0.7973
						c-0.7628,0.4433-2.0046,0.4433-2.7725,0c-0.3866-0.2232-0.5796-0.5161-0.5787-0.8085l0.0091-4.6066
						c-0.0008,0.2924,0.1921,0.5853,0.5787,0.8085c0.7678,0.4433,2.0096,0.4433,2.7725,0
						C48.8095,31.5738,48.9992,31.2855,49,30.9968z"/>
				</g>
				<g>
					<path fill="#E8E8E8" d="M48.4213,30.1882c0.7678,0.4433,0.7724,1.1623,0.009,1.6059c-0.7628,0.4433-2.0046,0.4433-2.7725,0
						c-0.7684-0.4436-0.7719-1.1626-0.009-1.6059C46.4122,29.7446,47.6529,29.7446,48.4213,30.1882z"/>
				</g>
			</g>
		</g>
		<g>
			<g enable-background="new    ">
				<g>
					<path fill="#D7D7D7" d="M48.4969,28.8517l-0.0068,2.0161c-0.0006,0.2148-0.1417,0.4292-0.4238,0.5932
						c-0.5675,0.3298-1.4914,0.3298-2.0626,0c-0.2876-0.166-0.4312-0.384-0.4305-0.6015l0.0068-2.0161
						c-0.0006,0.2175,0.1429,0.4355,0.4305,0.6015c0.5712,0.3298,1.4951,0.3298,2.0626,0
						C48.3551,29.2809,48.4963,29.0665,48.4969,28.8517z"/>
				</g>
				<g>
					<path fill="#E8E8E8" d="M48.0663,28.2501c0.5712,0.3298,0.5746,0.8647,0.0067,1.1947c-0.5675,0.3298-1.4914,0.3298-2.0626,0
						c-0.5716-0.33-0.5742-0.8649-0.0067-1.1947C46.5717,27.9201,47.4947,27.9201,48.0663,28.2501z"/>
				</g>
			</g>
		</g>
	</g>
	<g>
		<g>
			<g enable-background="new    ">
				<g>
					<path fill="#D7D7D7" d="M4.93,30.4789l-0.0091,4.6066c-0.0008,0.2887-0.1905,0.577-0.5697,0.7973
						c-0.7628,0.4433-2.0046,0.4433-2.7725,0C1.1921,35.6596,0.9992,35.3667,1,35.0743l0.0091-4.6066
						c-0.0008,0.2924,0.1921,0.5853,0.5787,0.8085c0.7678,0.4433,2.0096,0.4433,2.7725,0
						C4.7395,31.0559,4.9292,30.7676,4.93,30.4789z"/>
				</g>
				<g>
					<path fill="#E8E8E8" d="M4.3513,29.6703c0.7678,0.4433,0.7724,1.1623,0.009,1.6059c-0.7628,0.4433-2.0046,0.4433-2.7725,0
						c-0.7684-0.4436-0.7719-1.1626-0.009-1.6059C2.3422,29.2267,3.5829,29.2267,4.3513,29.6703z"/>
				</g>
			</g>
		</g>
		<g>
			<g enable-background="new    ">
				<g>
					<path fill="#D7D7D7" d="M4.4269,28.3338L4.4201,30.35c-0.0006,0.2148-0.1417,0.4292-0.4238,0.5932
						c-0.5675,0.3298-1.4914,0.3298-2.0626,0c-0.2876-0.166-0.4312-0.384-0.4305-0.6015l0.0068-2.0161
						c-0.0006,0.2175,0.1429,0.4355,0.4305,0.6015c0.5712,0.3298,1.4951,0.3298,2.0626,0
						C4.2851,28.7631,4.4263,28.5486,4.4269,28.3338z"/>
				</g>
				<g>
					<path fill="#E8E8E8" d="M3.9963,27.7323C4.5676,28.0621,4.571,28.597,4.003,28.927c-0.5675,0.3298-1.4914,0.3298-2.0626,0
						c-0.5716-0.33-0.5742-0.8649-0.0067-1.1947C2.5017,27.4022,3.4247,27.4022,3.9963,27.7323z"/>
				</g>
			</g>
		</g>
	</g>
	<g>
		<g enable-background="new    ">
			<g>
				<polygon fill="#B0AFB0" points="41.2929,36.7405 40.4018,36.2227 40.4047,37.2524 41.2958,37.7702 				"/>
			</g>
			<g>
				<polygon fill="#E8E8E8" points="46.4625,33.7559 45.5714,33.238 40.4018,36.2227 41.2929,36.7405 				"/>
			</g>
			<g>
				<polygon fill="#BFBFBF" points="41.2929,36.7405 41.2958,37.7702 46.4655,34.7855 46.4625,33.7559 				"/>
			</g>
		</g>
	</g>
	<g>
		<g enable-background="new    ">
			<g>
				<polygon fill="#B0AFB0" points="8.2887,36.3293 9.1799,35.8114 9.1769,36.8411 8.2858,37.3589 				"/>
			</g>
			<g>
				<polygon fill="#E8E8E8" points="3.1191,33.3446 4.0102,32.8267 9.1799,35.8114 8.2887,36.3293 				"/>
			</g>
			<g>
				<polygon fill="#BFBFBF" points="8.2887,36.3293 8.2858,37.3589 3.1162,34.3742 3.1191,33.3446 				"/>
			</g>
		</g>
	</g>
	<g>
		<g>
			<g enable-background="new    ">
				<g>
					<path fill="#4F4D4D" d="M5.0354,40.7309c0.0035,1.8047,0.6416,3.0737,1.6673,3.673l4.0532,2.3557
						c-1.0258-0.5993-1.6638-1.8684-1.6673-3.6732c-0.0106-3.6343,2.5415-8.0547,5.7034-9.8805
						c1.5898-0.9165,3.0315-1.0047,4.0714-0.3983l-4.0532-2.3557c-1.0399-0.6028-2.4816-0.5183-4.0714,0.3983
						C7.5769,32.6763,5.0248,37.1001,5.0354,40.7309z"/>
				</g>
				<g>
					<path fill="#686868" d="M14.7915,33.206c-3.1621,1.8256-5.7149,6.2474-5.7046,9.8808
						c0.0103,3.6308,2.5798,5.0978,5.7419,3.2722c3.1598-1.8243,5.7149-6.25,5.7046-9.8808
						C20.5231,32.8447,17.9514,31.3816,14.7915,33.206z"/>
				</g>
			</g>
		</g>
		<g>
			<path fill="#4F4D4D" d="M14.8072,38.7278c-0.5071,0.2928-0.9165,1.0019-0.9149,1.5846c0.0017,0.5823,0.4137,0.8175,0.9208,0.5248
				c0.5067-0.2926,0.9165-1.0023,0.9149-1.5846C15.7264,38.6699,15.3139,38.4353,14.8072,38.7278z"/>
		</g>
		<g>
			<path fill="#4F4D4D" d="M13.8945,38.2006c1.0559-0.6153,1.9031-2.0891,1.9031-3.2959c0-0.4754-0.1277-0.8352-0.3482-1.0443
				c0.441,0.1394,0.7194,0.5921,0.7194,1.2879c0,1.2069-0.8471,2.6812-1.903,3.284c-0.6498,0.383-1.2184,0.3366-1.5666-0.0346
				C13.0242,38.514,13.4419,38.4675,13.8945,38.2006z"/>
			<path fill="#F7E28E" d="M14.2542,34.0582c0.4526-0.2674,0.8703-0.3252,1.1952-0.1977c0.2205,0.2091,0.3482,0.5689,0.3482,1.0443
				c0,1.2069-0.8471,2.6806-1.9031,3.2959c-0.4526,0.2669-0.8703,0.3133-1.1952,0.1972c-0.2205-0.2323-0.3365-0.5921-0.3481-1.0561
				C12.3511,36.1348,13.1982,34.6611,14.2542,34.0582z"/>
		</g>
		<g>
			<path fill="#4F4D4D" d="M15.1363,45.2189c1.0559-0.6153,1.9031-2.0891,1.9031-3.2959c0-0.4754-0.1277-0.8352-0.3482-1.0443
				c0.441,0.1394,0.7194,0.5921,0.7194,1.2879c0,1.2069-0.8471,2.6812-1.903,3.284c-0.6498,0.383-1.2184,0.3366-1.5666-0.0346
				C14.266,45.5323,14.6837,45.4858,15.1363,45.2189z"/>
			<path fill="#F7E28E" d="M15.496,41.0765c0.4526-0.2674,0.8703-0.3252,1.1952-0.1977c0.2205,0.2091,0.3482,0.5689,0.3482,1.0443
				c0,1.2069-0.8471,2.6806-1.9031,3.2959c-0.4526,0.2669-0.8703,0.3133-1.1952,0.1972c-0.2205-0.2323-0.3365-0.5921-0.3481-1.0561
				C13.593,43.1531,14.44,41.6794,15.496,41.0765z"/>
		</g>
		<g>
			<path fill="#4F4D4D" d="M11.1522,43.7431c1.0559-0.6153,1.9031-2.0891,1.9031-3.2959c0-0.4754-0.1277-0.8352-0.3482-1.0442
				c0.441,0.1394,0.7194,0.5921,0.7194,1.2879c0,1.2069-0.8471,2.6812-1.903,3.284c-0.6498,0.383-1.2184,0.3366-1.5666-0.0346
				C10.2819,44.0564,10.6996,44.01,11.1522,43.7431z"/>
			<path fill="#F7E28E" d="M11.5119,39.6007c0.4526-0.2674,0.8703-0.3252,1.1952-0.1977c0.2205,0.2091,0.3482,0.5689,0.3482,1.0442
				c0,1.2069-0.8471,2.6806-1.9031,3.2959c-0.4526,0.2669-0.8703,0.3133-1.1952,0.1972c-0.2205-0.2323-0.3365-0.5921-0.3481-1.0561
				C9.6088,41.6773,10.4559,40.2036,11.5119,39.6007z"/>
		</g>
		<g>
			<path fill="#4F4D4D" d="M17.7122,39.2844c1.0559-0.6153,1.9031-2.0891,1.9031-3.2959c0-0.4754-0.1277-0.8352-0.3482-1.0443
				c0.441,0.1394,0.7194,0.5921,0.7194,1.2879c0,1.2069-0.8471,2.6812-1.903,3.284c-0.6498,0.383-1.2184,0.3366-1.5666-0.0346
				C16.8419,39.5978,17.2596,39.5513,17.7122,39.2844z"/>
			<path fill="#F7E28E" d="M18.0719,35.142c0.4526-0.2674,0.8703-0.3252,1.1952-0.1977c0.2205,0.2091,0.3482,0.5689,0.3482,1.0443
				c0,1.2069-0.8471,2.6806-1.9031,3.2959c-0.4526,0.2669-0.8703,0.3133-1.1952,0.1972c-0.2205-0.2323-0.3365-0.5921-0.3481-1.0561
				C16.1688,37.2186,17.0159,35.7449,18.0719,35.142z"/>
		</g>
	</g>
	<g>
		<g>
			<g enable-background="new    ">
				<g>
					<path fill="#4F4D4D" d="M47.5726,37.2766c0.9367,1.5425,1.0528,2.9582,0.4891,4.004l-2.2337,4.1217
						c0.5637-1.0458,0.4476-2.4614-0.4892-4.0041c-1.8834-3.1082-6.3639-5.5531-10.0141-5.4655
						c-1.8345,0.0453-3.1112,0.7208-3.6833,1.78l2.2337-4.1217c0.5739-1.0561,1.8488-1.7346,3.6833-1.78
						C41.2087,31.7235,45.691,34.1713,47.5726,37.2766z"/>
				</g>
				<g>
					<path fill="#686868" d="M35.3252,35.9325c3.6502-0.0879,8.1321,2.3578,10.0153,5.4652
						c1.8818,3.1051,0.452,5.6955-3.1982,5.7834c-3.6476,0.0879-8.1335-2.36-10.0153-5.4652
						C30.2438,38.6085,31.6776,36.0203,35.3252,35.9325z"/>
				</g>
			</g>
		</g>
		<g>
			<path fill="#4F4D4D" d="M38.1871,40.6548c0.5854-0.0141,1.3042,0.3781,1.6062,0.8765c0.3018,0.498,0.0725,0.9134-0.5129,0.9275
				c-0.585,0.0141-1.3044-0.3785-1.6062-0.8765C37.3722,41.084,37.6021,40.6689,38.1871,40.6548z"/>
		</g>
		<g>
			<path fill="#4F4D4D" d="M38.6918,39.7295c-1.2219,0.0245-2.7125-0.7926-3.3409-1.8229
				c-0.2475-0.4058-0.3259-0.7795-0.2465-1.0728c-0.3039,0.3486-0.3059,0.8801,0.0564,1.4741
				c0.6284,1.0303,2.1193,1.8479,3.3347,1.8128c0.7542-0.0114,1.2154-0.3471,1.3195-0.8452
				C39.5979,39.5438,39.2171,39.7216,38.6918,39.7295z"/>
			<path fill="#F7E28E" d="M36.2277,36.3802c-0.5256,0.0073-0.9124,0.1755-1.1233,0.4535c-0.0794,0.2933-0.001,0.667,0.2465,1.0728
				c0.6284,1.0303,2.119,1.8474,3.3409,1.8229c0.5253-0.0078,0.9062-0.1857,1.1231-0.454c0.0673-0.3131-0.021-0.6807-0.2528-1.0829
				C38.9337,37.1622,37.4431,36.3451,36.2277,36.3802z"/>
		</g>
		<g>
			<path fill="#4F4D4D" d="M41.2861,46.3679c-1.2219,0.0245-2.7125-0.7926-3.3409-1.8229
				c-0.2475-0.4058-0.3259-0.7795-0.2465-1.0728c-0.3039,0.3486-0.3059,0.8801,0.0564,1.4741
				c0.6284,1.0303,2.1193,1.8479,3.3347,1.8128c0.7542-0.0114,1.2154-0.3471,1.3195-0.8452
				C42.1923,46.1822,41.8114,46.36,41.2861,46.3679z"/>
			<path fill="#F7E28E" d="M38.822,43.0187c-0.5256,0.0073-0.9124,0.1755-1.1233,0.4535c-0.0794,0.2933-0.001,0.667,0.2465,1.0728
				c0.6284,1.0303,2.119,1.8474,3.3409,1.8229c0.5253-0.0078,0.9062-0.1857,1.1231-0.454c0.0673-0.3131-0.021-0.6807-0.2528-1.0829
				C41.528,43.8006,40.0374,42.9835,38.822,43.0187z"/>
		</g>
		<g>
			<path fill="#4F4D4D" d="M43.919,43.0333c-1.2219,0.0245-2.7125-0.7926-3.3409-1.8229c-0.2475-0.4058-0.3259-0.7795-0.2465-1.0728
				c-0.3039,0.3486-0.3059,0.8801,0.0564,1.4741c0.6284,1.0303,2.1193,1.8479,3.3347,1.8128
				c0.7542-0.0114,1.2154-0.3471,1.3194-0.8452C44.8252,42.8477,44.4443,43.0255,43.919,43.0333z"/>
			<path fill="#F7E28E" d="M41.4549,39.6841c-0.5256,0.0073-0.9124,0.1755-1.1233,0.4535c-0.0794,0.2933-0.001,0.667,0.2465,1.0728
				c0.6284,1.0303,2.119,1.8474,3.3409,1.8229c0.5253-0.0078,0.9062-0.1857,1.1231-0.454c0.0673-0.3131-0.021-0.6807-0.2528-1.0829
				C44.1609,40.466,42.6704,39.6489,41.4549,39.6841z"/>
		</g>
		<g>
			<path fill="#4F4D4D" d="M35.9968,42.6427c-1.2219,0.0245-2.7125-0.7925-3.3409-1.8229
				c-0.2475-0.4058-0.3259-0.7795-0.2465-1.0728c-0.3039,0.3486-0.3059,0.8801,0.0564,1.4741
				c0.6284,1.0303,2.1193,1.8479,3.3347,1.8128c0.7542-0.0114,1.2154-0.3471,1.3195-0.8452
				C36.903,42.457,36.5222,42.6348,35.9968,42.6427z"/>
			<path fill="#F7E28E" d="M33.5327,39.2935c-0.5256,0.0073-0.9124,0.1755-1.1233,0.4535c-0.0794,0.2933-0.001,0.667,0.2465,1.0728
				c0.6284,1.0303,2.119,1.8474,3.3409,1.8229c0.5253-0.0078,0.9062-0.1857,1.1231-0.454c0.0673-0.3131-0.021-0.6807-0.2528-1.0829
				C36.2388,40.0754,34.7482,39.2583,33.5327,39.2935z"/>
		</g>
	</g>
</g>
</svg>
