<?xml version="1.0" encoding="utf-8"?>
<!-- Generator: Adobe Illustrator 18.0.0, SVG Export Plug-In . SVG Version: 6.00 Build 0)  -->
<!DOCTYPE svg PUBLIC "-//W3C//DTD SVG 1.1//EN" "http://www.w3.org/Graphics/SVG/1.1/DTD/svg11.dtd">
<svg version="1.1" id="Layer_1" xmlns="http://www.w3.org/2000/svg" xmlns:xlink="http://www.w3.org/1999/xlink" x="0px" y="0px"
	 viewBox="0 0 50 50" enable-background="new 0 0 50 50" xml:space="preserve">
<g>
	<g>
		<g>
			<g enable-background="new    ">
				<g>
					<polygon fill="#3D3D3D" points="46.0086,39.8448 46.0067,40.4957 30.6799,49.4026 30.6818,48.7517 					"/>
				</g>
				<g>
					<polygon fill="#4F4D4D" points="30.6818,48.7517 30.6799,49.4026 3.9914,33.994 3.9933,33.3431 					"/>
				</g>
				<g>
					<polygon fill="#686868" points="46.0086,39.8448 30.6818,48.7517 3.9933,33.3431 19.3201,24.4361 					"/>
				</g>
			</g>
		</g>
		<g>
			<g>
				<g>
					<g enable-background="new    ">
						<g>
							<polygon fill="#BFBFBF" points="31.3806,36.2647 31.3515,47.7183 30.6688,48.1151 30.6978,36.6615 							"/>
						</g>
						<g>
							<polygon fill="#D7D7D7" points="30.6978,36.6615 30.6688,48.1151 29.9793,47.717 30.0084,36.2634 							"/>
						</g>
						<g>
							<polygon fill="#E8E8E8" points="31.3806,36.2647 30.6978,36.6615 30.0084,36.2634 30.6911,35.8666 							"/>
						</g>
					</g>
					<g enable-background="new    ">
						<g>
							<polygon fill="#BFBFBF" points="45.216,28.2907 45.187,39.7443 44.5042,40.1411 44.5333,28.6875 							"/>
						</g>
						<g>
							<polygon fill="#D7D7D7" points="44.5333,28.6875 44.5042,40.1411 43.8147,39.743 43.8438,28.2894 							"/>
						</g>
						<g>
							<polygon fill="#E8E8E8" points="45.216,28.2907 44.5333,28.6875 43.8438,28.2894 44.5266,27.8926 							"/>
						</g>
					</g>
				</g>
				<g>
					<g enable-background="new    ">
						<g>
							<polygon fill="#BFBFBF" points="6.4259,21.914 6.3968,33.3676 5.714,33.7644 5.7431,22.3108 							"/>
						</g>
						<g>
							<polygon fill="#D7D7D7" points="5.7431,22.3108 5.714,33.7644 5.0246,33.3664 5.0536,21.9127 							"/>
						</g>
						<g>
							<polygon fill="#E8E8E8" points="6.4259,21.914 5.7431,22.3108 5.0536,21.9127 5.7364,21.516 							"/>
						</g>
					</g>
					<g enable-background="new    ">
						<g>
							<polygon fill="#BFBFBF" points="20.2613,13.94 20.2322,25.3937 19.5495,25.7904 19.5785,14.3368 							"/>
						</g>
						<g>
							<polygon fill="#D7D7D7" points="19.5785,14.3368 19.5495,25.7904 18.86,25.3924 18.8891,13.9388 							"/>
						</g>
						<g>
							<polygon fill="#E8E8E8" points="20.2613,13.94 19.5785,14.3368 18.8891,13.9388 19.5718,13.542 							"/>
						</g>
					</g>
				</g>
			</g>
			<g>
				<g enable-background="new    ">
					<g>
						<polygon fill="#3D3D3D" points="46.0086,27.8636 46.0067,28.5145 30.6799,37.4215 30.6818,36.7706 						"/>
					</g>
					<g>
						<polygon fill="#4F4D4D" points="30.6818,36.7706 30.6799,37.4215 3.9914,22.0129 3.9933,21.362 						"/>
					</g>
					<g>
						<polygon fill="#686868" points="46.0086,27.8636 30.6818,36.7706 3.9933,21.362 19.3201,12.455 						"/>
					</g>
				</g>
			</g>
		</g>
		<g>
			<g>
				<g>
					<g enable-background="new    ">
						<g>
							<polygon fill="#BFBFBF" points="31.3806,24.4071 31.3515,35.8607 30.6688,36.2575 30.6978,24.8038 							"/>
						</g>
						<g>
							<polygon fill="#D7D7D7" points="30.6978,24.8038 30.6688,36.2575 29.9793,35.8594 30.0084,24.4058 							"/>
						</g>
						<g>
							<polygon fill="#E8E8E8" points="31.3806,24.4071 30.6978,24.8038 30.0084,24.4058 30.6911,24.009 							"/>
						</g>
					</g>
					<g enable-background="new    ">
						<g>
							<polygon fill="#BFBFBF" points="45.216,16.4331 45.187,27.8867 44.5042,28.2835 44.5333,16.8299 							"/>
						</g>
						<g>
							<polygon fill="#D7D7D7" points="44.5333,16.8299 44.5042,28.2835 43.8147,27.8854 43.8438,16.4318 							"/>
						</g>
						<g>
							<polygon fill="#E8E8E8" points="45.216,16.4331 44.5333,16.8299 43.8438,16.4318 44.5266,16.035 							"/>
						</g>
					</g>
				</g>
				<g>
					<g enable-background="new    ">
						<g>
							<polygon fill="#BFBFBF" points="6.4259,10.0564 6.3968,21.51 5.714,21.9068 5.7431,10.4532 							"/>
						</g>
						<g>
							<polygon fill="#D7D7D7" points="5.7431,10.4532 5.714,21.9068 5.0246,21.5087 5.0536,10.0551 							"/>
						</g>
						<g>
							<polygon fill="#E8E8E8" points="6.4259,10.0564 5.7431,10.4532 5.0536,10.0551 5.7364,9.6583 							"/>
						</g>
					</g>
					<g enable-background="new    ">
						<g>
							<polygon fill="#BFBFBF" points="20.2613,2.0824 20.2322,13.536 19.5495,13.9328 19.5785,2.4792 							"/>
						</g>
						<g>
							<polygon fill="#D7D7D7" points="19.5785,2.4792 19.5495,13.9328 18.86,13.5347 18.8891,2.0811 							"/>
						</g>
						<g>
							<polygon fill="#E8E8E8" points="20.2613,2.0824 19.5785,2.4792 18.8891,2.0811 19.5718,1.6843 							"/>
						</g>
					</g>
				</g>
			</g>
			<g>
				<g enable-background="new    ">
					<g>
						<polygon fill="#3D3D3D" points="46.0086,16.006 46.0067,16.6569 30.6799,25.5639 30.6818,24.913 						"/>
					</g>
					<g>
						<polygon fill="#4F4D4D" points="30.6818,24.913 30.6799,25.5639 3.9914,10.1552 3.9933,9.5043 						"/>
					</g>
					<g>
						<polygon fill="#686868" points="46.0086,16.006 30.6818,24.913 3.9933,9.5043 19.3201,0.5974 						"/>
					</g>
				</g>
			</g>
		</g>
	</g>
	<g>
		<g>
			<g>
				<g enable-background="new    ">
					<g>
						<path fill="#F2961F" d="M34.5935,11.7168l0.0121,5.3975c0.0011,0.3845,0.2537,0.7684,0.7587,1.0619
							c1.0159,0.5904,2.6697,0.5904,3.6923,0c0.5149-0.2972,0.7718-0.6873,0.7707-1.0768l-0.0121-5.3975
							c0.0011,0.3894-0.2559,0.7795-0.7707,1.0768c-1.0226,0.5904-2.6764,0.5904-3.6923,0
							C34.8473,12.4852,34.5946,12.1013,34.5935,11.7168z"/>
					</g>
					<g>
						<path fill="#F9A62B" d="M35.3643,10.6399c-1.0226,0.5904-1.0287,1.5479-0.012,2.1387c1.0159,0.5904,2.6697,0.5904,3.6923,0
							c1.0233-0.5908,1.0279-1.5483,0.012-2.1387C38.0399,10.0491,36.3876,10.0491,35.3643,10.6399z"/>
					</g>
				</g>
			</g>
			<g>
				<g>
					<g enable-background="new    ">
						<g>
							<path fill="#D34A27" d="M34.1651,11.4852l0.0141,0.1293c0.0013,0.4474,0.2953,0.8942,0.8829,1.2357
								c1.1822,0.687,3.1068,0.6871,4.2968,0c0.5991-0.3459,0.8982-0.7998,0.8969-1.253l-0.0141-0.1293
								c0.0013,0.4532-0.2978,0.9071-0.8969,1.253c-1.19,0.6871-3.1146,0.687-4.2968,0
								C34.4604,12.3794,34.1664,11.9327,34.1651,11.4852z"/>
						</g>
						<g>
							<path fill="#F9A62B" d="M35.062,10.2321c-1.19,0.6871-1.1971,1.8013-0.014,2.4889c1.1822,0.687,3.1068,0.6871,4.2968,0
								c1.1909-0.6875,1.1962-1.8018,0.014-2.4889C38.1757,9.5445,36.2529,9.5445,35.062,10.2321z"/>
						</g>
					</g>
				</g>
				<g>
					<g enable-background="new    ">
						<g>
							<path fill="#BFBFBF" d="M34.1651,11.3559l0.0141,0.1293c0.0013,0.4474,0.2953,0.8942,0.8829,1.2357
								c1.1822,0.687,3.1068,0.6871,4.2968,0c0.5991-0.3459,0.8982-0.7998,0.8969-1.253l-0.0141-0.1293
								c0.0013,0.4532-0.2978,0.9071-0.8969,1.253c-1.19,0.6871-3.1146,0.687-4.2968,0
								C34.4604,12.2501,34.1664,11.8033,34.1651,11.3559z"/>
						</g>
						<g>
							<path fill="#E8E8E8" d="M35.062,10.1027c-1.19,0.6871-1.1971,1.8013-0.014,2.4889c1.1822,0.687,3.1068,0.6871,4.2968,0
								c1.1909-0.6875,1.1962-1.8018,0.014-2.4889C38.1757,9.4152,36.2529,9.4152,35.062,10.1027z"/>
						</g>
					</g>
				</g>
			</g>
			<g>
				<g>
					<g enable-background="new    ">
						<g>
							<path fill="#D34A27" d="M34.1651,11.4852l0.0141,0.1293c0.0013,0.4474,0.2953,0.8942,0.8829,1.2357
								c1.1822,0.687,3.1068,0.6871,4.2968,0c0.5991-0.3459,0.8982-0.7998,0.8969-1.253l-0.0141-0.1293
								c0.0013,0.4532-0.2978,0.9071-0.8969,1.253c-1.19,0.6871-3.1146,0.687-4.2968,0
								C34.4604,12.3794,34.1664,11.9327,34.1651,11.4852z"/>
						</g>
						<g>
							<path fill="#F9A62B" d="M35.062,10.2321c-1.19,0.6871-1.1971,1.8013-0.014,2.4889c1.1822,0.687,3.1068,0.6871,4.2968,0
								c1.1909-0.6875,1.1962-1.8018,0.014-2.4889C38.1757,9.5445,36.2529,9.5445,35.062,10.2321z"/>
						</g>
					</g>
				</g>
				<g>
					<g enable-background="new    ">
						<g>
							<path fill="#BFBFBF" d="M34.1651,11.3559l0.0141,0.1293c0.0013,0.4474,0.2953,0.8942,0.8829,1.2357
								c1.1822,0.687,3.1068,0.6871,4.2968,0c0.5991-0.3459,0.8982-0.7998,0.8969-1.253l-0.0141-0.1293
								c0.0013,0.4532-0.2978,0.9071-0.8969,1.253c-1.19,0.6871-3.1146,0.687-4.2968,0
								C34.4604,12.2501,34.1664,11.8033,34.1651,11.3559z"/>
						</g>
						<g>
							<path fill="#E8E8E8" d="M35.062,10.1027c-1.19,0.6871-1.1971,1.8013-0.014,2.4889c1.1822,0.687,3.1068,0.6871,4.2968,0
								c1.1909-0.6875,1.1962-1.8018,0.014-2.4889C38.1757,9.4152,36.2529,9.4152,35.062,10.1027z"/>
						</g>
					</g>
				</g>
			</g>
			<g>
				<g>
					<g enable-background="new    ">
						<g opacity="0.5">
							<path fill="#E66C24" d="M35.371,15.9362c-1.0189,0.5882-1.0249,1.5423-0.012,2.1309c1.0122,0.5882,2.66,0.5883,3.6788,0
								c1.0196-0.5887,1.0242-1.5427,0.012-2.1309C38.0369,15.3475,36.3906,15.3475,35.371,15.9362z"/>
						</g>
					</g>
				</g>
			</g>
			<g>
				<g enable-background="new    ">
					<g>
						<path fill="#BFBFBF" d="M34.2753,10.22l0.0136,1.0363c0.0012,0.4312,0.2846,0.8619,0.851,1.191
							c1.1395,0.6622,2.9944,0.6622,4.1414,0c0.5775-0.3334,0.8657-0.7709,0.8645-1.2077l-0.0136-1.0363
							c0.0012,0.4368-0.287,0.8743-0.8645,1.2077c-1.147,0.6622-3.0019,0.6622-4.1414,0
							C34.5599,11.0819,34.2765,10.6512,34.2753,10.22z"/>
					</g>
					<g>
						<path fill="#E8E8E8" d="M35.1397,9.0122c-1.147,0.6622-1.1538,1.7362-0.0135,2.3988c1.1395,0.6622,2.9944,0.6622,4.1414,0
							c1.1478-0.6627,1.153-1.7367,0.0135-2.3989C38.1408,8.3495,36.2875,8.3495,35.1397,9.0122z"/>
					</g>
				</g>
			</g>
			<g>
				<path fill="#D34A27" d="M34.6031,17.0091l0.0121,0.1107c0.0011,0.3831,0.2528,0.7656,0.756,1.058
					c1.0122,0.5882,2.66,0.5883,3.6788,0c0.513-0.2962,0.769-0.6848,0.7679-1.0728l-0.0121-0.1107
					c0.0011,0.388-0.255,0.7767-0.7679,1.0728c-1.0189,0.5882-2.6666,0.5882-3.6788,0
					C34.8559,17.7747,34.6042,17.3922,34.6031,17.0091z"/>
			</g>
		</g>
		<path fill="#F7E28E" d="M34.6734,13.1415c0.4812,0.3633,1.0975,0.6313,1.7561,0.7682v4.0511
			c-0.4967-0.1114-0.9631-0.3145-1.3081-0.5749c-0.3293-0.2485-0.5185-0.5242-0.5191-0.7561l-0.0087-3.5503
			C34.6196,13.1004,34.6463,13.1212,34.6734,13.1415z"/>
	</g>
	<g>
		<g>
			<g>
				<g enable-background="new    ">
					<g>
						<path fill="#F2961F" d="M28.0648,14.9905l0.0121,5.3975c0.0011,0.3845,0.2537,0.7684,0.7587,1.0619
							c1.0159,0.5904,2.6697,0.5904,3.6923,0c0.5149-0.2973,0.7718-0.6873,0.7707-1.0768l-0.0121-5.3975
							c0.0011,0.3894-0.2559,0.7795-0.7707,1.0768c-1.0226,0.5904-2.6764,0.5904-3.6923,0
							C28.3186,15.7589,28.0659,15.375,28.0648,14.9905z"/>
					</g>
					<g>
						<path fill="#F9A62B" d="M28.8356,13.9136c-1.0226,0.5904-1.0287,1.5479-0.012,2.1387c1.0159,0.5904,2.6697,0.5904,3.6923,0
							c1.0233-0.5908,1.028-1.5483,0.012-2.1387C31.5112,13.3228,29.8589,13.3228,28.8356,13.9136z"/>
					</g>
				</g>
			</g>
			<g>
				<g>
					<g enable-background="new    ">
						<g>
							<path fill="#D34A27" d="M27.6364,14.7589l0.0141,0.1293c0.0013,0.4474,0.2953,0.8942,0.8829,1.2357
								c1.1822,0.687,3.1068,0.6871,4.2968,0c0.5991-0.3459,0.8982-0.7998,0.8969-1.253l-0.0141-0.1293
								c0.0013,0.4532-0.2978,0.9071-0.8969,1.253c-1.19,0.6871-3.1146,0.687-4.2968,0
								C27.9317,15.6531,27.6377,15.2063,27.6364,14.7589z"/>
						</g>
						<g>
							<path fill="#F9A62B" d="M28.5333,13.5058c-1.19,0.6871-1.1971,1.8013-0.014,2.4889c1.1822,0.687,3.1068,0.6871,4.2968,0
								c1.1909-0.6875,1.1962-1.8018,0.014-2.4889C31.647,12.8182,29.7242,12.8182,28.5333,13.5058z"/>
						</g>
					</g>
				</g>
				<g>
					<g enable-background="new    ">
						<g>
							<path fill="#BFBFBF" d="M27.6364,14.6296l0.0141,0.1293c0.0013,0.4474,0.2953,0.8942,0.8829,1.2357
								c1.1822,0.687,3.1068,0.6871,4.2968,0c0.5991-0.3459,0.8982-0.7998,0.8969-1.253l-0.0141-0.1293
								c0.0013,0.4532-0.2978,0.9071-0.8969,1.253c-1.19,0.6871-3.1146,0.687-4.2968,0
								C27.9317,15.5238,27.6377,15.077,27.6364,14.6296z"/>
						</g>
						<g>
							<path fill="#E8E8E8" d="M28.5333,13.3764c-1.19,0.6871-1.1971,1.8013-0.014,2.4889c1.1822,0.687,3.1068,0.6871,4.2968,0
								c1.1909-0.6875,1.1962-1.8018,0.014-2.4889C31.647,12.6889,29.7242,12.6889,28.5333,13.3764z"/>
						</g>
					</g>
				</g>
			</g>
			<g>
				<g>
					<g enable-background="new    ">
						<g>
							<path fill="#D34A27" d="M27.6364,14.7589l0.0141,0.1293c0.0013,0.4474,0.2953,0.8942,0.8829,1.2357
								c1.1822,0.687,3.1068,0.6871,4.2968,0c0.5991-0.3459,0.8982-0.7998,0.8969-1.253l-0.0141-0.1293
								c0.0013,0.4532-0.2978,0.9071-0.8969,1.253c-1.19,0.6871-3.1146,0.687-4.2968,0
								C27.9317,15.6531,27.6377,15.2063,27.6364,14.7589z"/>
						</g>
						<g>
							<path fill="#F9A62B" d="M28.5333,13.5058c-1.19,0.6871-1.1971,1.8013-0.014,2.4889c1.1822,0.687,3.1068,0.6871,4.2968,0
								c1.1909-0.6875,1.1962-1.8018,0.014-2.4889C31.647,12.8182,29.7242,12.8182,28.5333,13.5058z"/>
						</g>
					</g>
				</g>
				<g>
					<g enable-background="new    ">
						<g>
							<path fill="#BFBFBF" d="M27.6364,14.6296l0.0141,0.1293c0.0013,0.4474,0.2953,0.8942,0.8829,1.2357
								c1.1822,0.687,3.1068,0.6871,4.2968,0c0.5991-0.3459,0.8982-0.7998,0.8969-1.253l-0.0141-0.1293
								c0.0013,0.4532-0.2978,0.9071-0.8969,1.253c-1.19,0.6871-3.1146,0.687-4.2968,0
								C27.9317,15.5238,27.6377,15.077,27.6364,14.6296z"/>
						</g>
						<g>
							<path fill="#E8E8E8" d="M28.5333,13.3764c-1.19,0.6871-1.1971,1.8013-0.014,2.4889c1.1822,0.687,3.1068,0.6871,4.2968,0
								c1.1909-0.6875,1.1962-1.8018,0.014-2.4889C31.647,12.6889,29.7242,12.6889,28.5333,13.3764z"/>
						</g>
					</g>
				</g>
			</g>
			<g>
				<g>
					<g enable-background="new    ">
						<g opacity="0.5">
							<path fill="#E66C24" d="M28.8423,19.2099c-1.0189,0.5882-1.0249,1.5423-0.012,2.1309c1.0122,0.5882,2.66,0.5883,3.6788,0
								c1.0196-0.5887,1.0242-1.5427,0.012-2.1309C31.5082,18.6212,29.8619,18.6212,28.8423,19.2099z"/>
						</g>
					</g>
				</g>
			</g>
			<g>
				<g enable-background="new    ">
					<g>
						<path fill="#BFBFBF" d="M27.7466,13.4937l0.0136,1.0363c0.0012,0.4312,0.2846,0.8619,0.851,1.191
							c1.1395,0.6622,2.9944,0.6622,4.1414,0c0.5775-0.3334,0.8657-0.7709,0.8645-1.2077l-0.0136-1.0363
							c0.0012,0.4368-0.287,0.8743-0.8645,1.2077c-1.147,0.6622-3.0019,0.6622-4.1414,0
							C28.0312,14.3556,27.7478,13.9249,27.7466,13.4937z"/>
					</g>
					<g>
						<path fill="#E8E8E8" d="M28.611,12.2859c-1.147,0.6622-1.1538,1.7362-0.0135,2.3989c1.1395,0.6622,2.9944,0.6622,4.1414,0
							c1.1478-0.6627,1.153-1.7367,0.0135-2.3989C31.6121,11.6232,29.7588,11.6232,28.611,12.2859z"/>
					</g>
				</g>
			</g>
			<g>
				<path fill="#D34A27" d="M28.0744,20.2828l0.0121,0.1107c0.0011,0.3831,0.2528,0.7656,0.756,1.058
					c1.0122,0.5882,2.66,0.5883,3.6788,0c0.513-0.2962,0.769-0.6848,0.7679-1.0728l-0.0121-0.1107
					c0.0011,0.388-0.255,0.7767-0.7679,1.0728c-1.0189,0.5882-2.6666,0.5882-3.6788,0
					C28.3272,21.0484,28.0755,20.6659,28.0744,20.2828z"/>
			</g>
		</g>
		<path fill="#F7E28E" d="M28.1447,16.4152c0.4812,0.3633,1.0975,0.6313,1.7561,0.7682v4.0511
			c-0.4967-0.1114-0.9631-0.3145-1.3081-0.5749c-0.3293-0.2485-0.5185-0.5242-0.5191-0.7561l-0.0087-3.5503
			C28.0909,16.3741,28.1176,16.3948,28.1447,16.4152z"/>
	</g>
	<g>
		<g enable-background="new    ">
			<g>
				<polygon fill="#0092BF" points="7.8411,20.7866 7.8428,21.592 10.7616,23.2883 10.7599,22.4829 				"/>
			</g>
			<g>
				<polygon fill="#BFBFBF" points="10.7599,22.4829 10.7616,23.2883 15.8322,20.3607 15.8305,19.5554 				"/>
			</g>
			<g>
				<polygon fill="#E8E8E8" points="7.8411,20.7866 10.7599,22.4829 15.8305,19.5554 12.9117,17.8591 				"/>
			</g>
		</g>
	</g>
	<g>
		<g enable-background="new    ">
			<g>
				<polygon fill="#0092BF" points="7.8411,19.7683 7.8428,20.5737 10.7616,22.2699 10.7599,21.4645 				"/>
			</g>
			<g>
				<polygon fill="#BFBFBF" points="10.7599,21.4645 10.7616,22.2699 15.8322,19.3424 15.8305,18.537 				"/>
			</g>
			<g>
				<polygon fill="#E8E8E8" points="7.8411,19.7683 10.7599,21.4645 15.8305,18.537 12.9117,16.8408 				"/>
			</g>
		</g>
	</g>
	<g>
		<g enable-background="new    ">
			<g>
				<polygon fill="#A9C838" points="12.677,23.7142 12.6787,24.5195 15.5975,26.2158 15.5958,25.4104 				"/>
			</g>
			<g>
				<polygon fill="#BFBFBF" points="15.5958,25.4104 15.5975,26.2158 20.6681,23.2883 20.6664,22.4829 				"/>
			</g>
			<g>
				<polygon fill="#E8E8E8" points="12.677,23.7142 15.5958,25.4104 20.6664,22.4829 17.7476,20.7866 				"/>
			</g>
		</g>
	</g>
	<g>
		<g enable-background="new    ">
			<g>
				<polygon fill="#A9C838" points="12.677,22.6958 12.6787,23.5012 15.5975,25.1974 15.5958,24.392 				"/>
			</g>
			<g>
				<polygon fill="#BFBFBF" points="15.5958,24.392 15.5975,25.1974 20.6681,22.2699 20.6664,21.4645 				"/>
			</g>
			<g>
				<polygon fill="#E8E8E8" points="12.677,22.6958 15.5958,24.392 20.6664,21.4645 17.7476,19.7683 				"/>
			</g>
		</g>
	</g>
	<g>
		<g enable-background="new    ">
			<g>
				<polygon fill="#A9C838" points="12.677,21.6775 12.6787,22.4829 15.5975,24.1791 15.5958,23.3737 				"/>
			</g>
			<g>
				<polygon fill="#BFBFBF" points="15.5958,23.3737 15.5975,24.1791 20.6681,21.2516 20.6664,20.4462 				"/>
			</g>
			<g>
				<polygon fill="#E8E8E8" points="12.677,21.6775 15.5958,23.3737 20.6664,20.4462 17.7476,18.75 				"/>
			</g>
		</g>
	</g>
</g>
</svg>
