<?xml version="1.0" encoding="utf-8"?>
<!-- Generator: Adobe Illustrator 18.0.0, SVG Export Plug-In . SVG Version: 6.00 Build 0)  -->
<!DOCTYPE svg PUBLIC "-//W3C//DTD SVG 1.1//EN" "http://www.w3.org/Graphics/SVG/1.1/DTD/svg11.dtd">
<svg version="1.1" id="Layer_1" xmlns="http://www.w3.org/2000/svg" xmlns:xlink="http://www.w3.org/1999/xlink" x="0px" y="0px"
	 viewBox="0 0 50 50" enable-background="new 0 0 50 50" xml:space="preserve">
<g>
	<g>
		<g>
			<g enable-background="new    ">
				<g>
					<path fill="#D7D7D7" d="M48.9964,19.5932l-0.0105,4.2804c0,0.4825-0.3252,0.9753-0.9652,1.3534L21.7722,40.481
						c-1.3009,0.7551-3.4096,0.7551-4.7105,0L1.9862,31.7731C1.3357,31.3956,1,30.9023,1,30.3987l0.0209-4.2487
						c0,0.4825,0.3357,0.9861,0.9757,1.3534l15.0756,8.6971c1.3009,0.7551,3.42,0.7551,4.7105,0l26.2485-15.254
						C48.6712,20.5793,48.9964,20.086,48.9964,19.5932z"/>
				</g>
				<g>
					<path fill="#E8E8E8" d="M48.0159,18.2195c1.3061,0.7541,1.3131,1.9761,0.0152,2.7304L21.7855,36.2021
						c-1.2979,0.7543-3.4076,0.7542-4.7137,0.0001L2.001,27.5011c-1.3061-0.7541-1.3131-1.9761-0.0152-2.7304L28.2313,9.5185
						c1.2979-0.7543,3.4076-0.7542,4.7137-0.0001L48.0159,18.2195z"/>
				</g>
			</g>
		</g>
		<g>
			<g>
				<path fill="#D7D7D7" d="M20.5895,32.53c0.8239,0.4757,0.8283,1.2491,0.0098,1.7247c-0.8253,0.4796-2.1605,0.4796-2.9844,0.0039
					L5.0693,27.0154c-0.8306-0.4795-0.835-1.2529-0.0097-1.7326c0.8185-0.4756,2.1537-0.4756,2.9842,0.0039L20.5895,32.53z"/>
			</g>
			<g>
				<polygon fill="#787677" points="36.8034,24.8379 24.0729,32.2361 8.5332,23.2642 21.2637,15.8661 				"/>
				<polygon fill="#BFBFBF" points="9.0563,23.2634 21.2633,16.1691 36.2796,24.8387 24.0725,31.9329 				"/>
			</g>
			<g>
				<path fill="#2F8B7A" d="M25.9629,15.0536l4.6451-2.6996c0.5791-0.3366,1.5204-0.333,2.0964,0l10.6634,6.1563
					c0.1892,0.1096,0.2945,0.2423,0.3614,0.3811c0.1419-0.2899,0.0357-0.6121-0.3614-0.8416l-10.6634-6.1563
					c-0.576-0.3325-1.5173-0.3366-2.0964,0l-4.6451,2.6991c-0.3898,0.2269-0.4897,0.5456-0.3524,0.8329
					C25.6764,15.2902,25.7793,15.1601,25.9629,15.0536z"/>
				<path fill="#66C5B9" d="M43.7299,18.8904c-0.0105,0.021-0.021,0.0522-0.0315,0.0733c-0.2192,0.3062-5.0728,3.0581-4.9727,3.0003
					c-0.5927,0.3313-1.4972,0.3377-2.0877,0l-10.6693-6.1578c-0.1888-0.105-0.2938-0.2413-0.3567-0.378
					c0.1741-0.3906,0.6129-0.4846,1.0701-0.7971c0.1003-0.0582,3.95-2.292,3.8502-2.2345c0.6571-0.3079,1.3832-0.4703,2.1716-0.042
					l10.6589,6.1578C43.562,18.6173,43.6669,18.7541,43.7299,18.8904z"/>
			</g>
		</g>
		<g>
			<g enable-background="new    ">
				<g>
					<path fill="#EE4541" d="M9.5007,24.968c0.6836,0.3947,0.6873,1.0313,0.0136,1.4227c-0.6793,0.3948-1.7783,0.3947-2.4619,0
						l-1.7476-1.009c-0.6781-0.3915-0.6817-1.0281-0.0024-1.4228c0.6737-0.3915,1.7726-0.3915,2.4507,0L9.5007,24.968z"/>
				</g>
			</g>
			<g enable-background="new    ">
				<g>
					<path fill="#E02426" d="M10.0141,27.0921c0,0.2593-0.1727,0.5097-0.5008,0.7083c-0.6822,0.3972-1.7788,0.3972-2.461,0
						l-1.7528-1.0102C4.9627,26.5912,4.79,26.3323,4.79,26.0735l0.0086-1.3905c0,0.2504,0.1727,0.5097,0.5094,0.6995l1.7443,1.0106
						c0.6821,0.3883,1.7788,0.3883,2.461,0c0.3367-0.199,0.5008-0.4495,0.5008-0.7083V27.0921z"/>
				</g>
			</g>
		</g>
		<g>
			<path fill="#4F4D4D" d="M20.883,31.9223l-0.0086,1.4074c0,0.2504-0.1641,0.5097-0.5008,0.6995
				c-0.6822,0.3972-1.7788,0.3972-2.461,0.0089l-1.7442-1.0102c-0.3454-0.199-0.5181-0.4579-0.5181-0.7168l0.0086-1.4074
				c0,0.2589,0.1727,0.5178,0.5181,0.7163l1.7443,1.0106c0.6735,0.3883,1.7788,0.3883,2.4523-0.0089
				C20.7103,32.4316,20.883,32.1727,20.883,31.9223z"/>
			<g>
				<path fill="#686868" d="M20.3688,31.2041c0.6781,0.3915,0.6817,1.0281,0.0081,1.4196
					c-0.6793,0.3948-1.7783,0.3947-2.4564,0.0032l-1.7476-1.009c-0.6836-0.3947-0.6873-1.0313-0.008-1.426
					c0.6737-0.3915,1.7726-0.3915,2.4563,0.0032L20.3688,31.2041z"/>
			</g>
		</g>
		<g>
			<g>
				<path fill="#3D3D3D" d="M16.5509,23.9184c0.237,0.1368,0.2753,0.3258-0.0254,0.5006l-0.6756,0.3926l-0.2334-0.1348
					l0.6053-0.3518c0.2038-0.1184,0.2203-0.2264,0.0505-0.3244c-0.0798-0.0461-0.1746-0.0718-0.2844-0.077
					c-0.1098-0.0041-0.2144,0.0204-0.3128,0.0753l-0.6144,0.357l-0.2344-0.1353l0.6053-0.3518
					c0.182-0.1058,0.2537-0.2071,0.0707-0.3127c-0.0808-0.0467-0.1767-0.0718-0.2905-0.0747
					c-0.1128-0.0035-0.2204,0.0239-0.3228,0.0834l-0.5973,0.3471l-0.2344-0.1353l1.1033-0.6411l0.2344,0.1353l-0.2008,0.1167
					c0.1006-0.0198,0.2043-0.0216,0.3112-0.0053c0.2558,0.0391,0.5618,0.21,0.4173,0.4236
					C16.1765,23.786,16.3862,23.8233,16.5509,23.9184z"/>
			</g>
			<g>
				<polygon fill="#3D3D3D" points="23.4861,27.2712 20.6563,27.868 20.4471,27.7472 23.277,27.1504 				"/>
			</g>
			<g>
				<polygon fill="#3D3D3D" points="21.4297,26.2502 19.8908,27.1446 19.6563,27.0092 21.1953,26.1149 				"/>
			</g>
			<g>
				<path fill="#3D3D3D" d="M19.9417,26.5355c-0.3168,0.1841-0.8139,0.1884-1.1533-0.0076c-0.3447-0.199-0.3259-0.4884-0.0168-0.668
					c0.3099-0.1801,0.8088-0.1925,1.1543,0.007C20.2707,26.066,20.2542,26.3539,19.9417,26.5355z M19.3493,26.4947
					c0.1329-0.0012,0.2516-0.0327,0.358-0.0945c0.2243-0.1303,0.2081-0.2985,0.0107-0.4124
					c-0.1993-0.1151-0.4909-0.1209-0.712,0.0076c-0.2218,0.1289-0.2065,0.2983-0.0098,0.4119
					C19.0983,26.4661,19.2153,26.4953,19.3493,26.4947"/>
			</g>
			<g>
				<path fill="#3D3D3D" d="M18.6688,25.1412c0.1253,0.0723,0.1882,0.1529,0.1897,0.2421c0.0005,0.0887-0.0705,0.1744-0.2151,0.2585
					l-0.6756,0.3926l-0.2334-0.1348l0.6053-0.3518c0.2038-0.1184,0.2203-0.2264,0.0505-0.3244
					c-0.1564-0.0903-0.3938-0.1128-0.5972-0.0018l-0.6144,0.357l-0.2344-0.1353l0.6053-0.3518
					c0.182-0.1058,0.2537-0.2071,0.0707-0.3127c-0.0808-0.0467-0.1767-0.0718-0.2905-0.0747
					c-0.1128-0.0035-0.2204,0.0239-0.3228,0.0834l-0.5973,0.3471L16.1763,25l1.1032-0.6411l0.2334,0.1348l-0.2008,0.1167
					c0.3826-0.0754,0.9106,0.1493,0.7285,0.4183C18.2944,25.0088,18.5041,25.0461,18.6688,25.1412z"/>
			</g>
			<g>
				<polygon fill="#3D3D3D" points="24.3304,28.0273 23.1116,28.7355 23.7775,29.12 23.5456,29.2547 22.6322,28.7273 
					24.0828,27.8843 				"/>
			</g>
		</g>
		<g>
			<g>
				<path fill="#3D3D3D" d="M24.5361,21.0317l-0.7686,0.4467l-2.1261-1.2275l-1.2308,0.7153
					c0.3238,0.0562,0.6211,0.1593,0.8916,0.3154c0.8913,0.5146,1.1732,1.3237,0.1618,1.9115
					c-0.9968,0.5793-2.506,0.4959-3.5217-0.0905c-0.6762-0.3904-0.9915-0.8339-0.9511-1.3274l1.0723-0.0967
					c0.0023,0.403,0.3959,0.7826,0.739,0.9807c0.4558,0.2632,1.2259,0.3906,1.7904,0.0625c0.59-0.3429,0.3494-0.8009-0.2382-1.1401
					c-0.3246-0.1874-0.7083-0.3154-1.1507-0.3904l0.0245-0.4341l2.408-1.3994L24.5361,21.0317z"/>
			</g>
			<g>
				<path fill="#3D3D3D" d="M22.2144,24.3301c0.2905,0.1677,0.3145,0.444,0.0088,0.6216c-0.3086,0.1793-0.7856,0.169-1.0784,0
					c-0.3102-0.1791-0.2847-0.455,0.0018-0.6215C21.4372,24.1613,21.9125,24.1558,22.2144,24.3301z"/>
			</g>
			<g>
				<path fill="#3D3D3D" d="M30.7304,24.608l-0.7686,0.4467l-2.126-1.2275l-1.2308,0.7153
					c0.3238,0.0562,0.6265,0.1624,0.8915,0.3154c0.9039,0.5219,1.1729,1.3239,0.1618,1.9115
					c-1.0002,0.5812-2.5045,0.4968-3.5217-0.0905c-0.6762-0.3904-0.9915-0.8339-0.9511-1.3274l1.0723-0.0967
					c0.0002,0.0437,0.0062,0.1029,0.0227,0.1685c0.0292,0.183,0.2726,0.556,0.7162,0.8121
					c0.4668,0.2695,1.2272,0.3899,1.7905,0.0625c0.5989-0.3481,0.3462-0.8027-0.2382-1.1401
					c-0.3192-0.1843-0.7083-0.3154-1.1508-0.3904l0.0245-0.4341l2.408-1.3994L30.7304,24.608z"/>
			</g>
		</g>
	</g>
	<g>
		<g>
			<g>
				<path fill="#CF2027" d="M33.6282,17.8867c-0.4904-0.2841-0.7122-0.6636-0.6635-1.0333c-0.7628,0.5156-0.72,1.294,0.1284,1.7843
					c0.8873,0.5117,2.3253,0.5117,3.2068,0c0.395-0.2296,0.6129-0.5234,0.6538-0.825c-0.037,0.0253-0.0759,0.0505-0.1168,0.0739
					C35.9536,18.4003,34.5175,18.4003,33.6282,17.8867z"/>
				<path fill="#E02426" d="M36.2902,16.7794c-0.8893-0.5136-2.3253-0.5136-3.2087,0c-0.0409,0.0234-0.0798,0.0486-0.1167,0.074
					c-0.0486,0.3697,0.1732,0.7492,0.6635,1.0333c0.8893,0.5136,2.3253,0.5136,3.2087,0c0.0409-0.0234,0.0798-0.0486,0.1168-0.0739
					C37.0004,17.443,36.7805,17.0636,36.2902,16.7794z"/>
			</g>
			<path fill="#EE4541" d="M34.5404,16.6528c0.2282-0.0278,0.4603-0.044,0.6874-0.0085c0.2272,0.0355,0.451,0.1264,0.6139,0.2887
				c0.0288,0.0287,0.057,0.0629,0.0586,0.1035c0.0035,0.0876-0.1062,0.1269-0.1921,0.1441
				c-0.0901,0.0181-0.1798,0.0409-0.2639,0.0781c-0.0892,0.0395-0.1708,0.0946-0.2592,0.136
				c-0.2631,0.1232-0.5658,0.1171-0.8561,0.1086c-0.0699-0.002-0.1422-0.0047-0.2051-0.0352
				c-0.0786-0.0381-0.131-0.114-0.1773-0.188c-0.0934-0.1493-0.2043-0.3452-0.022-0.4597
				C34.1027,16.7086,34.336,16.6777,34.5404,16.6528z"/>
		</g>
		<g>
			<g>
				<path fill="#CF2027" d="M31.5134,15.6369c-0.2741-0.1588-0.3981-0.3709-0.3709-0.5776
					c-0.4264,0.2882-0.4024,0.7233,0.0718,0.9974c0.496,0.2861,1.2998,0.2861,1.7925,0c0.2208-0.1284,0.3426-0.2926,0.3655-0.4612
					c-0.0207,0.0141-0.0424,0.0283-0.0653,0.0413C32.8132,15.924,32.0105,15.924,31.5134,15.6369z"/>
				<path fill="#E02426" d="M33.0014,15.018c-0.4971-0.2871-1.2998-0.2871-1.7936,0c-0.0228,0.0131-0.0446,0.0272-0.0653,0.0414
					c-0.0272,0.2067,0.0968,0.4188,0.3709,0.5776c0.4971,0.2871,1.2998,0.2871,1.7936,0c0.0228-0.0131,0.0446-0.0272,0.0653-0.0413
					C33.3984,15.3889,33.2755,15.1768,33.0014,15.018z"/>
			</g>
			<path fill="#EE4541" d="M32.0233,14.9472c0.1276-0.0155,0.2573-0.0246,0.3843-0.0048c0.127,0.0198,0.2521,0.0707,0.3432,0.1614
				c0.0161,0.016,0.0319,0.0351,0.0328,0.0578c0.0019,0.049-0.0594,0.0709-0.1074,0.0806
				c-0.0504,0.0101-0.1005,0.0229-0.1475,0.0437c-0.0499,0.0221-0.0955,0.0529-0.1449,0.076
				c-0.1471,0.0688-0.3163,0.0654-0.4786,0.0607c-0.0391-0.0011-0.0795-0.0026-0.1147-0.0197
				c-0.0439-0.0213-0.0732-0.0637-0.0991-0.1051c-0.0522-0.0835-0.1142-0.193-0.0123-0.2569
				C31.7787,14.9784,31.909,14.9611,32.0233,14.9472z"/>
		</g>
		<g>
			<g>
				<path fill="#CF2027" d="M34.9215,15.4003c-0.2448-0.1419-0.3556-0.3313-0.3313-0.5159
					c-0.3809,0.2575-0.3595,0.6461,0.0641,0.891c0.4431,0.2555,1.1611,0.2555,1.6012,0c0.1972-0.1147,0.3061-0.2614,0.3265-0.4119
					c-0.0185,0.0126-0.0379,0.0252-0.0583,0.0369C36.0826,15.6568,35.3655,15.6568,34.9215,15.4003z"/>
				<path fill="#E02426" d="M36.2506,14.8474c-0.444-0.2565-1.1611-0.2565-1.6022,0c-0.0204,0.0117-0.0398,0.0243-0.0583,0.037
					c-0.0243,0.1846,0.0865,0.3741,0.3313,0.5159c0.444,0.2565,1.1611,0.2565,1.6022,0c0.0204-0.0117,0.0398-0.0243,0.0583-0.0369
					C36.6053,15.1788,36.4955,14.9893,36.2506,14.8474z"/>
			</g>
			<path fill="#EE4541" d="M35.3769,14.7842c0.114-0.0139,0.2298-0.022,0.3433-0.0043c0.1134,0.0177,0.2252,0.0631,0.3065,0.1441
				c0.0144,0.0143,0.0285,0.0314,0.0293,0.0517c0.0017,0.0437-0.053,0.0634-0.0959,0.072c-0.045,0.009-0.0898,0.0204-0.1318,0.039
				c-0.0446,0.0197-0.0853,0.0472-0.1294,0.0679c-0.1314,0.0615-0.2825,0.0585-0.4275,0.0542
				c-0.0349-0.001-0.071-0.0023-0.1024-0.0176c-0.0392-0.019-0.0654-0.0569-0.0885-0.0939c-0.0467-0.0746-0.102-0.1724-0.011-0.2295
				C35.1584,14.8121,35.2749,14.7967,35.3769,14.7842z"/>
		</g>
	</g>
</g>
</svg>
