<?xml version="1.0" encoding="utf-8"?>
<!-- Generator: Adobe Illustrator 18.0.0, SVG Export Plug-In . SVG Version: 6.00 Build 0)  -->
<!DOCTYPE svg PUBLIC "-//W3C//DTD SVG 1.1//EN" "http://www.w3.org/Graphics/SVG/1.1/DTD/svg11.dtd">
<svg version="1.1" id="Layer_1" xmlns="http://www.w3.org/2000/svg" xmlns:xlink="http://www.w3.org/1999/xlink" x="0px" y="0px"
	 viewBox="0 0 50 50" enable-background="new 0 0 50 50" xml:space="preserve">
<g>
	<g>
		<g>
			<g>
				<g enable-background="new    ">
					<g>
						<path fill="#F2961F" d="M17.4272,26.1371l0.0351,18.8477c0.0031,1.1126,0.7343,2.2236,2.1955,3.0728
							c2.9398,1.7084,7.7255,1.7085,10.6846,0.0001c1.4898-0.8602,2.2335-1.9889,2.2303-3.1159L32.5377,26.094
							c0.0112,3.9537-8.2319,5.8372-12.9149,3.1158C18.1615,28.3606,17.4304,27.2496,17.4272,26.1371z"/>
					</g>
					<g>
						<path fill="#F7E28E" d="M17.4272,32.972l0.0351,7.8477c0.0032,1.1126,0.7343,2.2236,2.1955,3.0728
							c2.9398,1.7084,7.7255,1.7085,10.6846,0.0001c1.4898-0.8602,2.2335-1.9889,2.2303-3.1159l-0.0351-7.8477
							c0.0032,1.1269-0.7405,2.2557-2.2303,3.1159c-2.9591,1.7084-7.7448,1.7084-10.6846-0.0001
							C18.1615,35.1956,17.4304,34.0846,17.4272,32.972z"/>
					</g>
					<g>
						<path fill="#F9A62B" d="M19.8133,23.1105c-2.8728,1.6586-2.89,4.3486-0.0338,6.0085
							c2.8541,1.6586,7.5002,1.6587,10.373,0.0001c2.8749-1.6598,2.8879-4.3498,0.0338-6.0085
							C27.3302,21.4508,22.6882,21.4507,19.8133,23.1105z"/>
					</g>
				</g>
			</g>
			<g>
				<g enable-background="new    ">
					<g>
						<path fill="#BFBFBF" d="M17.1562,23.579l0.0364,2.751c0.0033,1.1524,0.7605,2.3031,2.2741,3.1827
							c3.045,1.7696,8.002,1.7697,11.067,0.0001c1.5432-0.8909,2.3134-2.0601,2.3101-3.2274l-0.0363-2.7509
							c0.0033,1.1673-0.767,2.3364-2.3101,3.2274c-3.065,1.7696-8.022,1.7695-11.067-0.0001
							C17.9167,25.8821,17.1595,24.7314,17.1562,23.579z"/>
					</g>
					<g>
						<path fill="#E8E8E8" d="M19.4664,20.3513c-3.065,1.7696-3.0833,4.6395-0.036,6.4104c3.045,1.7696,8.002,1.7697,11.067,0.0001
							c3.0672-1.7708,3.0811-4.6408,0.036-6.4104C27.4861,18.5805,22.5336,18.5805,19.4664,20.3513z"/>
					</g>
				</g>
			</g>
		</g>
	</g>
	<g>
		<g>
			<g>
				<g enable-background="new    ">
					<g>
						<path fill="#E8E8E8" d="M20.3309,14.5407c-2.4913,1.4383-2.5061,3.7711-0.0293,5.2105
							c2.475,1.4383,6.5041,1.4384,8.9954,0.0001c2.4931-1.4394,2.5043-3.7721,0.0293-5.2105
							C26.8495,13.1014,22.824,13.1013,20.3309,14.5407z"/>
						<g>
							<path fill="#BFBFBF" d="M20.5864,15.3007c1.1293-0.6521,2.6382-1.0109,4.2481-1.0109s3.1138,0.3586,4.2351,1.0102
								c0.9584,0.5572,1.5086,1.2594,1.5796,1.9919c0.005-0.0517,0.0141-0.1034,0.0142-0.1553
								c0.001-0.7907-0.5649-1.5556-1.5938-2.1535c-1.1213-0.6516-2.6253-1.0104-4.2351-1.0104s-3.1187,0.3591-4.2481,1.0109
								c-1.0449,0.6034-1.6208,1.3748-1.6218,2.1722c-0.0001,0.0539,0.009,0.1074,0.0142,0.1613
								C19.0497,16.5754,19.6099,15.8643,20.5864,15.3007z"/>
							<path fill="#D7D7D7" d="M20.559,19.309c1.1198,0.6508,2.6238,1.0094,4.2346,1.0094c1.6108,0,3.1192-0.3586,4.2476-1.0102
								c0.9767-0.5639,1.537-1.2749,1.6081-2.0164c-0.071-0.7325-0.6212-1.4348-1.5796-1.9919
								c-1.1213-0.6516-2.6253-1.0102-4.2351-1.0102s-3.1187,0.3589-4.2481,1.0109c-0.9765,0.5637-1.5367,1.2747-1.6076,2.0164
								C19.0496,18.0496,19.5998,18.7518,20.559,19.309z"/>
						</g>
					</g>
				</g>
			</g>
		</g>
		<g>
			<path fill="#B0AFB0" d="M31.189,19.6411c-0.0562,0.8985-0.674,1.786-1.8648,2.4712c-2.494,1.4383-6.5157,1.4383-8.9984,0
				c-1.2245-0.7191-1.8424-1.6511-1.8424-2.5951l-0.0112-2.1228c-0.0112-0.079-0.0224-0.1459-0.0224-0.2249l0.0337,6.2347
				c0,0.944,0.6179,1.8765,1.8424,2.5841c2.4827,1.4377,6.5045,1.4377,8.9984,0c1.2582-0.7191,1.8873-1.6741,1.8761-2.6176
				L31.189,19.6411z"/>
			<path fill="#929393" d="M20.3258,22.1122c2.4827,1.4383,6.5045,1.4383,8.9984,0c1.1908-0.6851,1.8087-1.5727,1.8648-2.4712
				l-0.0112-2.5167c0,0.955-0.6291,1.8985-1.8761,2.6286c-2.4939,1.4383-6.527,1.4383-8.9984,0
				c-1.1346-0.6626-1.7413-1.5052-1.8311-2.3587l0.0112,2.1228C18.4834,20.4611,19.1012,21.3931,20.3258,22.1122z"/>
		</g>
	</g>
	<g>
		<g enable-background="new    ">
			<g>
				<path fill="#BFBFBF" d="M17.677,16.7373l0.0331,0.8231c0.003,1.0507,0.6934,2.0999,2.0735,2.9019
					c2.7764,1.6135,7.296,1.6135,10.0906,0.0001c1.407-0.8123,2.1093-1.8784,2.1063-2.9426l-0.0331-0.8231
					c0.003,1.0643-0.6993,2.1303-2.1063,2.9426c-2.7946,1.6135-7.3142,1.6134-10.0906-0.0001
					C18.3704,18.8372,17.68,17.788,17.677,16.7373z"/>
			</g>
			<g>
				<path fill="#E8E8E8" d="M19.7833,13.7944c-2.7946,1.6135-2.8113,4.2302-0.0329,5.8448
					c2.7764,1.6135,7.296,1.6135,10.0906,0.0001c2.7966-1.6146,2.8092-4.2314,0.0329-5.8448
					C27.0955,12.1798,22.5799,12.1798,19.7833,13.7944z"/>
			</g>
			<g>
				<path fill="#B0AFB0" d="M21.5114,14.3926c-1.8343,1.059-1.8452,2.7765-0.0216,3.8363c1.8223,1.059,4.7888,1.0591,6.6231,0
					c1.8356-1.0598,1.8439-2.7773,0.0216-3.8363C26.3109,13.3328,23.347,13.3328,21.5114,14.3926z"/>
			</g>
		</g>
	</g>
	<g>
		<g>
			<path fill="#D7D7D7" d="M29.0902,13.9036l0.0142,2.1524c0,0.6272-0.4134,1.269-1.2545,1.7534c-1.6679,0.955-4.348,0.955-6.0016,0
				c-0.8269-0.4845-1.226-1.1116-1.226-1.7249l-0.0143-2.181l2.3807-12.1598h3.7207l2.3949,12.1598H29.0902z"/>
		</g>
		<g>
			<g>
				<g>
					<g enable-background="new    ">
						<g>
							<path fill="#E8E8E8" d="M23.523,0.9783c-0.732,0.4226-0.7364,1.1081-0.0086,1.5311c0.7273,0.4226,1.9112,0.4227,2.6433,0
								c0.7326-0.423,0.7359-1.1084,0.0086-1.5311C25.4385,0.5554,24.2556,0.5554,23.523,0.9783z"/>
						</g>
					</g>
				</g>
			</g>
		</g>
		<g>
			<path fill="#BFBFBF" d="M25.9106,1.8054c0.1404,0.0817,0.2425,0.1766,0.3154,0.2765c0.2322-0.3176,0.1295-0.6972-0.3154-0.9561
				c-0.5875-0.3412-1.5422-0.3412-2.1335,0c-0.4496,0.26-0.5546,0.6407-0.3224,0.9594c0.0741-0.1015,0.1794-0.1975,0.3224-0.2798
				C24.3684,1.4637,25.3231,1.4637,25.9106,1.8054z"/>
			<path fill="#929393" d="M25.9036,2.3616c0.1431-0.0823,0.2483-0.1783,0.3224-0.2798c-0.073-0.0998-0.175-0.1947-0.3154-0.2765
				c-0.5875-0.3417-1.5422-0.3417-2.1335,0c-0.143,0.0823-0.2483,0.1783-0.3224,0.2798c0.073,0.0998,0.1751,0.1947,0.3155,0.2765
				C24.3571,2.7028,25.3128,2.7028,25.9036,2.3616z"/>
		</g>
	</g>
</g>
</svg>
