<?xml version="1.0" encoding="utf-8"?>
<!-- Generator: Adobe Illustrator 18.0.0, SVG Export Plug-In . SVG Version: 6.00 Build 0)  -->
<!DOCTYPE svg PUBLIC "-//W3C//DTD SVG 1.1//EN" "http://www.w3.org/Graphics/SVG/1.1/DTD/svg11.dtd">
<svg version="1.1" id="Layer_1" xmlns="http://www.w3.org/2000/svg" xmlns:xlink="http://www.w3.org/1999/xlink" x="0px" y="0px"
	 viewBox="0 0 50 50" enable-background="new 0 0 50 50" xml:space="preserve">
<g>
	<g>
		<g enable-background="new    ">
			<g>
				<path fill="#E8E8E8" d="M43.3711,18.6693L15.5503,2.6072c-0.3427-0.2058-0.6512-0.217-0.8797-0.0915L5.8165,7.6685
					c0.2171-0.1372,0.5256-0.1144,0.8797,0.0798L34.517,23.8221c0.3768,0.217,0.7049,0.6164,0.9325,1.0593l8.8569-5.1545
					C44.0807,19.2852,43.7537,18.8863,43.3711,18.6693z"/>
				<path fill="#BFBFBF" d="M35.4495,24.8815c0.1795,0.3487,0.3013,0.723,0.3013,1.0655l-0.0685,20.7473
					c0,0.3883-0.1371,0.6627-0.3542,0.7882l8.8541-5.1528c0.2285-0.1255,0.3656-0.3994,0.3656-0.7882l0.0571-20.7468
					c0-0.3431-0.1199-0.7185-0.2985-1.0677L35.4495,24.8815z"/>
			</g>
			<g>
				<path fill="#D7D7D7" d="M34.5176,23.8189c0.6784,0.3917,1.2309,1.3488,1.2287,2.1282l-0.0588,20.7445
					c-0.0022,0.7881-0.5584,1.0964-1.2368,0.7048L6.6238,31.3305c-0.6857-0.3959-1.2309-1.3402-1.2287-2.1282L5.4539,8.4578
					C5.4561,7.6784,6.005,7.3572,6.6907,7.753L34.5176,23.8189z"/>
			</g>
		</g>
	</g>
	<g>
		<g>
			<path fill="#F5E18D" d="M29.6195,23.7914c0.3565,0.2058,0.637,0.6917,0.6359,1.1011c-0.0011,0.3989-0.2835,0.5709-0.64,0.3651
				c-0.3471-0.2004-0.637-0.7028-0.6359-1.1017C28.9806,23.7465,29.2723,23.591,29.6195,23.7914z"/>
		</g>
		<g enable-background="new    ">
			<g>
				<path fill="#E02426" d="M32.359,31.9599c-0.0045,0.6693-0.474,0.9354-1.0541,0.6005c-0.5816-0.3358-1.0492-1.1459-1.0473-1.8138
					c0.0017-0.6147,0.3995-0.89,0.9153-0.6701C31.8043,30.3434,32.361,31.2287,32.359,31.9599z"/>
			</g>
			<g>
				<path fill="#EE4541" d="M31.1729,30.0765c-0.5159-0.2199-0.9136,0.0554-0.9153,0.6701
					c-0.0019,0.6679,0.4657,1.478,1.0473,1.8138c0.5801,0.3349,1.0496,0.0688,1.054-0.5953
					c-0.0018,0.6627-0.4723,0.9311-1.0446,0.6007l-2.9082-1.6791l0.0068-2.4037L31.1729,30.0765z"/>
			</g>
			<g>
				<path fill="#80BC41" d="M31.3197,27.3108c0.5089,0.2938,0.9305,0.9502,1.0267,1.5576c0.1435,0.9087-0.4619,1.2858-1.1729,0.7657
					c-0.5151-0.3753-0.9097-1.1087-0.9079-1.7228C30.2674,27.2428,30.7381,26.975,31.3197,27.3108z"/>
			</g>
			<g>
				<path fill="#A8C838" d="M28.414,28.0409l0.0068-2.4037l2.8989,1.6737c-0.5816-0.3358-1.0522-0.068-1.0541,0.6005
					c-0.0017,0.6141,0.3928,1.3474,0.9079,1.7228L28.414,28.0409z"/>
			</g>
			<g>
				<path fill="#A8C838" d="M31.3291,27.3162c0.5007,0.2891,0.9213,0.9449,1.0173,1.5522
					c-0.0962-0.6074-0.5178-1.2638-1.0267-1.5576L31.3291,27.3162z"/>
			</g>
		</g>
		<g>
			<path fill="#686868" d="M31.1768,24.6905c0.3471,0.2004,0.637,0.6917,0.6359,1.1011c-0.0011,0.3989-0.2929,0.5655-0.64,0.3651
				c-0.3565-0.2058-0.637-0.7028-0.6359-1.1017C30.5379,24.6457,30.8203,24.4847,31.1768,24.6905z"/>
		</g>
		<g>
			<path fill="#686868" d="M32.7247,25.5842c0.3565,0.2058,0.637,0.6917,0.6359,1.1011c-0.0011,0.3989-0.2835,0.5709-0.64,0.3651
				c-0.3471-0.2004-0.637-0.7028-0.6359-1.1017C32.0858,25.5394,32.3776,25.3838,32.7247,25.5842z"/>
		</g>
		<g>
			<path fill="#FDE34B" d="M31.313,32.9969c0.5007,0.2891,0.9213,0.9455,1.0173,1.5527c-0.0962-0.6073-0.5178-1.2643-1.0267-1.5582
				L31.313,32.9969z"/>
		</g>
		<g>
			<path fill="#F8C814" d="M31.3036,32.9914c0.5089,0.2938,0.9305,0.9508,1.0267,1.5582c0.1395,0.877-0.4299,1.2996-1.1729,0.7657
				c-0.5151-0.3759-0.9097-1.1087-0.9079-1.7228C30.2513,32.924,30.7219,32.6556,31.3036,32.9914z"/>
		</g>
		<g>
			<path fill="#7BD2F6" d="M30.2414,36.4273c-0.0019,0.6685,0.4657,1.4785,1.0473,1.8143l-2.8989-1.6737l0.0068-2.4149
				l2.8989,1.6737C30.7139,35.491,30.2433,35.7594,30.2414,36.4273z"/>
		</g>
		<g>
			<path fill="#7BD2F6" d="M32.3427,37.6458c0,0.0023,0.0001,0.0041,0.0001,0.0059c-0.0019,0.6574-0.4725,0.9258-1.0447,0.5954
				l-0.0094-0.0054C31.8688,38.5766,32.3383,38.3105,32.3427,37.6458z"/>
		</g>
		<g>
			<path fill="#7BD2F6" d="M31.3049,35.8322c0.2836,0.1637,0.5413,0.4449,0.729,0.7701c-0.189-0.3253-0.4496-0.6087-0.7384-0.7755
				L31.3049,35.8322z"/>
		</g>
		<g>
			<path fill="#4B9FD7" d="M31.2956,35.8268c0.2888,0.1667,0.5494,0.4502,0.7384,0.7755c0.0063,0.0107,0.008,0.014,0.0098,0.0168
				c0.1859,0.3258,0.3001,0.6911,0.2991,1.0215c-0.0045,0.6699-0.474,0.936-1.0541,0.6011
				c-0.5816-0.3358-1.0492-1.1459-1.0473-1.8144C30.2433,35.7594,30.7139,35.491,31.2956,35.8268z"/>
		</g>
		<g>
			<path fill="#FDE34B" d="M28.3979,33.7221l0.0068-2.4043l2.8989,1.6737c-0.5816-0.3358-1.0522-0.0674-1.0541,0.6011
				c-0.0017,0.6141,0.3928,1.3468,0.9079,1.7228L28.3979,33.7221z"/>
		</g>
		<g>
			<path fill="#3D3D3D" d="M33.3844,24.8855c0.3002,0.1733,0.534,0.5784,0.533,0.9234L33.863,45.0183
				c-0.0009,0.3345-0.2362,0.4687-0.5365,0.2954l-4.4186-2.5511c-0.2908-0.1679-0.534-0.5784-0.533-0.9129l0.015-5.2818
				l2.9082,1.6791c0.5723,0.3304,1.0429,0.062,1.0447-0.5954c0.001-0.3415-0.1132-0.7068-0.2991-1.0326
				c-0.1975-0.3419-0.4553-0.6231-0.7388-0.7868l-2.9082-1.6791l0.0012-0.431l2.7595,1.5932
				c0.7432,0.5342,1.3122,0.1104,1.1729-0.7657c-0.096-0.6073-0.5166-1.2636-1.0173-1.5527l-2.9082-1.6791l0.0012-0.431
				l2.9082,1.6791c0.5723,0.3304,1.0429,0.062,1.0447-0.5954c0.0021-0.7469-0.5585-1.6289-1.1861-1.8939l-2.7601-1.5935
				l0.0013-0.4422l2.7595,1.5932c0.0456,0.0334,0.0921,0.0637,0.1394,0.091c0.5816,0.3358,1.0522,0.068,1.0541-0.6005
				c0.0002-0.0836-0.0069-0.1692-0.0206-0.2562c-0.096-0.6073-0.5166-1.2631-1.0173-1.5522l-2.9082-1.6791l0.0085-2.9968
				c0.001-0.3451,0.2457-0.4739,0.5365-0.306L33.3844,24.8855z M31.1726,26.1568c0.3471,0.2004,0.6389,0.0338,0.64-0.3651
				c0.0012-0.4094-0.2887-0.9007-0.6359-1.1011c-0.3565-0.2058-0.6389-0.0449-0.64,0.3645
				C30.5356,25.4539,30.8161,25.9509,31.1726,26.1568 M29.6153,25.2577c0.3565,0.2058,0.6389,0.0338,0.64-0.3651
				c0.0012-0.4094-0.2794-0.8953-0.6359-1.1011c-0.3471-0.2004-0.6389-0.0449-0.64,0.3645
				C28.9783,24.5548,29.2682,25.0572,29.6153,25.2577 M32.7205,27.0505c0.3565,0.2058,0.6389,0.0338,0.64-0.3651
				c0.0012-0.4094-0.2794-0.8953-0.6359-1.1011c-0.3471-0.2004-0.6389-0.0449-0.64,0.3645
				C32.0835,26.3476,32.3734,26.8501,32.7205,27.0505"/>
		</g>
	</g>
	<g>
		<path fill="#69C4EF" d="M26.9373,22.9748c0-0.7179-0.5069-1.5776-1.1266-1.9435L8.8396,11.231
			c-0.2641-0.1506-0.4973-0.1634-0.6899-0.0987c-0.0973,0.135-0.1683,0.3046-0.1683,0.5428L7.9393,28.503
			c-0.0141,0.7179,0.4929,1.591,1.1124,1.943l16.971,9.8008c0.2641,0.1501,0.4973,0.1634,0.69,0.0982
			c0.0973-0.135,0.1683-0.304,0.1683-0.5422L26.9373,22.9748z"/>
		<g>
			<path fill="#E8E8E8" d="M26.8458,40.0587c-0.03,0.1099-0.08,0.21-0.13,0.29c-0.2,0.27-0.55,0.3398-0.96,0.0996l-16.97-9.7998
				c-0.62-0.3501-1.13-1.2197-1.11-1.9399l0.04-16.8301c0-0.4097,0.17-0.6597,0.43-0.75c0.1-0.0298,0.2-0.04,0.31-0.0298
				c-0.02,0.0801-0.04,0.1602-0.04,0.2598l-0.04,16.8301c-0.02,0.71,0.49,1.5898,1.11,1.9399l16.97,9.8003
				C26.5958,40.0089,26.7258,40.0485,26.8458,40.0587z"/>
		</g>
	</g>
	<g>
		<g>
			<g enable-background="new    ">
				<g>
					<path fill="#686868" d="M33.3605,42.3818c-0.0012,0.6242-0.2219,1.0632-0.5767,1.2705l-0.529,0.3074
						c0.3548-0.2073,0.5755-0.6463,0.5767-1.2706c0.0037-1.2571-0.8791-2.7861-1.9728-3.4177
						c-0.5499-0.317-1.0486-0.3475-1.4083-0.1378l0.529-0.3074c0.3597-0.2085,0.8584-0.1793,1.4083,0.1378
						C32.4814,39.5956,33.3642,41.1258,33.3605,42.3818z"/>
				</g>
				<g>
					<path fill="#4F4D4D" d="M30.8589,39.2714c1.0938,0.6315,1.9768,2.161,1.9732,3.4178
						c-0.0036,1.2559-0.8924,1.7634-1.9861,1.1319c-1.093-0.631-1.9768-2.1619-1.9732-3.4178
						C28.8763,39.1465,29.7659,38.6404,30.8589,39.2714z"/>
				</g>
			</g>
		</g>
		<g>
			<g enable-background="new    ">
				<g>
					<path fill="#A9C838" d="M32.1887,42.7117c-0.001,0.516-0.1834,0.8788-0.4767,1.0502l-0.8235,0.4786
						c0.2933-0.1714,0.4757-0.5342,0.4767-1.0502c0.003-1.0391-0.7267-2.3029-1.6307-2.825
						c-0.4545-0.2621-0.8668-0.2872-1.1641-0.1139l0.8235-0.4786c0.2973-0.1723,0.7095-0.1482,1.1641,0.1139
						C31.462,40.4087,32.1917,41.6736,32.1887,42.7117z"/>
				</g>
				<g>
					<path fill="#73AE43" d="M29.7346,40.3653c0.9041,0.522,1.634,1.7862,1.631,2.8251c-0.0029,1.0381-0.7376,1.4575-1.6417,0.9356
						c-0.9034-0.5216-1.634-1.787-1.631-2.8251C28.0958,40.262,28.8312,39.8437,29.7346,40.3653z"/>
				</g>
			</g>
		</g>
	</g>
</g>
</svg>
