<?xml version="1.0" encoding="utf-8"?>
<!-- Generator: Adobe Illustrator 18.0.0, SVG Export Plug-In . SVG Version: 6.00 Build 0)  -->
<!DOCTYPE svg PUBLIC "-//W3C//DTD SVG 1.1//EN" "http://www.w3.org/Graphics/SVG/1.1/DTD/svg11.dtd">
<svg version="1.1" id="Layer_1" xmlns="http://www.w3.org/2000/svg" xmlns:xlink="http://www.w3.org/1999/xlink" x="0px" y="0px"
	 viewBox="0 0 50 50" enable-background="new 0 0 50 50" xml:space="preserve">
<g>
	<g>
		<g>
			<g>
				<g enable-background="new    ">
					<g>
						<path fill="#BFBFBF" d="M18.5929,25.758l-0.0061,2.2893c-0.0005,0.1932-0.1275,0.3861-0.3812,0.5335
							c-0.5104,0.2966-1.3413,0.2966-1.8551,0c-0.2587-0.1493-0.3878-0.3453-0.3872-0.541l0.0061-2.2893
							c-0.0006,0.1957,0.1286,0.3916,0.3872,0.541c0.5138,0.2966,1.3446,0.2966,1.8551,0
							C18.4654,26.1441,18.5923,25.9512,18.5929,25.758z"/>
					</g>
					<g>
						<path fill="#E8E8E8" d="M18.2057,25.217c0.5138,0.2966,0.5168,0.7777,0.006,1.0745c-0.5104,0.2966-1.3413,0.2966-1.8551,0
							c-0.5141-0.2968-0.5164-0.7779-0.006-1.0745C16.8614,24.9202,17.6915,24.9202,18.2057,25.217z"/>
					</g>
				</g>
			</g>
			<g>
				<g>
					<g enable-background="new    ">
						<g>
							<path fill="#E02426" d="M34.8652,12.6462v3.9097l-0.03,28.2603c0,1.0698-0.71,2.1299-2.11,2.96
								c-4.4525,2.6007-12.4351,0.784-12.4-3l0.03-32.1699c0,1.0898,0.71,2.1797,2.14,3c2.3101,1.3301,5.77,1.5898,8.5,0.7397
								c0.63-0.1797,1.23-0.4297,1.76-0.7397C34.1652,14.7961,34.8652,13.7263,34.8652,12.6462z"/>
						</g>
						<g>
							<path fill="#F7E28E" d="M27.9759,28.4091c-1.9691,0.0571-3.9714-0.3457-5.4826-1.2158c-1.43-0.8203-2.14-1.9102-2.14-3
								l-0.03,12.1699c-0.01,1.0801,0.7,2.1699,2.14,3c1.657,0.9272,3.6548,1.2749,5.5126,1.2217V28.4091z"/>
						</g>
						<g>
							<path fill="#EE4541" d="M32.7252,9.6598c2.8425,1.6411,2.8594,4.3027,0.0334,5.945
								c-2.8239,1.6411-7.421,1.6412-10.2634,0.0001c-2.8445-1.6423-2.8573-4.3039-0.0334-5.945
								C25.2878,8.0176,29.8807,8.0175,32.7252,9.6598z"/>
						</g>
					</g>
				</g>
				<g>
					<g enable-background="new    ">
						<g>
							<path fill="#BFBFBF" d="M33.822,9.9714l-0.0289,2.3648c-0.0026,0.9151-0.6039,1.8289-1.8059,2.5274
								c-2.418,1.4052-6.3543,1.4053-8.7882,0.0001c-1.2254-0.7075-1.8371-1.6359-1.8344-2.5628l0.0289-2.3648
								c-0.0026,0.9269,0.609,1.8553,1.8345,2.5628c2.4339,1.4052,6.3702,1.4051,8.7882-0.0001
								C33.2181,11.8003,33.8194,10.8865,33.822,9.9714z"/>
						</g>
						<g>
							<path fill="#E8E8E8" d="M31.9876,7.4083c2.4339,1.4052,2.4484,3.6842,0.0286,5.0905
								c-2.418,1.4052-6.3543,1.4053-8.7882,0.0001c-2.4356-1.4062-2.4466-3.6852-0.0286-5.0905
								C25.6192,6.0021,29.5519,6.0021,31.9876,7.4083z"/>
						</g>
					</g>
				</g>
				<g>
					<g enable-background="new    ">
						<g>
							<path fill="#BFBFBF" d="M31.8391,3.3135l-0.0197,6.2222c-0.0018,0.6238-0.4117,1.2467-1.231,1.7228
								c-1.6482,0.9579-4.3314,0.9579-5.9904,0c-0.8353-0.4823-1.2522-1.1151-1.2504-1.7469l0.0197-6.2222
								c-0.0018,0.6318,0.4152,1.2647,1.2504,1.7469c1.6591,0.9579,4.3422,0.9578,5.9904,0
								C31.4274,4.5602,31.8373,3.9373,31.8391,3.3135z"/>
						</g>
						<g>
							<path fill="#E8E8E8" d="M30.5886,1.7228c1.6591,0.9579,1.6689,2.5113,0.0195,3.4699c-1.6482,0.9579-4.3314,0.9579-5.9904,0
								c-1.6602-0.9585-1.6677-2.512-0.0195-3.4699C26.2476,0.7643,28.9284,0.7643,30.5886,1.7228z"/>
						</g>
					</g>
				</g>
			</g>
			<g>
				<g enable-background="new    ">
					<g>
						<path fill="#BFBFBF" d="M18.1223,11.719l-0.0039,13.913c-0.0004,0.124-0.0819,0.2479-0.2447,0.3425
							c-0.3277,0.1904-0.8612,0.1905-1.1911,0c-0.1661-0.0959-0.249-0.2217-0.2486-0.3473l0.0039-13.913
							c-0.0004,0.1256,0.0825,0.2515,0.2486,0.3473c0.3299,0.1904,0.8633,0.1904,1.1911,0
							C18.0404,11.9669,18.1219,11.843,18.1223,11.719z"/>
					</g>
					<g>
						<path fill="#E8E8E8" d="M17.8737,11.3716c0.3299,0.1904,0.3318,0.4993,0.0039,0.6899c-0.3277,0.1904-0.8612,0.1905-1.1911,0
							c-0.3301-0.1906-0.3316-0.4995-0.0039-0.6899C17.0106,11.181,17.5436,11.181,17.8737,11.3716z"/>
					</g>
				</g>
			</g>
			<g>
				<g enable-background="new    ">
					<g>
						<path fill="#D7D7D7" d="M25.5057,7.9855c-0.0006,0.2924-0.104,0.4981-0.2702,0.5952l-8.5188,4.9715
							c0.1662-0.0971,0.2696-0.3028,0.2702-0.5952c0.0017-0.5889-0.4118-1.3052-0.9242-1.6011
							c-0.2576-0.1485-0.4912-0.1628-0.6597-0.0645l8.5188-4.9715c0.1685-0.0977,0.4021-0.084,0.6597,0.0645
							C25.0939,6.6803,25.5075,7.3972,25.5057,7.9855z"/>
					</g>
					<g>
						<path fill="#BFBFBF" d="M16.0628,11.3559c0.5124,0.2958,0.9261,1.0123,0.9244,1.6011
							c-0.0017,0.5884-0.418,0.8261-0.9304,0.5302c-0.512-0.2956-0.9261-1.0128-0.9244-1.6011
							C15.1341,11.2973,15.5508,11.0603,16.0628,11.3559z"/>
					</g>
				</g>
			</g>
		</g>
	</g>
	<path fill="#CF2027" d="M34.8652,16.5559l-0.03,28.2603c0,3.466-6.0944,4.8435-10.07,3.8501c3.238-0.726,5.7947-3.0482,6.79-5.8301
		c0.7679-2.1577,0.6432-3.7288,0.68-13.8101c0.0099-2.54,0.02-5.1099,0.56-7.5898C33.1752,19.7058,33.8352,17.9958,34.8652,16.5559z
		"/>
</g>
</svg>
