<?xml version="1.0" encoding="utf-8"?>
<!-- Generator: Adobe Illustrator 18.0.0, SVG Export Plug-In . SVG Version: 6.00 Build 0)  -->
<!DOCTYPE svg PUBLIC "-//W3C//DTD SVG 1.1//EN" "http://www.w3.org/Graphics/SVG/1.1/DTD/svg11.dtd">
<svg version="1.1" id="Layer_1" xmlns="http://www.w3.org/2000/svg" xmlns:xlink="http://www.w3.org/1999/xlink" x="0px" y="0px"
	 viewBox="0 0 50 50" enable-background="new 0 0 50 50" xml:space="preserve">
<g>
	<g>
		<g>
			<g>
				<g enable-background="new    ">
					<g>
						<path fill="#EF5A5A" d="M25.9222,5.9593l-4.9383,2.8787l-8.4597-4.8837c-0.1698-0.0902-0.3196-0.1-0.4295-0.04l4.9483-2.8694
							c0.1099-0.0697,0.2597-0.0595,0.4295,0.04L25.9222,5.9593z"/>
					</g>
					<g>
						<path fill="#D7D7D7" d="M40.3273,20.0084c0.338,0.1951,0.6049,0.665,0.6038,1.0459l-0.0653,23.0158
							c-0.0011,0.3884-0.2698,0.5415-0.6078,0.3463L12.4549,28.3642c-0.3316-0.1915-0.6049-0.6575-0.6038-1.0459l0.0653-23.0158
							c0.0011-0.3808,0.2762-0.5378,0.6078-0.3463l8.4558,4.8819c0.3316,0.1914,0.6049,0.665,0.6038,1.0459l-0.0164,5.7962
							c-0.0011,0.3884,0.2658,0.8507,0.6038,1.0459l8.4685,4.8893c0.338,0.1951,0.613,0.0457,0.6141-0.3427l0.0164-5.7962
							c0.0011-0.3808,0.2698-0.5414,0.6078-0.3463L40.3273,20.0084z"/>
					</g>
				</g>
			</g>
			<g>
				<g>
					<g enable-background="new    ">
						<g>
							<path fill="#BFBEBE" d="M21.4921,9.4814c0.0682,0.2111,0.0838,0.3115,0.0835,0.4077l-2.1118,1.2273
								c0.0003-0.0962-0.0154-0.1966-0.0835-0.4077C20.0842,10.2996,20.7882,9.8905,21.4921,9.4814z"/>
						</g>
						<g>
							<path fill="#BFBEBE" d="M21.4779,9.4439c0.003,0.0071,0.006,0.0141,0.0089,0.0212l-2.1118,1.2273
								c-0.0029-0.0071-0.0058-0.0141-0.0088-0.0212C20.0701,10.2621,20.774,9.853,21.4779,9.4439z"/>
						</g>
						<g>
							<path fill="#BFBEBE" d="M21.4779,9.4439c-0.7039,0.4091-1.4079,0.8182-2.1118,1.2273
								c-0.0697-0.1629-0.1803-0.3247-0.5061-0.6078l2.1118-1.2272C21.2976,9.1192,21.4082,9.281,21.4779,9.4439z"/>
						</g>
						<g>
							<path fill="#BFBEBE" d="M21.4921,9.4814c-0.7039,0.4091-1.4079,0.8182-2.1118,1.2273
								c-0.0017-0.0054-0.0035-0.0108-0.0053-0.0163l2.1118-1.2272C21.4886,9.4706,21.4904,9.476,21.4921,9.4814z"/>
						</g>
						<g>
							<path fill="#A72433" d="M30.9917,21.6967l-2.0376,1.1885c-0.1099,0.0697-0.2597,0.06-0.4295-0.04l-8.4697-4.8939
								c-0.3396-0.1897-0.6092-0.6594-0.6092-1.0485l0.0199-5.783l2.1075-1.229l-0.01,5.783
								c-0.01,0.3897,0.2696,0.8593,0.5992,1.049l8.4797,4.8939C30.772,21.6967,30.8918,21.7167,30.9917,21.6967z"/>
						</g>
						<g>
							<polygon fill="#BFBEBE" points="29.1503,16.7088 31.2622,15.4816 31.2571,17.2697 29.1453,18.497 							"/>
						</g>
						<g>
							<path fill="#BFBEBE" d="M29.1811,16.5044l2.1118-1.2273c-0.0212,0.069-0.0305,0.1325-0.0307,0.2045l-2.1118,1.2273
								C29.1505,16.6369,29.1598,16.5733,29.1811,16.5044z"/>
						</g>
						<g>
							<path fill="#BFBEBE" d="M29.1913,16.4776l2.1118-1.2272c-0.0035,0.0087-0.0072,0.0178-0.0103,0.0267l-2.1118,1.2273
								C29.1842,16.4954,29.1878,16.4864,29.1913,16.4776z"/>
						</g>
						<g>
							<path fill="#BFBEBE" d="M29.3271,16.313l2.1118-1.2272c-0.0588,0.0342-0.1053,0.0898-0.1357,0.1646l-2.1118,1.2273
								C29.2217,16.4028,29.2682,16.3472,29.3271,16.313z"/>
						</g>
						<g>
							<path fill="#BFBEBE" d="M31.4499,15.0861c0.0599-0.0348,0.129-0.046,0.2052-0.0358l-2.1118,1.2273
								c-0.0762-0.0102-0.1454,0.001-0.2052,0.0358C29.9716,15.9452,30.8163,15.4542,31.4499,15.0861z"/>
						</g>
						<g>
							<path fill="#BFBEBE" d="M31.6551,15.0503c0.0985,0.021,0.1586,0.0454,0.2212,0.0815l-2.1118,1.2273
								c-0.0626-0.0362-0.1227-0.0605-0.2212-0.0815C30.1769,15.9093,30.9315,15.1655,31.6551,15.0503z"/>
						</g>
						<g>
							<path fill="#D7D7D7" d="M38.2075,21.2336c0.338,0.1951,0.6113,0.6687,0.6102,1.0495l-0.0653,23.0158
								c-0.0011,0.3884-0.2762,0.5378-0.6141,0.3427L10.3415,29.5931c-0.338-0.1951-0.6049-0.6575-0.6038-1.0459L9.8029,5.5314
								C9.804,5.1506,10.0727,4.99,10.4107,5.1851l8.4494,4.8782c0.3398,0.2954,0.4456,0.4587,0.5149,0.629
								c0.0727,0.2223,0.0891,0.3254,0.0889,0.424l-0.0164,5.789c-0.0011,0.3884,0.2723,0.8544,0.6039,1.0459l8.4749,4.893
								c0.3316,0.1914,0.6067,0.0421,0.6078-0.3463l0.0113-4.0009l0.0051-1.7882c0.0002-0.072,0.0095-0.1355,0.0263-0.1907
								c0.0772-0.1888,0.2062-0.262,0.3667-0.2406c0.0985,0.021,0.1586,0.0454,0.2212,0.0815L38.2075,21.2336z"/>
						</g>
					</g>
				</g>
			</g>
			<g>
				<g enable-background="new    ">
					<g>
						<path fill="#EF5A5A" d="M18.8781,10.0611l-5.6232,3.2758L4.7952,8.4532c-0.1698-0.0902-0.3196-0.1-0.4295-0.04l5.6331-3.2665
							c0.1099-0.0697,0.2597-0.0595,0.4295,0.04L18.8781,10.0611z"/>
					</g>
					<g>
						<path fill="#BC2B3B" d="M27.1168,13.8523l-4.9483,2.8689c-0.3396-0.1897-0.5993-0.6491-0.5993-1.0383l0.01-5.8035
							c0.01-0.3794-0.2696-0.8486-0.5992-1.0383l4.9483-2.8791c0.3296,0.1897,0.5992,0.6691,0.5992,1.049l-0.01,5.7927
							C26.5175,13.1935,26.7772,13.6529,27.1168,13.8523z"/>
						<path fill="#BC2B3B" d="M36.6209,18.4296l-5.5432,3.2358c-0.1199,0.06-0.2697,0.0497-0.4395-0.0502l-8.4697-4.8837
							l5.6331-3.2763l8.4697,4.8944C36.4012,18.4296,36.531,18.4491,36.6209,18.4296z"/>
						<path fill="#BC2B3B" d="M28.9003,22.9241l-5.5432,3.2358c-0.1198,0.06-0.2697,0.0497-0.4395-0.0502l-8.4697-4.8837h-0.01
							c-0.3296-0.2-0.5993-0.6594-0.5993-1.0485l0.02-5.7932c0-0.3794-0.2797-0.8588-0.6092-1.0485l5.6331-3.2763
							c0.3296,0.2,0.6093,0.6691,0.5993,1.049l-0.01,5.8025c0,0.3799,0.2597,0.8491,0.5992,1.0388h0.01l8.4697,4.8944
							C28.6806,22.9241,28.8104,22.9436,28.9003,22.9241z"/>
					</g>
					<g>
						<path fill="#DD454D" d="M32.5984,24.5073c0.338,0.1951,0.6049,0.665,0.6038,1.0459L33.1369,48.569
							c-0.0011,0.3884-0.2698,0.5415-0.6078,0.3463L4.726,32.8631c-0.3316-0.1915-0.6049-0.6575-0.6038-1.0459L4.1874,8.8015
							c0.0011-0.3808,0.2762-0.5378,0.6078-0.3463l8.4558,4.8819c0.3316,0.1914,0.6049,0.665,0.6038,1.0459l-0.0164,5.7962
							c-0.0011,0.3884,0.2658,0.8507,0.6038,1.0459l8.4685,4.8893c0.338,0.1951,0.613,0.0457,0.6141-0.3427l0.0164-5.7962
							c0.0011-0.3808,0.2698-0.5414,0.6078-0.3463L32.5984,24.5073z"/>
					</g>
				</g>
			</g>
			<g>
				<path fill="#BC2B3B" d="M29.7645,16.359c-0.0626-0.0362-0.1227-0.0605-0.1791-0.0739c-0.0239-0.005-0.033-0.0063-0.0421-0.0076
					c-0.163-0.024-0.2904,0.0486-0.352,0.2001c-0.0035,0.0087-0.0072,0.0178-0.0103,0.0267
					c-0.0212,0.069-0.0305,0.1325-0.0307,0.2045l-0.0051,1.7882l-9.6865-5.5925l0.0051-1.7882
					c0.0003-0.0986-0.0162-0.2017-0.0463-0.3039c-0.0061-0.0206-0.0131-0.041-0.0203-0.0615
					c-0.0048-0.0135-0.01-0.0273-0.0153-0.0407c-0.0763-0.1898-0.182-0.3523-0.3089-0.4798
					c-0.0218-0.0214-0.0349-0.0337-0.0481-0.0457c-0.01-0.009-0.02-0.0179-0.0303-0.0262
					c-0.0366-0.0295-0.0531-0.0422-0.0698-0.0539c-0.0242-0.0167-0.0444-0.0296-0.0648-0.0414L29.7645,16.359z"/>
			</g>
			<g>
				<path fill="none" d="M40.3303,20.0043l-8.4497-4.8744c-0.0085-0.0049-0.0164-0.0054-0.0249-0.0098l0.0249,0.0141l8.4397,4.8744
					c0.2185,0.1219,0.399,0.3658,0.5064,0.6242l0.003-0.002C40.7254,20.375,40.5488,20.1326,40.3303,20.0043z"/>
				<path fill="none" d="M40.9296,21.0573v-0.0044c0-0.1351-0.0419-0.2799-0.0998-0.4218l-0.003,0.002
					C40.8863,20.7759,40.9296,20.9217,40.9296,21.0573z"/>
				<path fill="#EF5A5A" d="M31.8806,15.1299l8.4497,4.8744c0.2185,0.1283,0.395,0.3706,0.4995,0.6267l4.9488-2.8713
					c-0.1061-0.258-0.286-0.5009-0.4999-0.6242l-8.4497-4.8842c-0.1698-0.0897-0.3296-0.1-0.4395-0.04l-4.7566,2.7801l0.2229,0.1287
					C31.8642,15.1245,31.8721,15.125,31.8806,15.1299z"/>
				<path fill="#BC2B3B" d="M40.8298,20.631c0.0579,0.1419,0.0998,0.2868,0.0998,0.4218v0.0044l0,0l-0.0001,0.0258l-0.0599,22.992
					c0,0.1897-0.0699,0.3194-0.1798,0.3892l4.9483-2.8787c0.1099-0.06,0.1698-0.2,0.1698-0.3897l0.0699-23.0217
					c0-0.1331-0.0419-0.2751-0.0993-0.4145L40.8298,20.631z"/>
				<path fill="#A72433" d="M40.8267,20.633l-2.0974,1.2168c0.0604,0.1429,0.1044,0.2897,0.1044,0.4262l-0.0699,23.0217
					c0,0.1736-0.0556,0.2975-0.148,0.3643l2.074-1.2031c0.1099-0.06,0.1698-0.2,0.1698-0.3897l0.0698-22.9861l0.0001-0.0258
					C40.9296,20.9217,40.8863,20.7759,40.8267,20.633z"/>
				<polygon fill="#EE4541" points="40.9296,21.0573 40.9295,21.0831 40.9296,21.0573 				"/>
				<path fill="#EF5A5A" d="M38.2029,21.2372l-8.4397-4.8739l-0.0641-0.0371c-0.1358-0.0507-0.2634-0.0624-0.3538-0.0132
					l-5.5432,3.2363c0.0899-0.02,0.2197,0,0.3495,0.0795l8.4497,4.8744c0.2151,0.1268,0.3891,0.3633,0.4944,0.615l5.6191-3.2602
					C38.6042,21.601,38.4205,21.3586,38.2029,21.2372z"/>
				<path fill="#BC2B3B" d="M38.7522,45.2977l0.0699-23.012c0-0.1361-0.0453-0.2833-0.1074-0.4277l-5.6191,3.2602
					c0.061,0.1453,0.1049,0.2946,0.1049,0.4336L33.1407,48.574c0,0.1897-0.0699,0.3194-0.1798,0.3892l5.6331-3.2758
					c0.0095-0.0049,0.013-0.0185,0.0218-0.0254l-0.0434,0.0254C38.6823,45.6274,38.7522,45.4874,38.7522,45.2977z"/>
				<path fill="#CF2027" d="M38.8337,22.276c0-0.1366-0.044-0.2833-0.1044-0.4262l-0.0145,0.0083
					c0.0621,0.1444,0.1074,0.2916,0.1074,0.4277l-0.0699,23.012c0,0.1897-0.0699,0.3297-0.1798,0.3897l0.0434-0.0254
					c0.0924-0.0668,0.148-0.1907,0.148-0.3643L38.8337,22.276z"/>
				<path fill="#DD454D" d="M40.8258,20.6369l-2.0974,1.2085l-0.01,0.0098c-0.1099-0.2497-0.2996-0.4994-0.5194-0.6194
					l-8.4397-4.8739l-0.0199-0.02l-0.04-0.02l-10.8468-6.2624l-8.4497-4.8739c-0.1298-0.08-0.2597-0.1-0.3495-0.08l2.0375-1.1885
					c0.1099-0.0697,0.2597-0.06,0.4295,0.04L20.97,8.831l10.667,6.1624l0.2198,0.1297l0.0199,0.0102l8.4397,4.8739
					C40.5361,20.1272,40.7159,20.3769,40.8258,20.6369z"/>
			</g>
		</g>
		<g>
			<g>
				<g enable-background="new    ">
					<g>
						<polygon fill="#787677" points="42.6483,15.2143 42.6472,15.6161 38.8586,17.8036 38.8598,17.4017 						"/>
					</g>
					<g>
						<polygon fill="#929393" points="38.8598,17.4017 38.8586,17.8036 35.8147,16.0462 35.8158,15.6443 						"/>
					</g>
					<g>
						<polygon fill="#B0AFB0" points="42.625,15.2136 38.8598,17.4017 35.8158,15.6443 39.5811,13.4562 						"/>
					</g>
				</g>
			</g>
			<g>
				<g enable-background="new    ">
					<g>
						<polygon fill="#D7D7D7" points="38.8584,17.4024 38.5109,17.2004 39.0971,16.0069 39.4446,16.2089 						"/>
					</g>
					<g>
						<polygon fill="#BFBFBF" points="39.4446,16.2089 39.0971,16.0069 41.7098,14.4985 42.0573,14.7005 						"/>
					</g>
					<g>
						<polygon fill="#787677" points="42.0573,14.7005 42.6483,15.2143 38.8584,17.4024 39.4446,16.2089 						"/>
					</g>
				</g>
			</g>
			<g>
				<g enable-background="new    ">
					<g>
						<polygon fill="#D7D7D7" points="36.1633,15.8428 35.8158,15.6409 36.4021,14.4474 36.7496,14.6493 						"/>
					</g>
					<g>
						<polygon fill="#BFBFBF" points="36.7496,14.6493 36.4021,14.4474 39.0147,12.939 39.3622,13.1409 						"/>
					</g>
					<g>
						<polygon fill="#787677" points="39.3622,13.1409 39.9391,13.6629 36.1633,15.8428 36.7496,14.6493 						"/>
					</g>
				</g>
			</g>
		</g>
		<g>
			<g>
				<g enable-background="new    ">
					<g>
						<polygon fill="#787677" points="22.3833,3.5266 22.3822,3.9285 18.5936,6.116 18.5948,5.7141 						"/>
					</g>
					<g>
						<polygon fill="#929393" points="18.5948,5.7141 18.5936,6.116 15.5497,4.3586 15.5509,3.9567 						"/>
					</g>
					<g>
						<polygon fill="#B0AFB0" points="22.3601,3.5259 18.5948,5.7141 15.5509,3.9567 19.3162,1.7685 						"/>
					</g>
				</g>
			</g>
			<g>
				<g enable-background="new    ">
					<g>
						<polygon fill="#D7D7D7" points="18.5934,5.7147 18.2459,5.5128 18.8322,4.3193 19.1796,4.5212 						"/>
					</g>
					<g>
						<polygon fill="#BFBFBF" points="19.1796,4.5212 18.8322,4.3193 21.4448,2.8109 21.7923,3.0128 						"/>
					</g>
					<g>
						<polygon fill="#787677" points="21.7923,3.0128 22.3833,3.5266 18.5934,5.7147 19.1796,4.5212 						"/>
					</g>
				</g>
			</g>
			<g>
				<g enable-background="new    ">
					<g>
						<polygon fill="#D7D7D7" points="15.8984,4.1552 15.5509,3.9532 16.1371,2.7597 16.4846,2.9617 						"/>
					</g>
					<g>
						<polygon fill="#BFBFBF" points="16.4846,2.9617 16.1371,2.7597 18.7498,1.2513 19.0972,1.4533 						"/>
					</g>
					<g>
						<polygon fill="#787677" points="19.0972,1.4533 19.6742,1.9752 15.8984,4.1552 16.4846,2.9617 						"/>
					</g>
				</g>
			</g>
		</g>
	</g>
	<g>
		<g>
			<polygon fill="#F8C814" points="10.5104,20.956 10.5048,21.5923 8.7427,20.5749 8.7396,21.6943 10.3151,22.604 10.3133,23.2424 
				8.7377,22.3327 8.733,24.012 8.1355,23.6671 8.147,19.5915 			"/>
		</g>
		<g>
			<polygon fill="#F8C814" points="11.1192,25.3897 11.128,22.285 11.6951,22.6124 11.6863,25.7171 			"/>
		</g>
		<g>
			<path fill="#F8C814" d="M11.164,21.6881c-0.0683-0.1228-0.1061-0.2409-0.1057-0.3545c0.0006-0.2142,0.1559-0.3218,0.3627-0.2024
				c0.2065,0.1192,0.361,0.4049,0.3604,0.6199C11.7803,22.1124,11.3951,22.0882,11.164,21.6881z"/>
		</g>
		<g>
			<path fill="#F8C814" d="M13.9596,23.8759l0.0019,0.6582l-0.0305-0.0176c-0.2778-0.1604-0.4912-0.1786-0.6326-0.0499
				c-0.1452,0.1265-0.2145,0.3712-0.2155,0.7254l-0.0038,1.3293l-0.5709-0.3296l0.0088-3.1047l0.5709,0.3296l-0.0018,0.6252
				c0.0919-0.144,0.2141-0.2312,0.3743-0.2613C13.6169,23.7438,13.7846,23.7793,13.9596,23.8759z"/>
		</g>
		<g>
			<path fill="#F8C814" d="M15.501,24.7657c0.3121,0.1802,0.6048,0.4545,0.882,0.8246l-0.2145,0.3581
				c-0.2203-0.2938-0.456-0.513-0.7148-0.6624c-0.2217-0.128-0.4569-0.1834-0.4577,0.073c-0.0008,0.2699,0.3197,0.4679,0.6801,0.809
				c0.1938,0.1829,0.3415,0.3411,0.5016,0.5567c0.1823,0.2455,0.273,0.5167,0.2722,0.8142
				c-0.0018,0.6321-0.4532,0.7108-0.9961,0.3974c-0.3521-0.2033-0.8111-0.6065-1.1709-1.1404l0.2755-0.349
				c0.3113,0.4511,0.6154,0.7626,0.9122,0.934c0.2741,0.1582,0.4153,0.0743,0.4158-0.1235
				c0.0007-0.2431-0.4338-0.6142-0.5962-0.7867c-0.5628-0.5001-0.8436-0.9557-0.8424-1.3623
				C14.4497,24.4761,14.9452,24.4449,15.501,24.7657z"/>
		</g>
		<g>
			<path fill="#F8C814" d="M17.8023,25.1659l-0.0028,0.9709l0.7117,0.4109l-0.0015,0.5246l-0.7117-0.4109l-0.0045,1.5744
				c-0.0008,0.2847,0.1331,0.5631,0.383,0.7073c0.1218,0.0703,0.24,0.0684,0.3545-0.0011l0.2308,0.5974
				c-0.2023,0.0892-0.4233,0.0624-0.6631-0.076c-0.4691-0.2709-0.8742-0.8927-0.8723-1.5725l0.0044-1.5569l-0.3387-0.1956
				l0.0015-0.5246l0.3387,0.1956l0.0028-0.9709L17.8023,25.1659z"/>
		</g>
		<g>
			<path fill="#F8C814" d="M22.4073,27.8246l1.5488,4.9765l-0.6393-0.3691l-0.3513-1.1313l-1.7773-1.0261l-0.3566,0.7226
				l-0.6394-0.3691l1.5757-3.1725L22.4073,27.8246z M21.4335,29.7767l1.2901,0.7449l-0.6384-2.0506L21.4335,29.7767"/>
		</g>
		<g>
			<polygon fill="#F8C814" points="24.3671,33.0384 24.3759,29.9337 24.9467,30.2632 24.9379,33.368 			"/>
		</g>
		<g>
			<path fill="#F8C814" d="M24.6665,29.6064c-0.2104-0.1215-0.361-0.4113-0.3604-0.6242c0.0006-0.2146,0.1563-0.3216,0.3627-0.2024
				c0.2065,0.1192,0.361,0.4049,0.3604,0.6199C25.0286,29.6122,24.8772,29.7281,24.6665,29.6064z"/>
		</g>
		<g>
			<path fill="#F8C814" d="M27.7893,30.6779l0.5671,0.3274l-0.0123,4.3292l-0.5671-0.3274l0.0013-0.4679
				c-0.2103,0.2203-0.5152,0.2151-0.9186-0.0178c-0.6659-0.3845-1.2732-1.3495-1.2704-2.3454
				c0.0028-1.0016,0.6351-1.2191,1.3289-0.8186c0.3577,0.2065,0.6465,0.5484,0.8662,1.0258L27.7893,30.6779z M27.5548,34.0642
				c0.1566-0.1023,0.2372-0.2968,0.238-0.5898c0.0016-0.5685-0.3328-1.2347-0.8039-1.5067c-0.4378-0.2528-0.8271-0.054-0.8288,0.564
				c-0.0018,0.6312,0.4038,1.2408,0.8268,1.485C27.2115,34.1464,27.402,34.1642,27.5548,34.0642"/>
		</g>
	</g>
	<g>
		<polygon fill="#FFFFFF" points="17.2812,31.4856 17.2742,33.981 19.4458,35.2348 19.4404,37.1268 17.2688,35.873 17.2617,38.3684 
			15.6186,37.4197 15.6257,34.9243 13.454,33.6705 13.4594,31.7786 15.631,33.0323 15.6381,30.5369 		"/>
	</g>
</g>
</svg>
