<?xml version="1.0" encoding="utf-8"?>
<!-- Generator: Adobe Illustrator 18.0.0, SVG Export Plug-In . SVG Version: 6.00 Build 0)  -->
<!DOCTYPE svg PUBLIC "-//W3C//DTD SVG 1.1//EN" "http://www.w3.org/Graphics/SVG/1.1/DTD/svg11.dtd">
<svg version="1.1" id="Layer_1" xmlns="http://www.w3.org/2000/svg" xmlns:xlink="http://www.w3.org/1999/xlink" x="0px" y="0px"
	 viewBox="0 0 50 50" enable-background="new 0 0 50 50" xml:space="preserve">
<g>
	<g>
		<g enable-background="new    ">
			<g>
				<polygon fill="#B0AFB0" points="20.4372,27.9072 20.4329,29.4273 15.6883,26.688 15.6926,25.1679 				"/>
			</g>
			<g>
				<polygon fill="#B0AFB0" points="37.2903,37.6373 37.286,39.1574 32.5414,36.4181 32.5457,34.898 				"/>
			</g>
			<g>
				<polygon fill="#929393" points="39.0943,36.589 39.09,38.1091 37.286,39.1574 37.2903,37.6373 				"/>
			</g>
			<g>
				<polygon fill="#929393" points="32.5457,34.898 32.5414,36.4181 25.6866,40.4017 25.6909,38.8816 				"/>
			</g>
			<g>
				<polygon fill="#B0AFB0" points="28.6257,42.6726 28.6214,44.1927 7.0238,31.7233 7.0281,30.2032 				"/>
			</g>
			<g>
				<polygon fill="#929393" points="30.4355,41.6209 30.4312,43.141 28.6214,44.1927 28.6257,42.6726 				"/>
			</g>
			<g>
				<polygon fill="#D7D7D7" points="39.0943,36.589 37.2903,37.6373 32.5457,34.898 25.6909,38.8816 30.4355,41.6209 
					28.6257,42.6726 7.0281,30.2032 8.8378,29.1515 13.5824,31.8908 20.4372,27.9072 15.6926,25.1679 17.4966,24.1195 				"/>
			</g>
		</g>
	</g>
	<g>
		<g>
			<g enable-background="new    ">
				<g>
					<path fill="#929393" d="M25.5964,20.1827l-0.0118,13.1354c-0.0011,0.3732-0.2463,0.7459-0.7365,1.0308
						c-0.9862,0.5731-2.5915,0.5731-3.5842,0c-0.4998-0.2885-0.7492-0.6672-0.7482-1.0452l0.0118-13.1354
						c-0.0011,0.378,0.2484,0.7567,0.7482,1.0452c0.9926,0.5731,2.598,0.5731,3.5842,0
						C25.3501,20.9286,25.5953,20.5559,25.5964,20.1827z"/>
				</g>
				<g>
					<path fill="#E8E8E8" d="M24.8482,19.1373c0.9926,0.5731,0.9986,1.5026,0.0117,2.0761c-0.9862,0.5731-2.5915,0.5731-3.5842,0
						c-0.9934-0.5735-0.9978-1.503-0.0117-2.0761C22.2509,18.5638,23.8549,18.5638,24.8482,19.1373z"/>
				</g>
			</g>
		</g>
		<g>
			<g enable-background="new    ">
				<g>
					<path fill="#787677" d="M25.6023,32.1601l-0.0118,1.158c-0.0011,0.3732-0.2463,0.7459-0.7365,1.0308
						c-0.9862,0.5731-2.5915,0.5731-3.5842,0c-0.4998-0.2885-0.7492-0.6672-0.7482-1.0452l0.0118-1.158
						c-0.0011,0.378,0.2484,0.7567,0.7482,1.0452c0.9926,0.5731,2.598,0.5731,3.5842,0
						C25.356,32.906,25.6012,32.5333,25.6023,32.1601z"/>
				</g>
			</g>
		</g>
	</g>
	<g>
		<g enable-background="new    ">
			<g>
				<path fill="#D7D7D7" d="M49,25.9691v1.5202c0,0.2331-0.1586,0.4662-0.4569,0.6428l-12.1212,7.0495
					c-0.6247,0.3633-1.641,0.3542-2.2657,0L1.4755,16.3096C1.1585,16.1325,1,15.8898,1,15.6567l0.0093-1.501
					c0,0.2235,0.1585,0.4662,0.4662,0.6342l32.6806,18.8715c0.6248,0.3547,1.641,0.3638,2.2657,0l12.1212-7.049
					C48.8508,26.4353,49,26.2022,49,25.9691z"/>
			</g>
			<g>
				<path fill="#E8E8E8" d="M48.5252,25.3062c0.6251,0.3609,0.6342,0.9487,0.0133,1.3095l-12.1185,7.0425
					c-0.627,0.3644-1.6418,0.361-2.2668,0.0001L1.471,14.7892c-0.6251-0.3609-0.6283-0.9452-0.0013-1.3096l12.1185-7.0425
					c0.6209-0.3608,1.6297-0.3609,2.2548,0L48.5252,25.3062z"/>
			</g>
		</g>
	</g>
	<g>
		<g>
			<g enable-background="new    ">
				<g>
					<polygon fill="#1FB498" points="20.533,9.0029 20.5309,9.7629 7.4719,17.352 7.474,16.5919 					"/>
				</g>
				<g>
					<path fill="#66C5B9" d="M20.533,9.0029l-13.059,7.589l-5.3399-3.083c-0.256-0.1478-0.2693-0.3952-0.0091-0.5465l12.1246-7.046
						c0.2541-0.1477,0.6875-0.1443,0.9434,0.0035L20.533,9.0029z"/>
				</g>
			</g>
			<g enable-background="new    ">
				<g>
					<polygon fill="#1FB498" points="41.4937,21.1045 41.4916,21.8646 28.4326,29.4536 28.4348,28.6936 					"/>
				</g>
				<g>
					<polygon fill="#66C5B9" points="41.4937,21.1045 28.4348,28.6936 8.5158,17.1934 21.5748,9.6043 					"/>
				</g>
			</g>
			<g enable-background="new    ">
				<g>
					<path fill="#BFBEBE" d="M48.0669,25.0629v0.7553c0,0.1024-0.0653,0.2049-0.1865,0.2704v-0.7553
						C48.0016,25.2587,48.0669,25.1563,48.0669,25.0629z"/>
				</g>
				<g>
					<path fill="#3CBCA1" d="M2.1369,13.5104l5.3334,3.0767v0.7649l-5.3426-3.0863c-0.1305-0.0747-0.1958-0.1771-0.1958-0.2795
						v-0.7553C1.9318,13.3333,2.0064,13.4357,2.1369,13.5104z"/>
					<polygon fill="#3CBCA1" points="8.5145,17.1935 28.4306,28.6901 28.4306,29.4545 8.5145,17.9579 					"/>
				</g>
				<g>
					<path fill="#66C5B9" d="M47.8754,24.789c0.256,0.1478,0.2572,0.3953,0.0031,0.543l-12.1246,7.046
						c-0.2602,0.1512-0.6815,0.1478-0.9375,0l-5.3399-3.083l13.059-7.589L47.8754,24.789z"/>
				</g>
			</g>
		</g>
		<g>
			<path fill="#3CBCA1" d="M34.8175,32.3824l-5.3427-3.0863v0.7553l5.3427,3.0858c0.1135,0.0674,0.2621,0.0997,0.4139,0.1065
				v-0.7589C35.0795,32.4771,34.9302,32.4447,34.8175,32.3824z"/>
			<path fill="#1FB498" d="M35.7499,32.3824c-0.1391,0.0824-0.331,0.112-0.5185,0.1024v0.7589
				c0.185,0.0082,0.3751-0.0246,0.5185-0.1065l12.1305-7.0485v-0.7553L35.7499,32.3824z"/>
		</g>
	</g>
</g>
</svg>
