<?xml version="1.0" encoding="utf-8"?>
<!-- Generator: Adobe Illustrator 18.0.0, SVG Export Plug-In . SVG Version: 6.00 Build 0)  -->
<!DOCTYPE svg PUBLIC "-//W3C//DTD SVG 1.1//EN" "http://www.w3.org/Graphics/SVG/1.1/DTD/svg11.dtd">
<svg version="1.1" id="Layer_1" xmlns="http://www.w3.org/2000/svg" xmlns:xlink="http://www.w3.org/1999/xlink" x="0px" y="0px"
	 viewBox="0 0 50 50" enable-background="new 0 0 50 50" xml:space="preserve">
<g>
	<g>
		<g>
			<path fill="#EE4541" d="M18.3259,21.0393l0.0159,23.9782c0.0028,0.9742,0.6743,1.9001,1.8913,2.607
				c2.6179,1.5212,6.9008,1.5207,9.5349,0c1.2419-0.7171,1.9245-1.6568,1.9217-2.6457L31.674,21.0393H18.3259z"/>
			<path fill="#E02426" d="M20.107,23.3376c1.2837,0.7461,3.0078,1.1572,4.8543,1.1572s3.5758-0.4111,4.8692-1.158
				c1.1196-0.6464,1.762-1.4615,1.8434-2.3115c-0.0813-0.8397-0.7121-1.6447-1.8108-2.2835
				c-1.2854-0.7469-3.0095-1.158-4.8549-1.158c-1.8454,0-3.5752,0.4114-4.8698,1.1589c-1.1194,0.6462-1.7617,1.4612-1.8429,2.3115
				C18.3767,21.8938,19.0075,22.6989,20.107,23.3376z"/>
		</g>
		<g>
			<g>
				<g>
					<g enable-background="new    ">
						<g opacity="0.5">
							<path fill="#69C4EF" d="M18.0745,12.2384l0.0321,32.7796c0.0029,1.0175,0.6715,2.0335,2.0079,2.8101
								c2.6885,1.5624,7.0652,1.5625,9.7713,0.0001c1.3625-0.7866,2.0426-1.8189,2.0397-2.8495l-0.0321-32.7796
								c0.0029,1.0306-0.6772,2.0629-2.0397,2.8495c-2.7062,1.5624-7.0828,1.5623-9.7713-0.0001
								C18.746,14.2719,18.0774,13.2559,18.0745,12.2384z"/>
						</g>
						<g>
							<path fill="#F9A62B" d="M20.1142,9.3886c-2.7062,1.5624-2.7223,4.0964-0.0318,5.6599
								c2.6885,1.5624,7.0652,1.5625,9.7713,0.0001c2.7081-1.5635,2.7204-4.0975,0.0318-5.6599
								C27.195,7.8251,22.8223,7.8251,20.1142,9.3886z"/>
						</g>
					</g>
				</g>
			</g>
		</g>
		<g>
			<g>
				<g enable-background="new    ">
					<g>
						<path fill="#E02426" d="M17.6141,11.4087l0.0342,0.8501c0.0031,1.0851,0.7161,2.1687,2.1413,2.9969
							c2.8673,1.6663,7.5348,1.6663,10.4209,0.0001c1.4531-0.8389,2.1784-1.9398,2.1753-3.039l-0.0342-0.8501
							c0.0031,1.0991-0.7222,2.2-2.1753,3.039c-2.8861,1.6663-7.5536,1.6662-10.4209-0.0001
							C18.3303,13.5773,17.6172,12.4938,17.6141,11.4087z"/>
					</g>
					<g>
						<path fill="#EE4541" d="M19.7894,8.3694c-2.8861,1.6663-2.9033,4.3687-0.0339,6.0362
							c2.8673,1.6663,7.5348,1.6663,10.4209,0.0001c2.8881-1.6675,2.9012-4.3699,0.0339-6.0362
							C27.3409,6.702,22.6776,6.702,19.7894,8.3694z"/>
					</g>
					<g>
						<path fill="#B0AFB0" d="M21.5741,8.9872c-1.8943,1.0937-1.9056,2.8674-0.0223,3.9619c1.882,1.0937,4.9456,1.0937,6.8399,0
							c1.8957-1.0945,1.9042-2.8682,0.0223-3.9619C26.5306,7.8928,23.4697,7.8927,21.5741,8.9872z"/>
					</g>
				</g>
			</g>
			<g>
				<g>
					<g>
						<g enable-background="new    ">
							<g>
								<path fill="#EE4541" d="M20.355,2.1149c-2.5728,1.4854-2.5882,3.8945-0.0302,5.381
									c2.5561,1.4854,6.717,1.4855,9.2899,0.0001c2.5747-1.4865,2.5863-3.8956,0.0302-5.381
									C27.0869,0.6284,22.9296,0.6284,20.355,2.1149z"/>
								<g>
									<path fill="#CF2027" d="M20.6188,2.8997c1.1663-0.6734,2.7246-1.044,4.3871-1.044c1.6625,0,3.2157,0.3704,4.3737,1.0433
										c0.9898,0.5754,1.558,1.3007,1.6313,2.0571c0.0051-0.0534,0.0146-0.1068,0.0147-0.1604
										c0.001-0.8166-0.5834-1.6065-1.646-2.224c-1.158-0.6729-2.7112-1.0435-4.3737-1.0435c-1.6625,0-3.2208,0.3709-4.3871,1.044
										c-1.0791,0.6231-1.6739,1.4198-1.6749,2.2433c-0.0001,0.0557,0.0093,0.1109,0.0147,0.1666
										C19.0318,4.2161,19.6103,3.4818,20.6188,2.8997z"/>
									<path fill="#E02426" d="M20.5904,7.0393c1.1565,0.6721,2.7096,1.0425,4.3732,1.0425s3.2213-0.3704,4.3866-1.0433
										c1.0087-0.5824,1.5873-1.3167,1.6607-2.0824c-0.0733-0.7565-0.6415-1.4817-1.6313-2.0571
										c-1.158-0.6729-2.7112-1.0433-4.3737-1.0433c-1.6625,0-3.2208,0.3706-4.3871,1.044
										c-1.0085,0.5821-1.587,1.3164-1.6602,2.0824C19.0316,5.7386,19.5999,6.4638,20.5904,7.0393z"/>
								</g>
							</g>
						</g>
					</g>
				</g>
				<g>
					<path fill="#E02426" d="M31.585,11.238c0.0103,0.9707-0.6403,1.952-1.9415,2.6958c-2.5715,1.4866-6.7334,1.4866-9.2946,0
						c-1.2599-0.7231-1.9002-1.6938-1.9002-2.6645l-0.0413-6.4445c0,0.0827,0.0207,0.1548,0.031,0.2375
						c0.0929,0.8779,0.7126,1.7558,1.8899,2.4371c2.5508,1.4876,6.7128,1.4876,9.2946,0c1.2806-0.7539,1.9312-1.7347,1.9312-2.716
						L31.585,11.238z"/>
				</g>
			</g>
		</g>
	</g>
	<g>
		<path fill="#F7E28E" d="M18.0824,23.7678l0.0321,12.7796c0.0029,1.0175,0.6715,2.0335,2.0079,2.8101
			c2.6885,1.5624,7.0652,1.5625,9.7713,0.0001c1.3625-0.7866,2.0426-1.8189,2.0397-2.8495l-0.0321-12.7796
			c0.0029,1.0306-0.6772,2.0629-2.0397,2.8495c-2.7062,1.5624-7.0828,1.5623-9.7713-0.0001
			C18.7539,25.8013,18.0853,24.7852,18.0824,23.7678z"/>
	</g>
</g>
</svg>
