<?xml version="1.0" encoding="utf-8"?>
<!-- Generator: Adobe Illustrator 18.0.0, SVG Export Plug-In . SVG Version: 6.00 Build 0)  -->
<!DOCTYPE svg PUBLIC "-//W3C//DTD SVG 1.1//EN" "http://www.w3.org/Graphics/SVG/1.1/DTD/svg11.dtd">
<svg version="1.1" id="Layer_1" xmlns="http://www.w3.org/2000/svg" xmlns:xlink="http://www.w3.org/1999/xlink" x="0px" y="0px"
	 viewBox="0 0 50 50" enable-background="new 0 0 50 50" xml:space="preserve">
<g>
	<g>
		<g>
			<g enable-background="new    ">
				<g>
					<path fill="#F0F1EE" d="M20.7352,34.4934l4.3762-2.5432c0.5041-0.293,1.2029-0.2506,1.9758,0.1957l-4.3762,2.5432
						C21.938,34.2428,21.2393,34.2005,20.7352,34.4934z"/>
				</g>
				<g>
					<path fill="#E8E8E8" d="M30.075,25.4587l-4.3774,2.546c-0.1397,0.0781-0.3416,0.0622-0.5589-0.0622l-12.8995-7.4507
						c-0.4191-0.2327-0.7761-0.8383-0.7761-1.3348l0.0311-10.478l4.3775-2.546l-0.0311,10.4931
						c0,0.4813,0.3416,1.0869,0.7761,1.3355l12.8995,7.4507C29.7335,25.5208,29.9353,25.5367,30.075,25.4587z"/>
				</g>
				<g>
					<path fill="#E7E7E7" d="M11.7235,8.1794l4.3762-2.5432c-0.1388,0.0807-0.2251,0.2521-0.2258,0.4955l-4.3762,2.5432
						C11.4984,8.4315,11.5846,8.2601,11.7235,8.1794z"/>
				</g>
				<g>
					<path fill="#5EB5E5" d="M11.7236,8.1794l4.3762-2.5432c0.1407-0.0818,0.3353-0.0704,0.5497,0.0533l-4.3762,2.5432
						C12.0589,8.109,11.8642,8.0977,11.7236,8.1794z"/>
				</g>
				<g>
					<polygon fill="#5EB5E5" points="25.9477,17.0177 30.3239,14.4745 30.2942,24.9632 25.918,27.5064 					"/>
				</g>
				<g>
					<path fill="#5EB5E5" d="M30.0685,25.4581l-4.3762,2.5432c0.1388-0.0807,0.225-0.2519,0.2257-0.4949l4.3762-2.5432
						C30.2935,25.2063,30.2073,25.3775,30.0685,25.4581z"/>
				</g>
				<g>
					<polygon fill="#5EB5E5" points="12.2733,8.2328 16.6495,5.6896 29.5534,13.1397 25.1772,15.6829 					"/>
				</g>
				<g>
					<polygon fill="#686868" points="16.4165,6.9179 20.7927,4.3748 20.7862,5.6896 16.41,8.2328 					"/>
				</g>
				<g>
					<polygon fill="#3D3D3D" points="16.41,7.6336 20.7862,5.0904 25.3849,7.7455 21.0087,10.2886 					"/>
				</g>
				<g>
					<polygon fill="#5EB5E5" points="21.0153,9.5729 25.3915,7.0298 25.3849,9.3301 21.0087,11.8732 					"/>
				</g>
				<g>
					<path fill="#5EB5E5" d="M25.1772,15.6829l4.3762-2.5432c0.4261,0.246,0.7719,0.8448,0.7705,1.3348l-4.3762,2.5432
						C25.9491,16.5277,25.6034,15.9289,25.1772,15.6829z"/>
				</g>
				<g>
					<path fill="#686868" d="M25.6065,15.2053c0.4261,0.246,0.7719,0.8448,0.7705,1.3348l-0.0297,10.4887
						c-0.0014,0.4893-0.3494,0.6876-0.7755,0.4416l-12.904-7.4501c-0.4261-0.246-0.7719-0.8448-0.7705-1.3342L11.927,8.1973
						c0.0014-0.49,0.3494-0.6882,0.7755-0.4422L25.6065,15.2053z"/>
				</g>
				<g>
					<path fill="#BFBFBF" d="M32.9312,13.9097l-0.0776,30.9996c0,0.6829-0.2484,1.1794-0.6365,1.3969l-4.3775,2.546
						c0.3881-0.2327,0.6365-0.714,0.6365-1.3969l0.0776-30.9996c0.0155-0.7451-0.2639-1.5523-0.6985-2.2663l4.3775-2.546
						C32.6674,12.3574,32.9468,13.1646,32.9312,13.9097z"/>
				</g>
			</g>
		</g>
		<g>
			<path fill="#D7D7D7" d="M26.377,12.6686c1.2092,0.6981,2.1871,2.3914,2.1831,3.781l-0.0879,30.9991
				c-0.0039,1.3896-0.9882,1.9501-2.1974,1.252l-15.2825-8.8234c-1.2091-0.6981-2.1871-2.3915-2.1831-3.7811L8.8971,5.0972
				c0.0039-1.3896,0.9883-1.95,2.1974-1.252l5.3221,3.0727l4.5987,2.655L26.377,12.6686z M25.918,27.5064l0.0297-10.4888
				c0.0014-0.49-0.3444-1.0887-0.7705-1.3347l-12.904-7.4501c-0.4261-0.246-0.7741-0.0478-0.7755,0.4421L11.468,19.1637
				c-0.0014,0.4893,0.3444,1.0882,0.7705,1.3342l12.904,7.4501C25.5685,28.194,25.9166,27.9958,25.918,27.5064"/>
		</g>
		<g>
			<polygon fill="#4F4D4D" points="24.1908,7.7275 19.6106,5.0657 19.6171,5.7814 24.1974,8.4431 			"/>
		</g>
		<g>
			<path fill="#E8E8E8" d="M32.2327,11.6434l-4.3775,2.546c-0.3881-0.6367-0.9003-1.1953-1.4747-1.5212l-5.3709-3.0887
				l3.1822-1.8479l-4.5793-2.6695l-3.1977,1.8623l-5.3244-3.0735c-0.6054-0.357-1.1487-0.3881-1.5523-0.1546l4.3775-2.546
				c0.3881-0.2327,0.9469-0.2024,1.5523,0.1554l5.3244,3.0735l4.5948,2.6544l5.3709,3.0887
				C31.3323,10.4481,31.8446,11.0075,32.2327,11.6434z"/>
		</g>
		<g>
			<g enable-background="new    ">
				<g>
					<path fill="#39414D" d="M17.7523,36.4759c0.3714,0.2144,0.5424,0.8477,0.2586,0.9586l-3.2325,1.3043
						c-0.0754,0.0302-0.1683,0.0135-0.2612-0.0401c-0.0928-0.0536-0.1856-0.1442-0.2606-0.2612l-3.2146-5.0266
						c-0.2822-0.4377-0.1082-0.8718,0.2632-0.6573L17.7523,36.4759z"/>
				</g>
			</g>
			<g enable-background="new    ">
				<g>
					<path fill="#475160" d="M14.2873,28.2581l-3.2343,1.3087l0.9766-0.5678l3.2343-1.3091
						c0.0762-0.0277,0.1662-0.0139,0.2563,0.0416c0.097,0.0555,0.187,0.1454,0.2632,0.2631l3.2136,5.0283
						c0.1939,0.2976,0.1731,0.5955,0.0208,0.6855l-0.9765,0.5678c0.1523-0.09,0.1731-0.3875-0.0208-0.6855l-3.2136-5.0283
						c-0.0762-0.1177-0.1662-0.2076-0.2631-0.2631C14.4536,28.2439,14.3636,28.2304,14.2873,28.2581z"/>
					<path fill="#475160" d="M19.0176,36.8528l-0.9765,0.5678c0.2424-0.1383,0.0692-0.7409-0.2909-0.9418l-6.4479-3.726
						c-0.1108-0.0693-0.2078-0.0693-0.277-0.0277l0.9696-0.5678c0.0762-0.0416,0.1731-0.0416,0.284,0.0277l6.4479,3.726
						C19.0869,36.1186,19.2601,36.7145,19.0176,36.8528z"/>
				</g>
				<g>
					<path fill="#39414D" d="M14.5467,28.3004c0.0929,0.0536,0.1856,0.1442,0.2606,0.2612l3.2146,5.0266
						c0.2822,0.4377,0.1082,0.8718-0.2632,0.6573l-6.4471-3.7222c-0.3714-0.2144-0.5424-0.8477-0.2586-0.9586l3.2325-1.3044
						C14.3609,28.2301,14.4538,28.2468,14.5467,28.3004z"/>
				</g>
			</g>
		</g>
		<g>
			<g>
				<g enable-background="new    ">
					<g>
						<path fill="#39414D" d="M40.328,47.5791l0.547-0.3179c0.195-0.1134,0.3149-0.3552,0.3158-0.6949l-0.547,0.3179
							C40.6429,47.2239,40.523,47.4657,40.328,47.5791z"/>
					</g>
					<g>
						<polygon fill="#464C56" points="40.6213,40.8261 41.1683,40.5082 37.4637,38.4034 36.9166,38.7213 						"/>
					</g>
					<g>
						<polygon fill="#FFFFFF" points="36.9224,39.4772 37.4694,39.1593 37.4648,38.7154 36.9178,39.0333 						"/>
					</g>
					<g>
						<polygon fill="#464C56" points="40.6277,42.0613 41.1747,41.7435 37.468,39.6374 36.9209,39.9553 						"/>
					</g>
					<g>
						<path fill="#475160" d="M40.6277,42.0613l-3.7067-2.106l0.0161,4.8117c0.008,0.6891,0.4921,1.5163,1.0768,1.8539l1.5659,0.893
							c0.5947,0.3316,1.0621,0.0426,1.064-0.6296L40.6277,42.0613z"/>
					</g>
					<g>
						<polygon fill="#39414D" points="40.6438,46.8842 41.1908,46.5663 41.1747,41.7435 40.6277,42.0613 						"/>
					</g>
					<g>
						<polygon fill="#BFBFBF" points="40.6277,42.0614 41.1747,41.7435 41.1731,41.2747 40.6261,41.5926 						"/>
					</g>
					<g>
						<polygon fill="#E8E8E8" points="40.6261,41.5926 36.9224,39.4772 36.9178,39.0333 36.9211,39.9443 40.6277,42.0614 						"/>
					</g>
					<g>
						<polygon fill="#FFFFFF" points="40.6261,41.5926 41.1731,41.2747 37.4694,39.1593 36.9224,39.4772 						"/>
					</g>
					<g>
						<polygon fill="#464C56" points="40.6244,41.1386 41.1714,40.8207 41.1683,40.5082 40.6213,40.8261 						"/>
					</g>
					<g>
						<polygon fill="#FFFFFF" points="40.5837,29.6141 41.1307,29.2962 37.4238,27.2012 36.8768,27.5191 						"/>
					</g>
					<g>
						<polygon fill="#616976" points="40.1558,26.4584 40.7028,26.1405 37.8286,24.5033 37.2815,24.8212 						"/>
					</g>
					<g>
						<polygon fill="#464C56" points="40.1557,26.4583 40.7028,26.1404 40.5959,25.3255 40.0489,25.6434 						"/>
					</g>
					<g>
						<polygon fill="#39414D" points="40.5836,29.6252 41.1306,29.3073 40.5959,25.3255 40.0489,25.6434 						"/>
					</g>
					<g>
						<polygon fill="#E8E8E8" points="40.5837,29.6141 36.8768,27.5191 36.9167,38.7214 40.6213,40.8261 40.6244,41.1386 						"/>
					</g>
					<g>
						<polygon fill="#475160" points="40.6213,40.8261 36.9166,38.7213 36.9177,39.0332 36.9223,39.4771 40.626,41.5925 
							40.6244,41.1386 						"/>
					</g>
					<g>
						<polygon fill="#616976" points="37.2815,24.8212 37.8286,24.5033 37.9298,23.8092 37.3827,24.1271 						"/>
					</g>
					<g>
						<polygon fill="#BFBFBF" points="40.6244,41.1386 41.1715,40.8207 41.1307,29.2962 40.5837,29.6141 						"/>
					</g>
					<g>
						<path fill="#39414D" d="M38.1014,23.5246l-0.547,0.3179c0.1125-0.0654,0.2674-0.0554,0.4346,0.0411l0.547-0.3179
							C38.3688,23.4691,38.214,23.4592,38.1014,23.5246z"/>
					</g>
					<g>
						<polygon fill="#39414D" points="39.4459,24.7136 39.9929,24.3957 38.536,23.5657 37.989,23.8836 						"/>
					</g>
					<g>
						<polygon fill="#475160" points="37.3827,24.1271 36.8768,27.5191 40.5836,29.6252 40.0489,25.6434 40.1558,26.4584 
							37.2815,24.8212 						"/>
					</g>
					<g>
						<path fill="#475160" d="M39.4459,24.7136l-1.4569-0.83c-0.2973-0.1717-0.5558-0.0696-0.6063,0.2435l-0.1013,0.6941
							l2.8743,1.6372l-0.1069-0.8149C40.0002,25.2848,39.7433,24.8853,39.4459,24.7136z"/>
					</g>
					<g>
						<path fill="#464C56" d="M40.0489,25.6434l0.547-0.3179c-0.0487-0.3586-0.3056-0.7582-0.6029-0.9298l-0.547,0.3179
							C39.7433,24.8853,40.0002,25.2848,40.0489,25.6434z"/>
					</g>
					<g>
						<path fill="#39414D" d="M40.0489,25.6434l0.547-0.3179c-0.0486-0.3702-0.3056-0.7581-0.6029-0.9297l-0.547,0.3179
							C39.7433,24.8853,40.0003,25.2732,40.0489,25.6434z"/>
					</g>
				</g>
			</g>
			<g>
				<polygon fill="#39414D" points="40.626,41.5925 41.1731,41.2746 41.1683,40.5082 40.6213,40.8261 				"/>
			</g>
		</g>
		<g>
			<g>
				<g enable-background="new    ">
					<g>
						<path fill="#4F4D4D" d="M27.1503,37.6577c-0.0016,0.8395-0.2984,1.4298-0.7756,1.7086l-1.1282,0.6557
							c0.4772-0.2788,0.7739-0.8691,0.7756-1.7087c0.0049-1.6906-1.1822-3.7468-2.6531-4.5961
							c-0.7395-0.4263-1.4102-0.4673-1.8939-0.1853l1.1282-0.6557c0.4837-0.2804,1.1544-0.2411,1.8939,0.1853
							C25.968,33.9109,27.1552,35.9688,27.1503,37.6577z"/>
					</g>
					<g>
						<path fill="#686868" d="M23.3693,33.7172c1.4709,0.8492,2.6584,2.9061,2.6536,4.5963
							c-0.0048,1.6889-1.2001,2.3713-2.671,1.5221c-1.4699-0.8486-2.6584-2.9073-2.6536-4.5963
							C20.7031,33.5492,21.8994,32.8686,23.3693,33.7172z"/>
					</g>
				</g>
			</g>
			<g>
				<g enable-background="new    ">
					<g>
						<path fill="#EE4541" d="M25.4894,38.3708c-0.0015,0.7455-0.265,1.2697-0.6887,1.5173l-1.3361,0.7765
							c0.4237-0.2476,0.6873-0.7718,0.6887-1.5174c0.0044-1.5013-1.0499-3.3273-2.356-4.0815
							c-0.6567-0.3786-1.2523-0.415-1.6818-0.1645l1.3361-0.7765c0.4296-0.249,1.0251-0.2141,1.6818,0.1645
							C24.4395,35.0435,25.4938,36.8709,25.4894,38.3708z"/>
					</g>
					<g>
						<path fill="#E02426" d="M21.7975,35.0657c1.3062,0.7541,2.3608,2.5807,2.3565,4.0817
							c-0.0043,1.4998-1.0657,2.1059-2.3719,1.3517c-1.3053-0.7536-2.3608-2.5818-2.3565-4.0817
							C19.4299,34.9165,20.4922,34.3121,21.7975,35.0657z"/>
					</g>
				</g>
			</g>
		</g>
	</g>
	<g>
		<path fill="#E8E8E8" d="M30.7594,10.1259l-5.3701-3.0898l-4.6-2.6602l-5.32-3.0698c-0.61-0.3599-1.17-0.3901-1.55-0.1602
			l-4.38,2.5503c0.4-0.23,0.95-0.2002,1.55,0.1499l5.32,3.0698l0.01,0.0103l4.59,2.6499l5.37,3.0898
			c0.58,0.3301,1.09,0.8901,1.48,1.52l4.37-2.54C31.8494,11.0058,31.3293,10.4462,30.7594,10.1259z M22.5294,8.6962l-4.59-2.6602
			l1.67-0.9697l4.58,2.6699L22.5294,8.6962z"/>
	</g>
</g>
</svg>
