<?xml version="1.0" encoding="utf-8"?>
<!-- Generator: Adobe Illustrator 18.0.0, SVG Export Plug-In . SVG Version: 6.00 Build 0)  -->
<!DOCTYPE svg PUBLIC "-//W3C//DTD SVG 1.1//EN" "http://www.w3.org/Graphics/SVG/1.1/DTD/svg11.dtd">
<svg version="1.1" id="Layer_1" xmlns="http://www.w3.org/2000/svg" xmlns:xlink="http://www.w3.org/1999/xlink" x="0px" y="0px"
	 viewBox="0 0 50 50" enable-background="new 0 0 50 50" xml:space="preserve">
<g>
	<g>
		<g>
			<g enable-background="new    ">
				<g>
					<path fill="#FFFFFF" d="M29.3354,16.8076l-0.0032,1.126c-0.0904-0.0522-0.2309-0.0522-0.3208,0l0.0032-1.126
						C29.1044,16.7553,29.245,16.7554,29.3354,16.8076z"/>
				</g>
				<g>
					<path fill="#FFFFFF" d="M25.5974,16.8088l-0.0032,1.126c-0.0882-0.0509-0.2311-0.0496-0.3187,0.0013l0.0032-1.126
						C25.3663,16.7592,25.5092,16.7579,25.5974,16.8088z"/>
				</g>
				<g>
					<polygon fill="#FFFFFF" points="30.3187,17.3753 30.3155,18.5012 29.3322,17.9335 29.3354,16.8076 					"/>
				</g>
				<g>
					<polygon fill="#FFFFFF" points="25.2787,16.8101 25.2755,17.9361 24.2986,18.5038 24.3018,17.3778 					"/>
				</g>
				<g>
					<path fill="#FFFFFF" d="M30.386,17.469l-0.0032,1.126c0.0001-0.034-0.0227-0.0679-0.0673-0.0937l0.0032-1.126
						C30.3634,17.4011,30.3861,17.435,30.386,17.469z"/>
				</g>
				<g>
					<path fill="#FFFFFF" d="M24.2313,18.5965l0.0032-1.126c0.0001-0.0333,0.0224-0.0667,0.0674-0.0928l-0.0032,1.126
						C24.2537,18.5299,24.2314,18.5633,24.2313,18.5965z"/>
				</g>
				<g>
					<path fill="#F05543" d="M30.386,17.469l-0.0032,1.126c-0.0001,0.0331-0.0219,0.0663-0.0662,0.0921l0.0032-1.126
						C30.3642,17.5353,30.3859,17.5021,30.386,17.469z"/>
				</g>
				<g>
					<path fill="#F05543" d="M24.2313,18.5966l0.0032-1.126c-0.0001,0.0333,0.0221,0.0664,0.0662,0.0918l-0.0032,1.126
						C24.2533,18.6629,24.2312,18.6298,24.2313,18.5966z"/>
				</g>
				<g>
					<polygon fill="#FFFFFF" points="27.3105,17.7979 27.3073,18.9238 25.5942,17.9348 25.5974,16.8088 					"/>
				</g>
				<g>
					<polygon fill="#FFFFFF" points="29.0146,16.8075 29.0114,17.9335 27.3073,18.9238 27.3105,17.7979 					"/>
				</g>
				<g>
					<polygon fill="#F05543" points="30.3198,17.5611 30.3166,18.6871 28.6125,19.6774 28.6157,18.5514 					"/>
				</g>
				<g>
					<polygon fill="#F05543" points="26.0137,18.5515 26.0105,19.6774 24.2974,18.6884 24.3006,17.5624 					"/>
				</g>
				<g>
					<polygon fill="#FFFFFF" points="30.331,19.5417 30.3278,20.6677 28.6125,19.6774 28.6157,18.5514 					"/>
				</g>
				<g>
					<polygon fill="#FFFFFF" points="26.0137,18.5515 26.0105,19.6774 24.3108,20.6652 24.314,19.5392 					"/>
				</g>
				<g>
					<path fill="#FFFFFF" d="M30.3982,19.6352l-0.0032,1.126c0.0001-0.0336-0.022-0.0673-0.0672-0.0934l0.0032-1.126
						C30.3762,19.5678,30.3983,19.6016,30.3982,19.6352z"/>
				</g>
				<g>
					<path fill="#FFFFFF" d="M24.2437,20.7575l0.0032-1.126c0.0001-0.0332,0.0225-0.0664,0.0671-0.0923l-0.0032,1.126
						C24.2661,20.6911,24.2438,20.7243,24.2437,20.7575z"/>
				</g>
				<g>
					<path fill="#F05543" d="M30.3982,19.6352l-0.0032,1.126c-0.0001,0.0336-0.0224,0.067-0.0662,0.0925l0.0032-1.126
						C30.3758,19.7022,30.3981,19.6687,30.3982,19.6352z"/>
				</g>
				<g>
					<path fill="#F05543" d="M24.2437,20.7575l0.0032-1.126c-0.0001,0.0336,0.0226,0.0673,0.0681,0.0935l-0.0032,1.126
						C24.2663,20.8248,24.2436,20.7912,24.2437,20.7575z"/>
				</g>
				<g>
					<polygon fill="#FFFFFF" points="26.7314,23.8583 26.7282,24.9842 19.2233,20.6512 19.2265,19.5253 					"/>
				</g>
				<g>
					<polygon fill="#F0F1EE" points="25.9144,24.333 25.9112,25.459 18.4063,21.126 18.4095,20.0001 					"/>
				</g>
				<g>
					<polygon fill="#FFFFFF" points="19.2265,19.5253 19.2233,20.6512 18.4063,21.126 18.4095,20.0001 					"/>
				</g>
				<g>
					<polygon fill="#F05543" points="30.332,19.7276 30.3288,20.8536 29.3519,21.4213 29.3551,20.2953 					"/>
				</g>
				<g>
					<polygon fill="#F05543" points="29.0342,20.2953 29.031,21.4213 27.3157,20.431 27.3189,19.305 					"/>
				</g>
				<g>
					<polygon fill="#F05543" points="27.3189,19.305 27.3157,20.431 25.616,21.4188 25.6192,20.2928 					"/>
				</g>
				<g>
					<polygon fill="#F05543" points="25.2983,20.2928 25.2951,21.4188 24.3118,20.8511 24.315,19.7251 					"/>
				</g>
				<g>
					<path fill="#F05543" d="M29.3551,20.2953l-0.0032,1.126c-0.0898,0.0522-0.2305,0.0522-0.3209,0l0.0032-1.126
						C29.1246,20.3475,29.2653,20.3475,29.3551,20.2953z"/>
				</g>
				<g>
					<path fill="#F05543" d="M25.6192,20.2928l-0.0032,1.126c-0.0898,0.0522-0.2327,0.051-0.3209,0l0.0032-1.126
						C25.3865,20.3437,25.5294,20.345,25.6192,20.2928z"/>
				</g>
				<g>
					<polygon fill="#FFFFFF" points="30.7576,29.3623 30.7544,30.4883 16.4787,22.2462 16.4819,21.1202 					"/>
				</g>
				<g>
					<polygon fill="#F0F1EE" points="29.9406,29.8371 29.9374,30.9631 15.6617,22.721 15.6649,21.595 					"/>
				</g>
				<g>
					<polygon fill="#FFFFFF" points="16.4819,21.1202 16.4787,22.2462 15.6617,22.721 15.6649,21.595 					"/>
				</g>
				<g>
					<polygon fill="#464C56" points="46.73,22.3968 46.7268,23.5228 28.5286,12.9729 28.5318,11.847 					"/>
				</g>
				<g>
					<polygon fill="#FFFFFF" points="28.0131,30.9573 28.0099,32.0832 13.7342,23.8412 13.7374,22.7152 					"/>
				</g>
				<g>
					<polygon fill="#F0F1EE" points="27.196,31.4321 27.1928,32.5581 12.917,24.316 12.9202,23.1901 					"/>
				</g>
				<g>
					<polygon fill="#FFFFFF" points="13.7374,22.7152 13.7342,23.8412 12.917,24.316 12.9202,23.1901 					"/>
				</g>
				<g>
					<polygon fill="#F0F1EE" points="26.7314,23.8583 26.7282,24.9842 25.9112,25.459 25.9144,24.333 					"/>
				</g>
				<g>
					<polygon fill="#FFFFFF" points="25.2707,32.551 25.2675,33.677 10.9917,25.4349 10.9949,24.3089 					"/>
				</g>
				<g>
					<polygon fill="#F0F1EE" points="24.4514,33.0271 24.4482,34.1531 10.1725,25.911 10.1757,24.785 					"/>
				</g>
				<g>
					<polygon fill="#FFFFFF" points="10.9949,24.3089 10.9917,25.4349 10.1725,25.911 10.1757,24.785 					"/>
				</g>
				<g>
					<polygon fill="#FFFFFF" points="22.526,34.146 22.5228,35.272 8.2471,27.0299 8.2503,25.9039 					"/>
				</g>
				<g>
					<polygon fill="#F0F1EE" points="21.7068,34.6221 21.7037,35.748 7.4279,27.5059 7.4311,26.38 					"/>
				</g>
				<g>
					<polygon fill="#FFFFFF" points="8.2503,25.9039 8.2471,27.0299 7.4279,27.5059 7.4311,26.38 					"/>
				</g>
				<g>
					<polygon fill="#464C56" points="28.5318,11.847 28.5286,12.9729 3.2729,27.604 3.2761,26.478 					"/>
				</g>
				<g>
					<polygon fill="#F0F1EE" points="30.7576,29.3623 30.7544,30.4883 29.9374,30.9631 29.9406,29.8371 					"/>
				</g>
				<g>
					<polygon fill="#F0F1EE" points="28.0131,30.9573 28.0099,32.0832 27.1928,32.5581 27.196,31.4321 					"/>
				</g>
				<g>
					<polygon fill="#F0F1EE" points="25.2707,32.551 25.2675,33.677 24.4482,34.1531 24.4514,33.0271 					"/>
				</g>
				<g>
					<polygon fill="#F0F1EE" points="22.526,34.146 22.5228,35.272 21.7037,35.748 21.7068,34.6221 					"/>
				</g>
				<g>
					<polygon fill="#FFFFFF" points="46.7286,22.348 21.5487,37.0282 3.2786,26.518 28.4586,11.848 					"/>
				</g>
				<g>
					<polygon fill="#FFFFFF" points="21.5512,37.0291 21.548,38.1551 3.2753,27.6486 3.2784,26.5226 					"/>
				</g>
				<g>
					<path fill="#475160" d="M49.0469,22.141c0.2227,0.1286,0.2238,0.3374,0.0004,0.4672L21.9235,38.3708
						c-0.2234,0.1298-0.586,0.1311-0.8087,0.0025L0.9568,26.7352c-0.2227-0.1286-0.226-0.3412-0.0026-0.471L28.078,10.5015
						c0.2234-0.1298,0.5883-0.1273,0.811,0.0012L49.0469,22.141z M21.4742,37.0279L46.73,22.3968L28.5318,11.847L3.2761,26.478
						L21.4742,37.0279"/>
				</g>
				<g>
					<path fill="#EE4541" d="M41.7769,20.6753c0.069,0.0398,0.0711,0.1045,0.0009,0.1453l-1.3326,0.7744l1.3413,0.7744
						c0.0707,0.0408,0.0693,0.1056,0.0008,0.1454l-0.7639,0.4439c-0.0703,0.0408-0.1803,0.0408-0.2509,0l-1.3413-0.7744
						l-1.3291,0.7724c-0.0703,0.0408-0.182,0.0398-0.2509,0l-0.7689-0.4439c-0.0707-0.0408-0.071-0.1045-0.0008-0.1453
						l1.3291-0.7724l-1.3396-0.7734c-0.069-0.0398-0.0693-0.1035,0.0009-0.1444l0.7639-0.4439
						c0.0685-0.0398,0.1803-0.0408,0.2492-0.001l1.3396,0.7734l1.3326-0.7744c0.0703-0.0408,0.1801-0.0408,0.2508,0L41.7769,20.6753
						z"/>
				</g>
				<g>
					<path fill="#39414D" d="M49.2131,22.3762l-0.0035,1.1258c0,0.0828-0.0552,0.1657-0.1657,0.2313L21.9191,39.4972
						c-0.221,0.1278-0.5836,0.1313-0.8081,0.0035L0.9548,27.86c-0.1139-0.0622-0.1692-0.1485-0.1692-0.2349l0.0035-1.1257
						c0,0.0863,0.0552,0.1691,0.1692,0.2347l20.1563,11.6407c0.2245,0.1278,0.587,0.1244,0.8081-0.0034l27.1248-15.7638
						C49.1578,22.5422,49.2131,22.4592,49.2131,22.3762z"/>
				</g>
			</g>
		</g>
		<g>
			<g enable-background="new    ">
				<g>
					<path fill="#BFBFBF" d="M40.1177,12.8417l0.1599,0.2564c-0.0298-0.0478-0.0722-0.0893-0.1272-0.121
						c-0.2173-0.1254-0.5619-0.0439-0.7528,0.184c-0.1479,0.1766-0.1685,0.3886-0.0766,0.536l-0.1599-0.2564
						c-0.0919-0.1474-0.0714-0.3594,0.0766-0.536c0.1909-0.2279,0.5355-0.3095,0.7528-0.184
						C40.0455,12.7525,40.0879,12.7939,40.1177,12.8417z"/>
				</g>
				<g>
					<path fill="#BFBFBF" d="M40.6484,12.5165l0.1599,0.2564c0.1919,0.3077,0.1441,0.7423-0.1627,1.1086l-0.1599-0.2564
						C40.7924,13.2588,40.8402,12.8243,40.6484,12.5165z"/>
				</g>
				<g>
					<polygon fill="#BFBFBF" points="40.4856,13.6252 40.6455,13.8816 40.5348,13.9918 40.3749,13.7354 					"/>
				</g>
				<g>
					<polygon fill="#BFBFBF" points="40.3749,13.7354 40.5348,13.9918 40.6476,14.6268 40.4878,14.3704 					"/>
				</g>
				<g>
					<polygon fill="#BFBFBF" points="40.9658,14.6464 41.1257,14.9028 41.7495,16.5773 41.5896,16.3209 					"/>
				</g>
				<g>
					<polygon fill="#BFBFBF" points="41.5896,16.3209 41.7495,16.5773 41.1602,17.2809 41.0003,17.0245 					"/>
				</g>
				<g>
					<path fill="#BFBFBF" d="M41.7061,17.5502l0.1599,0.2564c0.2255,0.3617,0.1664,0.8741-0.1947,1.3054l-0.1599-0.2564
						C41.8725,18.4244,41.9316,17.9119,41.7061,17.5502z"/>
				</g>
				<g>
					<polygon fill="#BFBFBF" points="41.5114,18.8556 41.6712,19.112 41.4637,19.3598 41.2043,19.2222 					"/>
				</g>
				<g>
					<path fill="#E8E8E8" d="M41.3914,17.2503c0.5463,0.3154,0.6,1.0321,0.1199,1.6053l-0.3071,0.3666l-8.6851-5.0144l0.3071-0.3666
						c0.48-0.5732,1.3079-0.781,1.8542-0.4655l0.3911,0.2258l0.5893-0.7036l2.1077-0.0974l0.1863,0.1075l0.7377-0.144l0.0983-0.1173
						c0.409-0.4884,1.1212-0.657,1.5868-0.3882s0.5169,0.8783,0.1079,1.3667l-0.1107,0.1102l0.1128,0.635l0.4781,0.276
						l0.6238,1.6745l-0.5893,0.7036L41.3914,17.2503z M39.2868,13.5611c0.2235,0.129,0.5556,0.0404,0.7519-0.194
						c0.1909-0.2279,0.1754-0.5174-0.0481-0.6464c-0.2173-0.1254-0.5619-0.0439-0.7528,0.184
						C39.0415,13.1391,39.0695,13.4356,39.2868,13.5611"/>
				</g>
			</g>
		</g>
	</g>
	<g>
		<polygon fill="#E8E8E8" points="30.163,29.3271 29.3439,29.8031 15.0682,21.5611 15.8873,21.085 		"/>
	</g>
	<g>
		<polygon fill="#E8E8E8" points="34.3684,19.0393 33.5514,19.5141 26.0465,15.1811 26.8635,14.7064 		"/>
	</g>
	<g>
		<polygon fill="#E8E8E8" points="38.3947,24.5434 37.5776,25.0182 23.3019,16.7761 24.1189,16.3013 		"/>
	</g>
	<g>
		<polygon fill="#E8E8E8" points="35.6501,26.1384 34.833,26.6132 20.5573,18.3711 21.3744,17.8963 		"/>
	</g>
	<g>
		<polygon fill="#E8E8E8" points="32.9077,27.7321 32.0884,28.2082 17.8127,19.9661 18.632,19.49 		"/>
	</g>
	<g>
		<polygon fill="#E8E8E8" points="27.4185,30.9221 26.5992,31.3982 12.3235,23.1561 13.1428,22.68 		"/>
	</g>
	<g>
		<polygon fill="#E8E8E8" points="24.6739,32.5171 23.8546,32.9932 9.5789,24.7511 10.3981,24.275 		"/>
	</g>
	<g>
		<polygon fill="#E8E8E8" points="21.9292,34.112 21.11,34.5882 6.8343,26.3461 7.6535,25.87 		"/>
	</g>
</g>
</svg>
