<?xml version="1.0" encoding="utf-8"?>
<!-- Generator: Adobe Illustrator 18.0.0, SVG Export Plug-In . SVG Version: 6.00 Build 0)  -->
<!DOCTYPE svg PUBLIC "-//W3C//DTD SVG 1.1//EN" "http://www.w3.org/Graphics/SVG/1.1/DTD/svg11.dtd">
<svg version="1.1" id="Layer_1" xmlns="http://www.w3.org/2000/svg" xmlns:xlink="http://www.w3.org/1999/xlink" x="0px" y="0px"
	 viewBox="0 0 50 50" enable-background="new 0 0 50 50" xml:space="preserve">
<g>
	<g>
		<g>
			<g>
				<g>
					<g>
						<g enable-background="new    ">
							<g>
								<polygon fill="#DCC55E" points="1,8.664 1.0096,13.261 14.9055,37.6779 14.8959,33.0809 								"/>
							</g>
							<path fill="#EFD874" d="M14.8959,33.0809l0.0096,4.597c6.5497-1.2632,12.5045-4.6008,17.3807-7.4161
								c5.0031-2.8885,8.6963-6.3636,10.885-10.1753l-0.0096-3.3853c-2.1887,3.8117-5.8819,7.2868-10.885,10.1753
								C27.4005,29.6918,21.4456,31.8177,14.8959,33.0809z"/>
							<g>
								<path fill="#F7E28E" d="M1,8.664l13.8959,24.4169c6.5497-1.2632,12.5045-3.3891,17.3807-6.2044
									c5.0031-2.8885,8.6963-6.3635,10.885-10.1753L1,8.664z"/>
							</g>
						</g>
					</g>
					<g>
						<g enable-background="new    ">
							<g>
								<polygon fill="#CB952B" points="14.9055,33.0809 14.9151,37.6847 15.5563,38.8253 15.5563,34.3625 								"/>
							</g>
							<path fill="#DEA726" d="M15.5467,34.6012l0.0096,4.2241c6.6804-2.49,12.8504-4.6945,17.8484-7.5801
								c5.0382-2.9237,8.8641-6.506,11.0794-10.3944l0.4763-4.2241c-2.2154,3.8884-6.5271,7.4706-11.5653,10.3943
								C28.3972,29.9066,22.2272,32.1112,15.5467,34.6012z"/>
							<g>
								<path fill="#EBB41F" d="M42.607,16.5955c-2.1222,3.7121-5.861,6.7823-10.6341,9.5529
									c-4.8124,2.7785-10.6916,5.7076-17.0674,6.9325l0.6508,1.2816c6.6805-1.2782,13.8126-4.4558,18.8106-7.3414
									c5.0382-2.9237,8.5396-6.5014,10.7549-10.3898L42.607,16.5955z"/>
							</g>
						</g>
					</g>
					<g>
						<g enable-background="new    ">
							<g>
								<polygon fill="#733316" points="15.5563,34.3625 15.5574,38.8053 17.0093,41.3361 17.1606,35.9202 								"/>
							</g>
							<path fill="#A45826" d="M17.1606,35.9202l-0.1513,5.4159c7.5731-1.4608,13.5752-3.4144,19.2382-6.6839
								c5.7512-3.3205,10.0692-7.3886,12.6012-11.7961l-0.0106-6.6046c-2.532,4.4074-6.85,8.4756-12.6012,11.7961
								C30.5739,31.3171,24.7337,34.4594,17.1606,35.9202z"/>
							<g>
								<path fill="#C9802A" d="M45.1219,16.6312c-2.3099,4.0082-6.0831,7.7195-11.2607,10.7087
									c-5.207,3.0063-11.3919,5.6893-18.3049,7.0225l1.6042,1.5578c7.5732-1.4608,13.5061-3.971,19.169-7.2405
									C42.0808,25.3592,46.468,20.659,49,16.2515L45.1219,16.6312z"/>
							</g>
						</g>
					</g>
				</g>
				<g>
					<g enable-background="new    ">
						<path fill="#3D3D3D" d="M35.0286,19.5266l-0.0181,0.9999c0.005-0.2766-0.1737-0.5572-0.5379-0.7749
							c-0.7142-0.427-1.8854-0.4448-2.6078-0.0396c-0.3606,0.2022-0.5446,0.4738-0.5496,0.7482l0.0181-0.9999
							c0.005-0.2744,0.1891-0.5459,0.5496-0.7482c0.7223-0.4051,1.8936-0.3874,2.6078,0.0396
							C34.8548,18.9694,35.0336,19.25,35.0286,19.5266z"/>
						<path fill="#3D3D3D" d="M35.9498,19.5367l-0.0181,0.9999c-0.0074,0.4091-0.2827,0.813-0.8219,1.1155
							c-1.0831,0.6075-2.8397,0.5852-3.9188-0.06c-0.5372-0.3212-0.8005-0.7371-0.7931-1.1486l0.0181-0.9999
							c-0.0075,0.4115,0.2559,0.8274,0.7931,1.1486c1.0791,0.6452,2.8357,0.6674,3.9188,0.06
							C35.6671,20.3497,35.9424,19.9458,35.9498,19.5367z"/>
						<g>
							<path fill="#686868" d="M35.15,18.3819c1.0791,0.6452,1.0613,1.6626-0.0221,2.2703c-1.0831,0.6075-2.8397,0.5852-3.9188-0.06
								c-1.0713-0.6405-1.0536-1.658,0.0295-2.2655C32.322,17.7191,34.0787,17.7413,35.15,18.3819z M31.8607,20.2267
								c0.722,0.4317,1.9009,0.4451,2.6228,0.0402c0.7223-0.4051,0.7291-1.0836,0.0072-1.5153
								c-0.7142-0.427-1.8854-0.4448-2.6078-0.0396C31.1609,19.1169,31.1465,19.7997,31.8607,20.2267"/>
						</g>
					</g>
				</g>
				<g>
					<g enable-background="new    ">
						<path fill="#3D3D3D" d="M19.0004,28.0868l-0.0181,0.9999c0.005-0.2766-0.1737-0.5572-0.5379-0.7749
							c-0.7142-0.427-1.8854-0.4448-2.6078-0.0396c-0.3606,0.2022-0.5446,0.4738-0.5496,0.7482l0.0181-0.9999
							c0.005-0.2744,0.1891-0.5459,0.5496-0.7482c0.7223-0.4051,1.8936-0.3874,2.6078,0.0396
							C18.8266,27.5297,19.0054,27.8102,19.0004,28.0868z"/>
						<path fill="#3D3D3D" d="M19.9216,28.0969l-0.0181,0.9999c-0.0074,0.4091-0.2827,0.813-0.8219,1.1155
							c-1.0831,0.6075-2.8397,0.5852-3.9188-0.06c-0.5372-0.3212-0.8005-0.7371-0.7931-1.1486l0.0181-0.9999
							c-0.0075,0.4115,0.2559,0.8274,0.7931,1.1486c1.0791,0.6452,2.8357,0.6674,3.9188,0.06
							C19.6389,28.91,19.9141,28.506,19.9216,28.0969z"/>
						<g>
							<path fill="#686868" d="M19.1218,26.9421c1.0791,0.6452,1.0613,1.6626-0.0221,2.2703
								c-1.0831,0.6075-2.8397,0.5852-3.9188-0.06c-1.0713-0.6405-1.0536-1.658,0.0295-2.2655
								C16.2938,26.2793,18.0505,26.3016,19.1218,26.9421z M15.8325,28.787c0.722,0.4317,1.9009,0.4451,2.6228,0.0402
								c0.7223-0.4051,0.7291-1.0836,0.0072-1.5153c-0.7142-0.427-1.8854-0.4448-2.6078-0.0396
								C15.1327,27.6772,15.1183,28.36,15.8325,28.787"/>
						</g>
					</g>
				</g>
				<g>
					<g enable-background="new    ">
						<path fill="#3D3D3D" d="M23.0846,20.4442l-0.4137,0.9105c0.1144-0.2519,0.0618-0.5804-0.186-0.9248
							c-0.4859-0.6755-1.5538-1.1568-2.3777-1.0718c-0.4112,0.0424-0.688,0.2186-0.8015,0.4684l0.4136-0.9105
							c0.1135-0.2499,0.3903-0.426,0.8015-0.4684c0.8238-0.085,1.8917,0.3963,2.3777,1.0718
							C23.1464,19.8638,23.199,20.1923,23.0846,20.4442z"/>
						<path fill="#3D3D3D" d="M23.9261,20.8192l-0.4137,0.9105c-0.1692,0.3725-0.5822,0.634-1.1973,0.6974
							c-1.2352,0.1275-2.8386-0.5904-3.5728-1.611c-0.3655-0.5081-0.442-0.9944-0.2718-1.3691l0.4137-0.9105
							c-0.1702,0.3747-0.0937,0.861,0.2718,1.3691c0.7342,1.0206,2.3376,1.7385,3.5728,1.611
							C23.3438,21.4532,23.7568,21.1917,23.9261,20.8192z"/>
						<g>
							<path fill="#686868" d="M23.6505,19.4418c0.7342,1.0206,0.3139,1.9474-0.9218,2.0749
								c-1.2352,0.1275-2.8386-0.5904-3.5728-1.611c-0.7289-1.0132-0.3087-1.94,0.9266-2.0675
								C21.3183,17.7106,22.9216,18.4285,23.6505,19.4418z M19.8991,19.8289c0.4912,0.6828,1.5679,1.1633,2.3912,1.0783
								c0.8238-0.085,1.0994-0.705,0.6082-1.3879c-0.4859-0.6755-1.5538-1.1568-2.3777-1.0718
								C19.6976,18.5325,19.4132,19.1535,19.8991,19.8289"/>
						</g>
					</g>
				</g>
				<g>
					<g>
						<path fill="#FDDB00" d="M26.9513,24.9474l-0.0795,0.1007c0.099,0.0575,0.0974,0.0745,0.3045,0.1647l0.0422,0.0123
							l0.0476-0.0397l0.0004-0.0916l-0.1417-0.0884L26.9513,24.9474z"/>
					</g>
					<g>
						<path fill="#FDDB00" d="M26.4767,26.0181l-0.053,0.0365l-0.0162,0.0885l0.1151,0.0975l0.163,0.0702l0.0954-0.0976
							c-0.0656-0.0487,0.0082-0.0402-0.2728-0.183L26.4767,26.0181z"/>
					</g>
					<g>
						<path fill="#FDDB00" d="M24.2561,25.6948l-0.0212,0.0244l0.0681,0.0273l0.158,0.0061l0.1636-0.0763l0.1112-0.0945
							l-0.1733-0.0517C24.4633,25.5817,24.4482,25.5667,24.2561,25.6948z"/>
					</g>
					<g>
						<path fill="#FDDB00" d="M24.0322,26.1767l-0.0159,0.0214l0.0682,0.0335l0.1526,0.003l0.1639-0.0761l0.1109-0.0947
							l-0.1733-0.0517C24.2562,26.0506,24.2192,26.052,24.0322,26.1767z"/>
					</g>
					<g enable-background="new    ">
						<g>
							<path fill="#FDDB00" d="M24.5061,25.114c-0.039,0.0225-0.0758,0.0454-0.1103,0.0683l-0.0212,0.0244l0.0684,0.0275
								l0.158,0.0061l0.1583-0.0733l0.1165-0.0976l-0.1735-0.0519l-0.0739,0.0305C24.5861,25.0694,24.5451,25.0915,24.5061,25.114z"
								/>
						</g>
						<g>
							<path fill="#EE4541" d="M28.4737,23.9957c1.5065,0.8755,1.4985,2.2909-0.0126,3.1633c-1.5164,0.8755-3.9599,0.8755-5.4664,0
								c-1.5015-0.8726-1.4934-2.2879,0.023-3.1633C24.5288,23.1232,26.9721,23.1231,28.4737,23.9957z M25.9117,27.2383
								c0.9056,0.1403,2.1834-0.4308,2.6263-1.577c0.1655-0.4179-0.1738-0.9518-0.3877-1.272
								c-0.2142-0.3204-1.0185-0.5613-1.4563-0.4485c-0.0423,0.0111-0.0798,0.0268-0.1133,0.0461
								c-0.3074,0.1775-0.2814,0.6685-0.3395,0.8721c-0.0539,0.2257-0.0592,0.2104,0.1932,0.2897
								c0.0504,0.0166,0.0784,0.019,0.0942,0.0099c0.0009-0.0005-0.0029-0.3031,0.2789-0.4658
								c0.3396-0.196,0.6412,0.0977,0.775,0.4499c0.1106,0.3048-0.5149,1.5378-1.4245,1.4061
								c-0.1678-0.0244,0.1129-0.8557-0.228-0.6589c-0.2749,0.1709-0.2264,0.9274-0.1965,1.2081
								C25.7384,27.1621,25.8066,27.22,25.9117,27.2383 M24.4692,27.1651c0.0536-0.0119,0.1013-0.0308,0.1439-0.0554
								c0.3068-0.1771,0.3388-0.6463,0.414-0.8445c0.0856-0.2258,0.0854-0.2074-0.151-0.2959
								c-0.05-0.0186-0.0776-0.0212-0.0944-0.0116c-0.0603,0.0348,0.0258,0.2312-0.2769,0.4201
								c-0.0046,0.0031-0.0096,0.006-0.0146,0.0089c-0.3835,0.2214-0.6653-0.0836-0.7567-0.4571
								c-0.0936-0.3581,0.6637-1.1223,0.8441-1.2264c0.2194-0.1267,0.5967-0.1479,0.7381-0.1189
								c0.1682,0.0306-0.21,0.8572,0.1578,0.6571c0.3552-0.2051,0.3316-1.2373,0.3304-1.2916
								c-0.7044-0.2317-1.5651,0.1189-1.9931,0.366c-0.4334,0.2502-0.767,0.6499-0.9747,1.0617
								c-0.2131,0.4088,0.0578,0.9518,0.2351,1.2813C23.2537,26.985,24.0316,27.2597,24.4692,27.1651 M26.827,25.5788l0.005,0.0275
								l0.0839-0.0001l0.127-0.0487l0.064-0.1159l-0.0051-0.113l-0.1896,0.0121l-0.0368,0.052
								C26.8538,25.4538,26.8377,25.5179,26.827,25.5788 M26.4239,26.0548l-0.016,0.0884l0.1148,0.0975l0.1632,0.0703l0.0954-0.0976
								c-0.066-0.049,0.0087-0.0397-0.2727-0.183l-0.0316-0.0121L26.4239,26.0548 M24.8759,25.0695l-0.1734-0.0519l-0.0739,0.0305
								c-0.0424,0.0214-0.0834,0.0435-0.1223,0.0659c-0.0389,0.0225-0.0759,0.0454-0.1102,0.0683l-0.0213,0.0245l0.0684,0.0275
								l0.158,0.0061l0.1584-0.0733L24.8759,25.0695 M24.7362,25.5818l-0.1734-0.0517c-0.1003,0.0521-0.1145,0.0366-0.3064,0.1647
								l-0.0213,0.0245l0.0682,0.0274l0.158,0.0061l0.1634-0.0764L24.7362,25.5818 M26.9296,25.0878
								c0.0788,0.0458,0.1629,0.0884,0.2469,0.125l0.0422,0.0122l0.0474-0.0396l0.0003-0.0917l-0.1416-0.0883l-0.1734-0.0579
								l-0.0795,0.1006L26.9296,25.0878 M24.5119,26.0638l-0.1731-0.0517c-0.082,0.0383-0.1205,0.0405-0.3064,0.1647l-0.0161,0.0215
								l0.0683,0.0335l0.1526,0.003l0.1638-0.0762L24.5119,26.0638"/>
						</g>
						<g>
							<path fill="#FDDB00" d="M26.9121,25.3408l-0.0369,0.052c-0.0215,0.0609-0.0377,0.125-0.0485,0.186l0.0051,0.0274
								l0.0841-0.0001l0.1267-0.0488l0.064-0.1158l-0.0049-0.113L26.9121,25.3408z"/>
						</g>
						<g>
							<path fill="#E02426" d="M23.8107,24.3158c-0.4333,0.2501-0.7672,0.6498-0.9748,1.0616
								c-0.2131,0.4087,0.0578,0.9517,0.2351,1.2813c0.1823,0.3263,0.9603,0.6009,1.3979,0.5063
								c0.0537-0.0119,0.1014-0.0308,0.1439-0.0553c0.307-0.1772,0.3389-0.6463,0.4142-0.8445
								c0.0854-0.2258,0.0855-0.2074-0.151-0.2959c-0.0501-0.0186-0.0777-0.0212-0.0943-0.0116
								c-0.0603,0.0348,0.0257,0.2313-0.2769,0.4202c-0.0048,0.0031-0.0097,0.0059-0.0146,0.0088
								c-0.3835,0.2214-0.6654-0.0837-0.7569-0.4571c-0.0936-0.3582,0.6637-1.1222,0.8441-1.2264
								c0.2194-0.1267,0.5969-0.148,0.738-0.1189c0.1683,0.0305-0.21,0.8573,0.149,0.6619
								c0.3642-0.2099,0.3404-1.2421,0.3391-1.2964C25.0993,23.7181,24.2387,24.0688,23.8107,24.3158z"/>
						</g>
						<g>
							<path fill="#E02426" d="M26.5805,23.9869c-0.3074,0.1775-0.2814,0.6686-0.3396,0.872
								c-0.0539,0.2258-0.0593,0.2104,0.1931,0.2897c0.0506,0.0166,0.0786,0.019,0.0943,0.0099
								c0.0009-0.0005-0.0028-0.3032,0.2788-0.4658c0.3396-0.196,0.6415,0.0978,0.7751,0.4499
								c0.1105,0.3049-0.515,1.5383-1.4247,1.4062c-0.1677-0.0243,0.1131-0.8558-0.2234-0.6615
								c-0.2794,0.1735-0.2309,0.9301-0.2009,1.2107c0.005,0.0641,0.0731,0.1221,0.1782,0.1403
								c0.9077,0.1406,2.1834-0.4307,2.6263-1.577c0.1656-0.4179-0.1738-0.9518-0.3877-1.272
								c-0.2143-0.3204-1.0186-0.5613-1.4564-0.4485C26.6516,23.9518,26.6141,23.9675,26.5805,23.9869z"/>
						</g>
					</g>
				</g>
				<g>
					<g>
						<path fill="#FDDB00" d="M10.265,13.4827l-0.0695,0.088l0.0504,0.0346c0.0689,0.0401,0.1423,0.0773,0.2157,0.1093
							l0.0369,0.0107l0.0416-0.0347l0.0003-0.0801l-0.1238-0.0773L10.265,13.4827z"/>
					</g>
					<g>
						<path fill="#FDDB00" d="M9.8501,14.4186l-0.0463,0.0319l-0.0141,0.0774l0.1006,0.0852l0.1424,0.0614l0.0833-0.0853
							l-0.0367-0.0374c-0.0641-0.0426-0.1284-0.0853-0.2017-0.1226L9.8501,14.4186z"/>
					</g>
					<g>
						<path fill="#FDDB00" d="M8.0074,14.0753c-0.0335,0.0193-0.066,0.0392-0.0981,0.0607l-0.0185,0.0213l0.0595,0.0239
							l0.1381,0.0054l0.143-0.0667l0.0972-0.0826L8.1771,13.992l-0.0646,0.0266C8.0754,14.0372,8.0409,14.056,8.0074,14.0753z"/>
					</g>
					<g>
						<path fill="#FDDB00" d="M7.8134,14.4955c-0.0341,0.0197-0.0677,0.0402-0.0998,0.0617l-0.0139,0.0187l0.0596,0.0293
							l0.1334,0.0026l0.1433-0.0666l0.0969-0.0828l-0.1514-0.0452l-0.0646,0.0266C7.8819,14.4571,7.8475,14.4759,7.8134,14.4955z"/>
					</g>
					<g enable-background="new    ">
						<g>
							<path fill="#FDDB00" d="M8.1278,13.6283C8.0937,13.648,8.0615,13.668,8.0314,13.688l-0.0185,0.0214l0.0598,0.024
								l0.1381,0.0053l0.1384-0.064l0.1018-0.0853L8.2992,13.544l-0.0646,0.0266C8.1977,13.5894,8.1618,13.6087,8.1278,13.6283z"/>
						</g>
						<g>
							<path fill="#EE4541" d="M11.5956,12.6509c1.3168,0.7652,1.3098,2.0023-0.011,2.7649c-1.3254,0.7652-3.4611,0.7652-4.7778,0
								c-1.3124-0.7627-1.3053-1.9997,0.0201-2.7649C8.1477,11.8883,10.2832,11.8882,11.5956,12.6509z M9.3564,15.485
								c0.5189,0.0804,1.0604-0.1321,1.4041-0.3306c0.0552-0.0319,0.1052-0.0635,0.1495-0.0933
								c0.3508-0.2295,0.6017-0.5919,0.7418-0.9545c0.1447-0.3653-0.1519-0.8319-0.3389-1.1118
								c-0.1872-0.28-0.8903-0.4906-1.2729-0.392c-0.037,0.0097-0.0698,0.0234-0.0991,0.0403
								c-0.2687,0.1551-0.2459,0.5843-0.2968,0.7623c-0.0471,0.1973-0.0517,0.1839,0.1689,0.2532
								c0.044,0.0145,0.0685,0.0166,0.0823,0.0087c0.0518-0.0299-0.048-0.2021,0.2005-0.3793
								c0.0147-0.0102,0.029-0.0196,0.0433-0.0279c0.2968-0.1714,0.5605,0.0854,0.6774,0.3933
								c0.118,0.3252-0.4054,0.8665-0.5443,1.0372c-0.025,0.0292-0.0579,0.0545-0.0961,0.0766
								c-0.182,0.1051-0.4832,0.1329-0.6047,0.1153c-0.1467-0.0213,0.0987-0.7479-0.1993-0.5759
								c-0.2403,0.1494-0.1979,0.8106-0.1717,1.0559C9.2049,15.4185,9.2645,15.4691,9.3564,15.485 M8.0956,15.4211
								c0.0469-0.0104,0.0886-0.0269,0.1258-0.0484c0.2682-0.1548,0.2962-0.5649,0.3619-0.7381
								c0.0748-0.1974,0.0747-0.1813-0.1319-0.2586c-0.0437-0.0162-0.0679-0.0186-0.0825-0.0101
								c-0.0527,0.0304,0.0225,0.2021-0.242,0.3672c-0.004,0.0027-0.0084,0.0052-0.0128,0.0078
								c-0.3352,0.1935-0.5815-0.0731-0.6614-0.3996c-0.0857-0.3279,0.4973-0.8505,0.6591-1.0133
								c0.0219-0.0218,0.0487-0.0413,0.0787-0.0586c0.1917-0.1107,0.5216-0.1293,0.6451-0.1039
								c0.147,0.0267-0.1836,0.7493,0.1379,0.5743c0.3104-0.1792,0.2898-1.0814,0.2888-1.1289
								c-0.6157-0.2026-1.368,0.1039-1.742,0.3199c-0.3788,0.2187-0.6704,0.568-0.8519,0.928
								c-0.1863,0.3573,0.0505,0.8319,0.2055,1.1199C7.0331,15.2637,7.713,15.5038,8.0956,15.4211 M10.1564,14.0346l0.0044,0.024
								l0.0733-0.0001l0.111-0.0426l0.0559-0.1013l-0.0045-0.0987l-0.1657,0.0106l-0.0321,0.0455
								C10.1798,13.9254,10.1657,13.9814,10.1564,14.0346 M9.804,14.4506L9.79,14.5279l0.1004,0.0852l0.1426,0.0614l0.0834-0.0853
								l-0.0367-0.0373c-0.064-0.0427-0.1284-0.0853-0.2017-0.1227l-0.0276-0.0106L9.804,14.4506 M8.451,13.5895l-0.1516-0.0454
								l-0.0646,0.0266c-0.037,0.0187-0.0729,0.038-0.1069,0.0576C8.094,13.648,8.0616,13.668,8.0316,13.688l-0.0186,0.0214
								l0.0598,0.024l0.1381,0.0053l0.1385-0.0641L8.451,13.5895 M8.3289,14.0372L8.1773,13.992l-0.0646,0.0266
								c-0.0372,0.0186-0.0717,0.0373-0.1052,0.0567c-0.0333,0.0192-0.0658,0.0392-0.098,0.0606l-0.0186,0.0214l0.0596,0.0239
								l0.1381,0.0053l0.1428-0.0668L8.3289,14.0372 M10.246,13.6054c0.0689,0.04,0.1424,0.0773,0.2158,0.1092l0.0369,0.0107
								l0.0415-0.0346l0.0003-0.0802l-0.1237-0.0772l-0.1516-0.0506l-0.0695,0.088L10.246,13.6054 M8.1329,14.4585l-0.1513-0.0452
								L7.917,14.4399c-0.0348,0.0172-0.0693,0.036-0.1033,0.0556c-0.0342,0.0197-0.0678,0.0403-0.0999,0.0617l-0.014,0.0188
								l0.0597,0.0293l0.1334,0.0026l0.1432-0.0666L8.1329,14.4585"/>
						</g>
						<g>
							<path fill="#FDDB00" d="M10.2307,13.8266l-0.0323,0.0454c-0.0188,0.0533-0.0329,0.1093-0.0424,0.1626l0.0044,0.024
								l0.0735-0.0001l0.1108-0.0426l0.056-0.1012l-0.0043-0.0988L10.2307,13.8266z"/>
						</g>
						<g>
							<path fill="#E02426" d="M7.52,12.9307c-0.3787,0.2186-0.6705,0.5679-0.852,0.9279
								c-0.1862,0.3572,0.0506,0.8319,0.2055,1.1199c0.1593,0.2852,0.8394,0.5252,1.2218,0.4426
								c0.047-0.0104,0.0886-0.0269,0.1257-0.0484c0.2683-0.1549,0.2962-0.5649,0.362-0.7381
								c0.0746-0.1974,0.0747-0.1813-0.132-0.2586c-0.0438-0.0162-0.0679-0.0185-0.0824-0.0101
								c-0.0527,0.0304,0.0225,0.2021-0.242,0.3673c-0.0042,0.0027-0.0085,0.0052-0.0128,0.0077
								c-0.3352,0.1935-0.5816-0.0731-0.6615-0.3995c-0.0857-0.328,0.4973-0.8506,0.6592-1.0132
								c0.022-0.0219,0.0486-0.0414,0.0786-0.0586c0.1917-0.1107,0.5217-0.1294,0.645-0.1039
								c0.1471,0.0267-0.1836,0.7493,0.1302,0.5785c0.3183-0.1835,0.2975-1.0856,0.2964-1.1331
								C8.6462,12.4082,7.8941,12.7148,7.52,12.9307z"/>
						</g>
						<g>
							<path fill="#E02426" d="M9.9409,12.6432c-0.2686,0.1551-0.246,0.5844-0.2968,0.7622
								c-0.0471,0.1973-0.0518,0.1839,0.1687,0.2532c0.0443,0.0145,0.0687,0.0166,0.0824,0.0087
								c0.0519-0.03-0.048-0.2021,0.2004-0.3793c0.0147-0.0102,0.0289-0.0196,0.0433-0.0279
								c0.2968-0.1713,0.5607,0.0855,0.6775,0.3932c0.1179,0.3253-0.4054,0.8665-0.5443,1.0372
								c-0.025,0.0291-0.058,0.0545-0.0962,0.0766c-0.1819,0.105-0.483,0.133-0.6047,0.1153
								c-0.1465-0.0212,0.0988-0.748-0.1952-0.5782c-0.2442,0.1516-0.2018,0.8129-0.1756,1.0582
								c0.0044,0.056,0.0639,0.1067,0.1557,0.1226c0.519,0.0804,1.0603-0.1321,1.4041-0.3306
								c0.0552-0.0319,0.1054-0.0634,0.1496-0.0933c0.3509-0.2294,0.6017-0.5919,0.7418-0.9545
								c0.1447-0.3653-0.1519-0.8319-0.3389-1.1118c-0.1873-0.28-0.8903-0.4906-1.2729-0.392
								C10.003,12.6126,9.9703,12.6263,9.9409,12.6432z"/>
						</g>
					</g>
				</g>
				<g>
					<g>
						<g>
							<g enable-background="new    ">
								<g>
									<polygon fill="#F3AE1C" points="4.7438,11.203 5.3592,10.1016 4.0224,10.1279 3.4069,11.2294 									"/>
								</g>
								<g>
									<polygon fill="#F59D20" points="5.4352,12.3553 6.0506,11.2538 5.3592,10.1016 4.7438,11.203 									"/>
								</g>
								<g>
									<polygon fill="#F5861F" points="4.7438,11.203 3.4069,11.2294 4.0983,12.3816 5.4352,12.3553 									"/>
								</g>
							</g>
						</g>
					</g>
				</g>
				<g>
					<g>
						<g>
							<g enable-background="new    ">
								<g>
									<polygon fill="#F3AE1C" points="18.5131,15.5622 19.1285,14.4607 17.7917,14.4871 17.1762,15.5885 									"/>
								</g>
								<g>
									<polygon fill="#F59D20" points="19.2045,16.7144 19.82,15.613 19.1285,14.4607 18.5131,15.5622 									"/>
								</g>
								<g>
									<polygon fill="#F5861F" points="18.5131,15.5622 17.1762,15.5885 17.8677,16.7408 19.2045,16.7144 									"/>
								</g>
							</g>
						</g>
					</g>
				</g>
				<g>
					<g>
						<g>
							<g enable-background="new    ">
								<g>
									<polygon fill="#F3AE1C" points="32.3544,23.2156 32.9698,22.1141 31.633,22.1405 31.0175,23.2419 									"/>
								</g>
								<g>
									<polygon fill="#F59D20" points="33.0458,24.3678 33.6612,23.2664 32.9698,22.1141 32.3544,23.2156 									"/>
								</g>
								<g>
									<polygon fill="#F5861F" points="32.3544,23.2156 31.0175,23.2419 31.7089,24.3942 33.0458,24.3678 									"/>
								</g>
							</g>
						</g>
					</g>
				</g>
				<g>
					<g>
						<g>
							<g enable-background="new    ">
								<g>
									<polygon fill="#F3AE1C" points="34.296,16.1129 34.9114,15.0115 33.5746,15.0378 32.9591,16.1393 									"/>
								</g>
								<g>
									<polygon fill="#F59D20" points="34.9874,17.2651 35.6028,16.1637 34.9114,15.0115 34.296,16.1129 									"/>
								</g>
								<g>
									<polygon fill="#F5861F" points="34.296,16.1129 32.9591,16.1393 33.6505,17.2915 34.9874,17.2651 									"/>
								</g>
							</g>
						</g>
					</g>
				</g>
				<g>
					<path fill="#4F4D4D" d="M15.5665,13.7723c0.0098-0.0008,0.0197-0.0015,0.0295-0.0015c0.1877,0,0.3391,0.1521,0.3391,0.3398
						c0,0.0424-0.0076,0.0825-0.0219,0.1196c0.0431-0.0514,0.0689-0.1173,0.0689-0.1892c0-0.1627-0.1325-0.2952-0.2952-0.2952
						C15.6437,13.7458,15.6029,13.7549,15.5665,13.7723z"/>
					<path fill="#4F4D4D" d="M12.8579,15.3847c0.0098-0.0008,0.0197-0.0015,0.0295-0.0015c0.1877,0,0.3391,0.1521,0.3391,0.3398
						c0,0.0424-0.0076,0.0825-0.0219,0.1196c0.0431-0.0514,0.0689-0.1173,0.0689-0.1892c0-0.1627-0.1325-0.2952-0.2952-0.2952
						C12.9351,15.3582,12.8943,15.3673,12.8579,15.3847z"/>
					<path fill="#4F4D4D" d="M13.4218,13.3393c0.0098-0.0008,0.0197-0.0015,0.0295-0.0015c0.1877,0,0.3391,0.1521,0.3391,0.3398
						c0,0.0424-0.0076,0.0825-0.0219,0.1196c0.0431-0.0514,0.0689-0.1173,0.0689-0.1892c0-0.1627-0.1325-0.2952-0.2952-0.2952
						C13.499,13.3128,13.4582,13.3219,13.4218,13.3393z"/>
				</g>
				<g>
					<g>
						<circle fill="#3D3D3D" cx="39.795" cy="17.4857" r="0.3403"/>
						<path fill="#4F4D4D" d="M39.6606,17.2236c0.0098-0.0008,0.0197-0.0015,0.0295-0.0015c0.1877,0,0.3391,0.1521,0.3391,0.3398
							c0,0.0424-0.0076,0.0825-0.0219,0.1196c0.0431-0.0514,0.0689-0.1173,0.0689-0.1892c0-0.1627-0.1325-0.2952-0.2952-0.2952
							C39.7378,17.1971,39.697,17.2062,39.6606,17.2236z"/>
					</g>
					<g>
						<circle fill="#3D3D3D" cx="37.0864" cy="19.0981" r="0.3403"/>
						<path fill="#4F4D4D" d="M36.952,18.8361c0.0098-0.0008,0.0197-0.0015,0.0295-0.0015c0.1877,0,0.3391,0.1521,0.3391,0.3398
							c0,0.0424-0.0076,0.0825-0.0219,0.1196c0.0431-0.0514,0.0689-0.1173,0.0689-0.1892c0-0.1627-0.1325-0.2952-0.2952-0.2952
							C37.0292,18.8096,36.9883,18.8187,36.952,18.8361z"/>
					</g>
					<g>
						<circle fill="#3D3D3D" cx="37.6503" cy="17.0527" r="0.3403"/>
						<path fill="#4F4D4D" d="M37.5159,16.7907c0.0098-0.0008,0.0197-0.0015,0.0295-0.0015c0.1877,0,0.3391,0.1521,0.3391,0.3398
							c0,0.0424-0.0076,0.0825-0.0219,0.1196c0.0431-0.0514,0.0689-0.1173,0.0689-0.1892c0-0.1627-0.1325-0.2952-0.2952-0.2952
							C37.5931,16.7642,37.5523,16.7733,37.5159,16.7907z"/>
					</g>
				</g>
				<g>
					<path fill="#4F4D4D" d="M18.0895,23.2743c0.0098-0.0008,0.0197-0.0015,0.0295-0.0015c0.1877,0,0.3391,0.1521,0.3391,0.3398
						c0,0.0424-0.0076,0.0825-0.0219,0.1196c0.0431-0.0514,0.0689-0.1173,0.0689-0.1892c0-0.1627-0.1325-0.2952-0.2952-0.2952
						C18.1667,23.2478,18.1258,23.2569,18.0895,23.2743z"/>
					<path fill="#4F4D4D" d="M15.3809,24.8867c0.0098-0.0008,0.0197-0.0015,0.0295-0.0015c0.1877,0,0.3391,0.1521,0.3391,0.3398
						c0,0.0424-0.0076,0.0825-0.0219,0.1196c0.0431-0.0514,0.0689-0.1173,0.0689-0.1892c0-0.1627-0.1325-0.2952-0.2952-0.2952
						C15.4581,24.8602,15.4172,24.8693,15.3809,24.8867z"/>
					<path fill="#4F4D4D" d="M15.9448,22.8413c0.0098-0.0008,0.0197-0.0015,0.0295-0.0015c0.1877,0,0.3391,0.1521,0.3391,0.3398
						c0,0.0424-0.0076,0.0825-0.0219,0.1196c0.0431-0.0514,0.0689-0.1173,0.0689-0.1892c0-0.1627-0.1325-0.2952-0.2952-0.2952
						C16.022,22.8148,15.9811,22.8239,15.9448,22.8413z"/>
				</g>
				<g>
					<path fill="#4F4D4D" d="M32.7513,19.6748c0.0098-0.0008,0.0197-0.0015,0.0295-0.0015c0.1877,0,0.3391,0.1521,0.3391,0.3398
						c0,0.0424-0.0076,0.0825-0.0219,0.1196c0.0431-0.0514,0.0689-0.1173,0.0689-0.1892c0-0.1627-0.1325-0.2952-0.2952-0.2952
						C32.8285,19.6483,32.7877,19.6574,32.7513,19.6748z"/>
					<path fill="#4F4D4D" d="M30.0427,21.2872c0.0098-0.0008,0.0197-0.0015,0.0295-0.0015c0.1877,0,0.3391,0.1521,0.3391,0.3398
						c0,0.0424-0.0076,0.0825-0.0219,0.1196c0.0431-0.0514,0.0689-0.1173,0.0689-0.1892c0-0.1627-0.1325-0.2952-0.2952-0.2952
						C30.1199,21.2607,30.0791,21.2698,30.0427,21.2872z"/>
					<path fill="#4F4D4D" d="M30.6066,19.2418c0.0098-0.0008,0.0197-0.0015,0.0295-0.0015c0.1877,0,0.3391,0.1521,0.3391,0.3398
						c0,0.0424-0.0076,0.0825-0.0219,0.1196c0.0431-0.0514,0.0689-0.1173,0.0689-0.1892c0-0.1627-0.1325-0.2952-0.2952-0.2952
						C30.6838,19.2153,30.643,19.2244,30.6066,19.2418z"/>
				</g>
				<g>
					<path fill="#4F4D4D" d="M26.5943,25.5943c0.0098-0.0008,0.0197-0.0015,0.0295-0.0015c0.2416,0,0.4006,0.2441,0.3171,0.4594
						C27.1436,25.8105,26.8687,25.4628,26.5943,25.5943z"/>
					<path fill="#4F4D4D" d="M23.8857,27.2067c0.0098-0.0008,0.0197-0.0015,0.0295-0.0015c0.1877,0,0.3391,0.1521,0.3391,0.3398
						c0,0.0424-0.0076,0.0825-0.0219,0.1196c0.0431-0.0514,0.0689-0.1173,0.0689-0.1892c0-0.1627-0.1325-0.2952-0.2952-0.2952
						C23.9629,27.1803,23.922,27.1893,23.8857,27.2067z"/>
					<path fill="#4F4D4D" d="M24.4496,25.1613c0.0098-0.0008,0.0197-0.0015,0.0295-0.0015c0.2416,0,0.4007,0.2441,0.3171,0.4594
						c0.0431-0.0514,0.0689-0.1173,0.0689-0.1892c0-0.1627-0.1325-0.2952-0.2952-0.2952
						C24.5268,25.1348,24.4859,25.1439,24.4496,25.1613z"/>
				</g>
				<g>
					<g enable-background="new    ">
						<path fill="#3D3D3D" d="M11.2888,16.489l0.3766,0.9265c-0.1042-0.2563-0.3789-0.444-0.7993-0.501
							c-0.8246-0.1118-1.9084,0.3325-2.4133,0.9891c-0.252,0.3277-0.3144,0.6498-0.2111,0.904l-0.3766-0.9265
							c-0.1033-0.2542-0.0409-0.5763,0.2111-0.904c0.5048-0.6566,1.5887-1.1008,2.4133-0.9891
							C10.91,16.0451,11.1847,16.2328,11.2888,16.489z"/>
						<path fill="#3D3D3D" d="M12.1397,16.1361l0.3766,0.9265c0.154,0.379,0.0598,0.8587-0.317,1.3489
							c-0.7569,0.9845-2.3808,1.6548-3.6266,1.4859c-0.6202-0.0841-1.0259-0.3629-1.1809-0.7442l-0.3766-0.9265
							c0.155,0.3813,0.5607,0.6601,1.1809,0.7442c1.2458,0.1688,2.8697-0.5015,3.6266-1.4859
							C12.1996,16.9948,12.2938,16.5151,12.1397,16.1361z"/>
						<g>
							<path fill="#686868" d="M10.9502,15.3888c1.2458,0.1688,1.6297,1.1113,0.8724,2.0961
								c-0.7569,0.9845-2.3808,1.6548-3.6266,1.4859c-1.2369-0.1676-1.6207-1.1101-0.8638-2.0945
								C8.0895,15.8915,9.7134,15.2212,10.9502,15.3888z M8.6515,18.3786c0.8335,0.113,1.9228-0.3383,2.4273-0.9945
								c0.5048-0.6566,0.2442-1.283-0.5893-1.396c-0.8246-0.1118-1.9084,0.3325-2.4133,0.9891
								C7.5717,17.6334,7.8269,18.2668,8.6515,18.3786"/>
						</g>
					</g>
				</g>
				<g>
					<path fill="#4F4D4D" d="M25.2362,16.223c0.0098-0.0008,0.0197-0.0015,0.0295-0.0015c0.1877,0,0.3391,0.1521,0.3391,0.3398
						c0,0.0424-0.0076,0.0825-0.0219,0.1196c0.0431-0.0514,0.0689-0.1173,0.0689-0.1892c0-0.1627-0.1325-0.2952-0.2952-0.2952
						C25.3134,16.1965,25.2726,16.2056,25.2362,16.223z"/>
					<path fill="#4F4D4D" d="M22.5276,17.8355c0.0098-0.0008,0.0197-0.0015,0.0295-0.0015c0.1877,0,0.3391,0.1521,0.3391,0.3398
						c0,0.0424-0.0076,0.0825-0.0219,0.1196c0.0431-0.0514,0.0689-0.1173,0.0689-0.1892c0-0.1627-0.1325-0.2952-0.2952-0.2952
						C22.6048,17.809,22.5639,17.8181,22.5276,17.8355z"/>
					<g>
						<g>
							<circle fill="#3D3D3D" cx="15.636" cy="14.0341" r="0.3403"/>
							<circle fill="#3D3D3D" cx="12.9274" cy="15.6469" r="0.3403"/>
							<circle fill="#3D3D3D" cx="13.4913" cy="13.6015" r="0.3403"/>
							<circle fill="#3D3D3D" cx="18.2239" cy="23.5363" r="0.3406"/>
							<circle fill="#3D3D3D" cx="15.5153" cy="25.1489" r="0.3403"/>
							<circle fill="#3D3D3D" cx="16.0142" cy="23.1035" r="0.3403"/>
							<circle fill="#3D3D3D" cx="32.8857" cy="19.937" r="0.3403"/>
							<circle fill="#3D3D3D" cx="30.1771" cy="21.5493" r="0.3403"/>
							<circle fill="#3D3D3D" cx="30.741" cy="19.5038" r="0.3403"/>
							<path fill="#3D3D3D" d="M26.3884,25.8564c0,0.4499,0.6807,0.4507,0.6807,0C27.069,25.4065,26.3884,25.4057,26.3884,25.8564z"
								/>
							<circle fill="#3D3D3D" cx="24.0201" cy="27.4687" r="0.3403"/>
							<path fill="#3D3D3D" d="M24.584,25.0829c-0.1879,0-0.3403,0.1523-0.3403,0.3403c0,0.4498,0.6807,0.4507,0.6807,0
								C24.9244,25.2353,24.772,25.0829,24.584,25.0829z"/>
							<circle fill="#3D3D3D" cx="25.3057" cy="16.4848" r="0.3403"/>
							<circle fill="#3D3D3D" cx="22.597" cy="18.0976" r="0.3403"/>
							<circle fill="#3D3D3D" cx="23.1609" cy="16.0522" r="0.3403"/>
						</g>
						<path fill="#4F4D4D" d="M23.0915,15.7901c0.0098-0.0008,0.0197-0.0015,0.0295-0.0015c0.1877,0,0.3391,0.1521,0.3391,0.3398
							c0,0.0424-0.0076,0.0825-0.0219,0.1196c0.0431-0.0514,0.0689-0.1173,0.0689-0.1892c0-0.1627-0.1325-0.2952-0.2952-0.2952
							C23.1687,15.7636,23.1278,15.7727,23.0915,15.7901z"/>
					</g>
				</g>
			</g>
			<path fill="#80BC41" d="M12.9603,19.8755c0.0453-0.1754,0.149-0.3736,0.3298-0.3858c0.1716-0.0116,0.3013,0.1555,0.361,0.3168
				c0.1816,0.4902,0.0321,1.0679,0.2641,1.5364c0.1701,0.3434,0.5316,0.5955,0.5889,0.9744
				c0.0517,0.3417-0.1652,0.6627-0.392,0.9234c-0.2323,0.267-0.4405,0.5132-0.5549,0.8511
				c-0.6068-0.1896-1.1696-0.8986-0.992-1.5317c0.126-0.4492,0.2773-0.8136,0.2962-1.2911
				C12.8798,20.8034,12.8425,20.3315,12.9603,19.8755z"/>
			<path fill="#80BC41" d="M28.9353,21.3976c0.1616,0.082,0.3329,0.2257,0.306,0.4049c-0.0255,0.1701-0.2166,0.2609-0.3869,0.2846
				c-0.5178,0.0721-1.0498-0.198-1.5572-0.072c-0.3719,0.0924-0.6958,0.3913-1.0781,0.3659
				c-0.3448-0.0229-0.6118-0.3037-0.8177-0.5812c-0.2109-0.2842-0.4066-0.5405-0.712-0.7247
				c0.3155-0.5519,1.1288-0.9493,1.709-0.6399c0.4116,0.2196,0.735,0.4456,1.1973,0.5665
				C28.0463,21.1197,28.5152,21.1846,28.9353,21.3976z"/>
			<path fill="#80BC41" d="M18.8225,13.2404c0.7788,0.031,1.5593-0.082,2.3368-0.0286c1.148,0.0789,2.2673,0.5313,3.1475,1.2724
				c0.076,0.064,0.1531,0.1341,0.1869,0.2275c0.0573,0.1583-0.0321,0.341-0.1694,0.4385c-0.1373,0.0975-0.3109,0.1268-0.4787,0.1406
				c-1.5921,0.1307-3.0615-0.8844-4.6525-1.0284c-0.3887-0.0352-0.7818-0.0178-1.1682-0.0735
				c-0.4164-0.0599-1.6573-0.5723-1.1859-1.1941c0.2269-0.2993,0.5721-0.0386,0.8367,0.0509
				C18.0439,13.17,18.4352,13.2249,18.8225,13.2404z"/>
		</g>
		<path fill="#F7E28E" d="M6.5156,20.4324c0.2882,0.163,0.6545,0.1825,0.9013,0.4032c0.4077,0.3647,0.2609,1.0145,0.2504,1.5615
			c-0.0136,0.7069,0.2763,1.4146,0.7819,1.9088c0.3933,0.3844,0.9189,0.6577,1.1703,1.1468
			c0.1705,0.3317,0.1892,0.7171,0.2497,1.0851c0.1337,0.8135,0.4912,1.5892,1.023,2.2191c0.4115,0.4875,0.919,0.8832,1.4225,1.275
			c0.2571,0.2001,0.5142,0.4002,0.7714,0.6004c0.4732-0.7582,0.4568-1.7419,0.1705-2.5886s-0.8123-1.5879-1.3287-2.3173
			c-1.1894-1.68-2.3654-3.3695-3.5413-5.059c-0.4147-0.5958-0.8307-1.1938-1.1644-1.8385c-0.1923-0.3716-1.428-2.7477-1.71-1.29
			c-0.0943,0.4874,0.1775,1.0989,0.2744,1.5754C5.887,19.6085,6.0443,20.1658,6.5156,20.4324z"/>
	</g>
</g>
</svg>
