<?xml version="1.0" encoding="utf-8"?>
<!-- Generator: Adobe Illustrator 18.0.0, SVG Export Plug-In . SVG Version: 6.00 Build 0)  -->
<!DOCTYPE svg PUBLIC "-//W3C//DTD SVG 1.1//EN" "http://www.w3.org/Graphics/SVG/1.1/DTD/svg11.dtd">
<svg version="1.1" id="Layer_1" xmlns="http://www.w3.org/2000/svg" xmlns:xlink="http://www.w3.org/1999/xlink" x="0px" y="0px"
	 viewBox="0 0 50 50" enable-background="new 0 0 50 50" xml:space="preserve">
<g>
	<g>
		<g>
			<g>
				<g enable-background="new    ">
					<path fill="#BFBFBF" d="M43.6754,20.3605c-0.0653,0.0373-0.1306,0.0747-0.1958,0.1029v-2.275
						c0.0653-0.0282,0.1305-0.0656,0.1958-0.112c1.6223-0.9419,2.4335-2.1725,2.4428-3.4031l-0.0093,2.275
						C46.1089,18.1884,45.2884,19.419,43.6754,20.3605z"/>
					<g>
						<path fill="#E8E8E8" d="M43.6402,11.2138c3.292,1.9006,3.2973,4.9734,0.0385,6.8672c-0.0651,0.0379-0.13,0.0755-0.1953,0.1066
							c1.8999,1.2545,3.7409,2.5363,5.5166,3.863c-6.9367,5.238-14.909,9.871-23.9235,13.9028
							c-4.5299-2.0157-8.8008-4.1819-12.8131-6.4984c-4.0123-2.3165-7.766-4.7833-11.2607-7.4006
							c6.9309-5.2347,14.9032-9.8677,23.9235-13.9028c2.2841,1.0243,4.5091,2.0829,6.6811,3.1793
							c0.0475-0.0414,0.1123-0.079,0.1774-0.1169C35.0435,9.3202,40.3601,9.3201,43.6402,11.2138z"/>
						<path fill="#686868" d="M25.076,34.8576c-4.3262-1.9404-8.4658-4.0481-12.3125-6.2686
							c-3.5479-2.0486-6.9346-4.2444-10.082-6.5381c6.4873-4.7649,13.9619-9.0674,22.2441-12.803
							c2.127,0.9612,4.2217,1.9612,6.2314,2.9756l0.5967,0.3013l0.5068-0.4368c1.4531-0.8381,3.377-1.2944,5.4443-1.2944
							c2.0684,0,3.999,0.4568,5.4355,1.2861c1.2725,0.7349,1.9746,1.6511,1.9756,2.5798c0.001,0.9209-0.6875,1.8291-1.9404,2.5569
							c-0.0459,0.0266-0.084,0.05-0.123,0.0688l-1.5967,0.7625l1.4766,0.9744c1.5693,1.0359,3.0146,2.0347,4.3877,3.0325
							C40.828,26.8222,33.3534,31.1249,25.076,34.8576z"/>
					</g>
				</g>
			</g>
			<g>
				<path fill="#BFBFBF" d="M48.9993,22.0487c-6.9363,5.2392-14.9076,9.8729-23.9228,13.9007v2.2845
					c9.0058-4.0373,16.9771-8.6615,23.9135-13.9011L48.9993,22.0487z"/>
				<path fill="#BFBFBF" d="M48.9993,24.0205c-6.9363,5.2392-14.9076,9.8729-23.9228,13.9007v3.9264
					c9.0058-4.0373,16.9771-8.6615,23.9135-13.9011L48.9993,24.0205z"/>
				<path fill="#D7D7D7" d="M25.0742,35.9502c-4.5314-2.0136-8.8017-4.1771-12.811-6.4989C8.254,27.1395,4.4965,24.6683,1,22.0578
					v2.275c3.4871,2.6201,7.2447,5.0817,11.2539,7.4031c4.0186,2.3123,8.2889,4.4848,12.8203,6.4989
					c0,0,0.0015-0.0009,0.0023-0.0009v-2.2845C25.0757,35.9498,25.075,35.9498,25.0742,35.9502z"/>
				<path fill="#D7D7D7" d="M25.0742,37.9221c-4.5314-2.0136-8.8017-4.1771-12.811-6.4989C8.254,29.1113,4.4965,26.6401,1,24.0296
					v3.9169c3.4871,2.6201,7.2447,5.0817,11.2539,7.4031c4.0186,2.3123,8.2889,4.4848,12.8203,6.4989
					c0,0,0.0015-0.0009,0.0023-0.0009v-3.9264C25.0757,37.9216,25.075,37.9216,25.0742,37.9221z"/>
			</g>
		</g>
		<g>
			<path fill="#E8E8E8" d="M43.6852,18.0853c-3.27,1.8901-8.57,1.8901-11.85,0c-3.29-1.8999-3.31-4.9697-0.04-6.8696
				c3.26-1.8901,8.56-1.9004,11.85,0C46.9352,13.1156,46.9452,16.1854,43.6852,18.0853z"/>
		</g>
		<g>
			<path fill="#BFBFBF" d="M42.7052,11.7552c-2.76-1.5898-7.22-1.5898-9.97,0.0103c-1.56,0.9102-2.23,2.1396-2,3.3198
				c0.16-0.8799,0.83-1.7397,2-2.4199c2.75-1.6001,7.21-1.6001,9.97-0.0103c1.19,0.6904,1.87,1.5605,2.04,2.4604
				C44.9752,13.9154,44.2952,12.6756,42.7052,11.7552z"/>
			<path fill="#D7D7D7" d="M42.7052,12.6551c-2.76-1.5898-7.22-1.5898-9.97,0.0103c-1.17,0.6802-1.84,1.54-2,2.4199
				c0.16,0.8999,0.84,1.77,2.03,2.4502c2.77,1.6001,7.23,1.6001,9.97,0c1.17-0.6802,1.85-1.54,2.01-2.4199
				C44.5752,14.2157,43.8952,13.3455,42.7052,12.6551z"/>
		</g>
		<g>
			<g>
				<polygon fill="#444242" points="43.3683,15.0279 43.3758,15.1753 42.1881,15.1754 42.1807,15.0281 				"/>
			</g>
			<g>
				<rect x="32.101" y="15.0244" fill="#444242" width="1.1877" height="0.151"/>
			</g>
			<g>
				<polygon fill="#444242" points="41.8285,17.356 41.6464,17.4618 40.8021,16.9743 40.9841,16.8685 				"/>
			</g>
			<g>
				<polygon fill="#444242" points="34.6742,13.2254 34.4922,13.3312 33.6478,12.8437 33.8298,12.7379 				"/>
			</g>
			<g>
				<rect x="37.624" y="17.6773" fill="#444242" width="0.2611" height="0.6877"/>
			</g>
			<g>
				<polygon fill="#444242" points="37.8439,11.8384 37.8475,12.5263 37.5932,12.5225 37.5895,11.8346 				"/>
			</g>
			<g>
				<polygon fill="#444242" points="34.6954,16.9743 33.8564,17.4618 33.6731,17.356 34.5121,16.8684 				"/>
			</g>
			<g>
				<polygon fill="#444242" points="41.8031,12.8437 40.9641,13.3313 40.7809,13.2254 41.6198,12.7379 				"/>
			</g>
			<g>
				<polygon fill="#444242" points="43.0228,16.2373 42.9321,16.3734 41.8281,16.1202 41.9188,15.9841 				"/>
			</g>
			<g>
				<polygon fill="#444242" points="33.6482,14.0796 33.5512,14.2193 32.4472,13.9661 32.5442,13.8263 				"/>
			</g>
			<g>
				<polygon fill="#444242" points="39.6304,17.4353 40.1036,18.0702 39.8626,18.1269 39.3959,17.4957 				"/>
			</g>
			<g>
				<polygon fill="#444242" points="35.6073,12.0766 36.0807,12.7038 35.8462,12.7642 35.3727,12.1295 				"/>
			</g>
			<g>
				<polygon fill="#444242" points="36.225,17.5185 35.7851,18.1609 35.5498,18.108 35.9901,17.4655 				"/>
			</g>
			<g>
				<polygon fill="#444242" points="39.9201,12.0954 39.4866,12.734 39.2513,12.6812 39.6848,12.0425 				"/>
			</g>
			<g>
				<polygon fill="#444242" points="33.6073,16.0521 33.7125,16.1881 32.6179,16.4603 32.5126,16.3243 				"/>
			</g>
			<g>
				<polygon fill="#444242" points="42.852,13.7432 42.9573,13.8791 41.8627,14.1513 41.7641,14.0114 				"/>
			</g>
		</g>
		<g>
			<g enable-background="new    ">
				<g>
					<polygon fill="#929292" points="38.1604,14.8233 38.0857,14.7798 38.0861,14.909 38.1608,14.9524 					"/>
				</g>
				<g>
					<polygon fill="#686868" points="40.6367,13.3936 40.562,13.3502 38.0857,14.7798 38.1604,14.8233 					"/>
				</g>
				<g>
					<polygon fill="#3D3D3D" points="38.1604,14.8233 38.1608,14.9524 40.6371,13.5227 40.6367,13.3936 					"/>
				</g>
			</g>
		</g>
		<g>
			<g enable-background="new    ">
				<g>
					<path fill="#686868" d="M38.2184,14.8113l-0.0023,0.444c-0.0002,0.0734-0.0485,0.1468-0.1449,0.2028
						c-0.1941,0.1128-0.51,0.1128-0.7053,0c-0.0983-0.0568-0.1474-0.1313-0.1472-0.2057l0.0023-0.444
						c-0.0002,0.0744,0.0489,0.1489,0.1472,0.2057c0.1953,0.1128,0.5112,0.1128,0.7053,0
						C38.17,14.958,38.2182,14.8847,38.2184,14.8113z"/>
				</g>
				<g>
					<path fill="#BFBFBF" d="M38.0712,14.6056c0.1953,0.1128,0.1965,0.2957,0.0023,0.4085c-0.1941,0.1128-0.51,0.1128-0.7053,0
						c-0.1955-0.1129-0.1964-0.2958-0.0023-0.4085C37.5601,14.4927,37.8757,14.4927,38.0712,14.6056z"/>
				</g>
			</g>
		</g>
	</g>
	<g>
		<g>
			<g>
				<path fill="#4F4D4D" d="M38.19,20.2558c0.7936,0.4582,0.2655,1.2203-0.6574,1.6349c-0.8321,0.3829-2.1803,0.5484-2.816,0.0651
					c-0.5747-0.4189-0.2318-1.1201,0.7703-1.5715C36.4129,19.9591,37.5913,19.9101,38.19,20.2558z"/>
			</g>
			<g>
				<path fill="#4F4D4D" d="M39.0933,22.0401c0.506,0.2921,0.0809,0.7767-0.5401,1.0033c-0.4979,0.1885-1.3648,0.2726-1.728-0.0542
					c-0.3113-0.2774-0.0223-0.6963,0.6332-0.9354C38.0509,21.8376,38.7368,21.8342,39.0933,22.0401z"/>
			</g>
			<g>
				<path fill="#4F4D4D" d="M39.4676,23.3725c0.4946,0.2855,0.0983,0.7464-0.5033,0.9704
					c-0.4897,0.1756-1.3126,0.2552-1.6717-0.0541c-0.2925-0.2665-0.0129-0.6691,0.6145-0.9027
					C38.4718,23.1757,39.1282,23.1765,39.4676,23.3725z"/>
			</g>
			<g>
				<path fill="#4F4D4D" d="M39.4714,24.7098c0.4411,0.2547,0.0836,0.6703-0.4531,0.8676
					c-0.4354,0.1602-1.1836,0.2309-1.4933-0.0487c-0.2639-0.2394-0.0218-0.5984,0.5402-0.805
					C38.5719,24.5375,39.1716,24.5367,39.4714,24.7098z"/>
			</g>
			<g>
				<path fill="#4F4D4D" d="M38.9808,25.9669c0.3681,0.2125,0.0712,0.5472-0.3694,0.7089
					c-0.3479,0.1277-0.9622,0.1884-1.2114-0.0489c-0.2173-0.1901-0.0121-0.484,0.4468-0.6525
					C38.2571,25.8238,38.7354,25.8252,38.9808,25.9669z"/>
			</g>
			<g>
				<path fill="#4F4D4D" d="M36.9361,25.9909c0.022,1.2711-1.6792,1.787-2.7389,2.0499c-1.3688,0.3372-2.7094,0.6907-4.0308,1.0876
					c-2.0615,0.6319-3.3398,1.803-5.5174,2.2461c-1.4319,0.2866-3.6387,0.174-4.2592-1.1257
					c-0.2755-0.5819-0.082-1.229,0.535-1.7185c0.6074-0.4839,1.7701-0.7231,2.7549-0.9244c1.4441-0.2937,2.9633-0.62,3.9451-1.3106
					c1.0383-0.7301,1.167-1.6063,2.791-2.8768c1.0827-0.8713,2.3211-1.3533,3.6449-1.2234
					C36.2524,22.3937,36.9763,23.8907,36.9361,25.9909z"/>
			</g>
		</g>
		<g>
			<g>
				<path fill="#4F4D4D" d="M23.0311,14.7564c-0.4307,0.3908-1.2377,0.5547-1.6701,0.305
					c-0.3431-0.1981-0.3502-0.5833,0.0147-0.9143c0.3918-0.3696,1.0857-0.5218,1.5468-0.3533
					C23.3662,13.9528,23.4301,14.3803,23.0311,14.7564z"/>
			</g>
			<g>
				<path fill="#4F4D4D" d="M25.3234,15.0064c-0.4364,0.4043-1.2618,0.586-1.7275,0.3171c-0.3511-0.2027-0.3557-0.6042,0.0154-0.948
					c0.4111-0.3808,1.1332-0.5385,1.6128-0.3698C25.7062,14.1842,25.7334,14.6403,25.3234,15.0064z"/>
			</g>
			<g>
				<path fill="#4F4D4D" d="M28.2119,16.143c-0.7526,0.5644-2.0617,0.8341-2.8209,0.3958c-0.6055-0.3496-0.517-1.0278,0.2137-1.5758
					c0.7762-0.5711,1.9863-0.7724,2.7014-0.446C29.0599,14.8474,28.9574,15.5945,28.2119,16.143z"/>
			</g>
			<g>
				<path fill="#4F4D4D" d="M18.5534,14.7943c-0.3033,0.2792-0.8785,0.4156-1.2233,0.2166
					c-0.2453-0.1417-0.2489-0.419,0.0099-0.6572c0.2894-0.2664,0.8049-0.3805,1.1344-0.2555
					C18.8028,14.2129,18.8511,14.5203,18.5534,14.7943z"/>
			</g>
			<g>
				<path fill="#4F4D4D" d="M20.7119,14.6637c-0.3804,0.3497-1.0922,0.4987-1.4892,0.2694
					c-0.3052-0.1762-0.2987-0.5189,0.0217-0.8133c0.3548-0.3262,0.9737-0.4677,1.378-0.3207
					C21.0247,13.9448,21.0768,14.3283,20.7119,14.6637z"/>
			</g>
			<g>
				<path fill="#4F4D4D" d="M24.2958,16.1217c1.0234,0.5909,1.0829,1.3667,0.2758,2.0713
					c-0.8722,0.7615-2.8256,1.4117-3.9335,1.7184c-2.5837,0.71-3.4859,0.7743-4.8457,3.0997
					c-0.3537,0.5657-0.7629,1.2399-1.5963,1.5933c-1.3724,0.5843-3.2623,0.4856-4.33-0.1309
					c-0.8527-0.4923-1.0185-1.2952-0.5924-2.0171c0.3719-0.6199,1.0921-1.1475,1.8311-1.6424
					c1.6533-1.1074,1.8489-1.1125,4.1444-4.2416c1.0955-1.423,3.4851-1.2856,5.2227-1.2129
					C21.6901,15.408,23.2536,15.5201,24.2958,16.1217z"/>
			</g>
		</g>
	</g>
</g>
</svg>
