<?xml version="1.0" encoding="utf-8"?>
<!-- Generator: Adobe Illustrator 18.0.0, SVG Export Plug-In . SVG Version: 6.00 Build 0)  -->
<!DOCTYPE svg PUBLIC "-//W3C//DTD SVG 1.1//EN" "http://www.w3.org/Graphics/SVG/1.1/DTD/svg11.dtd">
<svg version="1.1" id="Layer_1" xmlns="http://www.w3.org/2000/svg" xmlns:xlink="http://www.w3.org/1999/xlink" x="0px" y="0px"
	 viewBox="0 0 50 50" enable-background="new 0 0 50 50" xml:space="preserve">
<g>
	<g>
		<g enable-background="new    ">
			<g>
				<path fill="#E5AE70" d="M39.128,12.6622l-0.0018,0.6127c0.0004-0.1381-0.0888-0.2763-0.2674-0.3794
					c-0.3552-0.2051-0.9486-0.2048-1.3014,0.0002c-0.1787,0.1038-0.2664,0.2388-0.2668,0.3734l0.0017-0.6127
					c0.0004-0.1347,0.0881-0.2696,0.2668-0.3734c0.3528-0.205,0.9462-0.2052,1.3014-0.0002
					C39.0392,12.3859,39.1284,12.5241,39.128,12.6622z"/>
			</g>
			<g>
				<path fill="#E5AE70" d="M41.6811,14.1362l-0.0018,0.6127c0.0004-0.1381-0.0888-0.2763-0.2674-0.3794
					c-0.3648-0.2106-0.9486-0.2048-1.3014,0.0002c-0.1799,0.1046-0.27,0.2392-0.2704,0.3741l0.0017-0.6127
					c0.0004-0.1349,0.0905-0.2696,0.2704-0.3741c0.3528-0.205,0.9366-0.2108,1.3014-0.0002
					C41.5923,13.8599,41.6815,13.9982,41.6811,14.1362z"/>
			</g>
			<g>
				<path fill="#E5AE70" d="M36.5951,14.1369l-0.0017,0.6127c0.0004-0.1383-0.0913-0.2762-0.2711-0.38
					c-0.3552-0.2051-0.9388-0.2105-1.3014,0.0002c-0.1752,0.1018-0.2629,0.2378-0.2633,0.374l0.0017-0.6127
					c0.0004-0.1362,0.0881-0.2722,0.2633-0.374c0.3626-0.2107,0.9462-0.2052,1.3014-0.0002
					C36.5038,13.8607,36.5955,13.9986,36.5951,14.1369z"/>
			</g>
			<g>
				<path fill="#E5AE70" d="M44.2282,15.604l-0.0018,0.6127c0.0004-0.1364-0.0888-0.2736-0.2711-0.3788
					c-0.3551-0.205-0.939-0.1993-1.2918,0.0057c-0.1811,0.1053-0.2712,0.241-0.2716,0.3761l0.0017-0.6127
					c0.0004-0.1351,0.0905-0.2709,0.2716-0.3761c0.3528-0.205,0.9367-0.2107,1.2918-0.0057
					C44.1394,15.3305,44.2286,15.4676,44.2282,15.604z"/>
			</g>
			<g>
				<path fill="#E5AE70" d="M39.1482,15.6109l-0.0018,0.6127c0.0004-0.1383-0.0913-0.2762-0.2711-0.38
					c-0.3648-0.2106-0.9388-0.2105-1.3014,0.0002c-0.1764,0.1025-0.2665,0.2383-0.2669,0.3747l0.0017-0.6127
					c0.0004-0.1364,0.0905-0.2722,0.2669-0.3747c0.3626-0.2107,0.9366-0.2108,1.3014-0.0002
					C39.0569,15.3347,39.1486,15.4727,39.1482,15.6109z"/>
			</g>
			<g>
				<path fill="#E5AE70" d="M34.0622,15.6102l-0.0017,0.6127c0.0004-0.1366-0.0913-0.2734-0.2747-0.3793
					c-0.3552-0.2051-0.9388-0.2105-1.3014,0.0002c-0.1728,0.1004-0.2581,0.2326-0.2585,0.3655l0.0017-0.6127
					c0.0004-0.1329,0.0857-0.2651,0.2585-0.3655c0.3626-0.2107,0.9462-0.2052,1.3014-0.0002
					C33.9709,15.3368,34.0626,15.4736,34.0622,15.6102z"/>
			</g>
			<g>
				<path fill="#E5AE70" d="M46.7813,17.0781l-0.0018,0.6127c0.0004-0.1364-0.0888-0.2736-0.2711-0.3788
					c-0.3551-0.205-0.9486-0.2048-1.3014,0.0002c-0.1787,0.1038-0.2664,0.2387-0.2668,0.3734l0.0017-0.6127
					c0.0004-0.1347,0.0881-0.2696,0.2668-0.3734c0.3528-0.205,0.9463-0.2052,1.3014-0.0002
					C46.6925,16.8045,46.7817,16.9416,46.7813,17.0781z"/>
			</g>
			<g>
				<path fill="#E5AE70" d="M41.6953,17.0787l-0.0017,0.6127c0.0004-0.1366-0.0913-0.2734-0.2748-0.3794
					c-0.3551-0.205-0.9292-0.205-1.2918,0.0057c-0.1776,0.1032-0.2677,0.2401-0.2681,0.3768l0.0017-0.6127
					c0.0004-0.1367,0.0905-0.2735,0.2681-0.3768c0.3626-0.2107,0.9367-0.2107,1.2918-0.0057
					C41.604,16.8053,41.6957,16.9421,41.6953,17.0787z"/>
			</g>
			<g>
				<path fill="#E5AE70" d="M36.6117,17.085L36.61,17.6977c0.0004-0.1383-0.0913-0.2762-0.2711-0.38
					c-0.3648-0.2106-0.9388-0.2105-1.3014,0.0002c-0.174,0.1011-0.2617,0.2332-0.262,0.3663l0.0017-0.6127
					c0.0004-0.1331,0.088-0.2652,0.2621-0.3663c0.3626-0.2107,0.9366-0.2108,1.3014-0.0002
					C36.5204,16.8088,36.6121,16.9467,36.6117,17.085z"/>
			</g>
			<g>
				<path fill="#E5AE70" d="M31.5315,17.0784l-0.0017,0.6127c0.0004-0.1365-0.0889-0.2736-0.2712-0.3789
					c-0.3552-0.2051-0.9481-0.2051-1.3009-0.0001c-0.1787,0.1038-0.2665,0.2388-0.2668,0.3734l0.0017-0.6127
					c0.0004-0.1347,0.0882-0.2696,0.2668-0.3734c0.3528-0.205,0.9458-0.205,1.3009,0.0001
					C31.4426,16.8049,31.5319,16.942,31.5315,17.0784z"/>
			</g>
			<g>
				<path fill="#E5AE70" d="M44.2484,18.5528l-0.0017,0.6127c0.0004-0.1366-0.0913-0.2734-0.2748-0.3794
					c-0.3551-0.205-0.9388-0.2105-1.3014,0.0002c-0.1752,0.1018-0.2629,0.2378-0.2633,0.374l0.0017-0.6127
					c0.0004-0.1362,0.0881-0.2722,0.2633-0.374c0.3626-0.2107,0.9463-0.2052,1.3014-0.0002
					C44.1572,18.2793,44.2488,18.4161,44.2484,18.5528z"/>
			</g>
			<g>
				<path fill="#E5AE70" d="M39.1588,18.5528l-0.0017,0.6127c0.0004-0.1366-0.0913-0.2734-0.2748-0.3794
					c-0.3551-0.205-0.9292-0.205-1.2918,0.0057c-0.1752,0.1018-0.2628,0.2349-0.2632,0.3683l0.0017-0.6127
					c0.0004-0.1334,0.088-0.2665,0.2632-0.3683c0.3626-0.2107,0.9367-0.2107,1.2918-0.0057
					C39.0675,18.2794,39.1592,18.4162,39.1588,18.5528z"/>
			</g>
			<g>
				<path fill="#E5AE70" d="M34.081,18.5532l-0.0017,0.6127c0.0004-0.1381-0.0889-0.2764-0.2677-0.3796
					c-0.3648-0.2106-0.9481-0.2051-1.3009-0.0001c-0.1799,0.1046-0.27,0.2392-0.2704,0.3741l0.0017-0.6127
					c0.0004-0.1349,0.0905-0.2696,0.2704-0.3741c0.3528-0.205,0.9362-0.2105,1.3009,0.0001
					C33.9921,18.2768,34.0814,18.4151,34.081,18.5532z"/>
			</g>
			<g>
				<path fill="#E5AE70" d="M41.7119,20.0268l-0.0018,0.6127c0.0004-0.1366-0.0913-0.2734-0.2748-0.3794
					c-0.3551-0.205-0.9388-0.2105-1.3014,0.0002c-0.1728,0.1004-0.2581,0.2326-0.2585,0.3655l0.0017-0.6127
					c0.0004-0.1329,0.0857-0.2651,0.2585-0.3655c0.3626-0.2107,0.9463-0.2052,1.3014-0.0002
					C41.6206,19.7534,41.7123,19.8902,41.7119,20.0268z"/>
			</g>
			<g>
				<path fill="#E5AE70" d="M36.6281,20.021l-0.0018,0.6127c0.0004-0.1365-0.0889-0.2736-0.2713-0.3789
					c-0.3551-0.205-0.9385-0.1996-1.2913,0.0055c-0.1811,0.1053-0.2712,0.241-0.2716,0.3761l0.0017-0.6127
					c0.0004-0.1351,0.0905-0.2709,0.2716-0.3761c0.3528-0.205,0.9362-0.2105,1.2913-0.0055
					C36.5392,19.7474,36.6285,19.8845,36.6281,20.021z"/>
			</g>
			<g>
				<path fill="#E5AE70" d="M39.1812,21.495l-0.0018,0.6127c0.0004-0.1365-0.0889-0.2736-0.2713-0.3789
					c-0.3551-0.205-0.9481-0.2051-1.3009-0.0001c-0.1787,0.1038-0.2664,0.2387-0.2668,0.3734l0.0017-0.6127
					c0.0004-0.1347,0.0881-0.2696,0.2668-0.3734c0.3528-0.205,0.9458-0.2049,1.3009,0.0001
					C39.0923,21.2214,39.1816,21.3586,39.1812,21.495z"/>
			</g>
			<g>
				<path fill="#D89C60" d="M48.9959,16.9911v0.7018c0,0.5395-0.3669,1.0896-1.0899,1.5106L14.4763,38.6375
					c-1.4567,0.8525-3.8307,0.8414-5.2875,0l-7.0881-4.091C1.3669,34.1255,1,33.5643,1,33.0142v-0.7018
					c0,0.5506,0.3669,1.1117,1.1007,1.5322l7.0881,4.0915c1.4568,0.8414,3.8308,0.8525,5.2875,0l33.4406-19.4234
					C48.6398,18.0918,48.9959,17.5417,48.9959,16.9911z"/>
			</g>
			<g>
				<path fill="#E5AE70" d="M13.1237,27.3203L13.122,27.933c0.0004-0.1385-0.0913-0.2776-0.2724-0.3822
					c-0.3552-0.2051-0.9388-0.2106-1.2916-0.0055c-0.1787,0.1038-0.2665,0.2388-0.2668,0.3734l0.0017-0.6127
					c0.0004-0.1347,0.0882-0.2696,0.2669-0.3734c0.3528-0.205,0.9364-0.1995,1.2916,0.0055
					C13.0324,27.0426,13.1241,27.1818,13.1237,27.3203z"/>
			</g>
			<g>
				<path fill="#E5AE70" d="M15.6768,28.7943l-0.0018,0.6127c0.0004-0.1385-0.0913-0.2777-0.2724-0.3822
					c-0.3648-0.2106-0.9388-0.2105-1.2916-0.0055c-0.1799,0.1046-0.27,0.2392-0.2704,0.3741l0.0017-0.6127
					c0.0004-0.1349,0.0905-0.2696,0.2704-0.3741c0.3528-0.205,0.9268-0.2051,1.2916,0.0055
					C15.5855,28.5167,15.6772,28.6558,15.6768,28.7943z"/>
			</g>
			<g>
				<path fill="#E5AE70" d="M10.5954,28.7856l-0.0018,0.6127c0.0004-0.1365-0.0889-0.2736-0.2713-0.3789
					c-0.3552-0.2051-0.9481-0.2051-1.3009-0.0001c-0.1787,0.1038-0.2665,0.2388-0.2668,0.3734l0.0017-0.6127
					c0.0004-0.1347,0.0882-0.2696,0.2668-0.3734c0.3529-0.2051,0.9458-0.205,1.3009,0.0001
					C10.5064,28.512,10.5957,28.6491,10.5954,28.7856z"/>
			</g>
			<g>
				<path fill="#E5AE70" d="M18.2239,30.262l-0.0018,0.6127c0.0004-0.1368-0.0912-0.2748-0.276-0.3815
					c-0.3551-0.205-0.9292-0.205-1.282,0c-0.1811,0.1053-0.2712,0.241-0.2716,0.3761l0.0017-0.6127
					c0.0004-0.1351,0.0905-0.2709,0.2716-0.3761c0.3528-0.205,0.9269-0.205,1.282,0C18.1326,29.9873,18.2243,30.1252,18.2239,30.262
					z"/>
			</g>
			<g>
				<path fill="#E5AE70" d="M13.1449,30.2603l-0.0017,0.6127c0.0004-0.1381-0.0889-0.2764-0.2677-0.3796
					c-0.3648-0.2106-0.9481-0.2051-1.3009-0.0001c-0.1799,0.1046-0.27,0.2392-0.2704,0.3741l0.0017-0.6127
					c0.0004-0.1349,0.0905-0.2696,0.2704-0.3741c0.3529-0.2051,0.9362-0.2105,1.3009,0.0001
					C13.056,29.984,13.1453,30.1223,13.1449,30.2603z"/>
			</g>
			<g>
				<path fill="#E5AE70" d="M8.0592,30.2606l-0.0018,0.6127c0.0004-0.1383-0.0913-0.2762-0.2711-0.38
					c-0.3552-0.2051-0.9388-0.2105-1.3014,0.0002c-0.1752,0.1018-0.2629,0.2378-0.2633,0.374l0.0017-0.6127
					c0.0004-0.1362,0.0881-0.2722,0.2633-0.374c0.3626-0.2107,0.9462-0.2052,1.3014-0.0002
					C7.9679,29.9844,8.0596,30.1223,8.0592,30.2606z"/>
			</g>
			<g>
				<path fill="#E5AE70" d="M20.777,31.7361l-0.0017,0.6127c0.0004-0.1368-0.0913-0.2748-0.276-0.3815
					c-0.3551-0.205-0.9388-0.2105-1.2916-0.0055c-0.1787,0.1038-0.2664,0.2387-0.2668,0.3734l0.0017-0.6127
					c0.0004-0.1347,0.0881-0.2696,0.2668-0.3734c0.3528-0.205,0.9365-0.1995,1.2916,0.0055
					C20.6857,31.4613,20.7774,31.5993,20.777,31.7361z"/>
			</g>
			<g>
				<path fill="#E5AE70" d="M15.692,31.7282l-0.0018,0.6127c0.0004-0.1365-0.0889-0.2736-0.2713-0.3789
					c-0.3551-0.205-0.9385-0.1996-1.2913,0.0055c-0.1811,0.1053-0.2712,0.241-0.2716,0.3761l0.0017-0.6127
					c0.0004-0.1351,0.0905-0.2709,0.2716-0.3761c0.3529-0.2051,0.9362-0.2105,1.2913-0.0055
					C15.603,31.4545,15.6924,31.5917,15.692,31.7282z"/>
			</g>
			<g>
				<path fill="#E5AE70" d="M10.6123,31.7346l-0.0017,0.6127c0.0004-0.1383-0.0913-0.2762-0.2711-0.38
					c-0.3648-0.2106-0.9388-0.2105-1.3014,0.0002c-0.1764,0.1025-0.2665,0.2383-0.2669,0.3747l0.0017-0.6127
					c0.0004-0.1364,0.0905-0.2722,0.2669-0.3747c0.3626-0.2107,0.9366-0.2108,1.3014-0.0002
					C10.521,31.4584,10.6127,31.5964,10.6123,31.7346z"/>
			</g>
			<g>
				<path fill="#E5AE70" d="M5.5226,31.7347l-0.0018,0.6127c0.0004-0.1383-0.0913-0.2762-0.2711-0.38
					c-0.3552-0.2051-0.9387-0.2106-1.3014,0.0002C3.7754,32.068,3.69,32.2004,3.6896,32.3335l0.0017-0.6127
					c0.0004-0.1331,0.0858-0.2655,0.2587-0.3659c0.3627-0.2108,0.9462-0.2052,1.3014-0.0002
					C5.4313,31.4585,5.523,31.5964,5.5226,31.7347z"/>
			</g>
			<g>
				<path fill="#E5AE70" d="M18.2451,33.2022l-0.0017,0.6127c0.0004-0.1365-0.0889-0.2736-0.2713-0.3789
					c-0.3551-0.205-0.9481-0.2051-1.3009-0.0001c-0.1787,0.1038-0.2664,0.2388-0.2668,0.3734l0.0017-0.6127
					c0.0004-0.1347,0.0881-0.2696,0.2668-0.3734c0.3529-0.2051,0.9458-0.2049,1.3009,0.0001
					C18.1562,32.9286,18.2455,33.0657,18.2451,33.2022z"/>
			</g>
			<g>
				<path fill="#E5AE70" d="M13.1594,33.2024l-0.0018,0.6127c0.0004-0.1367-0.0913-0.2735-0.2748-0.3794
					c-0.3551-0.205-0.9292-0.205-1.2918,0.0057c-0.1776,0.1032-0.2677,0.2401-0.2681,0.3768l0.0017-0.6127
					c0.0004-0.1367,0.0905-0.2735,0.2681-0.3768c0.3626-0.2107,0.9367-0.2107,1.2918-0.0057
					C13.0681,32.929,13.1598,33.0658,13.1594,33.2024z"/>
			</g>
			<g>
				<path fill="#E5AE70" d="M8.0757,33.2087L8.074,33.8214c0.0004-0.1383-0.0913-0.2762-0.2712-0.38
					c-0.3648-0.2106-0.9387-0.2106-1.3014,0.0002c-0.1741,0.1012-0.2619,0.2334-0.2622,0.3667l0.0017-0.6127
					c0.0004-0.1333,0.0881-0.2655,0.2622-0.3667c0.3627-0.2108,0.9366-0.2108,1.3014-0.0002
					C7.9844,32.9325,8.0761,33.0705,8.0757,33.2087z"/>
			</g>
			<g>
				<path fill="#E5AE70" d="M15.7125,34.6765l-0.0017,0.6127c0.0004-0.1366-0.0913-0.2734-0.2748-0.3794
					c-0.3551-0.205-0.9388-0.2106-1.3014,0.0002c-0.1752,0.1018-0.2629,0.2378-0.2633,0.374l0.0017-0.6127
					c0.0004-0.1362,0.0881-0.2722,0.2633-0.374c0.3626-0.2107,0.9463-0.2052,1.3014-0.0002
					C15.6212,34.403,15.7129,34.5398,15.7125,34.6765z"/>
			</g>
			<g>
				<path fill="#E5AE70" d="M10.6228,34.6765l-0.0018,0.6127c0.0004-0.1367-0.0913-0.2735-0.2748-0.3794
					c-0.3551-0.205-0.9291-0.2051-1.2918,0.0057c-0.1753,0.1019-0.263,0.2352-0.2634,0.3687l0.0017-0.6127
					c0.0004-0.1335,0.0881-0.2668,0.2634-0.3687c0.3627-0.2108,0.9367-0.2107,1.2918-0.0057
					C10.5315,34.4031,10.6232,34.5399,10.6228,34.6765z"/>
			</g>
			<g>
				<path fill="#E5AE70" d="M13.1759,36.1506l-0.0017,0.6127c0.0004-0.1366-0.0913-0.2734-0.2748-0.3794
					c-0.3551-0.205-0.9387-0.2106-1.3014,0.0002c-0.1729,0.1005-0.2583,0.2329-0.2587,0.3659l0.0017-0.6127
					c0.0004-0.1331,0.0858-0.2655,0.2587-0.3659c0.3627-0.2108,0.9463-0.2052,1.3014-0.0002
					C13.0846,35.8771,13.1763,36.0139,13.1759,36.1506z"/>
			</g>
			<g>
				<path fill="#FDC281" d="M47.8991,15.4527c1.4558,0.8405,1.4742,2.2119,0.017,3.0588L14.477,37.9442
					c-1.4573,0.8469-3.825,0.8407-5.2808,0.0002L2.102,33.8485c-1.4558-0.8405-1.4633-2.2056-0.006-3.0525l16.7248-9.7194
					l7.7648-4.5124l8.9494-5.2009c1.4573-0.8469,3.8141-0.847,5.2698-0.0065L47.8991,15.4527z M14.1407,35.0508
					c0.3648,0.2106,0.9481,0.2052,1.301,0.0001c0.3626-0.2107,0.3608-0.5433-0.004-0.7539
					c-0.3551-0.205-0.9388-0.2105-1.3014,0.0002C13.7834,34.5023,13.7856,34.8458,14.1407,35.0508 M42.6767,18.9271
					c0.3648,0.2106,0.9481,0.2052,1.301,0.0001c0.3626-0.2107,0.3608-0.5433-0.004-0.7539
					c-0.3551-0.205-0.9388-0.2105-1.3014,0.0002C42.3194,18.3786,42.3216,18.7221,42.6767,18.9271 M45.2133,17.453
					c0.3648,0.2106,0.9388,0.2106,1.301,0.0001c0.3528-0.205,0.3608-0.5433-0.004-0.7539c-0.3551-0.205-0.9486-0.2048-1.3014,0.0002
					C44.8467,16.9099,44.8582,17.248,45.2133,17.453 M6.491,30.6343c0.3647,0.2106,0.9481,0.2051,1.3009,0.0001
					c0.3626-0.2107,0.3512-0.5488-0.0039-0.7538c-0.3552-0.2051-0.9388-0.2105-1.3014,0.0002
					C6.1338,30.0858,6.1359,30.4292,6.491,30.6343 M37.5801,15.9846c0.3551,0.205,0.9481,0.2051,1.3009,0.0001
					c0.3626-0.2107,0.3512-0.5488-0.0039-0.7538c-0.3648-0.2106-0.9388-0.2105-1.3014,0.0002
					C37.2228,15.4361,37.2153,15.774,37.5801,15.9846 M35.027,14.5106c0.3551,0.205,0.9481,0.2051,1.3009,0.0001
					c0.3626-0.2107,0.3512-0.5488-0.0039-0.7538c-0.3552-0.2051-0.9388-0.2105-1.3014,0.0002
					C34.6697,13.9621,34.6718,14.3055,35.027,14.5106 M9.0441,32.1083c0.3551,0.205,0.9481,0.2052,1.3009,0.0001
					c0.3626-0.2107,0.3512-0.5488-0.0039-0.7538c-0.3648-0.2106-0.9388-0.2105-1.3014,0.0002
					C8.6869,31.5598,8.6794,31.8977,9.0441,32.1083 M37.5636,13.0365c0.3551,0.205,0.9388,0.2105,1.3009,0.0001
					c0.3528-0.205,0.3512-0.5488-0.0039-0.7538c-0.3552-0.2051-0.9486-0.2048-1.3014,0.0002
					C37.197,12.4934,37.2084,12.8314,37.5636,13.0365 M40.1167,14.5105c0.3551,0.205,0.9388,0.2105,1.3009,0.0001
					c0.3528-0.205,0.3512-0.5488-0.0039-0.7538c-0.3648-0.2106-0.9486-0.2048-1.3014,0.0002
					C39.7501,13.9674,39.7519,14.2999,40.1167,14.5105 M16.6772,33.5767c0.3648,0.2106,0.9388,0.2106,1.301,0.0001
					c0.3529-0.2051,0.3603-0.543-0.0045-0.7536c-0.3551-0.205-0.9481-0.2051-1.3009-0.0001
					C16.3107,33.0337,16.3221,33.3717,16.6772,33.5767 M37.6134,21.8696c0.3648,0.2106,0.9388,0.2106,1.301,0.0001
					c0.3528-0.205,0.3603-0.543-0.0045-0.7536c-0.3551-0.205-0.9481-0.2051-1.3009-0.0001
					C37.2468,21.3265,37.2583,21.6646,37.6134,21.8696 M11.5807,30.6342c0.3551,0.205,0.9388,0.2105,1.3009,0.0001
					c0.3529-0.2051,0.3507-0.5485-0.0044-0.7535c-0.3648-0.2106-0.9481-0.2051-1.3009-0.0001
					C11.2141,30.0912,11.2159,30.4236,11.5807,30.6342 M9.0276,29.1602c0.3647,0.2106,0.9388,0.2105,1.3009,0.0001
					c0.3529-0.2051,0.3603-0.543-0.0044-0.7535c-0.3552-0.2051-0.9481-0.2051-1.3009-0.0001
					C8.661,28.6171,8.6724,28.9551,9.0276,29.1602 M29.9637,17.453c0.3551,0.205,0.9388,0.2105,1.3009,0.0001
					c0.3528-0.205,0.3603-0.543-0.0044-0.7535c-0.3552-0.2051-0.9481-0.2051-1.3009-0.0001
					C29.5972,16.91,29.6085,17.248,29.9637,17.453 M32.5168,18.9271c0.3551,0.205,0.9388,0.2105,1.3009,0.0001
					c0.3528-0.205,0.3507-0.5485-0.0044-0.7535c-0.3648-0.2106-0.9481-0.2051-1.3009-0.0001
					C32.1503,18.384,32.1521,18.7165,32.5168,18.9271 M11.6135,36.5195c0.3648,0.2106,0.9388,0.2106,1.2916,0.0056
					c0.3627-0.2108,0.3608-0.5433-0.004-0.7539c-0.3551-0.205-0.9387-0.2106-1.3014,0.0002
					C11.2469,35.9764,11.2584,36.3144,11.6135,36.5195 M3.9638,32.1029c0.3551,0.205,0.9388,0.2105,1.2916,0.0055
					c0.3627-0.2108,0.3512-0.5488-0.0039-0.7538C4.8963,31.1496,4.3127,31.144,3.95,31.3548
					C3.5973,31.5598,3.6086,31.8979,3.9638,32.1029 M6.5169,33.577c0.3551,0.205,0.9388,0.2106,1.2916,0.0055
					c0.3627-0.2108,0.3512-0.5488-0.0039-0.7538c-0.3648-0.2106-0.9387-0.2106-1.3014,0.0002
					C6.1504,33.0339,6.1522,33.3664,6.5169,33.577 M40.1235,17.4531c0.3648,0.2106,0.9481,0.2052,1.301,0.0001
					c0.3626-0.2107,0.3608-0.5433-0.004-0.7539c-0.3551-0.205-0.9292-0.205-1.2918,0.0057
					C39.7759,16.9101,39.7685,17.2481,40.1235,17.4531 M11.5876,33.5768c0.3648,0.2106,0.9481,0.2052,1.301,0.0001
					c0.3626-0.2107,0.3608-0.5433-0.004-0.7539c-0.3551-0.205-0.9292-0.205-1.2918,0.0057
					C11.2399,33.0338,11.2325,33.3717,11.5876,33.5768 M42.6601,15.979c0.3648,0.2106,0.9388,0.2106,1.301,0.0001
					c0.3528-0.205,0.3608-0.5433-0.004-0.7539c-0.3551-0.205-0.939-0.1993-1.2918,0.0057
					C42.3032,15.4414,42.305,15.774,42.6601,15.979 M40.15,20.3955c0.3648,0.2106,0.9383,0.2109,1.2912,0.0058
					c0.3626-0.2107,0.3608-0.5433-0.004-0.7539c-0.3551-0.205-0.9388-0.2105-1.3014,0.0002
					C39.7829,19.8527,39.7949,20.1905,40.15,20.3955 M19.2138,32.1026c0.3648,0.2106,0.9388,0.2106,1.301,0.0001
					c0.3528-0.205,0.3509-0.5375-0.0138-0.7481c-0.3551-0.205-0.9388-0.2106-1.2916-0.0055
					C18.8473,31.5596,18.8587,31.8976,19.2138,32.1026 M32.5003,15.9789c0.3551,0.205,0.9382,0.2109,1.2911,0.0058
					c0.3626-0.2107,0.3608-0.5433-0.0039-0.7538c-0.3552-0.2051-0.9388-0.2105-1.3014,0.0002
					C32.1332,15.4362,32.1451,15.7739,32.5003,15.9789 M35.0534,17.453c0.3551,0.205,0.9382,0.2109,1.2911,0.0058
					c0.3626-0.2107,0.3512-0.5488-0.0039-0.7538c-0.3648-0.2106-0.9388-0.2105-1.3014,0.0002
					C34.6863,16.9102,34.6887,17.2424,35.0534,17.453 M14.1173,29.1601c0.3551,0.205,0.9388,0.2105,1.3009,0.0001
					c0.3528-0.205,0.3413-0.5431-0.0138-0.7481c-0.3648-0.2106-0.9388-0.2105-1.2916-0.0055
					C13.7507,28.6171,13.7525,28.9495,14.1173,29.1601 M11.5641,27.6861c0.3551,0.205,0.9388,0.2105,1.3009,0.0001
					c0.3528-0.205,0.3413-0.5431-0.0138-0.7481c-0.3552-0.2051-0.9388-0.2106-1.2916-0.0055
					C11.1976,27.143,11.209,27.481,11.5641,27.6861 M14.1241,32.1027c0.3648,0.2106,0.9388,0.2106,1.301,0.0001
					c0.3529-0.2051,0.3603-0.543-0.0045-0.7536c-0.3551-0.205-0.9385-0.1996-1.2913,0.0055
					C13.7671,31.5652,13.769,31.8977,14.1241,32.1027 M35.0603,20.3955c0.3648,0.2106,0.9388,0.2106,1.301,0.0001
					c0.3528-0.205,0.3603-0.543-0.0045-0.7536c-0.3551-0.205-0.9385-0.1996-1.2913,0.0055
					C34.7033,19.858,34.7052,20.1905,35.0603,20.3955 M9.0604,35.0454c0.3648,0.2106,0.9388,0.2106,1.2916,0.0056
					c0.3627-0.2108,0.3608-0.5433-0.004-0.7539c-0.3551-0.205-0.9291-0.2051-1.2918,0.0057
					C8.7034,34.5079,8.7053,34.8404,9.0604,35.0454 M37.5969,18.9214c0.3648,0.2106,0.9383,0.2109,1.2912,0.0058
					c0.3626-0.2107,0.3608-0.5433-0.004-0.7539c-0.3551-0.205-0.9292-0.205-1.2918,0.0057
					C37.2394,18.3842,37.2418,18.7164,37.5969,18.9214 M16.6607,30.6286c0.3648,0.2106,0.9388,0.2106,1.301,0.0001
					c0.3528-0.205,0.3509-0.5375-0.0138-0.7481c-0.3551-0.205-0.9292-0.205-1.282,0C16.3037,30.091,16.3056,30.4236,16.6607,30.6286
					"/>
			</g>
		</g>
	</g>
	<g>
		<g enable-background="new    ">
			<g>
				<path fill="#CC8B4F" d="M34.543,24.1607v0.7617c0,0.1206-0.0836,0.2412-0.2507,0.3341l-8.9975,5.237
					c-0.325,0.1854-0.8635,0.1854-1.1978-0.0095l-9.0532-5.2275c-0.1672-0.0929-0.2507-0.2231-0.2507-0.3437v-0.7612
					c0,0.1297,0.0835,0.2503,0.2507,0.3527l9.0532,5.2275c0.3436,0.195,0.8728,0.195,1.1978,0l9.0068-5.2275
					C34.4594,24.4114,34.543,24.2908,34.543,24.1607z"/>
			</g>
			<g>
				<path fill="#D89C60" d="M25.2365,18.5819l9.0525,5.2335c0.3381,0.1948,0.3361,0.4983,0.0098,0.6879l-8.9996,5.23
					c-0.3298,0.1916-0.8618,0.1917-1.1997-0.0033l-9.0526-5.2265c-0.3379-0.1951-0.3335-0.4998-0.0095-0.6881l8.9996-5.23
					C24.3668,18.3937,24.8985,18.3938,25.2365,18.5819z"/>
			</g>
		</g>
	</g>
</g>
</svg>
