<?xml version="1.0" encoding="utf-8"?>
<!-- Generator: Adobe Illustrator 18.0.0, SVG Export Plug-In . SVG Version: 6.00 Build 0)  -->
<!DOCTYPE svg PUBLIC "-//W3C//DTD SVG 1.1//EN" "http://www.w3.org/Graphics/SVG/1.1/DTD/svg11.dtd">
<svg version="1.1" id="Layer_1" xmlns="http://www.w3.org/2000/svg" xmlns:xlink="http://www.w3.org/1999/xlink" x="0px" y="0px"
	 viewBox="0 0 50 50" enable-background="new 0 0 50 50" xml:space="preserve">
<g>
	<g>
		<g>
			<g enable-background="new    ">
				<g>
					<path fill="#F2961F" d="M35.2099,43.3869c0.01,1.5303-1,3.0503-3.01,4.2202c-2.71,1.5601-6.57,2.0601-10.01,1.5098
						c-1.62-0.2695-3.15-0.7695-4.42-1.5098c-0.09-0.0498-0.18-0.1001-0.26-0.1602c-1.81-1.1299-2.7-2.5698-2.71-4L14.79,26.987
						c0.0267-8.7996,5.66-13.8114,5.66-17.9697V4.8869h9.1V9.027c0,4.4715,5.64,8.9444,5.64,17.9102L35.2099,43.3869z"/>
				</g>
			</g>
		</g>
		<g>
			<g enable-background="new    ">
				<g>
					<path fill="#D7D7D7" d="M34.0036,20.067c-0.293-0.8506-0.6194-1.6904-1.02-2.5l-2.3-4.6299l-0.4-0.7998
						c-0.48-0.98-0.73-2.04-0.73-3.1099V4.8874h-9.1v4.1299c0,1.0801-0.25,2.1499-0.73,3.1201l-2.69,5.3799
						c-0.4125,0.8252-0.7457,1.6816-1.0438,2.5498H34.0036z"/>
				</g>
			</g>
		</g>
		<g>
			<path fill="#D34A27" d="M14.7909,43.0382l0.0472,0.433c0.0042,1.4978,0.9885,2.9935,2.9558,4.1367
				c3.9578,2.3,10.4005,2.3001,14.3843,0.0001c2.0057-1.158,3.0069-2.6776,3.0026-4.1948l-0.0472-0.433
				c0.0043,1.5171-0.9969,3.0368-3.0026,4.1948c-3.9837,2.3-10.4265,2.2999-14.3843-0.0001
				C15.7794,46.0317,14.7951,44.536,14.7909,43.0382z"/>
		</g>
		<g>
			<g>
				<g enable-background="new    ">
					<g>
						<path fill="#F9A62B" d="M21.8,3.029c-1.7824,1.0291-1.793,2.698-0.021,3.7278c1.7708,1.0291,4.6534,1.0291,6.4358,0
							c1.7837-1.0298,1.7917-2.6988,0.021-3.7278C26.4637,1.9993,23.5837,1.9992,21.8,3.029z"/>
					</g>
				</g>
			</g>
			<g>
				<g enable-background="new    ">
					<g>
						<path fill="#BFBFBF" d="M19.4052,3.9314l0.026,3.7748c0.0023,0.8257,0.545,1.6503,1.6295,2.2806
							c2.1819,1.268,5.7338,1.2681,7.93,0.0001c1.1057-0.6384,1.6577-1.4762,1.6553-2.3126L30.62,3.8995
							c0.0024,0.8364-0.5496,1.6742-1.6553,2.3126c-2.1962,1.268-5.7481,1.2679-7.93-0.0001
							C19.9501,5.5818,19.4075,4.7572,19.4052,3.9314z"/>
					</g>
					<g>
						<path fill="#E8E8E8" d="M21.0605,1.6187c-2.1962,1.268-2.2093,3.3245-0.0258,4.5934c2.1819,1.268,5.7338,1.2681,7.93,0.0001
							c2.1978-1.2689,2.2077-3.3254,0.0258-4.5934C26.807,0.3498,23.2583,0.3498,21.0605,1.6187z"/>
						<g>
							<path fill="#BFBFBF" d="M21.2857,2.2886c0.9956-0.5748,2.3258-0.8912,3.7449-0.8912s2.745,0.3162,3.7335,0.8906
								c0.8449,0.4912,1.33,1.1103,1.3925,1.756c0.0044-0.0456,0.0125-0.0911,0.0126-0.1369
								c0.0009-0.697-0.498-1.3714-1.4051-1.8985c-0.9885-0.5744-2.3143-0.8908-3.7335-0.8908s-2.7494,0.3166-3.7449,0.8912
								c-0.9212,0.5319-1.4289,1.212-1.4297,1.915c-0.0001,0.0476,0.008,0.0947,0.0125,0.1422
								C19.931,3.4123,20.4249,2.7855,21.2857,2.2886z"/>
							<path fill="#D7D7D7" d="M21.2615,5.8222c0.9872,0.5737,2.313,0.8899,3.7331,0.8899s2.7498-0.3162,3.7445-0.8906
								c0.861-0.4971,1.355-1.1239,1.4176-1.7776c-0.0626-0.6457-0.5476-1.2648-1.3925-1.756
								c-0.9885-0.5744-2.3143-0.8906-3.7335-0.8906s-2.7494,0.3164-3.7449,0.8912c-0.8609,0.4969-1.3547,1.1237-1.4172,1.7776
								C19.9309,4.712,20.416,5.3311,21.2615,5.8222z"/>
						</g>
					</g>
				</g>
			</g>
		</g>
	</g>
	<g>
		<path fill="#F9A62B" d="M18.1419,24.3268c1.8082,1.0508,4.2366,1.6299,6.8377,1.6299c2.601,0,5.0367-0.5791,6.8586-1.6309
			c1.4899-0.8604,2.3707-1.9336,2.5612-3.0586c-0.1617-0.5742-0.3464-1.1421-0.5558-1.7012
			c-0.4329-0.623-1.0873-1.2061-1.9594-1.7129c-1.8106-1.0522-4.2391-1.6309-6.8385-1.6309s-5.0359,0.5791-6.8594,1.6323
			c-0.9678,0.5586-1.6794,1.207-2.1135,1.9014c-0.174,0.48-0.3251,0.9673-0.4639,1.4575
			C15.7636,22.3586,16.6385,23.4533,18.1419,24.3268z"/>
	</g>
	<path opacity="0.5" fill="#E66C24" d="M35.2099,43.3869c0.0307,4.6871-7.8489,6.5572-13.02,5.73
		c1.79-0.5996,3.98,0.3101,5.62-0.6597c2.9727-1.7881,0.9481-6.349,1.94-9.0903c1.1517-3.1351,4.9417-3.8643,3.19-10.2397
		c-0.9239-3.3154-3.294-7.3178-0.57-12.79c0.2557,0.6665,2.82,4.6737,2.82,10.6001L35.2099,43.3869z"/>
</g>
</svg>
